<svg width="473" height="452" viewBox="0 0 473 452" fill="none" xmlns="http://www.w3.org/2000/svg">
<path opacity="0.92" d="M298.448 239.496L239.989 297.954C237.755 300.188 236.5 303.218 236.5 306.378V316.93" stroke="url(#paint0_radial_13878_76166)" stroke-width="2.38261" stroke-linecap="round"/>
<path opacity="0.92" d="M355.035 384.834V299.972C355.035 296.726 353.711 293.621 351.368 291.374L286.033 228.717C283.69 226.47 282.366 223.364 282.366 220.118V207.33" stroke="url(#paint1_radial_13878_76166)" stroke-width="2.38261" stroke-linecap="round"/>
<rect x="97.3072" y="8.64163" width="277.52" height="192.949" rx="13.2155" fill="url(#paint2_radial_13878_76166)"/>
<rect x="97.3072" y="8.64163" width="277.52" height="192.949" rx="13.2155" fill="url(#paint3_radial_13878_76166)"/>
<rect x="97.3072" y="8.64163" width="277.52" height="192.949" rx="13.2155" stroke="url(#paint4_radial_13878_76166)" stroke-width="5.28619"/>
<rect x="97.3072" y="8.64163" width="277.52" height="192.949" rx="13.2155" stroke="url(#paint5_radial_13878_76166)" stroke-width="5.28619"/>
<g filter="url(#filter0_d_13878_76166)">
<rect x="128.687" y="52.4604" width="95.3043" height="95.3043" rx="19.0609" fill="url(#paint6_linear_13878_76166)" shape-rendering="crispEdges"/>
<path d="M205.541 94.8867C205.375 94.7481 203.883 93.6114 200.679 93.6114C199.85 93.6114 198.993 93.6946 198.165 93.8332C197.557 89.5917 194.048 87.5402 193.91 87.4293L193.054 86.9303L192.501 87.7342C191.811 88.8154 191.286 90.0352 190.982 91.2827C190.402 93.6946 190.761 95.9679 191.976 97.9085C190.512 98.7401 188.136 98.9342 187.639 98.9619H148.41C147.388 98.9619 146.559 99.7936 146.559 100.819C146.504 104.257 147.084 107.695 148.272 110.938C149.626 114.487 151.642 117.12 154.239 118.728C157.168 120.53 161.947 121.556 167.334 121.556C169.765 121.556 172.196 121.334 174.6 120.891C177.942 120.281 181.147 119.116 184.103 117.425C186.534 116.011 188.717 114.209 190.567 112.102C193.689 108.582 195.54 104.645 196.894 101.152C197.087 101.152 197.253 101.152 197.446 101.152C200.844 101.152 202.944 99.7936 204.104 98.6292C204.878 97.9085 205.458 97.0213 205.872 96.0233L206.121 95.3025L205.541 94.8867Z" fill="#0091E2"/>
<path d="M152.057 97.8253H157.306C157.554 97.8253 157.775 97.6312 157.775 97.354V92.6412C157.775 92.3917 157.582 92.1699 157.306 92.1699H152.057C151.808 92.1699 151.587 92.3639 151.587 92.6412V97.354C151.615 97.6312 151.808 97.8253 152.057 97.8253Z" fill="#0091E2"/>
<path d="M159.295 97.8253H164.544C164.792 97.8253 165.013 97.6312 165.013 97.354V92.6412C165.013 92.3917 164.82 92.1699 164.544 92.1699H159.295C159.046 92.1699 158.825 92.3639 158.825 92.6412V97.354C158.853 97.6312 159.046 97.8253 159.295 97.8253Z" fill="#0091E2"/>
<path d="M166.671 97.8253H171.92C172.169 97.8253 172.39 97.6312 172.39 97.354V92.6412C172.39 92.3917 172.196 92.1699 171.92 92.1699H166.671C166.422 92.1699 166.201 92.3639 166.201 92.6412V97.354C166.201 97.6312 166.395 97.8253 166.671 97.8253Z" fill="#0091E2"/>
<path d="M173.937 97.8253H179.186C179.434 97.8253 179.655 97.6312 179.655 97.354V92.6412C179.655 92.3917 179.462 92.1699 179.186 92.1699H173.937C173.688 92.1699 173.467 92.3639 173.467 92.6412V97.354C173.467 97.6312 173.688 97.8253 173.937 97.8253Z" fill="#0091E2"/>
<path d="M159.295 91.0887H164.544C164.792 91.0887 165.013 90.8669 165.013 90.6174V85.9046C165.013 85.6551 164.82 85.4333 164.544 85.4333H159.295C159.046 85.4333 158.825 85.6273 158.825 85.9046V90.6174C158.853 90.8669 159.046 91.0887 159.295 91.0887Z" fill="#0091E2"/>
<path d="M166.671 91.0887H171.92C172.169 91.0887 172.39 90.8669 172.39 90.6174V85.9046C172.39 85.6551 172.196 85.4333 171.92 85.4333H166.671C166.422 85.4333 166.201 85.6273 166.201 85.9046V90.6174C166.201 90.8669 166.395 91.0887 166.671 91.0887Z" fill="#0091E2"/>
<path d="M173.937 91.0887H179.186C179.434 91.0887 179.655 90.8669 179.655 90.6174V85.9046C179.655 85.6551 179.434 85.4333 179.186 85.4333H173.937C173.688 85.4333 173.467 85.6273 173.467 85.9046V90.6174C173.467 90.8669 173.688 91.0887 173.937 91.0887Z" fill="#0091E2"/>
<path d="M173.937 84.3244H179.186C179.434 84.3244 179.655 84.1303 179.655 83.8531V79.1402C179.655 78.8907 179.434 78.6689 179.186 78.6689H173.937C173.688 78.6689 173.467 78.863 173.467 79.1402V83.8531C173.467 84.1026 173.688 84.3244 173.937 84.3244Z" fill="#0091E2"/>
<path d="M181.257 97.8253H186.506C186.755 97.8253 186.976 97.6312 186.976 97.354V92.6412C186.976 92.3917 186.783 92.1699 186.506 92.1699H181.257C181.009 92.1699 180.788 92.3639 180.788 92.6412V97.354C180.815 97.6312 181.009 97.8253 181.257 97.8253Z" fill="#0091E2"/>
</g>
<g opacity="0.5">
<path d="M163.234 31.3899C163.234 30.0741 164.301 29.0073 165.617 29.0073H308.096C309.412 29.0073 310.478 30.0741 310.478 31.3899V37.1082C310.478 38.4241 309.412 39.4908 308.096 39.4908H165.617C164.301 39.4908 163.234 38.4241 163.234 37.1082V31.3899Z" fill="url(#paint7_radial_13878_76166)"/>
<path d="M163.234 31.3899C163.234 30.0741 164.301 29.0073 165.617 29.0073H308.096C309.412 29.0073 310.478 30.0741 310.478 31.3899V37.1082C310.478 38.4241 309.412 39.4908 308.096 39.4908H165.617C164.301 39.4908 163.234 38.4241 163.234 37.1082V31.3899Z" fill="url(#paint8_radial_13878_76166)"/>
<path d="M163.234 31.3899C163.234 30.0741 164.301 29.0073 165.617 29.0073H308.096C309.412 29.0073 310.478 30.0741 310.478 31.3899V37.1082C310.478 38.4241 309.412 39.4908 308.096 39.4908H165.617C164.301 39.4908 163.234 38.4241 163.234 37.1082V31.3899Z" fill="#C7ABBF"/>
</g>
<g opacity="0.5">
<path d="M165.617 165.635C165.617 164.319 166.684 163.252 168 163.252H215.174C216.49 163.252 217.557 164.319 217.557 165.635V171.353C217.557 172.669 216.49 173.735 215.174 173.735H168C166.684 173.735 165.617 172.669 165.617 171.353V165.635Z" fill="url(#paint9_radial_13878_76166)"/>
<path d="M165.617 165.635C165.617 164.319 166.684 163.252 168 163.252H215.174C216.49 163.252 217.557 164.319 217.557 165.635V171.353C217.557 172.669 216.49 173.735 215.174 173.735H168C166.684 173.735 165.617 172.669 165.617 171.353V165.635Z" fill="url(#paint10_radial_13878_76166)"/>
<path d="M165.617 165.635C165.617 164.319 166.684 163.252 168 163.252H215.174C216.49 163.252 217.557 164.319 217.557 165.635V171.353C217.557 172.669 216.49 173.735 215.174 173.735H168C166.684 173.735 165.617 172.669 165.617 171.353V165.635Z" fill="#C7ABBF"/>
</g>
<g opacity="0.5">
<path d="M232.33 165.635C232.33 164.319 233.397 163.252 234.713 163.252H305.713C307.029 163.252 308.096 164.319 308.096 165.635V171.353C308.096 172.669 307.029 173.735 305.713 173.735H234.713C233.397 173.735 232.33 172.669 232.33 171.353V165.635Z" fill="url(#paint11_radial_13878_76166)"/>
<path d="M232.33 165.635C232.33 164.319 233.397 163.252 234.713 163.252H305.713C307.029 163.252 308.096 164.319 308.096 165.635V171.353C308.096 172.669 307.029 173.735 305.713 173.735H234.713C233.397 173.735 232.33 172.669 232.33 171.353V165.635Z" fill="url(#paint12_radial_13878_76166)"/>
<path d="M232.33 165.635C232.33 164.319 233.397 163.252 234.713 163.252H305.713C307.029 163.252 308.096 164.319 308.096 165.635V171.353C308.096 172.669 307.029 173.735 305.713 173.735H234.713C233.397 173.735 232.33 172.669 232.33 171.353V165.635Z" fill="#C7ABBF"/>
</g>
<g filter="url(#filter1_d_13878_76166)">
<rect x="248.711" y="52.4604" width="95.3043" height="95.3043" rx="19.0609" fill="url(#paint13_linear_13878_76166)" shape-rendering="crispEdges"/>
<path d="M300.877 121.281L321.866 84.2515C323.872 80.7118 321.364 76.2866 317.351 76.2866H275.375C271.362 76.2866 268.854 80.7118 270.861 84.2515L274.554 90.7671L275.952 93.2351C278.069 96.9697 282.749 98.2494 286.411 96.0954L292.705 92.3936C293.179 92.1149 293.341 91.4965 293.068 91.0134L291.156 87.6398C290.395 86.298 291.344 84.619 292.863 84.619H308.787C310.308 84.619 311.258 86.3005 310.497 87.6443L302.54 101.684C301.778 103.027 299.877 103.027 299.115 101.684L297.202 98.3069C296.929 97.8248 296.324 97.6598 295.851 97.9374L289.554 101.641C285.895 103.793 284.642 108.567 286.757 112.298L288.155 114.766L291.848 121.281C293.857 124.825 298.869 124.825 300.877 121.281Z" fill="#29063E"/>
</g>
<path d="M82.1699 190.425C82.1699 189.006 83.3206 187.855 84.74 187.855H388.836C390.256 187.855 391.406 189.006 391.406 190.425C391.406 198.052 385.224 204.235 377.597 204.235H95.9798C88.3528 204.235 82.1699 198.052 82.1699 190.425Z" fill="url(#paint14_radial_13878_76166)"/>
<path d="M82.1699 190.425C82.1699 189.006 83.3206 187.855 84.74 187.855H388.836C390.256 187.855 391.406 189.006 391.406 190.425C391.406 198.052 385.224 204.235 377.597 204.235H95.9798C88.3528 204.235 82.1699 198.052 82.1699 190.425Z" fill="url(#paint15_radial_13878_76166)"/>
<path d="M82.1699 190.425C82.1699 189.006 83.3206 187.855 84.74 187.855H388.836C390.256 187.855 391.406 189.006 391.406 190.425C391.406 198.052 385.224 204.235 377.597 204.235H95.9798C88.3528 204.235 82.1699 198.052 82.1699 190.425Z" fill="url(#paint16_radial_13878_76166)"/>
<path opacity="0.92" d="M117.965 384.834V299.972C117.965 296.726 119.289 293.621 121.632 291.374L186.967 228.717C189.31 226.47 190.634 223.364 190.634 220.118V207.33" stroke="url(#paint17_radial_13878_76166)" stroke-width="2.38261" stroke-linecap="round"/>
<ellipse cx="190.04" cy="202.625" rx="6.55221" ry="6.55217" fill="#9A2F8F"/>
<ellipse cx="282.96" cy="202.625" rx="6.55221" ry="6.55217" fill="#00BB93"/>
<ellipse cx="298.448" cy="239.556" rx="6.55221" ry="6.55217" fill="#5A4962"/>
<rect x="31" y="327.652" width="167.974" height="117.939" rx="12" fill="url(#paint18_linear_13878_76166)"/>
<path d="M35.7656 352.33C35.7656 347.912 39.3473 344.33 43.7656 344.33H186.209C190.627 344.33 194.209 347.912 194.209 352.33V432.826C194.209 437.244 190.627 440.826 186.209 440.826H43.7656C39.3474 440.826 35.7656 437.244 35.7656 432.826V352.33Z" fill="#212121"/>
<circle opacity="0.5" cx="46.0427" cy="336.052" r="4.19996" fill="white"/>
<circle opacity="0.5" cx="58.6433" cy="336.052" r="4.19996" fill="white"/>
<circle opacity="0.5" cx="71.2439" cy="336.052" r="4.19996" fill="white"/>
<path d="M47.6768 391.411V387.151H49.1064V391.411H47.6768ZM50.4931 391.411V387.151H51.9226V391.411H50.4931ZM60.7374 393.341H57.4209V397.73H55.8197V387.752H57.4209V391.997H60.7374V387.752H62.3386V397.73H60.7374V393.341ZM68.523 397.902C67.9607 397.902 67.4556 397.811 67.0077 397.63C66.5597 397.449 66.1833 397.192 65.8783 396.858C65.5733 396.524 65.3398 396.124 65.1778 395.657C65.0158 395.181 64.9348 394.647 64.9348 394.056C64.9348 393.465 65.0158 392.931 65.1778 392.455C65.3494 391.978 65.5829 391.573 65.8783 391.24C66.1833 390.897 66.5502 390.635 66.9791 390.453C67.4079 390.272 67.8845 390.182 68.4086 390.182C68.9233 390.182 69.3903 390.272 69.8096 390.453C70.2289 390.625 70.5863 390.873 70.8818 391.197C71.1772 391.521 71.4012 391.907 71.5537 392.355C71.7157 392.803 71.7967 393.298 71.7967 393.842V394.428H66.5073V394.671C66.5073 395.252 66.6884 395.729 67.0505 396.1C67.4127 396.462 67.913 396.644 68.5516 396.644C69.0281 396.644 69.4332 396.543 69.7667 396.343C70.1098 396.134 70.3862 395.857 70.5959 395.514L71.568 396.372C71.3202 396.801 70.939 397.163 70.4243 397.458C69.9192 397.754 69.2854 397.902 68.523 397.902ZM68.4086 391.368C68.1322 391.368 67.8749 391.416 67.6367 391.511C67.4079 391.607 67.2078 391.745 67.0362 391.926C66.8742 392.097 66.7456 392.302 66.6503 392.541C66.555 392.779 66.5073 393.041 66.5073 393.327V393.427H70.2099V393.284C70.2099 392.703 70.0431 392.24 69.7095 391.897C69.3855 391.545 68.9519 391.368 68.4086 391.368ZM74.4358 396.472H76.8804V388.409H74.4358V387.151H78.4386V396.472H80.8831V397.73H74.4358V396.472ZM83.7224 396.472H86.167V388.409H83.7224V387.151H87.7252V396.472H90.1697V397.73H83.7224V396.472ZM96.2255 397.902C95.6823 397.902 95.1915 397.811 94.7531 397.63C94.3242 397.449 93.9573 397.192 93.6523 396.858C93.3569 396.524 93.1281 396.119 92.9661 395.643C92.8041 395.166 92.7231 394.633 92.7231 394.042C92.7231 393.451 92.8041 392.917 92.9661 392.441C93.1281 391.964 93.3569 391.559 93.6523 391.225C93.9573 390.892 94.3242 390.635 94.7531 390.453C95.1915 390.272 95.6823 390.182 96.2255 390.182C96.7687 390.182 97.2548 390.272 97.6837 390.453C98.1221 390.635 98.489 390.892 98.7844 391.225C99.0894 391.559 99.3229 391.964 99.4849 392.441C99.6469 392.917 99.7279 393.451 99.7279 394.042C99.7279 394.633 99.6469 395.166 99.4849 395.643C99.3229 396.119 99.0894 396.524 98.7844 396.858C98.489 397.192 98.1221 397.449 97.6837 397.63C97.2548 397.811 96.7687 397.902 96.2255 397.902ZM96.2255 396.672C96.7973 396.672 97.25 396.501 97.5836 396.157C97.9267 395.805 98.0982 395.285 98.0982 394.599V393.484C98.0982 392.798 97.9267 392.283 97.5836 391.94C97.25 391.588 96.7973 391.411 96.2255 391.411C95.6537 391.411 95.1962 391.588 94.8531 391.94C94.5196 392.283 94.3528 392.798 94.3528 393.484V394.599C94.3528 395.285 94.5196 395.805 94.8531 396.157C95.1962 396.501 95.6537 396.672 96.2255 396.672ZM104.712 395.557H106.927L105.155 399.803H103.94L104.712 395.557ZM120.869 397.73L120.154 387.752H121.555L121.912 393.556L122.07 396.115H122.184L123.313 390.168H124.9L126.029 396.115H126.144L126.301 393.556L126.673 387.752H128.017L127.302 397.73H125.157L124.142 391.955H124.028L123.013 397.73H120.869ZM133.372 397.902C132.829 397.902 132.338 397.811 131.899 397.63C131.471 397.449 131.104 397.192 130.799 396.858C130.503 396.524 130.274 396.119 130.112 395.643C129.95 395.166 129.869 394.633 129.869 394.042C129.869 393.451 129.95 392.917 130.112 392.441C130.274 391.964 130.503 391.559 130.799 391.225C131.104 390.892 131.471 390.635 131.899 390.453C132.338 390.272 132.829 390.182 133.372 390.182C133.915 390.182 134.401 390.272 134.83 390.453C135.268 390.635 135.635 390.892 135.931 391.225C136.236 391.559 136.469 391.964 136.631 392.441C136.793 392.917 136.874 393.451 136.874 394.042C136.874 394.633 136.793 395.166 136.631 395.643C136.469 396.119 136.236 396.524 135.931 396.858C135.635 397.192 135.268 397.449 134.83 397.63C134.401 397.811 133.915 397.902 133.372 397.902ZM133.372 396.672C133.944 396.672 134.396 396.501 134.73 396.157C135.073 395.805 135.245 395.285 135.245 394.599V393.484C135.245 392.798 135.073 392.283 134.73 391.94C134.396 391.588 133.944 391.411 133.372 391.411C132.8 391.411 132.343 391.588 131.999 391.94C131.666 392.283 131.499 392.798 131.499 393.484V394.599C131.499 395.285 131.666 395.805 131.999 396.157C132.343 396.501 132.8 396.672 133.372 396.672ZM139.456 396.472H141.415V391.611H139.456V390.353H142.973V392.312H143.059C143.125 392.055 143.221 391.807 143.345 391.569C143.469 391.33 143.626 391.125 143.816 390.954C144.007 390.773 144.241 390.63 144.517 390.525C144.793 390.411 145.117 390.353 145.489 390.353H146.375V391.84H144.917C144.345 391.84 143.878 392.012 143.516 392.355C143.154 392.688 142.973 393.141 142.973 393.713V396.472H145.646V397.73H139.456V396.472ZM148.729 396.472H151.173V388.409H148.729V387.151H152.731V396.472H155.176V397.73H148.729V396.472ZM162.833 396.472H162.747C162.528 396.92 162.237 397.273 161.875 397.53C161.513 397.778 161.06 397.902 160.517 397.902C159.65 397.902 158.959 397.577 158.444 396.929C157.929 396.281 157.672 395.319 157.672 394.042C157.672 392.765 157.929 391.802 158.444 391.154C158.959 390.506 159.65 390.182 160.517 390.182C161.06 390.182 161.513 390.311 161.875 390.568C162.237 390.816 162.528 391.164 162.747 391.611H162.833V387.151H164.391V397.73H162.833V396.472ZM161.16 396.629C161.389 396.629 161.603 396.601 161.803 396.543C162.004 396.486 162.18 396.4 162.332 396.286C162.485 396.172 162.604 396.034 162.69 395.872C162.785 395.7 162.833 395.5 162.833 395.271V392.812C162.833 392.584 162.785 392.388 162.69 392.226C162.604 392.055 162.485 391.912 162.332 391.797C162.18 391.683 162.004 391.597 161.803 391.54C161.603 391.483 161.389 391.454 161.16 391.454C160.569 391.454 160.112 391.635 159.788 391.997C159.473 392.36 159.316 392.841 159.316 393.441V394.642C159.316 395.243 159.473 395.724 159.788 396.086C160.112 396.448 160.569 396.629 161.16 396.629ZM170.247 394.342L169.66 390.654V387.752H171.376V390.654L170.79 394.342H170.247ZM170.518 397.873C170.08 397.873 169.77 397.782 169.589 397.601C169.408 397.42 169.317 397.192 169.317 396.915V396.572C169.317 396.296 169.408 396.067 169.589 395.886C169.77 395.705 170.08 395.614 170.518 395.614C170.957 395.614 171.266 395.705 171.447 395.886C171.629 396.067 171.719 396.296 171.719 396.572V396.915C171.719 397.192 171.629 397.42 171.447 397.601C171.266 397.782 170.957 397.873 170.518 397.873ZM177.689 391.411V387.151H179.119V391.411H177.689ZM180.505 391.411V387.151H181.935V391.411H180.505Z" fill="white"/>
<rect x="152.514" y="312.165" width="167.974" height="117.939" rx="12" fill="url(#paint19_linear_13878_76166)"/>
<path d="M157.279 336.843C157.279 332.425 160.861 328.843 165.279 328.843H307.723C312.141 328.843 315.723 332.425 315.723 336.843V417.339C315.723 421.757 312.141 425.339 307.723 425.339H165.279C160.861 425.339 157.279 421.757 157.279 417.339V336.843Z" fill="#212121"/>
<circle opacity="0.5" cx="167.556" cy="320.565" r="4.19996" fill="white"/>
<circle opacity="0.5" cx="180.157" cy="320.565" r="4.19996" fill="white"/>
<circle opacity="0.5" cx="192.758" cy="320.565" r="4.19996" fill="white"/>
<path d="M169.19 375.924V371.664H170.62V375.924H169.19ZM172.007 375.924V371.664H173.436V375.924H172.007ZM182.251 377.854H178.935V382.243H177.333V372.265H178.935V376.511H182.251V372.265H183.852V382.243H182.251V377.854ZM190.037 382.415C189.474 382.415 188.969 382.324 188.521 382.143C188.073 381.962 187.697 381.705 187.392 381.371C187.087 381.038 186.854 380.637 186.691 380.17C186.529 379.694 186.448 379.16 186.448 378.569C186.448 377.978 186.529 377.445 186.691 376.968C186.863 376.492 187.097 376.087 187.392 375.753C187.697 375.41 188.064 375.148 188.493 374.967C188.922 374.786 189.398 374.695 189.922 374.695C190.437 374.695 190.904 374.786 191.323 374.967C191.743 375.138 192.1 375.386 192.395 375.71C192.691 376.034 192.915 376.42 193.067 376.868C193.229 377.316 193.31 377.812 193.31 378.355V378.941H188.021V379.184C188.021 379.765 188.202 380.242 188.564 380.613C188.926 380.976 189.427 381.157 190.065 381.157C190.542 381.157 190.947 381.057 191.28 380.856C191.623 380.647 191.9 380.37 192.11 380.027L193.082 380.885C192.834 381.314 192.453 381.676 191.938 381.972C191.433 382.267 190.799 382.415 190.037 382.415ZM189.922 375.882C189.646 375.882 189.389 375.929 189.15 376.025C188.922 376.12 188.721 376.258 188.55 376.439C188.388 376.611 188.259 376.816 188.164 377.054C188.069 377.292 188.021 377.554 188.021 377.84V377.94H191.724V377.797C191.724 377.216 191.557 376.754 191.223 376.411C190.899 376.058 190.466 375.882 189.922 375.882ZM195.949 380.985H198.394V372.922H195.949V371.664H199.952V380.985H202.397V382.243H195.949V380.985ZM205.236 380.985H207.681V372.922H205.236V371.664H209.239V380.985H211.683V382.243H205.236V380.985ZM217.739 382.415C217.196 382.415 216.705 382.324 216.267 382.143C215.838 381.962 215.471 381.705 215.166 381.371C214.871 381.038 214.642 380.633 214.48 380.156C214.318 379.679 214.237 379.146 214.237 378.555C214.237 377.964 214.318 377.43 214.48 376.954C214.642 376.477 214.871 376.072 215.166 375.739C215.471 375.405 215.838 375.148 216.267 374.967C216.705 374.786 217.196 374.695 217.739 374.695C218.282 374.695 218.768 374.786 219.197 374.967C219.636 375.148 220.003 375.405 220.298 375.739C220.603 376.072 220.837 376.477 220.999 376.954C221.161 377.43 221.242 377.964 221.242 378.555C221.242 379.146 221.161 379.679 220.999 380.156C220.837 380.633 220.603 381.038 220.298 381.371C220.003 381.705 219.636 381.962 219.197 382.143C218.768 382.324 218.282 382.415 217.739 382.415ZM217.739 381.185C218.311 381.185 218.764 381.014 219.097 380.671C219.44 380.318 219.612 379.799 219.612 379.112V377.997C219.612 377.311 219.44 376.797 219.097 376.453C218.764 376.101 218.311 375.924 217.739 375.924C217.167 375.924 216.71 376.101 216.367 376.453C216.033 376.797 215.866 377.311 215.866 377.997V379.112C215.866 379.799 216.033 380.318 216.367 380.671C216.71 381.014 217.167 381.185 217.739 381.185ZM226.225 380.07H228.441L226.668 384.316H225.453L226.225 380.07ZM242.382 382.243L241.668 372.265H243.069L243.426 378.069L243.583 380.628H243.698L244.827 374.681H246.414L247.543 380.628H247.658L247.815 378.069L248.186 372.265H249.53L248.815 382.243H246.671L245.656 376.468H245.542L244.527 382.243H242.382ZM254.886 382.415C254.342 382.415 253.851 382.324 253.413 382.143C252.984 381.962 252.617 381.705 252.312 381.371C252.017 381.038 251.788 380.633 251.626 380.156C251.464 379.679 251.383 379.146 251.383 378.555C251.383 377.964 251.464 377.43 251.626 376.954C251.788 376.477 252.017 376.072 252.312 375.739C252.617 375.405 252.984 375.148 253.413 374.967C253.851 374.786 254.342 374.695 254.886 374.695C255.429 374.695 255.915 374.786 256.344 374.967C256.782 375.148 257.149 375.405 257.444 375.739C257.749 376.072 257.983 376.477 258.145 376.954C258.307 377.43 258.388 377.964 258.388 378.555C258.388 379.146 258.307 379.679 258.145 380.156C257.983 380.633 257.749 381.038 257.444 381.371C257.149 381.705 256.782 381.962 256.344 382.143C255.915 382.324 255.429 382.415 254.886 382.415ZM254.886 381.185C255.457 381.185 255.91 381.014 256.244 380.671C256.587 380.318 256.758 379.799 256.758 379.112V377.997C256.758 377.311 256.587 376.797 256.244 376.453C255.91 376.101 255.457 375.924 254.886 375.924C254.314 375.924 253.856 376.101 253.513 376.453C253.18 376.797 253.013 377.311 253.013 377.997V379.112C253.013 379.799 253.18 380.318 253.513 380.671C253.856 381.014 254.314 381.185 254.886 381.185ZM260.97 380.985H262.928V376.125H260.97V374.867H264.487V376.825H264.572C264.639 376.568 264.734 376.32 264.858 376.082C264.982 375.843 265.139 375.639 265.33 375.467C265.521 375.286 265.754 375.143 266.031 375.038C266.307 374.924 266.631 374.867 267.003 374.867H267.889V376.353H266.431C265.859 376.353 265.392 376.525 265.03 376.868C264.668 377.202 264.487 377.654 264.487 378.226V380.985H267.16V382.243H260.97V380.985ZM270.242 380.985H272.687V372.922H270.242V371.664H274.245V380.985H276.69V382.243H270.242V380.985ZM284.346 380.985H284.261C284.041 381.433 283.751 381.786 283.389 382.043C283.026 382.291 282.574 382.415 282.031 382.415C281.163 382.415 280.472 382.091 279.958 381.443C279.443 380.795 279.186 379.832 279.186 378.555C279.186 377.278 279.443 376.315 279.958 375.667C280.472 375.019 281.163 374.695 282.031 374.695C282.574 374.695 283.026 374.824 283.389 375.081C283.751 375.329 284.041 375.677 284.261 376.125H284.346V371.664H285.905V382.243H284.346V380.985ZM282.674 381.142C282.903 381.142 283.117 381.114 283.317 381.057C283.517 380.999 283.694 380.914 283.846 380.799C283.999 380.685 284.118 380.547 284.203 380.385C284.299 380.213 284.346 380.013 284.346 379.784V377.325C284.346 377.097 284.299 376.901 284.203 376.739C284.118 376.568 283.999 376.425 283.846 376.31C283.694 376.196 283.517 376.11 283.317 376.053C283.117 375.996 282.903 375.967 282.674 375.967C282.083 375.967 281.625 376.148 281.301 376.511C280.987 376.873 280.83 377.354 280.83 377.954V379.155C280.83 379.756 280.987 380.237 281.301 380.599C281.625 380.961 282.083 381.142 282.674 381.142ZM291.76 378.855L291.174 375.167V372.265H292.89V375.167L292.304 378.855H291.76ZM292.032 382.386C291.593 382.386 291.284 382.296 291.103 382.115C290.922 381.933 290.831 381.705 290.831 381.428V381.085C290.831 380.809 290.922 380.58 291.103 380.399C291.284 380.218 291.593 380.127 292.032 380.127C292.47 380.127 292.78 380.218 292.961 380.399C293.142 380.58 293.233 380.809 293.233 381.085V381.428C293.233 381.705 293.142 381.933 292.961 382.115C292.78 382.296 292.47 382.386 292.032 382.386ZM299.203 375.924V371.664H300.632V375.924H299.203ZM302.019 375.924V371.664H303.449V375.924H302.019Z" fill="white"/>
<rect x="274.025" y="296.678" width="167.974" height="117.939" rx="12" fill="url(#paint20_linear_13878_76166)"/>
<path d="M278.791 321.356C278.791 316.938 282.373 313.356 286.791 313.356H429.234C433.653 313.356 437.234 316.938 437.234 321.356V401.852C437.234 406.27 433.653 409.852 429.234 409.852H286.791C282.373 409.852 278.791 406.27 278.791 401.852V321.356Z" fill="#212121"/>
<circle opacity="0.5" cx="289.068" cy="305.077" r="4.19996" fill="white"/>
<circle opacity="0.5" cx="301.669" cy="305.077" r="4.19996" fill="white"/>
<circle opacity="0.5" cx="314.269" cy="305.077" r="4.19996" fill="white"/>
<path d="M290.702 360.437V356.177H292.132V360.437H290.702ZM293.518 360.437V356.177H294.948V360.437H293.518ZM303.763 362.367H300.446V366.756H298.845V356.777H300.446V361.023H303.763V356.777H305.364V366.756H303.763V362.367ZM311.548 366.927C310.986 366.927 310.481 366.837 310.033 366.656C309.585 366.475 309.209 366.217 308.904 365.884C308.599 365.55 308.365 365.15 308.203 364.683C308.041 364.206 307.96 363.673 307.96 363.082C307.96 362.491 308.041 361.957 308.203 361.481C308.375 361.004 308.608 360.599 308.904 360.266C309.209 359.923 309.576 359.66 310.004 359.479C310.433 359.298 310.91 359.208 311.434 359.208C311.949 359.208 312.416 359.298 312.835 359.479C313.254 359.651 313.612 359.899 313.907 360.223C314.203 360.547 314.427 360.933 314.579 361.381C314.741 361.829 314.822 362.324 314.822 362.867V363.454H309.533V363.697C309.533 364.278 309.714 364.754 310.076 365.126C310.438 365.488 310.938 365.669 311.577 365.669C312.053 365.669 312.459 365.569 312.792 365.369C313.135 365.16 313.412 364.883 313.621 364.54L314.593 365.398C314.346 365.827 313.964 366.189 313.45 366.484C312.945 366.78 312.311 366.927 311.548 366.927ZM311.434 360.394C311.158 360.394 310.9 360.442 310.662 360.537C310.433 360.633 310.233 360.771 310.062 360.952C309.9 361.123 309.771 361.328 309.676 361.567C309.58 361.805 309.533 362.067 309.533 362.353V362.453H313.235V362.31C313.235 361.729 313.068 361.266 312.735 360.923C312.411 360.571 311.977 360.394 311.434 360.394ZM317.461 365.498H319.906V357.435H317.461V356.177H321.464V365.498H323.909V366.756H317.461V365.498ZM326.748 365.498H329.192V357.435H326.748V356.177H330.751V365.498H333.195V366.756H326.748V365.498ZM339.251 366.927C338.708 366.927 338.217 366.837 337.778 366.656C337.35 366.475 336.983 366.217 336.678 365.884C336.382 365.55 336.154 365.145 335.991 364.669C335.829 364.192 335.748 363.658 335.748 363.068C335.748 362.477 335.829 361.943 335.991 361.466C336.154 360.99 336.382 360.585 336.678 360.251C336.983 359.918 337.35 359.66 337.778 359.479C338.217 359.298 338.708 359.208 339.251 359.208C339.794 359.208 340.28 359.298 340.709 359.479C341.147 359.66 341.514 359.918 341.81 360.251C342.115 360.585 342.348 360.99 342.51 361.466C342.672 361.943 342.753 362.477 342.753 363.068C342.753 363.658 342.672 364.192 342.51 364.669C342.348 365.145 342.115 365.55 341.81 365.884C341.514 366.217 341.147 366.475 340.709 366.656C340.28 366.837 339.794 366.927 339.251 366.927ZM339.251 365.698C339.823 365.698 340.275 365.526 340.609 365.183C340.952 364.831 341.124 364.311 341.124 363.625V362.51C341.124 361.824 340.952 361.309 340.609 360.966C340.275 360.613 339.823 360.437 339.251 360.437C338.679 360.437 338.222 360.613 337.879 360.966C337.545 361.309 337.378 361.824 337.378 362.51V363.625C337.378 364.311 337.545 364.831 337.879 365.183C338.222 365.526 338.679 365.698 339.251 365.698ZM347.737 364.583H349.953L348.18 368.829H346.965L347.737 364.583ZM363.894 366.756L363.179 356.777H364.58L364.938 362.582L365.095 365.14H365.209L366.339 359.193H367.926L369.055 365.14H369.169L369.326 362.582L369.698 356.777H371.042L370.327 366.756H368.183L367.168 360.98H367.053L366.038 366.756H363.894ZM376.397 366.927C375.854 366.927 375.363 366.837 374.925 366.656C374.496 366.475 374.129 366.217 373.824 365.884C373.529 365.55 373.3 365.145 373.138 364.669C372.976 364.192 372.895 363.658 372.895 363.068C372.895 362.477 372.976 361.943 373.138 361.466C373.3 360.99 373.529 360.585 373.824 360.251C374.129 359.918 374.496 359.66 374.925 359.479C375.363 359.298 375.854 359.208 376.397 359.208C376.94 359.208 377.427 359.298 377.855 359.479C378.294 359.66 378.661 359.918 378.956 360.251C379.261 360.585 379.495 360.99 379.657 361.466C379.819 361.943 379.9 362.477 379.9 363.068C379.9 363.658 379.819 364.192 379.657 364.669C379.495 365.145 379.261 365.55 378.956 365.884C378.661 366.217 378.294 366.475 377.855 366.656C377.427 366.837 376.94 366.927 376.397 366.927ZM376.397 365.698C376.969 365.698 377.422 365.526 377.755 365.183C378.098 364.831 378.27 364.311 378.27 363.625V362.51C378.27 361.824 378.098 361.309 377.755 360.966C377.422 360.613 376.969 360.437 376.397 360.437C375.825 360.437 375.368 360.613 375.025 360.966C374.691 361.309 374.525 361.824 374.525 362.51V363.625C374.525 364.311 374.691 364.831 375.025 365.183C375.368 365.526 375.825 365.698 376.397 365.698ZM382.482 365.498H384.44V360.637H382.482V359.379H385.998V361.338H386.084C386.151 361.08 386.246 360.833 386.37 360.594C386.494 360.356 386.651 360.151 386.842 359.98C387.032 359.799 387.266 359.656 387.542 359.551C387.819 359.436 388.143 359.379 388.514 359.379H389.401V360.866H387.943C387.371 360.866 386.904 361.038 386.542 361.381C386.179 361.714 385.998 362.167 385.998 362.739V365.498H388.672V366.756H382.482V365.498ZM391.754 365.498H394.198V357.435H391.754V356.177H395.757V365.498H398.201V366.756H391.754V365.498ZM405.858 365.498H405.772C405.553 365.946 405.262 366.298 404.9 366.556C404.538 366.804 404.085 366.927 403.542 366.927C402.675 366.927 401.984 366.603 401.469 365.955C400.955 365.307 400.697 364.345 400.697 363.068C400.697 361.791 400.955 360.828 401.469 360.18C401.984 359.532 402.675 359.208 403.542 359.208C404.085 359.208 404.538 359.336 404.9 359.594C405.262 359.842 405.553 360.189 405.772 360.637H405.858V356.177H407.416V366.756H405.858V365.498ZM404.186 365.655C404.414 365.655 404.629 365.627 404.829 365.569C405.029 365.512 405.205 365.426 405.358 365.312C405.51 365.198 405.629 365.059 405.715 364.897C405.81 364.726 405.858 364.526 405.858 364.297V361.838C405.858 361.609 405.81 361.414 405.715 361.252C405.629 361.08 405.51 360.938 405.358 360.823C405.205 360.709 405.029 360.623 404.829 360.566C404.629 360.509 404.414 360.48 404.186 360.48C403.595 360.48 403.137 360.661 402.813 361.023C402.499 361.385 402.341 361.867 402.341 362.467V363.668C402.341 364.268 402.499 364.75 402.813 365.112C403.137 365.474 403.595 365.655 404.186 365.655ZM413.272 363.368L412.686 359.68V356.777H414.401V359.68L413.815 363.368H413.272ZM413.544 366.899C413.105 366.899 412.795 366.808 412.614 366.627C412.433 366.446 412.343 366.217 412.343 365.941V365.598C412.343 365.322 412.433 365.093 412.614 364.912C412.795 364.731 413.105 364.64 413.544 364.64C413.982 364.64 414.292 364.731 414.473 364.912C414.654 365.093 414.744 365.322 414.744 365.598V365.941C414.744 366.217 414.654 366.446 414.473 366.627C414.292 366.808 413.982 366.899 413.544 366.899ZM420.714 360.437V356.177H422.144V360.437H420.714ZM423.531 360.437V356.177H424.96V360.437H423.531Z" fill="white"/>
<ellipse cx="118.561" cy="328.247" rx="6.55221" ry="6.55217" fill="#00BB93"/>
<ellipse cx="236.5" cy="311.569" rx="6.55221" ry="6.55217" fill="#9A2F8F"/>
<ellipse cx="354.439" cy="298.465" rx="6.55221" ry="6.55217" fill="#5A4962"/>
<defs>
<filter id="filter0_d_13878_76166" x="113.2" y="44.1213" width="133.426" height="133.426" filterUnits="userSpaceOnUse" color-interpolation-filters="sRGB">
<feFlood flood-opacity="0" result="BackgroundImageFix"/>
<feColorMatrix in="SourceAlpha" type="matrix" values="0 0 0 0 0 0 0 0 0 0 0 0 0 0 0 0 0 0 127 0" result="hardAlpha"/>
<feOffset dx="3.57391" dy="10.7217"/>
<feGaussianBlur stdDeviation="9.53043"/>
<feComposite in2="hardAlpha" operator="out"/>
<feColorMatrix type="matrix" values="0 0 0 0 0.564706 0 0 0 0 0.447059 0 0 0 0 0.6 0 0 0 0.15 0"/>
<feBlend mode="normal" in2="BackgroundImageFix" result="effect1_dropShadow_13878_76166"/>
<feBlend mode="normal" in="SourceGraphic" in2="effect1_dropShadow_13878_76166" result="shape"/>
</filter>
<filter id="filter1_d_13878_76166" x="233.224" y="44.1213" width="133.426" height="133.426" filterUnits="userSpaceOnUse" color-interpolation-filters="sRGB">
<feFlood flood-opacity="0" result="BackgroundImageFix"/>
<feColorMatrix in="SourceAlpha" type="matrix" values="0 0 0 0 0 0 0 0 0 0 0 0 0 0 0 0 0 0 127 0" result="hardAlpha"/>
<feOffset dx="3.57391" dy="10.7217"/>
<feGaussianBlur stdDeviation="9.53043"/>
<feComposite in2="hardAlpha" operator="out"/>
<feColorMatrix type="matrix" values="0 0 0 0 0.564706 0 0 0 0 0.447059 0 0 0 0 0.6 0 0 0 0.15 0"/>
<feBlend mode="normal" in2="BackgroundImageFix" result="effect1_dropShadow_13878_76166"/>
<feBlend mode="normal" in="SourceGraphic" in2="effect1_dropShadow_13878_76166" result="shape"/>
</filter>
<radialGradient id="paint0_radial_13878_76166" cx="0" cy="0" r="1" gradientUnits="userSpaceOnUse" gradientTransform="translate(300.987 241.834) rotate(141.749) scale(95.6949 74.9714)">
<stop stop-color="#B594AC" stop-opacity="0.11"/>
<stop offset="1" stop-color="#B594AC" stop-opacity="0.5"/>
</radialGradient>
<radialGradient id="paint1_radial_13878_76166" cx="0" cy="0" r="1" gradientUnits="userSpaceOnUse" gradientTransform="translate(279.387 212.691) rotate(57.0115) scale(161.912 119.153)">
<stop stop-color="#B594AC" stop-opacity="0.11"/>
<stop offset="1" stop-color="#B594AC" stop-opacity="0.5"/>
</radialGradient>
<radialGradient id="paint2_radial_13878_76166" cx="0" cy="0" r="1" gradientUnits="userSpaceOnUse" gradientTransform="translate(377.954 346.075) rotate(-130.451) scale(437.537 436.916)">
<stop offset="0.36924" stop-color="#7D7D7D"/>
<stop offset="1" stop-color="#D6D6D6"/>
</radialGradient>
<radialGradient id="paint3_radial_13878_76166" cx="0" cy="0" r="1" gradientUnits="userSpaceOnUse" gradientTransform="translate(106.637 5.81547) rotate(41.8803) scale(553.678 677.705)">
<stop stop-color="white"/>
<stop offset="1" stop-color="#DFB9D4"/>
</radialGradient>
<radialGradient id="paint4_radial_13878_76166" cx="0" cy="0" r="1" gradientUnits="userSpaceOnUse" gradientTransform="translate(106.637 5.81547) rotate(41.8803) scale(553.678 677.705)">
<stop stop-color="white"/>
<stop offset="1" stop-color="#DFB9D4"/>
</radialGradient>
<radialGradient id="paint5_radial_13878_76166" cx="0" cy="0" r="1" gradientUnits="userSpaceOnUse" gradientTransform="translate(106.637 5.81546) rotate(41.8803) scale(553.678 801.975)">
<stop stop-color="#F1E4ED"/>
<stop offset="1" stop-color="#AA849F"/>
</radialGradient>
<linearGradient id="paint6_linear_13878_76166" x1="133.282" y1="70.33" x2="198.804" y2="144.787" gradientUnits="userSpaceOnUse">
<stop stop-color="white"/>
<stop offset="1" stop-color="white" stop-opacity="0"/>
</linearGradient>
<radialGradient id="paint7_radial_13878_76166" cx="0" cy="0" r="1" gradientUnits="userSpaceOnUse" gradientTransform="translate(169.468 28.9976) rotate(5.2037) scale(215.521 47.9381)">
<stop stop-color="#F8EFF5"/>
<stop offset="1" stop-color="#C2A3B9"/>
</radialGradient>
<radialGradient id="paint8_radial_13878_76166" cx="0" cy="0" r="1" gradientUnits="userSpaceOnUse" gradientTransform="translate(310.73 46.9919) rotate(-173.206) scale(148.845 35.3632)">
<stop offset="0.36924" stop-color="#3F3F3F"/>
<stop offset="1" stop-color="#808080"/>
</radialGradient>
<radialGradient id="paint9_radial_13878_76166" cx="0" cy="0" r="1" gradientUnits="userSpaceOnUse" gradientTransform="translate(167.816 163.242) rotate(14.4766) scale(78.1932 46.6082)">
<stop stop-color="#F8EFF5"/>
<stop offset="1" stop-color="#C2A3B9"/>
</radialGradient>
<radialGradient id="paint10_radial_13878_76166" cx="0" cy="0" r="1" gradientUnits="userSpaceOnUse" gradientTransform="translate(217.646 181.236) rotate(-161.339) scale(55.0287 33.741)">
<stop offset="0.36924" stop-color="#3F3F3F"/>
<stop offset="1" stop-color="#808080"/>
</radialGradient>
<radialGradient id="paint11_radial_13878_76166" cx="0" cy="0" r="1" gradientUnits="userSpaceOnUse" gradientTransform="translate(235.538 163.242) rotate(10.0369) scale(112.158 47.3998)">
<stop stop-color="#F8EFF5"/>
<stop offset="1" stop-color="#C2A3B9"/>
</radialGradient>
<radialGradient id="paint12_radial_13878_76166" cx="0" cy="0" r="1" gradientUnits="userSpaceOnUse" gradientTransform="translate(308.225 181.236) rotate(-166.964) scale(78.0634 34.6955)">
<stop offset="0.36924" stop-color="#3F3F3F"/>
<stop offset="1" stop-color="#808080"/>
</radialGradient>
<linearGradient id="paint13_linear_13878_76166" x1="253.306" y1="70.33" x2="318.828" y2="144.787" gradientUnits="userSpaceOnUse">
<stop stop-color="white"/>
<stop offset="1" stop-color="white" stop-opacity="0"/>
</linearGradient>
<radialGradient id="paint14_radial_13878_76166" cx="0" cy="0" r="1" gradientUnits="userSpaceOnUse" gradientTransform="translate(95.2619 187.84) rotate(3.87614) scale(451.796 75.039)">
<stop stop-color="#F8EFF5"/>
<stop offset="1" stop-color="#C2A3B9"/>
</radialGradient>
<radialGradient id="paint15_radial_13878_76166" cx="0" cy="0" r="1" gradientUnits="userSpaceOnUse" gradientTransform="translate(391.935 215.955) rotate(-174.935) scale(311.62 55.4267)">
<stop offset="0.36924" stop-color="#3F3F3F"/>
<stop offset="1" stop-color="#808080"/>
</radialGradient>
<radialGradient id="paint16_radial_13878_76166" cx="0" cy="0" r="1" gradientUnits="userSpaceOnUse" gradientTransform="translate(95.2619 187.84) rotate(3.87614) scale(451.796 88.7988)">
<stop stop-color="#E1CCDB"/>
<stop offset="1" stop-color="#8E6282"/>
</radialGradient>
<radialGradient id="paint17_radial_13878_76166" cx="0" cy="0" r="1" gradientUnits="userSpaceOnUse" gradientTransform="translate(193.613 212.691) rotate(122.989) scale(161.912 119.153)">
<stop stop-color="#B594AC" stop-opacity="0.11"/>
<stop offset="1" stop-color="#B594AC" stop-opacity="0.5"/>
</radialGradient>
<linearGradient id="paint18_linear_13878_76166" x1="46.8366" y1="351.694" x2="144.971" y2="456.019" gradientUnits="userSpaceOnUse">
<stop stop-color="#A3839A"/>
<stop offset="0.6865" stop-color="#74617D"/>
</linearGradient>
<linearGradient id="paint19_linear_13878_76166" x1="168.35" y1="336.207" x2="266.484" y2="440.533" gradientUnits="userSpaceOnUse">
<stop stop-color="#A3839A"/>
<stop offset="0.6865" stop-color="#74617D"/>
</linearGradient>
<linearGradient id="paint20_linear_13878_76166" x1="289.862" y1="320.719" x2="387.996" y2="425.045" gradientUnits="userSpaceOnUse">
<stop stop-color="#A3839A"/>
<stop offset="0.6865" stop-color="#74617D"/>
</linearGradient>
</defs>
</svg>
