<svg width="372" height="195" viewBox="0 0 372 195" fill="none" xmlns="http://www.w3.org/2000/svg">
<rect width="372" height="195" fill="#F5F3F6"/>
<g opacity="0.3" filter="url(#filter0_f_12488_54690)">
<ellipse cx="62" cy="96" rx="20" ry="5" fill="#29063E"/>
</g>
<path fill-rule="evenodd" clip-rule="evenodd" d="M82 85.2645V85.2649V93.2699C82 93.2699 82 93.2699 82 93.27C81.9998 96.4345 73.0456 98.9998 62 98.9998C50.9544 98.9998 42.0002 96.4345 42 93.27C42 93.2699 42 93.2699 42 93.2699V85.2649V85.2645C42 82.1 50.9543 79.5346 62 79.5346C73.0457 79.5346 82 82.1 82 85.2645Z" fill="url(#paint0_radial_12488_54690)"/>
<path fill-rule="evenodd" clip-rule="evenodd" d="M78.3942 86.0687C79.0368 85.6357 79.0959 85.3661 79.0959 85.2649C79.0959 85.1637 79.0368 84.8941 78.3942 84.4611C77.7395 84.0199 76.641 83.5297 75.044 83.0744C71.8614 82.1673 67.2547 81.5573 62.0089 81.5573C56.763 81.5573 52.1564 82.1673 48.9738 83.0744C47.3768 83.5297 46.2783 84.0199 45.6236 84.4611C44.981 84.8941 44.9219 85.1637 44.9219 85.2649C44.9219 85.3661 44.981 85.6357 45.6236 86.0687C46.2783 86.5099 47.3768 87.0001 48.9738 87.4554C52.1564 88.3625 56.763 88.9725 62.0089 88.9725C67.2547 88.9725 71.8614 88.3625 75.044 87.4554C76.641 87.0001 77.7395 86.5099 78.3942 86.0687Z" fill="url(#paint1_radial_12488_54690)"/>
<path fill-rule="evenodd" clip-rule="evenodd" d="M82 72.7V72.7002V80.7052C82 80.7052 82 80.7053 82 80.7053C82 83.8699 73.0457 86.4353 62 86.4353C50.9543 86.4353 42 83.8699 42 80.7053C42 80.7053 42 80.7052 42 80.7052V72.7002V72.7C42 69.5354 50.9543 66.9701 62 66.9701C73.0457 66.9701 82 69.5354 82 72.7Z" fill="url(#paint2_radial_12488_54690)"/>
<path fill-rule="evenodd" clip-rule="evenodd" d="M78.3942 73.504C79.0368 73.071 79.0959 72.8014 79.0959 72.7002C79.0959 72.599 79.0368 72.3294 78.3942 71.8964C77.7395 71.4552 76.641 70.965 75.044 70.5098C71.8614 69.6026 67.2547 68.9926 62.0089 68.9926C56.763 68.9926 52.1564 69.6026 48.9738 70.5098C47.3768 70.965 46.2783 71.4552 45.6236 71.8964C44.981 72.3294 44.9219 72.599 44.9219 72.7002C44.9219 72.8014 44.981 73.071 45.6236 73.504C46.2783 73.9452 47.3768 74.4354 48.9738 74.8907C52.1564 75.7978 56.763 76.4078 62.0089 76.4078C67.2547 76.4078 71.8614 75.7978 75.044 74.8907C76.641 74.4354 77.7395 73.9452 78.3942 73.504Z" fill="url(#paint3_radial_12488_54690)"/>
<path fill-rule="evenodd" clip-rule="evenodd" d="M82 59.7299V59.7301V67.7352C82 67.7352 82 67.7353 82 67.7353C82 70.8999 73.0457 73.4652 62 73.4652C50.9543 73.4652 42 70.8999 42 67.7353C42 67.7353 42 67.7352 42 67.7352V59.7301V59.7299C42 56.5654 50.9543 54 62 54C73.0457 54 82 56.5654 82 59.7299Z" fill="url(#paint4_radial_12488_54690)"/>
<path fill-rule="evenodd" clip-rule="evenodd" d="M78.3942 60.5338C79.0368 60.1008 79.0959 59.8312 79.0959 59.73C79.0959 59.6288 79.0368 59.3592 78.3942 58.9262C77.7395 58.485 76.641 57.9947 75.044 57.5395C71.8614 56.6324 67.2547 56.0224 62.0089 56.0224C56.763 56.0224 52.1564 56.6324 48.9738 57.5395C47.3768 57.9947 46.2783 58.485 45.6236 58.9262C44.981 59.3592 44.9219 59.6288 44.9219 59.73C44.9219 59.8312 44.981 60.1008 45.6236 60.5338C46.2783 60.975 47.3768 61.4652 48.9738 61.9204C52.1564 62.8276 56.763 63.4376 62.0089 63.4376C67.2547 63.4376 71.8614 62.8276 75.044 61.9204C76.641 61.4652 77.7395 60.975 78.3942 60.5338Z" fill="url(#paint5_radial_12488_54690)"/>
<g opacity="0.3" filter="url(#filter1_f_12488_54690)">
<ellipse cx="130" cy="96" rx="20" ry="5" fill="#29063E"/>
</g>
<path fill-rule="evenodd" clip-rule="evenodd" d="M150 85.2645V85.2649V93.2699C150 93.2699 150 93.2699 150 93.27C150 96.4345 141.046 98.9998 130 98.9998C118.954 98.9998 110 96.4345 110 93.27C110 93.2699 110 93.2699 110 93.2699V85.2649V85.2645C110 82.1 118.954 79.5346 130 79.5346C141.046 79.5346 150 82.1 150 85.2645Z" fill="url(#paint6_radial_12488_54690)"/>
<path fill-rule="evenodd" clip-rule="evenodd" d="M146.394 86.0687C147.037 85.6357 147.096 85.3661 147.096 85.2649C147.096 85.1637 147.037 84.8941 146.394 84.4611C145.74 84.0199 144.641 83.5297 143.044 83.0744C139.861 82.1673 135.255 81.5573 130.009 81.5573C124.763 81.5573 120.156 82.1673 116.974 83.0744C115.377 83.5297 114.278 84.0199 113.624 84.4611C112.981 84.8941 112.922 85.1637 112.922 85.2649C112.922 85.3661 112.981 85.6357 113.624 86.0687C114.278 86.5099 115.377 87.0001 116.974 87.4554C120.156 88.3625 124.763 88.9725 130.009 88.9725C135.255 88.9725 139.861 88.3625 143.044 87.4554C144.641 87.0001 145.74 86.5099 146.394 86.0687Z" fill="url(#paint7_radial_12488_54690)"/>
<path fill-rule="evenodd" clip-rule="evenodd" d="M150 72.7V72.7002V80.7052C150 80.7052 150 80.7053 150 80.7053C150 83.8699 141.046 86.4353 130 86.4353C118.954 86.4353 110 83.8699 110 80.7053C110 80.7053 110 80.7052 110 80.7052V72.7002V72.7C110 69.5354 118.954 66.9701 130 66.9701C141.046 66.9701 150 69.5354 150 72.7Z" fill="url(#paint8_radial_12488_54690)"/>
<path fill-rule="evenodd" clip-rule="evenodd" d="M146.394 73.504C147.037 73.071 147.096 72.8014 147.096 72.7002C147.096 72.599 147.037 72.3294 146.394 71.8964C145.74 71.4552 144.641 70.965 143.044 70.5098C139.861 69.6026 135.255 68.9926 130.009 68.9926C124.763 68.9926 120.156 69.6026 116.974 70.5098C115.377 70.965 114.278 71.4552 113.624 71.8964C112.981 72.3294 112.922 72.599 112.922 72.7002C112.922 72.8014 112.981 73.071 113.624 73.504C114.278 73.9452 115.377 74.4354 116.974 74.8907C120.156 75.7978 124.763 76.4078 130.009 76.4078C135.255 76.4078 139.861 75.7978 143.044 74.8907C144.641 74.4354 145.74 73.9452 146.394 73.504Z" fill="url(#paint9_radial_12488_54690)"/>
<path fill-rule="evenodd" clip-rule="evenodd" d="M150 59.7299V59.7301V67.7352C150 67.7352 150 67.7353 150 67.7353C150 70.8999 141.046 73.4652 130 73.4652C118.954 73.4652 110 70.8999 110 67.7353C110 67.7353 110 67.7352 110 67.7352V59.7301V59.7299C110 56.5654 118.954 54 130 54C141.046 54 150 56.5654 150 59.7299Z" fill="url(#paint10_radial_12488_54690)"/>
<path fill-rule="evenodd" clip-rule="evenodd" d="M146.394 60.5338C147.037 60.1008 147.096 59.8312 147.096 59.73C147.096 59.6288 147.037 59.3592 146.394 58.9262C145.74 58.485 144.641 57.9947 143.044 57.5395C139.861 56.6324 135.255 56.0224 130.009 56.0224C124.763 56.0224 120.156 56.6324 116.974 57.5395C115.377 57.9947 114.278 58.485 113.624 58.9262C112.981 59.3592 112.922 59.6288 112.922 59.73C112.922 59.8312 112.981 60.1008 113.624 60.5338C114.278 60.975 115.377 61.4652 116.974 61.9204C120.156 62.8276 124.763 63.4376 130.009 63.4376C135.255 63.4376 139.861 62.8276 143.044 61.9204C144.641 61.4652 145.74 60.975 146.394 60.5338Z" fill="url(#paint11_radial_12488_54690)"/>
<rect x="178" y="51" width="152" height="53" rx="8" fill="white"/>
<g opacity="0.3" filter="url(#filter2_f_12488_54690)">
<ellipse cx="206" cy="83.1084" rx="20" ry="4.89159" fill="#3E154D"/>
</g>
<path fill-rule="evenodd" clip-rule="evenodd" d="M226 72.6057V72.6061V80.4374C226 80.4375 226 80.4375 226 80.4376C226 83.5334 217.046 86.0431 206 86.0431C194.954 86.0431 186 83.5334 186 80.4376C186 80.4375 186 80.4375 186 80.4374V72.6061V72.6057C186 69.5097 194.954 67 206 67C217.046 67 226 69.5097 226 72.6057Z" fill="url(#paint12_radial_12488_54690)"/>
<path fill-rule="evenodd" clip-rule="evenodd" d="M222.394 73.3924C223.037 72.9688 223.096 72.7051 223.096 72.6061C223.096 72.5071 223.037 72.2433 222.394 71.8197C221.74 71.388 220.641 70.9084 219.044 70.4631C215.861 69.5756 211.255 68.9789 206.009 68.9789C200.763 68.9789 196.156 69.5756 192.974 70.4631C191.377 70.9084 190.278 71.388 189.624 71.8197C188.981 72.2433 188.922 72.5071 188.922 72.6061C188.922 72.7051 188.981 72.9688 189.624 73.3924C190.278 73.8241 191.377 74.3037 192.974 74.749C196.156 75.6365 200.763 76.2333 206.009 76.2333C211.255 76.2333 215.861 75.6365 219.044 74.749C220.641 74.3037 221.74 73.8241 222.394 73.3924Z" fill="url(#paint13_radial_12488_54690)"/>
<g opacity="0.3" filter="url(#filter3_f_12488_54690)">
<ellipse cx="254" cy="83.1084" rx="20" ry="4.89159" fill="#29063E"/>
</g>
<path fill-rule="evenodd" clip-rule="evenodd" d="M274 72.6057V72.6061V80.4374C274 80.4375 274 80.4375 274 80.4376C274 83.5334 265.046 86.0431 254 86.0431C242.954 86.0431 234 83.5334 234 80.4376C234 80.4375 234 80.4375 234 80.4374V72.6061V72.6057C234 69.5097 242.954 67 254 67C265.046 67 274 69.5097 274 72.6057Z" fill="url(#paint14_radial_12488_54690)"/>
<path fill-rule="evenodd" clip-rule="evenodd" d="M270.394 73.3924C271.037 72.9688 271.096 72.7051 271.096 72.6061C271.096 72.5071 271.037 72.2433 270.394 71.8197C269.74 71.388 268.641 70.9084 267.044 70.4631C263.861 69.5756 259.255 68.9789 254.009 68.9789C248.763 68.9789 244.156 69.5756 240.974 70.4631C239.377 70.9084 238.278 71.388 237.624 71.8197C236.981 72.2433 236.922 72.5071 236.922 72.6061C236.922 72.7051 236.981 72.9688 237.624 73.3924C238.278 73.8241 239.377 74.3037 240.974 74.749C244.156 75.6365 248.763 76.2333 254.009 76.2333C259.255 76.2333 263.861 75.6365 267.044 74.749C268.641 74.3037 269.74 73.8241 270.394 73.3924Z" fill="url(#paint15_radial_12488_54690)"/>
<g opacity="0.3" filter="url(#filter4_f_12488_54690)">
<ellipse cx="302" cy="83.1084" rx="20" ry="4.89159" fill="#29063E"/>
</g>
<path fill-rule="evenodd" clip-rule="evenodd" d="M322 72.6057V72.6061V80.4374C322 80.4375 322 80.4375 322 80.4376C322 83.5334 313.046 86.0431 302 86.0431C290.954 86.0431 282 83.5334 282 80.4376C282 80.4375 282 80.4375 282 80.4374V72.6061V72.6057C282 69.5097 290.954 67 302 67C313.046 67 322 69.5097 322 72.6057Z" fill="url(#paint16_radial_12488_54690)"/>
<path fill-rule="evenodd" clip-rule="evenodd" d="M318.394 73.3924C319.037 72.9688 319.096 72.7051 319.096 72.6061C319.096 72.5071 319.037 72.2433 318.394 71.8197C317.74 71.388 316.641 70.9084 315.044 70.4631C311.861 69.5756 307.255 68.9789 302.009 68.9789C296.763 68.9789 292.156 69.5756 288.974 70.4631C287.377 70.9084 286.278 71.388 285.624 71.8197C284.981 72.2433 284.922 72.5071 284.922 72.6061C284.922 72.7051 284.981 72.9688 285.624 73.3924C286.278 73.8241 287.377 74.3037 288.974 74.749C292.156 75.6365 296.763 76.2333 302.009 76.2333C307.255 76.2333 311.861 75.6365 315.044 74.749C316.641 74.3037 317.74 73.8241 318.394 73.3924Z" fill="url(#paint17_radial_12488_54690)"/>
<g opacity="0.3" filter="url(#filter5_f_12488_54690)">
<ellipse cx="254" cy="140.108" rx="20" ry="4.89159" fill="#29063E"/>
</g>
<path fill-rule="evenodd" clip-rule="evenodd" d="M274 129.606V129.606V137.437C274 137.437 274 137.438 274 137.438C274 140.533 265.046 143.043 254 143.043C242.954 143.043 234 140.533 234 137.438C234 137.438 234 137.437 234 137.437V129.606V129.606C234 126.51 242.954 124 254 124C265.046 124 274 126.51 274 129.606Z" fill="url(#paint18_radial_12488_54690)"/>
<path fill-rule="evenodd" clip-rule="evenodd" d="M270.394 130.392C271.037 129.969 271.096 129.705 271.096 129.606C271.096 129.507 271.037 129.243 270.394 128.82C269.74 128.388 268.641 127.908 267.044 127.463C263.861 126.576 259.255 125.979 254.009 125.979C248.763 125.979 244.156 126.576 240.974 127.463C239.377 127.908 238.278 128.388 237.624 128.82C236.981 129.243 236.922 129.507 236.922 129.606C236.922 129.705 236.981 129.969 237.624 130.392C238.278 130.824 239.377 131.304 240.974 131.749C244.156 132.637 248.763 133.233 254.009 133.233C259.255 133.233 263.861 132.637 267.044 131.749C268.641 131.304 269.74 130.824 270.394 130.392Z" fill="url(#paint19_radial_12488_54690)"/>
<g opacity="0.3" filter="url(#filter6_f_12488_54690)">
<ellipse cx="302" cy="140.108" rx="20" ry="4.89159" fill="#29063E"/>
</g>
<path fill-rule="evenodd" clip-rule="evenodd" d="M322 129.606V129.606V137.437C322 137.437 322 137.438 322 137.438C322 140.533 313.046 143.043 302 143.043C290.954 143.043 282 140.533 282 137.438C282 137.438 282 137.437 282 137.437V129.606V129.606C282 126.51 290.954 124 302 124C313.046 124 322 126.51 322 129.606Z" fill="url(#paint20_radial_12488_54690)"/>
<path fill-rule="evenodd" clip-rule="evenodd" d="M318.394 130.392C319.037 129.969 319.096 129.705 319.096 129.606C319.096 129.507 319.037 129.243 318.394 128.82C317.74 128.388 316.641 127.908 315.044 127.463C311.861 126.576 307.255 125.979 302.009 125.979C296.763 125.979 292.156 126.576 288.974 127.463C287.377 127.908 286.278 128.388 285.624 128.82C284.981 129.243 284.922 129.507 284.922 129.606C284.922 129.705 284.981 129.969 285.624 130.392C286.278 130.824 287.377 131.304 288.974 131.749C292.156 132.637 296.763 133.233 302.009 133.233C307.255 133.233 311.861 132.637 315.044 131.749C316.641 131.304 317.74 130.824 318.394 130.392Z" fill="url(#paint21_radial_12488_54690)"/>
<g opacity="0.5">
<path d="M104.354 78.3536C104.549 78.1583 104.549 77.8417 104.354 77.6464L101.172 74.4645C100.976 74.2692 100.66 74.2692 100.464 74.4645C100.269 74.6597 100.269 74.9763 100.464 75.1716L103.293 78L100.464 80.8284C100.269 81.0237 100.269 81.3403 100.464 81.5355C100.66 81.7308 100.976 81.7308 101.172 81.5355L104.354 78.3536ZM104 77.5H91V78.5H104V77.5Z" fill="#29063E"/>
<path d="M91 80C89.8954 80 89 79.1046 89 78C89 76.8954 89.8954 76 91 76C92.1046 76 93 76.8954 93 78C93 79.1046 92.1046 80 91 80Z" fill="white" stroke="#29063E" stroke-width="2"/>
</g>
<g opacity="0.5">
<path d="M172.354 78.3536C172.549 78.1583 172.549 77.8417 172.354 77.6464L169.172 74.4645C168.976 74.2692 168.66 74.2692 168.464 74.4645C168.269 74.6597 168.269 74.9763 168.464 75.1716L171.293 78L168.464 80.8284C168.269 81.0237 168.269 81.3403 168.464 81.5355C168.66 81.7308 168.976 81.7308 169.172 81.5355L172.354 78.3536ZM172 77.5H159V78.5H172V77.5Z" fill="#29063E"/>
<path d="M159 80C157.895 80 157 79.1046 157 78C157 76.8954 157.895 76 159 76C160.105 76 161 76.8954 161 78C161 79.1046 160.105 80 159 80Z" fill="white" stroke="#29063E" stroke-width="2"/>
</g>
<g opacity="0.5">
<path d="M253.646 119.354C253.842 119.549 254.158 119.549 254.354 119.354L257.536 116.172C257.731 115.976 257.731 115.66 257.536 115.464C257.34 115.269 257.024 115.269 256.828 115.464L254 118.293L251.172 115.464C250.976 115.269 250.66 115.269 250.464 115.464C250.269 115.66 250.269 115.976 250.464 116.172L253.646 119.354ZM254.5 119L254.5 96L253.5 96L253.5 119L254.5 119Z" fill="#29063E"/>
<path d="M252 96C252 94.8954 252.895 94 254 94C255.105 94 256 94.8954 256 96C256 97.1046 255.105 98 254 98C252.895 98 252 97.1046 252 96Z" fill="white" stroke="#29063E" stroke-width="2"/>
</g>
<g opacity="0.5">
<path d="M301.646 119.354C301.842 119.549 302.158 119.549 302.354 119.354L305.536 116.172C305.731 115.976 305.731 115.66 305.536 115.464C305.34 115.269 305.024 115.269 304.828 115.464L302 118.293L299.172 115.464C298.976 115.269 298.66 115.269 298.464 115.464C298.269 115.66 298.269 115.976 298.464 116.172L301.646 119.354ZM302.5 119L302.5 96L301.5 96L301.5 119L302.5 119Z" fill="#29063E"/>
<path d="M300 96C300 94.8954 300.895 94 302 94C303.105 94 304 94.8954 304 96C304 97.1046 303.105 98 302 98C300.895 98 300 97.1046 300 96Z" fill="white" stroke="#29063E" stroke-width="2"/>
</g>
<defs>
<filter id="filter0_f_12488_54690" x="34" y="83" width="56" height="26" filterUnits="userSpaceOnUse" color-interpolation-filters="sRGB">
<feFlood flood-opacity="0" result="BackgroundImageFix"/>
<feBlend mode="normal" in="SourceGraphic" in2="BackgroundImageFix" result="shape"/>
<feGaussianBlur stdDeviation="4" result="effect1_foregroundBlur_12488_54690"/>
</filter>
<filter id="filter1_f_12488_54690" x="102" y="83" width="56" height="26" filterUnits="userSpaceOnUse" color-interpolation-filters="sRGB">
<feFlood flood-opacity="0" result="BackgroundImageFix"/>
<feBlend mode="normal" in="SourceGraphic" in2="BackgroundImageFix" result="shape"/>
<feGaussianBlur stdDeviation="4" result="effect1_foregroundBlur_12488_54690"/>
</filter>
<filter id="filter2_f_12488_54690" x="178" y="70.2168" width="56" height="25.7832" filterUnits="userSpaceOnUse" color-interpolation-filters="sRGB">
<feFlood flood-opacity="0" result="BackgroundImageFix"/>
<feBlend mode="normal" in="SourceGraphic" in2="BackgroundImageFix" result="shape"/>
<feGaussianBlur stdDeviation="4" result="effect1_foregroundBlur_12488_54690"/>
</filter>
<filter id="filter3_f_12488_54690" x="226" y="70.2168" width="56" height="25.7832" filterUnits="userSpaceOnUse" color-interpolation-filters="sRGB">
<feFlood flood-opacity="0" result="BackgroundImageFix"/>
<feBlend mode="normal" in="SourceGraphic" in2="BackgroundImageFix" result="shape"/>
<feGaussianBlur stdDeviation="4" result="effect1_foregroundBlur_12488_54690"/>
</filter>
<filter id="filter4_f_12488_54690" x="274" y="70.2168" width="56" height="25.7832" filterUnits="userSpaceOnUse" color-interpolation-filters="sRGB">
<feFlood flood-opacity="0" result="BackgroundImageFix"/>
<feBlend mode="normal" in="SourceGraphic" in2="BackgroundImageFix" result="shape"/>
<feGaussianBlur stdDeviation="4" result="effect1_foregroundBlur_12488_54690"/>
</filter>
<filter id="filter5_f_12488_54690" x="226" y="127.217" width="56" height="25.7832" filterUnits="userSpaceOnUse" color-interpolation-filters="sRGB">
<feFlood flood-opacity="0" result="BackgroundImageFix"/>
<feBlend mode="normal" in="SourceGraphic" in2="BackgroundImageFix" result="shape"/>
<feGaussianBlur stdDeviation="4" result="effect1_foregroundBlur_12488_54690"/>
</filter>
<filter id="filter6_f_12488_54690" x="274" y="127.217" width="56" height="25.7832" filterUnits="userSpaceOnUse" color-interpolation-filters="sRGB">
<feFlood flood-opacity="0" result="BackgroundImageFix"/>
<feBlend mode="normal" in="SourceGraphic" in2="BackgroundImageFix" result="shape"/>
<feGaussianBlur stdDeviation="4" result="effect1_foregroundBlur_12488_54690"/>
</filter>
<radialGradient id="paint0_radial_12488_54690" cx="0" cy="0" r="1" gradientUnits="userSpaceOnUse" gradientTransform="translate(45.0963 79.5022) rotate(49.1009) scale(86.4714 105.383)">
<stop stop-color="#F1E5EE"/>
<stop offset="1" stop-color="#C4A1BA"/>
</radialGradient>
<radialGradient id="paint1_radial_12488_54690" cx="0" cy="0" r="1" gradientUnits="userSpaceOnUse" gradientTransform="translate(46.3687 81.5505) rotate(15.5121) scale(51.6974 32.8078)">
<stop stop-color="white"/>
<stop offset="1" stop-color="#DFB9D4"/>
</radialGradient>
<radialGradient id="paint2_radial_12488_54690" cx="0" cy="0" r="1" gradientUnits="userSpaceOnUse" gradientTransform="translate(45.0963 66.9377) rotate(49.1007) scale(86.4709 105.383)">
<stop stop-color="#F1E5EE"/>
<stop offset="1" stop-color="#C4A1BA"/>
</radialGradient>
<radialGradient id="paint3_radial_12488_54690" cx="0" cy="0" r="1" gradientUnits="userSpaceOnUse" gradientTransform="translate(46.3687 68.9858) rotate(15.5121) scale(51.6974 32.8078)">
<stop stop-color="white"/>
<stop offset="1" stop-color="#DFB9D4"/>
</radialGradient>
<radialGradient id="paint4_radial_12488_54690" cx="0" cy="0" r="1" gradientUnits="userSpaceOnUse" gradientTransform="translate(45.0963 53.9676) rotate(49.1007) scale(86.4709 105.383)">
<stop stop-color="#F1E5EE"/>
<stop offset="1" stop-color="#C4A1BA"/>
</radialGradient>
<radialGradient id="paint5_radial_12488_54690" cx="0" cy="0" r="1" gradientUnits="userSpaceOnUse" gradientTransform="translate(46.3687 56.0156) rotate(15.5121) scale(51.6974 32.8078)">
<stop stop-color="white"/>
<stop offset="1" stop-color="#DFB9D4"/>
</radialGradient>
<radialGradient id="paint6_radial_12488_54690" cx="0" cy="0" r="1" gradientUnits="userSpaceOnUse" gradientTransform="translate(113.096 79.5022) rotate(49.1009) scale(86.4714 105.383)">
<stop stop-color="#F1E5EE"/>
<stop offset="1" stop-color="#C4A1BA"/>
</radialGradient>
<radialGradient id="paint7_radial_12488_54690" cx="0" cy="0" r="1" gradientUnits="userSpaceOnUse" gradientTransform="translate(114.369 81.5505) rotate(15.5121) scale(51.6974 32.8078)">
<stop stop-color="white"/>
<stop offset="1" stop-color="#DFB9D4"/>
</radialGradient>
<radialGradient id="paint8_radial_12488_54690" cx="0" cy="0" r="1" gradientUnits="userSpaceOnUse" gradientTransform="translate(113.096 66.9377) rotate(49.1007) scale(86.4709 105.383)">
<stop stop-color="#F1E5EE"/>
<stop offset="1" stop-color="#C4A1BA"/>
</radialGradient>
<radialGradient id="paint9_radial_12488_54690" cx="0" cy="0" r="1" gradientUnits="userSpaceOnUse" gradientTransform="translate(114.369 68.9858) rotate(15.5121) scale(51.6974 32.8078)">
<stop stop-color="white"/>
<stop offset="1" stop-color="#DFB9D4"/>
</radialGradient>
<radialGradient id="paint10_radial_12488_54690" cx="0" cy="0" r="1" gradientUnits="userSpaceOnUse" gradientTransform="translate(113.096 53.9676) rotate(49.1007) scale(86.4709 105.383)">
<stop stop-color="#F1E5EE"/>
<stop offset="1" stop-color="#C4A1BA"/>
</radialGradient>
<radialGradient id="paint11_radial_12488_54690" cx="0" cy="0" r="1" gradientUnits="userSpaceOnUse" gradientTransform="translate(114.369 56.0156) rotate(15.5121) scale(51.6974 32.8078)">
<stop stop-color="white"/>
<stop offset="1" stop-color="#DFB9D4"/>
</radialGradient>
<radialGradient id="paint12_radial_12488_54690" cx="0" cy="0" r="1" gradientUnits="userSpaceOnUse" gradientTransform="translate(189.096 66.9683) rotate(48.4785) scale(85.4053 104.385)">
<stop stop-color="#63DAB2"/>
<stop offset="1" stop-color="#53B596"/>
</radialGradient>
<radialGradient id="paint13_radial_12488_54690" cx="0" cy="0" r="1" gradientUnits="userSpaceOnUse" gradientTransform="translate(190.369 68.9722) rotate(15.1915) scale(51.618 32.1458)">
<stop stop-color="white"/>
<stop offset="1" stop-color="#63DAB2"/>
</radialGradient>
<radialGradient id="paint14_radial_12488_54690" cx="0" cy="0" r="1" gradientUnits="userSpaceOnUse" gradientTransform="translate(237.096 66.9683) rotate(48.4785) scale(85.4053 104.385)">
<stop stop-color="#F1E5EE"/>
<stop offset="1" stop-color="#C4A1BA"/>
</radialGradient>
<radialGradient id="paint15_radial_12488_54690" cx="0" cy="0" r="1" gradientUnits="userSpaceOnUse" gradientTransform="translate(238.369 68.9722) rotate(15.1915) scale(51.618 32.1458)">
<stop stop-color="white"/>
<stop offset="1" stop-color="#DFB9D4"/>
</radialGradient>
<radialGradient id="paint16_radial_12488_54690" cx="0" cy="0" r="1" gradientUnits="userSpaceOnUse" gradientTransform="translate(285.096 66.9683) rotate(48.4785) scale(85.4053 104.385)">
<stop stop-color="#F1E5EE"/>
<stop offset="1" stop-color="#C4A1BA"/>
</radialGradient>
<radialGradient id="paint17_radial_12488_54690" cx="0" cy="0" r="1" gradientUnits="userSpaceOnUse" gradientTransform="translate(286.369 68.9722) rotate(15.1915) scale(51.618 32.1458)">
<stop stop-color="white"/>
<stop offset="1" stop-color="#DFB9D4"/>
</radialGradient>
<radialGradient id="paint18_radial_12488_54690" cx="0" cy="0" r="1" gradientUnits="userSpaceOnUse" gradientTransform="translate(237.096 123.968) rotate(48.4785) scale(85.4053 104.385)">
<stop stop-color="#F1E5EE"/>
<stop offset="1" stop-color="#C4A1BA"/>
</radialGradient>
<radialGradient id="paint19_radial_12488_54690" cx="0" cy="0" r="1" gradientUnits="userSpaceOnUse" gradientTransform="translate(238.369 125.972) rotate(15.1915) scale(51.618 32.1458)">
<stop stop-color="white"/>
<stop offset="1" stop-color="#DFB9D4"/>
</radialGradient>
<radialGradient id="paint20_radial_12488_54690" cx="0" cy="0" r="1" gradientUnits="userSpaceOnUse" gradientTransform="translate(285.096 123.968) rotate(48.4785) scale(85.4053 104.385)">
<stop stop-color="#F1E5EE"/>
<stop offset="1" stop-color="#C4A1BA"/>
</radialGradient>
<radialGradient id="paint21_radial_12488_54690" cx="0" cy="0" r="1" gradientUnits="userSpaceOnUse" gradientTransform="translate(286.369 125.972) rotate(15.1915) scale(51.618 32.1458)">
<stop stop-color="white"/>
<stop offset="1" stop-color="#DFB9D4"/>
</radialGradient>
</defs>
</svg>
