<svg width="240" height="80" viewBox="0 0 240 80" fill="none" xmlns="http://www.w3.org/2000/svg">
<path d="M96.5229 50.4106L94.4458 46.8985C95.4529 45.0171 95.4529 42.8847 95.4529 40.0625C95.4529 36.4877 95.4529 33.8536 93.3758 31.7212C92.6789 30.9504 91.8233 30.3385 90.8674 29.9272C89.9115 29.5159 88.8778 29.3149 87.8368 29.338C86.7812 29.3012 85.73 29.4892 84.7531 29.8893C83.7763 30.2895 82.8963 30.8926 82.1719 31.6585C80.1577 33.6654 80.1577 36.2368 80.1577 39.9998C80.1577 43.5746 80.0318 46.2087 82.1719 48.341C83.6825 49.9089 85.445 50.6615 87.8368 50.6615L89.5363 50.4106H96.5229ZM85.1302 45.8951C84.3749 45.0171 84.0602 44.0136 84.0602 39.9998C84.0602 35.9859 84.312 34.9825 85.0673 34.1044C85.5708 33.4773 86.5779 33.0383 87.585 33.0383C88.718 33.0383 89.6621 33.4773 90.2286 34.1044C90.984 34.9825 91.1728 35.9859 91.1728 39.9998C91.1728 44.0136 90.984 45.0171 90.2286 45.8951C89.6621 46.5222 88.718 46.9613 87.648 46.9613C86.5779 46.9613 85.5708 46.5222 85.0673 45.8951H85.1302ZM143.793 29.5889H147.759V50.4106H143.856V29.5889H143.793ZM47.4902 50.6615C44.406 50.6615 42.0771 50.0343 40 47.9647L42.5807 45.3306C43.9654 46.5222 45.7908 47.2121 47.5532 47.0867C49.8821 47.0867 51.2039 46.2087 51.2039 44.4526C51.2039 43.7 50.9521 43.1983 50.5744 42.6966C50.1338 42.2575 49.6932 42.1948 48.6862 41.944L46.2314 41.6304C44.7837 41.5049 43.3989 40.8778 42.266 39.8743C41.7327 39.3315 41.3221 38.6813 41.0615 37.9674C40.801 37.2535 40.6966 36.4924 40.7553 35.7351C40.7553 32.0348 43.4619 29.4634 47.9938 29.4634C50.7633 29.4634 52.9033 30.0906 54.6658 31.8467L52.0851 34.3553C50.7633 33.101 49.1268 32.9128 47.8679 32.9128C45.7278 32.9128 44.6578 34.1672 44.6578 35.5469C44.6578 36.1114 44.8466 36.6131 45.2872 37.0521C45.7278 37.4911 46.3573 37.6793 47.1755 37.9301L49.6932 38.2437C51.5815 38.4946 52.8404 38.9963 53.6587 39.8743C54.2138 40.4716 54.6443 41.1728 54.9253 41.9372C55.2062 42.7016 55.3319 43.514 55.2952 44.3272C55.2952 48.341 51.8333 50.5988 47.5532 50.5988L47.4902 50.6615ZM61.086 50.4106V29.5889H74.7446V33.101H65.1773V37.9928H73.3599V41.6931H65.1773V46.7731H74.7446V50.3479H61.086V50.4106ZM109.112 50.6615C104.894 50.6615 101.495 47.7138 101.495 43.261V29.5889H105.587V43.1356C105.587 45.5188 106.972 46.8985 109.112 46.8985C111.252 46.8985 112.699 45.5188 112.699 43.1356V29.5889H116.665V43.261C116.665 47.7138 113.329 50.6615 109.112 50.6615ZM135.799 48.341C135.09 49.1086 134.221 49.7136 133.254 50.1142C132.287 50.5149 131.244 50.7016 130.198 50.6615C129.152 50.6893 128.113 50.497 127.148 50.0971C126.183 49.6973 125.313 49.0988 124.596 48.341C122.581 46.3341 122.581 43.7 122.581 39.9998C122.581 36.4249 122.456 33.7909 124.596 31.6585C126.043 30.0906 127.869 29.338 130.26 29.338C132.589 29.338 134.289 30.216 135.799 31.6585C137.877 33.6654 137.877 36.2995 137.877 39.9998C137.877 43.5746 137.877 46.2087 135.799 48.341ZM132.778 34.1044C132.275 33.4773 131.268 33.0383 130.26 33.0383C129.127 33.0383 128.183 33.4773 127.617 34.1044C126.862 34.9825 126.673 35.9859 126.673 39.9998C126.673 44.0136 126.862 45.0171 127.617 45.8951C128.183 46.5222 129.127 46.9613 130.198 46.9613C131.268 46.9613 132.275 46.5222 132.778 45.8951C133.534 45.0171 133.785 44.0136 133.785 39.9998C133.785 35.9859 133.534 34.9825 132.778 34.1044ZM166.767 50.4106L165.635 46.7104H158.333L157.074 50.4734H152.857L160.41 29.5889H163.494L171.048 50.4106H166.83H166.767ZM161.984 35.6723L159.403 43.261H164.564L161.984 35.6723Z" fill="white" fill-opacity="1"/>
<path d="M200.001 29.3335H194.668V34.6668H200.001V29.3335Z" fill="white" fill-opacity="1"/>
<path d="M181.335 29.3335V46.1046H181.27L178.668 48.8034V29.3335H181.335Z" fill="white" fill-opacity="1"/>
<path d="M180.554 50.6668L183.221 48.0323H200.001V50.6668H180.554Z" fill="white" fill-opacity="1"/>
<path d="M186.668 29.3335V40.7712H186.603L184.001 43.47V29.3335H186.668Z" fill="white" fill-opacity="1"/>
<path d="M185.887 45.3335L188.554 42.699H200.001V45.3335H185.887Z" fill="white" fill-opacity="1"/>
<path d="M192.001 29.3335V35.4379L191.936 35.3737L189.335 38.0725V29.3335H192.001Z" fill="white" fill-opacity="1"/>
<path d="M191.221 40.0002L193.887 37.3656V37.3014H200.001V40.0002H191.221Z" fill="white" fill-opacity="1"/>
</svg>
