<svg width="240" height="80" viewBox="0 0 240 80" fill="none" xmlns="http://www.w3.org/2000/svg">
<path d="M124.187 36.5137C124.037 34.3265 122.445 32.9264 120.234 33.2509C119.225 33.4011 118.371 33.8879 117.59 34.5188C117.278 34.7712 116.977 35.0476 116.659 35.33C116.539 35.1317 116.425 34.9574 116.323 34.7772C115.68 33.6715 114.484 33.0707 113.21 33.2329C112.063 33.3831 111.101 33.9359 110.218 34.657C110.02 34.8192 109.84 34.9995 109.641 35.1858C109.593 34.8252 109.569 34.4887 109.491 34.1643C109.413 33.8398 109.275 33.5273 109.161 33.1968C108.446 33.3651 107.779 33.5213 107.1 33.6836C107.49 34.7471 107.568 35.8107 107.568 36.8863C107.568 40.0469 107.568 43.2015 107.568 46.3622V46.6747H109.605V46.3081C109.605 43.2676 109.605 40.2272 109.611 37.1927C109.611 37.0665 109.635 36.8863 109.719 36.8202C110.278 36.3875 110.831 35.9429 111.432 35.5643C111.961 35.2278 112.567 35.0716 113.21 35.1257C113.781 35.1737 114.466 35.4622 114.55 36.2974C114.586 36.6639 114.622 37.0365 114.622 37.403C114.628 40.3413 114.628 43.2797 114.628 46.218V46.5545H116.899V46.254C116.899 43.2737 116.905 40.2933 116.887 37.3189C116.887 36.9764 117.001 36.7601 117.26 36.5618C117.656 36.2553 118.029 35.9248 118.425 35.6184C119.062 35.1257 119.765 34.8252 120.588 34.8793C121.309 34.9274 121.784 35.318 121.946 36.021C122.018 36.3274 122.042 36.6519 122.048 36.9704C122.054 40.0469 122.054 43.1294 122.054 46.206V46.5545H124.205V46.1639C124.205 43.3878 124.205 40.6057 124.205 37.8236C124.199 37.391 124.217 36.9524 124.187 36.5137ZM138.373 35.7506C137.742 34.675 136.901 33.8398 135.651 33.5033C133.969 33.0466 132.467 33.4312 131.115 34.4887C130.887 34.669 130.664 34.8613 130.406 35.0836C130.406 34.9274 130.406 34.8312 130.406 34.7351C130.382 32.8603 130.382 30.9796 130.328 29.0988C130.31 28.522 130.166 27.9451 130.076 27.3382C129.318 27.5065 128.628 27.6627 127.937 27.8129C128.441 29.7237 128.489 30.0722 128.489 32.1753C128.489 34.645 128.519 37.1146 128.483 39.5782C128.447 41.9757 128.7 44.3913 128.189 46.8008C128.802 46.8008 129.421 46.8069 130.033 46.7948C130.1 46.7948 130.196 46.6927 130.214 46.6146C130.328 46.224 130.424 45.8274 130.532 45.4128C130.58 45.4609 130.616 45.4909 130.652 45.521C132.094 46.9691 133.813 47.3837 135.741 46.7708C137.141 46.3261 137.994 45.2686 138.589 43.9827C139.178 42.7269 139.352 41.3869 139.352 40.0109C139.37 38.5207 139.148 37.0725 138.373 35.7506ZM136.45 43.2196C136.42 43.3037 136.384 43.3878 136.342 43.4659C135.753 44.7939 134.93 45.3888 133.098 45.2145C132.076 45.1184 131.229 44.6617 130.568 43.8745C130.478 43.7664 130.418 43.5981 130.412 43.4539C130.394 42.9251 130.406 42.3964 130.406 41.8616C130.406 41.3448 130.406 40.8221 130.406 40.3053C130.406 40.0469 130.406 39.7885 130.406 39.5302C130.406 38.731 130.406 37.9258 130.412 37.1266C130.412 36.9884 130.466 36.8262 130.55 36.724C131.247 35.9188 132.046 35.2458 133.17 35.2218C133.741 35.2098 134.329 35.2759 134.888 35.4141C135.892 35.6725 136.444 36.4356 136.679 37.379C137.171 39.3379 137.117 41.2967 136.45 43.2196ZM172.506 44.0127C172.5 42.9251 172.524 41.8375 172.536 40.7439C172.548 39.2658 172.56 37.7876 172.584 36.3094C172.602 34.8613 171.407 33.5694 169.826 33.305C168.21 33.0286 166.654 33.287 165.164 33.9179C164.479 34.2063 163.836 34.5849 163.139 34.9454C163.542 35.4802 163.89 35.9429 164.245 36.4176C164.473 36.2734 164.665 36.1532 164.852 36.021C165.344 35.6785 165.843 35.354 166.438 35.1978C167.225 34.9875 168.006 34.7411 168.823 34.9394C169.496 35.1016 170.091 35.4321 170.301 36.1472C170.529 36.9223 170.451 37.7275 170.457 38.5567C170.229 38.5567 170.037 38.5567 169.838 38.5567C168.595 38.5808 167.357 38.6168 166.149 38.9593C165.128 39.2477 164.209 39.7164 163.506 40.5216C162.61 41.5491 162.454 42.7749 162.64 44.0668C162.779 45.0342 163.259 45.7793 164.094 46.3021C165.687 47.2876 168.03 47.4258 169.935 45.9115C170.187 45.7132 170.433 45.4969 170.698 45.2746C170.968 46.236 171.581 46.8309 172.488 47.1554C172.843 46.6867 173.191 46.224 173.564 45.7253C172.831 45.3647 172.512 44.7699 172.506 44.0127ZM170.601 42.6127C170.722 43.4659 170.289 44.0668 169.712 44.5956C168.901 45.3407 167.946 45.7072 166.834 45.569C165.909 45.4549 165.368 44.9381 165.17 44.0188C165.02 43.3277 165.056 42.6427 165.266 41.9757C165.53 41.1525 166.143 40.6718 166.936 40.3834C167.814 40.0649 168.733 40.0169 169.658 40.0109C169.995 40.0109 170.331 40.0109 170.626 40.0109C170.626 40.756 170.626 41.459 170.626 42.168C170.619 42.3122 170.577 42.4685 170.601 42.6127ZM196.101 38.2322C196.053 37.8657 195.968 37.5052 195.86 37.1507C195.181 35.0175 193.812 33.6415 191.546 33.275C188.65 32.8063 186.367 34.3325 185.448 36.8502C184.625 39.0975 184.691 41.3989 185.556 43.6222C186.343 45.6592 187.803 46.9511 190.068 47.1253C192.358 47.2996 194.16 46.4764 195.32 44.4454C196.077 43.1234 196.263 41.6633 196.269 39.8907C196.233 39.5241 196.191 38.8752 196.101 38.2322ZM193.824 42.7389C193.649 43.7123 193.259 44.5776 192.352 45.1003C190.621 46.0918 188.398 45.2626 187.749 43.3758C187.431 42.4565 187.353 41.5011 187.329 40.5396C187.323 40.3113 187.329 40.083 187.329 39.8486L187.238 39.8426C187.353 38.9653 187.395 38.07 187.593 37.2107C187.899 35.8828 189.029 35.0596 190.387 34.9935C191.703 34.9274 192.748 35.3901 193.337 36.5798C193.631 37.1807 193.775 37.8837 193.878 38.5567C194.07 39.9508 194.076 41.3508 193.824 42.7389ZM103.477 37.6193C102.972 35.2519 101.308 33.6475 99.0367 33.281C96.5252 32.8724 94.1759 34.1222 93.1005 36.4236C92.5537 37.5893 92.4215 38.8391 92.3975 40.2392C92.4095 40.4916 92.4155 40.8821 92.4576 41.2727C92.5958 42.6848 92.9743 43.9947 93.8695 45.1544C95.5939 47.4017 98.4959 47.5219 100.346 46.7227C102.131 45.9536 103.062 44.4874 103.495 42.6728C103.885 40.9903 103.831 39.2958 103.477 37.6193ZM101.055 43.2737C100.647 44.8239 99.265 45.7072 97.6728 45.4609C96.2488 45.2385 95.2634 44.3552 94.9811 42.9011C94.7888 41.9157 94.7167 40.9062 94.6025 40.0048C94.7047 39.0675 94.7287 38.2322 94.8909 37.421C95.1673 36.027 96.1407 35.1858 97.5526 34.9995C98.9766 34.8132 100.118 35.4141 100.803 36.7C101.158 37.367 101.332 38.088 101.362 38.8271C101.416 40.3233 101.44 41.8195 101.055 43.2737ZM159.462 36.6639C159.462 35.9008 159.246 35.1978 158.795 34.5909C157.948 33.4612 156.77 33.0827 155.406 33.2329C154.055 33.3831 152.967 34.0621 151.982 34.9514C151.898 35.0295 151.814 35.1016 151.717 35.1858C151.663 34.8072 151.639 34.4707 151.555 34.1462C151.477 33.8218 151.339 33.5153 151.225 33.1908C150.516 33.4011 149.855 33.5934 149.176 33.7917C149.248 33.966 149.308 34.1162 149.374 34.2544C149.627 34.7651 149.753 35.3059 149.753 35.8708C149.759 39.3499 149.765 42.823 149.765 46.3021C149.765 46.4223 149.765 46.5365 149.765 46.6626H151.789V46.2961C151.789 43.2556 151.789 40.2212 151.796 37.1807C151.796 37.0605 151.808 36.8983 151.886 36.8262C152.841 35.8888 153.958 35.2158 155.292 35.0055C156.32 34.8433 157.155 35.4742 157.317 36.4957C157.395 36.9584 157.407 37.4331 157.407 37.8957C157.413 40.7019 157.413 43.514 157.413 46.3201V46.6506H159.432C159.438 46.5905 159.444 46.5545 159.444 46.5124C159.462 43.2436 159.462 39.9508 159.462 36.6639ZM89.4234 43.8385C89.3573 43.8745 89.3032 43.8986 89.2551 43.9346C87.8011 44.9862 86.1729 45.2265 84.4605 44.872C82.616 44.4935 81.4684 43.2556 80.9096 41.5491C80.0144 38.8091 80.1346 36.033 80.9817 33.293C81.3122 32.2174 81.9491 31.3101 82.9164 30.7032C84.3824 29.7778 85.9386 29.7778 87.5127 30.3967C88.0054 30.595 88.4681 30.8834 88.9547 31.1358C89.3333 30.6851 89.7178 30.2225 90.1444 29.7117C89.7418 29.4714 89.3873 29.231 89.0028 29.0447C87.7711 28.4378 86.4553 28.2516 85.0974 28.3357C83.9318 28.4078 82.8623 28.7683 81.901 29.4173C79.9783 30.7152 78.9509 32.602 78.4522 34.8072C78.1278 36.2313 78.1218 37.6794 78.26 39.1276C78.4342 40.9422 78.9629 42.6247 80.1165 44.0728C81.3122 45.569 82.7902 46.5545 84.7249 46.7528C86.7497 46.9631 88.6363 46.5124 90.3907 45.4909C90.4568 45.4549 90.5169 45.4068 90.583 45.3527C90.1985 44.836 89.8139 44.3432 89.4234 43.8385ZM180.707 45.6712C179.956 45.6051 179.596 45.2085 179.488 44.4574C179.44 44.1509 179.422 43.8445 179.422 43.532C179.416 40.8761 179.422 38.2142 179.422 35.5583V35.2218H182.173C182.372 34.669 182.564 34.1222 182.774 33.5333H179.374C179.452 32.2534 179.524 31.0156 179.602 29.7418C178.917 29.892 178.22 30.0482 177.541 30.1984C177.445 31.3221 177.349 32.4277 177.247 33.5514H175.612V35.2218H177.385V35.6124C177.385 38.4305 177.385 41.2487 177.385 44.0668C177.385 44.3793 177.397 44.6857 177.439 44.9922C177.565 45.9897 178.016 46.7648 179.025 47.0773C179.452 47.2094 179.908 47.2575 180.353 47.2695C181.146 47.2936 181.921 47.1674 182.642 46.7828C182.564 46.3502 182.486 45.9296 182.42 45.5871C181.831 45.6291 181.26 45.7193 180.707 45.6712ZM204.164 33.7557C203.395 34.1402 202.824 34.7591 202.235 35.4562C202.259 34.6089 202.127 33.8879 201.754 33.2028C201.076 33.4011 200.421 33.5994 199.736 33.7977C200.078 34.6029 200.192 35.4201 200.192 36.2553C200.198 39.6924 200.198 43.1294 200.198 46.5665V46.915H202.229V43.6702C202.229 42.0539 202.223 40.4315 202.229 38.8151C202.229 38.2443 202.229 37.6434 202.554 37.1627C203.088 36.3695 203.809 35.7927 204.789 35.6364C205.125 35.5823 205.474 35.6304 205.852 35.6304C206.111 34.9334 206.375 34.2063 206.669 33.4192C205.756 33.2089 204.945 33.3651 204.164 33.7557ZM142.981 33.5514V46.6686H145.096V33.2028C144.387 33.317 143.684 33.4372 142.981 33.5514ZM144.159 27.8249C143.198 27.8189 142.465 28.552 142.477 29.5134C142.489 30.4688 143.192 31.1598 144.165 31.1598C145.132 31.1598 145.829 30.4568 145.829 29.4954C145.829 28.54 145.126 27.8309 144.159 27.8249Z" fill="#A09CA8"/>
<path fill-rule="evenodd" clip-rule="evenodd" d="M69.1874 21.3774H33.3359V57.1901H69.1935C69.1995 57.112 69.2055 57.0279 69.2055 56.9498V21.6779C69.2055 21.617 69.2006 21.5561 69.1956 21.4921C69.1926 21.4551 69.1896 21.4171 69.1874 21.3774ZM51.2474 39.1937C51.2927 39.2969 51.3384 39.401 51.3849 39.5061C51.475 39.3379 51.5591 39.1936 51.6252 39.0434C51.7754 38.743 51.9263 38.4425 52.0772 38.1421C52.3789 37.5412 52.6807 36.9403 52.9771 36.3394C53.2233 35.8395 53.4698 35.3396 53.7164 34.8396C54.4567 33.3386 55.197 31.8376 55.9271 30.3366C56.0233 30.1323 56.1374 30.0662 56.3597 30.0722C56.9251 30.0812 57.4905 30.0801 58.0759 30.079C58.2743 30.0786 58.4751 30.0782 58.6789 30.0782C58.6443 30.1506 58.6147 30.213 58.5865 30.2708C58.5609 30.3234 58.5365 30.3721 58.5107 30.4207C56.558 34.0921 54.6053 37.7636 52.6646 41.4409C52.5505 41.6573 52.4844 41.9277 52.4844 42.174C52.4754 43.8323 52.4765 45.4871 52.4776 47.1437C52.478 47.6961 52.4784 48.2488 52.4784 48.8018V49.1743H50.0871V48.8499C50.0871 46.5485 50.0871 44.2531 50.0811 41.9517C50.0811 41.7774 50.033 41.5912 49.9549 41.4409C48.4921 38.7068 47.0259 35.976 45.5589 33.2436C45.0496 32.2949 44.5401 31.346 44.0307 30.3967C44.0115 30.3584 43.9924 30.3188 43.9715 30.2757C43.9466 30.2243 43.9192 30.1677 43.8865 30.1023C43.9826 30.0963 44.0427 30.0842 44.1088 30.0842C44.3391 30.0842 44.5689 30.0833 44.7984 30.0823C45.3711 30.0798 45.9416 30.0774 46.5121 30.0903C46.6203 30.0963 46.7765 30.1864 46.8246 30.2825C47.4134 31.4753 47.9992 32.668 48.585 33.8608C49.1708 35.0536 49.7566 36.2463 50.3454 37.4391C50.3949 37.538 50.4599 37.6285 50.5246 37.7187C50.5936 37.8148 50.6624 37.9105 50.7119 38.0159C50.8986 38.3989 51.07 38.7894 51.2474 39.1937Z" fill="#A09CA8"/>
<path d="M124.199 46.5545C123.466 46.5545 122.781 46.5545 122.048 46.5545C122.048 46.4343 122.048 46.3201 122.048 46.206C122.048 43.1294 122.048 40.0469 122.042 36.9704C122.042 36.6519 122.012 36.3274 121.946 36.021C121.784 35.318 121.309 34.9274 120.588 34.8793C119.765 34.8252 119.062 35.1197 118.425 35.6184C118.029 35.9248 117.656 36.2553 117.26 36.5618C117.007 36.7601 116.887 36.9704 116.887 37.3189C116.905 40.2993 116.899 43.2797 116.899 46.254C116.899 46.3442 116.899 46.4343 116.899 46.5425C116.148 46.5425 115.415 46.5425 114.628 46.5425C114.628 46.4343 114.628 46.3201 114.628 46.206C114.628 43.2676 114.628 40.3293 114.622 37.391C114.622 37.0245 114.586 36.6519 114.55 36.2854C114.472 35.4501 113.781 35.1617 113.21 35.1136C112.567 35.0596 111.967 35.2158 111.432 35.5523C110.837 35.9309 110.278 36.3755 109.719 36.8081C109.635 36.8742 109.611 37.0545 109.611 37.1807C109.605 40.2212 109.605 43.2556 109.605 46.2961C109.605 46.4163 109.605 46.5304 109.605 46.6686C108.92 46.6686 108.265 46.6686 107.568 46.6686C107.568 46.5665 107.568 46.4583 107.568 46.3562C107.568 43.1955 107.562 40.0409 107.568 36.8802C107.568 35.8047 107.49 34.7471 107.1 33.6775C107.779 33.5153 108.446 33.3591 109.161 33.1908C109.275 33.5213 109.413 33.8338 109.491 34.1582C109.569 34.4827 109.593 34.8192 109.641 35.1797C109.84 34.9935 110.02 34.8132 110.218 34.651C111.095 33.9359 112.057 33.3771 113.21 33.2329C114.484 33.0707 115.68 33.6655 116.323 34.7772C116.425 34.9574 116.539 35.1317 116.659 35.33C116.977 35.0536 117.272 34.7772 117.59 34.5188C118.371 33.8879 119.219 33.4011 120.234 33.2509C122.445 32.9204 124.037 34.3205 124.187 36.5137C124.217 36.9524 124.199 37.391 124.199 37.8357C124.199 40.6117 124.199 43.3938 124.199 46.1699C124.199 46.2841 124.199 46.4043 124.199 46.5545Z" fill="#A09CA8"/>
<path d="M138.373 35.7506C137.742 34.675 136.901 33.8398 135.651 33.5033C133.969 33.0466 132.467 33.4312 131.115 34.4887C130.887 34.669 130.664 34.8613 130.406 35.0836C130.406 34.9274 130.406 34.8312 130.406 34.7351C130.382 32.8603 130.382 30.9796 130.328 29.0988C130.31 28.522 130.166 27.9451 130.076 27.3382C129.318 27.5065 128.628 27.6627 127.937 27.8129C128.441 29.7237 128.489 30.0722 128.489 32.1753C128.489 34.645 128.519 37.1146 128.483 39.5782C128.447 41.9757 128.7 44.3913 128.189 46.8008C128.802 46.8008 129.421 46.8069 130.033 46.7948C130.1 46.7948 130.196 46.6927 130.214 46.6146C130.328 46.224 130.424 45.8274 130.532 45.4128C130.58 45.4609 130.616 45.4909 130.652 45.521C132.094 46.9691 133.813 47.3837 135.741 46.7708C137.141 46.3261 137.994 45.2686 138.589 43.9827C139.178 42.7269 139.352 41.3869 139.352 40.0109C139.37 38.5207 139.148 37.0725 138.373 35.7506ZM136.45 43.2196C136.42 43.3037 136.384 43.3878 136.342 43.4659C135.753 44.7939 134.93 45.3888 133.098 45.2145C132.076 45.1184 131.229 44.6617 130.568 43.8745C130.478 43.7664 130.418 43.5981 130.412 43.4539C130.394 42.9251 130.406 42.3964 130.406 41.8616C130.406 41.3448 130.406 40.8221 130.406 40.3053V39.5302C130.406 38.731 130.406 37.9258 130.412 37.1266C130.412 36.9884 130.466 36.8262 130.55 36.724C131.247 35.9188 132.046 35.2458 133.17 35.2218C133.741 35.2098 134.329 35.2759 134.888 35.4141C135.892 35.6725 136.444 36.4356 136.679 37.379C137.171 39.3379 137.117 41.2967 136.45 43.2196Z" fill="#A09CA8"/>
<path d="M172.506 44.0127C172.5 42.9251 172.524 41.8375 172.536 40.7439C172.548 39.2658 172.56 37.7876 172.584 36.3094C172.602 34.8613 171.407 33.5694 169.826 33.305C168.21 33.0286 166.654 33.287 165.164 33.9179C164.479 34.2063 163.836 34.5849 163.139 34.9454C163.542 35.4802 163.89 35.9429 164.245 36.4176C164.473 36.2734 164.665 36.1532 164.852 36.021C165.344 35.6785 165.843 35.354 166.438 35.1978C167.225 34.9875 168.006 34.7411 168.823 34.9394C169.496 35.1016 170.091 35.4321 170.301 36.1472C170.529 36.9223 170.451 37.7275 170.457 38.5567C170.229 38.5567 170.037 38.5567 169.838 38.5567C168.595 38.5808 167.357 38.6168 166.149 38.9593C165.128 39.2477 164.209 39.7164 163.506 40.5216C162.61 41.5491 162.454 42.7749 162.64 44.0668C162.779 45.0342 163.259 45.7793 164.094 46.3021C165.687 47.2876 168.03 47.4258 169.935 45.9115C170.187 45.7132 170.433 45.4969 170.698 45.2746C170.968 46.236 171.581 46.8309 172.488 47.1554C172.843 46.6867 173.191 46.224 173.564 45.7253C172.831 45.3647 172.512 44.7699 172.506 44.0127ZM170.601 42.6127C170.722 43.4659 170.289 44.0668 169.712 44.5956C168.901 45.3407 167.946 45.7072 166.834 45.569C165.909 45.4549 165.368 44.9381 165.17 44.0188C165.02 43.3277 165.056 42.6427 165.266 41.9757C165.53 41.1525 166.143 40.6718 166.936 40.3834C167.814 40.0649 168.733 40.0169 169.658 40.0109C169.995 40.0109 170.331 40.0109 170.626 40.0109C170.626 40.756 170.626 41.459 170.626 42.168C170.619 42.3122 170.577 42.4685 170.601 42.6127Z" fill="#A09CA8"/>
<path d="M196.101 38.2322C196.053 37.8657 195.968 37.5052 195.86 37.1507C195.181 35.0175 193.812 33.6415 191.546 33.275C188.65 32.8063 186.367 34.3325 185.448 36.8502C184.625 39.0975 184.691 41.3989 185.556 43.6222C186.343 45.6592 187.803 46.9511 190.068 47.1253C192.358 47.2996 194.16 46.4764 195.32 44.4454C196.077 43.1234 196.263 41.6633 196.269 39.8907C196.233 39.5241 196.191 38.8752 196.101 38.2322ZM193.824 42.7389C193.649 43.7123 193.259 44.5776 192.352 45.1003C190.621 46.0918 188.398 45.2626 187.749 43.3758C187.431 42.4565 187.353 41.5011 187.329 40.5396C187.323 40.3113 187.329 40.083 187.329 39.8486L187.238 39.8426C187.353 38.9653 187.395 38.07 187.593 37.2107C187.899 35.8828 189.029 35.0596 190.387 34.9935C191.703 34.9274 192.748 35.3901 193.337 36.5798C193.631 37.1807 193.775 37.8837 193.878 38.5567C194.07 39.9508 194.076 41.3508 193.824 42.7389Z" fill="#A09CA8"/>
<path d="M103.477 37.6193C102.972 35.2519 101.308 33.6475 99.0367 33.281C96.5252 32.8724 94.1759 34.1222 93.1005 36.4236C92.5537 37.5893 92.4215 38.8391 92.3975 40.2392C92.4095 40.4916 92.4155 40.8821 92.4576 41.2727C92.5958 42.6848 92.9743 43.9947 93.8695 45.1544C95.5939 47.4017 98.4959 47.5219 100.346 46.7227C102.131 45.9536 103.062 44.4874 103.495 42.6728C103.885 40.9903 103.831 39.2958 103.477 37.6193ZM101.055 43.2737C100.647 44.8239 99.265 45.7072 97.6728 45.4609C96.2488 45.2385 95.2634 44.3552 94.9811 42.9011C94.7888 41.9157 94.7167 40.9062 94.6025 40.0048C94.7047 39.0675 94.7287 38.2322 94.8909 37.421C95.1673 36.027 96.1407 35.1858 97.5526 34.9995C98.9766 34.8132 100.118 35.4141 100.803 36.7C101.158 37.367 101.332 38.088 101.362 38.8271C101.416 40.3233 101.44 41.8195 101.055 43.2737Z" fill="#A09CA8"/>
<path d="M149.771 46.6686C149.771 46.5425 149.771 46.4223 149.771 46.3081C149.765 42.829 149.759 39.3559 149.759 35.8768C149.759 35.3059 149.627 34.7712 149.38 34.2604C149.314 34.1162 149.254 33.972 149.182 33.7977C149.861 33.5994 150.522 33.4011 151.225 33.1968C151.339 33.5213 151.477 33.8278 151.555 34.1522C151.633 34.4767 151.657 34.8132 151.717 35.1918C151.814 35.1076 151.898 35.0295 151.982 34.9574C152.967 34.0681 154.055 33.3831 155.406 33.2389C156.776 33.0887 157.948 33.4672 158.795 34.5969C159.252 35.2038 159.462 35.9128 159.462 36.6699C159.468 39.9568 159.462 43.2436 159.462 46.5365C159.462 46.5725 159.456 46.6146 159.45 46.6747C158.789 46.6747 158.134 46.6747 157.431 46.6747C157.431 46.5725 157.431 46.4583 157.431 46.3442C157.431 43.538 157.437 40.7259 157.425 37.9198C157.425 37.4511 157.407 36.9764 157.335 36.5197C157.167 35.4982 156.332 34.8673 155.304 35.0295C153.971 35.2398 152.853 35.9128 151.898 36.8502C151.82 36.9223 151.808 37.0846 151.808 37.2047C151.802 40.2452 151.802 43.2797 151.802 46.3201C151.802 46.4403 151.802 46.5545 151.802 46.6867C151.117 46.6686 150.462 46.6686 149.771 46.6686Z" fill="#A09CA8"/>
<path d="M90.1444 29.7117C89.7178 30.2225 89.3333 30.6851 88.9547 31.1358C88.4681 30.8834 88.0054 30.595 87.5127 30.3967C85.9386 29.7718 84.3824 29.7718 82.9164 30.7032C81.9491 31.3161 81.3122 32.2234 80.9817 33.293C80.1346 36.033 80.0144 38.8091 80.9096 41.5491C81.4684 43.2556 82.61 44.4935 84.4605 44.872C86.1789 45.2265 87.8011 44.9862 89.2551 43.9346C89.3032 43.8986 89.3573 43.8745 89.4234 43.8385C89.8139 44.3432 90.1985 44.842 90.601 45.3527C90.5289 45.4008 90.4748 45.4489 90.4087 45.4909C88.6543 46.5124 86.7677 46.9631 84.7369 46.7528C82.8022 46.5545 81.3182 45.569 80.1286 44.0728C78.9689 42.6187 78.4462 40.9422 78.266 39.1276C78.1218 37.6794 78.1338 36.2313 78.4582 34.8072C78.9569 32.602 79.9844 30.7152 81.907 29.4173C82.8683 28.7683 83.9378 28.4078 85.1034 28.3357C86.4673 28.2516 87.7771 28.4378 89.0088 29.0447C89.3933 29.225 89.7478 29.4714 90.1444 29.7117Z" fill="#A09CA8"/>
<path d="M177.379 35.2278C176.766 35.2278 176.195 35.2278 175.606 35.2278C175.606 34.669 175.606 34.1282 175.606 33.5573C176.153 33.5573 176.688 33.5573 177.241 33.5573C177.337 32.4337 177.433 31.3341 177.535 30.2044C178.22 30.0542 178.917 29.898 179.596 29.7477C179.518 31.0216 179.446 32.2594 179.368 33.5393C180.521 33.5393 181.615 33.5393 182.762 33.5393C182.552 34.1282 182.36 34.669 182.161 35.2278C181.254 35.2278 180.353 35.2278 179.41 35.2278C179.41 35.348 179.41 35.4561 179.41 35.5643C179.41 38.2202 179.41 40.8821 179.41 43.538C179.41 43.8445 179.428 44.1569 179.476 44.4634C179.59 45.2145 179.944 45.6111 180.695 45.6772C181.248 45.7252 181.819 45.6291 182.408 45.5991C182.468 45.9355 182.546 46.3562 182.63 46.7948C181.909 47.1794 181.134 47.3056 180.341 47.2815C179.896 47.2695 179.434 47.2154 179.013 47.0892C178.004 46.7828 177.547 46.0077 177.427 45.0042C177.391 44.6977 177.373 44.3853 177.373 44.0788C177.367 41.2607 177.373 38.4425 177.373 35.6244C177.379 35.5042 177.379 35.384 177.379 35.2278Z" fill="#A09CA8"/>
<path d="M142.981 33.5514C143.684 33.4372 144.381 33.317 145.102 33.2028C145.102 37.6974 145.102 42.174 145.102 46.6686C144.399 46.6686 143.702 46.6686 142.981 46.6686C142.981 42.3122 142.981 37.9498 142.981 33.5514Z" fill="#A09CA8"/>
<path d="M144.165 31.1598C143.192 31.1598 142.489 30.4748 142.477 29.5194C142.465 28.558 143.198 27.8249 144.159 27.8309C145.12 27.8369 145.829 28.54 145.829 29.5014C145.835 30.4568 145.132 31.1538 144.165 31.1598Z" fill="#A09CA8"/>
</svg>
