<svg width="177" height="40" viewBox="0 0 177 40" fill="none" xmlns="http://www.w3.org/2000/svg">
<path d="M71.8377 21.6556L77.1684 31.4227H72.4999L67.7654 22.2184H63.7591V31.4227H59.4551V8.18066H67.9638C73.2281 8.18066 76.6386 10.8295 76.6386 15.1996C76.6386 18.4113 74.8507 20.6623 71.8377 21.6556ZM68.0305 11.8225H63.7591V18.643H68.0301C70.811 18.643 72.3338 17.3516 72.3338 15.2329C72.3342 13.1469 70.7784 11.8225 68.0305 11.8225Z" fill="white"/>
<path d="M82.5395 24.3707C82.8042 26.8204 84.6918 28.3766 87.0756 28.3766C89.0292 28.3766 90.5187 27.516 91.1479 26.1916H95.4523C94.558 29.5687 91.1813 31.8204 87.1086 31.8204C81.9106 31.8204 78.3682 27.9795 78.3682 23.245C78.3682 18.5438 81.9766 14.6699 87.0092 14.6699C92.0749 14.6699 95.6837 18.5438 95.6837 23.245C95.6837 23.6425 95.6837 24.0729 95.6503 24.3707H82.5395ZM91.3793 21.6558C91.0485 19.6032 89.2936 18.1464 87.0092 18.1464C84.8242 18.1464 83.0693 19.5034 82.6718 21.6558H91.3793Z" fill="white"/>
<path d="M98.1621 8.18066H102.301V25.2974C102.301 27.0523 103.128 27.8799 104.685 27.8799C105.016 27.8799 105.479 27.8799 105.843 27.8466V31.3897C105.313 31.4227 104.486 31.4227 103.824 31.4227C99.917 31.4227 98.1621 29.4694 98.1621 25.3642V8.18066Z" fill="white"/>
<path d="M110.849 24.3707C111.114 26.8204 113.001 28.3766 115.385 28.3766C117.338 28.3766 118.828 27.516 119.457 26.1916H123.761C122.867 29.5687 119.49 31.8204 115.418 31.8204C110.22 31.8204 106.677 27.9795 106.677 23.245C106.677 18.5438 110.286 14.6699 115.318 14.6699C120.384 14.6699 123.992 18.5438 123.992 23.245C123.992 23.6425 123.992 24.0729 123.959 24.3707H110.849ZM119.689 21.6558C119.358 19.6032 117.603 18.1464 115.319 18.1464C113.134 18.1464 111.379 19.5034 110.982 21.6558H119.689Z" fill="white"/>
<path d="M136.692 29.4029C135.964 30.8927 134.044 31.82 131.825 31.82C128.283 31.82 126.064 29.8994 126.064 26.9862C126.064 24.0062 128.018 22.3844 131.56 22.0203L134.374 21.7222C136.096 21.5234 136.659 21.1263 136.659 20.166C136.659 18.7756 135.832 18.014 133.746 18.014C131.561 18.014 130.7 18.8086 130.567 20.199H126.396C126.594 16.7559 128.879 14.6699 133.68 14.6699C138.347 14.6699 140.831 16.6566 140.831 20.2324V31.4226H136.692V29.4029ZM132.454 24.7678C130.965 24.9002 130.203 25.5957 130.203 26.6881C130.203 27.7477 131.13 28.4763 132.752 28.4763C135.07 28.4763 136.659 27.0195 136.659 25.1653V23.7415C136.394 24.1723 135.632 24.4704 134.54 24.5694L132.454 24.7678Z" fill="white"/>
<path d="M151.025 31.8197C146.622 31.8197 144.072 29.7007 143.543 26.3236H147.748C148.045 27.7144 149.171 28.542 150.926 28.542C152.582 28.542 153.575 27.648 153.575 26.7211C153.575 25.6284 152.913 25.0989 150.363 24.8342C145.696 24.4033 143.709 22.7481 143.709 19.6692C143.709 17.0537 146.092 14.6699 150.198 14.6699C154.569 14.6699 156.986 16.9543 157.283 20.1327H153.144C153.012 18.8742 152.052 17.9803 150.264 17.9803C148.576 17.9803 147.847 18.7749 147.847 19.6355C147.847 20.7285 148.576 21.324 151.125 21.5557C155.827 22.0196 157.714 23.5427 157.714 26.6547C157.714 29.5683 154.998 31.8197 151.025 31.8197Z" fill="white"/>
<path d="M163.528 24.3707C163.793 26.8204 165.681 28.3766 168.064 28.3766C170.018 28.3766 171.507 27.516 172.137 26.1916H176.441C175.547 29.5687 172.17 31.8204 168.097 31.8204C162.899 31.8204 159.356 27.9795 159.356 23.245C159.356 18.5438 162.965 14.6699 167.998 14.6699C173.063 14.6699 176.672 18.5438 176.672 23.245C176.672 23.6425 176.672 24.0729 176.639 24.3707H163.528ZM172.368 21.6558C172.037 19.6032 170.283 18.1464 167.998 18.1464C165.813 18.1464 164.058 19.5034 163.661 21.6558H172.368Z" fill="white"/>
<path d="M26.3755 37.7694L44.3936 6.68588C46.1158 3.71456 43.9631 0 40.5179 0H4.482C1.03682 0 -1.1163 3.71456 0.606284 6.68588L3.77675 12.1552L4.9775 14.2269C6.79478 17.3618 10.8123 18.436 13.9564 16.6278L19.3599 13.5205C19.7666 13.2866 19.9059 12.7675 19.6711 12.362L18.0296 9.53007C17.3766 8.40375 18.1909 6.99437 19.4949 6.99437H33.166C34.4717 6.99437 35.2873 8.40587 34.6334 9.53388L27.8025 21.3187C27.1487 22.4467 25.5165 22.4467 24.8626 21.3187L23.2199 18.4843C22.9855 18.0796 22.4666 17.941 22.0607 18.1741L16.6548 21.2827C13.5136 23.0891 12.4377 27.0965 14.2528 30.2284L15.4536 32.3001L18.624 37.7694C20.3487 40.7437 24.6516 40.7437 26.3755 37.7694Z" fill="white"/>
</svg>
