<svg width="269" height="258" viewBox="0 0 269 258" fill="none" xmlns="http://www.w3.org/2000/svg">
<rect width="269" height="257.057" fill="#212121"/>
<path fill-rule="evenodd" clip-rule="evenodd" d="M158.806 30.1416C159.708 30.1416 160.482 30.7833 160.65 31.6695L160.86 32.7769C160.988 33.4553 161.484 33.9969 162.118 34.2685C162.975 34.6352 163.779 35.1021 164.515 35.6545C165.067 36.0691 165.784 36.2275 166.435 35.9995L167.503 35.6258C168.354 35.3279 169.297 35.6777 169.748 36.4588L170.991 38.6108C171.442 39.392 171.273 40.3834 170.59 40.9718L169.733 41.7093C169.21 42.1591 168.988 42.8581 169.07 43.5429C169.124 43.9971 169.152 44.4593 169.152 44.9281C169.152 45.3973 169.124 45.8601 169.07 46.3147C168.988 46.9995 169.21 47.6987 169.732 48.1485L170.588 48.8845C171.271 49.4728 171.44 50.4643 170.989 51.2454L169.746 53.3974C169.295 54.1785 168.352 54.5284 167.501 54.2304L166.435 53.8573C165.783 53.6292 165.066 53.7876 164.514 54.2021C163.778 54.7544 162.975 55.2211 162.118 55.5877C161.484 55.8593 160.988 56.4009 160.86 57.0793L160.65 58.1867C160.482 59.073 159.708 59.7146 158.806 59.7146H156.321C155.419 59.7146 154.645 59.073 154.477 58.1867L154.268 57.0804C154.139 56.4018 153.644 55.8601 153.009 55.5886C152.151 55.2219 151.347 54.7549 150.611 54.2023C150.059 53.7878 149.342 53.6294 148.691 53.8575L147.625 54.2304C146.774 54.5283 145.831 54.1784 145.38 53.3973L144.137 51.2453C143.686 50.4642 143.855 49.4727 144.538 48.8844L145.393 48.1493C145.915 47.6994 146.137 47.0002 146.055 46.3154C146.001 45.8605 145.973 45.3976 145.973 44.9281C145.973 44.4591 146.001 43.9966 146.055 43.5422C146.137 42.8574 145.915 42.1583 145.392 41.7085L144.536 40.9719C143.853 40.3835 143.684 39.3921 144.135 38.6109L145.378 36.4589C145.829 35.6778 146.772 35.328 147.623 35.6259L148.69 35.9992C149.342 36.2273 150.059 36.0689 150.611 35.6544C151.347 35.1016 152.151 34.6344 153.009 34.2677C153.644 33.9961 154.139 33.4544 154.268 32.7758L154.477 31.6695C154.645 30.7833 155.419 30.1416 156.321 30.1416H158.806ZM157.563 50.1234C160.433 50.1234 162.759 47.7975 162.759 44.9282C162.759 42.0589 160.433 39.733 157.563 39.733C154.694 39.733 152.368 42.0589 152.368 44.9282C152.368 47.7975 154.694 50.1234 157.563 50.1234Z" fill="#9A2F8F"/>
<path fill-rule="evenodd" clip-rule="evenodd" d="M120.722 199.573C121.337 199.218 122.118 199.351 122.581 199.889L123.484 200.938C123.839 201.351 124.39 201.526 124.929 201.454C125.876 201.327 126.829 201.329 127.762 201.455C128.301 201.528 128.852 201.352 129.206 200.94L130.111 199.889C130.574 199.351 131.355 199.218 131.97 199.573L134.298 200.917C134.913 201.272 135.188 202.015 134.954 202.685L134.497 203.991C134.317 204.503 134.44 205.068 134.772 205.498C135.058 205.87 135.323 206.264 135.563 206.681C135.804 207.098 136.013 207.524 136.191 207.956C136.398 208.458 136.826 208.847 137.359 208.948L138.722 209.206C139.419 209.338 139.925 209.947 139.925 210.657L139.925 213.345C139.925 214.056 139.419 214.665 138.722 214.797L137.358 215.055C136.824 215.156 136.396 215.546 136.19 216.049C135.832 216.921 135.357 217.748 134.773 218.505C134.441 218.936 134.317 219.501 134.497 220.015L134.953 221.318C135.188 221.989 134.912 222.731 134.297 223.086L131.969 224.43C131.354 224.785 130.574 224.652 130.11 224.114L129.208 223.065C128.853 222.653 128.302 222.478 127.764 222.55C126.817 222.676 125.864 222.673 124.932 222.547C124.393 222.474 123.841 222.65 123.487 223.062L122.581 224.114C122.118 224.652 121.338 224.785 120.723 224.43L118.395 223.086C117.78 222.731 117.504 221.988 117.739 221.318L118.198 220.007C118.377 219.495 118.254 218.931 117.923 218.5C117.638 218.13 117.374 217.737 117.134 217.321C116.894 216.905 116.685 216.479 116.507 216.047C116.3 215.545 115.872 215.156 115.339 215.055L113.977 214.797C113.279 214.665 112.774 214.056 112.774 213.345L112.774 210.657C112.774 209.947 113.279 209.338 113.977 209.206L115.34 208.948C115.874 208.847 116.302 208.457 116.508 207.954C116.865 207.084 117.338 206.258 117.921 205.503C118.252 205.072 118.376 204.507 118.196 203.994L117.738 202.685C117.504 202.015 117.779 201.272 118.394 200.917L120.722 199.573ZM128.73 216.132C131.012 214.815 131.793 211.898 130.476 209.617C129.159 207.335 126.242 206.554 123.961 207.871C121.679 209.188 120.898 212.105 122.215 214.386C123.532 216.668 126.449 217.449 128.73 216.132Z" fill="#00BB93"/>
<path d="M176.033 48.1143C179.17 48.1103 182.069 49.7843 183.634 52.503L224.986 124.337C226.545 127.045 226.543 130.379 224.98 133.085L183.423 205.063C181.861 207.77 178.975 209.439 175.85 209.443L92.9643 209.548C89.8273 209.552 86.9278 207.878 85.3628 205.159L44.0115 133.326C42.4525 130.617 42.4546 127.284 44.0171 124.577L85.5737 52.599C87.1362 49.8927 90.0223 48.2239 93.1473 48.2199L176.033 48.1143Z" fill="url(#paint0_linear_1_347)"/>
<path opacity="0.5" d="M130.124 61.0035C132.832 59.4417 136.168 59.4417 138.876 61.0035L191.254 91.2124C193.966 92.7763 195.636 95.6687 195.636 98.7991V159.201C195.636 162.331 193.966 165.224 191.254 166.788L138.876 196.996C136.168 198.558 132.832 198.558 130.124 196.996L77.7462 166.788C75.0344 165.224 73.3636 162.331 73.3636 159.201V98.7992C73.3636 95.6687 75.0344 92.7763 77.7462 91.2124L130.124 61.0035Z" fill="url(#paint1_linear_1_347)"/>
<path opacity="0.25" d="M182.294 124.33C183.864 127.043 183.864 130.388 182.294 133.101L162.195 167.849C160.629 170.555 157.74 172.222 154.614 172.222L114.386 172.222C111.26 172.222 108.371 170.555 106.805 167.849L86.7057 133.101C85.1364 130.388 85.1364 127.043 86.7057 124.33L106.805 89.5822C108.371 86.8759 111.26 85.2093 114.386 85.2093L154.614 85.2093C157.74 85.2093 160.629 86.8759 162.195 89.5822L182.294 124.33Z" fill="url(#paint2_linear_1_347)"/>
<path d="M143.884 166.632L155.571 178.593C157.337 180.4 159.757 181.419 162.283 181.419H205.873" stroke="url(#paint3_radial_1_347)" stroke-width="1.13742" stroke-linecap="round"/>
<path opacity="0.92" d="M149.571 138.481V157.342C149.571 159.831 148.582 162.218 146.822 163.978L129.855 180.945C128.095 182.705 125.709 183.693 123.22 183.693H87.5814" stroke="url(#paint4_radial_1_347)" stroke-width="1.13742" stroke-linecap="round"/>
<path d="M141.325 83.6004L132.699 74.9746C130.939 73.2149 128.552 72.2262 126.063 72.2262H94.6903" stroke="url(#paint5_radial_1_347)" stroke-width="1.13742" stroke-linecap="round"/>
<path opacity="0.92" d="M186.821 76.4915H151.752C149.263 76.4915 146.876 77.4802 145.116 79.24L134.974 89.3826C133.214 91.1424 132.225 93.5292 132.225 96.0179V125.116C132.225 130.299 128.024 134.5 122.841 134.5H86.9186C84.4299 134.5 82.0431 133.511 80.2833 131.752L56.5867 108.055" stroke="url(#paint6_radial_1_347)" stroke-width="1.13742" stroke-linecap="round"/>
<path fill-rule="evenodd" clip-rule="evenodd" d="M213.426 177.409C212.854 177.139 212.487 176.544 212.537 175.914C212.565 175.55 212.58 175.182 212.58 174.811C212.58 167.153 206.372 160.945 198.714 160.945C194.853 160.945 191.36 162.524 188.845 165.071C188.406 165.516 187.725 165.633 187.154 165.374C185.792 164.756 184.278 164.411 182.684 164.411C176.701 164.411 171.852 169.261 171.852 175.244C171.852 175.278 171.852 175.311 171.852 175.345C171.858 176.054 171.366 176.69 170.683 176.882C166.856 177.958 164.051 181.473 164.051 185.643C164.051 190.669 168.125 194.743 173.15 194.743H209.548C214.573 194.743 218.647 190.669 218.647 185.643C218.647 182.005 216.512 178.865 213.426 177.409Z" fill="url(#paint7_radial_1_347)"/>
<rect x="59.1459" y="164.714" width="40.484" height="34.0658" rx="2.53016" fill="url(#paint8_radial_1_347)"/>
<path fill-rule="evenodd" clip-rule="evenodd" d="M97.6632 168.416C97.6632 168.007 97.3316 167.675 96.9226 167.675L62.3631 167.675C61.9541 167.675 61.6225 168.007 61.6225 168.416C61.6225 168.825 61.9541 169.156 62.3631 169.156L96.9226 169.156C97.3316 169.156 97.6632 168.825 97.6632 168.416ZM97.6632 171.378C97.6632 170.969 97.3316 170.637 96.9226 170.637L62.3631 170.637C61.9541 170.637 61.6225 170.969 61.6225 171.378C61.6225 171.787 61.9541 172.118 62.3631 172.118L96.9226 172.118C97.3316 172.118 97.6632 171.787 97.6632 171.378ZM96.9226 173.601C97.3316 173.601 97.6632 173.932 97.6632 174.341C97.6632 174.75 97.3316 175.082 96.9226 175.082L62.3631 175.082C61.9541 175.082 61.6225 174.75 61.6225 174.341C61.6225 173.932 61.9541 173.601 62.3631 173.601L96.9226 173.601ZM97.6632 177.302C97.6632 176.893 97.3316 176.561 96.9226 176.561L62.3631 176.561C61.9541 176.561 61.6225 176.893 61.6225 177.302C61.6225 177.711 61.9541 178.042 62.3631 178.042H96.9226C97.3316 178.042 97.6632 177.711 97.6632 177.302ZM96.9226 179.525C97.3316 179.525 97.6632 179.856 97.6632 180.265C97.6632 180.674 97.3316 181.006 96.9226 181.006H62.3631C61.9541 181.006 61.6225 180.674 61.6225 180.265C61.6225 179.856 61.9541 179.525 62.3631 179.525L96.9226 179.525ZM97.6632 183.227C97.6632 182.818 97.3316 182.487 96.9226 182.487L62.3631 182.487C61.9541 182.487 61.6225 182.818 61.6225 183.227C61.6225 183.636 61.9541 183.968 62.3631 183.968H96.9226C97.3316 183.968 97.6632 183.636 97.6632 183.227ZM96.9226 185.45C97.3316 185.45 97.6632 185.782 97.6632 186.191C97.6632 186.6 97.3316 186.931 96.9226 186.931L62.3631 186.931C61.9541 186.931 61.6225 186.6 61.6225 186.191C61.6225 185.782 61.9541 185.45 62.3631 185.45H96.9226ZM97.6632 189.153C97.6632 188.744 97.3316 188.412 96.9226 188.412H62.3631C61.9541 188.412 61.6225 188.744 61.6225 189.153C61.6225 189.562 61.9541 189.893 62.3631 189.893L96.9226 189.893C97.3316 189.893 97.6632 189.562 97.6632 189.153ZM96.9226 191.374C97.3316 191.374 97.6632 191.705 97.6632 192.114C97.6632 192.523 97.3316 192.855 96.9226 192.855L62.3631 192.855C61.9541 192.855 61.6225 192.523 61.6225 192.114C61.6225 191.705 61.9541 191.374 62.3631 191.374H96.9226ZM97.6632 195.077C97.6632 194.668 97.3316 194.336 96.9226 194.336H62.3631C61.9541 194.336 61.6225 194.668 61.6225 195.077C61.6225 195.486 61.9541 195.817 62.3631 195.817L96.9226 195.817C97.3316 195.817 97.6632 195.486 97.6632 195.077Z" fill="url(#paint9_linear_1_347)"/>
<rect x="67.0566" y="155.827" width="24.6854" height="45.9148" rx="2.53016" fill="url(#paint10_radial_1_347)"/>
<path fill-rule="evenodd" clip-rule="evenodd" d="M89.753 159.532C89.753 159.123 89.4215 158.791 89.0125 158.791H70.2516C69.8426 158.791 69.511 159.123 69.511 159.532C69.511 159.941 69.8426 160.272 70.2516 160.272L89.0125 160.272C89.4215 160.272 89.753 159.941 89.753 159.532ZM89.753 162.493C89.753 162.084 89.4215 161.753 89.0125 161.753L70.2516 161.753C69.8426 161.753 69.511 162.084 69.511 162.493C69.511 162.902 69.8426 163.234 70.2516 163.234L89.0125 163.234C89.4215 163.234 89.753 162.902 89.753 162.493ZM89.0125 164.716C89.4215 164.716 89.753 165.047 89.753 165.456C89.753 165.865 89.4215 166.197 89.0125 166.197L70.2516 166.197C69.8426 166.197 69.511 165.865 69.511 165.456C69.511 165.047 69.8426 164.716 70.2516 164.716L89.0125 164.716ZM89.753 168.417C89.753 168.008 89.4215 167.677 89.0125 167.677L70.2516 167.677C69.8426 167.677 69.511 168.008 69.511 168.417C69.511 168.826 69.8426 169.158 70.2516 169.158H89.0125C89.4215 169.158 89.753 168.826 89.753 168.417ZM89.0125 170.641C89.4215 170.641 89.753 170.972 89.753 171.381C89.753 171.79 89.4215 172.122 89.0125 172.122H70.2516C69.8426 172.122 69.511 171.79 69.511 171.381C69.511 170.972 69.8426 170.641 70.2516 170.641L89.0125 170.641ZM89.753 174.343C89.753 173.934 89.4215 173.602 89.0125 173.602L70.2516 173.602C69.8426 173.602 69.511 173.934 69.511 174.343C69.511 174.752 69.8426 175.083 70.2516 175.083H89.0125C89.4215 175.083 89.753 174.752 89.753 174.343ZM89.0125 176.565C89.4215 176.565 89.753 176.897 89.753 177.306C89.753 177.715 89.4215 178.046 89.0125 178.046L70.2516 178.046C69.8426 178.046 69.511 177.715 69.511 177.306C69.511 176.897 69.8426 176.565 70.2516 176.565H89.0125ZM89.753 180.268C89.753 179.859 89.4215 179.527 89.0125 179.527H70.2516C69.8426 179.527 69.511 179.859 69.511 180.268C69.511 180.677 69.8426 181.008 70.2516 181.008L89.0125 181.008C89.4215 181.008 89.753 180.677 89.753 180.268ZM89.0125 182.49C89.4215 182.49 89.753 182.822 89.753 183.231C89.753 183.64 89.4215 183.971 89.0125 183.971L70.2516 183.971C69.8426 183.971 69.511 183.64 69.511 183.231C69.511 182.822 69.8426 182.49 70.2516 182.49H89.0125ZM89.753 186.192C89.753 185.783 89.4215 185.452 89.0125 185.452H70.2516C69.8426 185.452 69.511 185.783 69.511 186.192C69.511 186.601 69.8426 186.933 70.2516 186.933L89.0125 186.933C89.4215 186.933 89.753 186.601 89.753 186.192ZM89.0125 188.413C89.4215 188.413 89.753 188.745 89.753 189.154C89.753 189.563 89.4215 189.895 89.0125 189.895L70.2516 189.895C69.8426 189.895 69.511 189.563 69.511 189.154C69.511 188.745 69.8426 188.413 70.2516 188.413H89.0125ZM89.753 192.117C89.753 191.708 89.4215 191.377 89.0125 191.377H70.2516C69.8426 191.377 69.511 191.708 69.511 192.117C69.511 192.526 69.8426 192.858 70.2516 192.858H89.0125C89.4215 192.858 89.753 192.526 89.753 192.117ZM89.0125 194.337C89.4215 194.337 89.753 194.669 89.753 195.078C89.753 195.487 89.4215 195.818 89.0125 195.818H70.2516C69.8426 195.818 69.511 195.487 69.511 195.078C69.511 194.669 69.8426 194.337 70.2516 194.337H89.0125ZM89.753 198.041C89.753 197.632 89.4215 197.3 89.0125 197.3H70.2516C69.8426 197.3 69.511 197.632 69.511 198.041C69.511 198.45 69.8426 198.781 70.2516 198.781H89.0125C89.4215 198.781 89.753 198.45 89.753 198.041Z" fill="url(#paint11_linear_1_347)"/>
<path fill-rule="evenodd" clip-rule="evenodd" d="M212.151 87.4185V87.419V95.5314C212.151 95.5314 212.151 95.5315 212.151 95.5316C212.15 98.7386 203.106 101.338 191.951 101.338C180.795 101.338 171.751 98.7386 171.751 95.5316C171.751 95.5315 171.751 95.5314 171.751 95.5314V87.419V87.4185C171.751 84.2114 180.794 81.6115 191.951 81.6115C203.107 81.6115 212.151 84.2114 212.151 87.4185Z" fill="url(#paint12_radial_1_347)"/>
<path opacity="0.5" fill-rule="evenodd" clip-rule="evenodd" d="M208.505 88.2334C209.154 87.7946 209.214 87.5214 209.214 87.4188C209.214 87.3163 209.154 87.043 208.505 86.6042C207.844 86.1571 206.734 85.6602 205.121 85.1989C201.907 84.2796 197.254 83.6614 191.956 83.6614C186.657 83.6614 182.005 84.2796 178.79 85.1989C177.177 85.6602 176.068 86.1571 175.406 86.6042C174.757 87.043 174.698 87.3163 174.698 87.4188C174.698 87.5214 174.757 87.7946 175.406 88.2334C176.068 88.6806 177.177 89.1774 178.79 89.6387C182.005 90.5581 186.657 91.1762 191.956 91.1762C197.254 91.1762 201.907 90.5581 205.121 89.6387C206.734 89.1774 207.844 88.6806 208.505 88.2334Z" fill="url(#paint13_linear_1_347)"/>
<path fill-rule="evenodd" clip-rule="evenodd" d="M212.151 74.6849V74.6852V82.7978C212.151 82.7978 212.151 82.7978 212.151 82.7979C212.151 86.005 203.107 88.6048 191.951 88.6048C180.794 88.6048 171.751 86.005 171.751 82.7979C171.751 82.7978 171.751 82.7978 171.751 82.7978V74.6852V74.6849C171.751 71.4778 180.794 68.878 191.951 68.878C203.107 68.878 212.151 71.4778 212.151 74.6849Z" fill="url(#paint14_radial_1_347)"/>
<path opacity="0.5" fill-rule="evenodd" clip-rule="evenodd" d="M208.505 75.4997C209.154 75.0608 209.214 74.7876 209.214 74.6851C209.214 74.5825 209.154 74.3093 208.505 73.8705C207.844 73.4233 206.734 72.9265 205.121 72.4652C201.907 71.5458 197.254 70.9277 191.956 70.9277C186.657 70.9277 182.005 71.5458 178.79 72.4652C177.177 72.9265 176.068 73.4233 175.406 73.8705C174.757 74.3093 174.698 74.5825 174.698 74.6851C174.698 74.7876 174.757 75.0608 175.406 75.4997C176.068 75.9468 177.177 76.4436 178.79 76.905C182.005 77.8243 186.657 78.4425 191.956 78.4425C197.254 78.4425 201.907 77.8243 205.121 76.905C206.734 76.4436 207.844 75.9468 208.505 75.4997Z" fill="url(#paint15_linear_1_347)"/>
<path fill-rule="evenodd" clip-rule="evenodd" d="M212.151 61.5405V61.5407V69.6533C212.151 69.6534 212.151 69.6534 212.151 69.6534C212.151 72.8605 203.107 75.4604 191.951 75.4604C180.794 75.4604 171.751 72.8605 171.751 69.6534C171.751 69.6534 171.751 69.6534 171.751 69.6533V61.5407V61.5405C171.751 58.3335 180.794 55.7336 191.951 55.7336C203.107 55.7336 212.151 58.3335 212.151 61.5405Z" fill="url(#paint16_radial_1_347)"/>
<path opacity="0.5" fill-rule="evenodd" clip-rule="evenodd" d="M208.505 62.3552C209.154 61.9164 209.214 61.6432 209.214 61.5407C209.214 61.4381 209.154 61.1649 208.505 60.7261C207.844 60.2789 206.734 59.7821 205.121 59.3208C201.907 58.4014 197.254 57.7832 191.956 57.7832C186.657 57.7832 182.005 58.4014 178.79 59.3208C177.177 59.7821 176.068 60.2789 175.406 60.7261C174.757 61.1649 174.698 61.4381 174.698 61.5407C174.698 61.6432 174.757 61.9164 175.406 62.3552C176.068 62.8024 177.177 63.2992 178.79 63.7606C182.005 64.6799 186.657 65.2981 191.956 65.2981C197.254 65.2981 201.907 64.6799 205.121 63.7606C206.734 63.2992 207.844 62.8024 208.505 62.3552Z" fill="url(#paint17_linear_1_347)"/>
<rect x="56.5371" y="62.4275" width="46.0032" height="31.9832" rx="2.19063" fill="url(#paint18_radial_1_347)"/>
<rect x="56.5371" y="62.4275" width="46.0032" height="31.9832" rx="2.19063" stroke="url(#paint19_radial_1_347)" stroke-width="0.876252"/>
<rect x="56.5371" y="62.4275" width="46.0032" height="31.9832" rx="2.19063" stroke="url(#paint20_radial_1_347)" stroke-width="0.876252"/>
<path opacity="0.5" d="M58.8403 66.7032C58.8403 65.7354 59.6249 64.9507 60.5928 64.9507H67.1646C68.1325 64.9507 68.9171 65.7354 68.9171 66.7032V88.1714C68.9171 89.1393 68.1325 89.9239 67.1646 89.9239H60.5928C59.6249 89.9239 58.8403 89.1393 58.8403 88.1714V66.7032Z" fill="url(#paint21_radial_1_347)"/>
<path opacity="0.25" d="M71.0965 75.9041C71.0965 74.9362 71.8811 74.1516 72.849 74.1516H77.2302C78.1981 74.1516 78.9827 74.9362 78.9827 75.9041V80.2853C78.9827 81.2532 78.1981 82.0378 77.2302 82.0378H72.849C71.8811 82.0378 71.0965 81.2532 71.0965 80.2853V75.9041Z" fill="url(#paint22_radial_1_347)"/>
<path opacity="0.25" d="M81.1874 75.9041C81.1874 74.9362 81.972 74.1516 82.9399 74.1516H87.3212C88.289 74.1516 89.0737 74.9362 89.0737 75.9041V80.2853C89.0737 81.2532 88.2891 82.0378 87.3212 82.0378H82.9399C81.972 82.0378 81.1874 81.2532 81.1874 80.2853V75.9041Z" fill="url(#paint23_radial_1_347)"/>
<path opacity="0.25" d="M91.2629 75.9041C91.2629 74.9362 92.0475 74.1516 93.0154 74.1516H97.3967C98.3646 74.1516 99.1492 74.9362 99.1492 75.9041V80.2853C99.1492 81.2532 98.3646 82.0378 97.3967 82.0378H93.0154C92.0475 82.0378 91.2629 81.2532 91.2629 80.2853V75.9041Z" fill="url(#paint24_radial_1_347)"/>
<path opacity="0.5" d="M71.0965 66.4842C71.0965 65.6373 71.783 64.9507 72.6299 64.9507H84.8974C85.7443 64.9507 86.4309 65.6373 86.4309 66.4842V66.4842C86.4309 67.3311 85.7443 68.0176 84.8974 68.0176H72.6299C71.783 68.0176 71.0965 67.3311 71.0965 66.4842V66.4842Z" fill="url(#paint25_radial_1_347)"/>
<path opacity="0.25" d="M71.0965 70.2087C71.0965 69.7247 71.4888 69.3324 71.9727 69.3324H97.8221C98.3061 69.3324 98.6984 69.7247 98.6984 70.2087V70.2087C98.6984 70.6926 98.3061 71.0849 97.8221 71.0849H71.9727C71.4888 71.0849 71.0965 70.6926 71.0965 70.2087V70.2087Z" fill="url(#paint26_radial_1_347)"/>
<path opacity="0.25" d="M71.0965 84.2283C71.0965 83.7444 71.4888 83.3521 71.9727 83.3521H76.354C76.8379 83.3521 77.2302 83.7444 77.2302 84.2283V84.2283C77.2302 84.7123 76.8379 85.1046 76.354 85.1046H71.9727C71.4888 85.1046 71.0965 84.7123 71.0965 84.2283V84.2283Z" fill="url(#paint27_radial_1_347)"/>
<path opacity="0.25" d="M81.1874 84.2283C81.1874 83.7444 81.5797 83.3521 82.0637 83.3521H86.4449C86.9289 83.3521 87.3212 83.7444 87.3212 84.2283V84.2283C87.3212 84.7123 86.9289 85.1046 86.4449 85.1046H82.0637C81.5797 85.1046 81.1874 84.7123 81.1874 84.2283V84.2283Z" fill="url(#paint28_radial_1_347)"/>
<path opacity="0.25" d="M91.2629 84.2283C91.2629 83.7444 91.6552 83.3521 92.1392 83.3521H96.5204C97.0044 83.3521 97.3967 83.7444 97.3967 84.2283V84.2283C97.3967 84.7123 97.0044 85.1046 96.5204 85.1046H92.1392C91.6552 85.1046 91.2629 84.7123 91.2629 84.2283V84.2283Z" fill="url(#paint29_radial_1_347)"/>
<path d="M54.0262 91.7819C54.0262 91.54 54.2224 91.3438 54.4644 91.3438H104.849C105.091 91.3438 105.287 91.54 105.287 91.7819V92.4946C105.287 93.7948 104.233 94.8488 102.933 94.8488H56.3804C55.0802 94.8488 54.0262 93.7948 54.0262 92.4946V91.7819Z" fill="url(#paint30_radial_1_347)"/>
<path d="M54.0262 91.7819C54.0262 91.54 54.2224 91.3438 54.4644 91.3438H104.849C105.091 91.3438 105.287 91.54 105.287 91.7819V92.4946C105.287 93.7948 104.233 94.8488 102.933 94.8488H56.3804C55.0802 94.8488 54.0262 93.7948 54.0262 92.4946V91.7819Z" fill="url(#paint31_radial_1_347)"/>
<path fill-rule="evenodd" clip-rule="evenodd" d="M67.462 90.8989C67.913 91.68 67.7446 92.6715 67.0609 93.2598L65.4175 94.674C64.894 95.1245 64.6701 95.8249 64.7668 96.5088C64.9625 97.8931 64.9579 99.2878 64.7641 100.651C64.667 101.335 64.891 102.035 65.4144 102.485L67.0629 103.904C67.7466 104.492 67.9151 105.484 67.4641 106.265L65.4533 109.747C65.0023 110.529 64.0595 110.878 63.2081 110.58L61.157 109.863C60.5061 109.635 59.7886 109.79 59.245 110.215C58.7063 110.636 58.1318 111.024 57.5229 111.376C56.9127 111.728 56.2879 112.032 55.6528 112.288C55.0131 112.547 54.5195 113.09 54.3913 113.768L53.988 115.9C53.8203 116.786 53.0459 117.428 52.1439 117.428L48.1224 117.428C47.2204 117.428 46.446 116.786 46.2783 115.9L45.874 113.763C45.7457 113.085 45.2516 112.541 44.6113 112.283C43.335 111.77 42.1262 111.077 41.0262 110.216C40.4824 109.79 39.7639 109.634 39.112 109.862L37.0623 110.579C36.2109 110.877 35.2681 110.528 34.8171 109.746L32.8063 106.264C32.3553 105.483 32.5238 104.491 33.2075 103.903L34.855 102.485C35.3783 102.035 35.6022 101.335 35.5058 100.651C35.3108 99.2685 35.3156 97.8757 35.5091 96.5141C35.6062 95.8306 35.3821 95.1305 34.8588 94.6802L33.2095 93.2609C32.5258 92.6726 32.3574 91.6811 32.8084 90.9L34.8191 87.4172C35.2701 86.6361 36.213 86.2863 37.0643 86.5842L39.1161 87.3022C39.7671 87.53 40.4846 87.3745 41.0281 86.95C41.5669 86.5292 42.1414 86.1408 42.7504 85.7892C43.3582 85.4382 43.9806 85.1354 44.6132 84.8795C45.2523 84.621 45.7455 84.0774 45.8736 83.4L46.2783 81.2608C46.446 80.3746 47.2204 79.733 48.1224 79.733L52.1439 79.733C53.0459 79.733 53.8203 80.3746 53.988 81.2608L54.3925 83.3989C54.5208 84.0775 55.0153 84.6216 55.6561 84.8792C56.9333 85.3926 58.1432 86.0854 59.244 86.9465C59.7878 87.3718 60.5061 87.5279 61.1578 87.2999L63.2061 86.5831C64.0574 86.2852 65.0003 86.635 65.4513 87.4162L67.462 90.8989ZM44.4032 101.893C46.2318 105.06 50.2819 106.145 53.4492 104.317C56.6165 102.488 57.7017 98.4381 55.873 95.2708C54.0444 92.1035 49.9944 91.0183 46.8271 92.8469C43.6597 94.6756 42.5745 98.7256 44.4032 101.893Z" fill="#00DEAE"/>
<path fill-rule="evenodd" clip-rule="evenodd" d="M224.779 138.765C225.681 138.765 226.455 139.407 226.623 140.293L227.069 142.65C227.197 143.329 227.691 143.873 228.333 144.129C229.724 144.685 231.017 145.437 232.175 146.351C232.717 146.779 233.435 146.934 234.087 146.706L236.355 145.913C237.206 145.615 238.149 145.965 238.6 146.746L240.779 150.519C241.23 151.3 241.061 152.292 240.378 152.88L238.558 154.446C238.036 154.895 237.811 155.595 237.909 156.277C238.014 157.003 238.068 157.745 238.068 158.5C238.068 159.254 238.014 159.997 237.909 160.722C237.811 161.405 238.035 162.104 238.558 162.554L240.377 164.119C241.061 164.708 241.229 165.699 240.778 166.48L238.599 170.253C238.148 171.035 237.206 171.384 236.354 171.086L234.087 170.293C233.435 170.065 232.717 170.221 232.175 170.648C231.016 171.562 229.724 172.314 228.333 172.87C227.691 173.126 227.197 173.67 227.069 174.349L226.623 176.706C226.455 177.592 225.681 178.234 224.779 178.234H220.422C219.52 178.234 218.745 177.592 218.578 176.706L218.132 174.349C218.003 173.67 217.509 173.126 216.868 172.87C215.476 172.314 214.183 171.562 213.025 170.648C212.483 170.22 211.764 170.064 211.113 170.292L208.843 171.086C207.992 171.384 207.049 171.034 206.598 170.253L204.419 166.48C203.968 165.699 204.137 164.707 204.821 164.119L206.642 162.552C207.164 162.102 207.389 161.403 207.291 160.72C207.187 159.995 207.133 159.254 207.133 158.5C207.133 157.746 207.187 157.004 207.291 156.279C207.389 155.597 207.164 154.898 206.642 154.448L204.82 152.88C204.136 152.292 203.968 151.3 204.419 150.519L206.597 146.746C207.048 145.965 207.991 145.615 208.842 145.913L211.112 146.707C211.764 146.935 212.483 146.78 213.025 146.352C214.183 145.437 215.476 144.685 216.868 144.129C217.509 143.873 218.003 143.329 218.132 142.65L218.578 140.293C218.745 139.407 219.52 138.765 220.422 138.765H224.779ZM222.601 165.433C226.43 165.433 229.535 162.329 229.535 158.5C229.535 154.67 226.43 151.566 222.601 151.566C218.771 151.566 215.667 154.67 215.667 158.5C215.667 162.329 218.771 165.433 222.601 165.433Z" fill="#C938BB"/>
<ellipse cx="140.276" cy="83.7214" rx="3.12793" ry="3.12791" fill="white"/>
<ellipse cx="143.599" cy="166.916" rx="3.12793" ry="3.12791" fill="white"/>
<path opacity="0.92" d="M191.94 126.538L202.84 115.637C204.6 113.878 206.987 112.889 209.476 112.889H220.375" stroke="url(#paint32_radial_1_347)" stroke-width="1.13742" stroke-linecap="round"/>
<ellipse cx="191.94" cy="126.538" rx="3.12793" ry="3.12791" fill="white"/>
<path opacity="0.92" d="M65.686 137.344L53.7431 149.286" stroke="url(#paint33_radial_1_347)" stroke-width="1.13742" stroke-linecap="round"/>
<path opacity="0.92" d="M118.576 196.205H133.741C136.23 196.205 138.617 197.194 140.376 198.953L150.993 209.57" stroke="url(#paint34_radial_1_347)" stroke-width="1.13742" stroke-linecap="round"/>
<ellipse cx="118.576" cy="196.489" rx="3.12793" ry="3.12791" fill="white"/>
<path d="M129.666 56.5867L123.315 50.2358C121.555 48.476 119.168 47.4873 116.68 47.4873H108.908" stroke="url(#paint35_radial_1_347)" stroke-width="1.13742" stroke-linecap="round"/>
<ellipse cx="129.382" cy="56.5867" rx="3.12793" ry="3.12791" fill="white"/>
<ellipse cx="65.6861" cy="137.344" rx="3.12793" ry="3.12791" fill="white"/>
<rect x="111.252" y="106.252" width="45.4968" height="45.4968" rx="9.09937" fill="white"/>
<path d="M136.239 139.662L146.65 121.012C147.645 119.229 146.401 117 144.41 117H123.59C121.599 117 120.355 119.229 121.35 121.012L123.182 124.293L123.876 125.536C124.926 127.417 127.247 128.062 129.064 126.977L132.186 125.112C132.421 124.972 132.501 124.66 132.366 124.417L131.417 122.718C131.04 122.042 131.51 121.197 132.264 121.197H140.163C140.917 121.197 141.388 122.044 141.01 122.72L137.064 129.791C136.686 130.468 135.743 130.468 135.365 129.791L134.416 128.091C134.281 127.848 133.981 127.765 133.746 127.904L130.623 129.77C128.808 130.853 128.186 133.258 129.235 135.137L129.929 136.38L131.761 139.662C132.757 141.446 135.243 141.446 136.239 139.662Z" fill="black"/>
<defs>
<linearGradient id="paint0_linear_1_347" x1="107.819" y1="32.4384" x2="93.1396" y2="218.466" gradientUnits="userSpaceOnUse">
<stop stop-color="#3C3C3C"/>
<stop offset="1" stop-color="#0E0E0E"/>
</linearGradient>
<linearGradient id="paint1_linear_1_347" x1="80.3405" y1="75.9355" x2="140.94" y2="203.562" gradientUnits="userSpaceOnUse">
<stop stop-color="#3C3C3C"/>
<stop offset="1" stop-color="#0E0E0E"/>
</linearGradient>
<linearGradient id="paint2_linear_1_347" x1="172.373" y1="90.1742" x2="81.3827" y2="133.504" gradientUnits="userSpaceOnUse">
<stop stop-color="#3C3C3C"/>
<stop offset="1" stop-color="#0E0E0E"/>
</linearGradient>
<radialGradient id="paint3_radial_1_347" cx="0" cy="0" r="1" gradientUnits="userSpaceOnUse" gradientTransform="translate(203.189 179.738) rotate(176.628) scale(61.3635 32.0248)">
<stop offset="0.338542" stop-color="#868686" stop-opacity="0"/>
<stop offset="1" stop-color="#EDEDED"/>
</radialGradient>
<radialGradient id="paint4_radial_1_347" cx="0" cy="0" r="1" gradientUnits="userSpaceOnUse" gradientTransform="translate(146.159 189.096) rotate(-167.355) scale(45.4622 68.0252)">
<stop offset="0.226705" stop-color="#EDEDED"/>
<stop offset="1" stop-color="#868686" stop-opacity="0"/>
</radialGradient>
<radialGradient id="paint5_radial_1_347" cx="0" cy="0" r="1" gradientUnits="userSpaceOnUse" gradientTransform="translate(104.358 67.1078) rotate(28.1913) scale(40.3283 21.5173)">
<stop stop-color="#868686" stop-opacity="0"/>
<stop offset="1" stop-color="#EDEDED"/>
</radialGradient>
<radialGradient id="paint6_radial_1_347" cx="0" cy="0" r="1" gradientUnits="userSpaceOnUse" gradientTransform="translate(181.181 127.908) rotate(173.722) scale(129.473 125.099)">
<stop offset="0.226705" stop-color="#EDEDED"/>
<stop offset="1" stop-color="#868686" stop-opacity="0"/>
</radialGradient>
<radialGradient id="paint7_radial_1_347" cx="0" cy="0" r="1" gradientUnits="userSpaceOnUse" gradientTransform="translate(218.741 218.925) rotate(-133.992) scale(78.9022 79.7447)">
<stop offset="0.36924" stop-color="#7D7D7D"/>
<stop offset="1" stop-color="#F5F5F5"/>
</radialGradient>
<radialGradient id="paint8_radial_1_347" cx="0" cy="0" r="1" gradientUnits="userSpaceOnUse" gradientTransform="translate(99.6991 223.155) rotate(-125.384) scale(70.1781 67.0105)">
<stop offset="0.36924" stop-color="#3F3F3F"/>
<stop offset="1" stop-color="#808080"/>
</radialGradient>
<linearGradient id="paint9_linear_1_347" x1="89.0756" y1="194.095" x2="89.0756" y2="167.834" gradientUnits="userSpaceOnUse">
<stop stop-color="#3C3C3C" stop-opacity="0.28"/>
<stop offset="1" stop-color="#3F3F3F"/>
</linearGradient>
<radialGradient id="paint10_radial_1_347" cx="0" cy="0" r="1" gradientUnits="userSpaceOnUse" gradientTransform="translate(91.7841 234.594) rotate(-107.813) scale(80.9997 47.7146)">
<stop offset="0.36924" stop-color="#3F3F3F"/>
<stop offset="1" stop-color="#808080"/>
</radialGradient>
<linearGradient id="paint11_linear_1_347" x1="84.9299" y1="196.333" x2="84.9299" y2="159.017" gradientUnits="userSpaceOnUse">
<stop stop-color="#3C3C3C" stop-opacity="0.28"/>
<stop offset="1" stop-color="#3F3F3F"/>
</linearGradient>
<radialGradient id="paint12_radial_1_347" cx="0" cy="0" r="1" gradientUnits="userSpaceOnUse" gradientTransform="translate(212.22 115.453) rotate(-140.75) scale(52.3665 51.8951)">
<stop offset="0.36924" stop-color="#3F3F3F"/>
<stop offset="1" stop-color="#808080"/>
</radialGradient>
<linearGradient id="paint13_linear_1_347" x1="176.667" y1="84.5915" x2="177.408" y2="92.8583" gradientUnits="userSpaceOnUse">
<stop stop-color="#3C3C3C"/>
<stop offset="1" stop-color="#0E0E0E"/>
</linearGradient>
<radialGradient id="paint14_radial_1_347" cx="0" cy="0" r="1" gradientUnits="userSpaceOnUse" gradientTransform="translate(212.22 102.72) rotate(-140.75) scale(52.3666 51.8953)">
<stop offset="0.36924" stop-color="#3F3F3F"/>
<stop offset="1" stop-color="#808080"/>
</radialGradient>
<linearGradient id="paint15_linear_1_347" x1="176.667" y1="71.8577" x2="177.408" y2="80.1246" gradientUnits="userSpaceOnUse">
<stop stop-color="#3C3C3C"/>
<stop offset="1" stop-color="#0E0E0E"/>
</linearGradient>
<radialGradient id="paint16_radial_1_347" cx="0" cy="0" r="1" gradientUnits="userSpaceOnUse" gradientTransform="translate(212.22 89.5751) rotate(-140.75) scale(52.3665 51.895)">
<stop offset="0.36924" stop-color="#3F3F3F"/>
<stop offset="1" stop-color="#808080"/>
</radialGradient>
<linearGradient id="paint17_linear_1_347" x1="176.667" y1="58.7133" x2="177.408" y2="66.9801" gradientUnits="userSpaceOnUse">
<stop stop-color="#3C3C3C"/>
<stop offset="1" stop-color="#0E0E0E"/>
</linearGradient>
<radialGradient id="paint18_radial_1_347" cx="0" cy="0" r="1" gradientUnits="userSpaceOnUse" gradientTransform="translate(103.059 118.36) rotate(-130.452) scale(72.527 72.4244)">
<stop offset="0.36924" stop-color="#7D7D7D"/>
<stop offset="1" stop-color="#D6D6D6"/>
</radialGradient>
<radialGradient id="paint19_radial_1_347" cx="0" cy="0" r="1" gradientUnits="userSpaceOnUse" gradientTransform="translate(58.0836 61.959) rotate(41.8793) scale(91.7791 112.338)">
<stop stop-color="white"/>
<stop offset="1" stop-color="#DFB9D4"/>
</radialGradient>
<radialGradient id="paint20_radial_1_347" cx="0" cy="0" r="1" gradientUnits="userSpaceOnUse" gradientTransform="translate(103.059 118.36) rotate(-130.452) scale(72.527 72.4244)">
<stop offset="0.36924" stop-color="#3F3F3F"/>
<stop offset="1" stop-color="#808080"/>
</radialGradient>
<radialGradient id="paint21_radial_1_347" cx="0" cy="0" r="1" gradientUnits="userSpaceOnUse" gradientTransform="translate(59.2669 64.9277) rotate(72.492) scale(48.8258 34.4967)">
<stop stop-color="white"/>
<stop offset="1" stop-color="#BBBBBB"/>
</radialGradient>
<radialGradient id="paint22_radial_1_347" cx="0" cy="0" r="1" gradientUnits="userSpaceOnUse" gradientTransform="translate(71.4304 74.1443) rotate(51.9826) scale(18.6646 22.3024)">
<stop stop-color="white"/>
<stop offset="1" stop-color="#BBBBBB"/>
</radialGradient>
<radialGradient id="paint23_radial_1_347" cx="0" cy="0" r="1" gradientUnits="userSpaceOnUse" gradientTransform="translate(81.5213 74.1443) rotate(51.9826) scale(18.6646 22.3024)">
<stop stop-color="white"/>
<stop offset="1" stop-color="#BBBBBB"/>
</radialGradient>
<radialGradient id="paint24_radial_1_347" cx="0" cy="0" r="1" gradientUnits="userSpaceOnUse" gradientTransform="translate(91.5968 74.1443) rotate(51.9826) scale(18.6646 22.3024)">
<stop stop-color="white"/>
<stop offset="1" stop-color="#BBBBBB"/>
</radialGradient>
<radialGradient id="paint25_radial_1_347" cx="0" cy="0" r="1" gradientUnits="userSpaceOnUse" gradientTransform="translate(71.7457 64.9479) rotate(14.3501) scale(23.0723 13.6427)">
<stop stop-color="white"/>
<stop offset="1" stop-color="#BBBBBB"/>
</radialGradient>
<radialGradient id="paint26_radial_1_347" cx="0" cy="0" r="1" gradientUnits="userSpaceOnUse" gradientTransform="translate(72.265 69.3308) rotate(4.64311) scale(40.3668 8.02049)">
<stop stop-color="white"/>
<stop offset="1" stop-color="#BBBBBB"/>
</radialGradient>
<radialGradient id="paint27_radial_1_347" cx="0" cy="0" r="1" gradientUnits="userSpaceOnUse" gradientTransform="translate(71.3562 83.3505) rotate(20.0758) scale(9.51936 7.55796)">
<stop stop-color="white"/>
<stop offset="1" stop-color="#BBBBBB"/>
</radialGradient>
<radialGradient id="paint28_radial_1_347" cx="0" cy="0" r="1" gradientUnits="userSpaceOnUse" gradientTransform="translate(81.4471 83.3505) rotate(20.0758) scale(9.51936 7.55796)">
<stop stop-color="white"/>
<stop offset="1" stop-color="#BBBBBB"/>
</radialGradient>
<radialGradient id="paint29_radial_1_347" cx="0" cy="0" r="1" gradientUnits="userSpaceOnUse" gradientTransform="translate(91.5226 83.3505) rotate(20.0758) scale(9.51936 7.55796)">
<stop stop-color="white"/>
<stop offset="1" stop-color="#BBBBBB"/>
</radialGradient>
<radialGradient id="paint30_radial_1_347" cx="0" cy="0" r="1" gradientUnits="userSpaceOnUse" gradientTransform="translate(56.1964 91.3406) rotate(4.99853) scale(75.0061 16.0326)">
<stop stop-color="#F8EFF5"/>
<stop offset="1" stop-color="#C2A3B9"/>
</radialGradient>
<radialGradient id="paint31_radial_1_347" cx="0" cy="0" r="1" gradientUnits="userSpaceOnUse" gradientTransform="translate(105.375 97.3567) rotate(-173.473) scale(51.7898 11.8296)">
<stop offset="0.36924" stop-color="#3F3F3F"/>
<stop offset="1" stop-color="#808080"/>
</radialGradient>
<radialGradient id="paint32_radial_1_347" cx="0" cy="0" r="1" gradientUnits="userSpaceOnUse" gradientTransform="translate(219.144 124.987) rotate(173.239) scale(28.2964 29.4067)">
<stop offset="0.364583" stop-color="#868686" stop-opacity="0"/>
<stop offset="1" stop-color="#EDEDED"/>
</radialGradient>
<radialGradient id="paint33_radial_1_347" cx="0" cy="0" r="1" gradientUnits="userSpaceOnUse" gradientTransform="translate(65.1688 147.929) rotate(166.126) scale(12.1565 25.1551)">
<stop stop-color="#EDEDED"/>
<stop offset="0.859375" stop-color="#868686" stop-opacity="0"/>
</radialGradient>
<radialGradient id="paint34_radial_1_347" cx="0" cy="0" r="1" gradientUnits="userSpaceOnUse" gradientTransform="translate(149.589 208.051) rotate(174.186) scale(32.1993 28.8465)">
<stop offset="0.364583" stop-color="#868686" stop-opacity="0"/>
<stop offset="1" stop-color="#EDEDED"/>
</radialGradient>
<radialGradient id="paint35_radial_1_347" cx="0" cy="0" r="1" gradientUnits="userSpaceOnUse" gradientTransform="translate(128.767 55.5526) rotate(173.821) scale(20.6326 19.627)">
<stop stop-color="#EDEDED"/>
<stop offset="0.8125" stop-color="#868686" stop-opacity="0"/>
</radialGradient>
</defs>
</svg>