<svg width="320" height="80" viewBox="0 0 320 80" fill="none" xmlns="http://www.w3.org/2000/svg">
  <g transform="translate(30,15) scale(2.5)">
    <path fill-rule="evenodd" clip-rule="evenodd" d="M2.72012 0.42982L0.853832 2.29606L4.84843 6.29062C9.33601 10.7924 9.33162 18.0797 4.83524 22.5761L0.853872 26.5574L2.72014 28.4237L6.70151 24.4423C11.1979 19.946 18.4852 19.9416 22.987 24.4291L26.9816 28.4237L28.8479 26.5574L24.8533 22.5629C20.3657 18.0611 20.3701 10.7738 24.8665 6.27741L28.8478 2.29606L26.9816 0.429799L23.0002 4.41115C18.5038 8.9075 11.2165 8.9119 6.71469 4.42436L2.72012 0.42982ZM18.8946 0.18101L19.0812 -0.005615L20.9475 1.86064L20.7608 2.04727C17.4969 5.31117 12.2051 5.31117 8.94115 2.04727L8.75452 1.86064L10.6208 -0.00561523L10.8074 0.181011C13.0406 2.41421 16.6614 2.41421 18.8946 0.18101ZM29.0966 10.3832L29.2833 10.1966L27.417 8.33036L27.2304 8.51698C23.9665 11.7809 23.9665 17.0727 27.2304 20.3366L27.417 20.5233L29.2833 18.657L29.0966 18.4704C26.8634 16.2372 26.8634 12.6164 29.0966 10.3832ZM10.6205 28.8592L10.8071 28.6726C13.0404 26.4394 16.6611 26.4394 18.8943 28.6726L19.0809 28.8592L20.9472 26.9929L20.7606 26.8063C17.4967 23.5424 12.2048 23.5424 8.94088 26.8063L8.75425 26.9929L10.6205 28.8592ZM0.605084 18.4703L0.418457 18.657L2.28473 20.5232L2.47135 20.3366C5.73527 17.0727 5.73527 11.7809 2.47135 8.51695L2.28473 8.33033L0.418457 10.1966L0.605084 10.3832C2.83829 12.6164 2.83829 16.2371 0.605084 18.4703ZM18.1939 17.7699V11.0837H11.5076V17.7699H18.1939Z" fill="#ECEAF4"/>
    <path d="M93.8699 21.0849L98.7747 14.3919L94.1509 8.00537H97.3697L100.486 12.4248L103.68 8.00537H106.72L102.07 14.3919L107.001 21.0849H103.782L100.359 16.3334L96.9098 21.0849H93.8699Z" fill="#ECEAF4"/>
    <path d="M87.6887 21.2384C83.5758 21.2384 80.9956 18.5816 80.9956 14.5709C80.9956 10.5346 83.5758 7.85229 87.4332 7.85229C91.214 7.85229 93.7431 10.2536 93.8197 14.0855C93.8197 14.4176 93.7942 14.7753 93.7431 15.1329H83.8823V15.3117C83.9589 17.5342 85.364 18.9904 87.5354 18.9904C89.2214 18.9904 90.4476 18.1473 90.8308 16.6912H93.5898C93.13 19.2714 90.933 21.2384 87.6887 21.2384ZM83.9845 13.1148H90.9585C90.7286 11.1733 89.3747 10.0748 87.4587 10.0748C85.6961 10.0748 84.1889 11.2499 83.9845 13.1148Z" fill="#ECEAF4"/>
    <path d="M73.8703 17.5343V10.4325L73.8701 8.00562L73.8703 4.35254H76.6548V8.00562H79.848V10.4325H76.6548V18.6583H80.0013V21.0852H77.4467C74.9432 21.0852 73.8703 19.9101 73.8703 17.5343Z" fill="#ECEAF4"/>
    <path d="M65.1194 11.2126C65.1194 9.44128 66.5553 8.00537 68.3266 8.00537L71.8923 8.00537V10.5855H67.8784V21.0849H65.1194V11.2126Z" fill="#ECEAF4"/>
    <path d="M56.4659 21.2384C52.4807 21.2384 49.7983 18.5561 49.7983 14.5453C49.7983 10.5602 52.4807 7.85229 56.4659 7.85229C60.451 7.85229 63.1334 10.5602 63.1334 14.5453C63.1334 18.5561 60.451 21.2384 56.4659 21.2384ZM56.4659 18.8882C58.7905 18.8882 60.3233 17.0744 60.3233 14.5453C60.3233 12.0163 58.7905 10.2025 56.4659 10.2025C54.1412 10.2025 52.6339 12.0163 52.6339 14.5453C52.6339 17.0744 54.1412 18.8882 56.4659 18.8882Z" fill="#ECEAF4"/>
    <path d="M42.5505 21.2384C38.5908 21.2384 36.0618 18.6583 36.0618 14.5709C36.0618 10.5346 38.6675 7.85229 42.6271 7.85229C45.9992 7.85229 48.0939 9.71715 48.6304 12.6805H45.7437C45.3861 11.1477 44.2876 10.2025 42.576 10.2025C40.3535 10.2025 38.8974 11.9907 38.8974 14.5709C38.8974 17.1255 40.3535 18.8882 42.576 18.8882C44.262 18.8882 45.3861 17.9174 45.7182 16.4102H48.6304C48.1195 19.3735 45.897 21.2384 42.5505 21.2384Z" fill="#ECEAF4"/>
  </g>
</svg>
