<svg width="160" height="60" viewBox="0 0 160 60" fill="none" xmlns="http://www.w3.org/2000/svg">
<path d="M113.082 24.2997C112.958 21.6987 111.397 20.1839 109.086 19.3178C108.079 18.9398 107.031 18.6732 106.021 18.3023C104.948 17.9087 103.872 17.5068 102.846 17.0074C102.087 16.6365 101.691 15.9369 101.673 15.0624C101.642 13.6745 102.364 12.6772 103.89 12.4417C105.148 12.2456 106.466 12.2132 107.728 12.3542C108.8 12.4741 109.837 12.9382 110.882 13.2668C111.318 13.405 111.715 13.5249 111.892 12.9283C112.311 11.5093 111.827 10.4797 110.47 9.92395C110.21 9.81817 109.944 9.72508 109.673 9.64891C106.901 8.88019 104.124 8.6122 101.427 9.87459C99.1845 10.9254 97.7388 12.6279 97.7741 15.2274C97.8093 17.7564 99.1422 19.4927 101.398 20.5309C102.159 20.8821 102.979 21.1077 103.774 21.3828C105.056 21.8285 106.367 22.2009 107.612 22.7284C108.896 23.2714 109.389 24.263 109.15 25.5607C108.89 26.9571 107.848 27.5593 106.598 27.8541C104.948 28.2434 103.281 28.156 101.647 27.7723C100.605 27.5283 99.6063 27.1052 98.5809 26.7821C98.1789 26.6538 97.7402 26.5029 97.5568 27.1164C97.1266 28.5636 97.6274 29.661 99.0421 30.2125C100.826 30.9078 102.683 31.2675 104.666 31.2576C106.293 31.3 107.928 31.0193 109.444 30.2647C111.894 29.0446 113.216 27.0854 113.082 24.2997ZM65.8109 28.1814C65.2862 27.1489 64.8828 26.0896 64.8772 24.9062C64.8645 22.5196 64.8433 20.1317 64.8024 17.7437C64.7855 16.762 64.7742 15.7733 64.6458 14.8028C64.2594 11.9071 62.6627 10.1228 59.8375 9.43733C56.8515 8.71375 53.9261 9.03958 51.0727 10.1101C49.1572 10.8281 49.0966 10.9423 49.1685 12.9678C49.1699 13.0143 49.1713 13.0609 49.1728 13.1074C49.1869 13.6533 49.4238 13.9001 49.9824 13.7041C50.3576 13.5729 50.7313 13.4347 51.1037 13.2978C53.1715 12.5348 55.2774 12.0482 57.5045 12.3895C58.9954 12.6166 60.2719 13.2033 60.6147 14.7986C60.8953 16.1075 60.9433 17.4644 61.0886 18.748C60.8516 18.8383 60.8065 18.8735 60.7656 18.8679C60.6034 18.8453 60.444 18.8129 60.2832 18.7804C58.2789 18.3756 56.2703 18.109 54.2096 18.3037C50.115 18.693 47.5634 21.569 47.7848 25.6086C47.9301 28.2603 49.6833 30.3986 52.2815 30.9501C55.4678 31.6258 58.2747 30.8528 60.6076 28.5396C60.7966 28.352 60.8968 28.0756 61.0434 27.8316C61.6753 28.785 62.1168 29.5312 62.6401 30.2153C63.1366 30.8655 63.5442 30.9008 64.2185 30.4748C64.6346 30.2125 65.045 29.9402 65.447 29.6553C66.1113 29.1856 66.1819 28.9134 65.8109 28.1814ZM60.8192 24.366C60.4595 26.2617 58.6936 27.6764 56.3959 28.0093C56.2562 28.029 56.1152 28.0403 55.977 28.0572C53.0276 28.4282 51.3266 26.5579 51.9881 23.672C52.304 22.2996 53.4338 21.3532 55.0926 21.1218C57.0729 20.8454 59.0152 21.112 61.0787 21.5817C60.9927 22.5605 60.987 23.4788 60.8192 24.366ZM95.056 9.62775C94.5172 9.63621 93.977 9.62775 93.4368 9.62916C92.1349 9.63198 91.8909 9.81394 91.5707 11.0453C91.0488 13.0595 90.534 15.0765 90.0135 17.0921C89.2067 20.2149 88.3985 23.3377 87.5579 26.5903C87.4535 26.2984 87.3773 26.1347 87.3364 25.9627C86.9528 24.3476 86.5748 22.7298 86.1953 21.1134C85.3913 17.6972 84.5902 14.2824 83.782 10.8676C83.5436 9.85625 83.2657 9.64327 82.2234 9.62916C81.7071 9.62352 81.1909 9.62352 80.6747 9.62916C79.5886 9.64327 79.3206 9.84638 79.0667 10.9014C78.6732 12.539 78.2966 14.1808 77.9101 15.8198C77.0963 19.2783 76.281 22.7354 75.4671 26.194C75.4192 26.1897 75.3712 26.1855 75.3233 26.1813C75.2824 26.0543 75.233 25.9288 75.2006 25.8004C74.0298 21.1994 72.8577 16.5984 71.6941 11.9946C71.0325 9.38374 71.1256 9.63621 68.677 9.62916C66.9858 9.62493 66.9054 9.73918 67.4048 11.3895C68.3822 14.6124 69.3625 17.834 70.3414 21.057C71.1849 23.8314 72.0227 26.6087 72.8732 29.3803C73.2061 30.4635 73.4656 30.6427 74.5842 30.6497C75.0764 30.6525 75.5687 30.6525 76.0624 30.6497C77.2373 30.6413 77.4743 30.4579 77.7507 29.3083C78.4122 26.5565 79.0667 23.8032 79.7254 21.0499C80.2501 18.8538 80.779 16.6591 81.3517 14.2739C81.4674 14.6279 81.5351 14.7958 81.5774 14.9693C82.0457 16.9002 82.5111 18.834 82.9766 20.7664C83.6776 23.6777 84.3758 26.5889 85.081 29.4988C85.3124 30.448 85.5804 30.6525 86.5423 30.6624C87.012 30.6666 87.4817 30.6624 87.95 30.6624C89.407 30.6624 89.5565 30.5538 89.9867 29.1729C91.8528 23.1882 93.7189 17.2049 95.5822 11.2202C95.6583 10.9748 95.7232 10.7251 95.7683 10.4726C95.8657 9.9169 95.6456 9.61929 95.056 9.62775Z" fill="#1C2330"/>
<path d="M75.4677 26.1941C76.283 22.7356 77.0968 19.2785 77.9107 15.82C78.2972 14.181 78.6724 12.5392 79.0673 10.9016C79.3212 9.84653 79.5892 9.64342 80.6752 9.62931C81.1915 9.62226 81.7077 9.62226 82.224 9.62931C83.2663 9.64201 83.5442 9.85499 83.784 10.8677C84.5922 14.2825 85.3933 17.6973 86.1959 21.1135C86.5767 22.73 86.9533 24.3478 87.337 25.9628C87.3779 26.1349 87.4541 26.2985 87.5584 26.5905C88.3991 23.3379 89.2073 20.2151 90.0141 17.0922C90.5346 15.0766 91.0494 13.0596 91.5727 11.0454C91.8915 9.81409 92.1369 9.63213 93.4388 9.62931C93.979 9.6279 94.5178 9.63637 95.058 9.62931C95.6476 9.62085 95.8677 9.91846 95.7703 10.4742C95.7252 10.7267 95.6617 10.9777 95.5856 11.2218C93.7223 17.2065 91.8562 23.1898 89.9901 29.1745C89.5599 30.5568 89.4104 30.664 87.9534 30.6654C87.4837 30.6654 87.0154 30.6696 86.5457 30.664C85.5838 30.6541 85.3158 30.451 85.0844 29.5003C84.3778 26.5905 83.681 23.6792 82.98 20.768C82.5145 18.8356 82.0491 16.9018 81.5808 14.9694C81.5385 14.7959 81.4708 14.6295 81.3551 14.2741C80.7824 16.6592 80.2535 18.8553 79.7288 21.0515C79.0701 23.8033 78.4156 26.558 77.7555 29.3099C77.4791 30.4595 77.2407 30.6442 76.0658 30.6513C75.5735 30.6541 75.0798 30.6541 74.5876 30.6513C73.4691 30.6442 73.2095 30.4651 72.8781 29.3818C72.0275 26.6088 71.1883 23.833 70.3448 21.0585C69.3659 17.8356 68.3856 14.614 67.4082 11.391C66.9074 9.74074 66.9893 9.62649 68.6804 9.63072C71.129 9.63778 71.036 9.3853 71.6975 11.9961C72.8625 16.5986 74.0347 21.1996 75.2054 25.802C75.2378 25.9304 75.2858 26.0559 75.3281 26.1828C75.3718 26.1857 75.4198 26.1899 75.4677 26.1941Z" fill="#1C2330"/>
<path d="M65.8109 28.1815C65.2862 27.1491 64.8828 26.0898 64.8772 24.9064C64.8645 22.5198 64.8433 20.1319 64.8024 17.7439C64.7855 16.7622 64.7742 15.7735 64.6458 14.803C64.2594 11.9073 62.6627 10.123 59.8375 9.43752C56.8515 8.71394 53.9261 9.03977 51.0727 10.1103C49.1572 10.8283 49.0966 10.9425 49.1685 12.968C49.1699 13.0145 49.1713 13.0611 49.1728 13.1076C49.1869 13.6535 49.4238 13.9003 49.9824 13.7043C50.3576 13.5731 50.7313 13.4349 51.1037 13.298C53.1715 12.535 55.2774 12.0483 57.5045 12.3897C58.9954 12.6168 60.2719 13.2035 60.6147 14.7988C60.8953 16.1077 60.9433 17.4646 61.0886 18.7482C60.8516 18.8385 60.8065 18.8737 60.7656 18.8681C60.6034 18.8455 60.444 18.8131 60.2832 18.7806C58.2789 18.3758 56.2703 18.1092 54.2096 18.3039C50.115 18.6932 47.5634 21.5692 47.7848 25.6088C47.9301 28.2605 49.6833 30.3988 52.2815 30.9503C55.4678 31.626 58.2747 30.853 60.6076 28.5398C60.7966 28.3522 60.8968 28.0758 61.0434 27.8317C61.6753 28.7852 62.1168 29.5314 62.6401 30.2155C63.1366 30.8657 63.5442 30.901 64.2185 30.475C64.6346 30.2127 65.045 29.9404 65.447 29.6555C66.1113 29.1858 66.1819 28.9136 65.8109 28.1815ZM60.8192 24.3662C60.4595 26.2619 58.6936 27.6766 56.3959 28.0095C56.2562 28.0292 56.1152 28.0405 55.977 28.0574C53.0276 28.4284 51.3266 26.5581 51.9881 23.6722C52.304 22.2998 53.4338 21.3534 55.0926 21.122C57.0729 20.8456 59.0152 21.1122 61.0787 21.5819C60.9927 22.5607 60.987 23.479 60.8192 24.3662Z" fill="#1C2330"/>
<path d="M104.667 31.2576C102.684 31.2675 100.828 30.9078 99.0437 30.2125C97.629 29.661 97.1283 28.5636 97.5585 27.1164C97.7419 26.5029 98.1791 26.6538 98.5825 26.7807C99.6079 27.1037 100.607 27.5269 101.649 27.7723C103.281 28.156 104.949 28.2434 106.598 27.8541C107.848 27.5593 108.892 26.9571 109.15 25.5607C109.391 24.263 108.896 23.2714 107.614 22.7284C106.368 22.2009 105.057 21.8285 103.776 21.3828C102.98 21.1063 102.161 20.8807 101.399 20.5309C99.1439 19.4927 97.811 17.7564 97.7757 15.2274C97.739 12.6279 99.1862 10.9254 101.429 9.87459C104.124 8.6122 106.903 8.88019 109.675 9.64891C109.944 9.72366 110.211 9.81817 110.47 9.92395C111.827 10.4797 112.311 11.5093 111.892 12.9283C111.716 13.5249 111.318 13.4036 110.882 13.2668C109.835 12.9368 108.8 12.4741 107.728 12.3542C106.464 12.2132 105.147 12.2456 103.89 12.4403C102.363 12.6772 101.64 13.6745 101.671 15.061C101.691 15.9369 102.086 16.6365 102.845 17.006C103.87 17.5068 104.947 17.9087 106.02 18.3009C107.03 18.6704 108.078 18.9384 109.085 19.3164C111.395 20.1825 112.955 21.6973 113.081 24.2969C113.215 27.0826 111.893 29.0418 109.443 30.2618C107.93 31.0207 106.295 31.3 104.667 31.2576Z" fill="#1C2330"/>
<path d="M114.142 35.9642C112.029 35.5482 109.912 35.5862 107.799 36.0009C106.222 36.3112 104.718 36.8063 103.391 37.733C103.168 37.8882 103.051 38.1928 102.885 38.4298C103.15 38.5045 103.421 38.6597 103.68 38.6414C105.453 38.5172 107.223 38.3564 108.908 38.214C109.652 38.2732 110.311 38.2901 110.957 38.3847C112.599 38.6216 113.067 39.3043 112.769 40.956C112.72 41.2324 112.707 41.5188 112.621 41.7811C111.957 43.7981 111.273 45.8081 110.613 47.8265C110.542 48.0423 110.596 48.3004 110.592 48.5388C110.846 48.4838 111.154 48.5007 111.341 48.3596C111.73 48.0649 112.085 47.7108 112.399 47.337C114.574 44.7375 115.667 41.6923 115.978 38.3593C116.131 36.7146 115.764 36.283 114.142 35.9642Z" fill="#F98500"/>
<path d="M109.547 41.4905C109.446 41.2493 109.011 41.0392 108.71 41.0208C108.362 40.9982 107.987 41.1689 107.645 41.31C99.958 44.4793 91.9478 46.203 83.6513 46.581C79.7598 46.7587 75.8753 46.5302 72.0162 46.0196C66.5279 45.2932 61.1822 43.9673 55.9958 42.0152C52.5472 40.7161 49.2283 39.1463 46.025 37.3281C45.6823 37.1349 45.2408 36.8542 45.0109 37.3578C44.9136 37.5693 45.2211 37.9699 45.3565 38.2802C45.3804 38.3381 45.458 38.3733 45.5116 38.4199C55.4683 47.1607 67.1359 51.3837 80.1448 51.5783C84.5583 51.5022 88.7333 51.024 92.8378 50.0127C98.5447 48.6064 103.936 46.4653 108.761 43.0449C108.989 42.8827 109.283 42.7317 109.391 42.5032C109.535 42.1972 109.661 41.7656 109.547 41.4905Z" fill="#F98500"/>
</svg>
