<svg width="160" height="61" viewBox="0 0 160 61" fill="none" xmlns="http://www.w3.org/2000/svg">
<path d="M71.4477 6.45541H86.6366L70.8691 52.8996C70.707 53.3769 70.3985 53.7916 69.9869 54.0854C69.5753 54.3791 69.0815 54.5372 68.5748 54.5373H56.7541C56.3702 54.5374 55.9919 54.4465 55.6503 54.2724C55.3087 54.0982 55.0138 53.8456 54.7899 53.5356C54.5659 53.2256 54.4195 52.8671 54.3626 52.4897C54.3057 52.1122 54.3401 51.7268 54.4628 51.3652L69.1529 8.09311C69.3149 7.61567 69.6234 7.20077 70.0351 6.90687C70.4468 6.61296 70.9409 6.45544 71.4477 6.45541Z" fill="url(#paint0_linear_9689_12929)"/>
<path d="M93.5182 37.6074H69.4324C69.2085 37.6072 68.9897 37.674 68.8045 37.7991C68.6193 37.9243 68.4763 38.102 68.3941 38.3091C68.312 38.5162 68.2945 38.743 68.3439 38.9602C68.3933 39.1773 68.5073 39.3746 68.6711 39.5264L84.1481 53.8876C84.5988 54.3055 85.1921 54.5378 85.8083 54.5377H99.4466L93.5182 37.6074Z" fill="#0078D4"/>
<path d="M71.4485 6.45583C70.9362 6.45387 70.4366 6.61484 70.0228 6.91522C69.609 7.2156 69.3026 7.63965 69.1485 8.12542L54.4817 51.3261C54.3507 51.6891 54.3096 52.078 54.3618 52.4601C54.414 52.8422 54.558 53.2061 54.7817 53.5211C55.0053 53.8362 55.3019 54.093 55.6465 54.27C55.9911 54.4469 56.3735 54.5388 56.7614 54.5377H68.8871C69.3387 54.4575 69.7608 54.2596 70.1103 53.9641C70.4598 53.6686 70.7241 53.2862 70.8763 52.856L73.8011 44.2865L84.2486 53.9741C84.6864 54.3341 85.2356 54.5331 85.8038 54.5377H99.3914L93.432 37.6075L76.0598 37.6116L86.6922 6.45583H71.4485Z" fill="url(#paint1_linear_9689_12929)"/>
<path d="M90.848 8.09119C90.6862 7.61451 90.3781 7.20031 89.967 6.90692C89.556 6.61353 89.0627 6.45575 88.5567 6.45581H71.6289C72.1349 6.45584 72.6282 6.61365 73.0392 6.90703C73.4503 7.2004 73.7584 7.61456 73.9202 8.09119L88.6109 51.365C88.7337 51.7267 88.7681 52.1122 88.7113 52.4897C88.6545 52.8673 88.5081 53.2259 88.2841 53.536C88.0602 53.8461 87.7653 54.0988 87.4236 54.2731C87.082 54.4474 86.7036 54.5383 86.3196 54.5383H103.248C103.632 54.5382 104.01 54.4472 104.352 54.2729C104.693 54.0986 104.988 53.8459 105.212 53.5358C105.436 53.2257 105.582 52.8671 105.639 52.4896C105.696 52.1121 105.661 51.7266 105.539 51.365L90.848 8.09119Z" fill="url(#paint2_linear_9689_12929)"/>
<defs>
<linearGradient id="paint0_linear_9689_12929" x1="76.9836" y1="10.0185" x2="61.3749" y2="56.4017" gradientUnits="userSpaceOnUse">
<stop stop-color="#114A8B"/>
<stop offset="1" stop-color="#0669BC"/>
</linearGradient>
<linearGradient id="paint1_linear_9689_12929" x1="81.9118" y1="31.6088" x2="78.2674" y2="32.8483" gradientUnits="userSpaceOnUse">
<stop stop-opacity="0.3"/>
<stop offset="0.071" stop-opacity="0.2"/>
<stop offset="0.321" stop-opacity="0.1"/>
<stop offset="0.623" stop-opacity="0.05"/>
<stop offset="1" stop-opacity="0"/>
</linearGradient>
<linearGradient id="paint2_linear_9689_12929" x1="79.9047" y1="8.66763" x2="97.0425" y2="54.5946" gradientUnits="userSpaceOnUse">
<stop stop-color="#3CCBF4"/>
<stop offset="1" stop-color="#2892DF"/>
</linearGradient>
</defs>
</svg>
