<svg width="160" height="61" viewBox="0 0 160 61" fill="none" xmlns="http://www.w3.org/2000/svg">
<path d="M87.2115 20.0667H88.9463L93.8905 15.1515L94.1333 13.0647C91.301 10.5794 87.8782 8.85298 84.1881 8.04848C80.498 7.24397 76.6626 7.38795 73.044 8.46681C69.4255 9.54568 66.1433 11.5238 63.5076 14.2144C60.8719 16.9049 58.9696 20.219 57.9805 23.8437C58.5313 23.6192 59.1414 23.5828 59.7153 23.7402L69.6035 22.119C69.6035 22.119 70.1066 21.2912 70.3668 21.343C72.4856 19.0296 75.4136 17.6089 78.5515 17.3717C81.6895 17.1344 84.8 18.0986 87.2462 20.0667H87.2115Z" fill="#EA4335"/>
<path d="M100.935 23.8438C99.7984 19.6833 97.4651 15.9431 94.2212 13.082L87.2821 19.9806C88.7283 21.1553 89.8873 22.6412 90.6716 24.3262C91.4559 26.0112 91.8452 27.8512 91.8099 29.7075V30.932C92.6209 30.932 93.424 31.0908 94.1733 31.3994C94.9226 31.7079 95.6034 32.1602 96.1769 32.7303C96.7503 33.3004 97.2053 33.9773 97.5156 34.7222C97.826 35.4671 97.9857 36.2655 97.9857 37.0717C97.9857 37.878 97.826 38.6764 97.5156 39.4213C97.2053 40.1662 96.7503 40.843 96.1769 41.4132C95.6034 41.9833 94.9226 42.4355 94.1733 42.7441C93.424 43.0526 92.6209 43.2114 91.8099 43.2114H79.4583L78.2266 44.4532V51.8174L79.4583 53.0419H91.8099C95.2591 53.0686 98.6253 51.9909 101.411 49.9682C104.196 47.9455 106.252 45.0852 107.276 41.8106C108.299 38.5359 108.235 35.0207 107.093 31.785C105.951 28.5493 103.792 25.7649 100.935 23.8438Z" fill="#4285F4"/>
<path d="M67.0881 52.9724H79.4397V43.142H67.0881C66.2081 43.1418 65.3384 42.9536 64.5379 42.5901L62.8031 43.1247L57.8243 48.0399L57.3906 49.7646C60.1826 51.8605 63.5895 52.9875 67.0881 52.9724Z" fill="#34A853"/>
<path d="M67.0892 21.0831C63.7425 21.103 60.4856 22.1615 57.7734 24.1109C55.0612 26.0602 53.0292 28.8031 51.9611 31.9563C50.893 35.1095 50.8423 38.5156 51.8159 41.6989C52.7895 44.8822 54.7389 47.6837 57.3918 49.7121L64.5564 42.5893C63.646 42.1804 62.8489 41.5579 62.2336 40.7754C61.6183 39.9929 61.2031 39.0736 61.0237 38.0965C60.8443 37.1194 60.9061 36.1136 61.2037 35.1655C61.5012 34.2173 62.0258 33.3551 62.7322 32.6527C63.4387 31.9504 64.306 31.429 65.2597 31.1331C66.2135 30.8373 67.2252 30.7759 68.208 30.9542C69.1909 31.1326 70.1155 31.5453 70.9027 32.157C71.6898 32.7687 72.3159 33.5611 72.7273 34.4663L79.8919 27.3435C78.3881 25.3891 76.4499 23.807 74.2289 22.7209C72.0079 21.6349 69.5643 21.0743 67.0892 21.0831Z" fill="#FBBC05"/>
</svg>
