<svg width="160" height="61" viewBox="0 0 160 61" fill="none" xmlns="http://www.w3.org/2000/svg">
<path d="M118.853 4.90644C118.638 4.72862 118.365 4.63697 118.086 4.64915C117.322 4.64915 116.333 5.16915 115.801 5.44812L115.59 5.55645C114.698 5.98972 113.726 6.23491 112.735 6.27688C111.72 6.30938 110.845 6.36897 109.705 6.48814C102.952 7.18419 99.9406 12.3735 97.0397 17.3921C95.4597 20.1221 93.8282 22.9578 91.5918 25.1245C91.1291 25.5744 90.6374 25.9933 90.1198 26.3785C87.805 28.1037 84.8987 29.336 82.638 30.2081C80.461 31.0423 78.0841 31.7926 75.7883 32.5184C73.6842 33.182 71.6989 33.8103 69.8731 34.4901C69.0493 34.7961 68.3497 35.0318 67.7312 35.2376C66.0674 35.7793 64.8681 36.1937 63.1152 37.4043C62.4318 37.8729 61.7458 38.3793 61.2812 38.7585C59.8897 39.8718 58.6581 41.1724 57.6213 42.6234C56.7297 43.9618 55.6994 45.202 54.5476 46.323C54.1776 46.6859 53.5212 46.8647 52.538 46.8647C51.3874 46.8647 49.991 46.6264 48.5136 46.3745C46.9902 46.1036 45.4155 45.8463 44.065 45.8463C42.9684 45.8463 42.1284 46.0251 41.5018 46.388C41.5018 46.388 40.4457 47.0055 40 47.8045L40.4376 48.0022C41.1161 48.3711 41.7443 48.8263 42.3067 49.3564C42.8934 49.8998 43.5469 50.3658 44.2514 50.7431C44.4763 50.8258 44.6808 50.956 44.851 51.125C44.6673 51.3958 44.3972 51.7452 44.1136 52.119C42.5551 54.1638 41.6449 55.4557 42.1662 56.1599C42.4161 56.29 42.6951 56.3534 42.9765 56.344C46.3744 56.344 48.2002 55.4584 50.5096 54.3371C51.1794 54.0121 51.8601 53.679 52.6704 53.335C54.0209 52.7473 55.474 51.8102 57.0163 50.8189C59.034 49.5 61.1434 48.1458 63.1908 47.493C64.8734 46.9786 66.626 46.7318 68.3848 46.7618C70.5456 46.7618 72.8199 47.0516 75.0131 47.3332C76.6472 47.5445 78.3407 47.7612 80.0018 47.8614C80.6474 47.8993 81.2443 47.9183 81.825 47.9183C82.6018 47.9205 83.3782 47.8799 84.1506 47.7964L84.3369 47.7314C85.5011 47.0137 86.0467 45.4726 86.5761 43.983C86.9164 43.0242 87.2027 42.1629 87.6565 41.6159C87.6832 41.5891 87.7121 41.5647 87.7429 41.5427C87.7642 41.5309 87.7888 41.5265 87.8128 41.5305C87.8368 41.5344 87.8588 41.5464 87.8752 41.5644C87.8752 41.5644 87.8752 41.5779 87.8752 41.6077C87.6051 47.4335 85.2661 51.1331 82.9 54.4211L81.3199 56.1192C81.3199 56.1192 83.532 56.1192 84.7907 55.6317C89.3824 54.2559 92.8478 51.2225 95.3705 46.3853C95.9926 45.1436 96.5489 43.8698 97.037 42.5692C97.0803 42.4609 97.4773 42.2604 97.4395 42.8211C97.426 42.9863 97.4152 43.1705 97.4017 43.3628C97.4017 43.4765 97.4017 43.593 97.3801 43.7094C97.3152 44.5219 97.1235 46.2391 97.1235 46.2391L98.5415 45.478C101.961 43.3113 104.597 38.94 106.596 32.1392C107.428 29.3063 108.038 26.4922 108.576 24.0141C109.219 21.0349 109.772 18.4809 110.407 17.4896C111.404 15.935 112.924 14.8841 114.396 13.8631C114.596 13.7249 114.799 13.5922 114.996 13.446C116.846 12.1432 118.686 10.6401 119.091 7.83691V7.77462C119.385 5.68375 119.137 5.1502 118.853 4.90644Z" fill="#003545"/>
</svg>
