<svg width="160" height="61" viewBox="0 0 160 61" fill="none" xmlns="http://www.w3.org/2000/svg">
<path d="M58.0306 53.9065H54.8158C54.7021 48.5119 54.389 43.4402 53.8772 38.6879H53.8486L48.954 53.9065H46.5064L41.641 38.6879H41.613C41.2521 43.2506 41.0247 48.3235 40.9303 53.9065H38C38.1889 47.1173 38.6635 40.7525 39.422 34.8113H43.4065L48.0439 48.8423H48.0725L52.7385 34.8113H56.5509C57.3858 41.7703 57.8791 48.1357 58.0306 53.9065ZM71.9727 39.8181C70.6638 46.8796 68.9368 52.0105 66.7936 55.2133C65.1237 57.6787 63.2942 58.9127 61.302 58.9127C60.7708 58.9127 60.1155 58.7533 59.3389 58.4371V56.7344C59.7185 56.7888 60.1639 56.8196 60.6758 56.8196C61.6064 56.8196 62.3543 56.5652 62.9246 56.0551C63.6067 55.4338 63.9478 54.7353 63.9478 53.9627C63.9478 53.4328 63.6819 52.3495 63.1514 50.7092L59.6235 39.8174H62.7817L65.3138 47.9634C65.8829 49.8131 66.1202 51.1045 66.0251 51.84C67.4098 48.1635 68.3771 44.1548 68.9281 39.8168H71.9727V39.8181Z" fill="#5D87A1"/>
<path d="M114.764 53.9061H105.632V34.8109H108.704V51.5556H114.764V53.9061ZM103.242 54.3675L99.7107 52.6352C100.024 52.3795 100.323 52.1028 100.593 51.7823C102.094 50.0295 102.842 47.4375 102.842 44.0044C102.842 37.6871 100.349 34.5269 95.3597 34.5269C92.9133 34.5269 91.0049 35.3285 89.6401 36.9324C88.1405 38.6863 87.3919 41.2691 87.3919 44.6837C87.3919 48.0403 88.0554 50.5026 89.3829 52.0645C90.5974 53.4794 92.4282 54.1878 94.8764 54.1878C95.7896 54.1878 96.6276 54.0766 97.3911 53.8524L101.988 56.513L103.242 54.3675ZM91.8032 50.0851C91.0254 48.8413 90.6366 46.844 90.6366 44.0902C90.6366 39.2823 92.1057 36.8755 95.0472 36.8755C96.5847 36.8755 97.7116 37.4511 98.4323 38.5998C99.2088 39.8455 99.5995 41.8249 99.5995 44.5404C99.5995 49.3879 98.1291 51.8119 95.1895 51.8119C93.6513 51.8125 92.5244 51.2388 91.8032 50.0851ZM86.0532 48.6134C86.0532 50.2327 85.4556 51.5612 84.2616 52.6018C83.0664 53.6381 81.4636 54.1575 79.4552 54.1575C77.5766 54.1575 75.7552 53.5609 73.9922 52.3739L74.8178 50.7342C76.3348 51.4895 77.7083 51.865 78.9415 51.865C80.0988 51.865 81.0033 51.61 81.6593 51.1042C82.3147 50.5965 82.7054 49.8844 82.7054 48.984C82.7054 47.8495 81.9096 46.8798 80.4498 46.0677C79.1036 45.3328 76.4112 43.7962 76.4112 43.7962C74.952 42.7389 74.2214 41.6038 74.2214 39.7337C74.2214 38.1861 74.7662 36.9367 75.8565 35.9862C76.948 35.032 78.3563 34.5565 80.0826 34.5565C81.8655 34.5565 83.4863 35.0314 84.9462 35.9714L84.2057 37.6117C82.957 37.0843 81.7245 36.8206 80.5088 36.8206C79.5242 36.8206 78.7638 37.0559 78.2351 37.5283C77.7021 37.9989 77.3735 38.6011 77.3735 39.3397C77.3735 40.4687 78.1861 41.4506 79.6857 42.2788C81.0499 43.015 83.8093 44.5781 83.8093 44.5781C85.3059 45.6336 86.0532 46.7582 86.0532 48.6134Z" fill="#F8981D"/>
<path d="M118.624 28.4156C116.766 28.3686 115.328 28.5545 114.121 29.0622C113.772 29.2005 113.218 29.2005 113.17 29.6384C113.358 29.8237 113.38 30.1226 113.543 30.3783C113.822 30.8396 114.307 31.4603 114.75 31.7839C115.236 32.1544 115.724 32.5213 116.236 32.8443C117.139 33.3995 118.162 33.7225 119.042 34.2759C119.554 34.5976 120.064 35.0139 120.577 35.3603C120.829 35.545 120.99 35.8445 121.318 35.96V35.8896C121.154 35.6821 121.107 35.382 120.946 35.151L120.249 34.4827C119.576 33.5835 118.739 32.7986 117.837 32.1538C117.094 31.6449 115.468 30.9532 115.167 30.1022L115.12 30.0553C115.631 30.0077 116.236 29.8237 116.721 29.6822C117.511 29.4753 118.231 29.5223 119.041 29.3154C119.414 29.2227 119.783 29.1066 120.157 28.9924V28.7843C119.737 28.3686 119.438 27.8165 118.996 27.4237C117.815 26.409 116.513 25.4166 115.167 24.5859C114.446 24.1233 113.52 23.8256 112.752 23.4322C112.476 23.2933 112.01 23.2247 111.847 22.9938C111.431 22.4861 111.197 21.8179 110.895 21.217C110.224 19.949 109.572 18.5422 108.993 17.2014C108.575 16.3022 108.32 15.4042 107.809 14.5723C105.418 10.6506 102.82 8.2754 98.8284 5.944C97.9705 5.45858 96.9498 5.25169 95.8596 4.99724L94.1183 4.90584C93.7468 4.74403 93.3747 4.30492 93.0504 4.09741C91.726 3.26738 88.3161 1.46834 87.342 3.84359C86.7146 5.34494 88.2701 6.82098 88.8044 7.58246C89.1988 8.11112 89.7101 8.71265 89.9859 9.31295C90.1493 9.70511 90.1953 10.1214 90.3587 10.5358C90.7301 11.5511 91.0774 12.6807 91.5657 13.628C91.8204 14.111 92.0981 14.6186 92.4236 15.0559C92.61 15.3116 92.9342 15.4246 93.0051 15.8415C92.6814 16.301 92.6559 16.9945 92.4702 17.5713C91.6353 20.1782 91.9614 23.4075 93.1448 25.3233C93.5151 25.9001 94.3985 27.1699 95.58 26.6832C96.6262 26.2682 96.3944 24.9534 96.6951 23.8003C96.7641 23.5218 96.7187 23.339 96.8579 23.1562V23.2013C97.1815 23.8466 97.5083 24.4686 97.8083 25.1158C98.5283 26.2454 99.782 27.4225 100.826 28.205C101.382 28.6225 101.823 29.3364 102.519 29.5914V29.5223H102.473C102.332 29.3154 102.126 29.2228 101.941 29.0622C101.522 28.6465 101.059 28.1389 100.734 27.6782C99.7608 26.3855 98.8998 24.9546 98.1357 23.4779C97.7617 22.7615 97.4393 21.9784 97.138 21.2633C96.9976 20.9872 96.9976 20.571 96.7647 20.432C96.4156 20.939 95.9068 21.3781 95.6521 21.9994C95.2104 22.9931 95.1644 24.2153 95.0004 25.4863L94.9091 25.5308C94.1698 25.3462 93.9127 24.5859 93.6319 23.9405C92.9367 22.3014 92.8199 19.6705 93.4231 17.7795C93.5847 17.2959 94.2835 15.7729 94.0046 15.3122C93.8648 14.8706 93.4002 14.6193 93.1455 14.2716C92.846 13.8343 92.518 13.2809 92.3093 12.7955C91.7527 11.5041 91.4725 10.0732 90.873 8.78244C90.5929 8.18091 90.1064 7.55838 89.7126 7.0044C89.2703 6.38187 88.7839 5.94339 88.4341 5.20537C88.3186 4.95154 88.1564 4.53652 88.3422 4.26046C88.3875 4.07518 88.4819 4.00601 88.6671 3.95969C88.9677 3.7071 89.8269 4.02824 90.1282 4.1672C90.9886 4.51305 91.7079 4.83605 92.4261 5.32024C92.751 5.55183 93.0995 5.99032 93.5163 6.10581H94.0046C94.7457 6.26638 95.5813 6.15028 96.2789 6.35902C97.5083 6.75181 98.6221 7.32802 99.6211 7.94993C102.661 9.8663 105.167 12.5893 106.86 15.8415C107.137 16.3714 107.255 16.8568 107.509 17.4095C107.998 18.5409 108.602 19.6946 109.087 20.8019C109.575 21.8858 110.04 22.9925 110.736 23.893C111.083 24.3772 112.478 24.631 113.104 24.8848C113.567 25.0917 114.287 25.2757 114.705 25.5296C115.494 26.0131 116.281 26.5684 117.023 27.1001C117.393 27.3768 118.555 27.9536 118.624 28.4156ZM94.9513 8.36618C94.631 8.36287 94.3115 8.40192 94.0015 8.48229V8.52861H94.0462C94.2332 8.89731 94.5581 9.15299 94.7898 9.47475C94.9768 9.84469 95.139 10.2115 95.3222 10.5809L95.3669 10.5352C95.6943 10.3048 95.8571 9.93547 95.8571 9.3815C95.7161 9.21845 95.6943 9.05912 95.5769 8.89731C95.4402 8.66633 95.139 8.55146 94.9513 8.36618Z" fill="#5D87A1"/>
<path d="M120.833 53.9038H121.314V51.5643H120.592L120.004 53.1608L119.365 51.5643H118.67V53.9038H119.124V52.1239H119.15L119.82 53.9038H120.166L120.833 52.1239V53.9038ZM116.96 53.9038H117.468V51.9608H118.134V51.5637H116.266V51.9608H116.958L116.96 53.9038Z" fill="#F8981D"/>
</svg>
