<svg width="160" height="61" viewBox="0 0 160 61" fill="none" xmlns="http://www.w3.org/2000/svg">
<g clip-path="url(#clip0_9689_135291)">
<path d="M93.6963 43.2463C94.053 40.292 93.9461 39.8587 96.1595 40.3373L96.7215 40.3863C98.4235 40.4633 100.65 40.1142 101.958 39.5101C104.774 38.2113 106.443 36.0427 103.667 36.6125C97.3337 37.9113 96.8983 35.7794 96.8983 35.7794C103.586 25.9151 106.381 13.3933 103.968 10.3282C97.3867 1.96774 85.9943 5.92121 85.8037 6.02385L85.743 6.03499C84.4916 5.77688 83.0912 5.62266 81.5181 5.59737C78.6522 5.55056 76.4775 6.3443 74.8279 7.58819C74.8279 7.58819 54.5045 -0.735838 55.45 18.0565C55.651 22.0542 61.2139 48.3062 67.8487 40.3768C70.2736 37.4774 72.6171 35.0258 72.6171 35.0258C73.7808 35.7943 75.1741 36.1864 76.6353 36.0456L76.7482 35.9498C76.7128 36.3098 76.7285 36.6619 76.7934 37.0788C75.0845 38.9773 75.5867 39.3107 72.1695 40.0099C68.7123 40.7183 70.7434 41.9795 72.0692 42.3091C73.6768 42.7088 77.3959 43.2749 79.9095 39.7775L79.8094 40.1765C80.4799 40.7098 80.4346 44.0093 80.5297 46.3668C80.6248 48.7244 80.7836 50.9244 81.267 52.2215C81.7504 53.5183 82.3208 56.8593 86.8117 55.9024C90.5651 55.1028 93.4348 53.952 93.6963 43.2463Z" fill="black" stroke="black" stroke-width="4.70857"/>
<path d="M103.664 36.6124C97.3304 37.9113 96.895 35.7794 96.895 35.7794C103.582 25.9144 106.378 13.3923 103.965 10.3276C97.3839 1.96767 85.991 5.92139 85.8009 6.02403L85.7397 6.03492C84.4884 5.77668 83.0879 5.62284 81.514 5.5973C78.6481 5.55061 76.4742 6.34423 74.8246 7.58787C74.8246 7.58787 54.5008 -0.735783 55.446 18.0564C55.6471 22.0543 61.2099 48.3064 67.8449 40.377C70.27 37.4775 72.6131 35.0259 72.6131 35.0259C73.7769 35.7945 75.1701 36.1866 76.6307 36.0458L76.7442 35.95C76.7089 36.31 76.725 36.6621 76.7896 37.079C75.0804 38.9775 75.5826 39.3109 72.1657 40.0101C68.7083 40.7185 70.7394 41.9797 72.0655 42.3092C73.6731 42.7089 77.3925 43.2751 79.9056 39.7777L79.8054 40.1767C80.4751 40.71 80.9454 43.6455 80.8666 46.3065C80.7878 48.9677 80.7351 50.7946 81.2628 52.2216C81.7905 53.6487 82.3165 56.8595 86.8083 55.9026C90.5617 55.103 92.5067 53.0308 92.7772 49.5743C92.9693 47.1169 93.4038 47.4802 93.4312 45.2832L93.7798 44.2431C94.1817 40.912 93.8436 39.8374 96.156 40.3372L96.718 40.3863C98.4199 40.4633 100.647 40.1141 101.955 39.51C104.77 38.2112 106.44 36.0426 103.664 36.6124H103.664Z" fill="#336791"/>
<path d="M80.1792 38.5215C80.0048 44.7198 80.223 50.9612 80.8331 52.4781C81.4435 53.995 82.7499 56.9454 87.2421 55.9887C90.995 55.1888 92.3606 53.6409 92.9531 50.2242C93.3895 47.7104 94.2309 40.729 94.3388 39.2986" stroke="white" stroke-width="1.56952" stroke-linecap="round" stroke-linejoin="round"/>
<path d="M74.7953 7.44936C74.7953 7.44936 54.4576 -0.81433 55.4031 17.9779C55.6042 21.9758 61.1673 48.2287 67.8021 40.299C70.2267 37.3991 72.4195 35.1248 72.4195 35.1248" stroke="white" stroke-width="1.56952" stroke-linecap="round" stroke-linejoin="round"/>
<path d="M85.7796 5.94087C85.0756 6.1603 97.0927 1.57356 103.922 10.2491C106.334 13.3139 103.539 25.836 96.8517 35.7012" stroke="white" stroke-width="1.56952" stroke-linecap="round" stroke-linejoin="round"/>
<path d="M96.8522 35.7013C96.8522 35.7013 97.2879 37.8338 103.622 36.5341C106.397 35.9643 104.727 38.1331 101.912 39.4325C99.6024 40.4983 94.4237 40.7714 94.339 39.2987C94.1213 35.499 97.0646 36.6534 96.8522 35.7013ZM96.8522 35.7013C96.6601 34.8438 95.344 34.0022 94.4733 31.9036C93.7131 30.0719 84.0481 16.025 97.1536 18.1112C97.6337 18.0125 93.7355 5.71847 81.4707 5.51856C69.2086 5.31865 69.6109 20.51 69.6109 20.51" stroke="white" stroke-width="1.56952" stroke-linecap="round" stroke-linejoin="bevel"/>
<path d="M76.7464 37.0005C75.0369 38.899 75.5397 39.2323 72.1225 39.9318C68.6651 40.6403 70.6964 41.9012 72.0222 42.2307C73.6298 42.6306 77.3492 43.1968 79.8623 39.6985C80.6276 38.6333 79.8578 36.9338 78.8065 36.5006C78.2986 36.2914 77.6194 36.0293 76.7464 37.0005Z" stroke="white" stroke-width="1.56952" stroke-linecap="round" stroke-linejoin="round"/>
<path d="M76.6328 36.9677C76.4605 35.8515 77.0017 34.5232 77.5817 32.9693C78.4532 30.6377 80.4642 28.3058 78.8555 20.9098C77.6565 15.3984 69.614 19.7628 69.6089 20.5101C69.604 21.2572 69.9727 24.298 69.4746 27.839C68.8246 32.4597 72.4321 36.3676 76.5861 35.9678" stroke="white" stroke-width="1.56952" stroke-linecap="round" stroke-linejoin="round"/>
<path d="M74.7206 20.3979C74.6843 20.6532 75.1906 21.3343 75.8508 21.4253C76.5098 21.5166 77.0739 20.9844 77.1097 20.7294C77.1454 20.4742 76.6398 20.193 75.9793 20.1016C75.3199 20.0101 74.7556 20.1433 74.7207 20.3979H74.7206Z" fill="white" stroke="white" stroke-width="0.52317"/>
<path d="M94.794 19.8776C94.8298 20.1329 94.3241 20.8139 93.6638 20.9049C93.0043 20.9963 92.4402 20.4641 92.404 20.2091C92.3692 19.9539 92.875 19.6727 93.5346 19.5813C94.1943 19.4899 94.7583 19.623 94.794 19.8777V19.8776Z" fill="white" stroke="white" stroke-width="0.261585"/>
<path d="M97.1537 18.1108C97.2623 20.1129 96.7199 21.4766 96.6515 23.6079C96.5503 26.7057 98.1372 30.2515 95.7461 33.8017" stroke="white" stroke-width="1.56952" stroke-linecap="round" stroke-linejoin="round"/>
</g>
<defs>
<clipPath id="clip0_9689_135291">
<rect width="54.4035" height="55.7518" fill="white" transform="translate(53 2.66089)"/>
</clipPath>
</defs>
</svg>
