<svg width="48" height="48" viewBox="0 0 48 48" fill="none" xmlns="http://www.w3.org/2000/svg">
  <g opacity="0.9">
    <!-- Main database shape -->
    <path d="M24 8C31.732 8 38 10.2386 38 13V35C38 37.7614 31.732 40 24 40C16.268 40 10 37.7614 10 35V13C10 10.2386 16.268 8 24 8Z" fill="white"/>
    <!-- Top ellipse -->
    <path d="M38 13C38 15.7614 31.732 18 24 18C16.268 18 10 15.7614 10 13" stroke="#B341F4" stroke-width="2"/>
    <!-- Middle section -->
    <path d="M38 24C38 26.7614 31.732 29 24 29C16.268 29 10 26.7614 10 24" stroke="#B341F4" stroke-width="2"/>
    <!-- Vertical lines -->
    <path d="M10 13V35M38 13V35" stroke="#B341F4" stroke-width="2"/>
    <!-- Bottom ellipse -->
    <path d="M38 35C38 37.7614 31.732 40 24 40C16.268 40 10 37.7614 10 35" stroke="#B341F4" stroke-width="2"/>
    <!-- Decorative lines -->
    <path d="M24 18V40" stroke="#B341F4" stroke-width="2" opacity="0.5"/>
    <path d="M17 16.5V38.5" stroke="#B341F4" stroke-width="2" opacity="0.3"/>
    <path d="M31 16.5V38.5" stroke="#B341F4" stroke-width="2" opacity="0.3"/>
  </g>
  <!-- Highlight effect -->
  <path d="M24 8C31.732 8 38 10.2386 38 13C38 15.7614 31.732 18 24 18C16.268 18 10 15.7614 10 13C10 10.2386 16.268 8 24 8Z" fill="white" opacity="0.2"/>
</svg> 