<svg width="574" height="421" viewBox="0 0 574 421" fill="none" xmlns="http://www.w3.org/2000/svg">
<rect width="574" height="420" fill="white"/>
<path d="M0 20H574V60H0V20Z" fill="black"/>
<rect opacity="0.4" x="193" y="37" width="47" height="5" rx="2" fill="white" fill-opacity="0.75"/>
<rect opacity="0.4" x="255" y="37" width="37" height="5" rx="2" fill="white" fill-opacity="0.75"/>
<rect opacity="0.4" x="307" y="37" width="55" height="5" rx="2" fill="white" fill-opacity="0.75"/>
<g opacity="0.1">
<path d="M13 10C13 11.6569 11.6569 13 10 13C8.34315 13 7 11.6569 7 10C7 8.34315 8.34315 7 10 7C11.6569 7 13 8.34315 13 10Z" fill="#29063E"/>
<path d="M22 10C22 11.6569 20.6569 13 19 13C17.3431 13 16 11.6569 16 10C16 8.34315 17.3431 7 19 7C20.6569 7 22 8.34315 22 10Z" fill="#29063E"/>
<path d="M31 10C31 11.6569 29.6569 13 28 13C26.3431 13 25 11.6569 25 10C25 8.34315 26.3431 7 28 7C29.6569 7 31 8.34315 31 10Z" fill="#29063E"/>
</g>
<g clip-path="url(#clip0_9753_136204)">
<path d="M32.0015 40.0082C31.9982 44.3106 29.2434 48.1287 25.1615 49.4882C25.0087 49.5353 24.8427 49.5095 24.7115 49.4182C24.5802 49.3227 24.5022 49.1705 24.5015 49.0082V46.3382C24.5231 45.6191 24.3504 44.9074 24.0015 44.2782C23.9487 44.1959 23.9487 44.0905 24.0015 44.0082C24.042 43.9323 24.1163 43.8804 24.2015 43.8682C26.6415 43.6182 28.0015 42.6482 28.0015 40.0082C28.0603 38.7756 27.633 37.5691 26.8115 36.6482C26.9313 36.2592 26.9953 35.8552 27.0015 35.4482C26.9972 35.0833 26.9468 34.7205 26.8515 34.3682C26.7886 34.1333 26.563 33.9801 26.3215 34.0082C25.4052 34.1383 24.5523 34.5507 23.8815 35.1882C22.6396 34.9483 21.3633 34.9483 20.1215 35.1882C19.4506 34.5507 18.5977 34.1383 17.6815 34.0082C17.44 33.9801 17.2143 34.1333 17.1515 34.3682C17.0562 34.7205 17.0058 35.0833 17.0015 35.4482C17.0077 35.8552 17.0717 36.2592 17.1915 36.6482C16.37 37.5691 15.9427 38.7756 16.0015 40.0082C16.0015 42.7882 17.5115 43.7182 20.2815 43.9482C19.9376 44.3988 19.7016 44.9222 19.5915 45.4782C19.5915 45.4782 19.5915 45.5482 19.5915 45.5982C19.5867 45.6448 19.5867 45.6917 19.5915 45.7382C19.5499 46.0526 19.2672 46.2778 18.9515 46.2482C18.8009 46.2411 18.6539 46.2001 18.5215 46.1282C17.9767 45.7964 17.4957 45.3697 17.1015 44.8682C16.8503 44.5834 16.5832 44.3129 16.3015 44.0582C16.1225 43.9033 15.9242 43.7722 15.7115 43.6682C15.5624 43.5845 15.3805 43.5845 15.2315 43.6682C15.0884 43.76 15.0018 43.9182 15.0015 44.0882V44.1482C15.0018 44.3182 15.0884 44.4764 15.2315 44.5682C15.5904 44.8687 15.9008 45.2229 16.1515 45.6182C16.5749 46.2816 17.1133 46.8641 17.7415 47.3382C18.1553 47.6157 18.6432 47.762 19.1415 47.7582H19.5015V49.0082C19.5007 49.1705 19.4227 49.3227 19.2915 49.4182C19.1602 49.5095 18.9943 49.5353 18.8415 49.4882C13.9935 47.8735 11.1427 42.8637 12.2308 37.8711C13.319 32.8785 17.996 29.5094 23.0762 30.0585C28.1564 30.6077 32.0054 34.8984 32.0015 40.0082Z" fill="white"/>
</g>
<g opacity="0.25">
<rect x="56" y="30" width="108" height="20" rx="6" fill="white"/>
</g>
<g clip-path="url(#clip1_9753_136204)">
<path d="M77 403H71C70.4477 403 70 403.448 70 404V412C70 412.552 70.4477 413 71 413H74.38C74.7777 413 75.159 412.841 75.44 412.56L77.56 410.44C77.8414 410.159 77.9996 409.778 78 409.38V404C78 403.448 77.5523 403 77 403ZM71 404H77V409H74.5C74.2239 409 74 409.224 74 409.5V412H71V404Z" fill="#CAC1CF"/>
</g>
<rect opacity="0.25" x="86" y="405.5" width="31" height="5" rx="2" fill="#29063E"/>
<rect opacity="0.1" x="195" y="405.5" width="217" height="5" rx="2" fill="#29063E"/>
<rect opacity="0.1" x="478" y="405.5" width="31" height="5" rx="2" fill="#29063E"/>
<rect x="56" y="396" width="463" height="24" stroke="#DFDAE2"/>
<g clip-path="url(#clip2_9753_136204)">
<path d="M79.332 380H75.6054C75.4305 379.999 75.2629 379.93 75.1387 379.807L74.192 378.86C74.0679 378.737 73.9003 378.667 73.7254 378.667H68.6654C67.929 378.667 67.332 379.263 67.332 380V388C67.332 388.736 67.929 389.333 68.6654 389.333H79.332C80.0684 389.333 80.6654 388.736 80.6654 388V381.333C80.6654 380.597 80.0684 380 79.332 380Z" fill="#7AB7FF"/>
</g>
<rect opacity="0.25" x="86" y="381.5" width="31" height="5" rx="2" fill="#29063E"/>
<rect opacity="0.1" x="195" y="381.5" width="188" height="5" rx="2" fill="#29063E"/>
<rect opacity="0.1" x="478" y="381.5" width="31" height="5" rx="2" fill="#29063E"/>
<rect x="56" y="372" width="463" height="24" stroke="#DFDAE2"/>
<g clip-path="url(#clip3_9753_136204)">
<path d="M79.332 356H75.6054C75.4305 355.999 75.2629 355.93 75.1387 355.807L74.192 354.86C74.0679 354.737 73.9003 354.667 73.7254 354.667H68.6654C67.929 354.667 67.332 355.263 67.332 356V364C67.332 364.736 67.929 365.333 68.6654 365.333H79.332C80.0684 365.333 80.6654 364.736 80.6654 364V357.333C80.6654 356.597 80.0684 356 79.332 356Z" fill="#7AB7FF"/>
</g>
<rect opacity="0.25" x="86" y="357.5" width="36" height="5" rx="2" fill="#29063E"/>
<rect opacity="0.1" x="195" y="357.5" width="172" height="5" rx="2" fill="#29063E"/>
<rect opacity="0.1" x="483" y="357.5" width="26" height="5" rx="2" fill="#29063E"/>
<rect x="56" y="348" width="463" height="24" stroke="#DFDAE2"/>
<g clip-path="url(#clip4_9753_136204)">
<path d="M79.332 332H75.6054C75.4305 331.999 75.2629 331.93 75.1387 331.807L74.192 330.86C74.0679 330.737 73.9003 330.667 73.7254 330.667H68.6654C67.929 330.667 67.332 331.263 67.332 332V340C67.332 340.736 67.929 341.333 68.6654 341.333H79.332C80.0684 341.333 80.6654 340.736 80.6654 340V333.333C80.6654 332.597 80.0684 332 79.332 332Z" fill="#7AB7FF"/>
</g>
<rect opacity="0.25" x="86" y="333.5" width="44" height="5" rx="2" fill="#29063E"/>
<rect opacity="0.1" x="195" y="333.5" width="80" height="5" rx="2" fill="#29063E"/>
<rect opacity="0.1" x="489" y="333.5" width="20" height="5" rx="2" fill="#29063E"/>
<rect x="56" y="324" width="463" height="24" stroke="#DFDAE2"/>
<g clip-path="url(#clip5_9753_136204)">
<path d="M79.332 308H75.6054C75.4305 307.999 75.2629 307.93 75.1387 307.807L74.192 306.86C74.0679 306.737 73.9003 306.667 73.7254 306.667H68.6654C67.929 306.667 67.332 307.263 67.332 308V316C67.332 316.736 67.929 317.333 68.6654 317.333H79.332C80.0684 317.333 80.6654 316.736 80.6654 316V309.333C80.6654 308.597 80.0684 308 79.332 308Z" fill="#7AB7FF"/>
</g>
<rect opacity="0.25" x="86" y="309.5" width="31" height="5" rx="2" fill="#29063E"/>
<rect opacity="0.1" x="195" y="309.5" width="200" height="5" rx="2" fill="#29063E"/>
<rect opacity="0.1" x="478" y="309.5" width="31" height="5" rx="2" fill="#29063E"/>
<rect x="56" y="300" width="463" height="24" stroke="#DFDAE2"/>
<rect x="56" y="276" width="463" height="24" fill="#0D2EDE" fill-opacity="0.15"/>
<g clip-path="url(#clip6_9753_136204)">
<path d="M74.7918 294.59L80.7979 284.229C81.3719 283.238 80.6544 282 79.506 282H67.494C66.3456 282 65.6279 283.238 66.2021 284.229L67.2589 286.052L67.6592 286.742C68.2649 287.787 69.6041 288.145 70.6521 287.543L72.4533 286.507C72.5889 286.429 72.6353 286.256 72.557 286.121L72.0099 285.177C71.7922 284.801 72.0636 284.331 72.4983 284.331H77.0553C77.4906 284.331 77.7624 284.802 77.5445 285.178L75.2675 289.106C75.0496 289.482 74.5055 289.482 74.2875 289.106L73.74 288.161C73.6618 288.027 73.4889 287.98 73.3536 288.058L71.5516 289.094C70.5045 289.696 70.1459 291.032 70.7509 292.076L71.1512 292.767L72.208 294.59C72.7829 295.581 74.2172 295.581 74.7918 294.59Z" fill="#9A2F8F"/>
</g>
<rect x="86" y="285.5" width="51" height="5" rx="2" fill="#8896E0"/>
<rect x="141" y="285.5" width="35" height="5" rx="2" fill="#CAD0F0"/>
<rect x="180" y="285.5" width="31" height="5" rx="2" fill="#8896E0"/>
<rect x="215" y="285.5" width="103" height="5" rx="2" fill="#CAD0F0"/>
<rect opacity="0.1" x="399" y="285.5" width="31" height="5" rx="2" fill="#2E4098"/>
<rect opacity="0.1" x="444" y="285.5" width="24" height="5" rx="2" fill="#2E4098"/>
<rect opacity="0.1" x="482" y="285.5" width="27" height="5" rx="2" fill="#2E4098"/>
<rect x="56" y="276" width="463" height="24" stroke="#C2CBF7"/>
<rect x="56" y="242" width="108" height="24" rx="8" fill="#EAE6EC"/>
<path d="M74.5401 250C75.3067 250 75.9001 250.16 76.3201 250.48C76.7467 250.793 76.9601 251.24 76.9601 251.82C76.9601 252.24 76.8467 252.587 76.6201 252.86C76.4001 253.127 76.0801 253.307 75.6601 253.4C76.7067 253.58 77.2301 254.13 77.2301 255.05C77.2301 255.657 77.0067 256.133 76.5601 256.48C76.1134 256.827 75.4701 257 74.6301 257H71.9701V250H74.5401ZM74.6401 256.03C75.1001 256.03 75.4501 255.94 75.6901 255.76C75.9301 255.573 76.0501 255.317 76.0501 254.99C76.0501 254.65 75.9267 254.387 75.6801 254.2C75.4334 254.013 75.0867 253.92 74.6401 253.92H73.1201V256.03H74.6401ZM74.5701 252.97C74.9701 252.97 75.2767 252.883 75.4901 252.71C75.7034 252.53 75.8101 252.28 75.8101 251.96C75.8101 251.64 75.7034 251.393 75.4901 251.22C75.2767 251.047 74.9701 250.96 74.5701 250.96H73.1201V252.97H74.5701ZM78.6882 251.88H79.6482L79.7682 252.65C79.9149 252.41 80.1015 252.223 80.3282 252.09C80.5615 251.95 80.8782 251.88 81.2782 251.88H81.5182V252.89H81.0382C80.8182 252.89 80.6282 252.93 80.4682 253.01C80.3082 253.083 80.1749 253.19 80.0682 253.33C79.9682 253.463 79.8915 253.627 79.8382 253.82C79.7915 254.007 79.7682 254.21 79.7682 254.43V257H78.6882V251.88ZM82.3085 255.56C82.3085 255.033 82.4918 254.63 82.8585 254.35C83.2318 254.063 83.7785 253.92 84.4985 253.92H85.7885V253.61C85.7885 253.323 85.6885 253.1 85.4885 252.94C85.2952 252.773 85.0185 252.69 84.6585 252.69C84.3385 252.69 84.0785 252.76 83.8785 252.9C83.6785 253.033 83.5585 253.213 83.5185 253.44H82.4585C82.5118 252.92 82.7385 252.52 83.1385 252.24C83.5385 251.96 84.0618 251.82 84.7085 251.82C85.3952 251.82 85.9252 251.98 86.2985 252.3C86.6718 252.613 86.8585 253.073 86.8585 253.68V255.7C86.8585 255.94 86.9718 256.06 87.1985 256.06H87.4085V257H86.8385C86.4985 257 86.2552 256.93 86.1085 256.79C85.9685 256.65 85.8985 256.447 85.8985 256.18C85.5118 256.767 84.9485 257.06 84.2085 257.06C83.6285 257.06 83.1652 256.927 82.8185 256.66C82.4785 256.393 82.3085 256.027 82.3085 255.56ZM84.3585 256.22C84.8052 256.22 85.1518 256.1 85.3985 255.86C85.6518 255.62 85.7818 255.3 85.7885 254.9V254.72H84.4485C84.1085 254.72 83.8485 254.787 83.6685 254.92C83.4952 255.047 83.4085 255.237 83.4085 255.49C83.4085 255.71 83.4918 255.887 83.6585 256.02C83.8252 256.153 84.0585 256.22 84.3585 256.22ZM88.4968 251.88H89.4368L89.5568 252.55C89.9435 252.063 90.4901 251.82 91.1968 251.82C91.4968 251.82 91.7735 251.867 92.0268 251.96C92.2801 252.047 92.4968 252.187 92.6768 252.38C92.8635 252.573 93.0068 252.82 93.1068 253.12C93.2068 253.413 93.2568 253.767 93.2568 254.18V257H92.1668V254.24C92.1668 253.753 92.0635 253.383 91.8568 253.13C91.6501 252.877 91.3468 252.75 90.9468 252.75C90.5201 252.75 90.1835 252.9 89.9368 253.2C89.6968 253.493 89.5768 253.9 89.5768 254.42V257H88.4968V251.88ZM99.459 255.16C99.359 255.753 99.1023 256.22 98.689 256.56C98.2757 256.893 97.7457 257.06 97.099 257.06C96.5923 257.06 96.1457 256.953 95.759 256.74C95.3723 256.52 95.0723 256.21 94.859 255.81C94.6523 255.41 94.549 254.95 94.549 254.43C94.549 253.91 94.6557 253.453 94.869 253.06C95.0823 252.667 95.3823 252.363 95.769 252.15C96.1623 251.93 96.6157 251.82 97.129 251.82C97.769 251.82 98.2923 251.99 98.699 252.33C99.1057 252.663 99.359 253.12 99.459 253.7H98.349C98.2757 253.407 98.129 253.173 97.909 253C97.689 252.827 97.419 252.74 97.099 252.74C96.6657 252.74 96.3157 252.897 96.049 253.21C95.789 253.523 95.659 253.93 95.659 254.43C95.659 254.937 95.789 255.35 96.049 255.67C96.3157 255.983 96.6657 256.14 97.099 256.14C97.4323 256.14 97.709 256.053 97.929 255.88C98.149 255.7 98.2923 255.46 98.359 255.16H99.459ZM100.825 250H101.905V252.62C102.298 252.087 102.835 251.82 103.515 251.82C103.822 251.82 104.102 251.867 104.355 251.96C104.608 252.047 104.825 252.187 105.005 252.38C105.192 252.573 105.335 252.82 105.435 253.12C105.535 253.413 105.585 253.767 105.585 254.18V257H104.505V254.24C104.505 253.753 104.398 253.383 104.185 253.13C103.978 252.877 103.675 252.75 103.275 252.75C102.848 252.75 102.512 252.897 102.265 253.19C102.025 253.483 101.905 253.89 101.905 254.41V257H100.825V250Z" fill="black" fill-opacity="0.25"/>
<path d="M110.126 257V251.88H111.066L111.186 252.55C111.552 252.077 112.052 251.833 112.686 251.82C113.046 251.82 113.362 251.897 113.636 252.05C113.909 252.197 114.119 252.43 114.266 252.75C114.446 252.45 114.679 252.22 114.966 252.06C115.259 251.9 115.616 251.82 116.036 251.82C116.316 251.82 116.572 251.867 116.806 251.96C117.039 252.047 117.239 252.183 117.406 252.37C117.572 252.55 117.702 252.787 117.796 253.08C117.889 253.367 117.936 253.71 117.936 254.11V257H116.856V254.12C116.856 253.673 116.766 253.333 116.586 253.1C116.412 252.867 116.146 252.75 115.786 252.75C115.406 252.75 115.109 252.883 114.896 253.15C114.682 253.41 114.576 253.77 114.576 254.23V257H113.486V254.12C113.486 253.207 113.126 252.75 112.406 252.75C112.039 252.75 111.746 252.887 111.526 253.16C111.312 253.433 111.206 253.8 111.206 254.26V257H110.126ZM119.215 255.56C119.215 255.033 119.398 254.63 119.765 254.35C120.138 254.063 120.685 253.92 121.405 253.92H122.695V253.61C122.695 253.323 122.595 253.1 122.395 252.94C122.201 252.773 121.925 252.69 121.565 252.69C121.245 252.69 120.985 252.76 120.785 252.9C120.585 253.033 120.465 253.213 120.425 253.44H119.365C119.418 252.92 119.645 252.52 120.045 252.24C120.445 251.96 120.968 251.82 121.615 251.82C122.301 251.82 122.831 251.98 123.205 252.3C123.578 252.613 123.765 253.073 123.765 253.68V255.7C123.765 255.94 123.878 256.06 124.105 256.06H124.315V257H123.745C123.405 257 123.161 256.93 123.015 256.79C122.875 256.65 122.805 256.447 122.805 256.18C122.418 256.767 121.855 257.06 121.115 257.06C120.535 257.06 120.071 256.927 119.725 256.66C119.385 256.393 119.215 256.027 119.215 255.56ZM121.265 256.22C121.711 256.22 122.058 256.1 122.305 255.86C122.558 255.62 122.688 255.3 122.695 254.9V254.72H121.355C121.015 254.72 120.755 254.787 120.575 254.92C120.401 255.047 120.315 255.237 120.315 255.49C120.315 255.71 120.398 255.887 120.565 256.02C120.731 256.153 120.965 256.22 121.265 256.22ZM126.263 255.31C126.283 255.577 126.406 255.797 126.633 255.97C126.866 256.137 127.166 256.22 127.533 256.22C127.86 256.22 128.123 256.16 128.323 256.04C128.53 255.913 128.633 255.747 128.633 255.54C128.633 255.367 128.586 255.237 128.493 255.15C128.4 255.063 128.273 255.003 128.113 254.97C127.96 254.93 127.72 254.89 127.393 254.85C126.946 254.797 126.576 254.727 126.283 254.64C125.996 254.547 125.763 254.403 125.583 254.21C125.41 254.01 125.323 253.743 125.323 253.41C125.323 253.097 125.41 252.82 125.583 252.58C125.763 252.333 126.006 252.143 126.313 252.01C126.626 251.877 126.98 251.81 127.373 251.81C128.02 251.81 128.543 251.953 128.943 252.24C129.35 252.527 129.57 252.93 129.603 253.45H128.553C128.526 253.217 128.41 253.027 128.203 252.88C127.996 252.727 127.736 252.65 127.423 252.65C127.11 252.65 126.856 252.71 126.663 252.83C126.47 252.95 126.373 253.113 126.373 253.32C126.373 253.473 126.42 253.59 126.513 253.67C126.613 253.743 126.736 253.797 126.883 253.83C127.03 253.857 127.266 253.89 127.593 253.93C128.033 253.977 128.403 254.05 128.703 254.15C129.003 254.243 129.243 254.397 129.423 254.61C129.603 254.817 129.693 255.1 129.693 255.46C129.693 255.78 129.6 256.063 129.413 256.31C129.226 256.55 128.97 256.737 128.643 256.87C128.316 256.997 127.95 257.06 127.543 257.06C126.856 257.06 126.3 256.907 125.873 256.6C125.453 256.287 125.236 255.857 125.223 255.31H126.263ZM130.509 252.83V251.88H131.399V250.45H132.489V251.88H133.719V252.83H132.489V255.5C132.489 255.7 132.529 255.843 132.609 255.93C132.689 256.01 132.826 256.05 133.019 256.05H133.839V257H132.799C132.312 257 131.956 256.89 131.729 256.67C131.509 256.443 131.399 256.09 131.399 255.61V252.83H130.509ZM134.621 254.45C134.621 253.923 134.725 253.463 134.931 253.07C135.145 252.67 135.438 252.363 135.811 252.15C136.191 251.93 136.625 251.82 137.111 251.82C137.605 251.82 138.038 251.92 138.411 252.12C138.791 252.32 139.088 252.603 139.301 252.97C139.521 253.337 139.635 253.767 139.641 254.26C139.641 254.393 139.631 254.53 139.611 254.67H135.751V254.73C135.778 255.177 135.918 255.53 136.171 255.79C136.425 256.05 136.761 256.18 137.181 256.18C137.515 256.18 137.795 256.103 138.021 255.95C138.248 255.79 138.398 255.567 138.471 255.28H139.551C139.458 255.8 139.205 256.227 138.791 256.56C138.385 256.893 137.875 257.06 137.261 257.06C136.728 257.06 136.261 256.953 135.861 256.74C135.468 256.52 135.161 256.213 134.941 255.82C134.728 255.427 134.621 254.97 134.621 254.45ZM138.541 253.88C138.495 253.507 138.345 253.217 138.091 253.01C137.845 252.797 137.531 252.69 137.151 252.69C136.798 252.69 136.491 252.8 136.231 253.02C135.978 253.233 135.831 253.52 135.791 253.88H138.541ZM141.014 251.88H141.974L142.094 252.65C142.241 252.41 142.428 252.223 142.654 252.09C142.888 251.95 143.204 251.88 143.604 251.88H143.844V252.89H143.364C143.144 252.89 142.954 252.93 142.794 253.01C142.634 253.083 142.501 253.19 142.394 253.33C142.294 253.463 142.218 253.627 142.164 253.82C142.118 254.007 142.094 254.21 142.094 254.43V257H141.014V251.88Z" fill="black" fill-opacity="0.5"/>
<path d="M154 253L152 255L150 253H154Z" fill="#757376"/>
<rect x="298" y="242" width="76" height="24" rx="8" fill="#EAE6EC"/>
<path opacity="0.5" d="M313.923 253.5C313.923 252.793 314.059 252.173 314.333 251.64C314.613 251.1 315.009 250.683 315.523 250.39C316.036 250.09 316.636 249.94 317.323 249.94C318.129 249.94 318.799 250.16 319.333 250.6C319.866 251.04 320.193 251.633 320.313 252.38H319.173C319.059 251.933 318.836 251.583 318.503 251.33C318.176 251.077 317.773 250.95 317.293 250.95C316.853 250.95 316.466 251.06 316.133 251.28C315.806 251.493 315.553 251.793 315.373 252.18C315.193 252.56 315.103 253 315.103 253.5C315.103 254 315.189 254.443 315.363 254.83C315.543 255.21 315.796 255.51 316.123 255.73C316.456 255.943 316.843 256.05 317.283 256.05C317.843 256.05 318.309 255.897 318.683 255.59C319.063 255.283 319.266 254.857 319.293 254.31V254.14H317.353V253.17H320.393V257H319.523L319.403 256C319.203 256.293 318.916 256.543 318.543 256.75C318.176 256.957 317.739 257.06 317.233 257.06C316.586 257.06 316.013 256.913 315.513 256.62C315.013 256.32 314.623 255.9 314.343 255.36C314.063 254.82 313.923 254.2 313.923 253.5ZM324.483 257.06C323.97 257.06 323.513 256.953 323.113 256.74C322.72 256.52 322.413 256.213 322.193 255.82C321.98 255.42 321.873 254.96 321.873 254.44C321.873 253.927 321.98 253.473 322.193 253.08C322.413 252.68 322.72 252.37 323.113 252.15C323.513 251.93 323.97 251.82 324.483 251.82C324.997 251.82 325.45 251.93 325.843 252.15C326.243 252.37 326.55 252.68 326.763 253.08C326.983 253.473 327.093 253.927 327.093 254.44C327.093 254.96 326.983 255.42 326.763 255.82C326.55 256.213 326.243 256.52 325.843 256.74C325.45 256.953 324.997 257.06 324.483 257.06ZM324.483 256.14C324.937 256.14 325.3 255.983 325.573 255.67C325.853 255.35 325.993 254.94 325.993 254.44C325.993 253.94 325.853 253.533 325.573 253.22C325.3 252.9 324.937 252.74 324.483 252.74C324.03 252.74 323.667 252.9 323.393 253.22C323.12 253.533 322.983 253.94 322.983 254.44C322.983 254.94 323.12 255.35 323.393 255.67C323.667 255.983 324.03 256.14 324.483 256.14ZM330.96 252.83V251.88H331.85V250.45H332.94V251.88H334.17V252.83H332.94V255.5C332.94 255.7 332.98 255.843 333.06 255.93C333.14 256.01 333.277 256.05 333.47 256.05H334.29V257H333.25C332.764 257 332.407 256.89 332.18 256.67C331.96 256.443 331.85 256.09 331.85 255.61V252.83H330.96ZM337.682 257.06C337.169 257.06 336.712 256.953 336.312 256.74C335.919 256.52 335.612 256.213 335.392 255.82C335.179 255.42 335.072 254.96 335.072 254.44C335.072 253.927 335.179 253.473 335.392 253.08C335.612 252.68 335.919 252.37 336.312 252.15C336.712 251.93 337.169 251.82 337.682 251.82C338.196 251.82 338.649 251.93 339.042 252.15C339.442 252.37 339.749 252.68 339.962 253.08C340.182 253.473 340.292 253.927 340.292 254.44C340.292 254.96 340.182 255.42 339.962 255.82C339.749 256.213 339.442 256.52 339.042 256.74C338.649 256.953 338.196 257.06 337.682 257.06ZM337.682 256.14C338.136 256.14 338.499 255.983 338.772 255.67C339.052 255.35 339.192 254.94 339.192 254.44C339.192 253.94 339.052 253.533 338.772 253.22C338.499 252.9 338.136 252.74 337.682 252.74C337.229 252.74 336.866 252.9 336.592 253.22C336.319 253.533 336.182 253.94 336.182 254.44C336.182 254.94 336.319 255.35 336.592 255.67C336.866 255.983 337.229 256.14 337.682 256.14ZM345.049 251.88V251.37C345.049 250.457 345.526 250 346.479 250H347.519V250.95H346.629C346.456 250.95 346.329 250.99 346.249 251.07C346.176 251.15 346.139 251.277 346.139 251.45V251.88H347.509V252.83H346.139V257H345.049V252.83H344.159V251.88H345.049ZM349.09 249.83C349.276 249.83 349.433 249.893 349.56 250.02C349.686 250.14 349.75 250.293 349.75 250.48C349.75 250.667 349.686 250.823 349.56 250.95C349.433 251.07 349.276 251.13 349.09 251.13C348.903 251.13 348.746 251.07 348.62 250.95C348.493 250.823 348.43 250.667 348.43 250.48C348.43 250.293 348.493 250.14 348.62 250.02C348.746 249.893 348.903 249.83 349.09 249.83ZM348.55 251.88H349.63V257H348.55V251.88ZM351.188 250H352.268V257H351.188V250ZM353.637 254.45C353.637 253.923 353.74 253.463 353.947 253.07C354.16 252.67 354.454 252.363 354.827 252.15C355.207 251.93 355.64 251.82 356.127 251.82C356.62 251.82 357.054 251.92 357.427 252.12C357.807 252.32 358.104 252.603 358.317 252.97C358.537 253.337 358.65 253.767 358.657 254.26C358.657 254.393 358.647 254.53 358.627 254.67H354.767V254.73C354.794 255.177 354.934 255.53 355.187 255.79C355.44 256.05 355.777 256.18 356.197 256.18C356.53 256.18 356.81 256.103 357.037 255.95C357.264 255.79 357.414 255.567 357.487 255.28H358.567C358.474 255.8 358.22 256.227 357.807 256.56C357.4 256.893 356.89 257.06 356.277 257.06C355.744 257.06 355.277 256.953 354.877 256.74C354.484 256.52 354.177 256.213 353.957 255.82C353.744 255.427 353.637 254.97 353.637 254.45ZM357.557 253.88C357.51 253.507 357.36 253.217 357.107 253.01C356.86 252.797 356.547 252.69 356.167 252.69C355.814 252.69 355.507 252.8 355.247 253.02C354.994 253.233 354.847 253.52 354.807 253.88H357.557Z" fill="black"/>
<rect x="380" y="242" width="74" height="24" rx="8" fill="#EAE6EC"/>
<path opacity="0.5" d="M395.902 257L398.522 250H399.892L402.502 257H401.272L400.612 255.27H397.742L397.092 257H395.902ZM400.292 254.29L399.172 251.24L398.062 254.29H400.292ZM408.58 250V257H407.64L407.51 256.23C407.103 256.783 406.547 257.06 405.84 257.06C405.373 257.06 404.957 256.957 404.59 256.75C404.223 256.537 403.937 256.233 403.73 255.84C403.523 255.44 403.42 254.973 403.42 254.44C403.42 253.92 403.523 253.463 403.73 253.07C403.943 252.67 404.233 252.363 404.6 252.15C404.967 251.93 405.38 251.82 405.84 251.82C406.213 251.82 406.54 251.89 406.82 252.03C407.1 252.163 407.327 252.35 407.5 252.59V250H408.58ZM406.02 256.15C406.467 256.15 406.827 255.993 407.1 255.68C407.373 255.367 407.51 254.96 407.51 254.46C407.51 253.947 407.373 253.533 407.1 253.22C406.827 252.9 406.467 252.74 406.02 252.74C405.573 252.74 405.213 252.9 404.94 253.22C404.667 253.533 404.53 253.94 404.53 254.44C404.53 254.947 404.667 255.36 404.94 255.68C405.213 255.993 405.573 256.15 406.02 256.15ZM415.105 250V257H414.165L414.035 256.23C413.629 256.783 413.072 257.06 412.365 257.06C411.899 257.06 411.482 256.957 411.115 256.75C410.749 256.537 410.462 256.233 410.255 255.84C410.049 255.44 409.945 254.973 409.945 254.44C409.945 253.92 410.049 253.463 410.255 253.07C410.469 252.67 410.759 252.363 411.125 252.15C411.492 251.93 411.905 251.82 412.365 251.82C412.739 251.82 413.065 251.89 413.345 252.03C413.625 252.163 413.852 252.35 414.025 252.59V250H415.105ZM412.545 256.15C412.992 256.15 413.352 255.993 413.625 255.68C413.899 255.367 414.035 254.96 414.035 254.46C414.035 253.947 413.899 253.533 413.625 253.22C413.352 252.9 412.992 252.74 412.545 252.74C412.099 252.74 411.739 252.9 411.465 253.22C411.192 253.533 411.055 253.94 411.055 254.44C411.055 254.947 411.192 255.36 411.465 255.68C411.739 255.993 412.099 256.15 412.545 256.15ZM420.049 251.88V251.37C420.049 250.457 420.526 250 421.479 250H422.519V250.95H421.629C421.456 250.95 421.329 250.99 421.249 251.07C421.176 251.15 421.139 251.277 421.139 251.45V251.88H422.509V252.83H421.139V257H420.049V252.83H419.159V251.88H420.049ZM424.09 249.83C424.276 249.83 424.433 249.893 424.56 250.02C424.686 250.14 424.75 250.293 424.75 250.48C424.75 250.667 424.686 250.823 424.56 250.95C424.433 251.07 424.276 251.13 424.09 251.13C423.903 251.13 423.746 251.07 423.62 250.95C423.493 250.823 423.43 250.667 423.43 250.48C423.43 250.293 423.493 250.14 423.62 250.02C423.746 249.893 423.903 249.83 424.09 249.83ZM423.55 251.88H424.63V257H423.55V251.88ZM426.188 250H427.268V257H426.188V250ZM428.637 254.45C428.637 253.923 428.74 253.463 428.947 253.07C429.16 252.67 429.454 252.363 429.827 252.15C430.207 251.93 430.64 251.82 431.127 251.82C431.62 251.82 432.054 251.92 432.427 252.12C432.807 252.32 433.104 252.603 433.317 252.97C433.537 253.337 433.65 253.767 433.657 254.26C433.657 254.393 433.647 254.53 433.627 254.67H429.767V254.73C429.794 255.177 429.934 255.53 430.187 255.79C430.44 256.05 430.777 256.18 431.197 256.18C431.53 256.18 431.81 256.103 432.037 255.95C432.264 255.79 432.414 255.567 432.487 255.28H433.567C433.474 255.8 433.22 256.227 432.807 256.56C432.4 256.893 431.89 257.06 431.277 257.06C430.744 257.06 430.277 256.953 429.877 256.74C429.484 256.52 429.177 256.213 428.957 255.82C428.744 255.427 428.637 254.97 428.637 254.45ZM432.557 253.88C432.51 253.507 432.36 253.217 432.107 253.01C431.86 252.797 431.547 252.69 431.167 252.69C430.814 252.69 430.507 252.8 430.247 253.02C429.994 253.233 429.847 253.52 429.807 253.88H432.557Z" fill="black"/>
<path d="M444 253L442 255L440 253H444Z" fill="#757376"/>
<rect x="460" y="242" width="59" height="24" rx="8" fill="#00BB93"/>
<path d="M475.827 253.5C475.827 252.793 475.964 252.173 476.237 251.64C476.517 251.1 476.91 250.683 477.417 250.39C477.93 250.09 478.527 249.94 479.207 249.94C479.734 249.94 480.207 250.04 480.627 250.24C481.054 250.44 481.4 250.727 481.667 251.1C481.934 251.467 482.104 251.893 482.177 252.38H481.027C480.914 251.933 480.694 251.583 480.367 251.33C480.04 251.077 479.637 250.95 479.157 250.95C478.724 250.95 478.344 251.06 478.017 251.28C477.69 251.493 477.44 251.793 477.267 252.18C477.094 252.56 477.007 253 477.007 253.5C477.007 253.993 477.094 254.433 477.267 254.82C477.44 255.207 477.69 255.51 478.017 255.73C478.344 255.943 478.724 256.05 479.157 256.05C479.637 256.05 480.037 255.923 480.357 255.67C480.684 255.417 480.904 255.067 481.017 254.62H482.167C482.094 255.113 481.924 255.543 481.657 255.91C481.397 256.277 481.057 256.56 480.637 256.76C480.217 256.96 479.74 257.06 479.207 257.06C478.527 257.06 477.93 256.913 477.417 256.62C476.91 256.327 476.517 255.913 476.237 255.38C475.964 254.84 475.827 254.213 475.827 253.5ZM483.548 250H484.628V257H483.548V250ZM488.606 257.06C488.093 257.06 487.636 256.953 487.236 256.74C486.843 256.52 486.536 256.213 486.316 255.82C486.103 255.42 485.996 254.96 485.996 254.44C485.996 253.927 486.103 253.473 486.316 253.08C486.536 252.68 486.843 252.37 487.236 252.15C487.636 251.93 488.093 251.82 488.606 251.82C489.12 251.82 489.573 251.93 489.966 252.15C490.366 252.37 490.673 252.68 490.886 253.08C491.106 253.473 491.216 253.927 491.216 254.44C491.216 254.96 491.106 255.42 490.886 255.82C490.673 256.213 490.366 256.52 489.966 256.74C489.573 256.953 489.12 257.06 488.606 257.06ZM488.606 256.14C489.06 256.14 489.423 255.983 489.696 255.67C489.976 255.35 490.116 254.94 490.116 254.44C490.116 253.94 489.976 253.533 489.696 253.22C489.423 252.9 489.06 252.74 488.606 252.74C488.153 252.74 487.79 252.9 487.516 253.22C487.243 253.533 487.106 253.94 487.106 254.44C487.106 254.94 487.243 255.35 487.516 255.67C487.79 255.983 488.153 256.14 488.606 256.14ZM492.585 251.88H493.525L493.645 252.55C494.031 252.063 494.578 251.82 495.285 251.82C495.585 251.82 495.861 251.867 496.115 251.96C496.368 252.047 496.585 252.187 496.765 252.38C496.951 252.573 497.095 252.82 497.195 253.12C497.295 253.413 497.345 253.767 497.345 254.18V257H496.255V254.24C496.255 253.753 496.151 253.383 495.945 253.13C495.738 252.877 495.435 252.75 495.035 252.75C494.608 252.75 494.271 252.9 494.025 253.2C493.785 253.493 493.665 253.9 493.665 254.42V257H492.585V251.88ZM498.637 254.45C498.637 253.923 498.74 253.463 498.947 253.07C499.16 252.67 499.454 252.363 499.827 252.15C500.207 251.93 500.64 251.82 501.127 251.82C501.62 251.82 502.054 251.92 502.427 252.12C502.807 252.32 503.104 252.603 503.317 252.97C503.537 253.337 503.65 253.767 503.657 254.26C503.657 254.393 503.647 254.53 503.627 254.67H499.767V254.73C499.794 255.177 499.934 255.53 500.187 255.79C500.44 256.05 500.777 256.18 501.197 256.18C501.53 256.18 501.81 256.103 502.037 255.95C502.264 255.79 502.414 255.567 502.487 255.28H503.567C503.474 255.8 503.22 256.227 502.807 256.56C502.4 256.893 501.89 257.06 501.277 257.06C500.744 257.06 500.277 256.953 499.877 256.74C499.484 256.52 499.177 256.213 498.957 255.82C498.744 255.427 498.637 254.97 498.637 254.45ZM502.557 253.88C502.51 253.507 502.36 253.217 502.107 253.01C501.86 252.797 501.547 252.69 501.167 252.69C500.814 252.69 500.507 252.8 500.247 253.02C499.994 253.233 499.847 253.52 499.807 253.88H502.557Z" fill="white"/>
<rect opacity="0.25" x="56" y="143" width="152" height="8" rx="2" fill="#29063E"/>
<rect width="574" height="65" transform="translate(0 60)" fill="#F5F3F6"/>
<rect x="56" y="80" width="152" height="8" rx="3" fill="#0D2EDE" fill-opacity="0.5"/>
<mask id="path-54-inside-1_9753_136204" fill="white">
<path d="M56 100H123V125H56V100Z"/>
</mask>
<path d="M56 100H123V125H56V100Z" fill="white"/>
<rect opacity="0.25" x="66" y="110" width="47" height="5" rx="2" fill="#29063E"/>
<path d="M56 101H123V99H56V101Z" fill="#E98139" mask="url(#path-54-inside-1_9753_136204)"/>
<rect opacity="0.25" x="133" y="110" width="38" height="5" rx="2" fill="#29063E"/>
<rect opacity="0.25" x="191" y="110" width="57" height="5" rx="2" fill="#29063E"/>
<rect opacity="0.25" x="268" y="110" width="37" height="5" rx="2" fill="#29063E"/>
<rect opacity="0.25" x="325" y="110" width="26" height="5" rx="2" fill="#29063E"/>
<rect opacity="0.25" x="371" y="110" width="47" height="5" rx="2" fill="#29063E"/>
<rect x="56" y="208" width="295" height="6" fill="#F34B7D"/>
<rect x="351" y="208" width="85" height="6" fill="#3572A5"/>
<rect x="436" y="208" width="28" height="6" fill="#E34B26"/>
<rect x="464" y="208" width="23" height="6" fill="#75D275"/>
<rect x="487" y="208" width="13" height="6" fill="#5EC8DB"/>
<rect x="500" y="208" width="11" height="6" fill="#01ADD8"/>
<rect x="511" y="208" width="8" height="6" fill="#EAE6EC"/>
<rect opacity="0.25" x="56" y="196" width="47" height="5" rx="2" fill="#29063E"/>
<rect opacity="0.25" x="128" y="196" width="37" height="5" rx="2" fill="#29063E"/>
<rect opacity="0.25" x="190" y="196" width="55" height="5" rx="2" fill="#29063E"/>
<rect x="56" y="218" width="6" height="6" rx="3" fill="#F34B7D"/>
<rect x="132.168" y="218" width="6" height="6" rx="3" fill="#3572A5"/>
<rect x="208.332" y="218" width="6" height="6" rx="3" fill="#E34B26"/>
<rect x="284.5" y="218" width="6" height="6" rx="3" fill="#75D275"/>
<rect x="360.668" y="218" width="6" height="6" rx="3" fill="#5EC8DB"/>
<rect x="436.832" y="218" width="6" height="6" rx="3" fill="#01ADD8"/>
<rect x="513" y="218" width="6" height="6" rx="3" fill="#EAE6EC"/>
<rect x="56" y="161" width="30" height="8" rx="3" fill="#0D2EDE" fill-opacity="0.15"/>
<rect x="90" y="161" width="34" height="8" rx="3" fill="#0D2EDE" fill-opacity="0.15"/>
<rect x="128" y="161" width="21" height="8" rx="3" fill="#0D2EDE" fill-opacity="0.15"/>
<rect x="153" y="161" width="30" height="8" rx="3" fill="#0D2EDE" fill-opacity="0.15"/>
<rect x="187" y="161" width="34" height="8" rx="3" fill="#0D2EDE" fill-opacity="0.15"/>
<rect x="225" y="161" width="21" height="8" rx="3" fill="#0D2EDE" fill-opacity="0.15"/>
<rect x="250" y="161" width="30" height="8" rx="3" fill="#0D2EDE" fill-opacity="0.15"/>
<rect x="284" y="161" width="60" height="8" rx="3" fill="#0D2EDE" fill-opacity="0.15"/>
<defs>
<clipPath id="clip0_9753_136204">
<rect width="24" height="24" fill="white" transform="translate(10 28)"/>
</clipPath>
<clipPath id="clip1_9753_136204">
<rect width="16" height="16" fill="white" transform="translate(66 400)"/>
</clipPath>
<clipPath id="clip2_9753_136204">
<rect width="16" height="16" fill="white" transform="translate(66 376)"/>
</clipPath>
<clipPath id="clip3_9753_136204">
<rect width="16" height="16" fill="white" transform="translate(66 352)"/>
</clipPath>
<clipPath id="clip4_9753_136204">
<rect width="16" height="16" fill="white" transform="translate(66 328)"/>
</clipPath>
<clipPath id="clip5_9753_136204">
<rect width="16" height="16" fill="white" transform="translate(66 304)"/>
</clipPath>
<clipPath id="clip6_9753_136204">
<rect width="16" height="16" fill="white" transform="translate(66 280)"/>
</clipPath>
</defs>
</svg>
