<svg width="295" height="80" viewBox="0 0 295 80" fill="none" xmlns="http://www.w3.org/2000/svg">
<mask id="mask0_13368_57415" style="mask-type:luminance" maskUnits="userSpaceOnUse" x="57" y="19" width="181" height="42">
<path d="M237.256 19.7542H57.7437V60.2457H237.256V19.7542Z" fill="white"/>
</mask>
<g mask="url(#mask0_13368_57415)">
<path d="M77.4203 19.7542C66.5532 19.7542 57.7437 28.3474 57.7437 38.9479C57.7437 49.5485 66.5532 58.1417 77.4203 58.1417C88.2877 58.1417 97.0972 49.5485 97.0972 38.9479C97.0972 28.3474 88.2877 19.7542 77.4203 19.7542ZM79.1855 51.5737C79.1786 51.5737 79.174 51.5737 79.1672 51.5737C79.1326 51.5737 79.1003 51.5623 79.075 51.5399C79.045 51.5152 79.0288 51.4769 79.0288 51.4387V46.1071C79.0288 46.044 79.0726 45.9901 79.1349 45.9767C81.8194 45.3608 83.9601 43.2703 84.5938 40.6495C84.6077 40.5888 84.663 40.5461 84.7275 40.5461H90.1911C90.2302 40.5461 90.2694 40.5618 90.2948 40.591C90.3201 40.6202 90.3339 40.6584 90.327 40.6989C89.5574 46.3498 84.974 50.8207 79.1855 51.5737ZM90.198 37.471C90.1956 37.471 90.1934 37.471 90.1911 37.471H84.7251C84.6606 37.471 84.6053 37.4284 84.5916 37.3677C83.8057 34.1084 80.8676 31.8337 77.448 31.8337C73.3901 31.8337 70.0903 35.0525 70.0903 39.0108C70.0903 42.3465 72.4224 45.2125 75.7636 45.9788C75.8258 45.9924 75.8697 46.0463 75.8697 46.1093V51.441C75.8697 51.4792 75.8535 51.5152 75.8235 51.5421C75.7981 51.5647 75.7659 51.5758 75.7314 51.5758C75.7244 51.5758 75.7198 51.5758 75.7129 51.5758C69.2861 50.7374 64.4401 45.3361 64.4401 39.0131C64.4401 32.0157 70.2769 26.3222 77.448 26.3222C83.9187 26.3222 89.4444 31.0312 90.3224 37.2801C90.3315 37.2981 90.3361 37.3182 90.3361 37.3385C90.3361 37.4104 90.274 37.471 90.198 37.471Z" fill="black"/>
<path d="M108.441 38.9742C108.441 37.194 108.787 35.497 109.481 33.8831C110.174 32.2692 111.117 30.8755 112.313 29.7022C113.509 28.5289 114.947 27.5938 116.631 26.897C118.313 26.2024 120.101 25.854 121.996 25.854C123.89 25.854 125.666 26.2047 127.326 26.906C128.985 27.6073 130.443 28.5873 131.697 29.8438L128.821 32.9997C127.042 30.9744 124.765 29.9607 121.993 29.9607C120.339 29.9607 118.822 30.372 117.442 31.197C116.062 32.0219 114.981 33.1255 114.2 34.5101C113.419 35.8948 113.027 37.3963 113.027 39.008C113.027 40.6332 113.43 42.1301 114.235 43.499C115.039 44.8679 116.131 45.9513 117.511 46.7448C118.892 47.5406 120.399 47.9383 122.03 47.9383C123.228 47.9383 124.418 47.6799 125.597 47.1629C126.777 46.6458 127.784 45.9693 128.618 45.1354L131.321 48.2733C130.065 49.4534 128.648 50.3772 127.067 51.0449C125.487 51.7125 123.807 52.0473 122.028 52.0473C119.576 52.0473 117.311 51.4764 115.232 50.3368C113.154 49.1971 111.504 47.6214 110.278 45.612C109.054 43.6024 108.441 41.3906 108.441 38.9742ZM134.317 51.5955V26.2878H138.628V36.5601C139.05 36.2477 139.407 36.005 139.698 35.832C139.988 35.6588 140.437 35.4857 141.041 35.3127C141.645 35.1395 142.302 35.052 143.009 35.052C143.945 35.052 144.811 35.1912 145.61 35.4699C146.41 35.7487 147.127 36.1645 147.767 36.7219C148.406 37.2795 148.906 38.0279 149.265 38.9675C149.625 39.9071 149.804 40.995 149.804 42.2313V51.5955H145.491V42.9259C145.491 40.3701 144.343 39.0911 142.05 39.0911C139.769 39.0911 138.628 40.3477 138.628 42.8584V51.5932H134.317V51.5955ZM153.554 31.8803C153.028 31.3678 152.765 30.7407 152.765 29.9944C152.765 29.2481 153.028 28.6233 153.554 28.1153C154.079 27.6095 154.729 27.3555 155.506 27.3555C156.27 27.3555 156.908 27.605 157.423 28.1063C157.937 28.6075 158.192 29.2369 158.192 29.9922C158.192 30.7496 157.937 31.3813 157.423 31.887C156.908 32.3928 156.27 32.6468 155.506 32.6468C154.729 32.6491 154.077 32.3928 153.554 31.8803ZM153.33 51.5955V35.3531H157.641V51.5955H153.33ZM161.529 60.2426V35.3531H165.84V36.5601C167.107 35.5554 168.647 35.052 170.461 35.052C172.907 35.052 174.988 35.8769 176.703 37.5245C178.418 39.1721 179.274 41.1771 179.274 43.5395C179.274 45.0746 178.885 46.4954 178.105 47.8013C177.323 49.1072 176.256 50.1413 174.901 50.9031C173.546 51.6652 172.066 52.0452 170.461 52.0452C168.647 52.0452 167.106 51.5439 165.84 50.5436V60.2426H161.529ZM165.842 43.7395C165.901 44.906 166.375 45.9087 167.271 46.7471C168.168 47.5855 169.23 48.0058 170.463 48.0058C171.719 48.0058 172.795 47.5652 173.698 46.6819C174.599 45.7985 175.051 44.751 175.051 43.5417C175.051 42.3414 174.599 41.3008 173.698 40.4173C172.797 39.5339 171.719 39.0933 170.463 39.0933C169.23 39.0933 168.168 39.516 167.271 40.3589C166.375 41.2041 165.901 42.202 165.842 43.3574V43.7395ZM181.741 60.2426V35.3531H186.052V36.5601C187.319 35.5554 188.859 35.052 190.671 35.052C193.118 35.052 195.2 35.8769 196.914 37.5245C198.628 39.1721 199.487 41.1771 199.487 43.5395C199.487 45.0746 199.097 46.4954 198.315 47.8013C197.535 49.1072 196.467 50.1413 195.112 50.9031C193.757 51.6652 192.278 52.0452 190.671 52.0452C188.859 52.0452 187.317 51.5439 186.052 50.5436V60.2426H181.741ZM186.054 43.7395C186.111 44.906 186.586 45.9087 187.483 46.7471C188.379 47.5855 189.441 48.0058 190.674 48.0058C191.93 48.0058 193.007 47.5652 193.909 46.6819C194.811 45.7985 195.262 44.751 195.262 43.5417C195.262 42.3414 194.811 41.3008 193.909 40.4173C193.008 39.5339 191.93 39.0933 190.674 39.0933C189.441 39.0933 188.379 39.516 187.483 40.3589C186.586 41.2041 186.111 42.202 186.054 43.3574V43.7395ZM201.149 43.6317C201.149 42.4853 201.351 41.3929 201.758 40.3522C202.163 39.3114 202.73 38.3988 203.462 37.6144C204.191 36.8299 205.102 36.2073 206.189 35.7442C207.28 35.2834 208.468 35.052 209.756 35.052C211.353 35.052 212.796 35.4408 214.086 36.2208C215.374 37.0007 216.374 38.0324 217.081 39.3181C217.788 40.6039 218.143 42.0088 218.143 43.5328C218.143 44.0115 218.107 44.4567 218.038 44.8679H205.342C205.592 45.8861 206.124 46.6999 206.941 47.309C207.756 47.9181 208.769 48.2216 209.978 48.2216C210.776 48.2216 211.54 48.0732 212.271 47.7743C213.001 47.4754 213.6 47.0258 214.067 46.4279L217.01 48.7071C216.257 49.7478 215.26 50.5615 214.015 51.155C212.771 51.7461 211.437 52.0428 210.01 52.0428C208.366 52.0428 206.866 51.6764 205.509 50.9414C204.152 50.2064 203.085 49.1949 202.308 47.9024C201.54 46.6144 201.149 45.1893 201.149 43.6317ZM205.498 41.7795H213.797C213.673 40.9568 213.223 40.2667 212.445 39.7093C211.669 39.1541 210.763 38.8754 209.724 38.8754C208.731 38.8754 207.861 39.1407 207.107 39.6688C206.352 40.1971 205.816 40.9007 205.498 41.7795ZM220.825 51.5955V35.3531H225.135V36.5601C225.933 35.9803 226.792 35.5824 227.711 35.3711C228.631 35.1598 229.906 35.052 231.537 35.052V39.0911C230.455 39.0911 229.526 39.1518 228.755 39.2755C227.986 39.3968 227.366 39.5677 226.898 39.7835C226.431 39.9992 226.066 40.2981 225.803 40.6758C225.542 41.0534 225.363 41.4513 225.274 41.8672C225.181 42.283 225.138 42.7932 225.138 43.3934V51.5955H220.825ZM231.537 28.5918C231.537 28.2816 231.599 27.9849 231.723 27.7039C231.849 27.4229 232.015 27.1802 232.224 26.9779C232.433 26.7756 232.683 26.6138 232.97 26.4946C233.261 26.3755 233.563 26.3148 233.878 26.3148C234.194 26.3148 234.496 26.3755 234.785 26.4946C235.071 26.616 235.319 26.7778 235.525 26.9801C235.733 27.1825 235.9 27.4274 236.021 27.7084C236.144 27.9894 236.206 28.2816 236.206 28.5873C236.206 28.893 236.144 29.1852 236.021 29.4684C235.897 29.7517 235.733 29.9944 235.524 30.1989C235.316 30.4035 235.067 30.5653 234.779 30.689C234.492 30.8103 234.189 30.871 233.872 30.871C233.45 30.871 233.061 30.7698 232.701 30.5676C232.344 30.3653 232.058 30.0889 231.849 29.7381C231.641 29.3875 231.537 29.0054 231.537 28.5918ZM231.977 28.5918C231.977 28.839 232.026 29.0728 232.124 29.2976C232.224 29.5224 232.357 29.7157 232.526 29.8798C232.694 30.0439 232.895 30.1742 233.13 30.2732C233.364 30.3697 233.612 30.4192 233.873 30.4192C234.219 30.4192 234.54 30.3361 234.83 30.172C235.12 30.0079 235.351 29.7853 235.517 29.5044C235.685 29.2257 235.768 28.92 235.768 28.5896C235.768 28.2546 235.685 27.9422 235.517 27.6567C235.351 27.3713 235.12 27.142 234.825 26.9734C234.533 26.8048 234.212 26.7194 233.866 26.7194C233.521 26.7194 233.202 26.8048 232.912 26.9734C232.622 27.142 232.394 27.369 232.227 27.6567C232.061 27.9422 231.977 28.2546 231.977 28.5918ZM232.957 29.882V27.2881H233.768C233.869 27.2881 233.957 27.2903 234.028 27.2926C234.1 27.2948 234.18 27.3038 234.27 27.3151C234.36 27.3263 234.436 27.342 234.496 27.3623C234.557 27.3825 234.62 27.4095 234.683 27.4477C234.746 27.4837 234.795 27.5286 234.834 27.5781C234.873 27.6275 234.904 27.6904 234.929 27.7669C234.951 27.8433 234.967 27.9287 234.967 28.0231C234.967 28.4412 234.746 28.6974 234.306 28.7963L234.967 29.8888H234.433L233.797 28.8323H233.401V29.8843H232.957V29.882ZM233.401 28.4434H233.885C233.98 28.4434 234.063 28.4389 234.13 28.43C234.196 28.421 234.261 28.4052 234.321 28.3783C234.384 28.3535 234.429 28.3131 234.462 28.2591C234.494 28.2052 234.51 28.1377 234.51 28.0546C234.51 27.9062 234.459 27.8051 234.355 27.7556C234.251 27.7062 234.095 27.6792 233.885 27.6792H233.401V28.4434Z" fill="black"/>
</g>
</svg>
