<svg width="320" height="80" viewBox="0 0 320 80" fill="none" xmlns="http://www.w3.org/2000/svg">
<path d="M143.24 36.3367C142.678 35.855 142.076 35.4937 141.393 35.2127C140.59 34.8915 139.747 34.6105 138.904 34.3697C138.101 34.1689 137.419 33.9682 136.937 33.8076C136.495 33.6872 136.094 33.5266 135.693 33.2858C135.452 33.1653 135.211 32.9646 135.09 32.6836C134.97 32.4427 134.89 32.1617 134.93 31.9208V31.8807C134.93 31.4391 135.131 30.9975 135.532 30.7165C136.054 30.3552 136.696 30.1946 137.298 30.2749C138.101 30.2749 138.904 30.4355 139.667 30.7567C140.51 31.118 141.353 31.5595 142.116 32.0814L144.243 29.0304C143.32 28.2677 142.236 27.7057 141.112 27.2641C139.908 26.8626 138.663 26.6619 137.379 26.6619C136.495 26.6619 135.612 26.7823 134.769 27.0634C134.006 27.3042 133.324 27.6655 132.722 28.1874C131.558 29.191 130.875 30.6764 130.915 32.242V32.2821C130.875 33.085 131.036 33.8478 131.357 34.5704C131.638 35.1726 132.039 35.6944 132.601 36.136C133.204 36.5776 133.846 36.9389 134.528 37.1798C135.371 37.4608 136.214 37.7418 137.057 37.9425C137.82 38.1432 138.463 38.3038 138.944 38.5045C139.346 38.625 139.707 38.8257 140.068 39.0264C140.309 39.1469 140.51 39.3476 140.63 39.5884C140.711 39.7892 140.791 40.03 140.791 40.2709V40.311C140.791 40.8329 140.55 41.3147 140.108 41.5957C139.506 41.957 138.824 42.1176 138.141 42.0774C137.138 42.0774 136.134 41.8767 135.211 41.4752C134.287 41.0337 133.404 40.5118 132.601 39.8293L130.193 42.7197C131.277 43.6832 132.521 44.4459 133.926 44.9678C135.251 45.4495 136.656 45.6904 138.061 45.7306C138.984 45.7306 139.908 45.6101 140.791 45.3291C141.554 45.0882 142.316 44.7269 142.919 44.2051C143.521 43.7233 144.002 43.1212 144.324 42.3986C144.645 41.6358 144.805 40.7928 144.805 39.9497V39.9096V39.8695C144.805 39.1469 144.685 38.4243 144.404 37.7819C144.123 37.2199 143.721 36.7382 143.24 36.3367ZM276.439 26.9028V38.2637L267.768 26.9028H263.994V45.3693H268.009V33.6069L276.921 45.3693H280.414V26.9028H276.439ZM161.666 39.9096C161.666 39.187 161.546 38.4644 161.305 37.8221C161.024 37.2601 160.662 36.7382 160.181 36.3367C159.619 35.855 159.016 35.4937 158.334 35.2127C157.531 34.8915 156.688 34.6105 155.845 34.3697C155.042 34.1689 154.4 33.9682 153.878 33.8076C153.436 33.6872 153.035 33.5266 152.634 33.2858C152.393 33.1653 152.152 32.9646 152.031 32.6836C151.911 32.4427 151.831 32.1617 151.871 31.9208V31.8807C151.871 31.4391 152.071 30.9975 152.473 30.7165C152.995 30.3552 153.637 30.1946 154.239 30.2749C155.042 30.2749 155.845 30.4355 156.608 30.7567C157.451 31.118 158.294 31.5595 159.057 32.0814L161.184 29.0304C160.261 28.2677 159.177 27.7057 158.053 27.2641C156.849 26.8626 155.604 26.6619 154.32 26.6619C153.436 26.6619 152.553 26.7823 151.71 27.0634C150.947 27.3042 150.265 27.6655 149.663 28.1473C149.101 28.629 148.659 29.2312 148.338 29.9136C148.017 30.6362 147.856 31.399 147.856 32.2019V32.242C147.816 33.0449 147.977 33.8076 148.298 34.5302C148.579 35.1324 148.98 35.6543 149.542 36.0959C150.145 36.5375 150.787 36.8988 151.469 37.1396C152.312 37.4206 153.155 37.7017 153.998 37.9024C154.761 38.1031 155.403 38.2637 155.885 38.4644C156.287 38.5848 156.648 38.7856 157.009 38.9863C157.25 39.1067 157.451 39.3074 157.571 39.5483C157.652 39.749 157.732 39.9899 157.732 40.2308V40.2709C157.732 40.7928 157.491 41.2745 157.049 41.5555C156.447 41.9168 155.765 42.0774 155.082 42.0373C154.079 42.0373 153.075 41.8365 152.152 41.4351C151.228 40.9935 150.345 40.4315 149.542 39.7892L147.134 42.6796C148.218 43.6431 149.462 44.4058 150.867 44.9277C152.192 45.4094 153.597 45.6503 155.002 45.6904C155.925 45.6904 156.849 45.57 157.732 45.289C158.495 45.0481 159.257 44.6868 159.86 44.1649C160.462 43.6832 160.943 43.081 161.265 42.3584C161.626 41.5957 161.786 40.7526 161.746 39.9096H161.666ZM127.784 36.0959C127.784 34.8112 127.543 33.5668 127.021 32.3624C126.54 31.2384 125.857 30.2348 124.974 29.3917C124.091 28.5086 123.047 27.786 121.883 27.3042C119.354 26.3006 116.544 26.3006 114.014 27.3042C112.85 27.786 111.766 28.4684 110.883 29.3516C110 30.2348 109.318 31.2384 108.836 32.4026C108.354 33.5668 108.073 34.8514 108.073 36.136V36.2565C108.073 37.5411 108.314 38.7856 108.836 39.9899C109.318 41.1139 110 42.1176 110.883 42.9606C111.766 43.8438 112.81 44.5262 113.974 45.008C116.503 46.0116 119.314 46.0116 121.843 45.008C124.171 44.0445 126.018 42.238 127.021 39.9096C127.503 38.7454 127.784 37.4608 127.784 36.1762H127.744V36.0959H127.784ZM123.127 38.4243C122.846 39.1067 122.485 39.7089 122.003 40.2709C121.522 40.7928 120.919 41.2344 120.237 41.5154C119.514 41.7964 118.792 41.957 117.989 41.957C117.226 41.957 116.463 41.7964 115.741 41.4752C115.058 41.1942 114.456 40.7526 113.974 40.2308C113.452 39.7089 113.091 39.0666 112.81 38.3841C112.529 37.6615 112.409 36.8988 112.409 36.136V36.0959C112.409 35.3331 112.529 34.5704 112.81 33.8478C113.051 33.1653 113.412 32.5632 113.894 32.0011C114.376 31.4793 114.978 31.0377 115.66 30.7567C116.383 30.4756 117.106 30.3151 117.909 30.3151C118.671 30.3151 119.434 30.4756 120.157 30.7567C121.522 31.3588 122.605 32.4829 123.127 33.8478C123.408 34.5704 123.529 35.3331 123.529 36.0959V36.1762L123.569 36.136C123.529 36.9791 123.368 37.7418 123.127 38.4243ZM104.179 36.7382C104.942 35.6944 105.343 34.4098 105.263 33.085V33.0449C105.343 31.3588 104.661 29.7129 103.416 28.5889C101.971 27.4247 100.124 26.8626 98.2778 26.9429H89.8475V45.4094H93.9021V39.468H97.1136L101.088 45.4094H105.825L101.289 38.7856C102.453 38.3841 103.416 37.6615 104.179 36.7382ZM101.128 33.2456V33.2858C101.168 34.0084 100.847 34.6908 100.325 35.1726C99.6829 35.6944 98.8399 35.9754 97.9968 35.9353H93.9021V30.5961H97.9567C98.7997 30.5559 99.6428 30.7968 100.325 31.2384C100.887 31.7603 101.208 32.4829 101.128 33.2456ZM223.85 36.698C224.613 35.6543 225.014 34.3295 224.934 33.0449V33.0048C225.014 31.3187 224.332 29.6728 223.087 28.5487C221.642 27.3845 219.795 26.8225 217.949 26.9429H209.518V45.4094H213.573V39.468H216.784L220.759 45.4094L225.496 45.3693L220.96 38.7856C222.124 38.3841 223.087 37.6615 223.85 36.698ZM220.799 33.2456V33.2858C220.839 34.0084 220.518 34.6908 219.996 35.1726C219.354 35.6944 218.511 35.9754 217.668 35.9353H213.533V30.5961H217.587C218.43 30.5559 219.233 30.7968 219.916 31.2384C220.558 31.7201 220.879 32.4829 220.799 33.2456ZM201.489 41.395C200.646 41.7964 199.723 41.9971 198.8 41.957C198.037 41.957 197.314 41.7964 196.632 41.5154C195.99 41.2344 195.387 40.7928 194.906 40.2709C194.424 39.749 194.063 39.1067 193.822 38.4243C193.541 37.7017 193.42 36.9389 193.42 36.1762V36.136C193.42 35.3733 193.541 34.6105 193.822 33.8879C194.063 33.2055 194.464 32.6033 194.946 32.0413C195.909 30.9574 197.355 30.3151 198.8 30.3552C199.683 30.3552 200.526 30.5158 201.329 30.9172C202.132 31.3187 202.894 31.8406 203.577 32.4427L206.146 29.472C205.705 29.0304 205.263 28.6691 204.781 28.3078C204.3 27.9465 203.738 27.6655 203.175 27.4247C202.533 27.1838 201.891 26.9831 201.208 26.8626C200.446 26.7021 199.643 26.6619 198.84 26.6619C197.515 26.6218 196.15 26.8626 194.906 27.3444C193.782 27.8261 192.738 28.5086 191.855 29.3917C191.012 30.2749 190.329 31.2785 189.888 32.4427C189.406 33.6069 189.125 34.8915 189.125 36.1762V36.2966C189.125 37.5812 189.366 38.8257 189.888 40.03C190.369 41.1541 191.012 42.1577 191.895 43.0007C193.701 44.8072 196.15 45.7707 198.679 45.7707C199.482 45.7707 200.325 45.6904 201.128 45.5298C201.811 45.4094 202.493 45.1685 203.135 44.8875C203.738 44.6065 204.3 44.2452 204.821 43.8438C205.343 43.4423 205.825 42.9606 206.307 42.4789L203.738 39.8695C203.015 40.4315 202.292 40.9534 201.489 41.395ZM232.642 37.9024H241.353V34.2894H232.642V30.5559H242.557V26.9028H228.627V45.3693H242.718V41.7563H232.682V37.9024H232.642ZM81.8186 41.395C80.9756 41.7964 80.0522 41.9971 79.1289 41.957C77.6436 41.9971 76.2385 41.3548 75.2349 40.2308C74.7532 39.6687 74.3919 39.0666 74.151 38.3841C73.87 37.6615 73.7495 36.8988 73.7495 36.136V36.0959C73.7495 35.3331 73.87 34.5704 74.151 33.8478C74.3919 33.1653 74.7933 32.5632 75.275 32.0011C76.2385 30.9172 77.6436 30.3151 79.1289 30.3151C80.0121 30.3151 80.8551 30.4756 81.658 30.8771C82.4609 31.2785 83.2236 31.8004 83.9061 32.4026L86.4754 29.4319C86.0338 28.9903 85.5922 28.629 85.1104 28.2677C84.6287 27.9064 84.0667 27.6254 83.5047 27.3845C82.8623 27.1437 82.22 26.9429 81.5777 26.8225C80.815 26.6619 80.0121 26.5816 79.2092 26.5816C77.8844 26.5415 76.5195 26.8225 75.275 27.3444C74.151 27.8261 73.1072 28.5086 72.224 29.3917C70.4978 31.1982 69.4942 33.6069 69.5344 36.136V36.2565C69.5344 37.5411 69.7752 38.7856 70.2971 39.9899C71.2204 42.2781 73.0269 44.0846 75.275 45.008C76.4794 45.5298 77.764 45.7707 79.0486 45.7707C79.8515 45.7707 80.6945 45.6904 81.4974 45.5298C82.1799 45.3693 82.8222 45.1685 83.4645 44.8875C84.0667 44.6065 84.6287 44.2452 85.1506 43.8438C85.6725 43.4022 86.1542 42.9606 86.6359 42.4789L84.0265 39.8695C83.3441 40.4315 82.6215 40.9534 81.8186 41.395ZM186.475 39.9096C186.475 39.187 186.355 38.4644 186.114 37.8221C185.833 37.2601 185.472 36.7382 184.99 36.3367C184.428 35.855 183.826 35.4937 183.143 35.2127C182.34 34.8915 181.497 34.6105 180.654 34.3697C179.852 34.1689 179.209 33.9682 178.687 33.8076C178.246 33.6872 177.844 33.5266 177.443 33.2858C177.162 33.1653 176.961 32.9646 176.801 32.6836C176.68 32.4427 176.64 32.1617 176.64 31.9208V31.8807C176.64 31.4391 176.881 30.9975 177.242 30.7165C177.764 30.3552 178.406 30.1946 179.008 30.2749C179.811 30.2749 180.614 30.4355 181.377 30.7567C182.22 31.118 183.023 31.5595 183.786 32.0814L185.913 29.0304C184.99 28.2677 183.906 27.7057 182.782 27.2641C181.578 26.8626 180.333 26.6619 179.049 26.6619C178.165 26.6619 177.282 26.7823 176.439 27.0634C175.676 27.3042 174.994 27.6655 174.392 28.1874C173.228 29.191 172.545 30.6764 172.585 32.2019V32.242C172.545 33.0449 172.706 33.8076 173.027 34.5302C173.308 35.1324 173.709 35.6543 174.271 36.0959C174.874 36.5375 175.516 36.8988 176.198 37.1396C177.041 37.4206 177.884 37.7017 178.727 37.9024C179.49 38.1031 180.133 38.2637 180.614 38.4644C181.016 38.5848 181.377 38.7856 181.738 38.9863C181.979 39.1067 182.14 39.3074 182.3 39.5483C182.421 39.749 182.461 39.9899 182.461 40.2308V40.2709C182.461 40.7928 182.22 41.2745 181.778 41.5555C181.176 41.9168 180.494 42.0774 179.811 42.0373C178.808 42.0373 177.804 41.8365 176.881 41.4351C175.957 40.9935 175.074 40.4315 174.271 39.7892L171.863 42.6796C172.947 43.6431 174.191 44.4058 175.596 44.9277C176.921 45.4094 178.326 45.6503 179.731 45.6904C180.654 45.6904 181.578 45.57 182.501 45.289C183.264 45.0481 183.986 44.6868 184.629 44.1649C185.231 43.6832 185.672 43.0409 185.994 42.3584C186.355 41.5957 186.515 40.7526 186.475 39.9096ZM250.345 37.9024H259.057V34.2894H250.345V30.5559H260.261V26.9028H246.331V45.3693H260.422V41.7563H250.385V37.9024H250.345ZM195.428 61.3468L197.515 61.3066V51.7924H195.428V61.3468ZM133.966 55.847L131.477 51.8325H129.229V61.3869H131.277V55.2047L133.966 59.2191L136.656 55.1645V61.3869H138.744V51.8325H136.495L133.966 55.847ZM180.574 53.2376C180.092 52.796 179.571 52.4748 178.968 52.234C178.326 51.9931 177.603 51.8727 176.921 51.8727H173.188V61.3468H176.921C177.603 61.3468 178.326 61.2263 178.968 60.9855C179.571 60.7446 180.092 60.4235 180.574 59.9819C181.016 59.5804 181.377 59.0585 181.618 58.4965C181.859 57.8944 181.979 57.252 181.979 56.6097V56.5696C181.979 55.9273 181.859 55.285 181.618 54.6828C181.377 54.1609 181.016 53.639 180.574 53.2376ZM179.53 57.7338C179.41 58.0549 179.209 58.3761 178.968 58.617C178.727 58.8578 178.406 59.0585 178.045 59.179C177.684 59.3396 177.282 59.3797 176.881 59.3797H175.275V53.639H176.881C177.282 53.639 177.684 53.7193 178.045 53.8398C178.366 53.9602 178.687 54.1609 178.968 54.4419C179.209 54.7229 179.41 55.0039 179.53 55.3652C179.691 55.7265 179.731 56.128 179.731 56.5294C179.771 56.971 179.691 57.3725 179.53 57.7338ZM214.697 51.7121L210.602 61.3066H212.77L213.653 59.179H217.668L218.551 61.3066H220.719L216.624 51.7121H214.697ZM214.376 57.3725L215.66 54.2813L216.945 57.3725H214.376ZM154.601 57.4929H159.057V55.6463H154.601V53.7193H159.699V51.8727H152.553V61.4271H159.819V59.5403H154.601V57.4929Z" fill="black"/>
<path d="M47.8564 40.9531V44.1647V47.3762L50.6666 45.7705L53.4767 44.1647L50.6666 42.5589L47.8564 40.9531Z" fill="black"/>
<path d="M57.9726 26.983H52.0312C51.9108 26.7823 51.7502 26.5816 51.5495 26.421L58.2536 19.7169C58.4945 19.8373 58.8157 19.7972 59.0164 19.5964C59.2572 19.3556 59.2572 18.9943 59.0164 18.7534C58.7755 18.5125 58.4142 18.5125 58.1733 18.7534C57.9726 18.9541 57.9325 19.2351 58.0529 19.4359L51.3086 26.1801C50.9875 26.0196 50.6262 25.8991 50.2649 25.8991C49.8634 25.8991 49.4218 26.0196 49.1007 26.2604L44.2833 21.4431C44.4038 21.2022 44.3636 20.9212 44.1629 20.7205C43.922 20.4796 43.5607 20.4796 43.3199 20.7205C43.079 20.9614 43.079 21.3227 43.3199 21.5635C43.5206 21.7642 43.8016 21.8044 44.0023 21.6839L48.7795 26.4612C48.6189 26.5816 48.4985 26.7422 48.4182 26.9429H42.3564C40.8309 26.983 39.5864 28.2275 39.5864 29.753V58.5366C39.5864 60.0621 40.8309 61.3066 42.3564 61.3066H57.9726C59.4981 61.3066 60.7426 60.0621 60.7426 58.5366V29.753C60.7426 28.2275 59.4981 26.983 57.9726 26.983ZM59.5784 58.5366C59.5784 59.4599 58.8558 60.1825 57.9325 60.1825V60.2227H42.3163C41.3929 60.2227 40.6703 59.5001 40.6703 58.5768C40.6703 58.5768 40.6703 58.5768 40.6703 58.5366V29.753C40.6703 28.8297 41.3929 28.1071 42.3163 28.1071H57.9325C58.8558 28.1071 59.5784 28.8297 59.5784 29.753V58.5366Z" fill="black"/>
</svg>
