<svg width="295" height="80" viewBox="0 0 295 80" fill="none" xmlns="http://www.w3.org/2000/svg">
<path fill-rule="evenodd" clip-rule="evenodd" d="M215.425 44.2511C215.271 44.0973 215.097 43.9777 214.906 43.9C214.716 43.8214 214.509 43.7821 214.29 43.7821C214.071 43.7821 213.864 43.8214 213.674 43.9C213.483 43.9786 213.31 44.0964 213.155 44.2511C213.001 44.4057 212.882 44.5808 212.803 44.7729C212.725 44.9651 212.685 45.1744 212.685 45.3965C212.685 45.6152 212.725 45.8219 212.803 46.0132C212.882 46.2045 213 46.3796 213.154 46.5351C213.308 46.6914 213.482 46.8118 213.674 46.8913C213.864 46.9716 214.071 47.0109 214.29 47.0109C214.509 47.0109 214.716 46.9716 214.907 46.8913C215.098 46.8118 215.271 46.6914 215.426 46.5351C215.579 46.3796 215.699 46.2045 215.777 46.0141C215.856 45.8219 215.895 45.6152 215.895 45.3965C215.895 45.1744 215.856 44.9651 215.778 44.7729C215.698 44.5808 215.579 44.4057 215.425 44.2519V44.2511ZM230.883 42.7136C230.455 43.4763 229.847 44.0785 229.05 44.5269C228.252 44.9754 227.413 45.1983 226.524 45.1992C225.642 45.1992 224.822 44.9745 224.053 44.5218C223.284 44.0708 222.674 43.4422 222.216 42.6298C221.759 41.8167 221.533 40.9702 221.533 40.0819C221.533 39.1858 221.758 38.3394 222.211 37.5347C222.664 36.7301 223.27 36.11 224.035 35.6667C224.799 35.2225 225.629 35.0013 226.536 35.0013C227.241 35.0013 227.887 35.1243 228.477 35.3686C229.067 35.6129 229.602 35.9784 230.085 36.4704C230.567 36.9607 230.926 37.5091 231.166 38.1181C231.405 38.7263 231.527 39.396 231.527 40.1297C231.527 41.0923 231.312 41.9499 230.883 42.7136V42.7136ZM231.42 33.1042V35.5582C230.815 34.8023 230.127 34.2189 229.353 33.8123C228.47 33.3493 227.482 33.1178 226.398 33.1187C225.46 33.1187 224.586 33.287 223.779 33.6261C222.973 33.9652 222.236 34.4734 221.569 35.1473C220.902 35.8213 220.399 36.567 220.065 37.3827C219.73 38.1967 219.562 39.0808 219.563 40.0298C219.563 40.9975 219.728 41.8961 220.059 42.7221C220.392 43.5481 220.89 44.3006 221.551 44.9771C222.211 45.6527 222.943 46.1627 223.745 46.5026C224.546 46.8426 225.417 47.0117 226.35 47.0117C227.403 47.0117 228.376 46.7931 229.266 46.3549C230.054 45.9662 230.772 45.4102 231.42 44.6875V47.0245H233.342V33.1042H231.42V33.1042ZM237.642 33.2434V47.0237H239.587V33.1042H237.642V33.2434ZM240.012 29.0546C239.938 28.8752 239.826 28.7103 239.679 28.5643C239.534 28.4174 239.37 28.3055 239.189 28.2312C239.01 28.1551 238.814 28.1184 238.609 28.1184C238.405 28.1184 238.213 28.1551 238.035 28.2303C237.857 28.3055 237.694 28.4182 237.548 28.5634C237.403 28.7103 237.291 28.8752 237.216 29.0554C237.142 29.2348 237.105 29.4313 237.105 29.638C237.105 29.8404 237.142 30.0335 237.216 30.212C237.291 30.3905 237.403 30.5536 237.548 30.6988C237.694 30.8458 237.857 30.9577 238.035 31.0328C238.213 31.108 238.405 31.1447 238.608 31.1439C238.814 31.1447 239.009 31.108 239.189 31.0328C239.369 30.9585 239.534 30.8458 239.68 30.6997C239.825 30.5536 239.937 30.3905 240.012 30.212C240.086 30.0335 240.123 29.8404 240.123 29.638C240.123 29.4313 240.086 29.2357 240.012 29.0546V29.0546ZM73.2641 40.6892C72.9737 40.6943 72.6969 40.8113 72.4919 41.0163L67.085 46.5172C66.0874 47.6908 66.8501 49.0976 67.6539 50.3951C68.1775 51.0519 68.1322 51.3475 69.0078 51.8659C70.014 52.4613 71.1731 53.043 72.6269 53.5726C73.2043 53.7929 73.9252 54.162 74.4129 54.162C75.7685 54.162 76.3288 53.9535 76.7089 53.5786C77.7818 52.5211 81.0925 49.3624 81.0925 49.3624C81.2975 49.1574 81.4154 48.8806 81.4205 48.5911L81.406 41.8397C81.4162 41.2188 80.9157 40.7131 80.2973 40.7131H80.2785L73.2641 40.6892V40.6892ZM73.663 42.717L78.5343 42.7341C79.0015 42.7358 79.3799 43.1133 79.3799 43.5797L79.3902 48.1836C78.5445 48.9917 74.8545 52.4946 73.9611 53.3753C73.9559 53.3804 74.0542 53.324 73.2649 53.324C72.9848 53.324 73.2547 53.1267 72.9514 53.0105L72.3945 52.8192C70.9373 52.2896 70.2309 52.0334 69.4152 51.5508C68.8608 51.2228 68.5815 50.138 68.1878 49.6733C67.9811 49.218 68.157 48.4202 68.5926 47.8753L73.663 42.7161V42.717Z" fill="#0EC88F"/>
<path fill-rule="evenodd" clip-rule="evenodd" d="M77.0205 46.0728C77.5859 46.0728 78.0438 45.615 78.0438 45.0512C78.0438 44.4866 77.5859 44.0288 77.0205 44.0288C76.4559 44.0288 75.998 44.4866 75.998 45.0512C75.998 45.615 76.4559 46.0728 77.0205 46.0728Z" fill="#0EC88F"/>
<path fill-rule="evenodd" clip-rule="evenodd" d="M109.622 42.7137C109.194 43.4765 108.586 44.0786 107.789 44.5271C106.991 44.9755 106.151 45.1985 105.262 45.1993C104.381 45.1993 103.561 44.9747 102.791 44.522C102.022 44.071 101.412 43.4423 100.954 42.63C100.497 41.8168 100.271 40.9703 100.271 40.082C100.271 39.186 100.496 38.3395 100.949 37.5349C101.402 36.7303 102.008 36.1101 102.773 35.6668C103.538 35.2226 104.368 35.0014 105.274 35.0014C105.98 35.0014 106.626 35.1244 107.216 35.3687C107.806 35.613 108.341 35.9786 108.823 36.4706C109.305 36.9609 109.664 37.5093 109.904 38.1183C110.144 38.7264 110.266 39.3961 110.266 40.1298C110.266 41.0925 110.05 41.9501 109.622 42.7137V42.7137ZM110.158 24.3047V35.5575C109.554 34.8015 108.865 34.2181 108.091 33.8116C107.209 33.3486 106.22 33.1171 105.137 33.118C104.198 33.118 103.324 33.2863 102.518 33.6254C101.712 33.9645 100.974 34.4727 100.308 35.1466C99.6406 35.8206 99.1375 36.5662 98.8036 37.382C98.4679 38.196 98.3013 39.0801 98.3013 40.029C98.3013 40.9968 98.4662 41.8954 98.7984 42.7214C99.1298 43.5474 99.6278 44.2999 100.289 44.9764C100.949 45.652 101.681 46.162 102.484 46.5019C103.285 46.8419 104.155 47.011 105.089 47.011C106.141 47.011 107.115 46.7923 108.005 46.3541C108.793 45.9655 109.511 45.4094 110.157 44.6868V47.0238H112.079V24.3047H110.159H110.158ZM127.391 42.7137C126.963 43.4765 126.355 44.0786 125.558 44.5271C124.759 44.9755 123.92 45.1985 123.031 45.1993C122.15 45.1993 121.33 44.9747 120.56 44.522C119.791 44.071 119.181 43.4423 118.724 42.63C118.267 41.8168 118.04 40.9703 118.039 40.082C118.039 39.186 118.265 38.3395 118.718 37.5349C119.17 36.7303 119.777 36.1101 120.541 35.6668C121.307 35.2226 122.137 35.0014 123.043 35.0014C123.749 35.0014 124.394 35.1244 124.985 35.3687C125.574 35.613 126.11 35.9786 126.591 36.4706C127.074 36.9609 127.434 37.5093 127.674 38.1183C127.913 38.7264 128.034 39.3961 128.034 40.1298C128.034 41.0925 127.82 41.9501 127.391 42.7137V42.7137ZM127.926 33.1043V35.5583C127.322 34.8024 126.634 34.219 125.859 33.8124C124.977 33.3495 123.99 33.118 122.906 33.1188C121.968 33.1188 121.093 33.2871 120.287 33.6262C119.48 33.9653 118.742 34.4735 118.076 35.1475C117.41 35.8214 116.907 36.5671 116.572 37.3828C116.237 38.1969 116.07 39.0809 116.07 40.0299C116.07 40.9977 116.235 41.8963 116.567 42.7222C116.899 43.5482 117.397 44.3007 118.058 44.9772C118.718 45.6529 119.45 46.1628 120.253 46.5028C121.054 46.8427 121.923 47.0119 122.858 47.0119C123.91 47.0119 124.884 46.7932 125.773 46.355C126.561 45.9664 127.28 45.4103 127.926 44.6877V47.0247H129.848V33.1043H127.926ZM137.798 28.6421H135.853V28.7805V33.1043H133.577V34.822H135.853V46.6779H137.798V34.822H140.443V33.1043H137.798V28.6421ZM154.48 42.7137C154.051 43.4765 153.443 44.0786 152.646 44.5271C151.848 44.9755 151.009 45.1985 150.119 45.1993C149.239 45.1993 148.418 44.9747 147.648 44.522C146.879 44.071 146.27 43.4423 145.813 42.63C145.355 41.8168 145.128 40.9703 145.128 40.082C145.128 39.186 145.353 38.3395 145.807 37.5349C146.259 36.7303 146.866 36.1101 147.63 35.6668C148.395 35.2226 149.226 35.0014 150.131 35.0014C150.838 35.0014 151.483 35.1244 152.074 35.3687C152.663 35.613 153.199 35.9786 153.68 36.4706C154.162 36.9609 154.522 37.5093 154.762 38.1183C155.002 38.7264 155.123 39.3961 155.123 40.1298C155.123 41.0925 154.908 41.9501 154.48 42.7137V42.7137ZM155.015 33.1043V35.5583C154.412 34.8024 153.722 34.219 152.948 33.8124C152.066 33.3495 151.079 33.118 149.995 33.1188C149.056 33.1188 148.182 33.2871 147.376 33.6262C146.569 33.9653 145.831 34.4735 145.165 35.1475C144.498 35.8214 143.995 36.5671 143.66 37.3828C143.326 38.1969 143.159 39.0809 143.159 40.0299C143.159 40.9977 143.324 41.8963 143.656 42.7222C143.987 43.5482 144.485 44.3007 145.146 44.9772C145.807 45.6529 146.539 46.1628 147.341 46.5028C148.143 46.8427 149.012 47.0119 149.946 47.0119C150.998 47.0119 151.973 46.7932 152.862 46.355C153.65 45.9664 154.368 45.4103 155.015 44.6877V47.0247H156.937V33.1043H155.015ZM163.157 35.4524C163.338 35.285 163.536 35.162 163.751 35.0783C163.966 34.9954 164.199 34.9536 164.456 34.9536C164.857 34.9536 165.267 35.0561 165.687 35.2636C166.107 35.4721 166.537 35.7873 166.975 36.2118L167.075 36.3083L168.34 35.0023L168.241 34.9066C167.627 34.3155 167.014 33.8688 166.396 33.569C165.78 33.27 165.159 33.1171 164.539 33.118C164.011 33.118 163.525 33.2017 163.083 33.3708C162.641 33.5399 162.243 33.7945 161.895 34.1327C161.546 34.4701 161.282 34.8536 161.106 35.2807C160.931 35.7078 160.843 36.1768 160.843 36.6841C160.843 37.464 161.064 38.167 161.503 38.7768C161.725 39.0852 162.04 39.3901 162.446 39.6934C162.852 39.9974 163.35 40.2998 163.941 40.6039C164.483 40.8806 164.927 41.1326 165.271 41.3581C165.615 41.5845 165.859 41.7852 165.999 41.9509C166.29 42.3028 166.431 42.6898 166.432 43.1356C166.432 43.4064 166.378 43.6558 166.27 43.889C166.161 44.1222 165.997 44.3409 165.773 44.545C165.551 44.7483 165.306 44.8986 165.038 44.9994C164.771 45.1002 164.479 45.1506 164.158 45.1515C163.704 45.1515 163.263 45.0379 162.829 44.8073C162.395 44.5766 161.968 44.2281 161.551 43.7575L161.447 43.6405L160.219 45.0345L160.289 45.125C160.748 45.7135 161.329 46.1756 162.028 46.5096C162.725 46.8436 163.461 47.011 164.23 47.011C164.806 47.011 165.338 46.917 165.823 46.7249C166.308 46.5335 166.746 46.2457 167.132 45.8639C167.518 45.4838 167.809 45.0584 168.003 44.5894C168.199 44.1222 168.295 43.6114 168.295 43.0639C168.295 42.2832 168.066 41.5717 167.612 40.9473L167.611 40.9456C167.376 40.6329 167.044 40.322 166.614 40.006C166.184 39.6908 165.657 39.3722 165.031 39.0493C164.526 38.7888 164.108 38.5454 163.78 38.3233C163.453 38.0995 163.215 37.8936 163.069 37.7151L163.068 37.7142C162.917 37.5332 162.805 37.3504 162.732 37.1659C162.658 36.9805 162.623 36.7935 162.623 36.6004C162.623 36.3818 162.667 36.1793 162.755 35.9897C162.843 35.7992 162.976 35.6207 163.157 35.4524V35.4524ZM182.772 42.7137C182.344 43.4765 181.735 44.0786 180.939 44.5271C180.14 44.9755 179.301 45.1985 178.411 45.1993C177.531 45.1993 176.711 44.9747 175.941 44.522C175.172 44.071 174.562 43.4423 174.104 42.63C173.647 41.8168 173.421 40.9703 173.421 40.082C173.421 39.186 173.646 38.3395 174.098 37.5349C174.552 36.7303 175.158 36.1101 175.922 35.6668C176.687 35.2226 177.518 35.0014 178.424 35.0014C179.129 35.0014 179.776 35.1244 180.365 35.3687C180.956 35.613 181.49 35.9786 181.973 36.4706C182.455 36.9609 182.814 37.5093 183.054 38.1183C183.293 38.7264 183.415 39.3961 183.415 40.1298C183.415 41.0925 183.2 41.9501 182.772 42.7137H182.772ZM183.308 33.1043V35.5583C182.704 34.8024 182.015 34.219 181.241 33.8124C180.358 33.3495 179.37 33.118 178.286 33.1188C177.348 33.1188 176.474 33.2871 175.667 33.6262C174.861 33.9653 174.124 34.4735 173.457 35.1475C172.791 35.8214 172.288 36.5671 171.954 37.3828C171.618 38.1969 171.45 39.0809 171.45 40.0299C171.45 40.9977 171.616 41.8963 171.948 42.7222C172.28 43.5482 172.778 44.3007 173.439 44.9772C174.099 45.6529 174.831 46.1628 175.633 46.5028C176.434 46.8427 177.304 47.0119 178.238 47.0119C179.291 47.0119 180.265 46.7932 181.155 46.355C181.942 45.9664 182.661 45.4103 183.307 44.6877V47.0247H185.229V33.1043H183.308V33.1043ZM199.206 39.6361C199.206 40.4433 199.184 41.1096 199.143 41.6332C199.102 42.1568 199.039 42.5403 198.962 42.7692C198.723 43.473 198.298 44.0342 197.672 44.4673C197.049 44.8978 196.29 45.1148 195.382 45.1156C194.474 45.1156 193.703 44.8927 193.056 44.4494C192.408 44.0052 191.975 43.4098 191.744 42.6436C191.669 42.3814 191.609 41.9953 191.569 41.4939C191.53 40.9908 191.511 40.3716 191.511 39.6361V33.1043H189.565V39.8266C189.566 41.6776 189.772 43.0724 190.204 44.0206C190.631 44.9601 191.283 45.6981 192.152 46.2243C193.025 46.7513 194.106 47.011 195.388 47.011C196.669 47.011 197.747 46.7513 198.612 46.2235C199.473 45.6981 200.121 44.9661 200.548 44.0385C200.979 43.1023 201.187 41.7416 201.187 39.9453V33.1043H199.205V39.6361H199.206ZM210.272 33.118C209.633 33.118 209.017 33.3119 208.433 33.6937C207.944 34.014 207.48 34.4676 207.039 35.0518V33.1043H205.058V47.0238H207.039V42.1593C207.039 41.0387 207.065 40.1068 207.116 39.3662C207.167 38.6248 207.245 38.073 207.343 37.7211C207.609 36.7772 207.993 36.0948 208.482 35.6625C208.731 35.443 208.982 35.2807 209.234 35.1731C209.486 35.0663 209.739 35.0134 209.999 35.0134C210.207 35.0134 210.486 35.0817 210.826 35.2286L210.935 35.2756L211.945 33.6459L211.818 33.5758C211.279 33.2743 210.763 33.118 210.272 33.118V33.118ZM84.5193 55.9353C84.4886 55.2161 84.0376 54.7779 83.2945 54.7207C83.0502 54.7019 82.6777 54.6771 82.4488 54.649C81.4725 54.555 80.4091 54.4158 79.3901 54.2065C78.4889 54.022 77.5963 53.8153 76.7088 53.5795C76.7088 53.5795 73.7483 52.792 71.2806 51.7089C69.7918 51.0563 68.3619 50.0689 68.1817 49.6581C68.1151 49.5077 68.0809 49.1328 68.1287 48.926C68.215 48.5502 68.3474 48.1317 68.6267 47.8498C68.6318 47.8455 68.6344 47.8387 68.6344 47.831C68.7796 47.655 68.865 47.4312 68.865 47.1861C68.865 46.6266 68.4123 46.1731 67.8511 46.1731C67.547 46.1731 67.2746 46.3072 67.0883 46.5199L67.0849 46.5173C66.0873 47.6909 65.7012 49.5223 66.505 50.8197C67.0294 51.4757 67.7059 52.0924 68.5814 52.6109C69.5876 53.2063 70.9415 53.7905 72.3961 54.3193C74.5777 55.1546 76.7797 55.7414 78.9818 56.1916C80.2237 56.4461 81.4879 56.6016 82.6043 56.6998L80.8293 58.4739H69.7303C69.662 58.4739 69.5936 58.4722 69.5253 58.4679C62.4186 58.3569 56.7145 52.4717 56.911 45.3027C57.0972 38.5086 62.6655 32.9916 69.4672 32.8558C69.5552 32.8532 69.6432 32.8532 69.7303 32.8532C71.8008 32.8532 73.756 33.3443 75.4874 34.2147C75.6633 34.2831 75.841 34.3138 76.017 34.3138C77.2213 34.3138 78.3428 32.872 78.3428 31.8359V27.9733C78.3343 27.9503 78.3283 27.9272 78.3283 27.905C78.3283 27.5428 78.0874 27.3259 77.7688 27.3259H76.4876L76.4833 27.3173C75.3319 27.3139 74.3342 26.4777 74.0045 25.4629C73.3648 23.4924 75.1184 21.5261 77.3742 21.5261C77.8184 21.5261 78.2813 21.603 78.7494 21.7695C82.4907 23.1046 82.3899 28.1946 82.4881 32.5363H82.4907V51.0273C82.4907 51.5868 82.9451 52.0403 83.5054 52.0403C84.0658 52.0403 84.5193 51.5868 84.5193 51.0273V32.5363C84.5193 32.4868 84.5168 32.4381 84.5133 32.3885L84.5014 31.8179C84.4578 29.5903 84.4117 27.2857 83.8744 25.2144C83.1612 22.4597 81.6664 20.6591 79.4319 19.8613C78.7597 19.6221 78.0678 19.5 77.3751 19.5H77.3742C75.5429 19.5 73.8294 20.3525 72.7899 21.7806C71.8614 23.0568 71.6009 24.6267 72.075 26.0873C72.6695 27.9178 74.3547 29.223 76.2279 29.3357C76.257 29.3391 76.2852 29.3426 76.3142 29.3443V31.788C76.2783 31.9136 76.1408 32.1049 76.0161 32.2194C74.043 31.2952 71.9306 30.8263 69.7303 30.8263C69.6295 30.8263 69.5287 30.828 69.4271 30.8297C65.6132 30.9057 62.0095 32.4381 59.2796 35.1441C56.5488 37.8501 54.9874 41.4384 54.8832 45.2463C54.7738 49.2464 56.2353 53.038 59.0028 55.9217C61.7618 58.8002 65.4748 60.4231 69.4595 60.4932C69.5492 60.4974 69.6406 60.5 69.7303 60.5H80.8293C81.3674 60.5 81.8834 60.2865 82.2643 59.9064L83.924 58.1434C84.3237 57.7436 84.5338 57.2038 84.5193 56.6563V55.9353V55.9353Z" fill="#00A0DF"/>
<path fill-rule="evenodd" clip-rule="evenodd" d="M77.2213 23.4031C76.8182 23.6918 76.8182 24.2828 77.2213 24.5716C77.4656 24.7467 77.8039 24.7467 78.0482 24.5716C78.4522 24.282 78.4522 23.6918 78.0482 23.4031C77.8039 23.228 77.4656 23.228 77.2213 23.4031Z" fill="#00A0DF"/>
</svg>
