<svg width="320" height="80" viewBox="0 0 320 80" fill="none" xmlns="http://www.w3.org/2000/svg">
<path fill-rule="evenodd" clip-rule="evenodd" d="M133.396 28.5704H125.456V51.1937H133.396C140.198 51.1937 144.478 46.7704 144.478 39.8837C144.478 32.9971 140.198 28.5704 133.396 28.5704ZM133.214 47.0304H130.104V32.6971H133.214C137.491 32.6971 139.83 35.4604 139.83 39.8804C139.83 44.3004 137.491 47.0304 133.214 47.0304ZM154.532 34.3637C149.964 34.3637 146.672 38.0304 146.672 42.9871C146.672 48.0737 149.854 51.5737 154.612 51.5737C158.707 51.5737 161.268 49.3237 161.854 45.8237H157.642C157.278 47.2237 156.143 47.8871 154.608 47.8871C152.594 47.8871 151.207 46.4137 151.059 43.9437H161.956V42.5337C161.956 37.7071 159.326 34.3537 154.542 34.3537L154.532 34.3637ZM151.171 41.1737C151.571 39.1471 152.825 38.0771 154.572 38.0771C156.435 38.0771 157.46 39.4404 157.497 41.1737H151.171ZM173.462 34.3571C171.709 34.3571 170.098 35.2037 169.367 36.0871V28.5704H164.798V51.1937H169.37V49.8337C170.101 50.7171 171.712 51.5637 173.466 51.5637C178.22 51.5637 180.889 47.6937 180.889 42.9804C180.889 38.2671 178.216 34.3571 173.462 34.3571ZM172.437 47.5837C171.797 47.5938 171.167 47.4186 170.623 47.0788C170.079 46.7391 169.643 46.2491 169.367 45.6671V40.2504C169.654 39.6775 170.093 39.1956 170.634 38.8575C171.176 38.5194 171.8 38.3381 172.437 38.3337C174.888 38.3337 176.35 40.3337 176.35 42.9771C176.35 45.6204 174.888 47.5837 172.437 47.5837ZM191.161 47.5071C191.86 47.507 192.546 47.317 193.146 46.9571V51.0004C192.221 51.3865 191.223 51.5639 190.222 51.5204C186.891 51.5204 184.81 49.8537 184.81 46.2137V38.4104H182.322V34.7237H184.81V28.5704H189.306V34.7237H192.888V38.3904H189.296V45.6304C189.296 46.9204 189.99 47.5071 191.161 47.5071ZM209.797 39.5071C211.451 38.9171 212.774 37.1504 212.774 34.7171C212.774 30.6637 209.886 28.5637 205.205 28.5637H196.604V51.1904H205.92C210.601 51.1904 213.453 48.9404 213.453 44.7771C213.467 43.6237 213.121 42.4951 212.463 41.5507C211.806 40.6062 210.871 39.8937 209.79 39.5137L209.797 39.5071ZM201.093 32.5504H204.897C207.127 32.5504 208.298 33.3637 208.298 35.1671C208.298 36.9704 207.127 37.8571 204.897 37.8571H201.093V32.5504ZM205.519 47.2171H201.093V41.5504H205.519C207.709 41.5504 208.881 42.6204 208.881 44.3904C208.881 46.1604 207.713 47.2171 205.519 47.2171ZM223.576 34.3537C218.822 34.3537 215.567 37.8904 215.567 42.9771C215.567 48.0637 218.822 51.5637 223.576 51.5637C228.33 51.5637 231.585 48.0271 231.585 42.9771C231.585 37.9271 228.317 34.3537 223.576 34.3537ZM223.576 47.6871C221.306 47.6871 220.066 45.6871 220.066 42.9704C220.066 40.2537 221.306 38.2171 223.576 38.2171C225.845 38.2171 227.086 40.2171 227.086 42.9704C227.086 45.7237 225.842 47.6937 223.576 47.6937V47.6871ZM241.603 34.3537C236.852 34.3537 233.597 37.8904 233.597 42.9771C233.597 48.0637 236.852 51.5637 241.603 51.5637C246.353 51.5637 249.612 48.0271 249.612 42.9771C249.612 37.9271 246.357 34.3537 241.603 34.3537ZM241.603 47.6871C239.337 47.6871 238.096 45.6871 238.096 42.9704C238.096 40.2537 239.337 38.2171 241.603 38.2171C243.869 38.2171 245.116 40.2171 245.116 42.9704C245.116 45.7237 243.866 47.6937 241.603 47.6937V47.6871ZM268.231 51.1871H262.855L258.065 44.5637L256.741 46.0004V51.1937H252.212V28.5704H256.748V40.8404L262.342 34.7237H267.966L261.35 41.7237L268.231 51.1871ZM70.3831 17.2471V28.5804H62.7741C62.2696 28.5804 61.7857 28.7823 61.429 29.1418C61.0723 29.5012 60.8719 29.9887 60.8719 30.4971C60.8719 31.0054 61.0723 31.4929 61.429 31.8524C61.7857 32.2118 62.2696 32.4137 62.7741 32.4137H70.3831V47.7471H62.7741C62.5178 47.7363 62.2621 47.7778 62.0222 47.8692C61.7822 47.9606 61.5631 48.0999 61.378 48.2788C61.1929 48.4577 61.0456 48.6725 60.945 48.9102C60.8444 49.1479 60.7925 49.4036 60.7925 49.6621C60.7925 49.9205 60.8444 50.1763 60.945 50.414C61.0456 50.6517 61.1929 50.8664 61.378 51.0453C61.5631 51.2242 61.7822 51.3635 62.0222 51.4549C62.2621 51.5463 62.5178 51.5878 62.7741 51.5771H70.3831V59.4537L91.3013 62.6137L112.22 59.4537V17.2471L91.3013 20.4071L70.3831 17.2471ZM108.428 56.1404L91.3113 58.7271L74.1976 56.1404V51.5637H81.8066C82.0629 51.5745 82.3186 51.533 82.5585 51.4416C82.7985 51.3502 83.0176 51.2109 83.2027 51.032C83.3878 50.8531 83.5351 50.6384 83.6357 50.4006C83.7363 50.1629 83.7882 49.9072 83.7882 49.6487C83.7882 49.3903 83.7363 49.1346 83.6357 48.8968C83.5351 48.6591 83.3878 48.4444 83.2027 48.2655C83.0176 48.0866 82.7985 47.9473 82.5585 47.8559C82.3186 47.7645 82.0629 47.723 81.8066 47.7337H74.1976V32.4004H81.8066C82.3111 32.4004 82.7949 32.1985 83.1517 31.839C83.5084 31.4796 83.7088 30.9921 83.7088 30.4837C83.7088 29.9754 83.5084 29.4879 83.1517 29.1284C82.7949 28.769 82.3111 28.5671 81.8066 28.5671H74.1976V21.6937L91.3113 24.2804L108.428 21.6937V56.1404ZM62.7774 42.0004H53.2694C52.7649 42.0004 52.2811 41.7985 51.9243 41.439C51.5676 41.0796 51.3672 40.5921 51.3672 40.0837C51.3672 39.5754 51.5676 39.0879 51.9243 38.7285C52.2811 38.369 52.7649 38.1671 53.2694 38.1671H62.7774C63.2819 38.1671 63.7658 38.369 64.1225 38.7285C64.4793 39.0879 64.6797 39.5754 64.6797 40.0837C64.6797 40.5921 64.4793 41.0796 64.1225 41.439C63.7658 41.7985 63.2819 42.0004 62.7774 42.0004ZM102.712 40.0671C102.713 40.32 102.665 40.5709 102.571 40.8051C102.476 41.0394 102.336 41.2525 102.159 41.4322C101.983 41.6118 101.772 41.7545 101.541 41.852C101.309 41.9495 101.06 42 100.809 42.0004H81.7934C81.2888 42.0004 80.805 41.7985 80.4483 41.439C80.0915 41.0796 79.8911 40.5921 79.8911 40.0837C79.8911 39.5754 80.0915 39.0879 80.4483 38.7285C80.805 38.369 81.2888 38.1671 81.7934 38.1671H100.809C101.311 38.1679 101.792 38.3678 102.148 38.7235C102.504 39.0792 102.706 39.5619 102.712 40.0671ZM91.3013 28.5737H100.809C101.314 28.5737 101.798 28.7757 102.154 29.1351C102.511 29.4946 102.712 29.9821 102.712 30.4904C102.712 30.9987 102.511 31.4862 102.154 31.8457C101.798 32.2051 101.314 32.4071 100.809 32.4071H91.3013C90.7968 32.4071 90.313 32.2051 89.9562 31.8457C89.5995 31.4862 89.3991 30.9987 89.3991 30.4904C89.3991 29.9821 89.5995 29.4946 89.9562 29.1351C90.313 28.7757 90.7968 28.5737 91.3013 28.5737ZM102.712 49.6471C102.712 50.1554 102.511 50.6429 102.154 51.0024C101.798 51.3618 101.314 51.5637 100.809 51.5637H91.3013C91.0451 51.5745 90.7893 51.533 90.5494 51.4416C90.3095 51.3502 90.0904 51.2109 89.9053 51.032C89.7201 50.8531 89.5729 50.6384 89.4722 50.4006C89.3716 50.1629 89.3198 49.9072 89.3198 49.6487C89.3198 49.3903 89.3716 49.1346 89.4722 48.8968C89.5729 48.6591 89.7201 48.4444 89.9053 48.2655C90.0904 48.0866 90.3095 47.9473 90.5494 47.8559C90.7893 47.7645 91.0451 47.723 91.3013 47.7337H100.809C101.313 47.7337 101.797 47.9352 102.153 48.2939C102.51 48.6527 102.711 49.1393 102.712 49.6471Z" fill="#0B3557"/>
</svg>
