<svg width="295" height="80" viewBox="0 0 295 80" fill="none" xmlns="http://www.w3.org/2000/svg">
<g clip-path="url(#clip0_13368_57430)">
<mask id="mask0_13368_57430" style="mask-type:luminance" maskUnits="userSpaceOnUse" x="25" y="25" width="245" height="30">
<path d="M269.324 25.5H25.2168V54.5H269.324V25.5Z" fill="white"/>
</mask>
<g mask="url(#mask0_13368_57430)">
<path d="M43.8666 25.5V43.7836H45.7218V48.5193H38.7892V46.6886C37.6663 48.1288 36.104 48.8855 34.0047 48.8855C29.5131 48.8855 25.2168 44.9798 25.2168 39.7071C25.2168 34.6052 29.4154 30.7727 33.8582 30.7727C35.7623 30.7727 37.4222 31.505 38.8136 32.75V30.2357H36.934V25.5H43.8666ZM38.9356 39.7071C38.9356 37.4124 37.0804 35.606 34.7126 35.606C32.3447 35.606 30.5139 37.5589 30.5139 39.8291C30.5139 42.1481 32.4424 44.0278 34.7126 44.0278C37.1049 44.0278 38.9356 42.0261 38.9356 39.7071Z" fill="#EF3200"/>
<path d="M54.4121 31.1389V43.7836H56.2185V48.5193H47.4307V43.7836H49.2614V35.8502H47.4307V31.1389H54.4121ZM54.4121 25.5V30.2357H49.2614V25.5H54.4121Z" fill="#EF3200"/>
<path d="M67.5206 31.0905H70.8893V36.1192H66.2513C66.1536 35.1183 65.5189 34.5813 64.5181 34.5813C63.5661 34.5813 62.8826 35.0939 62.8826 35.8506C62.8826 36.827 63.9323 37.242 66.3733 37.8279C68.6191 38.3649 69.9861 39.0485 70.8161 39.9028C71.6704 40.806 72.0854 41.9289 72.0854 43.3203C72.0854 46.4937 69.5711 48.9104 65.8118 48.9104C63.9566 48.9104 62.6628 48.4954 61.3935 47.4213V48.5199H57.9028V43.5401H62.7849C62.9802 44.7361 63.6637 45.2487 64.9575 45.2487C66.1292 45.2487 66.6906 44.6385 66.6906 43.8573C66.6906 42.9786 66.0804 42.5392 64.0054 41.9533L62.3944 41.5139C61.3935 41.2699 60.6368 40.9769 59.9044 40.513C58.4887 39.6099 57.439 38.2429 57.439 36.2656C57.439 32.9946 60.2218 30.7732 63.7369 30.7732C65.348 30.7732 66.4709 31.1149 67.4962 32.1646V31.0905H67.5206Z" fill="#EF3200"/>
<path d="M84.7059 48.886C83.0948 48.886 81.4349 48.4954 79.5308 46.9087V49.8136H81.3617V54.5004H72.5737V49.7648H74.4046V35.8506H72.5737V31.1394H79.5308V33.1655C80.6537 31.5787 82.3137 30.7732 84.3642 30.7732C89.0755 30.7732 93.152 34.801 93.152 39.8784C93.2009 44.6629 89.3684 48.886 84.7059 48.886ZM87.9525 39.8052C87.9525 37.3885 85.9997 35.6065 83.6318 35.6065C81.264 35.6065 79.3844 37.5349 79.3844 39.8296C79.3844 42.3195 81.4349 44.0282 83.6806 44.0282C86.0729 44.0282 87.9525 42.1486 87.9525 39.8052Z" fill="#EF3200"/>
<path d="M107.286 31.1386H114.243V35.8254H112.413V43.759H114.243V48.4947H107.286V47.0056C106.163 48.3238 104.503 49.0317 102.526 49.0317C97.644 49.0561 93.7871 44.7354 93.7871 39.9021C93.7871 34.8002 97.8148 30.5771 102.721 30.5771C104.65 30.5771 106.139 31.3095 107.286 32.8229V31.1386ZM107.311 39.78C107.311 37.4854 105.504 35.6302 103.161 35.6302C100.817 35.6302 98.9622 37.583 98.9622 39.8777C98.9622 42.2699 100.891 44.0275 103.161 44.0275C105.529 44.0275 107.311 42.0746 107.311 39.78Z" fill="#EF3200"/>
<path d="M123.3 25.5V31.1389H125.691V35.8257H123.3V43.7593H125.789V48.495H118.197V35.8257H115.488V31.1389H118.197V25.5H123.3Z" fill="#EF3200"/>
<path d="M139.337 31.1386H143.658V37.3878H138.898C138.019 36.2892 137.043 35.6302 135.578 35.6302C133.259 35.6302 131.648 37.583 131.648 39.8532C131.648 42.2211 133.405 44.0519 135.749 44.0519C137.019 44.0519 138.117 43.5149 138.703 42.4408H144.341C143.194 46.3709 139.581 49.0806 135.553 49.0806C130.427 49.0806 126.448 44.7842 126.448 39.8044C126.448 34.7758 130.427 30.5771 135.139 30.5771C136.725 30.5771 138.068 31.1142 139.337 32.408V31.1386Z" fill="#EF3200"/>
<path d="M151.738 25.5V33.4335C152.91 31.6759 154.472 30.7971 156.498 30.7971C160.331 30.7971 162.674 34.0438 162.674 38.1448V43.7836H164.481V48.5193H157.548V39.3653C157.548 36.8022 156.596 35.8014 154.716 35.8014C152.763 35.8014 151.714 37.0951 151.714 39.2433V43.7593H153.545V48.495H144.757V43.7836H146.588V30.2357H144.757V25.5H151.738Z" fill="#EF3200"/>
<path d="M172.755 25.5247V34.3369C174.049 32.262 175.734 31.0903 178.101 31.0903C179.908 31.0903 181.543 31.7738 182.739 33.1652C183.936 34.5566 184.546 36.4363 184.546 38.8042V45.5903H187.06V48.4952H178.955V45.5903H181.446V39.268C181.446 37.5104 181.226 36.9489 180.884 36.2899C180.127 34.9716 178.834 34.2149 177.198 34.2149C174.708 34.2149 172.805 35.8749 172.805 39.3411V45.6392H175.27V48.544H167.165V45.6147H169.655V28.4295H167.165V25.5247H172.755Z" fill="#748491"/>
<path d="M204.783 41.1229H190.209C190.819 44.2475 193.162 46.1759 196.117 46.1759C198.191 46.1759 199.754 45.3216 200.926 43.564H204.172C202.61 47.0303 199.534 48.9832 196.092 48.9832C191.21 48.9832 187.133 45.053 187.133 40.0489C187.133 34.8982 191.186 31.0168 195.97 31.0168C200.73 31.0168 204.855 34.7273 204.855 40.0732C204.88 40.4639 204.831 40.9032 204.783 41.1229ZM202.024 38.7063C201.365 35.7282 198.9 33.7508 195.97 33.7508C193.383 33.7508 190.869 35.6061 190.209 38.7063H202.024Z" fill="#748491"/>
<path d="M221.357 31.4326H226.947V34.3375H224.507V45.5908H226.947V48.4958H221.357V45.5908C219.697 47.9099 217.745 48.8375 215.181 48.8375C210.372 48.8375 206.54 44.8097 206.54 40.0496C206.54 35.2651 210.397 31.0908 215.328 31.0908C217.915 31.0908 219.771 32.0917 221.381 34.3863V31.4326H221.357ZM221.357 39.9031C221.357 36.7785 218.819 34.1666 215.474 34.1666C212.228 34.1666 209.688 36.8518 209.688 39.9763C209.688 43.1498 212.276 45.7373 215.474 45.7373C218.696 45.7617 221.357 43.1986 221.357 39.9031Z" fill="#748491"/>
<path d="M235.003 25.5247V45.5903H237.517V48.4952H229.243V45.5903H231.903V28.4295H229.389V25.5247H235.003Z" fill="#748491"/>
<path d="M243.424 25.5247V31.4321H246.696V34.3369H243.424V45.5903H246.915V48.4952H240.275V34.3369H237.322V31.4321H240.275V25.5247H243.424Z" fill="#748491"/>
<path d="M255.019 25.5247V34.3369C256.313 32.262 257.998 31.0903 260.365 31.0903C262.172 31.0903 263.807 31.7738 265.003 33.1652C266.2 34.5566 266.81 36.4363 266.81 38.8042V45.5903H269.324V48.4952H261.22V45.5903H263.71V39.268C263.71 37.5104 263.49 36.9489 263.148 36.2899C262.391 34.9716 261.098 34.2149 259.462 34.2149C256.972 34.2149 255.068 35.8749 255.068 39.3411V45.6392H257.582V48.544H249.479V45.6147H251.968V28.4295H249.479V25.5247H255.019Z" fill="#748491"/>
</g>
</g>
<defs>
<clipPath id="clip0_13368_57430">
<rect width="244.567" height="29" fill="white" transform="translate(25.2168 25.5)"/>
</clipPath>
</defs>
</svg>
