<svg width="320" height="80" viewBox="0 0 320 80" fill="none" xmlns="http://www.w3.org/2000/svg">
  <g transform="translate(60, 25) scale(0.65)">
    <path fill-rule="evenodd" clip-rule="evenodd" d="M22.8097 0.507546C28.3745 0.507546 33.3218 1.58562 37.6405 3.73435C41.9629 5.88678 45.3181 8.93206 47.7025 12.8665C50.0906 16.8009 51.281 21.3428 51.281 26.4887C51.281 31.6345 50.0869 36.1802 47.7025 40.1109C45.3219 44.0416 41.9629 47.0906 37.6405 49.243C33.3218 51.3917 28.3708 52.4698 22.8097 52.4698H0V0.507546H22.8097ZM9.69004 44.3046H22.3596C26.1873 44.3046 29.5537 43.5748 32.4588 42.1151C35.3677 40.6555 37.6033 38.5771 39.1693 35.8801C40.7354 33.1831 41.5165 30.0526 41.5165 26.4887C41.5165 22.9247 40.7354 19.7943 39.1693 17.0972C37.6033 14.4002 35.3677 12.3219 32.4588 10.8622C29.5537 9.40255 26.1836 8.67273 22.3596 8.67273H9.69004V44.3046ZM287.751 52.4698C283.191 48.4761 277.206 46.0533 270.655 46.0533C264.101 46.0533 258.12 48.4761 253.559 52.4698H242.31L242.571 52.0993L250.01 38.4512L261.586 17.2158L267.162 27.4223L260.839 39.0254C263.948 38.1029 267.244 37.6065 270.655 37.6065C274.085 37.6065 277.399 38.1104 280.528 39.0402L276.953 32.4644L276.96 32.4459L276.22 31.0936L273.653 26.3924L270.692 20.9501L270.681 20.965L265.102 10.7622L267.319 6.69812L270.692 0.507546L298.74 52.103L299 52.4698H287.751ZM169.656 51.966C165.095 47.9686 159.114 45.5457 152.56 45.5457C146.009 45.5457 140.024 47.9686 135.463 51.966H124.215L124.479 51.5918L131.915 37.9436L143.491 16.7082L149.07 26.911L142.747 38.5179C145.856 37.5954 149.141 37.1027 152.56 37.1027C155.982 37.1027 159.307 37.6028 162.432 38.5364L159.136 32.4681L159.144 32.4459L158.407 31.0936L155.156 25.1513L152.597 20.4426L152.589 20.4574L147.01 10.2546L149.223 6.19057L152.597 0L180.648 51.5955L180.904 51.966H169.656ZM98.578 52.4698L87.9208 37.2546L87.8613 37.2583L82.3077 29.3858H85.4583C89.684 29.3858 92.8905 28.4781 95.074 26.6739C97.2612 24.8697 98.3548 22.3061 98.3548 18.9903C98.3548 15.6746 97.2612 13.1258 95.074 11.3438C92.8905 9.56556 89.6803 8.67273 85.4583 8.67273H67.7001L61.9419 0.507546H85.9047C90.428 0.507546 94.3672 1.25219 97.7225 2.73408C101.074 4.21596 103.648 6.34987 105.437 9.11729C107.223 11.8884 108.119 15.1819 108.119 18.9903C108.119 22.9025 107.163 26.2664 105.248 29.0894C103.336 31.9087 100.59 34.0129 97.012 35.3985L109.012 52.4735H98.578V52.4698ZM187.953 8.67273V0.507546H236.701V8.67273H217.172V52.4698H207.482V8.67273H187.953Z" fill="white"/>
  </g>
</svg>
