<svg width="296" height="80" viewBox="0 0 296 80" fill="none" xmlns="http://www.w3.org/2000/svg">
<path d="M101.413 26.4092V30.9395H110.473V53.591H115.003V30.9395H124.064V26.4092H101.413ZM72.7817 26.4092V53.591H92.8413V49.0607H77.3121V42.2672H90.8036V37.7369H77.3121V30.9395H92.8413V26.4092H72.7817ZM151.242 26.4092V37.733H137.651V26.4092H133.121V53.591H137.651V42.2672H151.242V53.591H155.772V26.4092H151.242ZM190.436 28.9706C186.571 25.1055 180.305 25.1055 176.44 28.9706C175.882 29.5288 174.719 30.8363 174.322 31.4823C178.967 28.6151 185.057 30.0563 187.924 34.7014C189.878 37.8668 189.889 41.8581 187.955 45.035L188.108 44.8821C188.769 44.4807 189.863 43.5364 190.436 42.9668C194.301 39.1017 194.301 32.8357 190.436 28.9706Z" fill="black"/>
<path d="M173.66 45.7499C169.772 41.8618 167.391 34.7089 171.78 27.1469L169.727 29.1999C164.072 34.8542 164.072 44.0257 169.727 49.6838C175.385 55.3381 184.552 55.3381 190.21 49.6838L192.263 47.6308C185.065 51.817 177.896 49.9858 173.66 45.7499ZM212.721 53.9962C219.3 53.9962 223.551 50.7351 223.551 45.6887C223.551 40.9596 220.225 39.2469 214.861 38.0235L211.574 37.3009C208.615 36.6472 207.009 35.8864 207.009 33.7417C207.009 31.5969 209.047 30.1442 212.201 30.1442C215.141 30.1442 217.733 31.2376 219.327 33.1491L222.741 30.4042C220.86 28.3741 217.545 26 212.319 26C206.416 26 202.131 29.3566 202.131 33.9863C202.131 39.266 206.455 40.8793 210.22 41.6936L213.867 42.4965C216.75 43.1234 218.673 43.9836 218.673 46.136C218.673 48.4489 216.589 49.7755 212.961 49.7755C209.005 49.7755 206.011 47.8296 204.757 45.8722L201.011 48.5674C202.941 51.213 207.005 54 212.721 54" fill="black"/>
</svg>
