<svg width="280" height="70" viewBox="0 0 280 70" fill="none" xmlns="http://www.w3.org/2000/svg">
<path d="M144.7 40.1062C144.253 40.6305 143.729 41.0771 143.146 41.4461C142.583 41.7955 141.942 41.9508 141.224 41.9508C140.641 41.9508 140.079 41.8344 139.574 41.6014C139.069 41.3684 138.603 41.0188 138.233 40.5916C137.846 40.1644 137.535 39.6596 137.301 39.0577C137.069 38.4752 136.972 37.8343 136.972 37.1741V37.1354C136.972 36.4558 137.088 35.4654 137.301 34.9023C137.515 34.3198 137.826 33.8149 138.195 33.4072C138.564 32.9994 139.01 32.6499 139.515 32.4168C140.02 32.1838 140.563 32.0674 141.146 32.0674C141.904 32.0674 142.544 32.2421 143.069 32.5917C143.632 32.9606 144.156 33.4072 144.622 33.912L144.952 34.2809L146.37 32.747L146.098 32.4363C145.826 32.1256 145.515 31.8344 145.185 31.5431C144.855 31.2519 144.486 30.9994 144.078 30.7858C143.671 30.5723 143.224 30.378 142.758 30.2615C142.272 30.1257 141.748 30.0674 141.165 30.0674C140.273 30.0674 139.437 30.2615 138.661 30.611C137.903 30.98 137.224 31.4849 136.661 32.1062C136.097 32.7276 135.651 33.446 135.341 34.2615C135.011 35.0965 134.855 36.3586 134.855 37.213V37.2518C134.855 38.1645 135.011 39.0188 135.341 39.8344C135.651 40.6499 136.097 41.3489 136.661 41.9703C137.224 42.5723 137.884 43.0771 138.661 43.4266C139.437 43.7955 140.273 43.9703 141.165 43.9703C142.292 43.9703 143.282 43.7178 144.078 43.2325C144.855 42.7664 145.574 42.145 146.176 41.4266L146.467 41.0965L145.029 39.7567L144.7 40.1062Z" fill="#17202D"/>
<path d="M115.845 38.2046C115.845 38.7677 115.748 39.292 115.573 39.758C115.398 40.224 115.146 40.6124 114.816 40.9425C114.505 41.2726 114.117 41.525 113.69 41.7192C113.262 41.894 112.796 41.991 112.292 41.991C111.243 41.991 110.486 41.6804 109.923 41.0395C109.36 40.3988 109.088 39.5056 109.088 38.3794V30.4765H107.049V38.593C107.049 39.3503 107.165 40.0687 107.379 40.7095C107.593 41.3697 107.942 41.9522 108.389 42.4182C108.835 42.9036 109.379 43.2726 110 43.5444C110.622 43.8163 111.34 43.9328 112.117 43.9328C113.262 43.9328 114.233 43.661 114.971 43.1172C115.282 42.8842 115.573 42.6512 115.826 42.3793V43.661H117.864V30.457H115.826V38.2046H115.845Z" fill="#17202D"/>
<path d="M81.5538 26.0684H79.3984V43.68H91.4373V41.5829H81.5538V26.0684Z" fill="#17202D"/>
<path d="M158.874 31.7384C158.427 31.253 157.884 30.8841 157.262 30.6122C156.641 30.3404 155.923 30.2239 155.146 30.2239C154 30.2239 153.029 30.4958 152.292 31.0394C151.981 31.2724 151.69 31.5054 151.437 31.7773V26.4375H149.398V43.6802H151.437V35.9715C151.437 35.4083 151.534 34.884 151.709 34.418C151.884 33.952 152.136 33.5637 152.466 33.2336C152.777 32.9035 153.165 32.6511 153.593 32.4569C154.02 32.2822 154.485 32.185 154.99 32.185C156.039 32.185 156.796 32.4957 157.36 33.1365C157.922 33.7773 158.194 34.6705 158.194 35.7967V43.6996H160.233V35.5831C160.233 34.8259 160.117 34.1074 159.903 33.4666C159.65 32.8065 159.32 32.2239 158.874 31.7384Z" fill="#17202D"/>
<path d="M98.8354 30.126C98.0004 30.126 97.2237 30.223 96.5441 30.4173C95.8645 30.6114 95.2043 30.8639 94.5441 31.1939L94.1558 31.3881L94.913 33.2716L95.3596 33.0386C95.8645 32.7667 96.3888 32.5531 96.9519 32.3784C97.4956 32.2231 98.0975 32.126 98.7577 32.126C99.8257 32.126 100.661 32.3978 101.243 32.9221C101.748 33.3687 102.078 34.4367 102.098 35.6017C101.709 35.5046 101.321 35.4269 100.913 35.3687C100.311 35.2716 99.5733 35.2133 98.7382 35.2133C97.9422 35.2133 97.2043 35.3104 96.5635 35.4852C95.8839 35.6793 95.3014 35.9512 94.8354 36.3008C94.35 36.6697 93.9616 37.1357 93.6703 37.6793C93.3596 38.2813 93.2432 39.1357 93.2432 39.7376V39.7764C93.2432 40.4755 93.3985 41.0968 93.6898 41.6405C93.981 42.1648 94.3694 42.6114 94.8548 42.9609C95.3209 43.3105 95.8451 43.5628 96.4276 43.7377C96.9907 43.9124 97.5733 43.9901 98.1558 43.9901C98.7383 43.9901 99.282 43.9124 99.7869 43.7765C100.272 43.6405 100.738 43.4464 101.127 43.2134C101.496 42.9998 101.826 42.7668 102.098 42.4949V43.7182H104.117V35.6599C104.117 33.9706 103.632 32.4561 102.816 31.6017C101.884 30.6114 100.544 30.126 98.8354 30.126ZM101.01 41.0581C100.661 41.3493 100.233 41.5628 99.7674 41.7377C99.282 41.893 98.7771 41.99 98.2529 41.99C97.8645 41.99 97.4762 41.9318 97.1267 41.8153C96.7771 41.6988 96.4665 41.5434 96.1946 41.3493C95.9422 41.1551 95.748 40.9221 95.5926 40.6502C95.4567 40.3784 95.379 40.0677 95.379 39.7182V39.6794C95.379 38.9221 95.6703 38.2231 96.1752 37.8347C96.7383 37.3881 97.5927 37.1745 98.6995 37.1745C99.4956 37.1745 100.214 37.2327 100.835 37.3493C101.321 37.4464 101.767 37.524 102.156 37.6211V38.6114C102.156 39.1357 102.039 39.7376 101.865 40.0677C101.632 40.4366 101.36 40.7862 101.01 41.0581Z" fill="#17202D"/>
<path d="M130.932 31.5624C130.486 31.077 129.942 30.708 129.321 30.4362C128.699 30.1644 127.981 30.0479 127.204 30.0479C126.059 30.0479 125.088 30.3197 124.35 30.8634C124.039 31.0964 123.748 31.3294 123.495 31.6012V30.5139H121.457V43.6984H123.495V35.7955C123.495 35.2323 123.593 34.7081 123.767 34.2421C123.942 33.7761 124.194 33.3876 124.525 33.0576C124.835 32.7275 125.224 32.475 125.651 32.2809C126.078 32.1061 126.544 32.009 127.049 32.009C128.097 32.009 128.855 32.3197 129.418 32.9605C129.981 33.6012 130.252 34.4944 130.252 35.6206V43.6984H132.272V35.4071C132.272 34.6498 132.156 33.9314 131.942 33.2906C131.709 32.611 131.379 32.0478 130.932 31.5624Z" fill="#17202D"/>
<path d="M175.941 28.9035C175.164 28.1268 174.213 27.5249 173.126 27.0977C172.038 26.6705 170.835 26.4375 169.553 26.4375H163.825V43.6996H169.553C170.835 43.6996 172.038 43.4666 173.126 43.0394C174.213 42.5928 175.164 41.9909 175.941 41.2141C176.738 40.4375 177.34 39.5249 177.767 38.4763C178.194 37.4278 178.407 36.2821 178.407 35.0782V35.0395C178.407 33.8355 178.194 32.6899 177.767 31.6608C177.34 30.5928 176.718 29.6607 175.941 28.9035ZM176.271 35.0589V35.0976C176.271 36.0103 176.116 36.884 175.806 37.6608C175.495 38.4569 175.048 39.1365 174.465 39.719C173.903 40.3015 173.184 40.7676 172.369 41.1171C171.534 41.4666 170.601 41.622 169.553 41.622H165.922V28.4569H169.553C170.582 28.4569 171.534 28.6316 172.349 28.9811C173.184 29.3307 173.883 29.7967 174.446 30.3986C175.009 30.9812 175.475 31.6996 175.786 32.4957C176.116 33.2918 176.271 34.1657 176.271 35.0589Z" fill="#17202D"/>
<path d="M220.661 26.4375H218.622V43.6996H220.661V26.4375Z" fill="#17202D"/>
<path d="M233.943 30.4951L230.079 40.398L225.613 30.4951H223.302L229.05 42.8058C228.875 43.2135 228.7 43.5825 228.526 43.8737C228.331 44.2038 228.137 44.4563 227.943 44.6504C227.768 44.8252 227.574 44.9611 227.379 45.0193C227.166 45.097 226.952 45.1359 226.7 45.1359C226.312 45.1359 225.982 45.097 225.729 45.0388C225.477 44.9806 225.224 44.8834 224.952 44.7476L224.487 44.5145L223.768 46.4174L224.176 46.5921C224.584 46.767 224.991 46.9029 225.36 47C225.748 47.097 226.175 47.1359 226.642 47.1359C227.574 47.1359 228.408 46.8446 229.088 46.2621C229.768 45.6989 230.351 44.7863 230.913 43.4465L236.156 30.4951H233.943Z" fill="#17202D"/>
<path d="M213.068 30.4947L206.408 37.7762V26.417H204.389V43.6792H206.408V40.5141L208.719 38.1257L213.088 43.6792H215.67L210.137 36.6306L215.806 30.4947H213.068Z" fill="#17202D"/>
<path d="M199.378 30.3598C198.719 30.5733 197.942 31.1171 197.631 31.3307C197.165 31.6801 196.738 32.088 196.368 32.5733C196.349 32.5928 196.349 32.5928 196.33 32.6122V30.4763H194.291V43.6607H196.33V37.952C196.33 37.0394 196.465 36.2433 196.699 35.5636C196.951 34.884 197.281 34.3015 197.709 33.8549C198.174 33.3501 198.835 32.8452 199.32 32.6316C199.864 32.3986 200.447 32.2821 201.029 32.2821H201.611V30.1073L201.165 30.0879C200.544 30.1073 199.942 30.185 199.378 30.3598Z" fill="#17202D"/>
<path d="M185.651 30.126C184.816 30.126 184.039 30.223 183.36 30.4173C182.68 30.6114 182.02 30.8639 181.36 31.1939L180.971 31.3881L181.729 33.2716L182.175 33.0386C182.68 32.7667 183.204 32.5531 183.768 32.3784C184.311 32.2231 184.913 32.126 185.574 32.126C186.641 32.126 187.476 32.3978 188.059 32.9221C188.564 33.3687 188.893 34.4367 188.914 35.6017C188.525 35.5046 188.137 35.4269 187.729 35.3687C187.127 35.2716 186.389 35.2133 185.554 35.2133C184.758 35.2133 184.02 35.3104 183.379 35.4852C182.699 35.6793 182.117 35.9512 181.651 36.3008C181.165 36.6697 180.777 37.1357 180.486 37.6793C180.175 38.2813 180.059 39.1357 180.059 39.7376V39.7764C180.059 40.4755 180.214 41.0968 180.506 41.6405C180.797 42.1648 181.185 42.6114 181.67 42.9609C182.137 43.3105 182.661 43.5628 183.244 43.7377C183.806 43.9124 184.389 43.9901 184.972 43.9901C185.554 43.9901 186.098 43.9124 186.603 43.7765C187.088 43.6405 187.554 43.4464 187.942 43.2134C188.312 42.9998 188.641 42.7668 188.914 42.4949V43.7182H190.913V35.6599C190.913 33.9706 190.427 32.4561 189.612 31.6017C188.68 30.6114 187.36 30.126 185.651 30.126ZM187.807 41.0581C187.457 41.3493 187.03 41.5628 186.563 41.7377C186.079 41.893 185.574 41.99 185.049 41.99C184.661 41.99 184.273 41.9318 183.923 41.8153C183.573 41.6988 183.263 41.5434 182.991 41.3493C182.739 41.1551 182.525 40.9221 182.389 40.6502C182.253 40.3784 182.175 40.0677 182.175 39.7182V39.6794C182.175 38.9221 182.467 38.2231 182.971 37.8347C183.535 37.3881 184.389 37.1745 185.496 37.1745C186.292 37.1745 187.01 37.2327 187.632 37.3493C188.117 37.427 188.564 37.524 188.952 37.6211V38.6114C188.952 39.1357 188.836 39.7376 188.661 40.0677C188.428 40.4366 188.156 40.7862 187.807 41.0581Z" fill="#17202D"/>
<path fill-rule="evenodd" clip-rule="evenodd" d="M57.4366 49C64.8929 49 70.9706 42.7282 70.9706 35C70.9706 34.2621 70.893 33.5437 70.7958 32.8252C70.8153 33.0582 70.8347 33.3106 70.8347 33.5437C70.8347 40.3009 65.5142 45.7961 58.9706 45.7961C56.1745 45.7961 53.6308 44.8059 51.5919 43.1359C50.6599 43.9126 50.0191 44.5146 48.1162 45.1359C50.5434 47.4855 53.8444 49 57.4366 49Z" fill="#17202D"/>
<path fill-rule="evenodd" clip-rule="evenodd" d="M47.1067 33.5243C47.1067 26.767 52.4271 21.2718 58.9708 21.2718C59.5145 21.2718 60.0776 21.3301 60.6213 21.4078C59.5728 21.1553 58.5047 21 57.4368 21C49.9805 21 43.9028 27.2718 43.9028 35C43.9028 36.8641 44.2912 38.6311 44.796 40.1456C45.6116 39.2913 46.9708 38.3786 47.864 37.932C47.3203 36.534 47.1067 35.1165 47.1067 33.5243Z" fill="#17202D"/>
<path fill-rule="evenodd" clip-rule="evenodd" d="M55.0688 31.252C52.6804 30.4169 50.3891 31.0771 49.3018 31.5044C51.0105 32.3976 52.059 33.4655 52.7192 34.3976C53.36 33.4267 54.8358 31.5432 55.0688 31.252Z" fill="#17202D"/>
<path fill-rule="evenodd" clip-rule="evenodd" d="M59.8064 38.2034C59.787 37.8927 59.7481 37.5821 59.6899 37.252C59.1851 37.6015 58.2724 38.2034 57.1268 38.7859C56.9908 38.8636 56.8355 38.9219 56.6802 38.9995C56.4278 39.1161 56.1753 39.2325 55.9229 39.3491C55.8646 39.3685 55.8258 39.3879 55.7676 39.4073C55.8064 39.5044 55.8452 39.6015 55.9035 39.7374C55.9423 39.8345 55.9812 39.9316 56.02 40.0481C56.0588 40.1451 56.0976 40.2423 56.1365 40.3587C56.1948 40.553 56.2725 40.7666 56.3501 40.9996C56.3889 41.116 56.4278 41.2519 56.4666 41.3879C56.5055 41.5238 56.5248 41.6403 56.5637 41.7762C56.7191 42.4947 56.8549 43.2908 56.8549 44.1064C56.8549 44.2811 56.8161 44.4753 56.8161 44.65C57.787 43.9704 59.787 42.2034 59.8453 38.9025C59.8453 38.8442 59.8453 38.8053 59.8453 38.7472C59.8453 38.6695 59.8453 38.6112 59.8453 38.5336C59.8064 38.4364 59.8064 38.3199 59.8064 38.2034Z" fill="#17202D"/>
<path fill-rule="evenodd" clip-rule="evenodd" d="M72.2131 22.9033C72.9898 22.981 73.5917 23.0975 73.9412 23.1946C71.2422 30.1849 66.0577 34.3014 62.1548 36.515C61.6694 36.7869 61.3004 36.981 60.8538 37.214C60.815 36.8645 60.6791 36.0295 60.582 35.5052C60.5626 35.3888 60.4267 35.3305 60.3296 35.4082C58.5626 36.7286 56.9121 37.7189 54.5432 38.7091C54.4073 38.7674 54.3296 38.9422 54.4073 39.0781C54.4655 39.214 54.5626 39.3888 54.6403 39.5441C54.116 39.68 53.5335 39.8159 53.3781 39.8548C53.2422 39.0975 52.6791 38.1072 52.0771 37.6801C52.2713 37.3305 52.6791 36.612 52.9703 36.1461C53.048 36.0295 53.1062 35.9131 53.1839 35.7965C53.2616 35.6801 53.3199 35.5829 53.3975 35.4665C54.1354 34.3596 55.0869 33.0392 56.1937 31.7189C56.2713 31.6218 56.349 31.5441 56.4073 31.447C56.485 31.3694 56.5626 31.2723 56.6208 31.1946C58.7956 28.6509 61.4752 26.0684 64.213 24.6121C66.0383 23.6412 67.9412 23.0781 69.8635 22.9033C69.4752 23.6218 68.7567 24.5927 67.5141 25.7577C67.4752 25.7771 67.4558 25.8159 67.4364 25.8548C67.3781 25.9519 67.3587 26.0684 67.3587 26.1849C67.3587 26.5538 67.6111 26.9421 67.9218 27.1946C68.3878 27.5829 68.9121 27.6412 69.2422 27.3499L69.3393 27.2723C70.7956 26.0101 71.7665 24.5344 72.2131 22.9033ZM60.7568 34.379C61.417 34.379 61.9606 33.816 61.9606 33.1364C61.9606 32.4567 61.417 31.8936 60.7568 31.8936C60.0966 31.8936 59.5529 32.4567 59.5529 33.1364C59.5529 33.8354 60.0966 34.379 60.7568 34.379ZM63.4364 32.282C62.7762 32.282 62.2325 31.7189 62.2325 31.0392C62.2325 30.3596 62.7762 29.7966 63.4364 29.7966C64.0966 29.7966 64.6402 30.3596 64.6402 31.0392C64.6402 31.7383 64.0966 32.282 63.4364 32.282ZM66.0189 30.2237C65.3587 30.2237 64.815 29.6606 64.815 28.981C64.815 28.3014 65.3587 27.7383 66.0189 27.7383C66.6791 27.7383 67.2228 28.3014 67.2228 28.981C67.2228 29.6606 66.6791 30.2237 66.0189 30.2237Z" fill="#17202D"/>
<path fill-rule="evenodd" clip-rule="evenodd" d="M50.9321 38.4367C51.5923 38.4754 52.2136 39.7376 52.1942 40.0677C52.1748 40.4949 52 41.1745 50.8155 42.3201L50.7961 42.3395L50.7767 42.3589C49.8641 43.2327 48.5825 43.8153 47.2621 44.2036C47.2427 44.2036 47.2427 44.2036 47.2233 44.223H47.2039C45.1845 44.8249 43.0485 44.9804 42 45.0192C43.2233 43.427 44.3107 42.223 45.2816 41.291L45.301 41.2716L45.3204 41.2521C46.5243 40.1259 47.534 39.4269 48.3689 38.9997C48.3689 38.9997 48.3884 38.9997 48.3884 38.9803C48.4078 38.9803 48.4078 38.9609 48.4272 38.9609C49.8058 38.2813 50.6408 38.3784 50.9321 38.4367C50.9127 38.4367 50.9127 38.4367 50.9321 38.4367ZM50.8155 39.8153C50.9903 39.6599 51.1068 39.5434 51.1263 39.4852C51.1457 39.4269 51.068 39.3687 50.9903 39.2716C50.5437 38.7084 49.0485 39.2716 48.3884 39.6793C47.2039 40.3784 46.1553 41.524 45.767 42.0483C45.767 42.0677 45.7476 42.0677 45.7476 42.0872L45.7282 42.1065C45.6505 42.2231 45.6117 42.2813 45.6117 42.2813C45.6117 42.2813 45.6699 42.223 45.767 42.1453L45.7864 42.1259L45.8058 42.1065C46.3107 41.6406 47.6505 40.4561 48.6408 40.1648C48.7573 40.1454 48.0388 41.9512 48.0388 41.9512C48.0388 41.9512 49.5534 40.8444 49.5728 40.825C49.8252 40.6308 50.0777 40.4366 50.2913 40.2619C50.3884 40.1842 50.4854 40.1065 50.5631 40.0483C50.6214 39.9512 50.7185 39.8735 50.8155 39.8153Z" fill="#17202D"/>
</svg>
