<svg width="295" height="80" viewBox="0 0 295 80" fill="none" xmlns="http://www.w3.org/2000/svg">
<g clip-path="url(#clip0_13368_57556)">
<path d="M67.9042 44.7693L62.9165 49.5961L67.9042 54.4229L72.8919 49.5961L67.9042 44.7693Z" fill="#676B76"/>
<path d="M77.829 35.1732L72.8413 40L77.829 44.8268L82.8167 40L77.829 35.1732Z" fill="#231F20"/>
<path d="M77.829 54.3701L72.8413 59.1969L77.829 64.0237L82.8167 59.1969L77.829 54.3701Z" fill="#A1A1A0"/>
<path d="M87.7411 44.774L82.7534 49.6008L87.7411 54.4276L92.7288 49.6008L87.7411 44.774Z" fill="#424853"/>
<path d="M72.8415 20.7986L53 40L57.9848 44.824L77.8263 25.6279L97.6677 44.824L102.653 40L82.8111 20.7986L77.8263 15.9746L72.8415 20.7986Z" fill="#231F20"/>
<path d="M119.931 26.1024H127.01L132.36 41.8311H132.424L137.485 26.1024H144.565V48.9746H139.856V32.7655H139.792L134.186 48.9746H130.31L124.704 32.9256H124.64V48.9746H119.931V26.1024ZM152.548 40.7099C152.548 41.3719 152.612 42.0233 152.741 42.6639C152.869 43.2833 153.082 43.8492 153.381 44.3617C153.702 44.8529 154.118 45.248 154.631 45.547C155.143 45.846 155.784 45.9955 156.553 45.9955C157.321 45.9955 157.962 45.846 158.475 45.547C159.008 45.248 159.425 44.8529 159.724 44.3617C160.044 43.8492 160.268 43.2833 160.397 42.6639C160.525 42.0233 160.589 41.3719 160.589 40.7099C160.589 40.0478 160.525 39.3965 160.397 38.7558C160.268 38.1151 160.044 37.5492 159.724 37.058C159.425 36.5668 159.008 36.1717 158.475 35.8727C157.962 35.5524 157.321 35.3922 156.553 35.3922C155.784 35.3922 155.143 35.5524 154.631 35.8727C154.118 36.1717 153.702 36.5668 153.381 37.058C153.082 37.5492 152.869 38.1151 152.741 38.7558C152.612 39.3965 152.548 40.0478 152.548 40.7099ZM148 40.7099C148 39.3858 148.202 38.1899 148.608 37.1221C149.014 36.0329 149.591 35.1146 150.338 34.3672C151.085 33.5983 151.982 33.011 153.029 32.6053C154.075 32.1782 155.25 31.9646 156.553 31.9646C157.855 31.9646 159.03 32.1782 160.076 32.6053C161.144 33.011 162.052 33.5983 162.799 34.3672C163.547 35.1146 164.123 36.0329 164.529 37.1221C164.935 38.1899 165.138 39.3858 165.138 40.7099C165.138 42.0339 164.935 43.2299 164.529 44.2977C164.123 45.3655 163.547 46.2838 162.799 47.0526C162.052 47.8 161.144 48.3766 160.076 48.7824C159.03 49.1882 157.855 49.3911 156.553 49.3911C155.25 49.3911 154.075 49.1882 153.029 48.7824C151.982 48.3766 151.085 47.8 150.338 47.0526C149.591 46.2838 149.014 45.3655 148.608 44.2977C148.202 43.2299 148 42.0339 148 40.7099ZM171.619 43.5929C171.619 44.0841 171.715 44.5112 171.907 44.8743C172.121 45.216 172.388 45.5043 172.708 45.7392C173.028 45.9527 173.392 46.1129 173.797 46.2197C174.224 46.3265 174.662 46.3799 175.111 46.3799C175.431 46.3799 175.762 46.3478 176.104 46.2838C176.467 46.1983 176.787 46.0809 177.065 45.9314C177.364 45.7605 177.609 45.547 177.802 45.2907C177.994 45.0131 178.09 44.6714 178.09 44.2656C178.09 43.5822 177.631 43.0697 176.712 42.728C175.815 42.3863 174.555 42.0446 172.932 41.7029C172.27 41.5534 171.619 41.3826 170.978 41.1904C170.359 40.9768 169.804 40.7099 169.313 40.3895C168.821 40.0478 168.426 39.6314 168.127 39.1402C167.828 38.6277 167.679 38.0083 167.679 37.2822C167.679 36.2144 167.882 35.3388 168.287 34.6555C168.715 33.9721 169.27 33.4382 169.953 33.0538C170.637 32.648 171.405 32.3704 172.26 32.2209C173.114 32.05 173.99 31.9646 174.886 31.9646C175.783 31.9646 176.648 32.05 177.481 32.2209C178.335 32.3917 179.094 32.68 179.756 33.0858C180.418 33.4916 180.962 34.0361 181.389 34.7195C181.838 35.3816 182.105 36.2251 182.19 37.2502H177.866C177.802 36.3746 177.471 35.7873 176.873 35.4883C176.275 35.168 175.57 35.0078 174.758 35.0078C174.502 35.0078 174.224 35.0292 173.925 35.0719C173.626 35.0933 173.349 35.1573 173.093 35.2641C172.858 35.3709 172.655 35.5311 172.484 35.7446C172.313 35.9368 172.228 36.2038 172.228 36.5455C172.228 36.9512 172.377 37.2822 172.676 37.5385C172.975 37.7948 173.36 38.0083 173.829 38.1792C174.321 38.3287 174.876 38.4675 175.495 38.5956C176.114 38.7238 176.744 38.8626 177.385 39.0121C178.047 39.1616 178.688 39.3431 179.307 39.5566C179.948 39.7702 180.514 40.0585 181.005 40.4216C181.496 40.7633 181.891 41.201 182.19 41.7349C182.489 42.2475 182.639 42.8882 182.639 43.657C182.639 44.7461 182.414 45.6644 181.966 46.4119C181.539 47.138 180.973 47.7253 180.268 48.1738C179.563 48.6222 178.752 48.9319 177.834 49.1027C176.937 49.2949 176.018 49.3911 175.079 49.3911C174.118 49.3911 173.178 49.2949 172.26 49.1027C171.341 48.9105 170.519 48.5902 169.793 48.1417C169.088 47.6933 168.501 47.106 168.031 46.3799C167.583 45.6324 167.337 44.7034 167.294 43.5929H171.619ZM185.109 37.5065C185.173 36.4387 185.44 35.5524 185.91 34.8477C186.379 34.1429 186.977 33.577 187.704 33.1499C188.43 32.7227 189.241 32.4238 190.138 32.2529C191.056 32.0607 191.975 31.9646 192.893 31.9646C193.726 31.9646 194.569 32.0287 195.424 32.1568C196.278 32.2636 197.057 32.4878 197.762 32.8295C198.467 33.1712 199.044 33.6517 199.492 34.271C199.94 34.869 200.165 35.6699 200.165 36.6736V45.2907C200.165 46.0382 200.207 46.7536 200.293 47.437C200.378 48.1204 200.528 48.6329 200.741 48.9746H196.128C196.043 48.7183 195.968 48.4621 195.904 48.2058C195.861 47.9282 195.829 47.6505 195.808 47.3729C195.082 48.1204 194.228 48.6436 193.245 48.9426C192.263 49.2416 191.259 49.3911 190.234 49.3911C189.444 49.3911 188.707 49.2949 188.024 49.1027C187.34 48.9105 186.743 48.6116 186.23 48.2058C185.717 47.8 185.312 47.2875 185.013 46.6682C184.735 46.0488 184.596 45.3121 184.596 44.4578C184.596 43.5182 184.756 42.7494 185.077 42.1514C185.418 41.5321 185.846 41.0409 186.358 40.6778C186.892 40.3148 187.49 40.0478 188.152 39.877C188.835 39.6848 189.519 39.5353 190.202 39.4285C190.886 39.3217 191.558 39.2363 192.22 39.1722C192.882 39.1082 193.47 39.0121 193.982 38.8839C194.495 38.7558 194.9 38.5743 195.199 38.3394C195.498 38.0831 195.637 37.72 195.616 37.2502C195.616 36.759 195.53 36.3746 195.36 36.097C195.21 35.798 194.997 35.5738 194.719 35.4243C194.463 35.2534 194.153 35.1466 193.79 35.1039C193.448 35.0399 193.075 35.0078 192.669 35.0078C191.772 35.0078 191.067 35.2 190.555 35.5844C190.042 35.9688 189.743 36.6095 189.658 37.5065H185.109ZM195.616 40.87C195.424 41.0409 195.178 41.1797 194.879 41.2865C194.601 41.3719 194.292 41.4466 193.95 41.5107C193.63 41.5748 193.288 41.6282 192.925 41.6709C192.562 41.7136 192.199 41.767 191.836 41.8311C191.494 41.8951 191.153 41.9805 190.811 42.0873C190.49 42.1941 190.202 42.3436 189.946 42.5358C189.711 42.7066 189.519 42.9309 189.369 43.2085C189.22 43.4861 189.145 43.8385 189.145 44.2656C189.145 44.6714 189.22 45.0131 189.369 45.2907C189.519 45.5683 189.722 45.7926 189.978 45.9634C190.234 46.1129 190.533 46.2197 190.875 46.2838C191.217 46.3478 191.569 46.3799 191.932 46.3799C192.829 46.3799 193.523 46.2304 194.014 45.9314C194.505 45.6324 194.868 45.28 195.103 44.8743C195.338 44.4472 195.477 44.02 195.52 43.5929C195.584 43.1658 195.616 42.8241 195.616 42.5678V40.87ZM208.372 29.8504H203.824V26.1024H208.372V29.8504ZM203.824 32.4131H208.372V48.9746H203.824V32.4131ZM223.23 38.2433C222.931 36.3426 221.81 35.3922 219.867 35.3922C219.14 35.3922 218.532 35.5631 218.041 35.9048C217.549 36.2251 217.144 36.6522 216.823 37.1861C216.524 37.6987 216.311 38.2753 216.183 38.916C216.055 39.5353 215.99 40.1546 215.99 40.7739C215.99 41.3719 216.055 41.9805 216.183 42.5999C216.311 43.2192 216.514 43.7851 216.791 44.2977C217.09 44.7888 217.485 45.1946 217.977 45.5149C218.468 45.8353 219.066 45.9955 219.77 45.9955C220.86 45.9955 221.692 45.6965 222.269 45.0985C222.867 44.4792 223.241 43.657 223.39 42.6319H227.779C227.48 44.8316 226.626 46.508 225.216 47.6612C223.807 48.8144 222.002 49.3911 219.802 49.3911C218.564 49.3911 217.421 49.1882 216.375 48.7824C215.35 48.3553 214.474 47.768 213.748 47.0205C213.022 46.2731 212.456 45.3868 212.05 44.3617C211.645 43.3153 211.442 42.1727 211.442 40.9341C211.442 39.6527 211.623 38.4675 211.986 37.3783C212.371 36.2678 212.926 35.3175 213.652 34.5273C214.378 33.7158 215.264 33.0858 216.311 32.6373C217.357 32.1888 218.553 31.9646 219.899 31.9646C220.881 31.9646 221.821 32.0927 222.718 32.349C223.636 32.6053 224.447 33.0004 225.152 33.5343C225.878 34.0468 226.466 34.6982 226.914 35.4883C227.362 36.2572 227.619 37.1755 227.683 38.2433H223.23Z" fill="#231F20"/>
</g>
<defs>
<clipPath id="clip0_13368_57556">
<rect width="189" height="48.0508" fill="white" transform="translate(53 15.9746)"/>
</clipPath>
</defs>
</svg>
