<svg width="296" height="80" viewBox="0 0 296 80" fill="none" xmlns="http://www.w3.org/2000/svg">
<g clip-path="url(#clip0_13368_57414)">
<path fill-rule="evenodd" clip-rule="evenodd" d="M96.6015 28.3792L93.9807 31.1584L92.7703 34.5792L91.5599 38.0008L91.4967 32.2008L91.4335 26.4008H88.6335H85.8335V39.6008V52.8008H88.4487H91.0647L92.9135 46.0984L94.7631 39.3952L96.6055 35.4192L98.4479 31.4432L99.6823 30.9696L100.917 30.496L101.867 31.6408L102.817 32.7864L103.49 38.5936L104.163 44.4008L104.198 48.6008L104.233 52.8008H107.143H110.053L109.485 45.0008L108.919 37.2008L108.082 33.2704L107.245 29.3392L105.376 27.4704L103.506 25.6008H101.365H99.2223L96.6015 28.3792ZM121.696 26.4304L120.357 27.2104L118.648 29.9776L116.937 32.7448L114.585 42.0576L112.233 51.3712V52.0864V52.8008H114.17H116.106L116.629 50.2008L117.153 47.6008L117.547 46.2008L117.941 44.8008H119.75H121.559L125.157 47.184L128.755 49.5672L130.218 51.184L131.681 52.8008H134.357H137.033V52.064V51.3272L135.398 44.264L133.763 37.2008L132.097 32.9784L130.429 28.7568L128.424 27.1784L126.417 25.6008L124.725 25.6248L123.033 25.6496L121.696 26.4304ZM167.253 27.1712L165.256 28.7424L163.572 32.656L161.889 36.5696L159.975 44.6848L158.061 52.8008H160.213H162.365L163.099 49.0008L163.833 45.2008L165.929 44.9576L168.025 44.7144L173.301 48.7576L178.575 52.8008H181.058H183.541L183.132 51.4008L182.722 50.0008L181.084 42.9632L179.445 35.9256L177.807 32.1168L176.169 28.3072L173.877 26.9544L171.586 25.6008H170.418H169.249L167.253 27.1712ZM197.137 27.636L194.719 29.6712L193.118 33.836L191.517 38.0008L191.475 32.2008L191.433 26.4008H188.633H185.833V39.6008V52.8008H188.457H191.079L192.483 47.4008L193.887 42.0008L195.85 37.2008L197.813 32.4008L199.187 31.3928L200.561 30.3848L201.662 31.4872L202.764 32.5888L203.47 40.4944L204.177 48.4008L204.205 50.6008L204.233 52.8008H207.093H209.953L209.441 45.4008L208.927 38.0008L208.099 33.6832L207.271 29.3656L205.389 27.4832L203.506 25.6008H201.531H199.556L197.137 27.636ZM135.721 27.8008L136.118 29.2008L137.829 36.8064L139.541 44.4128L141.349 48.0064L143.156 51.6008L145.185 52.7432L147.214 53.8856L149.709 52.852L152.205 51.8184L154.196 47.7096L156.187 43.6008L157.835 36.4008L159.483 29.2008L159.912 27.8008L160.341 26.4008H158.287H156.233L156.219 26.6008L156.204 26.8008L153.948 35.7448L151.691 44.6888L150.361 46.7192L149.03 48.7496L147.894 48.3136L146.757 47.8776L145.595 44.9392L144.433 42.0008L142.667 34.2008L140.902 26.4008H138.114H135.325L135.721 27.8008ZM127.342 35.5408L128.91 39.7328L129.485 42.7936L130.059 45.8544L127.295 43.7456L124.53 41.6376L121.658 41.0192L118.785 40.4008L119.992 36.8008L121.198 33.2008L122.391 31.8544L123.584 30.5088L124.679 30.9288L125.774 31.3488L127.342 35.5408ZM174.193 37.8392L175.541 42.8008L175.948 44.2216L176.354 45.6424L172.537 43.2216L168.72 40.8008H166.877H165.033V40.4288V40.0568L166.301 36.2288L167.569 32.4008L168.845 31.4072L170.121 30.4136L171.483 31.6456L172.844 32.8776L174.193 37.8392Z" fill="black"/>
</g>
<defs>
<clipPath id="clip0_13368_57414">
<rect width="124" height="40" fill="white" transform="translate(85.8335 20)"/>
</clipPath>
</defs>
</svg>
