<svg width="321" height="80" viewBox="0 0 321 80" fill="none" xmlns="http://www.w3.org/2000/svg">
<path d="M162.576 35.341C161.369 34.6264 160.029 34.286 158.521 34.286C157.013 34.286 155.64 34.6264 154.467 35.341C153.261 36.0558 152.323 37.0087 151.652 38.268C150.949 39.4932 150.614 40.9226 150.614 42.4883C150.614 44.0879 150.949 45.4832 151.652 46.7085C152.356 47.9337 153.294 48.9207 154.467 49.6354C155.673 50.3502 157.013 50.6905 158.521 50.6905C160.029 50.6905 161.369 50.3502 162.576 49.6354C163.782 48.9207 164.72 47.9678 165.39 46.7085C166.094 45.4832 166.429 44.0538 166.429 42.4883C166.429 40.8886 166.094 39.4932 165.39 38.268C164.686 37.0087 163.748 36.0217 162.576 35.341ZM162.743 45.211C162.341 46.0278 161.771 46.6744 161.034 47.1509C160.297 47.6275 159.459 47.8656 158.555 47.8656C157.65 47.8656 156.779 47.6275 156.042 47.1509C155.305 46.6744 154.735 46.0278 154.299 45.211C153.897 44.3941 153.696 43.4753 153.696 42.4542C153.663 41.4331 153.864 40.5142 154.299 39.6975C154.702 38.8806 155.305 38.234 156.042 37.7575C156.779 37.281 157.617 37.0427 158.555 37.0427C159.493 37.0427 160.297 37.281 161.034 37.7234C161.771 38.1999 162.341 38.8125 162.743 39.6294C163.145 40.4462 163.346 41.3652 163.346 42.4202C163.346 43.4753 163.145 44.3941 162.743 45.211Z" fill="black"/>
<path d="M143.31 36.2255C143.31 37.1105 143.31 37.9613 143.343 38.7781C143.377 39.5949 143.377 40.3777 143.41 41.1264C143.444 41.8752 143.477 42.59 143.544 43.2707C143.578 43.9514 143.645 44.5639 143.712 45.1765C143.745 45.3467 143.745 45.5169 143.779 45.687L131.75 29.3165H128.835V50.3838H132.018V41.637C132.018 41.4668 132.018 41.2626 132.018 40.9904C132.018 40.7521 131.985 40.4458 131.985 40.0714C131.951 39.697 131.918 39.2206 131.884 38.642C131.851 38.0634 131.784 37.3146 131.717 36.4638C131.65 35.8512 131.616 35.1364 131.549 34.3197L143.611 50.3838H146.526V29.3165H143.343V36.2255H143.31Z" fill="black"/>
<path d="M174.705 29.3165H171.656V34.5919H168.439V37.5869H171.656V50.3838H174.705V37.5869H178.324V34.5919H174.705V29.3165Z" fill="black"/>
<path d="M256.829 41.8755C256.863 40.7864 256.696 39.7654 256.327 38.8124C255.992 37.8935 255.49 37.0767 254.852 36.396C254.216 35.7153 253.445 35.1707 252.574 34.7964C251.703 34.4219 250.765 34.2178 249.76 34.2178C248.621 34.2178 247.548 34.4219 246.576 34.8304C245.605 35.2388 244.767 35.8174 244.064 36.5662C243.361 37.3149 242.824 38.1998 242.422 39.2208C242.02 40.2418 241.819 41.365 241.819 42.6243C241.819 44.1898 242.153 45.5853 242.857 46.7765C243.562 47.9676 244.533 48.9206 245.772 49.6013C247.013 50.2819 248.42 50.6223 250.027 50.6223C250.765 50.6223 251.502 50.5202 252.273 50.316C253.043 50.1118 253.747 49.8055 254.417 49.4651C255.088 49.1247 255.691 48.6823 256.16 48.2059L254.618 46.0277C253.847 46.7084 253.144 47.1848 252.474 47.4571C251.803 47.7294 251.1 47.8315 250.329 47.8315C249.257 47.8315 248.286 47.6273 247.448 47.1848C246.611 46.7424 245.973 46.1298 245.538 45.3129C245.203 44.7003 244.968 44.0196 244.901 43.2369H256.796L256.829 41.8755ZM253.714 40.7523H245.036C245.136 40.3099 245.27 39.8675 245.438 39.493C245.806 38.7103 246.375 38.0977 247.079 37.6893C247.817 37.2808 248.721 37.0767 249.76 37.0767C250.429 37.0767 251.067 37.2127 251.637 37.5191C252.205 37.8254 252.675 38.2339 253.043 38.7444C253.412 39.2549 253.646 39.8675 253.68 40.5142V40.7523H253.714Z" fill="black"/>
<path d="M238.77 29.3165H235.721V50.3497H238.77V29.3165Z" fill="black"/>
<path d="M209.685 37.0086C209.383 36.4981 208.981 36.0215 208.513 35.6132C208.01 35.1707 207.407 34.8304 206.737 34.5921C206.067 34.354 205.329 34.2178 204.525 34.2178C203.152 34.2178 201.946 34.5581 200.84 35.2729C199.734 35.9876 198.863 36.9405 198.226 38.1658C197.59 39.391 197.254 40.8204 197.254 42.386C197.254 43.9515 197.556 45.347 198.193 46.6063C198.829 47.8656 199.667 48.8185 200.74 49.5673C201.778 50.2819 202.951 50.6564 204.257 50.6564C204.995 50.6564 205.731 50.5202 206.402 50.2819C207.072 50.0437 207.708 49.7374 208.278 49.329C208.848 48.9206 209.317 48.4782 209.685 47.9676C209.685 47.9676 209.685 47.9676 209.685 47.9335V50.35H212.768V34.5921H209.685V37.0086ZM209.217 45.2108C208.815 46.0277 208.245 46.6743 207.541 47.1168C206.838 47.5932 206 47.7975 205.095 47.7975C204.191 47.7975 203.387 47.5592 202.682 47.1168C201.979 46.6403 201.443 46.0277 201.041 45.2108C200.639 44.394 200.438 43.4751 200.438 42.42C200.438 41.399 200.639 40.4801 201.041 39.6973C201.443 38.8804 202.013 38.2679 202.682 37.7913C203.387 37.3149 204.191 37.1107 205.095 37.1107C206.033 37.1107 206.838 37.3489 207.541 37.7913C208.245 38.2679 208.815 38.8804 209.217 39.6973C209.619 40.5142 209.82 41.399 209.82 42.42C209.82 43.4751 209.619 44.394 209.217 45.2108Z" fill="black"/>
<path d="M228.853 35.3066C227.781 34.5919 226.542 34.2516 225.134 34.2516C224.498 34.2516 223.895 34.3536 223.257 34.5578C222.654 34.7621 222.084 35.0343 221.549 35.4088C221.012 35.7491 220.61 36.1574 220.276 36.5659C220.208 36.6339 220.142 36.736 220.108 36.8041V29.3165H217.059V50.2817H220.108V48.2737C220.477 48.7161 220.912 49.0904 221.415 49.4649C221.951 49.8392 222.554 50.1456 223.224 50.3497C223.895 50.554 224.565 50.6901 225.234 50.6901C226.608 50.6901 227.815 50.3497 228.92 49.635C229.993 48.9203 230.864 47.9334 231.467 46.7081C232.103 45.4488 232.405 44.0534 232.405 42.4538C232.405 40.8882 232.103 39.4587 231.467 38.2336C230.797 36.9743 229.925 36.0214 228.853 35.3066ZM228.82 45.2106C228.418 46.0274 227.848 46.6741 227.145 47.1505C226.441 47.627 225.636 47.8653 224.732 47.8653C223.794 47.8653 222.99 47.627 222.285 47.1505C221.582 46.6741 221.012 46.0274 220.61 45.2106C220.208 44.3938 219.974 43.4748 219.974 42.4197C219.974 41.3987 220.175 40.4799 220.61 39.663C221.012 38.8462 221.582 38.1996 222.285 37.757C222.99 37.2806 223.827 37.0764 224.732 37.0764C225.67 37.0764 226.474 37.3146 227.178 37.757C227.881 38.2336 228.451 38.8462 228.853 39.663C229.255 40.4799 229.456 41.3987 229.456 42.4197C229.423 43.4748 229.222 44.3938 228.82 45.2106Z" fill="black"/>
<path d="M193 36.4305C192.364 35.7499 191.593 35.2052 190.722 34.8309C189.85 34.4565 188.912 34.2523 187.907 34.2523C186.768 34.2523 185.696 34.4565 184.724 34.8649C183.752 35.2733 182.915 35.8519 182.21 36.6007C181.507 37.3495 180.971 38.2343 180.569 39.2553C180.167 40.2764 179.966 41.3996 179.966 42.6587C179.966 44.2244 180.301 45.6198 181.004 46.811C181.708 48.0022 182.68 48.9551 183.92 49.6358C185.159 50.3165 186.567 50.6568 188.175 50.6568C188.912 50.6568 189.649 50.5547 190.42 50.3506C191.191 50.1463 191.894 49.84 192.565 49.4996C193.234 49.1253 193.837 48.7169 194.306 48.2405L192.766 46.0622C191.995 46.7429 191.291 47.2193 190.621 47.4917C189.951 47.7639 189.247 47.866 188.476 47.866C187.404 47.866 186.432 47.6619 185.595 47.2193C184.757 46.7769 184.121 46.1643 183.685 45.3475C183.35 44.7349 183.116 44.0542 183.049 43.2714H194.944L194.977 41.9441C195.01 40.855 194.843 39.8339 194.474 38.881C194.14 37.894 193.67 37.1112 193 36.4305ZM191.86 40.7529H183.182C183.283 40.3105 183.417 39.8679 183.584 39.4936C183.953 38.7108 184.523 38.0982 185.226 37.6898C185.964 37.2814 186.868 37.0771 187.907 37.0771C188.577 37.0771 189.214 37.2133 189.783 37.5196C190.353 37.8259 190.822 38.2343 191.191 38.7448C191.559 39.2553 191.794 39.8679 191.827 40.5146V40.7529H191.86Z" fill="black"/>
<path d="M112.016 16.1801C111.613 15.9419 111.144 15.9419 110.742 16.1801L96.6697 24.2122L91.5097 16.5886C91.4762 16.5545 91.4427 16.5205 91.4427 16.4864L91.4092 16.4524C91.3757 16.3843 91.3086 16.3503 91.2752 16.3163L91.2416 16.2822C91.2081 16.2482 91.1411 16.2142 91.0741 16.1801C91.0406 16.1801 91.0406 16.1461 91.0071 16.1461C90.9736 16.1121 90.9065 16.1121 90.8731 16.078C90.8396 16.078 90.806 16.044 90.7726 16.044C90.739 16.044 90.7055 16.044 90.6385 16.01C90.605 16.01 90.538 16.01 90.5046 16.01C90.471 16.01 90.4375 16.01 90.4039 16.01C90.337 16.01 90.3034 16.01 90.2364 16.044C90.203 16.044 90.203 16.044 90.1695 16.044C90.1025 16.044 90.0689 16.078 90.002 16.1121C89.9684 16.1121 89.9684 16.1121 89.9349 16.1461C89.9014 16.1461 89.8679 16.1801 89.8344 16.1801L64.4701 30.6447C64.4366 30.6447 64.4366 30.6787 64.4031 30.6787H64.3696C64.3026 30.7128 64.2356 30.7808 64.2021 30.8149L64.1686 30.8489C64.1351 30.883 64.1015 30.951 64.068 30.9851L64.0345 31.0191C64.001 31.0872 63.9675 31.1552 63.934 31.2233V31.2573C63.9005 31.3254 63.9005 31.3594 63.9005 31.4275C63.9005 31.4615 63.9005 31.4615 63.9005 31.4956C63.8335 31.6316 63.8335 31.6997 63.8335 31.7678V62.671C63.8335 63.1134 64.068 63.5558 64.4701 63.7941C64.6712 63.8962 64.9057 63.9642 65.1067 63.9642C65.3078 63.9642 65.5423 63.8962 65.7434 63.7941L79.816 55.762L84.9425 63.4198C84.9425 63.4198 84.9425 63.4198 84.976 63.4537C84.976 63.4877 85.0095 63.4877 85.0095 63.5218C85.043 63.5558 85.043 63.5558 85.0764 63.5899L85.11 63.6239C85.1435 63.6579 85.1435 63.6579 85.1771 63.692L85.2105 63.726C85.244 63.7601 85.2776 63.7601 85.311 63.7941C85.311 63.7941 85.3446 63.7941 85.3446 63.8282C85.3446 63.8282 85.3446 63.8282 85.378 63.8282C85.4115 63.8622 85.4451 63.8622 85.4785 63.8622C85.5121 63.8622 85.5121 63.8622 85.5456 63.8962C85.579 63.8962 85.6126 63.9303 85.6461 63.9303C85.6796 63.9303 85.6796 63.9303 85.7131 63.9642C85.7466 63.9642 85.7801 63.9642 85.8136 63.9983H85.8472C85.9141 63.9983 85.9477 63.9983 86.0147 63.9983C86.0147 63.9983 86.0147 63.9983 86.0482 63.9983C86.0816 63.9983 86.1487 63.9983 86.1822 63.9983C86.2157 63.9983 86.2157 63.9983 86.2492 63.9983C86.2827 63.9983 86.3162 63.9982 86.3498 63.9642C86.3832 63.9642 86.3832 63.9642 86.4167 63.9303C86.4503 63.9303 86.4837 63.8962 86.5173 63.8962C86.5508 63.8962 86.5508 63.8622 86.5843 63.8622C86.5843 63.8622 86.6178 63.8622 86.6178 63.8282L111.982 49.3635C112.384 49.1254 112.619 48.7169 112.619 48.2404V17.3033C112.619 16.8268 112.384 16.4184 112.016 16.1801ZM66.38 60.4928V35.92L78.3417 53.6519L66.38 60.4928ZM85.378 30.6447C84.976 30.883 84.7414 31.2913 84.7414 31.7678V58.5188L66.9496 32.2102L90.0689 19.005L94.4248 25.4715L85.378 30.6447ZM110.106 47.4577L87.2879 60.4928V32.5166L110.106 19.5155V47.4577Z" fill="#00D2D2"/>
</svg>
