<svg width="296" height="80" viewBox="0 0 296 80" fill="none" xmlns="http://www.w3.org/2000/svg">
<path d="M103.909 51.9643V52.3325H108.759V47.4957V47.4797H103.909V51.5682C103.909 51.6836 103.909 51.8011 103.909 51.9185C103.907 51.9337 103.907 51.9491 103.909 51.9643Z" fill="#D8276C"/>
<path d="M84.1665 47.4787L85.6355 48.9218L89.0909 52.5046V47.4787H103.908V42.4826H89.1168C88.9735 42.4308 84.1665 37.5422 84.1665 37.5422V47.4787Z" fill="#D8276C"/>
<path d="M89.0197 28.1153V27.7471H84.1689V32.5839V32.5999H89.0197V28.5114C89.0197 28.396 89.0197 28.2785 89.0197 28.1611C89.0217 28.1452 89.0197 28.1273 89.0197 28.1153Z" fill="#D8276C"/>
<path d="M108.765 32.6009L107.296 31.1578L103.839 27.575V32.6009H89.0234V37.597H103.807C103.95 37.6487 108.757 42.5374 108.757 42.5374L108.765 32.6009Z" fill="#D8276C"/>
<path d="M148.334 34.615H152.375V36.6513L152.465 36.7349C153.679 34.9156 155.415 34.1592 157.515 34.2468C159.704 34.3403 161.209 35.457 162.073 37.5092C162.156 37.3917 162.222 37.3101 162.272 37.2285C163.613 34.9434 165.695 34.0637 168.243 34.2806C170.924 34.5115 172.638 36.2392 173.194 39.0936C173.321 39.7496 173.387 40.4159 173.393 41.0841C173.412 44.7525 173.403 48.4209 173.393 52.0894C173.393 52.2128 173.379 52.3362 173.371 52.4875H169.238V51.8923C169.238 48.413 169.238 44.9257 169.238 41.4583C169.243 40.998 169.196 40.5387 169.099 40.0888C168.854 39.0359 168.253 38.2655 167.146 38.0426C165.938 37.7998 164.822 38.0028 163.974 38.9841C163.09 40.0112 162.931 41.2771 162.923 42.567C162.905 45.6801 162.923 48.7932 162.923 51.9043V52.4875H158.8C158.8 52.2884 158.775 52.0894 158.775 51.8903C158.775 48.6499 158.775 45.4114 158.775 42.1709C158.775 41.5526 158.73 40.9352 158.639 40.3237C158.458 39.1593 157.855 38.3034 156.649 38.0466C155.351 37.7719 154.21 38.0784 153.374 39.1732C152.69 40.0689 152.457 41.1239 152.447 42.2166C152.417 45.4412 152.423 48.6638 152.415 51.8884C152.415 52.0755 152.415 52.2626 152.415 52.4855H148.334V34.615Z" fill="#281D4C"/>
<path d="M137.699 35.7882H133.308C133.252 35.5235 133.19 35.2369 133.128 34.9482C132.565 32.3248 131.04 31.021 128.351 30.8797C127.314 30.824 126.281 30.8598 125.298 31.2479C124.022 31.7495 123.194 32.6253 122.967 34.0167C122.782 35.1632 123.222 36.0072 124.201 36.5745C125.318 37.2253 126.568 37.4682 127.808 37.7488C129.571 38.1469 131.337 38.545 133.085 38.9969C133.661 39.1769 134.213 39.4269 134.729 39.7413C136.934 40.9495 137.914 42.8524 137.81 45.3266C137.629 49.4289 135.005 52.2375 130.897 52.7829C128.847 53.0868 126.756 52.973 124.751 52.4485C121.09 51.4533 118.99 48.9731 118.128 45.3604C118.059 45.0658 118.003 44.7633 117.947 44.4746C117.941 44.3998 117.941 44.3246 117.947 44.2497H122.392C122.491 44.618 122.591 44.9981 122.698 45.3743C123.286 47.4146 124.597 48.6566 126.717 49.0169C128.11 49.2538 129.504 49.2816 130.875 48.8835C132.585 48.3859 133.54 47.1618 133.612 45.4619C133.643 45.0643 133.567 44.6658 133.392 44.3075C133.217 43.9491 132.949 43.644 132.617 43.4237C131.661 42.7429 130.545 42.4762 129.432 42.2115C127.657 41.7875 125.863 41.4332 124.108 40.9435C123.258 40.682 122.444 40.317 121.683 39.8567C119.573 38.6465 118.652 36.7695 118.783 34.367C118.964 31.1245 121.006 28.5648 124.281 27.5815C126.935 26.7699 129.787 26.8921 132.362 27.9278C135.26 29.0624 136.815 31.3335 137.494 34.2794C137.581 34.6656 137.633 35.0597 137.693 35.4518C137.702 35.5637 137.704 35.6761 137.699 35.7882Z" fill="#281D4C"/>
<path d="M192.552 38.2434C191.015 35.8409 188.756 34.577 185.944 34.366C182.301 34.0933 179.297 35.2856 177.337 38.5022C176.202 40.3673 175.902 42.4354 176.069 44.5951C176.447 49.4737 180.016 52.8018 185.225 52.8217C187.256 52.8171 189.222 52.1096 190.79 50.8193C194.612 47.7201 194.841 41.8283 192.552 38.2434ZM189.831 44.4497C189.724 45.6807 189.253 46.8519 188.477 47.8137C187.03 49.5215 184.023 49.7524 182.221 48.4884C181.573 48.0167 181.071 47.3716 180.772 46.6273C180.355 45.6704 180.141 44.6369 180.144 43.5927C180.148 42.5486 180.368 41.5166 180.792 40.5624C181.483 38.954 182.93 38.0205 184.66 37.915C185.668 37.8273 186.678 38.0547 187.552 38.5659C189.453 39.7403 190.068 42.2602 189.831 44.4497Z" fill="#281D4C"/>
<path d="M196.645 34.6265H200.745V36.9255C200.89 36.7603 200.954 36.7006 201.004 36.6289C202.331 34.7559 204.206 34.1149 206.412 34.2622C210.032 34.4951 211.693 36.9972 212.065 40.0685C212.132 40.6831 212.164 41.3012 212.16 41.9196C212.168 45.2371 212.168 48.5545 212.16 51.872V52.4691H208.002V51.872C208.002 48.3787 208.002 44.8834 207.978 41.3901C207.972 41.0414 207.928 40.6943 207.847 40.3551C207.56 39.123 206.868 38.2531 205.57 38.0183C204.071 37.7456 202.783 38.1277 201.87 39.4116C201.191 40.3844 200.824 41.54 200.817 42.7257C200.753 45.3273 200.763 47.9308 200.745 50.5364C200.745 51.1673 200.745 51.7983 200.745 52.4611H196.645V34.6265Z" fill="#281D4C"/>
<path d="M144.92 52.4565H140.806V34.594H144.92V52.4565Z" fill="#281D4C"/>
<path d="M140.68 32.1917V27.948H145.009V32.1917H140.68Z" fill="#281D4C"/>
<path d="M189.454 41.0743C189.112 40.0262 188.425 39.125 187.505 38.5186C188.443 39.106 189.135 40.0143 189.454 41.0743V41.0743Z" fill="#281D4C"/>
<path d="M189.844 44.4076C189.87 44.1369 189.884 43.8642 189.884 43.5895C189.884 43.492 189.884 43.3905 189.884 43.2949C189.897 43.3925 189.913 43.494 189.929 43.5895C189.901 43.8662 189.878 44.1389 189.844 44.4076Z" fill="#281D4C"/>
</svg>
