<svg width="280" height="70" viewBox="0 0 280 70" fill="none" xmlns="http://www.w3.org/2000/svg">
<path d="M54.858 21.7578C55.9371 21.7199 56.8931 21.8051 57.726 22.0133C58.559 22.2216 59.2973 22.5339 59.9409 22.9504C60.0545 23.0261 60.1586 23.0924 60.2533 23.1492C60.3668 23.206 60.471 23.2817 60.5656 23.3763C60.6035 23.4142 60.6413 23.4521 60.6792 23.4899C60.7171 23.5088 60.7549 23.5372 60.7928 23.5751C60.8307 23.613 60.878 23.6603 60.9348 23.7171C60.9916 23.7549 61.0389 23.8023 61.0767 23.8591C61.1525 23.9537 61.2282 24.0484 61.3039 24.143C61.3796 24.2377 61.4554 24.3323 61.5311 24.427C61.6068 24.5216 61.6636 24.6258 61.7015 24.7393C61.7583 24.834 61.815 24.9286 61.8718 25.0233C62.0422 25.2883 62.1747 25.5912 62.2694 25.932C62.364 26.2538 62.4587 26.5945 62.5533 26.9542C62.5912 27.1057 62.6007 27.2761 62.5817 27.4654C62.5817 27.6357 62.5533 27.7682 62.4965 27.8629C62.4019 27.9954 62.2505 28.0711 62.0422 28.0901C61.834 28.109 61.6163 28.1185 61.3891 28.1185C61.2945 28.1185 61.2093 28.1185 61.1335 28.1185C61.0578 28.1185 60.9821 28.109 60.9064 28.0901C60.8117 28.0711 60.7265 28.0617 60.6508 28.0617C60.594 28.0617 60.5278 28.0427 60.452 28.0049C60.4142 27.986 60.3763 27.967 60.3385 27.9481C60.3006 27.9102 60.2627 27.8724 60.2249 27.8345C60.1113 27.6641 60.0261 27.4559 59.9693 27.2098C59.9314 26.9637 59.8652 26.746 59.7705 26.5567C59.4487 25.7995 58.9944 25.2315 58.4075 24.8529C57.9721 24.55 57.4515 24.3229 56.8457 24.1714C56.7322 24.1336 56.6186 24.1146 56.505 24.1146C56.3914 24.0957 56.2778 24.0673 56.1642 24.0294H55.9371C55.7856 23.9916 55.6342 23.9726 55.4827 23.9726C55.3313 23.9726 55.1798 23.9726 55.0284 23.9726C54.044 23.9726 53.2205 24.1241 52.5579 24.427C52.1793 24.5784 51.8386 24.7867 51.5357 25.0517C51.2328 25.2978 51.0056 25.6102 50.8542 25.9888C50.7785 26.1402 50.7217 26.3011 50.6838 26.4715C50.6649 26.6229 50.6365 26.7933 50.5986 26.9826C50.5608 27.1341 50.5418 27.3044 50.5418 27.4938C50.5608 27.6831 50.5892 27.844 50.627 27.9765C50.7595 28.4119 50.9204 28.7432 51.1098 28.9703C51.318 29.1975 51.6019 29.4152 51.9616 29.6235C52.3781 29.8885 52.8419 30.0873 53.353 30.2198C53.8642 30.3523 54.3942 30.4943 54.9432 30.6457C55.1136 30.6836 55.284 30.712 55.4543 30.7309C55.6247 30.7498 55.7951 30.7877 55.9655 30.8445C56.2305 30.9202 56.505 30.9865 56.789 31.0433C57.0918 31.0811 57.3758 31.1474 57.6408 31.242C57.7166 31.261 57.7828 31.2799 57.8396 31.2988C57.8964 31.2988 57.9627 31.3083 58.0384 31.3272C58.2088 31.3651 58.3791 31.4124 58.5495 31.4692C58.7199 31.5071 58.8903 31.5544 59.0606 31.6112C59.4392 31.7437 59.8084 31.8857 60.1681 32.0371C60.5278 32.1886 60.8685 32.3684 61.1903 32.5766C61.6068 32.8417 61.976 33.154 62.2978 33.5137C62.6385 33.8545 62.913 34.2615 63.1213 34.7347C63.197 34.9051 63.2538 35.0755 63.2916 35.2459C63.3295 35.4162 63.3674 35.5961 63.4052 35.7854C63.4431 35.88 63.462 35.9936 63.462 36.1261C63.462 36.2397 63.4809 36.3533 63.5188 36.4669V36.7792V37.0348C63.4999 37.1105 63.4904 37.1863 63.4904 37.262C63.4904 37.3377 63.4904 37.4134 63.4904 37.4891C63.4525 37.6406 63.4242 37.8015 63.4052 37.9719C63.4052 38.1233 63.3768 38.2748 63.32 38.4262C63.2254 38.7102 63.1213 38.9847 63.0077 39.2497C62.8941 39.5147 62.7521 39.7608 62.5817 39.988C62.2599 40.4802 61.8529 40.8967 61.3607 41.2374C60.8685 41.5782 60.3385 41.8811 59.7705 42.1461C59.5812 42.2218 59.3919 42.2881 59.2026 42.3449C59.0322 42.4017 58.8429 42.4585 58.6347 42.5152C58.4265 42.591 58.2088 42.6383 57.9816 42.6572C57.7544 42.6951 57.5272 42.7424 57.3001 42.7992C57.2054 42.8181 57.1013 42.8276 56.9877 42.8276C56.8931 42.8276 56.7984 42.8371 56.7038 42.856C56.5902 42.856 56.4766 42.856 56.363 42.856C56.2494 42.8749 56.1358 42.8844 56.0223 42.8844C55.9276 42.9033 55.7856 42.9128 55.5963 42.9128C55.4259 42.9128 55.2934 42.9033 55.1988 42.8844H54.8864C54.6971 42.8465 54.5078 42.8276 54.3185 42.8276C54.1292 42.8276 53.9494 42.8087 53.779 42.7708C53.7033 42.7519 53.6275 42.7329 53.5518 42.714C53.4761 42.714 53.3909 42.7045 53.2962 42.6856C53.088 42.6478 52.8892 42.6099 52.6999 42.572C52.5296 42.5342 52.3497 42.4774 52.1604 42.4017C51.2328 42.0988 50.4472 41.7107 49.8035 41.2374C49.1788 40.7642 48.6393 40.1489 48.185 39.3917C48.0335 39.1456 47.901 38.89 47.7874 38.625C47.6928 38.36 47.5981 38.076 47.5035 37.7731C47.4656 37.6595 47.4372 37.5459 47.4183 37.4324C47.4183 37.3188 47.3993 37.2147 47.3615 37.12C47.3236 36.9496 47.3047 36.7603 47.3047 36.5521C47.3047 36.3249 47.352 36.164 47.4467 36.0693C47.5413 35.9368 47.6928 35.8611 47.901 35.8422C48.1282 35.8232 48.3459 35.8138 48.5541 35.8138C48.6298 35.8138 48.7056 35.8138 48.7813 35.8138C48.8759 35.8138 48.9517 35.8232 49.0084 35.8422C49.1031 35.8611 49.1788 35.8706 49.2356 35.8706C49.2924 35.8516 49.3587 35.8611 49.4344 35.899C49.5669 35.9747 49.6521 36.0504 49.69 36.1261C49.7467 36.2208 49.7751 36.3249 49.7751 36.4385C49.7941 36.5331 49.8225 36.6373 49.8603 36.7509C49.8982 36.8834 49.9266 37.0159 49.9455 37.1484C49.9834 37.2809 50.0307 37.4134 50.0875 37.5459C50.4093 38.36 50.892 39.0036 51.5357 39.4769C51.8575 39.723 52.2077 39.9217 52.5863 40.0732C52.965 40.2246 53.372 40.3666 53.8074 40.4991C53.9588 40.537 54.1103 40.5654 54.2617 40.5843C54.4132 40.6032 54.5646 40.6222 54.716 40.6411C54.7539 40.6411 54.8012 40.6506 54.858 40.6695C54.9148 40.6695 54.9716 40.6695 55.0284 40.6695C55.1041 40.6884 55.1893 40.6884 55.284 40.6695C55.3975 40.6506 55.5017 40.66 55.5963 40.6979C55.672 40.7168 55.7762 40.7263 55.9087 40.7263C56.0601 40.7263 56.1832 40.7074 56.2778 40.6695H56.4766C56.5712 40.6506 56.6659 40.6411 56.7606 40.6411C56.8552 40.6411 56.9499 40.6316 57.0445 40.6127C57.1013 40.5938 57.1486 40.5938 57.1865 40.6127C57.2433 40.6127 57.3095 40.5938 57.3853 40.5559C57.5367 40.5181 57.6976 40.4897 57.868 40.4707C58.0384 40.4329 58.1993 40.3855 58.3507 40.3287C58.8429 40.1205 59.2783 39.8839 59.6569 39.6188C60.0545 39.3349 60.3574 38.9563 60.5656 38.483C60.6224 38.3316 60.6697 38.1801 60.7076 38.0287C60.7455 37.8772 60.7833 37.7258 60.8212 37.5743C60.859 37.4229 60.878 37.243 60.878 37.0348C60.878 36.8266 60.859 36.6562 60.8212 36.5237C60.7833 36.429 60.7644 36.3533 60.7644 36.2965C60.7644 36.2208 60.7455 36.1451 60.7076 36.0693C60.594 35.7475 60.4426 35.4825 60.2533 35.2743C60.064 35.0471 59.8368 34.8389 59.5718 34.6495C59.1742 34.3656 58.7293 34.1384 58.2371 33.968C57.745 33.7977 57.2244 33.6557 56.6754 33.5421C56.1453 33.4096 55.5963 33.2865 55.0284 33.173C54.4605 33.0594 53.9115 32.9269 53.3814 32.7754C53.0785 32.6808 52.7757 32.605 52.4728 32.5482C52.1699 32.4725 51.8859 32.3779 51.6209 32.2643C51.583 32.2454 51.5546 32.2359 51.5357 32.2359C51.5168 32.2359 51.4884 32.2264 51.4505 32.2075C51.2612 32.1318 51.0719 32.056 50.8826 31.9803C50.6933 31.9046 50.5134 31.8099 50.3431 31.6964C49.9077 31.4313 49.5101 31.1474 49.1504 30.8445C48.7907 30.5227 48.5068 30.1157 48.2985 29.6235C48.2039 29.4531 48.1376 29.2732 48.0998 29.0839C48.0619 28.8757 48.0146 28.6675 47.9578 28.4592C47.9578 28.3835 47.9483 28.3172 47.9294 28.2604C47.9294 28.2037 47.9294 28.1469 47.9294 28.0901C47.8726 27.8629 47.8631 27.5789 47.901 27.2382C47.9389 26.8785 47.9862 26.604 48.043 26.4147C48.0998 26.2065 48.1471 26.0077 48.185 25.8184C48.2418 25.6291 48.308 25.4492 48.3837 25.2789C48.6488 24.7109 48.9895 24.2377 49.406 23.8591C49.8225 23.4615 50.2863 23.1018 50.7974 22.78C50.8353 22.7422 50.8826 22.7232 50.9394 22.7232C50.9962 22.7043 51.0435 22.6759 51.0814 22.638C51.4978 22.4298 51.9806 22.25 52.5296 22.0985C52.681 22.0607 52.823 22.0323 52.9555 22.0133C53.088 21.9755 53.23 21.9376 53.3814 21.8997C53.5329 21.8619 53.6938 21.8429 53.8642 21.8429C54.0535 21.8429 54.2238 21.824 54.3753 21.7862C54.4321 21.7672 54.5173 21.7672 54.6309 21.7862C54.7444 21.8051 54.8202 21.7956 54.858 21.7578Z" fill="#3E69B3"/>
<path d="M66.8537 24.938C66.7023 24.8244 66.6171 24.6257 66.5981 24.3417C66.5981 24.0388 66.5981 23.7454 66.5981 23.4614C66.5981 23.31 66.5981 23.1491 66.5981 22.9787C66.5981 22.8083 66.6265 22.6663 66.6833 22.5527C66.7591 22.4013 66.9105 22.2877 67.1377 22.212C67.1755 22.1931 67.2134 22.1931 67.2513 22.212C67.308 22.212 67.3554 22.2025 67.3932 22.1836C67.7151 22.1836 68.0179 22.1931 68.3019 22.212C68.5859 22.2309 68.7752 22.3445 68.8698 22.5527C68.9266 22.6663 68.955 22.8083 68.955 22.9787C68.955 23.1301 68.955 23.291 68.955 23.4614C68.955 23.8022 68.9455 24.124 68.9266 24.4269C68.9266 24.7298 68.8036 24.9285 68.5575 25.0232C68.4628 25.0611 68.3587 25.08 68.2451 25.08C68.1505 25.08 68.0463 25.08 67.9328 25.08C67.7245 25.08 67.5257 25.08 67.3364 25.08C67.1471 25.08 66.9862 25.0327 66.8537 24.938ZM68.955 41.0385C68.955 41.2278 68.955 41.4266 68.955 41.6349C68.9739 41.8242 68.9361 41.9756 68.8414 42.0892C68.7846 42.2028 68.6994 42.2785 68.5859 42.3164C68.4723 42.3353 68.3398 42.3637 68.1883 42.4016H67.7624C67.5163 42.4016 67.2986 42.3921 67.1093 42.3732C66.9389 42.3353 66.8064 42.2406 66.7117 42.0892C66.636 41.9756 66.5981 41.8336 66.5981 41.6633C66.5981 41.4739 66.5981 41.2941 66.5981 41.1237V29.1122C66.5981 28.904 66.5981 28.7052 66.5981 28.5159C66.5981 28.3077 66.6455 28.1468 66.7401 28.0332C66.7969 27.9385 66.8726 27.8817 66.9673 27.8628C67.0619 27.8439 67.1661 27.8155 67.2796 27.7776C67.3175 27.7776 67.3554 27.7871 67.3932 27.806C67.45 27.806 67.4974 27.7965 67.5352 27.7776C67.7813 27.7776 68.0274 27.7871 68.2735 27.806C68.5385 27.806 68.7184 27.8817 68.813 28.0332C68.9077 28.1468 68.955 28.2982 68.955 28.4875C68.955 28.6579 68.955 28.8377 68.955 29.027V41.0385Z" fill="#3E69B3"/>
<path d="M79.6222 27.4363C80.3416 27.4174 80.9474 27.4931 81.4396 27.6635C81.9507 27.8338 82.4145 28.0799 82.831 28.4018C82.9824 28.4964 83.1055 28.6289 83.2001 28.7993C83.3137 28.9508 83.4368 29.0927 83.5693 29.2252C83.6072 29.2631 83.6639 29.3104 83.7397 29.3672C83.8154 29.424 83.91 29.443 84.0236 29.424C84.2129 29.3672 84.3738 29.2536 84.5064 29.0833C84.6578 28.894 84.8092 28.752 84.9607 28.6573C85.2257 28.4491 85.5002 28.2692 85.7842 28.1178C86.0681 27.9474 86.3805 27.8054 86.7212 27.6919C86.8727 27.6351 87.0336 27.5972 87.204 27.5783C87.3933 27.5404 87.5731 27.5026 87.7435 27.4647C87.8382 27.4458 87.9233 27.4363 87.9991 27.4363C88.0937 27.4363 88.1884 27.4363 88.283 27.4363C88.3777 27.3984 88.5102 27.389 88.6806 27.4079C88.8509 27.4079 88.974 27.4174 89.0497 27.4363C89.1444 27.4552 89.2864 27.4647 89.4757 27.4647C89.646 27.5026 89.8069 27.5404 89.9584 27.5783C90.1288 27.5972 90.2897 27.6351 90.4411 27.6919C90.5358 27.7297 90.621 27.7581 90.6967 27.7771C90.7913 27.7771 90.886 27.796 90.9806 27.8338C91.9272 28.2503 92.5803 28.894 92.94 29.7648C93.0157 29.9162 93.0725 30.0866 93.1103 30.2759C93.1482 30.4463 93.1861 30.6356 93.2239 30.8438C93.2618 30.9006 93.2713 30.9669 93.2523 31.0426C93.2523 31.0994 93.2618 31.1562 93.2807 31.213V31.4685C93.2997 31.5443 93.2997 31.6294 93.2807 31.7241C93.2807 31.8187 93.2807 31.9134 93.2807 32.0081V33.1155V34.9328V40.3281C93.2807 40.631 93.2807 40.9907 93.2807 41.4071C93.2997 41.8236 93.2239 42.0981 93.0536 42.2306C92.9778 42.2874 92.8548 42.3347 92.6844 42.3726C92.514 42.3915 92.3342 42.401 92.1449 42.401C91.9556 42.401 91.7663 42.3915 91.577 42.3726C91.4066 42.3537 91.2835 42.3158 91.2078 42.259C91.0942 42.2022 91.0185 42.0886 90.9806 41.9183C90.9428 41.8047 90.9333 41.6911 90.9522 41.5775C90.9712 41.445 90.9617 41.3219 90.9239 41.2084C90.9049 41.1137 90.8955 41.0096 90.8955 40.896C90.9144 40.7635 90.9239 40.6404 90.9239 40.5269V39.249V33.8254C90.9239 33.2007 90.9049 32.6138 90.8671 32.0648C90.8481 31.4969 90.7156 31.0237 90.4695 30.645C90.1856 30.1907 89.7502 29.8594 89.1633 29.6512C89.0497 29.6133 88.9267 29.5944 88.7942 29.5944C88.6806 29.5755 88.5575 29.5471 88.425 29.5092C88.3493 29.4903 88.2262 29.4903 88.0559 29.5092C87.8855 29.5092 87.7719 29.5187 87.7151 29.5376C87.6205 29.5565 87.5258 29.566 87.4311 29.566C87.3365 29.5471 87.2418 29.5565 87.1472 29.5944C86.8822 29.6512 86.6266 29.7269 86.3805 29.8216C85.3961 30.238 84.7335 30.9669 84.3928 32.0081C84.2981 32.3299 84.2413 32.699 84.2224 33.1155C84.2224 33.532 84.2224 33.9579 84.2224 34.3933V38.1132V40.8676C84.2224 41.0948 84.2224 41.3314 84.2224 41.5775C84.2224 41.8047 84.1751 41.9845 84.0804 42.117C83.9858 42.2685 83.8249 42.3537 83.5977 42.3726C83.3705 42.3915 83.1339 42.401 82.8878 42.401C82.566 42.401 82.3293 42.3631 82.1779 42.2874C82.0075 42.1928 81.9034 42.0413 81.8655 41.8331C81.8466 41.6059 81.8371 41.3598 81.8371 41.0948V38.3972V33.7118C81.8371 33.106 81.8182 32.5476 81.7803 32.0365C81.7425 31.5064 81.61 31.0521 81.3828 30.6734C81.1746 30.3327 80.9379 30.0866 80.6729 29.9351C80.4079 29.7648 80.0482 29.6323 79.5939 29.5376C79.5181 29.5187 79.4329 29.5092 79.3383 29.5092C79.2626 29.5092 79.1774 29.5092 79.0827 29.5092C78.6662 29.5092 78.2971 29.5565 77.9753 29.6512C77.6724 29.7458 77.3979 29.8689 77.1518 30.0203C76.1863 30.6072 75.5427 31.4875 75.2209 32.6612C75.1451 32.9073 75.1073 33.1912 75.1073 33.513C75.1262 33.8159 75.1357 34.1188 75.1357 34.4217V37.6305V40.754C75.1357 41.0001 75.1357 41.2557 75.1357 41.5207C75.1357 41.7857 75.0789 41.994 74.9653 42.1454C74.8706 42.2779 74.7287 42.3537 74.5394 42.3726C74.3501 42.3915 74.1513 42.401 73.943 42.401H73.5171C73.4035 42.3631 73.2899 42.3347 73.1764 42.3158C73.0817 42.2969 72.9965 42.2401 72.9208 42.1454C72.8261 42.0318 72.7788 41.8899 72.7788 41.7195C72.7788 41.5302 72.7788 41.3314 72.7788 41.1232V39.2774V31.1562V29.0549C72.7788 28.8656 72.7788 28.6857 72.7788 28.5153C72.7788 28.326 72.8167 28.1746 72.8924 28.061C72.9492 27.9474 73.0344 27.8717 73.148 27.8338C73.2994 27.7771 73.536 27.7487 73.8579 27.7487C74.1986 27.7487 74.4447 27.7771 74.5962 27.8338C74.7476 27.9096 74.8517 28.0042 74.9085 28.1178C74.9464 28.2125 74.9653 28.326 74.9653 28.4586C74.9842 28.5911 75.0032 28.7141 75.0221 28.8277C75.041 28.9413 75.0789 29.0359 75.1357 29.1117C75.1925 29.1874 75.2871 29.2252 75.4196 29.2252C75.4575 29.1874 75.4954 29.1685 75.5332 29.1685C75.59 29.1685 75.6373 29.1495 75.6752 29.1117C75.7888 29.017 75.8929 28.9224 75.9876 28.8277C76.1011 28.733 76.2147 28.6384 76.3283 28.5437C76.7448 28.2409 77.2181 27.9758 77.7481 27.7487C77.9374 27.6729 78.1267 27.6256 78.316 27.6067C78.5053 27.5688 78.7041 27.5215 78.9123 27.4647C79.0259 27.4647 79.1395 27.4647 79.2531 27.4647C79.3856 27.4458 79.5087 27.4363 79.6222 27.4363Z" fill="#3E69B3"/>
<path d="M110.929 34.7067C110.948 34.8013 110.957 34.9244 110.957 35.0758C110.957 35.2273 110.948 35.3503 110.929 35.445C110.891 35.5396 110.882 35.6343 110.901 35.7289C110.92 35.8047 110.92 35.8804 110.901 35.9561C110.901 36.0886 110.891 36.1927 110.872 36.2685C110.834 36.4388 110.806 36.6092 110.787 36.7796C110.787 36.95 110.768 37.1203 110.73 37.2907C110.692 37.4422 110.655 37.5936 110.617 37.7451C110.579 37.8776 110.532 38.0195 110.475 38.171C110.248 38.8714 109.935 39.5056 109.538 40.0735C109.424 40.2439 109.301 40.4143 109.169 40.5847C109.036 40.7361 108.894 40.8781 108.743 41.0106L108.601 41.1526C108.468 41.2472 108.345 41.3419 108.231 41.4365C108.118 41.5312 107.985 41.6258 107.834 41.7205C107.626 41.8719 107.389 42.0045 107.124 42.118C106.878 42.2127 106.622 42.3073 106.357 42.402C106.206 42.4399 106.054 42.4683 105.903 42.4872C105.77 42.5061 105.629 42.5345 105.477 42.5724C105.439 42.5724 105.401 42.5724 105.363 42.5724C105.345 42.5913 105.316 42.6008 105.278 42.6008C105.108 42.6386 104.852 42.6576 104.512 42.6576C104.19 42.6765 103.934 42.667 103.745 42.6292H103.603C103.47 42.6102 103.347 42.5913 103.234 42.5724C103.12 42.5724 103.007 42.5534 102.893 42.5156C102.571 42.4209 102.268 42.3357 101.984 42.26C101.7 42.1843 101.435 42.0707 101.189 41.9193C100.886 41.7489 100.621 41.569 100.394 41.3797C100.318 41.323 100.205 41.2472 100.053 41.1526C99.902 41.039 99.76 41.0295 99.6275 41.1242C99.5518 41.181 99.5139 41.2567 99.5139 41.3513C99.5139 41.446 99.495 41.5501 99.4571 41.6637C99.4382 41.7205 99.4382 41.7868 99.4571 41.8625C99.476 41.9193 99.476 41.9855 99.4571 42.0612C99.4193 42.1748 99.4003 42.2979 99.4003 42.4304C99.4193 42.5818 99.4287 42.7144 99.4287 42.8279V46.2355C99.4287 46.5005 99.4287 46.775 99.4287 47.0589C99.4287 47.3429 99.3719 47.5606 99.2583 47.7121C99.1637 47.8446 99.0122 47.9108 98.804 47.9108C98.5958 47.9298 98.3875 47.9392 98.1793 47.9392H97.725C97.5924 47.9014 97.4789 47.8635 97.3842 47.8256C97.3085 47.7878 97.2422 47.7215 97.1854 47.6269C97.0908 47.4944 97.0435 47.2861 97.0435 47.0022C97.0624 46.7182 97.0719 46.4721 97.0719 46.2639V29.2263C97.0719 28.9991 97.0719 28.7719 97.0719 28.5447C97.0908 28.2986 97.1476 28.0999 97.2422 27.9484C97.299 27.8727 97.4221 27.8159 97.6114 27.7781C97.8196 27.7213 98.0373 27.7023 98.2645 27.7213C98.4917 27.7213 98.6999 27.7497 98.8892 27.8065C99.0974 27.8443 99.2299 27.9011 99.2867 27.9768C99.3625 28.0715 99.4003 28.1851 99.4003 28.3176C99.4193 28.4501 99.4571 28.5826 99.5139 28.7151C99.5518 28.7719 99.5802 28.8192 99.5991 28.8571C99.637 28.876 99.6748 28.9044 99.7127 28.9423C99.9209 28.9612 100.091 28.895 100.224 28.7435C100.375 28.5921 100.517 28.469 100.65 28.3744C101.142 28.0336 101.729 27.7686 102.41 27.5793C102.581 27.5414 102.751 27.513 102.921 27.4941C103.111 27.4752 103.3 27.4468 103.489 27.4089C103.565 27.39 103.66 27.39 103.773 27.4089C103.887 27.4278 103.963 27.4184 104 27.3805C104.814 27.3616 105.534 27.4468 106.159 27.6361C106.783 27.8065 107.342 28.0525 107.834 28.3744C107.929 28.4501 108.023 28.5258 108.118 28.6015C108.213 28.6583 108.307 28.7246 108.402 28.8003C108.44 28.8382 108.468 28.876 108.487 28.9139C108.525 28.9328 108.563 28.9612 108.601 28.9991C108.695 29.0937 108.799 29.1979 108.913 29.3114C109.027 29.425 109.131 29.5386 109.225 29.6522C109.453 29.974 109.689 30.3242 109.935 30.7028C110.087 30.9489 110.21 31.2234 110.304 31.5263C110.418 31.8292 110.522 32.1321 110.617 32.435C110.655 32.5864 110.683 32.7474 110.702 32.9177C110.74 33.0881 110.778 33.249 110.816 33.4005C110.816 33.4762 110.816 33.5519 110.816 33.6276C110.834 33.6844 110.844 33.7412 110.844 33.798C110.882 33.8927 110.891 33.9968 110.872 34.1104C110.872 34.2239 110.891 34.3281 110.929 34.4227V34.7067ZM108.402 35.4734C108.44 35.3787 108.449 35.2651 108.43 35.1326C108.411 34.9812 108.402 34.8487 108.402 34.7351C108.402 34.4133 108.383 34.1104 108.345 33.8264C108.326 33.5424 108.269 33.268 108.175 33.0029C108.137 32.8893 108.099 32.7758 108.061 32.6622C108.042 32.5297 108.004 32.4066 107.948 32.293C107.739 31.7819 107.408 31.2897 106.954 30.8164C106.518 30.3432 106.102 30.0213 105.704 29.851C105.553 29.7752 105.392 29.7184 105.222 29.6806C105.07 29.6427 104.909 29.5954 104.739 29.5386C104.568 29.5007 104.37 29.4818 104.142 29.4818C103.934 29.4818 103.726 29.4818 103.518 29.4818C103.48 29.5197 103.404 29.5386 103.291 29.5386C103.196 29.5197 103.111 29.5197 103.035 29.5386C102.865 29.5765 102.694 29.6143 102.524 29.6522C102.372 29.6901 102.221 29.7468 102.07 29.8226C101.464 30.0876 100.962 30.4757 100.565 30.9868C100.186 31.479 99.8925 32.0564 99.6843 32.719C99.6086 32.9272 99.5518 33.1354 99.5139 33.3437C99.495 33.5519 99.4666 33.7601 99.4287 33.9684C99.4098 34.0441 99.4003 34.1198 99.4003 34.1956C99.4003 34.2523 99.3909 34.3186 99.3719 34.3943V34.6215C99.353 34.7161 99.3435 34.8581 99.3435 35.0474C99.3435 35.2178 99.353 35.3503 99.3719 35.445V35.6721C99.3909 35.7479 99.4003 35.8236 99.4003 35.8993C99.4003 35.975 99.4098 36.0413 99.4287 36.0981C99.4477 36.1549 99.4571 36.2117 99.4571 36.2685C99.4571 36.3253 99.4666 36.3915 99.4855 36.4672C99.5234 36.6187 99.5518 36.7701 99.5707 36.9216C99.6086 37.073 99.6464 37.2245 99.6843 37.3759C99.8925 38.0195 100.176 38.5875 100.536 39.0797C100.915 39.5529 101.407 39.9221 102.013 40.1871C102.372 40.3386 102.742 40.4521 103.12 40.5279C103.196 40.5657 103.272 40.5847 103.347 40.5847C103.423 40.5657 103.499 40.5657 103.575 40.5847H103.802C103.934 40.6225 104.067 40.6225 104.199 40.5847H104.426C104.635 40.5468 104.833 40.5184 105.023 40.4995C105.212 40.4805 105.401 40.4332 105.591 40.3575C106.178 40.1114 106.651 39.7896 107.01 39.392C107.389 38.9755 107.701 38.4739 107.948 37.887C108.042 37.622 108.108 37.357 108.146 37.0919C108.203 36.808 108.269 36.5146 108.345 36.2117C108.364 36.117 108.373 36.0318 108.373 35.9561C108.373 35.8804 108.383 35.7952 108.402 35.7005V35.4734Z" fill="#3E69B3"/>
<path d="M114.812 22.1836C115.058 22.1836 115.314 22.1836 115.579 22.1836C115.863 22.1836 116.071 22.2499 116.204 22.3824C116.298 22.5149 116.346 22.6947 116.346 22.9219C116.365 23.1301 116.374 23.3478 116.374 23.575V26.1022V37.6026V40.783C116.374 41.0101 116.374 41.2562 116.374 41.5213C116.374 41.7863 116.327 41.9945 116.232 42.146C116.175 42.2406 116.09 42.2974 115.976 42.3164C115.882 42.3353 115.759 42.3637 115.607 42.4016H115.21C115.002 42.4016 114.803 42.4016 114.613 42.4016C114.424 42.3826 114.282 42.3164 114.188 42.2028C114.093 42.0513 114.036 41.862 114.017 41.6349C114.017 41.4077 114.017 41.1711 114.017 40.925V38.3125V26.4998V23.717C114.017 23.5087 114.008 23.291 113.989 23.0639C113.989 22.8178 114.036 22.6285 114.131 22.4959C114.206 22.3824 114.348 22.2877 114.557 22.212C114.595 22.1931 114.632 22.1931 114.67 22.212C114.727 22.212 114.774 22.2025 114.812 22.1836Z" fill="#3E69B3"/>
<path d="M119.516 27.7782C119.762 27.7782 120.046 27.7782 120.368 27.7782C120.69 27.7592 120.926 27.7971 121.078 27.8918C121.229 27.9864 121.333 28.1095 121.39 28.2609C121.466 28.4123 121.542 28.5733 121.617 28.7436C121.712 28.9897 121.797 29.2358 121.873 29.4819C121.949 29.728 122.034 29.9741 122.128 30.2202C122.223 30.4474 122.308 30.684 122.384 30.9301C122.46 31.1573 122.545 31.3845 122.64 31.6116C122.734 31.8199 122.81 32.0376 122.867 32.2647C122.924 32.4919 122.999 32.7191 123.094 32.9462C123.321 33.4952 123.529 34.0632 123.719 34.65C123.908 35.2369 124.116 35.8048 124.343 36.3538C124.381 36.4295 124.4 36.5052 124.4 36.5809C124.4 36.6377 124.419 36.6945 124.457 36.7513C124.571 37.0163 124.675 37.2908 124.769 37.5748C124.864 37.8398 124.959 38.1048 125.053 38.3699C125.11 38.5024 125.167 38.6444 125.224 38.7958C125.28 38.9283 125.375 39.0135 125.508 39.0514C125.659 39.1082 125.773 39.0609 125.848 38.9094C125.943 38.739 126.009 38.6065 126.047 38.5119C126.199 38.19 126.322 37.8493 126.416 37.4896C126.511 37.1299 126.624 36.7797 126.757 36.439C126.927 36.0035 127.079 35.5681 127.211 35.1327C127.344 34.6784 127.505 34.243 127.694 33.8265C127.713 33.7319 127.741 33.6088 127.779 33.4574C127.855 33.287 127.921 33.1166 127.978 32.9462C128.035 32.7569 128.092 32.5866 128.148 32.4351C128.186 32.3405 128.215 32.2553 128.234 32.1796C128.253 32.1038 128.281 32.0186 128.319 31.924C128.413 31.6968 128.489 31.4697 128.546 31.2425C128.622 30.9964 128.707 30.7598 128.802 30.5326C128.839 30.4379 128.868 30.3527 128.887 30.277C128.906 30.2013 128.934 30.1161 128.972 30.0215C129.048 29.8511 129.114 29.6807 129.171 29.5103C129.227 29.321 129.284 29.1412 129.341 28.9708C129.398 28.8194 129.445 28.6679 129.483 28.5165C129.54 28.3461 129.616 28.2041 129.71 28.0905C129.843 27.9202 130.023 27.8255 130.25 27.8066C130.496 27.7876 130.761 27.7782 131.045 27.7782C131.196 27.7782 131.338 27.7876 131.471 27.8066C131.622 27.8066 131.745 27.835 131.84 27.8918C132.01 28.0053 132.058 28.1852 131.982 28.4313C131.906 28.6774 131.84 28.8667 131.783 28.9992C131.764 29.0371 131.745 29.0749 131.726 29.1128C131.726 29.1506 131.717 29.1885 131.698 29.2264C131.49 29.7564 131.281 30.2959 131.073 30.8449C130.865 31.375 130.657 31.9051 130.448 32.4351C130.392 32.5866 130.344 32.7285 130.306 32.8611C130.269 32.9746 130.221 33.0977 130.165 33.2302C130.013 33.6088 129.862 33.9969 129.71 34.3944C129.578 34.7731 129.436 35.1517 129.284 35.5303C128.735 36.8365 128.224 38.1522 127.751 39.4773C127.278 40.8025 126.766 42.1182 126.217 43.4244C126.18 43.519 126.142 43.6137 126.104 43.7083C126.085 43.8219 126.057 43.9355 126.019 44.0491C125.716 44.7495 125.394 45.4405 125.053 46.122C124.712 46.8224 124.239 47.3619 123.633 47.7406C123.425 47.8541 123.217 47.9393 123.009 47.9961C122.8 48.0718 122.564 48.1381 122.299 48.1949C122.204 48.2328 122.1 48.2422 121.986 48.2233C121.892 48.2044 121.788 48.2044 121.674 48.2233C121.523 48.2612 121.371 48.2612 121.22 48.2233C121.144 48.2044 121.049 48.1949 120.936 48.1949C120.784 48.157 120.633 48.1192 120.481 48.0813C120.349 48.0435 120.245 47.9677 120.169 47.8541C120.074 47.7406 120.018 47.5986 119.999 47.4282C119.999 47.2768 119.999 47.1064 119.999 46.9171C119.999 46.7846 119.999 46.652 119.999 46.5195C120.018 46.4059 120.056 46.3113 120.112 46.2356C120.245 46.0273 120.472 45.9705 120.794 46.0652C121.002 46.1031 121.229 46.122 121.475 46.122C121.721 46.122 121.939 46.0841 122.128 46.0084C122.412 45.9137 122.64 45.7718 122.81 45.5825C122.999 45.3932 123.16 45.1755 123.293 44.9294C123.425 44.7022 123.539 44.4561 123.633 44.1911C123.747 43.926 123.861 43.661 123.974 43.396C124.05 43.2256 124.126 43.0174 124.201 42.7713C124.296 42.5252 124.305 42.2696 124.23 42.0046C124.135 41.7017 124.031 41.4177 123.917 41.1527C123.823 40.8877 123.719 40.6226 123.605 40.3576C123.435 39.9601 123.274 39.5625 123.122 39.165C122.971 38.7674 122.819 38.3793 122.668 38.0007C122.554 37.7357 122.45 37.4801 122.356 37.234C122.261 36.9879 122.166 36.7324 122.072 36.4673C121.731 35.6344 121.39 34.8014 121.049 33.9685C120.728 33.1355 120.396 32.3026 120.056 31.4697C119.866 31.0342 119.696 30.6178 119.544 30.2202C119.393 29.8038 119.232 29.3873 119.062 28.9708C119.024 28.8572 118.967 28.7058 118.891 28.5165C118.816 28.3082 118.825 28.1379 118.92 28.0053C118.976 27.9107 119.09 27.8444 119.26 27.8066C119.298 27.7876 119.336 27.7876 119.374 27.8066C119.431 27.8066 119.478 27.7971 119.516 27.7782Z" fill="#3E69B3"/>
<path d="M135.358 21.749H137.8C138.008 21.749 138.207 21.7585 138.396 21.7774C138.586 21.7774 138.728 21.8437 138.822 21.9762C138.917 22.1087 138.964 22.2791 138.964 22.4873C138.983 22.6956 138.993 22.9227 138.993 23.1688V25.6393V35.4927V40.1496C138.993 40.3957 138.993 40.6702 138.993 40.9731C139.012 41.276 138.974 41.5032 138.879 41.6546C138.803 41.7871 138.633 41.8913 138.368 41.967C138.236 42.0048 138.094 42.0143 137.942 41.9954C137.791 41.9764 137.639 41.967 137.488 41.967H135.812C135.604 41.967 135.405 41.9575 135.216 41.9386C135.046 41.9197 134.904 41.8629 134.79 41.7682C134.696 41.6736 134.639 41.5316 134.62 41.3423C134.601 41.153 134.591 40.9542 134.591 40.746V38.2755V27.911V23.7651C134.591 23.5001 134.582 23.1878 134.563 22.8281C134.563 22.4684 134.61 22.2128 134.705 22.0614C134.781 21.9478 134.904 21.8531 135.074 21.7774C135.131 21.7774 135.178 21.7774 135.216 21.7774C135.273 21.7585 135.32 21.749 135.358 21.749Z" fill="#3E69B3"/>
<path d="M150.888 26.9458C152.024 26.908 152.971 27.0689 153.728 27.4286C154.485 27.7883 155.082 28.3183 155.517 29.0187C155.649 29.227 155.754 29.4542 155.829 29.7003C155.905 29.9274 155.981 30.1641 156.056 30.4102C156.094 30.5616 156.113 30.7036 156.113 30.8361C156.132 30.9686 156.161 31.1011 156.198 31.2336C156.198 31.3472 156.208 31.4229 156.227 31.4608C156.265 31.7258 156.284 32.0003 156.284 32.2843C156.284 32.5682 156.284 32.8427 156.284 33.1078V35.635V40.2352C156.284 40.5949 156.274 40.9451 156.255 41.2858C156.255 41.6076 156.123 41.8159 155.858 41.9105C155.744 41.9484 155.612 41.9673 155.46 41.9673C155.309 41.9673 155.157 41.9673 155.006 41.9673H153.472C153.245 41.9673 153.037 41.9579 152.848 41.9389C152.677 41.9011 152.545 41.8159 152.45 41.6834C152.374 41.5698 152.327 41.4278 152.308 41.2574C152.308 41.0681 152.308 40.8693 152.308 40.6611V38.6734V34.4424C152.308 33.7419 152.28 33.0983 152.223 32.5115C152.166 31.9057 151.996 31.3945 151.712 30.9781C151.447 30.5995 151.059 30.3344 150.548 30.183C150.453 30.1451 150.349 30.1262 150.235 30.1262C150.141 30.1262 150.037 30.1073 149.923 30.0694C149.828 30.0505 149.705 30.0505 149.554 30.0694C149.421 30.0694 149.317 30.0789 149.241 30.0978C149.166 30.1167 149.099 30.1262 149.043 30.1262C148.986 30.1262 148.929 30.1357 148.872 30.1546C148.437 30.2682 148.087 30.4196 147.822 30.6089C147.216 31.0443 146.856 31.6785 146.743 32.5115C146.629 33.3444 146.572 34.2815 146.572 35.3227V38.8722V40.6043C146.572 40.7747 146.572 40.9451 146.572 41.1154C146.572 41.2858 146.544 41.4278 146.487 41.5414C146.392 41.7496 146.241 41.8727 146.033 41.9105C145.824 41.9484 145.569 41.9673 145.266 41.9673H143.846C143.638 41.9673 143.43 41.9579 143.221 41.9389C143.013 41.92 142.862 41.8537 142.767 41.7402C142.635 41.5698 142.568 41.3237 142.568 41.0019C142.587 40.68 142.597 40.3771 142.597 40.0932V36.2313V29.9842V28.536C142.597 28.3278 142.597 28.1385 142.597 27.9681C142.616 27.7977 142.672 27.6557 142.767 27.5422C142.805 27.4854 142.862 27.4475 142.938 27.4286C143.032 27.3907 143.127 27.3623 143.221 27.3434H143.363C143.458 27.3245 143.553 27.315 143.647 27.315C143.761 27.315 143.865 27.315 143.96 27.315H145.152C145.304 27.315 145.446 27.3245 145.578 27.3434C145.73 27.3434 145.862 27.3623 145.976 27.4002C146.108 27.457 146.194 27.5422 146.231 27.6557C146.288 27.7693 146.336 27.9018 146.373 28.0533C146.392 28.129 146.392 28.1953 146.373 28.2521C146.373 28.3088 146.392 28.3656 146.43 28.4224C146.468 28.5171 146.496 28.5739 146.515 28.5928C146.553 28.6117 146.601 28.6401 146.657 28.678C146.866 28.6969 147.036 28.6307 147.169 28.4792C147.301 28.3088 147.443 28.1763 147.594 28.0817C148.106 27.7031 148.674 27.4002 149.298 27.173C149.469 27.1162 149.639 27.0784 149.809 27.0594C149.999 27.0405 150.197 27.0121 150.406 26.9742C150.462 26.9553 150.548 26.9553 150.661 26.9742C150.775 26.9742 150.851 26.9648 150.888 26.9458Z" fill="#3E69B3"/>
<path d="M164.994 26.9175C166.414 26.8797 167.644 27.0406 168.686 27.4003C169.746 27.741 170.55 28.3373 171.099 29.1892C171.232 29.3974 171.345 29.6151 171.44 29.8423C171.554 30.0505 171.648 30.2872 171.724 30.5522C171.762 30.6658 171.781 30.7888 171.781 30.9214C171.781 31.0539 171.762 31.1675 171.724 31.2621C171.648 31.3757 171.544 31.4514 171.412 31.4893C171.317 31.5271 171.203 31.5461 171.071 31.5461C170.938 31.5461 170.806 31.5461 170.673 31.5461H169.424C169.291 31.5461 169.159 31.5555 169.026 31.5745C168.894 31.5745 168.771 31.5555 168.657 31.5177C168.468 31.4798 168.326 31.4041 168.231 31.2905C168.137 31.1769 168.051 31.0633 167.976 30.9498C167.9 30.8172 167.824 30.6847 167.748 30.5522C167.692 30.4008 167.597 30.2777 167.465 30.1831C167.275 30.0316 167.086 29.918 166.897 29.8423C166.726 29.7666 166.509 29.7003 166.244 29.6435C166.111 29.6057 165.912 29.5773 165.647 29.5583C165.401 29.5394 165.212 29.5489 165.079 29.5867H164.88C164.786 29.6057 164.691 29.6246 164.597 29.6435C164.521 29.6435 164.436 29.653 164.341 29.6719C164.019 29.7666 163.754 29.8991 163.546 30.0695C163.357 30.2209 163.224 30.4576 163.148 30.7794C163.11 30.9119 163.11 31.0349 163.148 31.1485C163.186 31.2621 163.224 31.3568 163.262 31.4325C163.394 31.6597 163.546 31.8395 163.716 31.972C163.906 32.1045 164.123 32.2181 164.369 32.3128C164.729 32.4642 165.117 32.5967 165.534 32.7103C165.969 32.805 166.404 32.8996 166.84 32.9943C167.294 33.07 167.73 33.1646 168.146 33.2782C168.581 33.3729 168.988 33.4959 169.367 33.6474C169.537 33.7231 169.698 33.7894 169.85 33.8461C170.02 33.884 170.181 33.9503 170.333 34.0449C170.692 34.2721 171.014 34.5182 171.298 34.7832C171.601 35.0482 171.838 35.3795 172.008 35.7771C172.065 35.9096 172.112 36.0421 172.15 36.1746C172.188 36.3071 172.226 36.4491 172.263 36.6006C172.282 36.7141 172.292 36.894 172.292 37.1401C172.311 37.3673 172.311 37.5471 172.292 37.6796V37.8216C172.254 37.9352 172.226 38.0488 172.207 38.1623C172.207 38.257 172.197 38.3516 172.178 38.4463C172.046 39.0142 171.838 39.5159 171.554 39.9513C171.251 40.4056 170.882 40.7748 170.446 41.0587C170.011 41.3427 169.519 41.5888 168.97 41.797C168.761 41.8917 168.534 41.9579 168.288 41.9958C168.061 42.0337 167.834 42.081 167.607 42.1378C167.436 42.1756 167.256 42.1946 167.067 42.1946C166.897 42.2135 166.726 42.2419 166.556 42.2798H166.045C165.931 42.3176 165.732 42.3366 165.448 42.3366C165.183 42.3366 164.994 42.3176 164.88 42.2798C164.824 42.2798 164.757 42.2703 164.682 42.2514C164.625 42.2514 164.559 42.2514 164.483 42.2514C164.256 42.2135 164.029 42.1851 163.801 42.1662C163.574 42.1472 163.357 42.1094 163.148 42.0526C162.41 41.8444 161.757 41.6077 161.189 41.3427C160.621 41.0587 160.138 40.6423 159.741 40.0933C159.476 39.7336 159.249 39.3171 159.059 38.8438C159.021 38.7303 158.984 38.5788 158.946 38.3895C158.908 38.2949 158.879 38.1623 158.861 37.992C158.842 37.8216 158.851 37.6796 158.889 37.566C158.946 37.4335 159.04 37.3389 159.173 37.2821C159.268 37.2442 159.381 37.2253 159.514 37.2253C159.646 37.2253 159.788 37.2253 159.94 37.2253H161.274C161.426 37.2253 161.577 37.2253 161.729 37.2253C161.88 37.2253 162.013 37.2442 162.126 37.2821C162.334 37.3578 162.467 37.4808 162.524 37.6512C162.599 37.8216 162.685 38.0014 162.779 38.1907C162.817 38.2854 162.883 38.4084 162.978 38.5599C163.092 38.7113 163.186 38.806 163.262 38.8438C163.489 39.0331 163.707 39.1846 163.915 39.2982C164.123 39.3928 164.388 39.4875 164.71 39.5821C164.805 39.62 164.899 39.6389 164.994 39.6389C165.089 39.62 165.183 39.62 165.278 39.6389C165.429 39.6768 165.59 39.6957 165.761 39.6957C165.95 39.6768 166.111 39.6484 166.244 39.6105C166.338 39.5916 166.423 39.5821 166.499 39.5821C166.594 39.5821 166.688 39.5632 166.783 39.5253C167.048 39.4307 167.285 39.3171 167.493 39.1846C167.72 39.0521 167.9 38.8817 168.032 38.6735C168.127 38.522 168.203 38.2854 168.26 37.9636C168.297 37.831 168.297 37.708 168.26 37.5944C168.222 37.4808 168.184 37.3862 168.146 37.3105C168.014 37.0454 167.843 36.8467 167.635 36.7141C167.446 36.5816 167.218 36.4586 166.953 36.345C166.594 36.1935 166.215 36.0705 165.818 35.9758C165.42 35.8812 165.022 35.7771 164.625 35.6635C164.473 35.6256 164.313 35.5972 164.142 35.5783C163.991 35.5594 163.839 35.531 163.688 35.4931C163.082 35.3227 162.505 35.1618 161.956 35.0104C161.407 34.84 160.905 34.5939 160.451 34.2721C159.921 33.8935 159.533 33.3823 159.286 32.7387C159.249 32.6062 159.211 32.4263 159.173 32.1992C159.135 32.0667 159.107 31.9057 159.088 31.7164C159.069 31.5271 159.078 31.3568 159.116 31.2053C159.154 31.1107 159.163 31.0349 159.145 30.9781C159.126 30.9024 159.135 30.8172 159.173 30.7226C159.211 30.5143 159.249 30.325 159.286 30.1547C159.343 29.9654 159.41 29.7855 159.485 29.6151C159.731 29.0661 160.072 28.6213 160.508 28.2805C160.943 27.9398 161.435 27.6653 161.984 27.457C162.192 27.3624 162.41 27.2961 162.637 27.2583C162.864 27.2015 163.101 27.1447 163.347 27.0879C163.461 27.05 163.574 27.0311 163.688 27.0311C163.801 27.0122 163.915 26.9932 164.029 26.9743C164.18 26.9554 164.341 26.9459 164.511 26.9459C164.682 26.9459 164.843 26.9364 164.994 26.9175Z" fill="#3E69B3"/>
<path d="M175.418 27.3438H177.548C177.756 27.3438 177.946 27.3532 178.116 27.3721C178.286 27.3911 178.41 27.4573 178.485 27.5709C178.58 27.6845 178.637 27.8454 178.656 28.0536C178.675 28.243 178.684 28.4417 178.684 28.65V30.6377V34.8687C178.684 35.5502 178.712 36.1938 178.769 36.7996C178.826 37.4054 178.996 37.9071 179.28 38.3046C179.545 38.7022 179.971 38.9861 180.558 39.1565C180.653 39.1754 180.729 39.1849 180.785 39.1849C180.861 39.1849 180.946 39.1943 181.041 39.2133C181.136 39.2322 181.24 39.2417 181.353 39.2417C181.467 39.2417 181.552 39.2322 181.609 39.2133C181.703 39.1754 181.779 39.166 181.836 39.1849C181.912 39.2038 181.987 39.1944 182.063 39.1565C182.461 39.0618 182.773 38.9388 183 38.7873C183.341 38.5791 183.606 38.3141 183.795 37.9923C184.004 37.6515 184.146 37.2824 184.221 36.8848C184.316 36.4683 184.373 36.014 184.392 35.5218C184.411 35.0107 184.42 34.4806 184.42 33.9316V30.4957V28.65C184.42 28.4796 184.42 28.3092 184.42 28.1388C184.42 27.9495 184.458 27.7981 184.534 27.6845C184.628 27.5141 184.77 27.4195 184.96 27.4005C185.149 27.3627 185.376 27.3438 185.641 27.3438H187.146C187.335 27.3438 187.515 27.3438 187.686 27.3438C187.856 27.3438 187.998 27.3816 188.111 27.4573C188.263 27.552 188.348 27.694 188.367 27.8833C188.386 28.0726 188.395 28.2903 188.395 28.5364V30.6945V38.6738V40.6899C188.395 40.8792 188.395 41.0685 188.395 41.2578C188.395 41.4471 188.358 41.5891 188.282 41.6837C188.187 41.8352 188.045 41.9204 187.856 41.9393C187.667 41.9582 187.468 41.9677 187.26 41.9677H185.726C185.518 41.9677 185.329 41.9582 185.158 41.9393C185.007 41.9204 184.884 41.8446 184.789 41.7121C184.751 41.6553 184.713 41.5702 184.676 41.4566C184.657 41.343 184.628 41.2294 184.59 41.1158C184.571 41.0022 184.543 40.8981 184.505 40.8035C184.467 40.7088 184.411 40.652 184.335 40.6331C184.297 40.5952 184.25 40.5858 184.193 40.6047C184.136 40.6236 184.089 40.6425 184.051 40.6615C183.918 40.7372 183.805 40.8224 183.71 40.917C183.615 41.0117 183.511 41.0969 183.398 41.1726C183.322 41.2294 183.246 41.2957 183.171 41.3714C183.114 41.4282 183.038 41.485 182.943 41.5418C182.508 41.8068 181.997 42.015 181.41 42.1665C181.278 42.2043 181.145 42.2233 181.012 42.2233C180.88 42.2422 180.738 42.2706 180.587 42.3084C180.511 42.3274 180.426 42.3274 180.331 42.3084C180.255 42.3084 180.18 42.3179 180.104 42.3368C180.047 42.3558 179.924 42.3558 179.735 42.3368C179.564 42.3368 179.451 42.3274 179.394 42.3084C179.299 42.3084 179.205 42.299 179.11 42.28C179.015 42.28 178.921 42.28 178.826 42.28C178.599 42.2233 178.381 42.1759 178.173 42.1381C177.965 42.1002 177.756 42.0434 177.548 41.9677C177.454 41.9298 177.368 41.9014 177.293 41.8825C177.236 41.8446 177.16 41.8068 177.065 41.7689C176.403 41.4092 175.873 40.9076 175.475 40.2639C175.229 39.8664 175.049 39.3931 174.936 38.8441C174.822 38.2762 174.746 37.6799 174.709 37.0552C174.69 36.4115 174.68 35.7584 174.68 35.0959C174.699 34.4144 174.709 33.7423 174.709 33.0797V29.2179C174.709 28.9718 174.699 28.6878 174.68 28.366C174.68 28.0253 174.728 27.7792 174.822 27.6277C174.879 27.5331 174.993 27.4479 175.163 27.3721C175.276 27.3721 175.362 27.3627 175.418 27.3438Z" fill="#3E69B3"/>
<path d="M199.861 26.9463C200.069 26.9463 200.249 26.9652 200.4 27.0031C200.57 27.0409 200.703 27.1261 200.798 27.2586C200.911 27.4101 200.968 27.6751 200.968 28.0537C200.968 28.4134 200.968 28.7352 200.968 29.0192C200.968 29.2274 200.968 29.4641 200.968 29.7291C200.987 29.9941 200.959 30.2024 200.883 30.3538C200.807 30.4863 200.694 30.5715 200.542 30.6094C200.41 30.6472 200.249 30.6662 200.059 30.6662C199.889 30.6662 199.7 30.6567 199.491 30.6378C199.302 30.6188 199.122 30.6283 198.952 30.6662C198.819 30.704 198.687 30.7324 198.554 30.7514C198.422 30.7514 198.299 30.7703 198.185 30.8081C197.882 30.9028 197.579 31.0448 197.277 31.2341C196.974 31.4045 196.737 31.6032 196.567 31.8304C196.472 31.9818 196.368 32.1428 196.254 32.3131C196.16 32.4646 196.065 32.6255 195.97 32.7959C195.914 32.9473 195.857 33.1082 195.8 33.2786C195.762 33.43 195.724 33.5815 195.686 33.7329C195.648 33.8654 195.63 34.0074 195.63 34.1589C195.63 34.2914 195.611 34.4239 195.573 34.5564C195.554 34.6321 195.544 34.7079 195.544 34.7836C195.563 34.8404 195.563 34.8972 195.544 34.954V35.4083C195.507 35.5408 195.497 35.6923 195.516 35.8626C195.535 36.0141 195.544 36.1655 195.544 36.317V38.1343V40.548C195.544 40.7941 195.535 41.0212 195.516 41.2295C195.497 41.4377 195.44 41.6081 195.346 41.7406C195.308 41.7974 195.241 41.8447 195.147 41.8826C195.071 41.9015 194.986 41.9205 194.891 41.9394H194.749C194.655 41.9583 194.551 41.9678 194.437 41.9678C194.323 41.9678 194.219 41.9678 194.125 41.9678H192.904C192.79 41.9488 192.667 41.9394 192.534 41.9394C192.421 41.9394 192.298 41.9394 192.165 41.9394C192.071 41.9015 191.976 41.8731 191.881 41.8542C191.787 41.8163 191.72 41.7501 191.683 41.6554C191.607 41.5608 191.559 41.4283 191.541 41.2579C191.541 41.0686 191.541 40.8793 191.541 40.69V38.759V30.7514V28.65C191.541 28.4607 191.541 28.2809 191.541 28.1105C191.541 27.9212 191.578 27.7698 191.654 27.6562C191.749 27.5047 191.891 27.4101 192.08 27.3722C192.269 27.3344 192.497 27.3154 192.762 27.3154H194.21C194.437 27.3154 194.636 27.3344 194.806 27.3722C194.976 27.3912 195.109 27.4763 195.204 27.6278C195.26 27.7224 195.289 27.855 195.289 28.0253C195.308 28.1957 195.327 28.3661 195.346 28.5365C195.365 28.6879 195.393 28.8299 195.431 28.9624C195.488 29.0949 195.582 29.1612 195.715 29.1612C195.753 29.1233 195.79 29.1044 195.828 29.1044C195.866 29.1044 195.904 29.0855 195.942 29.0476C196.056 28.9529 196.15 28.8488 196.226 28.7352C196.321 28.6027 196.434 28.4891 196.567 28.3945C196.642 28.3377 196.709 28.2809 196.765 28.2241C196.822 28.1484 196.888 28.0821 196.964 28.0253C197.135 27.9118 197.305 27.7982 197.475 27.6846C197.665 27.571 197.854 27.4669 198.043 27.3722C198.233 27.2965 198.422 27.2302 198.611 27.1735C198.819 27.1167 199.028 27.0599 199.236 27.0031C199.293 26.9842 199.397 26.9842 199.548 27.0031C199.719 27.0031 199.823 26.9842 199.861 26.9463Z" fill="#3E69B3"/>
<path d="M215.964 34.4988C216.002 34.6502 216.002 34.8206 215.964 35.0099C215.926 35.1992 215.86 35.3223 215.765 35.3791C215.67 35.4548 215.528 35.5116 215.339 35.5495C215.169 35.5684 214.97 35.5873 214.743 35.6062C214.534 35.6062 214.317 35.6062 214.09 35.6062C213.881 35.5873 213.692 35.5778 213.522 35.5778H206.593C206.461 35.5778 206.328 35.5778 206.195 35.5778C206.082 35.5778 205.978 35.5968 205.883 35.6346C205.732 35.7104 205.637 35.7861 205.599 35.8618C205.561 35.8997 205.523 35.9754 205.486 36.089C205.448 36.1836 205.438 36.2783 205.457 36.3729C205.495 36.4865 205.514 36.6001 205.514 36.7137C205.533 36.8083 205.561 36.9125 205.599 37.026C205.751 37.4804 205.93 37.859 206.139 38.1619C206.366 38.4458 206.669 38.7014 207.047 38.9286C207.199 39.0232 207.35 39.0895 207.502 39.1273C207.672 39.1463 207.842 39.1841 208.013 39.2409C208.164 39.2788 208.373 39.3072 208.638 39.3261C208.903 39.3451 209.13 39.3356 209.319 39.2977H209.575C209.764 39.2599 209.934 39.222 210.086 39.1841C210.256 39.1273 210.417 39.0706 210.568 39.0138C210.758 38.9191 210.966 38.7961 211.193 38.6446C211.439 38.4932 211.619 38.3417 211.733 38.1903C211.827 38.0578 211.922 37.9347 212.017 37.8211C212.13 37.6886 212.263 37.594 212.414 37.5372C212.604 37.4425 212.84 37.4047 213.124 37.4236C213.427 37.4236 213.701 37.4236 213.948 37.4236C214.061 37.4236 214.175 37.4236 214.288 37.4236C214.421 37.4047 214.534 37.4141 214.629 37.452H214.913C215.102 37.4898 215.235 37.5372 215.311 37.594C215.386 37.6318 215.424 37.717 215.424 37.8495C215.443 37.982 215.434 38.0956 215.396 38.1903C215.301 38.4553 215.197 38.6919 215.083 38.9002C214.97 39.1084 214.837 39.3167 214.686 39.5249C214.269 40.1496 213.796 40.6513 213.266 41.0299C212.736 41.4085 212.073 41.7303 211.278 41.9953C211.07 42.0711 210.862 42.1184 210.654 42.1373C210.445 42.1563 210.228 42.1941 210.001 42.2509C209.925 42.2698 209.84 42.2698 209.745 42.2509C209.669 42.2509 209.594 42.2604 209.518 42.2793H209.205C209.111 42.3172 208.997 42.3266 208.865 42.3077C208.751 42.3077 208.647 42.2982 208.552 42.2793C208.401 42.2604 208.268 42.2604 208.155 42.2793C208.041 42.2982 207.918 42.2888 207.786 42.2509C207.691 42.213 207.587 42.1941 207.473 42.1941C207.36 42.1941 207.256 42.1752 207.161 42.1373C206.953 42.0995 206.744 42.0521 206.536 41.9953C206.328 41.9575 206.139 41.8912 205.968 41.7966C205.76 41.7209 205.561 41.6546 205.372 41.5978C205.202 41.5221 205.041 41.4369 204.889 41.3422C204.283 40.9636 203.744 40.5282 203.271 40.036C202.797 39.5249 202.409 38.938 202.106 38.2755C202.012 38.0672 201.936 37.859 201.879 37.6508C201.822 37.4236 201.747 37.1964 201.652 36.9693C201.633 36.8935 201.624 36.8273 201.624 36.7705C201.624 36.6948 201.614 36.619 201.595 36.5433C201.52 36.3161 201.472 36.07 201.453 35.805C201.434 35.54 201.415 35.275 201.397 35.0099C201.397 34.9153 201.387 34.8112 201.368 34.6976C201.368 34.584 201.378 34.4799 201.397 34.3852V34.0445L201.482 33.363C201.557 33.0411 201.624 32.7288 201.681 32.4259C201.737 32.123 201.822 31.839 201.936 31.574C202.75 29.6052 204.132 28.2138 206.082 27.3998C206.347 27.2862 206.612 27.2105 206.877 27.1726C207.161 27.1158 207.454 27.0496 207.757 26.9739C207.909 26.9549 208.051 26.9455 208.183 26.9455C208.316 26.9455 208.458 26.936 208.609 26.9171C209.575 26.8981 210.398 27.0117 211.08 27.2578C211.78 27.485 212.405 27.7879 212.954 28.1665C213.124 28.2801 213.294 28.4126 213.465 28.564C213.635 28.6966 213.787 28.8385 213.919 28.99C213.976 29.0846 214.052 29.1604 214.146 29.2171C214.298 29.4254 214.44 29.6431 214.572 29.8703C214.705 30.0785 214.847 30.2962 214.998 30.5234C215.093 30.6937 215.169 30.8736 215.225 31.0629C215.301 31.2333 215.377 31.4226 215.453 31.6308C215.547 31.8769 215.623 32.1325 215.68 32.3975C215.737 32.6625 215.803 32.9276 215.879 33.1926C215.916 33.344 215.926 33.5144 215.907 33.7037C215.907 33.8741 215.926 34.035 215.964 34.1864V34.4988ZM211.704 32.8234C211.837 32.6341 211.846 32.407 211.733 32.1419C211.638 31.858 211.562 31.6497 211.506 31.5172C211.241 31.0061 210.89 30.618 210.455 30.353C210.019 30.069 209.414 29.9176 208.638 29.8986C208.581 29.9365 208.514 29.946 208.439 29.927C208.363 29.9081 208.297 29.9081 208.24 29.927C208.145 29.9649 208.041 29.9933 207.928 30.0122C207.814 30.0122 207.71 30.0312 207.615 30.069C206.782 30.3341 206.167 30.8546 205.77 31.6308C205.732 31.7065 205.684 31.8106 205.628 31.9432C205.59 32.0567 205.561 32.1798 205.542 32.3123C205.523 32.4259 205.523 32.5395 205.542 32.6531C205.58 32.7666 205.647 32.8613 205.741 32.937C205.893 33.0317 206.101 33.079 206.366 33.079C206.631 33.079 206.886 33.079 207.133 33.079H210.285C210.55 33.079 210.824 33.079 211.108 33.079C211.411 33.0601 211.61 32.9749 211.704 32.8234Z" fill="#3E69B3"/>
<path d="M232.695 40.3484C232.695 40.6134 232.695 40.8785 232.695 41.1435C232.695 41.3896 232.638 41.5884 232.525 41.7398C232.43 41.8345 232.307 41.9007 232.155 41.9386C232.004 41.9575 231.834 41.967 231.644 41.967H230.083C229.893 41.967 229.713 41.967 229.543 41.967C229.392 41.9481 229.269 41.9007 229.174 41.825C229.041 41.7304 228.966 41.6073 228.947 41.4559C228.928 41.3044 228.89 41.153 228.833 41.0015C228.795 40.9637 228.757 40.9353 228.72 40.9163C228.701 40.8785 228.672 40.8406 228.634 40.8027C228.426 40.8027 228.275 40.8501 228.18 40.9447C228.085 41.0394 227.991 41.134 227.896 41.2287C227.764 41.3233 227.641 41.4085 227.527 41.4842C227.413 41.541 227.29 41.6168 227.158 41.7114C227.082 41.7493 226.997 41.7871 226.902 41.825C226.827 41.8629 226.741 41.9007 226.647 41.9386C226.382 42.0332 226.098 42.1184 225.795 42.1941C225.7 42.232 225.615 42.2509 225.539 42.2509C225.464 42.2509 225.388 42.2604 225.312 42.2793C225.217 42.2793 225.132 42.2793 225.056 42.2793C225 42.2983 224.924 42.3077 224.829 42.3077H224.574C224.46 42.3456 224.29 42.3551 224.063 42.3361C223.835 42.3361 223.675 42.3172 223.58 42.2793C223.447 42.2415 223.324 42.2225 223.211 42.2225C223.116 42.2415 223.012 42.232 222.898 42.1941C222.671 42.1184 222.444 42.0427 222.217 41.967C222.009 41.9102 221.8 41.8345 221.592 41.7398C220.93 41.4559 220.333 41.0204 219.803 40.4336C219.292 39.8278 218.885 39.1936 218.582 38.5311C218.488 38.3228 218.412 38.1241 218.355 37.9347C218.298 37.7265 218.232 37.5183 218.156 37.31C218.137 37.2343 218.128 37.1681 218.128 37.1113C218.128 37.0355 218.109 36.9504 218.071 36.8557C218.033 36.7043 217.995 36.5433 217.957 36.373C217.939 36.1837 217.91 35.9944 217.872 35.805C217.853 35.7483 217.844 35.682 217.844 35.6063C217.863 35.5306 217.863 35.4643 217.844 35.4075C217.844 35.3128 217.844 35.2277 217.844 35.1519C217.844 35.0573 217.834 34.9626 217.816 34.868C217.797 34.7733 217.787 34.6692 217.787 34.5556C217.787 34.4231 217.797 34.319 217.816 34.2433C217.834 34.1486 217.844 34.0634 217.844 33.9877C217.844 33.893 217.844 33.7984 217.844 33.7037C217.863 33.6091 217.863 33.5239 217.844 33.4482C217.844 33.3535 217.863 33.2589 217.901 33.1642C217.939 32.956 217.967 32.7572 217.986 32.5679C218.024 32.3786 218.071 32.1893 218.128 32C218.204 31.7728 218.27 31.5551 218.327 31.3469C218.383 31.1386 218.459 30.9304 218.554 30.7222C218.819 30.1542 219.15 29.6147 219.548 29.1036C219.586 29.0468 219.633 28.9995 219.69 28.9616C219.765 28.9048 219.822 28.848 219.86 28.7912C219.936 28.6966 220.011 28.6114 220.087 28.5357C220.163 28.4599 220.248 28.3842 220.343 28.3085C220.418 28.2706 220.485 28.2233 220.542 28.1665C220.598 28.0908 220.665 28.034 220.74 27.9961C221.214 27.6743 221.763 27.4093 222.387 27.2011C222.52 27.1632 222.652 27.1348 222.785 27.1159C222.936 27.0969 223.088 27.0685 223.239 27.0307C223.372 26.9928 223.542 26.9739 223.75 26.9739C223.959 26.955 224.167 26.9455 224.375 26.9455C224.583 26.9455 224.782 26.955 224.971 26.9739C225.18 26.9928 225.35 27.0212 225.482 27.0591C225.766 27.1537 226.041 27.2389 226.306 27.3146C226.571 27.3904 226.817 27.4945 227.044 27.627C227.177 27.7217 227.3 27.8163 227.413 27.911C227.527 27.9867 227.65 28.0719 227.782 28.1665C227.858 28.2233 227.962 28.299 228.095 28.3937C228.246 28.4883 228.388 28.4883 228.521 28.3937C228.597 28.3558 228.634 28.2896 228.634 28.1949C228.634 28.1003 228.653 28.0056 228.691 27.911V27.627C228.71 27.5702 228.72 27.5039 228.72 27.4282C228.72 27.3525 228.72 27.2768 228.72 27.2011V23.3392C228.72 23.131 228.71 22.9038 228.691 22.6577C228.691 22.3927 228.739 22.1939 228.833 22.0614C228.909 21.9099 229.051 21.8153 229.259 21.7774C229.297 21.7585 229.335 21.7585 229.373 21.7774C229.411 21.7774 229.448 21.768 229.486 21.749H231.502C231.73 21.749 231.938 21.7585 232.127 21.7774C232.316 21.7964 232.458 21.8721 232.553 22.0046C232.648 22.156 232.695 22.3548 232.695 22.6009C232.695 22.8281 232.695 23.0552 232.695 23.2824V40.3484ZM228.833 34.7828C228.852 34.7071 228.852 34.6313 228.833 34.5556C228.833 34.461 228.833 34.3758 228.833 34.3001C228.833 34.1108 228.824 33.9214 228.805 33.7321C228.786 33.5428 228.757 33.3725 228.72 33.221C228.682 33.0128 228.644 32.8235 228.606 32.6531C228.587 32.4827 228.54 32.3218 228.464 32.1704C228.199 31.4889 227.811 30.9493 227.3 30.5518C226.808 30.1542 226.088 29.9555 225.142 29.9555C225.028 29.9555 224.877 29.9744 224.687 30.0123C224.536 30.0501 224.394 30.088 224.261 30.1258C224.148 30.1448 224.034 30.1826 223.921 30.2394C223.41 30.4477 223.012 30.7695 222.728 31.2049C222.444 31.6403 222.217 32.1325 222.047 32.6815C221.99 32.8708 221.952 33.0601 221.933 33.2494C221.914 33.4387 221.876 33.6375 221.819 33.8457V34.2433C221.781 34.4136 221.772 34.6503 221.791 34.9532C221.81 35.2371 221.838 35.4454 221.876 35.5779C221.876 35.6347 221.876 35.6915 221.876 35.7483C221.895 35.7861 221.905 35.824 221.905 35.8618C221.942 36.0133 221.971 36.1553 221.99 36.2878C222.028 36.4203 222.065 36.5623 222.103 36.7137C222.425 37.6981 222.974 38.4269 223.75 38.9002C223.996 39.0706 224.337 39.2031 224.773 39.2978C224.848 39.3167 224.962 39.3262 225.113 39.3262C225.17 39.3451 225.255 39.364 225.369 39.3829C225.501 39.3829 225.605 39.3735 225.681 39.3545C225.833 39.3167 225.984 39.2883 226.136 39.2694C226.287 39.2504 226.438 39.2126 226.59 39.1558C227.063 38.9475 227.442 38.6825 227.726 38.3607C228.01 38.0389 228.256 37.6319 228.464 37.1397C228.54 36.9693 228.597 36.7989 228.634 36.6285C228.672 36.4392 228.71 36.2405 228.748 36.0322C228.767 35.9376 228.767 35.8524 228.748 35.7767C228.748 35.682 228.767 35.5873 228.805 35.4927C228.824 35.4359 228.833 35.3696 228.833 35.2939C228.833 35.2182 228.833 35.133 228.833 35.0384V34.7828Z" fill="#3E69B3"/>
</svg>
