<svg width="296" height="80" viewBox="0 0 296 80" fill="none" xmlns="http://www.w3.org/2000/svg">
<g clip-path="url(#clip0_13368_57534)">
<path d="M187.974 33.6292C186.704 31.9098 184.349 31.0874 182.368 31.0874C177.882 31.0874 173.808 34.6385 173.808 40.2454C173.808 45.8523 177.882 49.4407 182.368 49.4407C184.311 49.4407 186.704 48.581 187.974 46.8615V47.3474C187.974 51.8704 185.993 53.6272 182.853 53.6272C180.984 53.6272 179.19 52.8125 178.443 51.2052L174.368 52.4508C175.863 55.7028 179.115 58.0006 182.853 58.0006C189.021 58.0006 192.871 54.4495 192.871 46.8241V31.536H187.974V33.6292ZM183.302 44.8804C180.835 44.8804 178.779 42.7872 178.779 40.2454C178.779 37.6662 180.835 35.6477 183.302 35.6477C185.582 35.6477 187.825 37.554 187.825 40.2454C187.825 42.8993 185.694 44.8804 183.302 44.8804Z" fill="#1C3B42"/>
<path d="M223.682 31.0643C221.52 31.0643 219.545 32.3313 218.576 35.2377V31.5115H213.731V48.913H218.613V42.951C218.613 37.9951 220.328 35.6476 222.825 35.6476C223.421 35.6476 224.278 35.7221 225.322 36.2811L226.44 31.6233C225.657 31.2134 224.614 31.0643 223.682 31.0643Z" fill="#1C3B42"/>
<path d="M93.557 49.4737C98.5581 49.4737 102.995 45.7993 102.995 40.2878C102.995 34.7387 98.5581 31.0643 93.557 31.0643C88.5558 31.0643 84.1187 34.7387 84.1187 40.2878C84.1187 45.7993 88.5558 49.4737 93.557 49.4737ZM93.557 44.8995C91.1128 44.8995 89.1199 42.9873 89.1199 40.2878C89.1199 37.5507 91.1128 35.6386 93.557 35.6386C96.0012 35.6386 97.9941 37.5507 97.9941 40.2878C97.9941 42.9873 96.0012 44.8995 93.557 44.8995Z" fill="#1C3B42"/>
<path d="M76.2396 49.4737C79.8239 49.4737 83.5576 47.5615 83.5576 43.8872C83.5576 42.4624 83.0349 39.8378 78.8532 38.713L75.9782 37.9632C75.0075 37.7007 74.2608 37.2883 74.2608 36.4634C74.2608 35.5636 75.1568 34.9262 76.2769 34.9262C77.4339 34.9262 78.4043 35.5631 78.4051 36.7619L82.9294 35.3729C82.2189 32.2538 78.9939 31.0643 76.2023 31.0643C72.1699 31.0643 69.3697 33.6139 69.3697 36.3135C69.3697 38.1506 69.9671 40.6627 74.4474 41.8625L76.7623 42.4249C78.0691 42.7623 78.6665 43.1373 78.6665 43.8872C78.6665 44.8995 77.5837 45.6119 76.1649 45.6119C74.4478 45.6119 73.589 44.525 73.5887 43.5128L69.1665 44.8705C69.9175 47.8638 73.0356 49.4737 76.2396 49.4737Z" fill="#1C3B42"/>
<path fill-rule="evenodd" clip-rule="evenodd" d="M200.687 31.493C205.443 30.0248 210.342 32.2351 211.894 37.3599C212.035 37.8257 212.173 38.4101 212.33 39.1846L199.873 43.0303C200.897 44.7335 202.609 45.5949 204.664 44.9458C206.033 44.5229 206.959 43.5177 207.358 42.3087H212.264C212.203 42.622 212.126 42.9294 212.032 43.2302C211.11 45.8267 208.961 48.1797 206.05 49.0782C200.94 50.6559 196.117 48.1868 194.555 43.0262C192.916 37.6148 195.967 32.9503 200.687 31.493ZM198.95 39.9842C198.764 37.573 200.103 36.1014 202.02 35.5098C204.114 34.8633 206.091 35.6246 206.829 37.5518L198.95 39.9842Z" fill="#1C3B42"/>
<path fill-rule="evenodd" clip-rule="evenodd" d="M140.675 31.493C145.48 30.0248 150.43 32.2351 151.997 37.3599C152.14 37.8257 152.279 38.4101 152.438 39.1846L139.852 43.0303C140.888 44.7335 142.617 45.5949 144.693 44.9458C146.077 44.5229 147.011 43.5177 147.415 42.3087H152.371C152.31 42.622 152.231 42.9294 152.136 43.2302C151.205 45.8267 149.034 48.1797 146.094 49.0782C140.93 50.6559 136.058 48.1868 134.48 43.0262C132.825 37.6148 135.907 32.9503 140.675 31.493ZM138.921 39.9842C138.732 37.573 140.085 36.1014 142.022 35.5098C144.137 34.8633 146.134 35.6246 146.881 37.5518L138.921 39.9842Z" fill="#1C3B42"/>
<path d="M167.461 33.6377C166.233 31.8363 163.89 31.0483 161.881 31.0483C157.418 31.0483 153.363 34.6134 153.363 40.2426C153.363 45.8718 157.418 49.4745 161.881 49.4745C163.815 49.4745 166.233 48.6489 167.461 46.8475V49.0242H172.333V22.7483L167.461 24.312V33.6377ZM162.811 44.8961C160.356 44.8961 158.31 42.7945 158.31 40.2426C158.31 37.6532 160.356 35.6266 162.811 35.6266C165.08 35.6266 167.312 37.5406 167.312 40.2426C167.312 42.9071 165.192 44.8961 162.811 44.8961Z" fill="#1C3B42"/>
<path d="M132.992 48.9138V22.7483L128.132 24.3054V48.9138H132.992Z" fill="#1C3B42"/>
<path d="M115.797 26.554V22H113.698C108.712 22 106.013 24.9862 106.013 30.2121V31.4812H102.715V35.2886H106.013V48.9132H110.924V35.2886H114.747H116.774V41.6716C116.774 46.7855 118.911 48.9132 123.859 48.9132H125.583V44.3592H124.459C122.51 44.3592 121.722 43.3514 121.685 41.373V35.2886H125.358V31.4812H121.685V26.106L116.774 27.5991V31.4812H114.747H110.924V30.1747C110.961 28.0844 111.861 26.554 114.672 26.554H115.797Z" fill="#1C3B42"/>
</g>
<defs>
<clipPath id="clip0_13368_57534">
<rect width="158" height="36" fill="white" transform="translate(69.1665 22)"/>
</clipPath>
</defs>
</svg>
