<svg width="296" height="80" viewBox="0 0 296 80" fill="none" xmlns="http://www.w3.org/2000/svg">
<path d="M117.227 32.5918V37.4204H120.509V40.7582H117.227V48.0822C117.227 49.4757 117.845 50.059 119.242 50.059C119.761 50.059 120.379 49.9617 120.541 49.9293V53.0404C120.314 53.1376 119.599 53.3968 118.234 53.3968C115.311 53.3968 113.491 51.6469 113.491 48.6979V40.7582H110.567V37.4204H111.38C113.069 37.4204 113.816 36.3509 113.816 34.9575V33.3633L117.227 32.5918ZM130.778 50.3182C133.117 50.3182 135.196 48.6007 135.196 45.2952C135.196 42.0222 133.117 40.337 130.778 40.337C128.471 40.337 126.359 42.0222 126.359 45.2952C126.359 48.5682 128.471 50.3182 130.778 50.3182ZM130.778 36.9343C135.521 36.9343 138.997 40.4666 138.997 45.2952C138.997 50.1562 135.521 53.6885 130.778 53.6885C126.067 53.6885 122.591 50.1562 122.591 45.2952C122.591 40.4666 126.067 36.9343 130.778 36.9343ZM141.112 54.0774L144.588 53.17C144.848 55.1144 146.375 56.5727 148.551 56.5727C151.54 56.5727 153.035 55.0496 153.035 51.8414V50.1886C152.352 51.4201 150.761 52.4895 148.454 52.4895C144.231 52.4895 141.144 49.2488 141.144 44.8091C141.144 40.5963 144.101 37.1287 148.454 37.1287C150.923 37.1287 152.45 38.1333 153.132 39.4296V37.4204H156.771V51.7117C156.771 55.9246 154.594 59.8458 148.649 59.8458C144.458 59.8458 141.534 57.2533 141.112 54.0774ZM149.071 49.2812C151.475 49.2812 153.132 47.5312 153.132 44.8091C153.132 42.1193 151.41 40.3694 149.071 40.3694C146.667 40.3694 144.945 42.1193 144.945 44.8091C144.945 47.5636 146.602 49.2812 149.071 49.2812ZM163.628 43.5776H171.393C171.328 41.7305 170.093 40.0777 167.495 40.0777C165.123 40.0777 163.758 41.8925 163.628 43.5776ZM171.815 47.6933L174.999 48.6979C174.155 51.4525 171.653 53.6885 167.852 53.6885C163.564 53.6885 159.763 50.5775 159.763 45.2304C159.763 40.2398 163.466 36.9343 167.462 36.9343C172.336 36.9343 175.194 40.1425 175.194 45.1332C175.194 45.7489 175.129 46.2674 175.096 46.3322H163.531C163.628 48.7303 165.513 50.4479 167.852 50.4479C170.126 50.4479 171.296 49.2488 171.815 47.6933ZM183.19 32.5918V37.4204H186.471V40.7582H183.19V48.0822C183.19 49.4757 183.807 50.059 185.203 50.059C185.723 50.059 186.341 49.9617 186.503 49.9293V53.0404C186.275 53.1376 185.561 53.3968 184.196 53.3968C181.272 53.3968 179.453 51.6469 179.453 48.6979V40.7582H176.53V37.4204H177.341C179.031 37.4204 179.778 36.3509 179.778 34.9575V33.3633L183.19 32.5918ZM193.264 43.9341V53.2025H189.495V30.5116L193.264 29.74V38.9435C194.336 37.55 196.123 36.9667 197.779 36.9667C201.678 36.9667 203.562 39.7536 203.562 43.2212V53.2025H199.793V43.8693C199.793 41.9249 198.916 40.3694 196.545 40.3694C194.466 40.3694 193.328 41.9249 193.264 43.9341ZM210.387 43.5776H218.152C218.087 41.7305 216.852 40.0777 214.254 40.0777C211.882 40.0777 210.517 41.8925 210.387 43.5776ZM218.574 47.6933L221.758 48.6979C220.913 51.4525 218.412 53.6885 214.611 53.6885C210.323 53.6885 206.522 50.5775 206.522 45.2304C206.522 40.2398 210.225 36.9343 214.221 36.9343C219.094 36.9343 221.953 40.1425 221.953 45.1332C221.953 45.7489 221.888 46.2674 221.855 46.3322H210.29C210.387 48.7303 212.272 50.4479 214.611 50.4479C216.885 50.4479 218.054 49.2488 218.574 47.6933ZM234.431 37.3232V41.1471C234.009 41.0823 233.586 41.05 233.197 41.05C230.272 41.05 228.941 42.7351 228.941 45.6841V53.2025H225.172V37.4204H228.844V39.9481C229.591 38.2306 231.345 37.226 233.424 37.226C233.879 37.226 234.269 37.2908 234.431 37.3232Z" fill="#161D24"/>
<path fill-rule="evenodd" clip-rule="evenodd" d="M71.1707 59.1884C78.3602 62.5084 86.9039 59.3989 90.2492 52.2451C90.2532 52.2341 90.2516 52.2232 90.2566 52.2126L97.8817 35.7945C98.5532 34.3409 97.7574 33.0181 96.6667 32.5115C96.6667 32.5115 96.665 32.5107 96.6632 32.5099C96.0912 32.2458 95.4236 32.2016 94.832 32.3883C94.3799 32.531 93.7626 32.8763 93.3777 33.7041L87.8393 45.629C87.7124 45.9022 87.3875 46.0187 87.1147 45.892C86.8407 45.7647 86.7216 45.4415 86.8482 45.1687L92.3822 33.2522C92.3835 33.2492 92.3854 33.2464 92.3867 33.2434L95.119 27.3605C95.7896 25.9054 94.9948 24.584 93.9044 24.0776L93.9006 24.0758C93.3287 23.8113 92.6605 23.7663 92.0699 23.9541C91.6158 24.0968 90.9956 24.4428 90.6105 25.2773L82.4233 42.9057C82.2964 43.1788 81.9719 43.2966 81.6987 43.1698C81.4243 43.0422 81.3059 42.7183 81.4327 42.4455L89.6195 24.8181L90.4634 23.0011C91.1348 21.5444 90.3525 20.2036 89.2443 19.7157C88.6733 19.4515 88.0055 19.4067 87.4141 19.5941C86.9608 19.7372 86.3404 20.0826 85.9557 20.9173L84.3658 24.3406C84.3633 24.3461 84.3616 24.3509 84.3591 24.356L76.8609 40.5009C76.734 40.7741 76.4099 40.891 76.1363 40.764C75.8627 40.6368 75.7436 40.3136 75.8702 40.0408L83.371 23.8894C84.0355 22.4377 83.2412 21.1196 82.1533 20.6144L82.1491 20.6124C81.5775 20.3484 80.9097 20.3037 80.3183 20.491C79.8655 20.634 79.2448 20.9801 78.8599 21.8142L69.4032 42.1759C71.2765 43.0157 75.3716 45.3688 76.6307 50.4305C76.7032 50.723 76.5248 51.0184 76.2322 51.0888C75.9411 51.159 75.6433 50.9807 75.5721 50.6888C74.2998 45.5799 69.8152 43.4833 68.4712 42.9633C68.4657 42.9607 68.461 42.9565 68.455 42.9537C68.4504 42.9515 68.4445 42.9519 68.4394 42.9496C68.4178 42.9395 68.4032 42.9209 68.3832 42.9096C68.3537 42.8897 68.3247 42.8701 68.2999 42.8468C68.2728 42.8219 68.2517 42.7951 68.2309 42.7654C68.2124 42.7409 68.1976 42.7151 68.1832 42.6884C68.17 42.6601 68.1581 42.6336 68.1494 42.6044C68.1378 42.5661 68.1335 42.5277 68.1306 42.4884C68.1288 42.4634 68.1254 42.4408 68.1273 42.4155C68.1282 42.4046 68.1246 42.3947 68.1262 42.3847L69.1887 34.1055C69.465 31.9104 67.8665 30.4992 66.2205 30.2839C65.5603 30.1986 65.2695 30.1605 65.1375 30.1439L63.3021 44.4326L63.3022 44.4358C62.5204 50.5255 65.6764 56.4482 71.1548 59.1758C71.1612 59.1788 71.1643 59.1854 71.1707 59.1884ZM96.8895 28.1802L95.8886 30.3352C96.4365 30.3728 96.979 30.5089 97.4858 30.7433C99.6502 31.7485 100.726 34.2872 99.6521 36.6142L92.0598 52.9604C92.0521 52.9823 92.0432 53.0079 92.0327 53.038C88.2428 61.198 78.504 64.7428 70.321 60.9423C70.2974 60.9283 70.2768 60.9161 70.2588 60.9053C64.0873 57.8192 60.5201 51.1587 61.3566 44.2863C61.3572 44.2735 61.3579 44.2595 61.3587 44.2439L63.2707 29.3523C63.3197 28.9839 63.5117 28.6498 63.8068 28.4226C64.1024 28.1951 64.4755 28.0959 64.8465 28.1435C65.1349 28.1813 65.2179 28.1922 65.2573 28.198C65.3485 28.2088 65.6291 28.2447 66.4679 28.3527C69.1437 28.7 71.2134 30.934 71.1688 33.7336L77.085 20.9951C77.6137 19.8487 78.5534 19.0047 79.7231 18.6336C80.7782 18.2999 81.9544 18.3778 82.9716 18.8483C83.4775 19.0833 83.9363 19.415 84.3224 19.8184C84.8692 18.8141 85.7477 18.0764 86.8185 17.7371C87.8733 17.4022 89.051 17.4801 90.068 17.9511C91.6189 18.6714 92.6312 20.2103 92.6518 21.8934C93.3587 21.8684 94.0739 22.009 94.7238 22.3101C96.8874 23.3149 97.9629 25.8537 96.8895 28.1802Z" fill="url(#paint0_linear_13368_57432)"/>
<defs>
<linearGradient id="paint0_linear_13368_57432" x1="80.6543" y1="17.532" x2="80.6543" y2="62.4681" gradientUnits="userSpaceOnUse">
<stop stop-color="#FFAF55"/>
<stop offset="1" stop-color="#FF8800"/>
</linearGradient>
</defs>
</svg>
