<svg width="574" height="301" viewBox="0 0 574 301" fill="none" xmlns="http://www.w3.org/2000/svg">
<rect width="574" height="300.887" fill="white"/>
<g clip-path="url(#clip0_7940_78083)">
<path d="M158.819 111.424C138.942 111.424 122.828 127.143 122.828 146.532C122.828 165.922 138.942 181.64 158.819 181.64C178.697 181.64 194.811 165.922 194.811 146.532C194.811 127.143 178.697 111.424 158.819 111.424ZM162.048 169.627C162.035 169.627 162.027 169.627 162.014 169.627C161.951 169.627 161.892 169.606 161.846 169.565C161.791 169.52 161.761 169.45 161.761 169.38V159.627C161.761 159.512 161.842 159.414 161.955 159.389C166.866 158.262 170.781 154.439 171.941 149.645C171.966 149.534 172.067 149.456 172.185 149.456H182.179C182.25 149.456 182.322 149.484 182.368 149.538C182.415 149.591 182.44 149.661 182.427 149.735C181.02 160.071 172.636 168.249 162.048 169.627ZM182.191 143.831C182.187 143.831 182.183 143.831 182.179 143.831H172.181C172.063 143.831 171.961 143.753 171.936 143.642C170.499 137.68 165.125 133.519 158.87 133.519C151.447 133.519 145.412 139.407 145.412 146.647C145.412 152.749 149.677 157.991 155.789 159.393C155.903 159.418 155.983 159.516 155.983 159.631V169.384C155.983 169.454 155.953 169.52 155.898 169.569C155.852 169.61 155.793 169.631 155.73 169.631C155.717 169.631 155.709 169.631 155.696 169.631C143.941 168.097 135.077 158.217 135.077 146.652C135.077 133.852 145.753 123.438 158.87 123.438C170.706 123.438 180.813 132.052 182.419 143.482C182.436 143.514 182.444 143.552 182.444 143.589C182.444 143.72 182.33 143.831 182.191 143.831Z" fill="black"/>
<path d="M215.578 146.588C215.578 143.331 216.21 140.227 217.479 137.275C218.748 134.323 220.472 131.774 222.659 129.628C224.847 127.482 227.477 125.771 230.558 124.497C233.635 123.226 236.906 122.589 240.37 122.589C243.835 122.589 247.085 123.23 250.12 124.513C253.154 125.796 255.822 127.588 258.115 129.887L252.855 135.659C249.601 131.955 245.437 130.101 240.366 130.101C237.34 130.101 234.566 130.853 232.042 132.362C229.517 133.871 227.54 135.89 226.111 138.422C224.682 140.955 223.966 143.701 223.966 146.649C223.966 149.622 224.704 152.36 226.174 154.864C227.645 157.368 229.643 159.35 232.168 160.801C234.693 162.257 237.449 162.984 240.434 162.984C242.625 162.984 244.8 162.511 246.958 161.566C249.116 160.62 250.958 159.383 252.484 157.857L257.428 163.597C255.131 165.755 252.539 167.445 249.647 168.666C246.756 169.888 243.683 170.5 240.429 170.5C235.945 170.5 231.801 169.456 228 167.371C224.198 165.287 221.18 162.405 218.937 158.729C216.699 155.053 215.578 151.007 215.578 146.588ZM262.908 169.674V123.382H270.794V142.172C271.565 141.6 272.218 141.156 272.749 140.84C273.281 140.523 274.103 140.207 275.207 139.89C276.311 139.573 277.512 139.413 278.806 139.413C280.518 139.413 282.102 139.668 283.565 140.178C285.028 140.688 286.338 141.448 287.51 142.468C288.678 143.488 289.592 144.857 290.25 146.575C290.907 148.294 291.236 150.284 291.236 152.545V169.674H283.346V153.816C283.346 149.141 281.247 146.801 277.053 146.801C272.88 146.801 270.794 149.1 270.794 153.692V169.67H262.908V169.674ZM298.094 133.612C297.133 132.674 296.652 131.527 296.652 130.162C296.652 128.797 297.133 127.654 298.094 126.725C299.055 125.8 300.243 125.335 301.664 125.335C303.063 125.335 304.231 125.792 305.171 126.709C306.111 127.625 306.579 128.777 306.579 130.158C306.579 131.544 306.111 132.699 305.171 133.624C304.231 134.549 303.063 135.014 301.664 135.014C300.243 135.018 299.051 134.549 298.094 133.612ZM297.685 169.674V139.964H305.571V169.674H297.685ZM312.682 185.49V139.964H320.568V142.172C322.886 140.334 325.702 139.413 329.019 139.413C333.495 139.413 337.301 140.922 340.437 143.936C343.573 146.949 345.141 150.617 345.141 154.938C345.141 157.746 344.429 160.345 343 162.733C341.571 165.122 339.619 167.014 337.141 168.407C334.663 169.801 331.957 170.496 329.019 170.496C325.702 170.496 322.882 169.579 320.568 167.75V185.49H312.682ZM320.572 155.304C320.678 157.438 321.546 159.272 323.185 160.805C324.825 162.339 326.768 163.108 329.023 163.108C331.32 163.108 333.289 162.302 334.941 160.686C336.589 159.07 337.415 157.154 337.415 154.942C337.415 152.747 336.589 150.843 334.941 149.227C333.293 147.611 331.32 146.806 329.023 146.806C326.768 146.806 324.825 147.579 323.185 149.12C321.546 150.666 320.678 152.492 320.572 154.605V155.304ZM349.651 185.49V139.964H357.537V142.172C359.855 140.334 362.671 139.413 365.988 139.413C370.463 139.413 374.27 140.922 377.406 143.936C380.541 146.949 382.111 150.617 382.111 154.938C382.111 157.746 381.398 160.345 379.968 162.733C378.541 165.122 376.589 167.014 374.11 168.407C371.631 169.801 368.926 170.496 365.988 170.496C362.671 170.496 359.851 169.579 357.537 167.75V185.49H349.651ZM357.541 155.304C357.647 157.438 358.515 159.272 360.155 160.805C361.794 162.339 363.737 163.108 365.992 163.108C368.289 163.108 370.258 162.302 371.91 160.686C373.559 159.07 374.384 157.154 374.384 154.942C374.384 152.747 373.559 150.843 371.91 149.227C370.261 147.611 368.289 146.806 365.992 146.806C363.737 146.806 361.794 147.579 360.155 149.12C358.515 150.666 357.647 152.492 357.541 154.605V155.304ZM385.153 155.107C385.153 153.01 385.523 151.012 386.266 149.108C387.007 147.204 388.044 145.535 389.382 144.1C390.717 142.665 392.381 141.526 394.371 140.679C396.366 139.837 398.541 139.413 400.896 139.413C403.817 139.413 406.456 140.124 408.816 141.551C411.171 142.978 413.001 144.865 414.294 147.217C415.588 149.568 416.235 152.138 416.235 154.926C416.235 155.801 416.171 156.616 416.045 157.368H392.821C393.28 159.23 394.253 160.719 395.746 161.833C397.238 162.947 399.089 163.502 401.301 163.502C402.76 163.502 404.158 163.231 405.496 162.684C406.831 162.137 407.927 161.315 408.782 160.221L414.164 164.39C412.786 166.294 410.962 167.782 408.685 168.868C406.409 169.949 403.97 170.492 401.36 170.492C398.353 170.492 395.611 169.822 393.127 168.477C390.646 167.133 388.693 165.283 387.273 162.919C385.866 160.563 385.153 157.956 385.153 155.107ZM393.107 151.719H408.288C408.061 150.214 407.236 148.952 405.814 147.932C404.395 146.917 402.738 146.407 400.837 146.407C399.02 146.407 397.428 146.892 396.05 147.858C394.67 148.824 393.687 150.111 393.107 151.719ZM421.14 169.674V139.964H429.026V142.172C430.485 141.111 432.058 140.383 433.739 139.997C435.42 139.61 437.751 139.413 440.735 139.413V146.801C438.755 146.801 437.057 146.912 435.647 147.139C434.24 147.361 433.107 147.673 432.25 148.068C431.396 148.462 430.729 149.009 430.248 149.7C429.769 150.391 429.443 151.119 429.28 151.879C429.11 152.64 429.031 153.573 429.031 154.671V169.674H421.14ZM440.735 127.597C440.735 127.029 440.849 126.487 441.076 125.973C441.306 125.459 441.609 125.015 441.992 124.645C442.375 124.275 442.831 123.979 443.357 123.761C443.888 123.543 444.441 123.432 445.019 123.432C445.596 123.432 446.147 123.543 446.675 123.761C447.201 123.983 447.653 124.279 448.031 124.649C448.411 125.019 448.715 125.467 448.937 125.981C449.161 126.495 449.275 127.029 449.275 127.588C449.275 128.148 449.161 128.682 448.937 129.2C448.71 129.718 448.411 130.162 448.028 130.536C447.648 130.911 447.194 131.207 446.665 131.433C446.14 131.655 445.587 131.766 445.006 131.766C444.234 131.766 443.523 131.581 442.863 131.211C442.212 130.841 441.688 130.335 441.306 129.694C440.925 129.052 440.735 128.353 440.735 127.597ZM441.54 127.597C441.54 128.049 441.629 128.477 441.809 128.888C441.992 129.299 442.236 129.652 442.545 129.953C442.851 130.253 443.219 130.491 443.649 130.672C444.078 130.849 444.53 130.939 445.009 130.939C445.641 130.939 446.228 130.787 446.759 130.487C447.29 130.187 447.712 129.78 448.016 129.266C448.322 128.756 448.475 128.197 448.475 127.593C448.475 126.98 448.322 126.408 448.016 125.886C447.712 125.364 447.29 124.945 446.749 124.636C446.216 124.328 445.629 124.172 444.997 124.172C444.365 124.172 443.782 124.328 443.251 124.636C442.72 124.945 442.303 125.36 441.999 125.886C441.693 126.408 441.54 126.98 441.54 127.597ZM443.333 129.957V125.212H444.816C445.001 125.212 445.162 125.216 445.293 125.22C445.424 125.224 445.569 125.241 445.735 125.261C445.9 125.282 446.038 125.311 446.147 125.348C446.261 125.385 446.374 125.434 446.49 125.504C446.604 125.57 446.695 125.652 446.767 125.742C446.838 125.833 446.893 125.948 446.939 126.088C446.981 126.228 447.009 126.384 447.009 126.556C447.009 127.321 446.606 127.79 445.801 127.971L447.009 129.969H446.033L444.871 128.037H444.145V129.961H443.333V129.957ZM444.145 127.325H445.031C445.204 127.325 445.355 127.317 445.478 127.301C445.599 127.284 445.717 127.255 445.829 127.206C445.942 127.161 446.026 127.087 446.085 126.988C446.145 126.889 446.174 126.766 446.174 126.614C446.174 126.343 446.08 126.158 445.89 126.067C445.7 125.977 445.414 125.927 445.031 125.927H444.145V127.325Z" fill="black"/>
</g>
<defs>
<clipPath id="clip0_7940_78083">
<rect width="328.351" height="74.0645" fill="white" transform="translate(122.828 111.424)"/>
</clipPath>
</defs>
</svg>
