<svg width="120" height="40" viewBox="0 0 120 40" fill="none" xmlns="http://www.w3.org/2000/svg">
<path fill-rule="evenodd" clip-rule="evenodd" d="M104 22.7538C103.901 22.6542 103.788 22.5767 103.664 22.5264C103.541 22.4755 103.407 22.45 103.265 22.45C103.123 22.45 102.989 22.4755 102.866 22.5264C102.743 22.5773 102.63 22.6537 102.53 22.7538C102.43 22.854 102.353 22.9674 102.302 23.0919C102.251 23.2164 102.226 23.3519 102.226 23.4958C102.226 23.6375 102.251 23.7714 102.302 23.8953C102.353 24.0192 102.429 24.1327 102.529 24.2334C102.629 24.3346 102.742 24.4127 102.866 24.4641C102.989 24.5161 103.123 24.5416 103.265 24.5416C103.407 24.5416 103.541 24.5161 103.665 24.4641C103.788 24.4127 103.901 24.3346 104.001 24.2334C104.1 24.1327 104.178 24.0192 104.228 23.8959C104.28 23.7714 104.305 23.6375 104.305 23.4958C104.305 23.3519 104.28 23.2164 104.229 23.0919C104.177 22.9674 104.1 22.854 104 22.7544V22.7538ZM114.014 21.7578C113.737 22.2519 113.343 22.642 112.827 22.9325C112.309 23.223 111.766 23.3674 111.19 23.368C110.619 23.368 110.088 23.2225 109.589 22.9292C109.091 22.6371 108.696 22.2298 108.4 21.7036C108.104 21.1768 107.957 20.6285 107.957 20.053C107.957 19.4726 108.103 18.9243 108.396 18.403C108.69 17.8818 109.082 17.4801 109.578 17.1929C110.073 16.9052 110.611 16.7619 111.198 16.7619C111.655 16.7619 112.073 16.8416 112.456 16.9998C112.838 17.1581 113.184 17.3949 113.497 17.7136C113.809 18.0312 114.042 18.3864 114.197 18.781C114.352 19.1749 114.431 19.6087 114.431 20.084C114.431 20.7076 114.292 21.2632 114.014 21.7578V21.7578ZM114.362 15.533V17.1227C113.97 16.633 113.524 16.255 113.023 15.9917C112.451 15.6918 111.811 15.5418 111.109 15.5424C110.501 15.5424 109.935 15.6514 109.412 15.871C108.89 16.0907 108.412 16.4199 107.98 16.8565C107.549 17.2931 107.223 17.7761 107.006 18.3045C106.789 18.8319 106.681 19.4045 106.681 20.0193C106.681 20.6462 106.788 21.2283 107.003 21.7634C107.218 22.2984 107.54 22.7859 107.969 23.2241C108.396 23.6618 108.871 23.9921 109.39 24.2124C109.909 24.4326 110.473 24.5421 111.078 24.5421C111.759 24.5421 112.39 24.4005 112.966 24.1166C113.477 23.8649 113.942 23.5047 114.362 23.0366V24.5504H115.607V15.533H114.362V15.533ZM118.392 15.6232V24.5499H119.652V15.533H118.392V15.6232ZM119.928 12.9097C119.879 12.7935 119.807 12.6867 119.712 12.5921C119.618 12.4969 119.511 12.4244 119.395 12.3763C119.279 12.327 119.152 12.3032 119.018 12.3032C118.887 12.3032 118.762 12.327 118.647 12.3757C118.532 12.4244 118.426 12.4974 118.332 12.5915C118.238 12.6867 118.165 12.7935 118.117 12.9102C118.068 13.0264 118.045 13.1537 118.045 13.2876C118.045 13.4187 118.068 13.5438 118.117 13.6594C118.165 13.7751 118.238 13.8807 118.332 13.9748C118.426 14.07 118.532 14.1425 118.647 14.1912C118.762 14.2398 118.887 14.2636 119.018 14.2631C119.152 14.2636 119.278 14.2398 119.395 14.1912C119.511 14.143 119.618 14.07 119.712 13.9754C119.806 13.8807 119.879 13.7751 119.928 13.6594C119.976 13.5438 120 13.4187 120 13.2876C120 13.1537 119.976 13.027 119.928 12.9097V12.9097ZM11.9098 20.4465C11.7217 20.4498 11.5424 20.5256 11.4096 20.6584L7.9071 24.2218C7.26082 24.982 7.75494 25.8933 8.27562 26.7338C8.6148 27.1593 8.58548 27.3508 9.15263 27.6867C9.80444 28.0723 10.5553 28.4491 11.4971 28.7922C11.8711 28.935 12.3381 29.174 12.654 29.174C13.5322 29.174 13.8951 29.039 14.1414 28.7961C14.8363 28.1111 16.981 26.0649 16.981 26.0649C17.1138 25.9321 17.1902 25.7528 17.1935 25.5652L17.1841 21.1918C17.1907 20.7895 16.8665 20.4619 16.4659 20.4619H16.4537L11.9098 20.4465V20.4465ZM12.1682 21.76L15.3238 21.7711C15.6265 21.7722 15.8716 22.0168 15.8716 22.3189L15.8783 25.3013C15.3305 25.8247 12.9401 28.0939 12.3613 28.6644C12.358 28.6677 12.4217 28.6312 11.9104 28.6312C11.7289 28.6312 11.9037 28.5034 11.7073 28.4281L11.3465 28.3042C10.4026 27.9611 9.94499 27.7951 9.41656 27.4825C9.05746 27.27 8.87652 26.5673 8.62144 26.2663C8.48754 25.9714 8.60152 25.4546 8.88372 25.1015L12.1682 21.7595V21.76Z" fill="#0EC88F"/>
<path fill-rule="evenodd" clip-rule="evenodd" d="M14.344 23.9335C14.7103 23.9335 15.0068 23.6369 15.0068 23.2717C15.0068 22.906 14.7103 22.6094 14.344 22.6094C13.9782 22.6094 13.6816 22.906 13.6816 23.2717C13.6816 23.6369 13.9782 23.9335 14.344 23.9335Z" fill="#0EC88F"/>
<path fill-rule="evenodd" clip-rule="evenodd" d="M35.4633 21.7578C35.1855 22.2519 34.7921 22.642 34.2753 22.9325C33.7585 23.223 33.2146 23.3674 32.6386 23.368C32.0681 23.368 31.5369 23.2225 31.0378 22.9292C30.5399 22.6371 30.1448 22.2298 29.8482 21.7036C29.5522 21.1768 29.4055 20.6285 29.4055 20.053C29.4055 19.4726 29.5511 18.9243 29.8449 18.403C30.1381 17.8818 30.531 17.4801 31.0262 17.1929C31.522 16.9052 32.0598 16.7619 32.6463 16.7619C33.1039 16.7619 33.5223 16.8416 33.9046 16.9998C34.2864 17.1581 34.6333 17.3949 34.9454 17.7136C35.2575 18.0312 35.4904 18.3864 35.6459 18.781C35.8014 19.1749 35.88 19.6087 35.88 20.084C35.88 20.7076 35.7405 21.2632 35.4633 21.7578V21.7578ZM35.8102 9.83265V17.1221C35.419 16.6324 34.9725 16.2545 34.4712 15.9911C33.8996 15.6912 33.2594 15.5413 32.5578 15.5418C31.9497 15.5418 31.3831 15.6508 30.8613 15.8705C30.339 16.0902 29.8609 16.4194 29.4293 16.856C28.9972 17.2925 28.6713 17.7756 28.4549 18.304C28.2375 18.8313 28.1296 19.404 28.1296 20.0187C28.1296 20.6457 28.2364 21.2277 28.4516 21.7628C28.6663 22.2979 28.9889 22.7853 29.4172 23.2236C29.8449 23.6613 30.3191 23.9916 30.8392 24.2118C31.3577 24.432 31.9215 24.5416 32.5268 24.5416C33.208 24.5416 33.8393 24.3999 34.4153 24.1161C34.926 23.8643 35.3908 23.5041 35.8097 23.036V24.5499H37.0547V9.83265H35.8108H35.8102ZM46.9735 21.7578C46.6963 22.2519 46.3023 22.642 45.7861 22.9325C45.2687 23.223 44.7254 23.3674 44.1493 23.368C43.5783 23.368 43.0471 23.2225 42.5486 22.9292C42.0506 22.6371 41.6555 22.2298 41.3589 21.7036C41.0629 21.1768 40.9163 20.6285 40.9157 20.053C40.9157 19.4726 41.0618 18.9243 41.3551 18.403C41.6483 17.8818 42.0412 17.4801 42.5364 17.1929C43.0322 16.9052 43.57 16.7619 44.1571 16.7619C44.6141 16.7619 45.0324 16.8416 45.4148 16.9998C45.7966 17.1581 46.1435 17.3949 46.4556 17.7136C46.7682 18.0312 47.0012 18.3864 47.1566 18.781C47.3116 19.1749 47.3901 19.6087 47.3901 20.084C47.3901 20.7076 47.2513 21.2632 46.9735 21.7578V21.7578ZM47.3204 15.533V17.1227C46.9292 16.633 46.4833 16.255 45.9814 15.9917C45.4098 15.6918 44.7702 15.5418 44.068 15.5424C43.4605 15.5424 42.8939 15.6514 42.3715 15.871C41.8492 16.0907 41.3711 16.4199 40.9395 16.8565C40.5079 17.2931 40.182 17.7761 39.9651 18.3046C39.7482 18.8319 39.6398 19.4046 39.6398 20.0193C39.6398 20.6462 39.7471 21.2283 39.9618 21.7634C40.177 22.2984 40.4996 22.7859 40.9279 23.2241C41.3556 23.6618 41.8298 23.9921 42.3494 24.2124C42.8684 24.4326 43.4317 24.5421 44.037 24.5421C44.7187 24.5421 45.3495 24.4005 45.9255 24.1166C46.4362 23.8649 46.9016 23.5047 47.3204 23.0366V24.5504H48.5654V15.533H47.3204ZM53.7152 12.6424H52.4553V12.7321V15.533H50.9806V16.6457H52.4553V24.3258H53.7152V16.6457H55.4288V15.533H53.7152V12.6424ZM64.5215 21.7578C64.2438 22.2519 63.8498 22.642 63.3335 22.9325C62.8167 23.223 62.2728 23.3674 61.6968 23.368C61.1263 23.368 60.5946 23.2225 60.0961 22.9292C59.5981 22.6371 59.203 22.2298 58.907 21.7036C58.6104 21.1768 58.4638 20.6285 58.4632 20.053C58.4632 19.4726 58.6093 18.9243 58.9031 18.403C59.1964 17.8818 59.5892 17.4801 60.0844 17.1929C60.5797 16.9052 61.118 16.7619 61.7046 16.7619C62.1622 16.7619 62.5805 16.8416 62.9628 16.9998C63.3446 17.1581 63.6915 17.3949 64.0036 17.7136C64.3157 18.0312 64.5486 18.3864 64.7041 18.781C64.8596 19.1749 64.9382 19.6087 64.9382 20.084C64.9382 20.7076 64.7987 21.2632 64.5215 21.7578V21.7578ZM64.8685 15.533V17.1227C64.4773 16.633 64.0307 16.255 63.5294 15.9917C62.9578 15.6918 62.3182 15.5418 61.616 15.5424C61.0079 15.5424 60.4419 15.6514 59.9196 15.871C59.3972 16.0907 58.9192 16.4199 58.4876 16.8565C58.0554 17.2931 57.7295 17.7761 57.5126 18.3046C57.2963 18.8319 57.1878 19.4046 57.1878 20.0193C57.1878 20.6462 57.2946 21.2283 57.5098 21.7634C57.7245 22.2984 58.0471 22.7859 58.4754 23.2241C58.9037 23.6618 59.3773 23.9921 59.8969 24.2124C60.4164 24.4326 60.9797 24.5421 61.5845 24.5421C62.2662 24.5421 62.8975 24.4005 63.4735 24.1166C63.9843 23.8649 64.449 23.5047 64.8685 23.0366V24.5504H66.1134V15.533H64.8685ZM70.1427 17.054C70.26 16.9456 70.3878 16.8659 70.5273 16.8117C70.6667 16.758 70.8178 16.7309 70.9838 16.7309C71.2438 16.7309 71.5094 16.7973 71.7817 16.9318C72.0533 17.0668 72.3322 17.2709 72.6161 17.5459L72.6803 17.6085L73.5003 16.7624L73.4361 16.7005C73.0382 16.3176 72.641 16.0282 72.2409 15.834C71.8414 15.6403 71.4397 15.5413 71.038 15.5418C70.696 15.5418 70.3806 15.596 70.0946 15.7056C69.808 15.8152 69.5507 15.98 69.3249 16.1992C69.0992 16.4177 68.9276 16.6662 68.8142 16.9428C68.7008 17.2195 68.6438 17.5233 68.6438 17.8519C68.6438 18.3571 68.7865 18.8125 69.0709 19.2076C69.2148 19.4073 69.419 19.6049 69.6818 19.8013C69.9452 19.9983 70.2678 20.1941 70.6501 20.3911C71.0015 20.5704 71.2892 20.7336 71.5122 20.8797C71.7346 21.0263 71.8929 21.1564 71.9836 21.2637C72.1723 21.4917 72.2636 21.7423 72.2642 22.0312C72.2642 22.2066 72.2293 22.3681 72.159 22.5192C72.0882 22.6703 71.982 22.8119 71.837 22.9442C71.6931 23.0758 71.5349 23.1732 71.3611 23.2385C71.1879 23.3038 70.9987 23.3365 70.7912 23.337C70.4968 23.337 70.2113 23.2634 69.9302 23.114C69.6492 22.9646 69.3725 22.7389 69.1019 22.434L69.035 22.3582L68.2393 23.2612L68.2847 23.3199C68.5818 23.7011 68.9586 24.0004 69.4112 24.2168C69.8627 24.4331 70.3397 24.5416 70.8377 24.5416C71.2106 24.5416 71.5553 24.4807 71.8696 24.3562C72.1839 24.2323 72.4672 24.0458 72.7173 23.7985C72.9674 23.5523 73.1561 23.2767 73.2817 22.9729C73.4084 22.6703 73.4709 22.3394 73.4709 21.9847C73.4709 21.479 73.3227 21.018 73.0283 20.6136L73.0277 20.6125C72.8756 20.4099 72.6603 20.2085 72.382 20.0038C72.1037 19.7996 71.7623 19.5932 71.3567 19.3841C71.0291 19.2153 70.7586 19.0576 70.5461 18.9138C70.3342 18.7688 70.1798 18.6354 70.0857 18.5198L70.0846 18.5192C69.9872 18.4019 69.9148 18.2835 69.8672 18.164C69.8196 18.0439 69.7963 17.9228 69.7963 17.7977C69.7963 17.6561 69.8251 17.5249 69.8821 17.4021C69.9391 17.2787 70.0254 17.1631 70.1427 17.054V17.054ZM82.8486 21.7578C82.5714 22.2519 82.1775 22.642 81.6612 22.9325C81.1439 23.223 80.6005 23.3674 80.0239 23.368C79.454 23.368 78.9228 23.2225 78.4237 22.9292C77.9257 22.6371 77.5307 22.2298 77.2341 21.7036C76.9381 21.1768 76.7914 20.6285 76.7914 20.053C76.7914 19.4726 76.937 18.9243 77.2302 18.403C77.524 17.8818 77.9163 17.4801 78.4116 17.1929C78.9073 16.9052 79.4452 16.7619 80.0322 16.7619C80.4893 16.7619 80.9081 16.8416 81.2899 16.9998C81.6723 17.1581 82.0187 17.3949 82.3313 17.7136C82.6434 18.0312 82.8763 18.3864 83.0318 18.781C83.1867 19.1749 83.2653 19.6087 83.2653 20.084C83.2653 20.7076 83.1264 21.2632 82.8492 21.7578H82.8486ZM83.1961 15.533V17.1227C82.8049 16.633 82.3584 16.255 81.8571 15.9917C81.285 15.6918 80.6453 15.5418 79.9432 15.5424C79.3356 15.5424 78.769 15.6514 78.2467 15.871C77.7243 16.0907 77.2468 16.4199 76.8147 16.8565C76.3831 17.2931 76.0572 17.7761 75.8408 18.3046C75.6234 18.8319 75.5149 19.4046 75.5149 20.0193C75.5149 20.6462 75.6223 21.2283 75.8369 21.7634C76.0522 22.2984 76.3748 22.7859 76.803 23.2241C77.2308 23.6618 77.705 23.9921 78.2245 24.2124C78.7435 24.4326 79.3068 24.5421 79.9122 24.5421C80.5939 24.5421 81.2246 24.4005 81.8012 24.1166C82.3114 23.8649 82.7767 23.5047 83.1956 23.0366V24.5504H84.4405V15.533H83.1961V15.533ZM93.4945 19.7642C93.4945 20.2871 93.4807 20.7187 93.4542 21.0579C93.4276 21.3971 93.3866 21.6455 93.3368 21.7938C93.1819 22.2497 92.9064 22.6133 92.5013 22.8938C92.0974 23.1727 91.6061 23.3132 91.0173 23.3138C90.4291 23.3138 89.93 23.1694 89.5106 22.8822C89.0912 22.5945 88.8107 22.2088 88.6607 21.7125C88.612 21.5426 88.5733 21.2925 88.5478 20.9677C88.5224 20.6418 88.5097 20.2406 88.5097 19.7642V15.533H87.2492V19.8876C87.2498 21.0867 87.3837 21.9902 87.6631 22.6044C87.9397 23.2131 88.3625 23.6911 88.9252 24.032C89.4907 24.3734 90.1912 24.5416 91.0212 24.5416C91.8512 24.5416 92.5495 24.3734 93.11 24.0314C93.6677 23.6911 94.0877 23.2169 94.3644 22.616C94.6432 22.0096 94.7777 21.1282 94.7777 19.9645V15.533H93.494V19.7642H93.4945ZM100.663 15.5418C100.249 15.5418 99.85 15.6674 99.4721 15.9148C99.155 16.1223 98.8546 16.4161 98.5691 16.7945V15.533H97.2853V24.5499H98.5691V21.3987C98.5691 20.6728 98.5857 20.0691 98.6189 19.5894C98.6521 19.1091 98.7024 18.7516 98.766 18.5237C98.9381 17.9122 99.1866 17.4701 99.5036 17.1902C99.6646 17.048 99.8273 16.9428 99.9905 16.8731C100.154 16.8039 100.318 16.7696 100.486 16.7696C100.621 16.7696 100.802 16.8139 101.022 16.9091L101.093 16.9395L101.747 15.8838L101.665 15.8384C101.316 15.6431 100.982 15.5418 100.663 15.5418V15.5418ZM19.2017 30.3227C19.1818 29.8568 18.8897 29.5729 18.4083 29.5359C18.25 29.5237 18.0088 29.5077 17.8605 29.4894C17.228 29.4285 16.5392 29.3383 15.879 29.2028C15.2953 29.0833 14.7171 28.9493 14.1422 28.7966C14.1422 28.7966 12.2244 28.2865 10.6258 27.5849C9.66138 27.1621 8.73512 26.5225 8.61836 26.2563C8.57521 26.1589 8.55307 25.916 8.58406 25.7821C8.63994 25.5387 8.72571 25.2675 8.90665 25.085C8.90997 25.0822 8.91163 25.0778 8.91163 25.0728C9.00569 24.9588 9.06102 24.8138 9.06102 24.655C9.06102 24.2926 8.76776 23.9988 8.40423 23.9988C8.20725 23.9988 8.03074 24.0857 7.91011 24.2234L7.9079 24.2218C7.26162 24.982 7.01152 26.1684 7.53219 27.0089C7.87193 27.4338 8.31017 27.8333 8.87732 28.1692C9.52913 28.5548 10.4061 28.9333 11.3485 29.2758C12.7616 29.817 14.1881 30.1971 15.6146 30.4887C16.4191 30.6536 17.238 30.7543 17.9612 30.8179L16.8114 31.9672H9.62154C9.57727 31.9672 9.533 31.9661 9.48874 31.9633C4.88511 31.8914 1.19003 28.079 1.31729 23.4349C1.43791 19.0338 5.04502 15.4599 9.45111 15.3719C9.50811 15.3703 9.5651 15.3703 9.62154 15.3703C10.9628 15.3703 12.2293 15.6884 13.3509 16.2523C13.4649 16.2965 13.58 16.3165 13.694 16.3165C14.4742 16.3165 15.2007 15.3825 15.2007 14.7113V12.2092C15.1951 12.1942 15.1913 12.1793 15.1913 12.1649C15.1913 11.9303 15.0352 11.7897 14.8288 11.7897H13.9989L13.9961 11.7842C13.2502 11.782 12.6039 11.2403 12.3904 10.583C11.9759 9.30644 13.1119 8.03269 14.5732 8.03269C14.8609 8.03269 15.1608 8.08249 15.4641 8.19039C17.8876 9.05523 17.8223 12.3525 17.8859 15.165H17.8876V27.1433C17.8876 27.5057 18.182 27.7995 18.5449 27.7995C18.9079 27.7995 19.2017 27.5057 19.2017 27.1433V15.165C19.2017 15.1329 19.2001 15.1014 19.1979 15.0693L19.1901 14.6997C19.1619 13.2566 19.132 11.7637 18.784 10.4219C18.322 8.63747 17.3536 7.47107 15.9062 6.95427C15.4707 6.79934 15.0225 6.72021 14.5738 6.72021H14.5732C13.3869 6.72021 12.2769 7.27243 11.6035 8.19758C11.0021 9.02425 10.8333 10.0412 11.1404 10.9874C11.5255 12.1732 12.6172 13.0187 13.8307 13.0917C13.8495 13.0939 13.8677 13.0961 13.8865 13.0972V14.6803C13.8633 14.7616 13.7742 14.8856 13.6934 14.9597C12.4153 14.361 11.0469 14.0573 9.62154 14.0573C9.55624 14.0573 9.49095 14.0584 9.42511 14.0595C6.95453 14.1087 4.62006 15.1014 2.85165 16.8543C1.08268 18.6072 0.0712097 20.9317 0.0037045 23.3984C-0.0671206 25.9896 0.879612 28.4458 2.67237 30.3138C4.4596 32.1785 6.86489 33.2298 9.44613 33.2752C9.50423 33.278 9.56344 33.2796 9.62154 33.2796H16.8114C17.16 33.2796 17.4942 33.1413 17.741 32.8951L18.8161 31.753C19.075 31.4941 19.2111 31.1444 19.2017 30.7897V30.3227V30.3227Z" fill="#00A0DF"/>
<path fill-rule="evenodd" clip-rule="evenodd" d="M14.4713 9.24767C14.2101 9.43469 14.2101 9.81759 14.4713 10.0046C14.6295 10.118 14.8486 10.118 15.0069 10.0046C15.2686 9.81704 15.2686 9.43469 15.0069 9.24767C14.8486 9.13424 14.6295 9.13424 14.4713 9.24767Z" fill="#00A0DF"/>
</svg>
