<svg width="121" height="40" viewBox="0 0 121 40" fill="none" xmlns="http://www.w3.org/2000/svg">
<path fill-rule="evenodd" clip-rule="evenodd" d="M46.0266 13.4873H41.6332V26.3145H46.0266C49.7904 26.3145 52.1592 23.8065 52.1592 19.9018C52.1592 15.9972 49.7904 13.4873 46.0266 13.4873ZM45.926 23.9539H44.2052V15.8271H45.926C48.2929 15.8271 49.5872 17.3939 49.5872 19.8999C49.5872 22.406 48.2929 23.9539 45.926 23.9539ZM57.7224 16.7721C55.1943 16.7721 53.3729 18.851 53.3729 21.6614C53.3729 24.5455 55.1339 26.5299 57.7663 26.5299C60.0326 26.5299 61.4495 25.2542 61.7735 23.2697H59.4432C59.2418 24.0635 58.6139 24.4396 57.7645 24.4396C56.6497 24.4396 55.8826 23.6043 55.8003 22.2038H61.8303V21.4043C61.8303 18.6677 60.3749 16.7664 57.7279 16.7664L57.7224 16.7721ZM55.8625 20.6332C56.084 19.4842 56.7778 18.8775 57.7444 18.8775C58.775 18.8775 59.3425 19.6505 59.3626 20.6332H55.8625ZM68.1971 16.7683C67.2269 16.7683 66.3354 17.2483 65.9308 17.7492V13.4873H63.4028V26.3145H65.9327V25.5434C66.3372 26.0442 67.2287 26.5242 68.199 26.5242C70.8295 26.5242 72.3068 24.33 72.3068 21.6576C72.3068 18.9852 70.8277 16.7683 68.1971 16.7683ZM67.6296 24.2676C67.2754 24.2733 66.9271 24.174 66.6259 23.9813C66.3248 23.7887 66.0836 23.5109 65.9308 23.1809V20.1097C66.0899 19.7849 66.3327 19.5117 66.6324 19.32C66.932 19.1282 67.2771 19.0255 67.6296 19.023C68.9861 19.023 69.7952 20.157 69.7952 21.6557C69.7952 23.1544 68.9861 24.2676 67.6296 24.2676ZM77.9909 24.2242C78.3775 24.2241 78.757 24.1164 79.0892 23.9123V26.2048C78.5771 26.4237 78.0248 26.5243 77.471 26.4997C75.6276 26.4997 74.4761 25.5547 74.4761 23.4909V19.0665H73.0995V16.9762H74.4761V13.4873H76.9639V16.9762H78.9465V19.0551H76.9584V23.1601C76.9584 23.8915 77.3428 24.2242 77.9909 24.2242ZM88.3027 19.6883C89.218 19.3537 89.9502 18.3521 89.9502 16.9724C89.9502 14.6742 88.3521 13.4835 85.7618 13.4835H81.0022V26.3126H86.1572C88.7475 26.3126 90.3255 25.0368 90.3255 22.6763C90.3333 22.0224 90.1418 21.3825 89.7781 20.847C89.4145 20.3115 88.8971 19.9075 88.299 19.692L88.3027 19.6883ZM83.4864 15.7439H85.5916C86.8254 15.7439 87.4734 16.2051 87.4734 17.2275C87.4734 18.25 86.8254 18.7527 85.5916 18.7527H83.4864V15.7439ZM85.9357 24.0597H83.4864V20.8468H85.9357C87.1476 20.8468 87.7956 21.4535 87.7956 22.4571C87.7956 23.4606 87.1494 24.0597 85.9357 24.0597ZM95.9272 16.7664C93.2966 16.7664 91.4953 18.7716 91.4953 21.6557C91.4953 24.5398 93.2966 26.5242 95.9272 26.5242C98.5578 26.5242 100.359 24.519 100.359 21.6557C100.359 18.7924 98.5504 16.7664 95.9272 16.7664ZM95.9272 24.3262C94.6714 24.3262 93.9849 23.1922 93.9849 21.6519C93.9849 20.1116 94.6714 18.9569 95.9272 18.9569C97.183 18.9569 97.8695 20.0908 97.8695 21.6519C97.8695 23.213 97.1811 24.33 95.9272 24.33V24.3262ZM105.902 16.7664C103.273 16.7664 101.472 18.7716 101.472 21.6557C101.472 24.5398 103.273 26.5242 105.902 26.5242C108.531 26.5242 110.334 24.519 110.334 21.6557C110.334 18.7924 108.533 16.7664 105.902 16.7664ZM105.902 24.3262C104.648 24.3262 103.962 23.1922 103.962 21.6519C103.962 20.1116 104.648 18.9569 105.902 18.9569C107.156 18.9569 107.846 20.0908 107.846 21.6519C107.846 23.213 107.154 24.33 105.902 24.33V24.3262ZM120.637 26.3107H117.662L115.011 22.5553L114.279 23.3699V26.3145H111.773V13.4873H114.283V20.4442L117.378 16.9762H120.49L116.829 20.9451L120.637 26.3107ZM11.1591 7.06714V13.493H6.94865C6.66949 13.493 6.40175 13.6075 6.20435 13.8113C6.00695 14.0151 5.89605 14.2915 5.89605 14.5797C5.89605 14.8679 6.00695 15.1443 6.20435 15.3481C6.40175 15.5519 6.66949 15.6664 6.94865 15.6664H11.1591V24.3602H6.94865C6.80685 24.3541 6.66532 24.3777 6.53257 24.4295C6.39981 24.4813 6.27857 24.5603 6.17615 24.6617C6.07372 24.7632 5.99222 24.8849 5.93654 25.0197C5.88087 25.1545 5.85217 25.2995 5.85217 25.446C5.85217 25.5925 5.88087 25.7376 5.93654 25.8723C5.99222 26.0071 6.07372 26.1289 6.17615 26.2303C6.27857 26.3317 6.39981 26.4107 6.53257 26.4625C6.66532 26.5143 6.80685 26.5379 6.94865 26.5318H11.1591V30.9978L22.734 32.7894L34.3089 30.9978V7.06714L22.734 8.85882L11.1591 7.06714ZM32.211 29.1191L22.7395 30.5858L13.2697 29.1191V26.5242H17.4801C17.6219 26.5303 17.7635 26.5068 17.8962 26.455C18.029 26.4032 18.1502 26.3242 18.2526 26.2227C18.3551 26.1213 18.4366 25.9996 18.4923 25.8648C18.5479 25.73 18.5766 25.585 18.5766 25.4385C18.5766 25.2919 18.5479 25.1469 18.4923 25.0121C18.4366 24.8774 18.3551 24.7556 18.2526 24.6542C18.1502 24.5527 18.029 24.4738 17.8962 24.4219C17.7635 24.3701 17.6219 24.3466 17.4801 24.3527H13.2697V15.6589H17.4801C17.7593 15.6589 18.027 15.5444 18.2244 15.3406C18.4218 15.1368 18.5327 14.8604 18.5327 14.5722C18.5327 14.2839 18.4218 14.0075 18.2244 13.8037C18.027 13.5999 17.7593 13.4854 17.4801 13.4854H13.2697V9.58834L22.7395 11.0549L32.211 9.58834V29.1191ZM6.95048 21.102H1.68932C1.41015 21.102 1.14242 20.9875 0.945018 20.7837C0.747617 20.5799 0.636719 20.3034 0.636719 20.0152C0.636719 19.727 0.747617 19.4506 0.945018 19.2468C1.14242 19.043 1.41015 18.9285 1.68932 18.9285H6.95048C7.22965 18.9285 7.49738 19.043 7.69478 19.2468C7.89219 19.4506 8.00308 19.727 8.00308 20.0152C8.00308 20.3034 7.89219 20.5799 7.69478 20.7837C7.49738 20.9875 7.22965 21.102 6.95048 21.102ZM29.0478 20.0058C29.0487 20.1492 29.0222 20.2914 28.9698 20.4243C28.9173 20.5571 28.84 20.6779 28.7422 20.7798C28.6443 20.8816 28.528 20.9625 28.3998 21.0178C28.2716 21.0731 28.1341 21.1017 27.9952 21.102H17.4728C17.1937 21.102 16.9259 20.9875 16.7285 20.7837C16.5311 20.5799 16.4202 20.3034 16.4202 20.0152C16.4202 19.727 16.5311 19.4506 16.7285 19.2468C16.9259 19.043 17.1937 18.9285 17.4728 18.9285H27.9952C28.2726 18.929 28.5387 19.0423 28.7357 19.244C28.9327 19.4457 29.0449 19.7194 29.0478 20.0058ZM22.734 13.4892H27.9952C28.2743 13.4892 28.5421 13.6037 28.7395 13.8075C28.9369 14.0113 29.0478 14.2877 29.0478 14.5759C29.0478 14.8642 28.9369 15.1406 28.7395 15.3444C28.5421 15.5482 28.2743 15.6627 27.9952 15.6627H22.734C22.4548 15.6627 22.1871 15.5482 21.9897 15.3444C21.7923 15.1406 21.6814 14.8642 21.6814 14.5759C21.6814 14.2877 21.7923 14.0113 21.9897 13.8075C22.1871 13.6037 22.4548 13.4892 22.734 13.4892ZM29.0478 25.4375C29.0478 25.7257 28.9369 26.0021 28.7395 26.2059C28.5421 26.4097 28.2743 26.5242 27.9952 26.5242H22.734C22.5922 26.5303 22.4507 26.5068 22.3179 26.455C22.1851 26.4032 22.0639 26.3242 21.9615 26.2227C21.8591 26.1213 21.7776 25.9996 21.7219 25.8648C21.6662 25.73 21.6375 25.585 21.6375 25.4385C21.6375 25.2919 21.6662 25.1469 21.7219 25.0121C21.7776 24.8774 21.8591 24.7556 21.9615 24.6542C22.0639 24.5527 22.1851 24.4738 22.3179 24.4219C22.4507 24.3701 22.5922 24.3466 22.734 24.3527H27.9952C28.274 24.3527 28.5415 24.4669 28.7388 24.6703C28.9362 24.8737 29.0473 25.1496 29.0478 25.4375Z" fill="#0B3557"/>
</svg>
