<svg width="112" height="48" viewBox="0 0 112 48" fill="none" xmlns="http://www.w3.org/2000/svg">
<path d="M40.0151 34.1575C40.7238 35.3976 41.7868 36.1063 43.2041 36.1063H47.6333C49.7592 36.1063 51.1766 33.9803 50.2907 32.0315L40.1923 13.7835C38.775 10.9488 35.9403 9 32.5742 9H29.5624C28.3222 9 27.4364 10.4173 27.9679 11.6575L40.0151 34.1575Z" fill="black"/>
<path d="M23.0072 14.4921C21.4127 11.126 18.0465 9 14.3261 9H12.0229C10.6056 9 9.89692 10.4173 10.4284 11.6575L22.4757 34.3346C23.0072 35.3976 24.2473 36.1063 25.3103 36.1063H30.0938C32.2198 36.1063 33.6371 33.9803 32.5741 32.0315L23.0072 14.4921Z" fill="#29C8BE"/>
<path d="M7.77095 36.1063H13.0859C14.5032 36.1063 15.2119 34.689 14.6804 33.626L12.0229 27.9567C11.3143 26.7166 9.54261 26.7166 8.83395 27.9567L6.17647 33.626C5.64497 34.689 6.35363 36.1063 7.77095 36.1063Z" fill="black"/>
</svg>
