<svg width="574" height="301" viewBox="0 0 574 301" fill="none" xmlns="http://www.w3.org/2000/svg">
<rect width="574" height="300.887" fill="white"/>
<path fill-rule="evenodd" clip-rule="evenodd" d="M240.781 128.359H227.223V167.944H240.781C252.396 167.944 259.706 160.204 259.706 148.154C259.706 136.104 252.396 128.359 240.781 128.359ZM240.471 160.659H235.16V135.579H240.471C247.775 135.579 251.769 140.414 251.769 148.148C251.769 155.882 247.775 160.659 240.471 160.659ZM276.875 138.496C269.073 138.496 263.452 144.911 263.452 153.584C263.452 162.484 268.887 168.608 277.01 168.608C284.004 168.608 288.377 164.672 289.377 158.547H282.185C281.564 160.997 279.626 162.158 277.005 162.158C273.564 162.158 271.197 159.58 270.943 155.258H289.552V152.791C289.552 144.345 285.06 138.478 276.892 138.478L276.875 138.496ZM271.135 150.411C271.819 146.865 273.96 144.993 276.942 144.993C280.123 144.993 281.874 147.378 281.936 150.411H271.135ZM309.2 138.484C306.206 138.484 303.455 139.965 302.206 141.511V128.359H294.404V167.944H302.212V165.564C303.46 167.109 306.211 168.591 309.206 168.591C317.324 168.591 321.883 161.819 321.883 153.572C321.883 145.325 317.318 138.484 309.2 138.484ZM307.449 161.627C306.356 161.645 305.281 161.338 304.351 160.744C303.422 160.149 302.677 159.292 302.206 158.273V148.796C302.697 147.793 303.446 146.95 304.371 146.358C305.296 145.767 306.361 145.45 307.449 145.442C311.635 145.442 314.132 148.941 314.132 153.567C314.132 158.192 311.635 161.627 307.449 161.627ZM339.424 161.493C340.617 161.493 341.788 161.16 342.813 160.53V167.605C341.233 168.281 339.528 168.591 337.819 168.515C332.13 168.515 328.577 165.599 328.577 159.23V145.576H324.329V139.125H328.577V128.359H336.254V139.125H342.373V145.541H336.237V158.209C336.237 160.466 337.424 161.493 339.424 161.493ZM371.246 147.495C374.071 146.463 376.33 143.371 376.33 139.114C376.33 132.021 371.399 128.347 363.405 128.347H348.717V167.938H364.625C372.619 167.938 377.489 164.001 377.489 156.716C377.512 154.698 376.922 152.723 375.799 151.071C374.677 149.418 373.081 148.171 371.235 147.507L371.246 147.495ZM356.383 135.323H362.88C366.687 135.323 368.687 136.746 368.687 139.901C368.687 143.056 366.687 144.608 362.88 144.608H356.383V135.323ZM363.942 160.985H356.383V151.07H363.942C367.681 151.07 369.681 152.942 369.681 156.04C369.681 159.137 367.687 160.985 363.942 160.985ZM394.775 138.478C386.657 138.478 381.099 144.666 381.099 153.567C381.099 162.467 386.657 168.591 394.775 168.591C402.893 168.591 408.452 162.403 408.452 153.567C408.452 144.73 402.871 138.478 394.775 138.478ZM394.775 161.808C390.9 161.808 388.782 158.308 388.782 153.555C388.782 148.801 390.9 145.238 394.775 145.238C398.651 145.238 400.769 148.737 400.769 153.555C400.769 158.372 398.645 161.819 394.775 161.819V161.808ZM425.558 138.478C417.446 138.478 411.887 144.666 411.887 153.567C411.887 162.467 417.446 168.591 425.558 168.591C433.671 168.591 439.235 162.403 439.235 153.567C439.235 144.73 433.676 138.478 425.558 138.478ZM425.558 161.808C421.689 161.808 419.57 158.308 419.57 153.555C419.57 148.801 421.689 145.238 425.558 145.238C429.428 145.238 431.558 148.737 431.558 153.555C431.558 158.372 429.423 161.819 425.558 161.819V161.808ZM471.03 167.932H461.85L453.669 156.343L451.41 158.857V167.944H443.676V128.359H451.421V149.828L460.974 139.125H470.578L459.279 151.374L471.03 167.932ZM133.179 108.546V128.376H120.186C119.324 128.376 118.498 128.73 117.889 129.358C117.28 129.987 116.937 130.84 116.937 131.73C116.937 132.619 117.28 133.472 117.889 134.101C118.498 134.73 119.324 135.084 120.186 135.084H133.179V161.913H120.186C119.748 161.894 119.311 161.967 118.902 162.127C118.492 162.286 118.118 162.53 117.802 162.843C117.486 163.156 117.234 163.532 117.062 163.948C116.891 164.364 116.802 164.811 116.802 165.264C116.802 165.716 116.891 166.163 117.062 166.579C117.234 166.995 117.486 167.371 117.802 167.684C118.118 167.997 118.492 168.241 118.902 168.401C119.311 168.56 119.748 168.633 120.186 168.614H133.179V182.396L168.9 187.925L204.62 182.396V108.546L168.9 114.075L133.179 108.546ZM198.146 176.599L168.917 181.125L139.693 176.599V168.591H152.686C153.124 168.61 153.561 168.537 153.97 168.377C154.38 168.217 154.754 167.974 155.07 167.661C155.386 167.348 155.638 166.972 155.81 166.556C155.981 166.14 156.07 165.692 156.07 165.24C156.07 164.788 155.981 164.341 155.81 163.925C155.638 163.509 155.386 163.133 155.07 162.82C154.754 162.507 154.38 162.263 153.97 162.103C153.561 161.943 153.124 161.871 152.686 161.889H139.693V135.06H152.686C153.548 135.06 154.374 134.707 154.983 134.078C155.592 133.449 155.935 132.596 155.935 131.707C155.935 130.817 155.592 129.964 154.983 129.335C154.374 128.706 153.548 128.353 152.686 128.353H139.693V116.326L168.917 120.852L198.146 116.326V176.599ZM120.191 151.858H103.955C103.094 151.858 102.268 151.504 101.658 150.875C101.049 150.246 100.707 149.393 100.707 148.504C100.707 147.615 101.049 146.762 101.658 146.133C102.268 145.504 103.094 145.15 103.955 145.15H120.191C121.053 145.15 121.879 145.504 122.488 146.133C123.098 146.762 123.44 147.615 123.44 148.504C123.44 149.393 123.098 150.246 122.488 150.875C121.879 151.504 121.053 151.858 120.191 151.858ZM188.384 148.475C188.387 148.917 188.305 149.356 188.143 149.766C187.982 150.176 187.743 150.549 187.441 150.863C187.139 151.178 186.78 151.427 186.385 151.598C185.989 151.769 185.564 151.857 185.136 151.858H152.664C151.802 151.858 150.976 151.504 150.367 150.875C149.757 150.246 149.415 149.393 149.415 148.504C149.415 147.615 149.757 146.762 150.367 146.133C150.976 145.504 151.802 145.15 152.664 145.15H185.136C185.992 145.152 186.813 145.502 187.421 146.124C188.029 146.746 188.375 147.591 188.384 148.475ZM168.9 128.365H185.136C185.997 128.365 186.823 128.718 187.433 129.347C188.042 129.976 188.384 130.829 188.384 131.718C188.384 132.608 188.042 133.461 187.433 134.09C186.823 134.719 185.997 135.072 185.136 135.072H168.9C168.038 135.072 167.212 134.719 166.603 134.09C165.994 133.461 165.651 132.608 165.651 131.718C165.651 130.829 165.994 129.976 166.603 129.347C167.212 128.718 168.038 128.365 168.9 128.365ZM188.384 165.237C188.384 166.127 188.042 166.98 187.433 167.609C186.823 168.238 185.997 168.591 185.136 168.591H168.9C168.462 168.61 168.025 168.537 167.616 168.377C167.206 168.217 166.832 167.974 166.516 167.661C166.2 167.348 165.948 166.972 165.776 166.556C165.604 166.14 165.516 165.692 165.516 165.24C165.516 164.788 165.604 164.341 165.776 163.925C165.948 163.509 166.2 163.133 166.516 162.82C166.832 162.507 167.206 162.263 167.616 162.103C168.025 161.943 168.462 161.871 168.9 161.889H185.136C185.996 161.889 186.822 162.242 187.431 162.87C188.04 163.497 188.383 164.349 188.384 165.237Z" fill="#0B3557"/>
</svg>
