<svg width="120" height="40" viewBox="0 0 120 40" fill="none" xmlns="http://www.w3.org/2000/svg">
<path d="M53.7317 17.5235C53.0753 17.1347 52.346 16.9495 51.5255 16.9495C50.7051 16.9495 49.9575 17.1347 49.3194 17.5235C48.663 17.9125 48.1525 18.431 47.7878 19.1163C47.405 19.783 47.2227 20.5608 47.2227 21.4127C47.2227 22.2832 47.405 23.0425 47.7878 23.7092C48.1708 24.3759 48.6812 24.913 49.3194 25.3019C49.9757 25.6908 50.7051 25.876 51.5255 25.876C52.346 25.876 53.0753 25.6908 53.7317 25.3019C54.388 24.913 54.8985 24.3944 55.2632 23.7092C55.6461 23.0425 55.8284 22.2646 55.8284 21.4127C55.8284 20.5423 55.6461 19.783 55.2632 19.1163C54.8803 18.431 54.3698 17.8939 53.7317 17.5235ZM53.8228 22.8943C53.604 23.3388 53.2941 23.6906 52.893 23.9499C52.4918 24.2092 52.036 24.3388 51.5437 24.3388C51.0515 24.3388 50.5774 24.2092 50.1763 23.9499C49.7752 23.6906 49.4652 23.3388 49.2282 22.8943C49.0094 22.4498 48.9 21.9498 48.9 21.3942C48.8818 20.8386 48.9912 20.3385 49.2282 19.8941C49.447 19.4496 49.7752 19.0978 50.1763 18.8385C50.5774 18.5792 51.0332 18.4495 51.5437 18.4495C52.0542 18.4495 52.4918 18.5792 52.893 18.8199C53.2941 19.0792 53.604 19.4126 53.8228 19.8571C54.0416 20.3016 54.151 20.8016 54.151 21.3757C54.151 21.9498 54.0416 22.4498 53.8228 22.8943Z" fill="black"/>
<path d="M43.2475 18.0051C43.2475 18.4867 43.2475 18.9497 43.2658 19.3941C43.284 19.8386 43.284 20.2646 43.3022 20.672C43.3205 21.0794 43.3387 21.4684 43.3752 21.8388C43.3934 22.2092 43.4299 22.5425 43.4663 22.8759C43.4846 22.9685 43.4846 23.0611 43.5028 23.1537L36.9573 14.2456H35.3711V25.7094H37.1032V20.9498C37.1032 20.8572 37.1032 20.7461 37.1032 20.598C37.1032 20.4683 37.085 20.3016 37.085 20.0979C37.0668 19.8942 37.0485 19.6349 37.0303 19.3201C37.012 19.0052 36.9756 18.5978 36.9391 18.1348C36.9026 17.8015 36.8844 17.4125 36.848 16.9681L43.4117 25.7094H44.9979V14.2456H43.2658V18.0051H43.2475Z" fill="black"/>
<path d="M60.3314 14.2456H58.6722V17.1162H56.9219V18.7459H58.6722V25.7094H60.3314V18.7459H62.3007V17.1162H60.3314V14.2456Z" fill="black"/>
<path d="M105.019 21.0796C105.038 20.4869 104.947 19.9314 104.746 19.4128C104.564 18.9128 104.291 18.4683 103.944 18.0979C103.598 17.7275 103.178 17.4311 102.704 17.2274C102.23 17.0237 101.72 16.9126 101.173 16.9126C100.553 16.9126 99.9692 17.0237 99.4404 17.2459C98.9116 17.4682 98.4561 17.783 98.0733 18.1905C97.6905 18.5979 97.3984 19.0794 97.1797 19.635C96.9609 20.1906 96.8516 20.8018 96.8516 21.487C96.8516 22.3389 97.0336 23.0983 97.4164 23.7464C97.7998 24.3946 98.3287 24.9132 99.0029 25.2836C99.6778 25.6539 100.443 25.8391 101.318 25.8391C101.72 25.8391 102.121 25.7836 102.54 25.6725C102.959 25.5614 103.342 25.3947 103.707 25.2095C104.072 25.0243 104.4 24.7835 104.655 24.5243L103.816 23.339C103.397 23.7094 103.014 23.9686 102.649 24.1168C102.285 24.265 101.902 24.3205 101.482 24.3205C100.899 24.3205 100.371 24.2094 99.9145 23.9686C99.459 23.7279 99.1123 23.3945 98.8755 22.95C98.6928 22.6167 98.5654 22.2463 98.5288 21.8204H105.001L105.019 21.0796ZM103.324 20.4684H98.6021C98.6568 20.2276 98.7295 19.9869 98.8208 19.7831C99.0209 19.3572 99.331 19.0239 99.7138 18.8016C100.115 18.5794 100.607 18.4683 101.173 18.4683C101.537 18.4683 101.884 18.5423 102.194 18.709C102.503 18.8757 102.759 19.098 102.959 19.3758C103.16 19.6536 103.288 19.9869 103.306 20.3388V20.4684H103.324Z" fill="black"/>
<path d="M95.1924 14.2456H93.5332V25.6909H95.1924V14.2456Z" fill="black"/>
<path d="M79.3637 18.4312C79.1997 18.1534 78.9809 17.8941 78.7262 17.6719C78.4521 17.4311 78.124 17.2459 77.7599 17.1163C77.3951 16.9867 76.9936 16.9126 76.5562 16.9126C75.8086 16.9126 75.1524 17.0978 74.5509 17.4867C73.9487 17.8756 73.4752 18.3942 73.1284 19.0609C72.7823 19.7276 72.5996 20.5054 72.5996 21.3574C72.5996 22.2093 72.7637 22.9686 73.1104 23.6538C73.4565 24.3391 73.9127 24.8576 74.4962 25.2651C75.061 25.654 75.6992 25.8577 76.4101 25.8577C76.8116 25.8577 77.2124 25.7836 77.5772 25.6539C77.9419 25.5243 78.2881 25.3577 78.5981 25.1354C78.9082 24.9132 79.1636 24.6724 79.3637 24.3946C79.3637 24.3946 79.3637 24.3946 79.3637 24.3761V25.691H81.0416V17.1163H79.3637V18.4312ZM79.1089 22.8945C78.8902 23.339 78.5801 23.6908 78.1973 23.9316C77.8145 24.1909 77.3584 24.302 76.8663 24.302C76.3741 24.302 75.9366 24.1724 75.5532 23.9316C75.1704 23.6723 74.879 23.339 74.6602 22.8945C74.4415 22.45 74.3321 21.95 74.3321 21.3759C74.3321 20.8203 74.4415 20.3202 74.6602 19.8943C74.879 19.4498 75.1891 19.1165 75.5532 18.8572C75.9366 18.5979 76.3741 18.4868 76.8663 18.4868C77.3764 18.4868 77.8145 18.6164 78.1973 18.8572C78.5801 19.1165 78.8902 19.4498 79.1089 19.8943C79.3277 20.3388 79.4371 20.8203 79.4371 21.3759C79.4371 21.95 79.3277 22.45 79.1089 22.8945Z" fill="black"/>
<path d="M89.7969 17.5051C89.2134 17.1162 88.5391 16.931 87.7729 16.931C87.4268 16.931 87.0987 16.9866 86.752 17.0977C86.4238 17.2088 86.1138 17.357 85.8223 17.5607C85.5302 17.7459 85.3115 17.9681 85.1294 18.1903C85.0928 18.2274 85.0567 18.2829 85.0381 18.32V14.2456H83.3789V25.6539H85.0381V24.5612C85.2388 24.8019 85.4756 25.0056 85.7496 25.2094C86.0411 25.4131 86.3692 25.5798 86.7339 25.6909C87.0987 25.802 87.4635 25.8761 87.8276 25.8761C88.5752 25.8761 89.232 25.6909 89.8336 25.302C90.4171 24.913 90.8912 24.376 91.2193 23.7093C91.5654 23.024 91.7295 22.2647 91.7295 21.3943C91.7295 20.5424 91.5654 19.7645 91.2193 19.0978C90.8545 18.4126 90.3804 17.8941 89.7969 17.5051ZM89.7789 22.8944C89.5601 23.3389 89.25 23.6908 88.8673 23.95C88.4845 24.2093 88.0464 24.3389 87.5542 24.3389C87.044 24.3389 86.6065 24.2093 86.2231 23.95C85.8403 23.6908 85.5303 23.3389 85.3115 22.8944C85.0928 22.4499 84.9654 21.9499 84.9654 21.3757C84.9654 20.8201 85.0748 20.3202 85.3115 19.8757C85.5303 19.4312 85.8403 19.0793 86.2231 18.8385C86.6065 18.5793 87.062 18.4681 87.5542 18.4681C88.065 18.4681 88.5025 18.5978 88.8853 18.8385C89.2681 19.0978 89.5782 19.4312 89.7969 19.8757C90.0156 20.3202 90.125 20.8201 90.125 21.3757C90.107 21.9499 89.9976 22.4499 89.7789 22.8944Z" fill="black"/>
<path d="M70.2856 18.1162C69.9395 17.7458 69.52 17.4494 69.0459 17.2458C68.5717 17.042 68.0609 16.9309 67.5141 16.9309C66.8945 16.9309 66.311 17.042 65.7822 17.2642C65.2534 17.4865 64.7979 17.8013 64.4144 18.2088C64.0316 18.6162 63.7402 19.0977 63.5215 19.6533C63.3027 20.2089 63.1934 20.8201 63.1934 21.5053C63.1934 22.3572 63.3754 23.1166 63.7582 23.7647C64.141 24.4129 64.6698 24.9315 65.3447 25.3019C66.0189 25.6723 66.7851 25.8575 67.6601 25.8575C68.0609 25.8575 68.4624 25.8019 68.8818 25.6908C69.3013 25.5797 69.6841 25.413 70.0488 25.2278C70.413 25.0241 70.7411 24.8018 70.9965 24.5426L70.1582 23.3573C69.7387 23.7277 69.3559 23.9869 68.9912 24.1351C68.6264 24.2833 68.2436 24.3388 67.8242 24.3388C67.2406 24.3388 66.7118 24.2277 66.2563 23.9869C65.8002 23.7462 65.4541 23.4129 65.2167 22.9684C65.0346 22.635 64.9072 22.2646 64.8706 21.8387H71.3432L71.3613 21.1164C71.3793 20.5237 71.2886 19.9682 71.0878 19.4496C70.9058 18.9125 70.6504 18.4866 70.2856 18.1162ZM69.6654 20.4682H64.9433C64.998 20.2275 65.0713 19.9867 65.162 19.783C65.3627 19.357 65.6728 19.0237 66.0556 18.8014C66.457 18.5792 66.9492 18.468 67.5141 18.468C67.8788 18.468 68.2256 18.5421 68.5351 18.7088C68.8451 18.8755 69.1005 19.0977 69.3013 19.3755C69.5014 19.6533 69.6294 19.9867 69.6474 20.3385V20.4682H69.6654Z" fill="black"/>
<path d="M26.2184 7.09723C25.9996 6.96759 25.7444 6.96759 25.5256 7.09723L17.8679 11.4679L15.0601 7.31946C15.0418 7.30094 15.0236 7.28243 15.0236 7.26391L15.0054 7.24539C14.9871 7.20835 14.9507 7.18983 14.9325 7.17131L14.9142 7.15279C14.896 7.13427 14.8595 7.11575 14.823 7.09723C14.8048 7.09723 14.8048 7.07871 14.7866 7.07871C14.7683 7.06019 14.7319 7.06019 14.7137 7.04167C14.6954 7.04167 14.6772 7.02315 14.659 7.02315C14.6407 7.02315 14.6225 7.02315 14.586 7.00463C14.5678 7.00463 14.5313 7.00463 14.5131 7.00463C14.4949 7.00463 14.4766 7.00463 14.4584 7.00463C14.422 7.00463 14.4037 7.00463 14.3672 7.02315C14.349 7.02315 14.349 7.02315 14.3308 7.02315C14.2943 7.02315 14.2761 7.04167 14.2396 7.06019C14.2214 7.06019 14.2214 7.06019 14.2032 7.07871C14.1849 7.07871 14.1667 7.09723 14.1485 7.09723L0.346418 14.9682C0.328186 14.9682 0.328186 14.9867 0.309953 14.9867H0.29172C0.255256 15.0052 0.21879 15.0422 0.200558 15.0608L0.182325 15.0793C0.164093 15.0978 0.14586 15.1348 0.127628 15.1534L0.109395 15.1719C0.0911624 15.2089 0.0729301 15.246 0.0546976 15.283V15.3015C0.0364651 15.3386 0.0364651 15.3571 0.0364651 15.3941C0.0364651 15.4126 0.0364651 15.4126 0.0364651 15.4312C0 15.5052 0 15.5423 0 15.5793V32.3953C0 32.6361 0.127628 32.8768 0.346418 33.0065C0.455813 33.062 0.583441 33.0991 0.692836 33.0991C0.80223 33.0991 0.929857 33.062 1.03926 33.0065L8.69691 28.6358L11.4865 32.8028C11.4865 32.8028 11.4865 32.8028 11.5047 32.8213C11.5047 32.8398 11.523 32.8398 11.523 32.8583C11.5412 32.8768 11.5412 32.8768 11.5594 32.8954L11.5777 32.9139C11.5959 32.9324 11.5959 32.9324 11.6142 32.9509L11.6324 32.9694C11.6506 32.988 11.6688 32.988 11.687 33.0065C11.687 33.0065 11.7053 33.0065 11.7053 33.025C11.7053 33.025 11.7053 33.025 11.7235 33.025C11.7417 33.0435 11.76 33.0435 11.7782 33.0435C11.7965 33.0435 11.7965 33.0435 11.8147 33.062C11.8329 33.062 11.8512 33.0806 11.8694 33.0806C11.8876 33.0806 11.8876 33.0806 11.9058 33.0991C11.9241 33.0991 11.9423 33.0991 11.9605 33.1176H11.9788C12.0152 33.1176 12.0335 33.1176 12.07 33.1176C12.07 33.1176 12.07 33.1176 12.0882 33.1176C12.1064 33.1176 12.1429 33.1176 12.1611 33.1176C12.1793 33.1176 12.1793 33.1176 12.1975 33.1176C12.2158 33.1176 12.234 33.1176 12.2523 33.0991C12.2705 33.0991 12.2705 33.0991 12.2887 33.0806C12.307 33.0806 12.3252 33.062 12.3434 33.062C12.3617 33.062 12.3617 33.0435 12.3799 33.0435C12.3799 33.0435 12.3981 33.0435 12.3981 33.025L26.2002 25.154C26.419 25.0245 26.5465 24.8022 26.5465 24.5429V7.70838C26.5465 7.44911 26.419 7.22687 26.2184 7.09723ZM1.38567 31.21V17.8387L7.89466 27.4876L1.38567 31.21ZM11.7235 14.9682C11.5047 15.0978 11.3771 15.32 11.3771 15.5793V30.1359L1.69563 15.8201L14.2761 8.63437L16.6463 12.1531L11.7235 14.9682ZM25.1791 24.117L12.7628 31.21V15.9868L25.1791 8.91217V24.117Z" fill="#00D2D2"/>
</svg>
