<svg width="120" height="40" viewBox="0 0 120 40" fill="none" xmlns="http://www.w3.org/2000/svg">
<path fill-rule="evenodd" clip-rule="evenodd" d="M33.4187 13.0076C33.365 13.148 33.353 13.5957 33.3922 14.0025C33.4589 14.7013 33.5147 14.7458 34.4025 14.8099L35.3421 14.878V19.9367V24.9954L34.5131 25.0642C33.7083 25.1307 33.682 25.1604 33.6161 26.0723L33.548 27.0119H36.2138H38.8794V26.017C38.8794 25.0242 38.8778 25.0222 38.0917 25.0222H37.3042L37.3548 21.4849C37.3827 19.5394 37.4691 17.9476 37.5467 17.9476C37.6243 17.9476 38.6753 19.7926 39.8824 22.0473C41.8613 25.744 42.129 26.1406 42.605 26.082C43.0469 26.0277 43.4628 25.377 45.1514 22.0982C46.2616 19.9427 47.2446 18.1769 47.3357 18.174C47.4267 18.1712 47.5015 19.7043 47.5015 21.5815V24.9941L46.783 25.0635C46.1084 25.1285 46.0602 25.1904 45.9966 26.0723L45.9285 27.0119H48.7048H51.4809V26.017V25.0222H50.5966H49.7123V19.95V14.878L50.6518 14.8099C51.5837 14.7427 51.5919 14.7345 51.6586 13.8203L51.7256 12.8986L50.0383 12.8255C49.1105 12.7852 48.1848 12.8188 47.9816 12.9002C47.7783 12.9813 46.5177 15.1943 45.1801 17.8179C43.8426 20.4414 42.6985 22.5861 42.6377 22.5839C42.5769 22.5817 41.3552 20.401 39.9229 17.7374L37.3188 12.8949L35.4173 12.8237C34.1246 12.7751 33.4848 12.8341 33.4187 13.0076ZM87.5783 12.9181C87.0072 13.6558 87.1195 14.6536 87.8263 15.1256C89.069 15.9553 90.6491 14.0073 89.5443 13.0076C89.0683 12.577 87.884 12.523 87.5783 12.9181ZM56.3378 17.133C55.0394 17.4953 54.4051 17.9541 53.6519 19.0756C52.9088 20.1821 52.728 21.0465 52.8474 22.9219C53.0196 25.6262 54.8329 27.233 57.7129 27.233C59.4508 27.233 60.3512 26.9206 61.4865 25.9237C62.5979 24.9481 63.0493 23.6517 62.9419 21.7465C62.7844 18.9642 61.2055 17.2473 58.5554 16.9773C57.8506 16.9055 56.9183 16.9709 56.3378 17.133ZM66.3779 17.4865C65.242 18.0023 64.7456 18.692 64.7456 19.755C64.7456 21.593 65.4374 22.2014 68.2177 22.809C70.4687 23.3011 71.1585 23.8049 70.7643 24.67C70.4488 25.3624 69.0795 25.7657 67.7304 25.5634C66.8406 25.4299 66.7544 25.36 66.6925 24.7226C66.6315 24.0965 66.5443 24.0207 65.8146 23.9599C64.9159 23.885 64.8221 24.0211 64.703 25.5749C64.6353 26.4552 64.64 26.461 65.7405 26.8364C67.2761 27.3605 70.1057 27.3506 71.2675 26.8171C72.4757 26.2624 72.9592 25.6538 73.0814 24.5338C73.2934 22.5938 72.4233 21.8011 69.3885 21.1681C67.5801 20.7912 67.1775 20.5442 67.1775 19.8122C67.1775 18.8278 68.7485 18.2945 70.1165 18.8147C70.4698 18.9489 70.7 19.2551 70.7915 19.7125C70.9208 20.3598 70.9863 20.4018 71.762 20.3377L72.594 20.269L72.5203 19.1636C72.4797 18.5556 72.3304 17.947 72.1887 17.8108C71.327 16.9846 67.9035 16.7936 66.3779 17.4865ZM77.0208 17.4162C75.886 17.8316 75.8721 17.8504 75.6908 19.2189L75.537 20.3795H76.425C77.2393 20.3795 77.3335 20.317 77.5618 19.6252C77.8351 18.7968 78.1369 18.6093 79.1892 18.614C80.7903 18.6208 81.3279 19.1653 81.325 20.7768L81.3237 21.5955L79.4865 21.6078C77.0021 21.6244 75.604 22.2713 75.1837 23.5989C74.5596 25.57 75.8991 27.233 78.1108 27.233C79.2608 27.233 80.4867 26.6095 80.9443 25.7915C81.2065 25.3229 81.5477 25.3881 81.5477 25.9065C81.5477 26.6387 82.3318 27.233 83.2982 27.233C84.5493 27.233 84.8639 27.0537 84.8639 26.3405C84.8639 25.8614 84.7482 25.6998 84.3664 25.6456C83.8827 25.5769 83.8657 25.4853 83.7521 22.3498C83.6234 18.7939 83.4589 18.2976 82.1437 17.4958C81.2733 16.9652 78.3761 16.9201 77.0208 17.4162ZM95.6983 17.4155C93.8176 18.2311 92.9602 19.7402 92.9472 22.2587C92.9397 23.6822 93.0354 24.2106 93.4373 24.9667C94.1392 26.2865 95.4124 27.0736 97.0356 27.191C99.5663 27.374 100.761 26.782 101.676 24.89C102.222 23.7629 102.136 23.575 100.976 23.3621C100.241 23.227 100.164 23.2633 100.028 23.806C99.7717 24.8261 98.9358 25.4643 97.8562 25.4643C96.2019 25.4643 95.2533 24.3176 95.2559 22.321C95.2588 19.9933 96.1194 18.832 97.8414 18.832C99.1606 18.832 99.6286 19.128 99.8064 20.0749C99.9499 20.8405 99.9844 20.8654 100.728 20.7447C101.152 20.676 101.545 20.5738 101.601 20.5181C101.657 20.4624 101.632 19.8507 101.545 19.1587C101.394 17.9512 101.351 17.884 100.477 17.4869C99.3423 16.9716 96.8092 16.9338 95.6983 17.4155ZM86.5905 18.1334C86.4528 19.0727 86.596 19.2741 87.4023 19.2741H88.1354L88.1024 22.314L88.0695 25.3538L87.351 25.423C86.6933 25.4865 86.6325 25.5565 86.6325 26.252V27.0119H89.1749H91.7173V26.252C91.7173 25.5565 91.6565 25.4865 90.9988 25.423L90.2803 25.3538L90.2199 21.4296L90.1596 17.5055H88.421H86.6827L86.5905 18.1334ZM59.3699 19.1698C60.2803 19.7665 60.6283 20.5531 60.6249 22.0069C60.6194 24.3364 59.7064 25.4643 57.8261 25.4643C56.9415 25.4643 56.6422 25.3538 56.1244 24.836C54.8187 23.5303 54.723 20.9828 55.9281 19.6104C56.8478 18.5629 58.1827 18.392 59.3699 19.1698ZM80.6357 22.7285C81.1223 22.8258 81.3266 22.9925 81.3266 23.2922C81.3266 24.6828 79.468 25.9766 78.2156 25.4577C77.0193 24.9623 77.209 23.212 78.499 22.8399C79.4171 22.5751 79.7755 22.5565 80.6357 22.7285Z" fill="black"/>
<rect x="12.002" y="27.1387" width="3.43919" height="3.43919" transform="rotate(45 12.002 27.1387)" fill="#CDCDCD"/>
<path d="M24.0033 20.0002L12.0016 7.99854L0 20.0002L2.50123 22.5014L12.0016 13.001L21.5021 22.5014L24.0033 20.0002Z" fill="black"/>
<path d="M12.0015 17.5049L14.4334 19.9368L12.0015 22.3687L9.56967 19.9368L12.0015 17.5049Z" fill="black"/>
<rect x="16.7715" y="22.1479" width="3.43919" height="3.43919" transform="rotate(45 16.7715 22.1479)" fill="#555555"/>
<rect x="7.26367" y="22.1479" width="3.43919" height="3.43919" transform="rotate(45 7.26367 22.1479)" fill="#909090"/>
</svg>
