<svg width="112" height="48" viewBox="0 0 112 48" fill="none" xmlns="http://www.w3.org/2000/svg">
<path d="M14.1162 31.5516V31.7963H17.3389V28.5828V28.5723H14.1162V31.2885C14.1162 31.3652 14.1162 31.4432 14.1162 31.5212C14.1149 31.5313 14.1149 31.5415 14.1162 31.5516Z" fill="#D8276C"/>
<path d="M1 28.5716L1.97593 29.5304L4.27161 31.9107V28.5716H14.1155V25.2524H4.2888C4.19359 25.218 1 21.9702 1 21.9702V28.5716Z" fill="#D8276C"/>
<path d="M4.22463 15.7073V15.4626H1.00195V18.6761V18.6866H4.22463V15.9704C4.22463 15.8937 4.22463 15.8157 4.22463 15.7377C4.22595 15.7271 4.22463 15.7152 4.22463 15.7073Z" fill="#D8276C"/>
<path d="M17.3421 18.6872L16.3662 17.7285L14.0692 15.3481V18.6872H4.22656V22.0064H14.048C14.1432 22.0408 17.3368 25.2886 17.3368 25.2886L17.3421 18.6872Z" fill="#D8276C"/>
<path d="M43.6309 20.0253H46.3153V21.3781L46.3748 21.4336C47.1815 20.225 48.3346 19.7224 49.7297 19.7806C51.1844 19.8428 52.1841 20.5846 52.758 21.948C52.8136 21.87 52.8572 21.8158 52.8903 21.7616C53.7816 20.2435 55.1648 19.659 56.8575 19.8031C58.6387 19.9565 59.7773 21.1044 60.1463 23.0007C60.2308 23.4365 60.2751 23.8791 60.2785 24.3231C60.2917 26.7602 60.2851 29.1974 60.2785 31.6346C60.2785 31.7166 60.2692 31.7986 60.2639 31.8991H57.5187V31.5037C57.5187 29.1921 57.5187 26.8753 57.5187 24.5717C57.5217 24.2659 57.4907 23.9607 57.4261 23.6619C57.2634 22.9623 56.8641 22.4505 56.1288 22.3024C55.3261 22.1411 54.5843 22.276 54.0209 22.9279C53.4338 23.6103 53.328 24.4513 53.3227 25.3082C53.3108 27.3765 53.3227 29.4447 53.3227 31.5116V31.8991H50.584C50.584 31.7668 50.5668 31.6346 50.5668 31.5023C50.5668 29.3495 50.5668 27.1979 50.5668 25.0451C50.5673 24.6344 50.5373 24.2242 50.4769 23.8179C50.3566 23.0443 49.9559 22.4757 49.1545 22.3051C48.2923 22.1226 47.5346 22.3262 46.9792 23.0536C46.5243 23.6486 46.3695 24.3495 46.3629 25.0755C46.3431 27.2178 46.3471 29.3587 46.3418 31.501C46.3418 31.6253 46.3418 31.7496 46.3418 31.8977H43.6309V20.0253Z" fill="#281D4C"/>
<path d="M36.5647 20.8048H33.6475C33.6105 20.6289 33.5695 20.4385 33.5285 20.2468C33.1542 18.5038 32.1413 17.6377 30.3547 17.5438C29.6658 17.5068 28.9794 17.5306 28.3262 17.7884C27.4785 18.1217 26.9284 18.7035 26.7776 19.6279C26.6547 20.3896 26.9469 20.9503 27.5975 21.3272C28.3394 21.7596 29.1699 21.9209 29.9937 22.1074C31.1654 22.3719 32.3383 22.6363 33.4994 22.9365C33.8823 23.0561 34.2492 23.2222 34.5917 23.4311C36.0569 24.2338 36.7075 25.498 36.6387 27.1417C36.5184 29.8672 34.7755 31.7331 32.0461 32.0954C30.6838 32.2973 29.2948 32.2217 27.9625 31.8733C25.5306 31.2121 24.1355 29.5644 23.5629 27.1642C23.5166 26.9685 23.4796 26.7675 23.4426 26.5758C23.4384 26.526 23.4384 26.476 23.4426 26.4263H26.3955C26.4616 26.671 26.5277 26.9235 26.5991 27.1735C26.9892 28.5289 27.8607 29.3541 29.269 29.5935C30.1947 29.7508 31.1204 29.7693 32.0315 29.5049C33.1675 29.1743 33.8022 28.361 33.8498 27.2317C33.8702 26.9675 33.8196 26.7027 33.7034 26.4647C33.5871 26.2266 33.4094 26.0239 33.1886 25.8775C32.5539 25.4253 31.812 25.2481 31.0728 25.0722C29.8932 24.7905 28.7017 24.5551 27.5354 24.2298C26.9709 24.0561 26.43 23.8136 25.9247 23.5078C24.523 22.7038 23.9107 21.4568 23.998 19.8606C24.1183 17.7064 25.4751 16.0058 27.6504 15.3526C29.4138 14.8134 31.3086 14.8946 33.0194 15.5827C34.9448 16.3364 35.9776 17.8453 36.4285 19.8024C36.4867 20.059 36.5211 20.3208 36.5607 20.5813C36.5667 20.6557 36.5681 20.7303 36.5647 20.8048Z" fill="#281D4C"/>
<path d="M73.0066 22.436C71.9857 20.8399 70.4848 20.0001 68.6163 19.86C66.1963 19.6788 64.2008 20.4709 62.8982 22.6079C62.1445 23.847 61.9448 25.221 62.0559 26.6558C62.3071 29.8969 64.6782 32.108 68.1389 32.1212C69.488 32.1182 70.7945 31.6481 71.8363 30.7909C74.3753 28.7319 74.5274 24.8176 73.0066 22.436ZM71.1989 26.5592C71.1281 27.377 70.815 28.1551 70.2997 28.7941C69.3383 29.9287 67.3402 30.0821 66.1434 29.2424C65.7126 28.9289 65.3789 28.5004 65.1807 28.0059C64.9032 27.3701 64.761 26.6836 64.7633 25.9899C64.7656 25.2962 64.9122 24.6105 65.1939 23.9766C65.6528 22.9081 66.6142 22.2879 67.7633 22.2178C68.4331 22.1595 69.1045 22.3106 69.6848 22.6502C70.9477 23.4304 71.3563 25.1046 71.1989 26.5592Z" fill="#281D4C"/>
<path d="M75.7256 20.0331H78.4497V21.5604C78.5463 21.4507 78.5886 21.411 78.6216 21.3634C79.5037 20.119 80.7494 19.6932 82.2146 19.7911C84.62 19.9458 85.7229 21.608 85.9702 23.6485C86.0151 24.0569 86.0363 24.4675 86.0337 24.8783C86.0389 27.0823 86.0389 29.2863 86.0337 31.4903V31.887H83.2712V31.4903C83.2712 29.1695 83.2712 26.8474 83.2553 24.5266C83.2514 24.2949 83.2221 24.0643 83.168 23.8389C82.9776 23.0204 82.5174 22.4425 81.6552 22.2864C80.6594 22.1053 79.8039 22.3592 79.1969 23.2121C78.7464 23.8584 78.5024 24.6261 78.4973 25.4139C78.455 27.1423 78.4616 28.872 78.4497 30.603C78.4497 31.0222 78.4497 31.4414 78.4497 31.8817H75.7256V20.0331Z" fill="#281D4C"/>
<path d="M41.3623 31.8787H38.6289V20.0115H41.3623V31.8787Z" fill="#281D4C"/>
<path d="M38.5449 18.4153V15.5959H41.4211V18.4153H38.5449Z" fill="#281D4C"/>
<path d="M70.9489 24.3166C70.7223 23.6203 70.2658 23.0215 69.6543 22.6187C70.2774 23.009 70.7375 23.6124 70.9489 24.3166V24.3166Z" fill="#281D4C"/>
<path d="M71.208 26.5312C71.2252 26.3514 71.2345 26.1702 71.2345 25.9877C71.2345 25.9229 71.2345 25.8555 71.2345 25.792C71.2437 25.8568 71.2543 25.9242 71.2649 25.9877C71.2464 26.1715 71.2305 26.3527 71.208 26.5312Z" fill="#281D4C"/>
</svg>
