<svg width="120" height="40" viewBox="0 0 120 40" fill="none" xmlns="http://www.w3.org/2000/svg">
<g clip-path="url(#clip0_7974_49652)">
<path d="M11.6626 8C5.22151 8 0 13.0934 0 19.3765C0 25.6596 5.22151 30.753 11.6626 30.753C18.1039 30.753 23.3254 25.6596 23.3254 19.3765C23.3254 13.0934 18.1039 8 11.6626 8ZM12.7089 26.86C12.7048 26.86 12.7021 26.86 12.698 26.86C12.6775 26.86 12.6584 26.8533 12.6434 26.84C12.6256 26.8254 12.616 26.8026 12.616 26.78V23.6198C12.616 23.5825 12.642 23.5506 12.6789 23.5426C14.27 23.1775 15.5389 21.9385 15.9145 20.385C15.9227 20.349 15.9554 20.3238 15.9937 20.3238H19.232C19.2552 20.3238 19.2784 20.333 19.2935 20.3504C19.3085 20.3677 19.3167 20.3903 19.3126 20.4143C18.8564 23.7637 16.1398 26.4137 12.7089 26.86ZM19.2361 18.5011C19.2348 18.5011 19.2334 18.5011 19.232 18.5011H15.9923C15.9541 18.5011 15.9213 18.4758 15.9131 18.4398C15.4473 16.508 13.7059 15.1598 11.679 15.1598C9.27386 15.1598 7.31804 17.0676 7.31804 19.4138C7.31804 21.3909 8.70027 23.0896 10.6807 23.5438C10.7175 23.5518 10.7435 23.5838 10.7435 23.6211V26.7814C10.7435 26.804 10.7339 26.8254 10.7162 26.8413C10.7011 26.8546 10.682 26.8613 10.6615 26.8613C10.6575 26.8613 10.6547 26.8613 10.6507 26.8613C6.84137 26.3643 3.96906 23.1629 3.96906 19.4151C3.96906 15.2677 7.42867 11.893 11.679 11.893C15.5143 11.893 18.7895 14.6841 19.3099 18.3879C19.3153 18.3986 19.318 18.4106 19.318 18.4226C19.318 18.4652 19.2812 18.5011 19.2361 18.5011Z" fill="black"/>
<path d="M30.0547 19.3943C30.0547 18.3391 30.2596 17.3332 30.6707 16.3767C31.0818 15.4201 31.6404 14.594 32.3492 13.8986C33.0581 13.2031 33.9104 12.6489 34.9088 12.2359C35.9059 11.8242 36.9657 11.6177 38.0884 11.6177C39.2111 11.6177 40.2641 11.8255 41.2476 12.2412C42.2309 12.6569 43.0955 13.2377 43.8385 13.9825L42.134 15.853C41.0796 14.6526 39.7302 14.0518 38.087 14.0518C37.1064 14.0518 36.2077 14.2956 35.3895 14.7845C34.5715 15.2735 33.9309 15.9277 33.4679 16.7483C33.0048 17.5691 32.7727 18.459 32.7727 19.4142C32.7727 20.3775 33.0117 21.2648 33.4883 22.0762C33.965 22.8875 34.6124 23.5297 35.4306 24C36.2486 24.4717 37.1419 24.7074 38.1089 24.7074C38.8191 24.7074 39.5239 24.5542 40.2232 24.2478C40.9225 23.9414 41.5193 23.5404 42.0137 23.0461L43.6159 24.906C42.8715 25.6054 42.0315 26.153 41.0945 26.5487C40.1576 26.9444 39.1619 27.1429 38.1075 27.1429C36.6543 27.1429 35.3117 26.8045 34.0798 26.129C32.8478 25.4535 31.8699 24.5196 31.1432 23.3286C30.418 22.1375 30.0547 20.8265 30.0547 19.3943ZM45.3914 26.8751V11.8748H47.9469V17.9634C48.1968 17.7782 48.4085 17.6343 48.5806 17.5318C48.7527 17.4291 49.0191 17.3266 49.3769 17.224C49.7347 17.1214 50.124 17.0695 50.5433 17.0695C51.0978 17.0695 51.6114 17.152 52.0853 17.3172C52.5592 17.4824 52.984 17.7289 53.3637 18.0593C53.742 18.3898 54.0384 18.8334 54.2515 19.3902C54.4645 19.9472 54.5711 20.592 54.5711 21.3248V26.8751H52.0142V21.7365C52.0142 20.2216 51.3341 19.4635 49.9751 19.4635C48.623 19.4635 47.9469 20.2083 47.9469 21.6965V26.8738H45.3914V26.8751ZM56.7932 15.1896C56.4818 14.8858 56.3261 14.5141 56.3261 14.0718C56.3261 13.6294 56.4818 13.2591 56.7932 12.958C57.1047 12.6582 57.4898 12.5077 57.9501 12.5077C58.4036 12.5077 58.7819 12.6555 59.0864 12.9526C59.391 13.2497 59.5427 13.6228 59.5427 14.0704C59.5427 14.5194 59.391 14.8938 59.0864 15.1936C58.7819 15.4933 58.4036 15.6439 57.9501 15.6439C57.4898 15.6452 57.1033 15.4933 56.7932 15.1896ZM56.6608 26.8751V17.2479H59.2162V26.8751H56.6608ZM61.5203 32.0004V17.2479H64.0758V17.9634C64.827 17.3679 65.7394 17.0695 66.8142 17.0695C68.2647 17.0695 69.4981 17.5584 70.5142 18.535C71.5304 19.5115 72.0384 20.6999 72.0384 22.1002C72.0384 23.0101 71.8076 23.8522 71.3447 24.6262C70.8816 25.4002 70.2492 26.0131 69.4461 26.4647C68.6431 26.9164 67.7662 27.1416 66.8142 27.1416C65.7394 27.1416 64.8256 26.8445 64.0758 26.2516V32.0004H61.5203ZM64.0771 22.2187C64.1113 22.9102 64.3926 23.5044 64.9239 24.0014C65.4553 24.4983 66.0849 24.7474 66.8156 24.7474C67.56 24.7474 68.1978 24.4863 68.7332 23.9627C69.2673 23.4391 69.5349 22.8182 69.5349 22.1015C69.5349 21.3901 69.2673 20.7732 68.7332 20.2496C68.1992 19.726 67.56 19.4649 66.8156 19.4649C66.0849 19.4649 65.4553 19.7154 64.9239 20.215C64.3926 20.7159 64.1113 21.3074 64.0771 21.9922V22.2187ZM73.4999 32.0004V17.2479H76.0554V17.9634C76.8066 17.3679 77.7189 17.0695 78.7938 17.0695C80.244 17.0695 81.4776 17.5584 82.4936 18.535C83.5096 19.5115 84.0184 20.6999 84.0184 22.1002C84.0184 23.0101 83.7872 23.8522 83.324 24.6262C82.8616 25.4002 82.2288 26.0131 81.4256 26.4647C80.6224 26.9164 79.7457 27.1416 78.7938 27.1416C77.7189 27.1416 76.8052 26.8445 76.0554 26.2516V32.0004H73.4999ZM76.0567 22.2187C76.0908 22.9102 76.3722 23.5044 76.9035 24.0014C77.4348 24.4983 78.0645 24.7474 78.7952 24.7474C79.5395 24.7474 80.1776 24.4863 80.7128 23.9627C81.2472 23.4391 81.5144 22.8182 81.5144 22.1015C81.5144 21.3901 81.2472 20.7732 80.7128 20.2496C80.1784 19.726 79.5395 19.4649 78.7952 19.4649C78.0645 19.4649 77.4348 19.7154 76.9035 20.215C76.3722 20.7159 76.0908 21.3074 76.0567 21.9922V22.2187ZM85.004 22.1548C85.004 21.4753 85.124 20.8278 85.3648 20.211C85.6048 19.5941 85.9407 19.0532 86.3743 18.5883C86.8071 18.1233 87.3463 17.7543 87.9911 17.4798C88.6375 17.2067 89.3423 17.0695 90.1055 17.0695C91.0519 17.0695 91.9071 17.2999 92.6719 17.7623C93.4351 18.2245 94.0279 18.836 94.4471 19.5981C94.8663 20.3602 95.0759 21.1929 95.0759 22.0962C95.0759 22.3799 95.0551 22.6438 95.0143 22.8875H87.4887C87.6375 23.491 87.9527 23.9734 88.4367 24.3344C88.9199 24.6954 89.5199 24.8754 90.2367 24.8754C90.7095 24.8754 91.1623 24.7874 91.5959 24.6102C92.0287 24.433 92.3839 24.1666 92.6607 23.8122L94.4047 25.1631C93.9583 25.7799 93.3671 26.2622 92.6295 26.614C91.8919 26.9644 91.1015 27.1402 90.2559 27.1402C89.2815 27.1402 88.3927 26.923 87.5879 26.4874C86.7839 26.0518 86.1512 25.4522 85.6912 24.6862C85.2352 23.9227 85.004 23.0781 85.004 22.1548ZM87.5815 21.057H92.5007C92.4271 20.5694 92.1599 20.1603 91.6991 19.8299C91.2391 19.5009 90.7023 19.3357 90.0863 19.3357C89.4975 19.3357 88.9815 19.4929 88.5351 19.8059C88.0879 20.119 87.7695 20.5361 87.5815 21.057ZM96.6655 26.8751V17.2479H99.2207V17.9634C99.6935 17.6197 100.203 17.3839 100.748 17.2587C101.293 17.1334 102.048 17.0695 103.015 17.0695V19.4635C102.373 19.4635 101.823 19.4995 101.366 19.5728C100.91 19.6447 100.543 19.746 100.265 19.8739C99.9887 20.0018 99.7727 20.179 99.6167 20.4028C99.4615 20.6266 99.3559 20.8625 99.3031 21.109C99.2479 21.3554 99.2223 21.6578 99.2223 22.0136V26.8751H96.6655ZM103.015 13.2404C103.015 13.0566 103.052 12.8807 103.125 12.7142C103.2 12.5476 103.298 12.4037 103.422 12.2838C103.546 12.1639 103.694 12.068 103.865 11.9974C104.037 11.9268 104.216 11.8908 104.403 11.8908C104.59 11.8908 104.769 11.9268 104.94 11.9974C105.11 12.0693 105.257 12.1653 105.379 12.2852C105.502 12.4051 105.601 12.5503 105.673 12.7168C105.745 12.8834 105.782 13.0566 105.782 13.2377C105.782 13.4189 105.745 13.5921 105.673 13.76C105.599 13.9279 105.502 14.0718 105.378 14.193C105.255 14.3142 105.108 14.4102 104.937 14.4834C104.766 14.5554 104.587 14.5914 104.399 14.5914C104.149 14.5914 103.918 14.5314 103.705 14.4115C103.493 14.2916 103.324 14.1277 103.2 13.9199C103.077 13.712 103.015 13.4856 103.015 13.2404ZM103.276 13.2404C103.276 13.387 103.305 13.5255 103.363 13.6588C103.422 13.792 103.501 13.9066 103.601 14.0038C103.701 14.1011 103.82 14.1783 103.959 14.237C104.098 14.2943 104.245 14.3236 104.4 14.3236C104.605 14.3236 104.795 14.2743 104.967 14.177C105.139 14.0798 105.276 13.9479 105.374 13.7813C105.473 13.6161 105.523 13.4349 105.523 13.2391C105.523 13.0406 105.473 12.8554 105.374 12.6862C105.276 12.517 105.139 12.3811 104.964 12.2812C104.791 12.1812 104.601 12.1306 104.396 12.1306C104.191 12.1306 104.002 12.1812 103.83 12.2812C103.658 12.3811 103.523 12.5156 103.425 12.6862C103.325 12.8554 103.276 13.0406 103.276 13.2404ZM103.857 14.0051V12.4677H104.337C104.397 12.4677 104.449 12.469 104.492 12.4703C104.534 12.4717 104.581 12.477 104.635 12.4837C104.689 12.4903 104.733 12.4997 104.769 12.5117C104.805 12.5236 104.842 12.5396 104.88 12.5623C104.917 12.5836 104.946 12.6102 104.969 12.6395C104.993 12.6689 105.01 12.7062 105.025 12.7515C105.039 12.7968 105.048 12.8474 105.048 12.9033C105.048 13.1511 104.917 13.303 104.657 13.3617L105.048 14.0091H104.732L104.355 13.383H104.12V14.0065H103.857V14.0051ZM104.12 13.1525H104.407C104.463 13.1525 104.512 13.1498 104.552 13.1445C104.591 13.1392 104.629 13.1298 104.665 13.1138C104.702 13.0992 104.729 13.0752 104.749 13.0432C104.768 13.0113 104.777 12.9713 104.777 12.922C104.777 12.8341 104.747 12.7741 104.685 12.7448C104.624 12.7155 104.531 12.6995 104.407 12.6995H104.12V13.1525Z" fill="black"/>
</g>
<defs>
<clipPath id="clip0_7974_49652">
<rect width="106.399" height="24" fill="white" transform="translate(0 8)"/>
</clipPath>
</defs>
</svg>
