<svg width="320" height="80" viewBox="0 0 320 80" fill="none" xmlns="http://www.w3.org/2000/svg">
<g clip-path="url(#clip0_9492_137544)">
<path d="M240.893 32.105H241.744V34.3983H242.404V32.105H243.261V31.5496H240.893V32.105Z" fill="#0A1930"/>
<path d="M245.638 31.5496L245.288 32.7359C245.26 32.8253 245.234 32.9278 245.208 33.0419C245.183 33.1568 245.162 33.268 245.141 33.3748C245.118 33.497 245.095 33.622 245.076 33.7499H245.064C245.043 33.6227 245.02 33.4977 244.995 33.3748C244.976 33.268 244.951 33.1568 244.926 33.0419C244.9 32.9271 244.875 32.8253 244.85 32.7359L244.491 31.5496H243.608V34.3983H244.198V33.1233C244.198 33.0339 244.196 32.9307 244.191 32.8137C244.186 32.6959 244.18 32.584 244.176 32.4764C244.168 32.3543 244.161 32.2278 244.153 32.097H244.161C244.183 32.2147 244.208 32.3303 244.233 32.4451C244.254 32.5426 244.278 32.645 244.305 32.7534C244.332 32.8617 244.358 32.9583 244.384 33.0427L244.797 34.3976H245.337L245.746 33.0427C245.771 32.9583 245.798 32.8617 245.826 32.7534C245.852 32.645 245.876 32.5426 245.897 32.4451C245.923 32.3303 245.947 32.214 245.97 32.097H245.978C245.97 32.2271 245.963 32.3528 245.955 32.4764C245.95 32.584 245.944 32.6959 245.939 32.8137C245.935 32.9307 245.932 33.0339 245.932 33.1233V34.3983H246.538V31.5489L245.638 31.5496Z" fill="#0A1930"/>
<path d="M91.0205 41.0043C90.2289 40.4904 89.3421 40.1037 88.36 39.8464C87.3773 39.5898 86.3953 39.379 85.4125 39.2169C84.6762 39.0817 83.9798 38.9596 83.3256 38.8505C82.6707 38.7422 82.0971 38.6063 81.6065 38.4435C81.1158 38.2806 80.7328 38.0713 80.4609 37.8132C80.1876 37.5567 80.0509 37.2237 80.0509 36.8174C80.0509 36.113 80.3439 35.5715 80.9305 35.1921C81.5164 34.8126 82.3021 34.6229 83.2842 34.6229C85.3311 34.6229 86.5595 35.3949 86.968 36.9388H92.9438C92.6436 35.0431 91.7161 33.505 90.1606 32.3259C88.6057 31.1476 86.3124 30.5581 83.2842 30.5581C82.0012 30.5581 80.8011 30.6999 79.6817 30.9848C78.563 31.2698 77.5955 31.6964 76.777 32.2656C75.9585 32.8348 75.3102 33.5391 74.8326 34.3787C74.355 35.219 74.1159 36.1945 74.1159 37.3044C74.1159 38.5779 74.3412 39.6072 74.7912 40.393C75.2418 41.1795 75.8342 41.8155 76.572 42.304C77.3084 42.7917 78.1407 43.1574 79.0682 43.4016C79.9957 43.6458 80.9508 43.8624 81.9329 44.0514C82.6968 44.1874 83.4135 44.316 84.0823 44.4381C84.7503 44.5595 85.3442 44.7165 85.8632 44.9063C86.3814 45.096 86.7907 45.3395 87.0916 45.6375C87.3918 45.9363 87.5423 46.3288 87.5423 46.8158C87.5423 47.6023 87.2283 48.2114 86.601 48.6454C85.9729 49.0786 85.0869 49.2952 83.9413 49.2952C82.6859 49.2952 81.6828 49.0241 80.9327 48.4826C80.1818 47.941 79.7108 47.1553 79.521 46.1253H73.4609C73.5431 47.2091 73.8353 48.2049 74.3405 49.1121C74.8449 50.0207 75.5406 50.7984 76.4281 51.449C77.3142 52.0989 78.3856 52.6011 79.641 52.953C80.8956 53.3048 82.3152 53.4814 83.8977 53.4814C85.3158 53.4814 86.6264 53.3324 87.8265 53.0344C89.0273 52.7363 90.0639 52.29 90.9376 51.6933C91.8106 51.0979 92.4924 50.3521 92.9845 49.4581C93.4759 48.564 93.7209 47.5347 93.7209 46.3695C93.7209 45.0153 93.4679 43.9104 92.9635 43.057C92.459 42.2037 91.8121 41.5197 91.0205 41.0043Z" fill="#0A1930"/>
<path d="M132.688 37.814C132.115 36.0527 131.215 34.5771 129.986 33.3843C129.031 32.5178 127.933 31.8396 126.691 31.3519C125.449 30.8634 124.052 30.6206 122.496 30.6206C120.832 30.6206 119.317 30.9121 117.953 31.4936C116.589 32.0766 115.416 32.882 114.433 33.9113C113.451 34.9413 112.686 36.1538 112.14 37.5487C111.594 38.945 111.322 40.454 111.322 42.0801C111.322 43.7062 111.588 45.2094 112.12 46.5912C112.652 47.973 113.415 49.1789 114.413 50.2082C115.408 51.2382 116.616 52.0443 118.035 52.6259C119.453 53.2081 121.05 53.4989 122.823 53.4989C124.215 53.4989 125.484 53.3288 126.63 52.9908C127.776 52.6527 128.78 52.1781 129.638 51.5682C130.498 50.9584 131.221 50.2409 131.807 49.4144C132.393 48.588 132.823 47.7012 133.097 46.7526H126.874C126.52 47.43 126.022 47.9512 125.381 48.3168C124.74 48.6832 123.914 48.8656 122.904 48.8656C121.349 48.8656 120.134 48.4055 119.261 47.4838C118.387 46.5636 117.841 45.2893 117.623 43.6633H133.505C133.533 41.5262 133.261 39.5752 132.688 37.814ZM117.666 39.9685C117.884 38.4791 118.375 37.3001 119.139 36.4329C119.903 35.5664 121.021 35.1317 122.496 35.1317C123.778 35.1317 124.814 35.5584 125.607 36.4118C126.398 37.2652 126.848 38.4507 126.957 39.9678L117.666 39.9685Z" fill="#0A1930"/>
<path d="M237.241 49.4777V38.3824C237.241 36.9192 236.975 35.6384 236.443 34.5422C235.91 33.4446 235.071 32.5709 233.925 31.9211C233.161 31.4609 232.273 31.128 231.264 30.9252C230.254 30.7224 229.054 30.6206 227.663 30.6206C226.052 30.6206 224.647 30.8176 223.446 31.2102C222.245 31.6034 221.249 32.1319 220.459 32.7948C219.667 33.4592 219.068 34.2246 218.658 35.091C218.248 35.9582 218.03 36.8523 218.002 37.7733H223.937C224.019 36.9068 224.367 36.2155 224.981 35.7009C225.595 35.1863 226.516 34.9289 227.744 34.9289C228.862 34.9289 229.681 35.1666 230.199 35.6406C230.718 36.116 230.977 36.7447 230.977 37.5305C230.977 38.3432 230.547 38.9399 229.688 39.3186C228.829 39.6988 227.43 40.0237 225.493 40.2934C224.293 40.4293 223.173 40.6256 222.137 40.8829C221.1 41.1402 220.199 41.5124 219.435 42.0001C218.671 42.4879 218.065 43.1246 217.615 43.9097C217.165 44.6962 216.939 45.6848 216.939 46.8769C216.939 47.933 217.123 48.8751 217.492 49.7008C217.861 50.528 218.379 51.212 219.047 51.7536C219.715 52.2958 220.507 52.7087 221.421 52.9929C222.336 53.2779 223.325 53.4196 224.389 53.4196C226.081 53.4196 227.425 53.1347 228.421 52.5662C229.416 51.9971 230.269 51.212 230.978 50.2089H231.061C231.114 50.8326 231.21 51.3669 231.347 51.8146C231.484 52.2617 231.633 52.6077 231.798 52.8505H238.06V52.4848C237.513 52.1337 237.241 51.1306 237.241 49.4777ZM231.142 45.088C231.142 46.2808 230.712 47.2694 229.853 48.0552C228.994 48.8417 227.84 49.2334 226.395 49.2334C225.521 49.2334 224.771 49.0437 224.143 48.6643C223.515 48.2849 223.201 47.6219 223.201 46.6726C223.201 45.7247 223.543 45.0335 224.225 44.6002C224.907 44.1677 225.958 43.8014 227.376 43.5026C228.085 43.3398 228.774 43.1712 229.443 42.9945C230.111 42.8179 230.678 42.5817 231.142 42.2829V45.088Z" fill="#0A1930"/>
<path d="M109.068 36.3856V32.1246H104.914V27H98.8324V32.1246H95.5548V36.3864H98.8324V47.6248C98.8324 51.497 100.858 53.2234 105.399 53.2234C107.037 53.2234 108.22 53.0896 108.842 52.9559V48.5349C108.797 48.5364 108.751 48.5385 108.702 48.54C108.392 48.5523 107.998 48.5676 107.637 48.5676C106.369 48.5676 104.914 48.2936 104.914 46.1572V36.3856H109.068Z" fill="#0A1930"/>
<path d="M165.519 30.8787C161.152 30.8787 157.599 34.4317 157.599 38.7989V45.1461C157.599 46.5287 156.473 47.6539 155.091 47.6539C153.708 47.6539 152.584 46.5287 152.584 45.1461V38.7989C152.584 34.4317 149.031 30.8787 144.664 30.8787C140.296 30.8787 136.743 34.4317 136.743 38.7989V52.8505H142.156V38.7989C142.156 37.4164 143.281 36.2919 144.664 36.2919C146.046 36.2919 147.171 37.4164 147.171 38.7989V45.1461C147.171 49.5133 150.724 53.0663 155.092 53.0663C159.459 53.0663 163.012 49.5133 163.012 45.1461V38.7989C163.012 37.4164 164.137 36.2919 165.52 36.2919C166.902 36.2919 168.027 37.4164 168.027 38.7989V53.022H173.439V38.7989C173.439 34.4317 169.886 30.8787 165.519 30.8787Z" fill="#0A1930"/>
<path d="M205.811 30.8787C201.443 30.8787 197.89 34.4317 197.89 38.7989V45.1461C197.89 46.5287 196.765 47.6539 195.383 47.6539C194 47.6539 192.876 46.5287 192.876 45.1461V38.7989C192.876 34.4317 189.322 30.8787 184.955 30.8787C180.588 30.8787 177.035 34.4317 177.035 38.7989V52.8505H182.448V38.7989C182.448 37.4164 183.573 36.2919 184.955 36.2919C186.338 36.2919 187.463 37.4164 187.463 38.7989V45.1461C187.463 49.5133 191.016 53.0663 195.383 53.0663C199.75 53.0663 203.303 49.5133 203.303 45.1461V38.7989C203.303 37.4164 204.429 36.2919 205.811 36.2919C207.194 36.2919 208.318 37.4164 208.318 38.7989V53.022H213.731V38.7989C213.731 34.4317 210.178 30.8787 205.811 30.8787Z" fill="#0A1930"/>
</g>
<defs>
<clipPath id="clip0_9492_137544">
<rect width="173.074" height="50" fill="white" transform="translate(73.4609 15)"/>
</clipPath>
</defs>
</svg>
