<svg width="320" height="80" viewBox="0 0 320 80" fill="none" xmlns="http://www.w3.org/2000/svg">
<path d="M156.9 53.9729H151.461V42.7195C151.461 39.9062 149.961 38.7808 148.085 38.7808C146.397 38.7808 144.709 39.1559 143.771 40.4688V53.9729H138.145V42.5319C138.145 39.9062 136.832 38.7808 134.769 38.7808C133.081 38.7808 131.393 39.531 130.642 40.8439V53.9729H125.016V34.6546H130.642V36.3426H130.83C131.955 35.0297 133.831 34.2795 136.269 34.2795C138.707 34.2795 140.958 35.2172 142.458 37.0928C144.146 35.2172 146.397 34.2795 149.398 34.2795C153.712 34.2795 156.9 37.0928 156.9 42.7195V53.9729ZM170.779 34.2795C176.969 34.2795 181.47 38.5933 181.47 44.22C181.47 49.8467 176.969 54.348 170.779 54.348C164.59 54.348 160.089 49.8467 160.089 44.22C160.089 38.5933 164.59 34.2795 170.779 34.2795ZM170.779 49.8467C173.78 49.8467 176.031 47.4084 176.031 44.22C176.031 41.0315 173.78 38.7808 170.779 38.7808C167.779 38.7808 165.715 41.0315 165.715 44.22C165.715 47.4084 167.779 49.8467 170.779 49.8467ZM185.034 34.6546H190.473V36.7177L190.848 36.9053C192.161 35.4048 194.412 34.2795 197.225 34.2795C200.976 34.2795 204.165 36.9053 204.165 42.3444V53.9729H198.725V42.7195C198.725 39.9062 197.037 38.7808 194.974 38.7808C193.099 38.7808 191.598 39.3435 190.473 40.4688V53.9729H185.034V34.6546ZM223.108 35.9675L223.295 35.7799V34.6546H228.922V53.9729H223.295V52.0973H223.108C221.982 53.4102 219.919 54.348 217.481 54.348C212.229 54.348 208.103 49.8467 208.103 44.22C208.103 38.5933 212.417 34.2795 217.856 34.2795C220.294 34.2795 221.982 34.8421 223.108 35.9675ZM223.295 47.2209V40.0937C222.17 39.3435 220.482 38.7808 218.606 38.7808C215.793 38.7808 213.73 41.0315 213.73 44.22C213.73 47.4084 215.793 49.8467 218.606 49.8467C220.482 49.8467 222.357 49.0964 223.295 47.2209ZM247.49 35.7799V25.6519H253.117V53.9729H247.49V52.4724L247.303 52.2849C246.177 53.5978 244.302 54.348 241.863 54.348C236.799 54.348 232.673 49.8467 232.673 44.22C232.673 38.5933 236.799 34.2795 242.238 34.2795C244.677 34.2795 246.177 34.8421 247.49 35.7799ZM247.49 47.596V39.9062C246.365 39.1559 244.864 38.7808 242.989 38.7808C240.363 38.7808 238.112 41.0315 238.112 44.22C238.112 47.4084 240.363 49.8467 242.989 49.8467C244.864 49.8467 246.552 49.0964 247.49 47.596Z" fill="#16181A"/>
<path d="M102.889 52.2849C103.639 53.5978 104.765 54.348 106.265 54.348H110.954C113.205 54.348 114.705 52.0973 113.767 50.0342L103.077 30.7159C101.576 27.715 98.5754 25.6519 95.0118 25.6519H91.8233C90.5104 25.6519 89.5727 27.1523 90.1353 28.4652L102.889 52.2849Z" fill="#16181A"/>
<path d="M84.8783 31.4661C83.1903 27.9025 79.6267 25.6519 75.6881 25.6519H73.2498C71.7494 25.6519 70.9991 27.1523 71.5618 28.4652L84.3157 52.4724C84.8783 53.5978 86.1912 54.348 87.3166 54.348H92.3806C94.6313 54.348 96.1317 52.0973 95.0064 50.0342L84.8783 31.4661Z" fill="#29C8BE"/>
<path d="M68.7498 54.3479H74.3765C75.877 54.3479 76.6272 52.8474 76.0645 51.7221L73.2512 45.7203C72.501 44.4074 70.6254 44.4074 69.8752 45.7203L67.0618 51.7221C66.4991 52.8474 67.2494 54.3479 68.7498 54.3479Z" fill="white"/>
</svg>
