<svg width="320" height="80" viewBox="0 0 320 80" fill="none" xmlns="http://www.w3.org/2000/svg">
<path fill-rule="evenodd" clip-rule="evenodd" d="M227.924 44.2511C227.77 44.0973 227.596 43.9777 227.405 43.9C227.215 43.8214 227.008 43.7821 226.789 43.7821C226.57 43.7821 226.363 43.8214 226.173 43.9C225.982 43.9786 225.809 44.0964 225.654 44.2511C225.5 44.4057 225.381 44.5808 225.302 44.7729C225.224 44.9651 225.184 45.1744 225.184 45.3965C225.184 45.6152 225.224 45.8219 225.302 46.0132C225.381 46.2045 225.499 46.3796 225.653 46.5351C225.807 46.6914 225.981 46.8118 226.173 46.8913C226.363 46.9716 226.57 47.0109 226.789 47.0109C227.008 47.0109 227.215 46.9716 227.406 46.8913C227.597 46.8118 227.77 46.6914 227.925 46.5351C228.078 46.3796 228.198 46.2045 228.276 46.0141C228.355 45.8219 228.394 45.6152 228.394 45.3965C228.394 45.1744 228.355 44.9651 228.277 44.7729C228.197 44.5808 228.078 44.4057 227.924 44.2519V44.2511ZM243.382 42.7136C242.955 43.4763 242.346 44.0785 241.549 44.5269C240.751 44.9754 239.912 45.1983 239.023 45.1992C238.141 45.1992 237.321 44.9745 236.552 44.5218C235.783 44.0708 235.173 43.4422 234.715 42.6298C234.258 41.8167 234.032 40.9702 234.032 40.0819C234.032 39.1858 234.257 38.3394 234.71 37.5347C235.163 36.7301 235.769 36.11 236.534 35.6667C237.298 35.2225 238.128 35.0013 239.035 35.0013C239.74 35.0013 240.386 35.1243 240.976 35.3686C241.566 35.6129 242.101 35.9784 242.584 36.4705C243.066 36.9607 243.425 37.5091 243.665 38.1181C243.904 38.7263 244.026 39.396 244.026 40.1297C244.026 41.0923 243.811 41.9499 243.382 42.7136ZM243.919 33.1042V35.5582C243.314 34.8023 242.626 34.2189 241.852 33.8123C240.969 33.3493 239.981 33.1178 238.897 33.1187C237.959 33.1187 237.085 33.287 236.278 33.6261C235.472 33.9652 234.735 34.4734 234.068 35.1473C233.402 35.8213 232.898 36.567 232.564 37.3827C232.229 38.1967 232.061 39.0808 232.062 40.0298C232.062 40.9975 232.227 41.8961 232.558 42.7221C232.891 43.5481 233.389 44.3006 234.05 44.9771C234.71 45.6527 235.442 46.1627 236.244 46.5026C237.045 46.8426 237.916 47.0117 238.849 47.0117C239.902 47.0117 240.875 46.7931 241.765 46.3549C242.553 45.9662 243.271 45.4102 243.919 44.6875V47.0245H245.841V33.1042H243.919ZM250.141 33.2434V47.0237H252.086V33.1042H250.141V33.2434ZM252.511 29.0546C252.437 28.8752 252.325 28.7103 252.178 28.5643C252.033 28.4174 251.869 28.3055 251.688 28.2312C251.509 28.1551 251.313 28.1184 251.108 28.1184C250.904 28.1184 250.712 28.1551 250.534 28.2303C250.356 28.3055 250.193 28.4182 250.048 28.5634C249.902 28.7103 249.79 28.8752 249.715 29.0554C249.641 29.2348 249.604 29.4313 249.604 29.638C249.604 29.8404 249.641 30.0335 249.715 30.212C249.79 30.3905 249.902 30.5536 250.048 30.6988C250.193 30.8458 250.356 30.9577 250.534 31.0328C250.712 31.108 250.904 31.1447 251.107 31.1439C251.313 31.1447 251.508 31.108 251.688 31.0328C251.868 30.9585 252.033 30.8458 252.179 30.6997C252.324 30.5536 252.436 30.3905 252.511 30.212C252.585 30.0335 252.622 29.8404 252.622 29.638C252.622 29.4313 252.585 29.2357 252.511 29.0546ZM85.7631 40.6892C85.4727 40.6943 85.1959 40.8113 84.9909 41.0163L79.5841 46.5172C78.5864 47.6908 79.3492 49.0976 80.1529 50.3951C80.6765 51.0519 80.6313 51.3475 81.5068 51.8659C82.513 52.4613 83.6721 53.043 85.1259 53.5726C85.7033 53.7929 86.4242 54.162 86.912 54.162C88.2675 54.162 88.8278 53.9535 89.208 53.5786C90.2808 52.5211 93.5915 49.3624 93.5915 49.3624C93.7965 49.1574 93.9144 48.8806 93.9195 48.5911L93.905 41.8397C93.9153 41.2188 93.4147 40.7131 92.7963 40.7131H92.7775L85.7631 40.6892ZM86.162 42.717L91.0333 42.7341C91.5005 42.7358 91.8789 43.1133 91.8789 43.5797L91.8892 48.1836C91.0436 48.9917 87.3536 52.4946 86.4601 53.3753C86.455 53.3804 86.5532 53.324 85.764 53.324C85.4838 53.324 85.7537 53.1267 85.4505 53.0105L84.8936 52.8192C83.4363 52.2896 82.73 52.0334 81.9142 51.5508C81.3599 51.2228 81.0806 50.138 80.6868 49.6733C80.4801 49.218 80.656 48.4202 81.0917 47.8753L86.162 42.7161V42.717Z" fill="#0EC88F"/>
<path fill-rule="evenodd" clip-rule="evenodd" d="M89.5146 46.0728C90.0801 46.0728 90.5379 45.615 90.5379 45.0512C90.5379 44.4866 90.0801 44.0288 89.5146 44.0288C88.95 44.0288 88.4922 44.4866 88.4922 45.0512C88.4922 45.615 88.95 46.0728 89.5146 46.0728Z" fill="#0EC88F"/>
<path fill-rule="evenodd" clip-rule="evenodd" d="M122.12 42.7137C121.691 43.4765 121.084 44.0786 120.286 44.5271C119.488 44.9755 118.649 45.1985 117.759 45.1993C116.879 45.1993 116.059 44.9747 115.288 44.522C114.52 44.071 113.91 43.4423 113.452 42.63C112.995 41.8168 112.769 40.9703 112.769 40.082C112.769 39.186 112.993 38.3395 113.447 37.5349C113.899 36.7303 114.506 36.1101 115.27 35.6668C116.036 35.2226 116.866 35.0014 117.771 35.0014C118.478 35.0014 119.124 35.1244 119.714 35.3687C120.303 35.613 120.839 35.9786 121.32 36.4706C121.802 36.9609 122.162 37.5093 122.402 38.1183C122.642 38.7264 122.763 39.3961 122.763 40.1298C122.763 41.0925 122.548 41.9501 122.12 42.7137ZM122.656 24.3047V35.5575C122.052 34.8015 121.362 34.2181 120.588 33.8116C119.706 33.3486 118.718 33.1171 117.635 33.118C116.696 33.118 115.821 33.2863 115.016 33.6254C114.21 33.9645 113.472 34.4727 112.805 35.1466C112.138 35.8206 111.635 36.5662 111.301 37.382C110.965 38.196 110.799 39.0801 110.799 40.029C110.799 40.9968 110.964 41.8954 111.296 42.7214C111.627 43.5474 112.125 44.2999 112.787 44.9764C113.447 45.652 114.179 46.162 114.982 46.5019C115.782 46.8419 116.652 47.011 117.587 47.011C118.638 47.011 119.613 46.7923 120.502 46.3541C121.291 45.9655 122.008 45.4094 122.655 44.6868V47.0238H124.577V24.3047H122.656H122.656ZM139.888 42.7137C139.46 43.4765 138.852 44.0786 138.055 44.5271C137.257 44.9755 136.418 45.1985 135.529 45.1993C134.647 45.1993 133.827 44.9747 133.058 44.522C132.289 44.071 131.679 43.4423 131.221 42.63C130.764 41.8168 130.538 40.9703 130.537 40.082C130.537 39.186 130.762 38.3395 131.215 37.5349C131.668 36.7303 132.274 36.1101 133.039 35.6668C133.804 35.2226 134.634 35.0014 135.541 35.0014C136.246 35.0014 136.892 35.1244 137.482 35.3687C138.072 35.613 138.607 35.9786 139.089 36.4706C139.571 36.9609 139.931 37.5093 140.171 38.1183C140.41 38.7264 140.532 39.3961 140.532 40.1298C140.532 41.0925 140.317 41.9501 139.888 42.7137ZM140.424 33.1043V35.5583C139.82 34.8024 139.132 34.219 138.357 33.8124C137.474 33.3495 136.487 33.118 135.403 33.1188C134.465 33.1188 133.591 33.2871 132.784 33.6262C131.978 33.9653 131.24 34.4735 130.574 35.1475C129.907 35.8214 129.404 36.5671 129.069 37.3828C128.735 38.1969 128.567 39.0809 128.567 40.0299C128.567 40.9977 128.733 41.8963 129.064 42.7222C129.397 43.5482 129.895 44.3007 130.556 44.9772C131.216 45.6529 131.948 46.1628 132.75 46.5028C133.551 46.8427 134.421 47.0119 135.355 47.0119C136.408 47.0119 137.381 46.7932 138.271 46.355C139.059 45.9664 139.777 45.4103 140.424 44.6877V47.0247H142.346V33.1043H140.424ZM150.296 28.6421H148.351V28.7805V33.1043H146.074V34.822H148.351V46.6779H150.296V34.822H152.941V33.1043H150.296V28.6421ZM166.977 42.7137C166.549 43.4765 165.94 44.0786 165.144 44.5271C164.346 44.9755 163.506 45.1985 162.617 45.1993C161.736 45.1993 160.915 44.9747 160.146 44.522C159.377 44.071 158.767 43.4423 158.31 42.63C157.852 41.8168 157.626 40.9703 157.625 40.082C157.625 39.186 157.851 38.3395 158.304 37.5349C158.757 36.7303 159.363 36.1101 160.128 35.6668C160.892 35.2226 161.723 35.0014 162.629 35.0014C163.335 35.0014 163.981 35.1244 164.571 35.3687C165.161 35.613 165.696 35.9786 166.178 36.4706C166.66 36.9609 167.019 37.5093 167.259 38.1183C167.499 38.7264 167.621 39.3961 167.621 40.1298C167.621 41.0925 167.405 41.9501 166.977 42.7137ZM167.513 33.1043V35.5583C166.909 34.8024 166.22 34.219 165.446 33.8124C164.564 33.3495 163.576 33.118 162.492 33.1188C161.553 33.1188 160.68 33.2871 159.873 33.6262C159.067 33.9653 158.329 34.4735 157.663 35.1475C156.996 35.8214 156.493 36.5671 156.158 37.3828C155.824 38.1969 155.656 39.0809 155.656 40.0299C155.656 40.9977 155.821 41.8963 156.153 42.7222C156.485 43.5482 156.983 44.3007 157.644 44.9772C158.305 45.6529 159.036 46.1628 159.838 46.5028C160.64 46.8427 161.51 47.0119 162.443 47.0119C163.496 47.0119 164.47 46.7932 165.36 46.355C166.148 45.9664 166.866 45.4103 167.513 44.6877V47.0247H169.435V33.1043H167.513ZM175.655 35.4524C175.836 35.285 176.033 35.162 176.249 35.0783C176.464 34.9954 176.697 34.9536 176.953 34.9536C177.355 34.9536 177.765 35.0561 178.185 35.2636C178.604 35.4721 179.035 35.7873 179.473 36.2118L179.572 36.3083L180.838 35.0023L180.739 34.9066C180.125 34.3155 179.511 33.8688 178.894 33.569C178.277 33.27 177.657 33.1171 177.037 33.118C176.509 33.118 176.022 33.2017 175.581 33.3708C175.138 33.5399 174.741 33.7945 174.392 34.1327C174.044 34.4701 173.779 34.8536 173.604 35.2807C173.429 35.7078 173.341 36.1768 173.341 36.6841C173.341 37.464 173.561 38.167 174 38.7768C174.222 39.0852 174.538 39.3901 174.943 39.6934C175.35 39.9974 175.848 40.2998 176.438 40.6039C176.981 40.8806 177.425 41.1326 177.769 41.3581C178.112 41.5845 178.357 41.7852 178.497 41.9509C178.788 42.3028 178.929 42.6898 178.93 43.1356C178.93 43.4064 178.876 43.6558 178.767 43.889C178.658 44.1222 178.494 44.3409 178.27 44.545C178.048 44.7483 177.804 44.8986 177.536 44.9994C177.268 45.1002 176.976 45.1506 176.656 45.1515C176.202 45.1515 175.761 45.0379 175.327 44.8073C174.893 44.5766 174.466 44.2281 174.048 43.7575L173.945 43.6405L172.717 45.0345L172.787 45.125C173.245 45.7135 173.827 46.1756 174.526 46.5096C175.223 46.8436 175.959 47.011 176.728 47.011C177.303 47.011 177.836 46.917 178.321 46.7249C178.806 46.5335 179.243 46.2457 179.629 45.8639C180.015 45.4838 180.307 45.0584 180.501 44.5894C180.696 44.1222 180.793 43.6114 180.793 43.0639C180.793 42.2832 180.564 41.5717 180.109 40.9473L180.109 40.9456C179.874 40.6329 179.541 40.322 179.112 40.006C178.682 39.6908 178.155 39.3722 177.529 39.0493C177.023 38.7888 176.606 38.5454 176.278 38.3233C175.95 38.0995 175.712 37.8936 175.567 37.7151L175.565 37.7143C175.415 37.5332 175.303 37.3504 175.229 37.1659C175.156 36.9805 175.12 36.7935 175.12 36.6004C175.12 36.3818 175.165 36.1793 175.253 35.9897C175.341 35.7992 175.474 35.6207 175.655 35.4524ZM195.269 42.7137C194.841 43.4765 194.233 44.0786 193.436 44.5271C192.637 44.9755 191.799 45.1985 190.909 45.1993C190.029 45.1993 189.209 44.9747 188.438 44.522C187.67 44.071 187.06 43.4423 186.602 42.63C186.145 41.8168 185.919 40.9703 185.919 40.082C185.919 39.186 186.143 38.3395 186.596 37.5349C187.049 36.7303 187.655 36.1101 188.42 35.6668C189.185 35.2226 190.015 35.0014 190.921 35.0014C191.627 35.0014 192.274 35.1244 192.863 35.3687C193.453 35.613 193.988 35.9786 194.47 36.4706C194.952 36.9609 195.312 37.5093 195.552 38.1183C195.791 38.7264 195.912 39.3961 195.912 40.1298C195.912 41.0925 195.698 41.9501 195.27 42.7137H195.269ZM195.806 33.1043V35.5583C195.202 34.8024 194.512 34.219 193.738 33.8124C192.855 33.3495 191.868 33.118 190.784 33.1188C189.846 33.1188 188.971 33.2871 188.165 33.6262C187.359 33.9653 186.622 34.4735 185.954 35.1475C185.288 35.8214 184.785 36.5671 184.451 37.3828C184.115 38.1969 183.948 39.0809 183.948 40.0299C183.948 40.9977 184.114 41.8963 184.445 42.7222C184.777 43.5482 185.275 44.3007 185.936 44.9772C186.597 45.6529 187.329 46.1628 188.131 46.5028C188.932 46.8427 189.802 47.0119 190.736 47.0119C191.788 47.0119 192.762 46.7932 193.652 46.355C194.44 45.9664 195.158 45.4103 195.805 44.6877V47.0247H197.727V33.1043H195.806ZM211.703 39.6361C211.703 40.4433 211.682 41.1096 211.641 41.6332C211.6 42.1568 211.537 42.5403 211.46 42.7692C211.221 43.473 210.795 44.0342 210.17 44.4673C209.547 44.8978 208.788 45.1148 207.879 45.1156C206.971 45.1156 206.201 44.8927 205.553 44.4494C204.906 44.0052 204.473 43.4098 204.241 42.6436C204.166 42.3814 204.106 41.9953 204.067 41.4939C204.028 40.9908 204.008 40.3716 204.008 39.6361V33.1043H202.062V39.8266C202.063 41.6776 202.27 43.0724 202.701 44.0206C203.128 44.9601 203.781 45.6981 204.65 46.2243C205.523 46.7513 206.604 47.011 207.885 47.011C209.166 47.011 210.244 46.7513 211.11 46.2235C211.971 45.6981 212.619 44.9661 213.046 44.0385C213.477 43.1023 213.684 41.7416 213.684 39.9453V33.1043H211.702V39.6361H211.703ZM222.77 33.118C222.13 33.118 221.514 33.3119 220.931 33.6937C220.441 34.014 219.978 34.4676 219.537 35.0518V33.1043H217.555V47.0238H219.537V42.1593C219.537 41.0387 219.562 40.1068 219.614 39.3662C219.665 38.6248 219.743 38.073 219.841 37.7211C220.107 36.7772 220.49 36.0948 220.98 35.6625C221.228 35.443 221.479 35.2807 221.731 35.1731C221.984 35.0663 222.237 35.0134 222.497 35.0134C222.705 35.0134 222.983 35.0817 223.323 35.2286L223.433 35.2756L224.442 33.6459L224.316 33.5758C223.777 33.2743 223.261 33.118 222.77 33.118ZM97.0169 55.9353C96.9861 55.2161 96.5351 54.7779 95.792 54.7207C95.5477 54.7019 95.1753 54.6771 94.9464 54.649C93.9701 54.555 92.9066 54.4158 91.8876 54.2065C90.9865 54.022 90.0939 53.8153 89.2064 53.5795C89.2064 53.5795 86.2458 52.792 83.7782 51.7089C82.2893 51.0563 80.8595 50.0689 80.6792 49.6581C80.6126 49.5077 80.5784 49.1328 80.6263 48.926C80.7126 48.5502 80.8449 48.1317 81.1243 47.8498C81.1294 47.8455 81.1319 47.8387 81.1319 47.831C81.2772 47.655 81.3626 47.4312 81.3626 47.1861C81.3626 46.6266 80.9099 46.1731 80.3487 46.1731C80.0446 46.1731 79.7721 46.3072 79.5859 46.5199L79.5825 46.5173C78.5848 47.6909 78.1987 49.5223 79.0025 50.8197C79.527 51.4757 80.2035 52.0924 81.079 52.6109C82.0852 53.2063 83.4391 53.7905 84.8937 54.3193C87.0752 55.1546 89.2773 55.7414 91.4793 56.1916C92.7213 56.4461 93.9854 56.6016 95.1018 56.6998L93.3269 58.4739H82.2278C82.1595 58.4739 82.0912 58.4722 82.0228 58.4679C74.9162 58.3569 69.2121 52.4717 69.4085 45.3027C69.5947 38.5086 75.163 32.9916 81.9648 32.8558C82.0527 32.8532 82.1407 32.8532 82.2278 32.8532C84.2983 32.8532 86.2535 33.3443 87.9849 34.2147C88.1609 34.2831 88.3386 34.3138 88.5145 34.3138C89.7189 34.3138 90.8404 32.872 90.8404 31.8359V27.9733C90.8319 27.9503 90.8259 27.9272 90.8259 27.905C90.8259 27.5428 90.585 27.3259 90.2664 27.3259H88.9852L88.9809 27.3173C87.8295 27.3139 86.8318 26.4777 86.5021 25.4629C85.8623 23.4924 87.6159 21.5261 89.8718 21.5261C90.3159 21.5261 90.7789 21.603 91.247 21.7695C94.9882 23.1046 94.8874 28.1946 94.9857 32.5363H94.9882V51.0273C94.9882 51.5868 95.4427 52.0403 96.003 52.0403C96.5633 52.0403 97.0169 51.5868 97.0169 51.0273V32.5363C97.0169 32.4868 97.0143 32.4381 97.0109 32.3885L96.9989 31.8179C96.9554 29.5903 96.9093 27.2857 96.372 25.2144C95.6588 22.4597 94.164 20.6591 91.9295 19.8613C91.2572 19.6221 90.5654 19.5 89.8726 19.5H89.8718C88.0404 19.5 86.327 20.3525 85.2875 21.7806C84.359 23.0568 84.0985 24.6267 84.5725 26.0873C85.167 27.9178 86.8523 29.223 88.7255 29.3357C88.7545 29.3391 88.7827 29.3426 88.8118 29.3443V31.788C88.7759 31.9136 88.6384 32.1049 88.5137 32.2194C86.5405 31.2952 84.4282 30.8263 82.2278 30.8263C82.1271 30.8263 82.0263 30.828 81.9246 30.8297C78.1108 30.9057 74.507 32.4381 71.7771 35.1441C69.0463 37.8501 67.4849 41.4384 67.3807 45.2463C67.2714 49.2464 68.7329 53.038 71.5004 55.9217C74.2593 58.8002 77.9724 60.4231 81.9571 60.4932C82.0468 60.4974 82.1382 60.5 82.2278 60.5H93.3269C93.865 60.5 94.3809 60.2865 94.7619 59.9064L96.4215 58.1434C96.8213 57.7436 97.0314 57.2038 97.0169 56.6562V55.9353Z" fill="#00A0DF"/>
<path fill-rule="evenodd" clip-rule="evenodd" d="M89.7164 23.4031C89.3133 23.6918 89.3133 24.2828 89.7164 24.5716C89.9607 24.7467 90.299 24.7467 90.5433 24.5716C90.9473 24.282 90.9473 23.6918 90.5433 23.4031C90.299 23.228 89.9607 23.228 89.7164 23.4031Z" fill="#00A0DF"/>
</svg>
