<svg width="60" height="60" viewBox="0 0 60 60" fill="none" xmlns="http://www.w3.org/2000/svg">
<g clip-path="url(#clip0_11400_28816)">
<path d="M30 52.4649C34.4501 52.4649 38.8002 51.1453 42.5003 48.6729C46.2004 46.2006 49.0843 42.6866 50.7873 38.5752C52.4903 34.4639 52.9358 29.9399 52.0677 25.5753C51.1995 21.2108 49.0566 17.2016 45.9099 14.055C42.7632 10.9083 38.7541 8.76535 34.3895 7.89719C30.025 7.02902 25.501 7.47459 21.3896 9.17756C17.2783 10.8805 13.7643 13.7644 11.2919 17.4645C8.8196 21.1646 7.5 25.5148 7.5 29.9649" stroke="#29063E" stroke-width="3" stroke-linejoin="round"/>
<path d="M30 43.4648C32.67 43.4648 35.2801 42.6731 37.5002 41.1897C39.7203 39.7063 41.4506 37.5979 42.4724 35.1311C43.4942 32.6643 43.7615 29.9499 43.2406 27.3311C42.7197 24.7124 41.4339 22.3069 39.5459 20.4189C37.6579 18.5309 35.2525 17.2451 32.6337 16.7242C30.015 16.2033 27.3006 16.4707 24.8338 17.4925C22.367 18.5143 20.2586 20.2446 18.7752 22.4647C17.2918 24.6847 16.5 27.2948 16.5 29.9648" stroke="#29063E" stroke-width="3" stroke-linejoin="round"/>
<path d="M20 39.9995L10 49.9995" stroke="#29063E" stroke-width="3" stroke-linejoin="round"/>
<path d="M10 39.9995H20V49.9995" stroke="#29063E" stroke-width="3" stroke-linejoin="round"/>
</g>
<defs>
<clipPath id="clip0_11400_28816">
<rect width="60" height="60" fill="white"/>
</clipPath>
</defs>
</svg>
