<svg width="60" height="60" viewBox="0 0 60 60" fill="none" xmlns="http://www.w3.org/2000/svg">
<path d="M7.5 52.5V30C7.5 29.337 7.76339 28.7011 8.23223 28.2322C8.70107 27.7634 9.33696 27.5 10 27.5H17.5" stroke="#29063E" stroke-width="3" stroke-linejoin="round"/>
<path d="M27.5 20V11.2534C27.5 10.6475 27.6468 10.0506 27.9279 9.51381C28.209 8.97702 28.616 8.51634 29.114 8.1712C29.612 7.82607 30.1863 7.60676 30.7876 7.53204C31.3889 7.45732 31.9994 7.52943 32.5667 7.74218L50.8778 14.6089C51.3543 14.7875 51.7649 15.1074 52.0548 15.5257C52.3447 15.944 52.5 16.4408 52.5 16.9497V52.5" stroke="#29063E" stroke-width="3" stroke-linejoin="round"/>
<path d="M17.5 52.5V22.5C17.5 21.837 17.7634 21.2011 18.2322 20.7322C18.7011 20.2634 19.337 20 20 20H37.5C38.163 20 38.7989 20.2634 39.2678 20.7322C39.7366 21.2011 40 21.837 40 22.5V52.5" stroke="#29063E" stroke-width="3" stroke-linejoin="round"/>
<path d="M55 52.5H5" stroke="#29063E" stroke-width="3" stroke-linejoin="round"/>
<path d="M25 43.75H32.5" stroke="#29063E" stroke-width="3" stroke-linejoin="round"/>
<path d="M25 36.25H32.5" stroke="#29063E" stroke-width="3" stroke-linejoin="round"/>
<path d="M25 28.75H32.5" stroke="#29063E" stroke-width="3" stroke-linejoin="round"/>
</svg>
