<svg width="574" height="514" viewBox="0 0 574 514" fill="none" xmlns="http://www.w3.org/2000/svg">
<rect y="114" width="156" height="144" rx="12" fill="white"/>
<g filter="url(#filter0_d_9827_139208)">
<path fill-rule="evenodd" clip-rule="evenodd" d="M93.1201 169.08C93.1201 169.072 93.1202 169.065 93.1202 169.057C93.1202 160.52 86.1999 153.6 77.6634 153.6C69.1269 153.6 62.2066 160.52 62.2066 169.057C62.2066 169.064 62.2066 169.072 62.2067 169.079C56.7123 169.439 52.3672 174.01 52.3672 179.595C52.3672 185.416 57.0855 190.134 62.9059 190.134H92.4142C98.2346 190.134 102.953 185.416 102.953 179.595C102.953 174.012 98.6114 169.443 93.1201 169.08Z" fill="url(#paint0_radial_9827_139208)"/>
</g>
<path d="M26.3973 228.916C26.4506 229.578 26.7173 230.111 27.1973 230.516C27.6879 230.911 28.3226 231.108 29.1013 231.108C29.7839 231.108 30.3333 230.964 30.7493 230.676C31.1759 230.378 31.3893 229.967 31.3893 229.444C31.3893 229.071 31.2719 228.778 31.0373 228.564C30.8133 228.34 30.5039 228.17 30.1093 228.052C29.7146 227.935 29.1599 227.812 28.4453 227.684C27.7199 227.556 27.0959 227.391 26.5733 227.188C26.0613 226.975 25.6399 226.655 25.3093 226.228C24.9893 225.802 24.8293 225.242 24.8293 224.548C24.8293 223.908 24.9946 223.338 25.3253 222.836C25.6666 222.335 26.1359 221.946 26.7333 221.668C27.3413 221.391 28.0346 221.252 28.8133 221.252C29.6133 221.252 30.3279 221.402 30.9573 221.7C31.5866 221.999 32.0826 222.41 32.4453 222.932C32.8079 223.455 33.0053 224.052 33.0373 224.724H31.2293C31.1653 224.148 30.9146 223.684 30.4773 223.332C30.0399 222.98 29.4853 222.804 28.8133 222.804C28.1626 222.804 27.6399 222.948 27.2453 223.236C26.8613 223.514 26.6693 223.908 26.6693 224.42C26.6693 224.783 26.7813 225.071 27.0053 225.284C27.2399 225.498 27.5493 225.658 27.9333 225.764C28.3173 225.871 28.8666 225.988 29.5813 226.116C30.3066 226.244 30.9306 226.415 31.4533 226.628C31.9759 226.842 32.4026 227.156 32.7333 227.572C33.0639 227.988 33.2293 228.538 33.2293 229.22C33.2293 229.882 33.0533 230.474 32.7013 230.996C32.3493 231.519 31.8586 231.93 31.2293 232.228C30.5999 232.516 29.8853 232.66 29.0853 232.66C28.1999 232.66 27.4213 232.5 26.7493 232.18C26.0773 231.86 25.5493 231.418 25.1653 230.852C24.7919 230.276 24.5999 229.62 24.5893 228.884L26.3973 228.916ZM36.337 221.092C36.6357 221.092 36.8863 221.194 37.089 221.396C37.2917 221.588 37.393 221.834 37.393 222.132C37.393 222.431 37.2917 222.682 37.089 222.884C36.8863 223.076 36.6357 223.172 36.337 223.172C36.0383 223.172 35.7877 223.076 35.585 222.884C35.3823 222.682 35.281 222.431 35.281 222.132C35.281 221.834 35.3823 221.588 35.585 221.396C35.7877 221.194 36.0383 221.092 36.337 221.092ZM35.473 224.372H37.201V232.564H35.473V224.372ZM39.6949 224.372H41.1989L41.3909 225.444C42.0095 224.666 42.8842 224.276 44.0149 224.276C44.4949 224.276 44.9375 224.351 45.3429 224.5C45.7482 224.639 46.0949 224.863 46.3829 225.172C46.6815 225.482 46.9109 225.876 47.0709 226.356C47.2309 226.826 47.3109 227.391 47.3109 228.052V232.564H45.5669V228.148C45.5669 227.37 45.4015 226.778 45.0709 226.372C44.7402 225.967 44.2549 225.764 43.6149 225.764C42.9322 225.764 42.3935 226.004 41.9989 226.484C41.6149 226.954 41.4229 227.604 41.4229 228.436V232.564H39.6949V224.372ZM57.6344 224.372V232.228C57.6344 233.38 57.293 234.271 56.6104 234.9C55.9277 235.54 54.8717 235.86 53.4424 235.86C52.333 235.86 51.4317 235.61 50.7384 235.108C50.045 234.618 49.661 233.919 49.5864 233.012H51.3464C51.453 233.471 51.6984 233.823 52.0824 234.068C52.4664 234.324 52.9624 234.452 53.5704 234.452C55.1384 234.452 55.9224 233.69 55.9224 232.164V231.252C55.325 232.148 54.4344 232.596 53.2504 232.596C52.5037 232.596 51.837 232.431 51.2504 232.1C50.6637 231.759 50.205 231.279 49.8744 230.66C49.5437 230.031 49.3784 229.29 49.3784 228.436C49.3784 227.615 49.5437 226.89 49.8744 226.26C50.2157 225.631 50.6797 225.146 51.2664 224.804C51.853 224.452 52.5144 224.276 53.2504 224.276C53.869 224.276 54.4024 224.399 54.8504 224.644C55.2984 224.89 55.661 225.226 55.9384 225.652L56.1304 224.372H57.6344ZM53.5384 231.14C54.253 231.14 54.829 230.895 55.2664 230.404C55.7037 229.903 55.9224 229.258 55.9224 228.468C55.9224 227.658 55.7037 227.002 55.2664 226.5C54.829 225.988 54.253 225.732 53.5384 225.732C52.8237 225.732 52.2477 225.983 51.8104 226.484C51.373 226.986 51.1544 227.636 51.1544 228.436C51.1544 229.236 51.373 229.887 51.8104 230.388C52.2477 230.89 52.8237 231.14 53.5384 231.14ZM60.123 221.364H61.851V232.564H60.123V221.364ZM64.0409 228.484C64.0409 227.642 64.2062 226.906 64.5369 226.276C64.8782 225.636 65.3475 225.146 65.9449 224.804C66.5529 224.452 67.2462 224.276 68.0249 224.276C68.8142 224.276 69.5075 224.436 70.1049 224.756C70.7129 225.076 71.1875 225.53 71.5289 226.116C71.8809 226.703 72.0622 227.391 72.0729 228.18C72.0729 228.394 72.0569 228.612 72.0249 228.836H65.8489V228.932C65.8915 229.647 66.1155 230.212 66.5209 230.628C66.9262 231.044 67.4649 231.252 68.1369 231.252C68.6702 231.252 69.1182 231.13 69.4809 230.884C69.8435 230.628 70.0835 230.271 70.2009 229.812H71.9289C71.7795 230.644 71.3742 231.327 70.7129 231.86C70.0622 232.394 69.2462 232.66 68.2649 232.66C67.4115 232.66 66.6649 232.49 66.0249 232.148C65.3955 231.796 64.9049 231.306 64.5529 230.676C64.2115 230.047 64.0409 229.316 64.0409 228.484ZM70.3129 227.572C70.2382 226.975 69.9982 226.511 69.5929 226.18C69.1982 225.839 68.6969 225.668 68.0889 225.668C67.5235 225.668 67.0329 225.844 66.6169 226.196C66.2115 226.538 65.9769 226.996 65.9129 227.572H70.3129ZM78.6996 221.364H87.4516V222.996H83.9956V232.564H82.1556V222.996H78.6996V221.364ZM87.7221 228.484C87.7221 227.642 87.8875 226.906 88.2181 226.276C88.5595 225.636 89.0288 225.146 89.6261 224.804C90.2341 224.452 90.9275 224.276 91.7061 224.276C92.4955 224.276 93.1888 224.436 93.7861 224.756C94.3941 225.076 94.8688 225.53 95.2101 226.116C95.5621 226.703 95.7435 227.391 95.7541 228.18C95.7541 228.394 95.7381 228.612 95.7061 228.836H89.5301V228.932C89.5728 229.647 89.7968 230.212 90.2021 230.628C90.6075 231.044 91.1461 231.252 91.8181 231.252C92.3515 231.252 92.7995 231.13 93.1621 230.884C93.5248 230.628 93.7648 230.271 93.8821 229.812H95.6101C95.4608 230.644 95.0555 231.327 94.3941 231.86C93.7435 232.394 92.9275 232.66 91.9461 232.66C91.0928 232.66 90.3461 232.49 89.7061 232.148C89.0768 231.796 88.5861 231.306 88.2341 230.676C87.8928 230.047 87.7221 229.316 87.7221 228.484ZM93.9941 227.572C93.9195 226.975 93.6795 226.511 93.2741 226.18C92.8795 225.839 92.3781 225.668 91.7701 225.668C91.2048 225.668 90.7141 225.844 90.2981 226.196C89.8928 226.538 89.6581 226.996 89.5941 227.572H93.9941ZM97.9511 224.372H99.4551L99.6471 225.444C100.266 224.666 101.14 224.276 102.271 224.276C102.751 224.276 103.194 224.351 103.599 224.5C104.004 224.639 104.351 224.863 104.639 225.172C104.938 225.482 105.167 225.876 105.327 226.356C105.487 226.826 105.567 227.391 105.567 228.052V232.564H103.823V228.148C103.823 227.37 103.658 226.778 103.327 226.372C102.996 225.967 102.511 225.764 101.871 225.764C101.188 225.764 100.65 226.004 100.255 226.484C99.8711 226.954 99.6791 227.604 99.6791 228.436V232.564H97.9511V224.372ZM107.619 230.26C107.619 229.418 107.912 228.772 108.499 228.324C109.096 227.866 109.971 227.636 111.123 227.636H113.187V227.14C113.187 226.682 113.027 226.324 112.707 226.068C112.397 225.802 111.955 225.668 111.379 225.668C110.867 225.668 110.451 225.78 110.131 226.004C109.811 226.218 109.619 226.506 109.555 226.868H107.859C107.944 226.036 108.307 225.396 108.947 224.948C109.587 224.5 110.424 224.276 111.459 224.276C112.557 224.276 113.405 224.532 114.003 225.044C114.6 225.546 114.899 226.282 114.899 227.252V230.484C114.899 230.868 115.08 231.06 115.443 231.06H115.779V232.564H114.867C114.323 232.564 113.933 232.452 113.699 232.228C113.475 232.004 113.363 231.679 113.363 231.252C112.744 232.191 111.843 232.66 110.659 232.66C109.731 232.66 108.989 232.447 108.435 232.02C107.891 231.594 107.619 231.007 107.619 230.26ZM110.899 231.316C111.613 231.316 112.168 231.124 112.563 230.74C112.968 230.356 113.176 229.844 113.187 229.204V228.916H111.043C110.499 228.916 110.083 229.023 109.795 229.236C109.517 229.439 109.379 229.743 109.379 230.148C109.379 230.5 109.512 230.783 109.779 230.996C110.045 231.21 110.419 231.316 110.899 231.316ZM117.52 224.372H119.024L119.216 225.444C119.835 224.666 120.709 224.276 121.84 224.276C122.32 224.276 122.763 224.351 123.168 224.5C123.573 224.639 123.92 224.863 124.208 225.172C124.507 225.482 124.736 225.876 124.896 226.356C125.056 226.826 125.136 227.391 125.136 228.052V232.564H123.392V228.148C123.392 227.37 123.227 226.778 122.896 226.372C122.565 225.967 122.08 225.764 121.44 225.764C120.757 225.764 120.219 226.004 119.824 226.484C119.44 226.954 119.248 227.604 119.248 228.436V232.564H117.52V224.372ZM126.611 225.892V224.372H128.035V222.084H129.779V224.372H131.747V225.892H129.779V230.164C129.779 230.484 129.843 230.714 129.971 230.852C130.099 230.98 130.318 231.044 130.627 231.044H131.939V232.564H130.275C129.497 232.564 128.926 232.388 128.563 232.036C128.211 231.674 128.035 231.108 128.035 230.34V225.892H126.611Z" fill="#29063E"/>
<rect x="418" y="114" width="156" height="144" rx="12" fill="white"/>
<g filter="url(#filter1_d_9827_139208)">
<g opacity="0.2" filter="url(#filter2_f_9827_139208)">
<ellipse cx="496.109" cy="194.861" rx="19.1876" ry="5.74323" fill="#29063E"/>
</g>
<path fill-rule="evenodd" clip-rule="evenodd" d="M512.152 182.147V182.147V192.17C512.152 192.17 512.152 192.17 512.152 192.17C512.152 196.132 504.596 199.344 495.275 199.344C485.955 199.344 478.398 196.132 478.398 192.17C478.398 192.17 478.398 192.17 478.398 192.17V182.147V182.147C478.398 178.185 485.955 174.973 495.275 174.973C504.596 174.973 512.152 178.185 512.152 182.147Z" fill="url(#paint1_radial_9827_139208)"/>
<path fill-rule="evenodd" clip-rule="evenodd" d="M509.031 183.153C509.571 182.611 509.62 182.273 509.62 182.147C509.62 182.02 509.571 181.682 509.031 181.14C508.482 180.588 507.559 179.974 506.219 179.404C503.547 178.268 499.679 177.504 495.275 177.504C490.871 177.504 487.003 178.268 484.331 179.404C482.991 179.974 482.068 180.588 481.519 181.14C480.979 181.682 480.93 182.02 480.93 182.147C480.93 182.273 480.979 182.611 481.519 183.153C482.068 183.705 482.991 184.319 484.331 184.889C487.003 186.025 490.871 186.789 495.275 186.789C499.679 186.789 503.547 186.025 506.219 184.889C507.559 184.319 508.482 183.705 509.031 183.153Z" fill="url(#paint2_radial_9827_139208)"/>
<path fill-rule="evenodd" clip-rule="evenodd" d="M512.152 166.131V166.131V176.154C512.152 176.154 512.152 176.154 512.152 176.154C512.152 180.116 504.596 183.328 495.275 183.328C485.955 183.328 478.398 180.116 478.398 176.154C478.398 176.154 478.398 176.154 478.398 176.154V166.131V166.131C478.398 162.169 485.955 158.957 495.275 158.957C504.596 158.957 512.152 162.169 512.152 166.131Z" fill="url(#paint3_radial_9827_139208)"/>
<path fill-rule="evenodd" clip-rule="evenodd" d="M509.031 167.137C509.571 166.595 509.62 166.258 509.62 166.131C509.62 166.004 509.571 165.667 509.031 165.125C508.482 164.572 507.559 163.958 506.219 163.388C503.547 162.252 499.679 161.489 495.275 161.489C490.871 161.489 487.003 162.252 484.331 163.388C482.991 163.958 482.068 164.572 481.519 165.125C480.979 165.667 480.93 166.004 480.93 166.131C480.93 166.258 480.979 166.595 481.519 167.137C482.068 167.69 482.991 168.304 484.331 168.873C487.003 170.009 490.871 170.773 495.275 170.773C499.679 170.773 503.547 170.009 506.219 168.873C507.559 168.304 508.482 167.69 509.031 167.137Z" fill="url(#paint4_radial_9827_139208)"/>
<path fill-rule="evenodd" clip-rule="evenodd" d="M512.152 150.117V150.117V160.14C512.152 160.14 512.152 160.14 512.152 160.14C512.152 164.102 504.596 167.314 495.275 167.314C485.955 167.314 478.399 164.102 478.398 160.14C478.398 160.14 478.398 160.14 478.398 160.14V150.117V150.117C478.398 146.154 485.955 142.942 495.275 142.942C504.596 142.942 512.152 146.154 512.152 150.117Z" fill="url(#paint5_radial_9827_139208)"/>
<path fill-rule="evenodd" clip-rule="evenodd" d="M509.031 151.123C509.571 150.581 509.62 150.243 509.62 150.117C509.62 149.99 509.571 149.653 509.031 149.11C508.482 148.558 507.559 147.944 506.219 147.374C503.547 146.238 499.679 145.475 495.275 145.475C490.871 145.475 487.003 146.238 484.331 147.374C482.991 147.944 482.068 148.558 481.519 149.11C480.979 149.653 480.93 149.99 480.93 150.117C480.93 150.243 480.979 150.581 481.519 151.123C482.068 151.676 482.991 152.289 484.331 152.859C487.003 153.995 490.871 154.759 495.275 154.759C499.679 154.759 503.547 153.995 506.219 152.859C507.559 152.289 508.482 151.676 509.031 151.123Z" fill="url(#paint6_radial_9827_139208)"/>
</g>
<path d="M471.916 226.97C471.916 228.058 471.686 229.034 471.228 229.898C470.769 230.762 470.124 231.439 469.292 231.93C468.47 232.42 467.532 232.666 466.476 232.666C465.42 232.666 464.476 232.42 463.644 231.93C462.822 231.439 462.182 230.762 461.724 229.898C461.265 229.034 461.036 228.058 461.036 226.97C461.036 225.882 461.265 224.906 461.724 224.042C462.182 223.178 462.822 222.5 463.644 222.01C464.476 221.519 465.42 221.274 466.476 221.274C467.532 221.274 468.47 221.519 469.292 222.01C470.124 222.5 470.769 223.178 471.228 224.042C471.686 224.906 471.916 225.882 471.916 226.97ZM462.924 226.97C462.924 227.748 463.073 228.452 463.372 229.082C463.67 229.7 464.086 230.186 464.62 230.538C465.164 230.879 465.782 231.05 466.476 231.05C467.169 231.05 467.782 230.879 468.316 230.538C468.86 230.186 469.281 229.7 469.58 229.082C469.878 228.452 470.028 227.748 470.028 226.97C470.028 226.191 469.878 225.492 469.58 224.874C469.281 224.244 468.86 223.759 468.316 223.418C467.782 223.066 467.169 222.89 466.476 222.89C465.782 222.89 465.164 223.066 464.62 223.418C464.086 223.759 463.67 224.244 463.372 224.874C463.073 225.492 462.924 226.191 462.924 226.97ZM474.154 224.378H475.658L475.85 225.45C476.469 224.671 477.344 224.282 478.474 224.282C478.954 224.282 479.397 224.356 479.802 224.506C480.208 224.644 480.554 224.868 480.842 225.178C481.141 225.487 481.37 225.882 481.53 226.362C481.69 226.831 481.77 227.396 481.77 228.058V232.57H480.026V228.154C480.026 227.375 479.861 226.783 479.53 226.378C479.2 225.972 478.714 225.77 478.074 225.77C477.392 225.77 476.853 226.01 476.458 226.49C476.074 226.959 475.882 227.61 475.882 228.442V232.57H474.154V224.378ZM484.046 228.73V227.322H489.486V228.73H484.046ZM492.055 221.37H496.471C497.047 221.37 497.575 221.455 498.055 221.626C498.535 221.796 498.941 222.036 499.271 222.346C499.613 222.655 499.874 223.028 500.055 223.466C500.247 223.903 500.343 224.394 500.343 224.938C500.343 225.482 500.247 225.972 500.055 226.41C499.874 226.847 499.613 227.22 499.271 227.53C498.941 227.839 498.535 228.079 498.055 228.25C497.575 228.42 497.047 228.506 496.471 228.506H493.895V232.57H492.055V221.37ZM496.311 226.906C496.983 226.906 497.511 226.73 497.895 226.378C498.279 226.026 498.471 225.546 498.471 224.938C498.471 224.33 498.279 223.85 497.895 223.498C497.522 223.146 496.999 222.97 496.327 222.97H493.895V226.906H496.311ZM502.382 224.378H503.918L504.11 225.61C504.345 225.226 504.644 224.927 505.006 224.714C505.38 224.49 505.886 224.378 506.526 224.378H506.91V225.994H506.142C505.79 225.994 505.486 226.058 505.23 226.186C504.974 226.303 504.761 226.474 504.59 226.698C504.43 226.911 504.308 227.172 504.222 227.482C504.148 227.78 504.11 228.106 504.11 228.458V232.57H502.382V224.378ZM508.113 228.49C508.113 227.647 508.278 226.911 508.609 226.282C508.95 225.642 509.419 225.151 510.017 224.81C510.625 224.458 511.318 224.282 512.097 224.282C512.886 224.282 513.579 224.442 514.177 224.762C514.785 225.082 515.259 225.535 515.601 226.122C515.953 226.708 516.134 227.396 516.145 228.186C516.145 228.399 516.129 228.618 516.097 228.842H509.921V228.938C509.963 229.652 510.187 230.218 510.593 230.634C510.998 231.05 511.537 231.258 512.209 231.258C512.742 231.258 513.19 231.135 513.553 230.89C513.915 230.634 514.155 230.276 514.273 229.818H516.001C515.851 230.65 515.446 231.332 514.785 231.866C514.134 232.399 513.318 232.666 512.337 232.666C511.483 232.666 510.737 232.495 510.097 232.154C509.467 231.802 508.977 231.311 508.625 230.682C508.283 230.052 508.113 229.322 508.113 228.49ZM514.385 227.578C514.31 226.98 514.07 226.516 513.665 226.186C513.27 225.844 512.769 225.674 512.161 225.674C511.595 225.674 511.105 225.85 510.689 226.202C510.283 226.543 510.049 227.002 509.985 227.578H514.385ZM518.342 232.57V224.378H519.846L520.038 225.45C520.624 224.692 521.424 224.303 522.438 224.282C523.014 224.282 523.52 224.404 523.958 224.65C524.395 224.884 524.731 225.258 524.966 225.77C525.254 225.29 525.627 224.922 526.086 224.666C526.555 224.41 527.126 224.282 527.798 224.282C528.246 224.282 528.656 224.356 529.03 224.506C529.403 224.644 529.723 224.863 529.99 225.162C530.256 225.45 530.464 225.828 530.614 226.298C530.763 226.756 530.838 227.306 530.838 227.946V232.57H529.11V227.962C529.11 227.247 528.966 226.703 528.678 226.33C528.4 225.956 527.974 225.77 527.398 225.77C526.79 225.77 526.315 225.983 525.974 226.41C525.632 226.826 525.462 227.402 525.462 228.138V232.57H523.718V227.962C523.718 226.5 523.142 225.77 521.99 225.77C521.403 225.77 520.934 225.988 520.582 226.426C520.24 226.863 520.07 227.45 520.07 228.186V232.57H518.342Z" fill="#29063E"/>
<rect x="209" y="40" width="156" height="144" rx="12" fill="white"/>
<g filter="url(#filter3_d_9827_139208)">
<path fill-rule="evenodd" clip-rule="evenodd" d="M302.12 95.0799C302.12 95.0722 302.12 95.0645 302.12 95.0569C302.12 86.5203 295.2 79.6001 286.663 79.6001C278.127 79.6001 271.207 86.5203 271.207 95.0569C271.207 95.0644 271.207 95.0719 271.207 95.0795C265.712 95.4394 261.367 100.01 261.367 105.595C261.367 111.416 266.086 116.134 271.906 116.134H301.414C307.235 116.134 311.953 111.416 311.953 105.595C311.953 100.012 307.611 95.4431 302.12 95.0799Z" fill="url(#paint7_radial_9827_139208)"/>
</g>
<path d="M239.163 158.564V147.364H241.547L245.131 156.18L248.651 147.364H250.987V158.564H249.211V150.324L245.851 158.564H244.299L240.939 150.324V158.564H239.163ZM253.534 154.884V150.372H255.262V154.708C255.262 155.508 255.417 156.116 255.726 156.532C256.046 156.948 256.526 157.156 257.166 157.156C257.838 157.156 258.355 156.916 258.718 156.436C259.091 155.946 259.278 155.279 259.278 154.436V150.372H261.006V158.564H259.486L259.294 157.524C258.665 158.282 257.822 158.66 256.766 158.66C256.286 158.66 255.849 158.591 255.454 158.452C255.059 158.303 254.718 158.074 254.43 157.764C254.142 157.455 253.918 157.066 253.758 156.596C253.609 156.116 253.534 155.546 253.534 154.884ZM263.509 147.364H265.237V158.564H263.509V147.364ZM266.835 151.892V150.372H268.259V148.084H270.003V150.372H271.971V151.892H270.003V156.164C270.003 156.484 270.067 156.714 270.195 156.852C270.323 156.98 270.541 157.044 270.851 157.044H272.163V158.564H270.499C269.72 158.564 269.149 158.388 268.787 158.036C268.435 157.674 268.259 157.108 268.259 156.34V151.892H266.835ZM274.754 147.092C275.053 147.092 275.304 147.194 275.506 147.396C275.709 147.588 275.81 147.834 275.81 148.132C275.81 148.431 275.709 148.682 275.506 148.884C275.304 149.076 275.053 149.172 274.754 149.172C274.456 149.172 274.205 149.076 274.002 148.884C273.8 148.682 273.698 148.431 273.698 148.132C273.698 147.834 273.8 147.588 274.002 147.396C274.205 147.194 274.456 147.092 274.754 147.092ZM273.89 150.372H275.618V158.564H273.89V150.372ZM282.542 147.364H291.294V148.996H287.838V158.564H285.998V148.996H282.542V147.364ZM291.564 154.484C291.564 153.642 291.73 152.906 292.06 152.276C292.402 151.636 292.871 151.146 293.468 150.804C294.076 150.452 294.77 150.276 295.548 150.276C296.338 150.276 297.031 150.436 297.628 150.756C298.236 151.076 298.711 151.53 299.052 152.116C299.404 152.703 299.586 153.391 299.596 154.18C299.596 154.394 299.58 154.612 299.548 154.836H293.372V154.932C293.415 155.647 293.639 156.212 294.044 156.628C294.45 157.044 294.988 157.252 295.66 157.252C296.194 157.252 296.642 157.13 297.004 156.884C297.367 156.628 297.607 156.271 297.724 155.812H299.452C299.303 156.644 298.898 157.327 298.236 157.86C297.586 158.394 296.77 158.66 295.788 158.66C294.935 158.66 294.188 158.49 293.548 158.148C292.919 157.796 292.428 157.306 292.076 156.676C291.735 156.047 291.564 155.316 291.564 154.484ZM297.836 153.572C297.762 152.975 297.522 152.511 297.116 152.18C296.722 151.839 296.22 151.668 295.612 151.668C295.047 151.668 294.556 151.844 294.14 152.196C293.735 152.538 293.5 152.996 293.436 153.572H297.836ZM301.793 150.372H303.297L303.489 151.444C304.108 150.666 304.983 150.276 306.113 150.276C306.593 150.276 307.036 150.351 307.441 150.5C307.847 150.639 308.193 150.863 308.481 151.172C308.78 151.482 309.009 151.876 309.169 152.356C309.329 152.826 309.409 153.391 309.409 154.052V158.564H307.665V154.148C307.665 153.37 307.5 152.778 307.169 152.372C306.839 151.967 306.353 151.764 305.713 151.764C305.031 151.764 304.492 152.004 304.097 152.484C303.713 152.954 303.521 153.604 303.521 154.436V158.564H301.793V150.372ZM311.461 156.26C311.461 155.418 311.754 154.772 312.341 154.324C312.938 153.866 313.813 153.636 314.965 153.636H317.029V153.14C317.029 152.682 316.869 152.324 316.549 152.068C316.239 151.802 315.797 151.668 315.221 151.668C314.709 151.668 314.293 151.78 313.973 152.004C313.653 152.218 313.461 152.506 313.397 152.868H311.701C311.786 152.036 312.149 151.396 312.789 150.948C313.429 150.5 314.266 150.276 315.301 150.276C316.399 150.276 317.247 150.532 317.845 151.044C318.442 151.546 318.741 152.282 318.741 153.252V156.484C318.741 156.868 318.922 157.06 319.285 157.06H319.621V158.564H318.709C318.165 158.564 317.775 158.452 317.541 158.228C317.317 158.004 317.205 157.679 317.205 157.252C316.586 158.191 315.685 158.66 314.501 158.66C313.573 158.66 312.831 158.447 312.277 158.02C311.733 157.594 311.461 157.007 311.461 156.26ZM314.741 157.316C315.455 157.316 316.01 157.124 316.405 156.74C316.81 156.356 317.018 155.844 317.029 155.204V154.916H314.885C314.341 154.916 313.925 155.023 313.637 155.236C313.359 155.439 313.221 155.743 313.221 156.148C313.221 156.5 313.354 156.783 313.621 156.996C313.887 157.21 314.261 157.316 314.741 157.316ZM321.362 150.372H322.866L323.058 151.444C323.677 150.666 324.551 150.276 325.682 150.276C326.162 150.276 326.605 150.351 327.01 150.5C327.415 150.639 327.762 150.863 328.05 151.172C328.349 151.482 328.578 151.876 328.738 152.356C328.898 152.826 328.978 153.391 328.978 154.052V158.564H327.234V154.148C327.234 153.37 327.069 152.778 326.738 152.372C326.407 151.967 325.922 151.764 325.282 151.764C324.599 151.764 324.061 152.004 323.666 152.484C323.282 152.954 323.09 153.604 323.09 154.436V158.564H321.362V150.372ZM330.454 151.892V150.372H331.878V148.084H333.622V150.372H335.59V151.892H333.622V156.164C333.622 156.484 333.686 156.714 333.814 156.852C333.942 156.98 334.16 157.044 334.47 157.044H335.782V158.564H334.118C333.339 158.564 332.768 158.388 332.406 158.036C332.054 157.674 331.878 157.108 331.878 156.34V151.892H330.454Z" fill="#29063E"/>
<g filter="url(#filter4_d_9827_139208)">
<rect x="263" y="8" width="48" height="48" rx="8.34783" fill="white"/>
<g clip-path="url(#clip0_9827_139208)">
<path d="M300.958 29.5212C300.904 28.3903 300.226 27.7317 299.221 27.3552C298.783 27.1908 298.328 27.0749 297.888 26.9136C297.422 26.7425 296.954 26.5677 296.508 26.3506C296.178 26.1894 296.006 25.8852 295.998 25.505C295.984 24.9015 296.298 24.4679 296.962 24.3655C297.509 24.2803 298.082 24.2662 298.631 24.3275C299.097 24.3796 299.547 24.5814 300.002 24.7243C300.191 24.7844 300.364 24.8365 300.441 24.5771C300.623 23.9602 300.413 23.5125 299.823 23.2709C299.71 23.2249 299.594 23.1844 299.476 23.1513C298.271 22.817 297.064 22.7005 295.891 23.2494C294.916 23.7063 294.287 24.4465 294.303 25.5767C294.318 26.6763 294.898 27.4312 295.878 27.8826C296.209 28.0353 296.566 28.1334 296.912 28.253C297.469 28.4468 298.039 28.6087 298.58 28.838C299.138 29.0741 299.353 29.5052 299.249 30.0694C299.136 30.6766 298.683 30.9384 298.139 31.0666C297.422 31.2358 296.697 31.1978 295.987 31.031C295.534 30.9249 295.099 30.7409 294.654 30.6005C294.479 30.5447 294.288 30.4791 294.208 30.7459C294.021 31.3751 294.239 31.8522 294.854 32.092C295.63 32.3943 296.437 32.5507 297.299 32.5464C298.007 32.5648 298.718 32.4427 299.377 32.1146C300.442 31.5842 301.017 30.7324 300.958 29.5212ZM280.406 31.2089C280.178 30.76 280.002 30.2994 280 29.7849C279.994 28.7472 279.985 27.709 279.967 26.6708C279.96 26.2439 279.955 25.814 279.899 25.3921C279.731 24.1331 279.037 23.3573 277.809 23.0593C276.51 22.7447 275.238 22.8863 273.998 23.3518C273.165 23.664 273.139 23.7136 273.17 24.5943C273.171 24.6145 273.171 24.6347 273.172 24.655C273.178 24.8923 273.281 24.9996 273.524 24.9144C273.687 24.8574 273.849 24.7973 274.011 24.7378C274.91 24.406 275.826 24.1944 276.794 24.3428C277.442 24.4416 277.997 24.6967 278.146 25.3903C278.269 25.9594 278.289 26.5493 278.353 27.1074C278.25 27.1466 278.23 27.162 278.212 27.1595C278.142 27.1497 278.072 27.1356 278.002 27.1215C277.131 26.9455 276.258 26.8296 275.362 26.9142C273.581 27.0835 272.472 28.3339 272.568 30.0903C272.631 31.2432 273.394 32.1729 274.523 32.4127C275.909 32.7064 277.129 32.3704 278.143 31.3646C278.226 31.2831 278.269 31.1629 278.333 31.0568C278.608 31.4713 278.8 31.7957 279.027 32.0932C279.243 32.3759 279.42 32.3912 279.713 32.206C279.894 32.092 280.073 31.9736 280.248 31.8497C280.536 31.6455 280.567 31.5271 280.406 31.2089ZM278.235 29.55C278.079 30.3742 277.311 30.9893 276.312 31.134C276.252 31.1426 276.19 31.1475 276.13 31.1549C274.848 31.3162 274.108 30.503 274.396 29.2483C274.533 28.6516 275.024 28.2401 275.746 28.1395C276.607 28.0193 277.451 28.1352 278.348 28.3394C278.311 28.765 278.308 29.1643 278.235 29.55ZM293.121 23.1421C292.887 23.1458 292.652 23.1421 292.417 23.1427C291.851 23.1439 291.745 23.223 291.606 23.7584C291.379 24.6341 291.155 25.5111 290.929 26.3874C290.578 27.7452 290.226 29.1029 289.861 30.5171C289.816 30.3902 289.782 30.319 289.765 30.2442C289.598 29.542 289.433 28.8386 289.269 28.1358C288.919 26.6505 288.571 25.1658 288.219 23.6811C288.116 23.2414 287.995 23.1488 287.542 23.1427C287.317 23.1402 287.093 23.1402 286.868 23.1427C286.396 23.1488 286.28 23.2371 286.169 23.6958C285.998 24.4078 285.834 25.1217 285.666 25.8343C285.312 27.338 284.958 28.8411 284.604 30.3448C284.583 30.3429 284.562 30.3411 284.542 30.3393C284.524 30.2841 284.502 30.2295 284.488 30.1737C283.979 28.1732 283.47 26.1728 282.964 24.1711C282.676 23.036 282.716 23.1458 281.652 23.1427C280.917 23.1408 280.882 23.1905 281.099 23.908C281.524 25.3093 281.95 26.71 282.376 28.1113C282.742 29.3176 283.107 30.5251 283.476 31.7301C283.621 32.2011 283.734 32.279 284.22 32.2821C284.434 32.2833 284.648 32.2833 284.863 32.2821C285.374 32.2784 285.477 32.1987 285.597 31.6989C285.885 30.5024 286.169 29.3053 286.456 28.1082C286.684 27.1534 286.914 26.1992 287.163 25.1621C287.213 25.3161 287.242 25.3891 287.261 25.4645C287.464 26.304 287.667 27.1448 287.869 27.985C288.174 29.2507 288.477 30.5165 288.784 31.7816C288.885 32.1944 289.001 32.2833 289.419 32.2876C289.624 32.2894 289.828 32.2876 290.031 32.2876C290.665 32.2876 290.73 32.2404 290.917 31.64C291.728 29.0379 292.54 26.4365 293.35 23.8344C293.383 23.7277 293.411 23.6192 293.431 23.5094C293.473 23.2678 293.377 23.1384 293.121 23.1421Z" fill="#1C2330"/>
<path d="M284.605 30.345C284.96 28.8413 285.314 27.3382 285.667 25.8345C285.835 25.1219 285.999 24.4081 286.17 23.6961C286.281 23.2374 286.397 23.1491 286.869 23.1429C287.094 23.1399 287.318 23.1399 287.543 23.1429C287.996 23.1484 288.117 23.241 288.221 23.6814C288.572 25.1661 288.921 26.6508 289.27 28.1361C289.435 28.8389 289.599 29.5423 289.766 30.2444C289.784 30.3193 289.817 30.3904 289.862 30.5173C290.228 29.1032 290.579 27.7454 290.93 26.3877C291.156 25.5113 291.38 24.6344 291.607 23.7586C291.746 23.2233 291.853 23.1442 292.419 23.1429C292.654 23.1423 292.888 23.146 293.123 23.1429C293.379 23.1392 293.475 23.2686 293.432 23.5103C293.413 23.62 293.385 23.7292 293.352 23.8353C292.542 26.4373 291.731 29.0388 290.919 31.6408C290.732 32.2418 290.667 32.2884 290.034 32.289C289.83 32.289 289.626 32.2909 289.422 32.2884C289.004 32.2841 288.887 32.1958 288.786 31.7825C288.479 30.5173 288.176 29.2516 287.871 27.9858C287.669 27.1457 287.467 26.3049 287.263 25.4647C287.245 25.3893 287.215 25.3169 287.165 25.1624C286.916 26.1994 286.686 27.1542 286.458 28.1091C286.172 29.3055 285.887 30.5032 285.6 31.6997C285.48 32.1995 285.376 32.2798 284.865 32.2829C284.651 32.2841 284.437 32.2841 284.223 32.2829C283.736 32.2798 283.623 32.202 283.479 31.731C283.11 30.5253 282.745 29.3184 282.378 28.1121C281.952 26.7109 281.526 25.3102 281.101 23.9089C280.883 23.1914 280.919 23.1417 281.654 23.1435C282.719 23.1466 282.678 23.0368 282.966 24.172C283.473 26.173 283.982 28.1735 284.491 30.1745C284.505 30.2303 284.526 30.2849 284.545 30.3401C284.564 30.3413 284.584 30.3432 284.605 30.345Z" fill="#1C2330"/>
<path d="M280.406 31.2088C280.178 30.7599 280.002 30.2993 280 29.7848C279.994 28.7472 279.985 27.7089 279.967 26.6707C279.96 26.2438 279.955 25.8139 279.899 25.392C279.731 24.133 279.037 23.3572 277.809 23.0592C276.51 22.7446 275.238 22.8863 273.998 23.3517C273.165 23.6639 273.139 23.7135 273.17 24.5942C273.171 24.6144 273.171 24.6347 273.172 24.6549C273.178 24.8922 273.281 24.9995 273.524 24.9143C273.687 24.8573 273.849 24.7972 274.011 24.7377C274.91 24.4059 275.826 24.1943 276.794 24.3427C277.442 24.4415 277.997 24.6966 278.146 25.3902C278.269 25.9593 278.289 26.5492 278.353 27.1073C278.25 27.1466 278.23 27.1619 278.212 27.1594C278.142 27.1496 278.072 27.1355 278.002 27.1214C277.131 26.9454 276.258 26.8295 275.362 26.9141C273.581 27.0834 272.472 28.3338 272.568 30.0902C272.631 31.2431 273.394 32.1728 274.523 32.4126C275.909 32.7063 277.129 32.3703 278.143 31.3645C278.226 31.283 278.269 31.1628 278.333 31.0567C278.608 31.4712 278.8 31.7957 279.027 32.0931C279.243 32.3758 279.42 32.3911 279.713 32.2059C279.894 32.0919 280.073 31.9735 280.248 31.8496C280.536 31.6454 280.567 31.5271 280.406 31.2088ZM278.235 29.5499C278.079 30.3741 277.311 30.9892 276.312 31.134C276.252 31.1425 276.19 31.1474 276.13 31.1548C274.848 31.3161 274.108 30.5029 274.396 29.2482C274.533 28.6515 275.024 28.24 275.746 28.1394C276.607 28.0192 277.451 28.1351 278.348 28.3393C278.311 28.7649 278.308 29.1642 278.235 29.5499Z" fill="#1C2330"/>
<path d="M297.296 32.5464C296.434 32.5507 295.627 32.3943 294.851 32.092C294.236 31.8522 294.019 31.3751 294.206 30.7459C294.285 30.4791 294.475 30.5447 294.651 30.5999C295.097 30.7403 295.531 30.9243 295.984 31.031C296.694 31.1978 297.419 31.2358 298.136 31.0666C298.679 30.9384 299.133 30.6766 299.245 30.0694C299.35 29.5052 299.135 29.0741 298.577 28.838C298.036 28.6087 297.466 28.4468 296.909 28.253C296.563 28.1328 296.207 28.0346 295.875 27.8826C294.895 27.4312 294.315 26.6763 294.3 25.5767C294.284 24.4465 294.913 23.7063 295.888 23.2494C297.06 22.7005 298.268 22.817 299.473 23.1513C299.591 23.1838 299.706 23.2249 299.819 23.2709C300.409 23.5125 300.62 23.9602 300.437 24.5771C300.361 24.8365 300.188 24.7838 299.998 24.7243C299.543 24.5808 299.093 24.3796 298.627 24.3275C298.078 24.2662 297.505 24.2803 296.958 24.3649C296.294 24.4679 295.98 24.9015 295.994 25.5043C296.002 25.8852 296.174 26.1894 296.504 26.35C296.95 26.5677 297.418 26.7425 297.884 26.913C298.324 27.0737 298.779 27.1902 299.217 27.3545C300.222 27.7311 300.9 28.3897 300.954 29.52C301.013 30.7311 300.438 31.5829 299.373 32.1134C298.715 32.4433 298.004 32.5648 297.296 32.5464Z" fill="#1C2330"/>
<path d="M301.418 34.5931C300.499 34.4122 299.579 34.4287 298.66 34.609C297.974 34.7439 297.321 34.9592 296.744 35.3621C296.647 35.4296 296.596 35.562 296.523 35.6651C296.639 35.6976 296.756 35.765 296.869 35.757C297.64 35.7031 298.41 35.6332 299.142 35.5712C299.466 35.597 299.752 35.6043 300.033 35.6454C300.747 35.7485 300.951 36.0453 300.821 36.7634C300.8 36.8836 300.794 37.0081 300.757 37.1222C300.468 37.9991 300.17 38.873 299.883 39.7506C299.853 39.8444 299.876 39.9566 299.874 40.0603C299.985 40.0364 300.119 40.0437 300.2 39.9824C300.369 39.8542 300.524 39.7003 300.66 39.5378C301.606 38.4075 302.081 37.0835 302.216 35.6344C302.283 34.9193 302.123 34.7317 301.418 34.5931Z" fill="#F98500"/>
<path d="M299.419 36.9955C299.375 36.8907 299.186 36.7993 299.055 36.7913C298.904 36.7815 298.74 36.8557 298.592 36.917C295.25 38.295 291.767 39.0444 288.16 39.2088C286.468 39.286 284.779 39.1867 283.101 38.9647C280.715 38.6489 278.391 38.0724 276.136 37.2237C274.636 36.6589 273.193 35.9763 271.801 35.1858C271.652 35.1018 271.46 34.9798 271.36 35.1987C271.317 35.2907 271.451 35.4648 271.51 35.5998C271.52 35.6249 271.554 35.6402 271.577 35.6605C275.906 39.4608 280.979 41.2969 286.635 41.3815C288.554 41.3484 290.369 41.1405 292.154 40.7008C294.635 40.0894 296.979 39.1585 299.077 37.6713C299.176 37.6008 299.304 37.5352 299.351 37.4359C299.414 37.3028 299.468 37.1151 299.419 36.9955Z" fill="#F98500"/>
</g>
<rect x="263.261" y="8.26087" width="47.4783" height="47.4783" rx="8.08696" stroke="#DFDAE2" stroke-width="0.521739"/>
</g>
<g filter="url(#filter5_d_9827_139208)">
<rect x="349" y="72" width="48" height="48" rx="8.34783" fill="white"/>
<path d="M376.674 91.3436H377.462L379.709 89.0969L379.819 88.143C378.532 87.007 376.977 86.2179 375.3 85.8501C373.623 85.4824 371.88 85.5482 370.236 86.0414C368.591 86.5345 367.1 87.4387 365.902 88.6685C364.705 89.8983 363.84 91.4132 363.391 93.07C363.641 92.9674 363.918 92.9508 364.179 93.0227L368.672 92.2817C368.672 92.2817 368.901 91.9033 369.019 91.9269C369.982 90.8695 371.313 90.2201 372.738 90.1117C374.164 90.0032 375.578 90.4439 376.69 91.3436H376.674Z" fill="#EA4335"/>
<path d="M382.913 93.07C382.396 91.1683 381.336 89.4587 379.862 88.1509L376.709 91.3041C377.366 91.8411 377.893 92.5203 378.249 93.2905C378.605 94.0607 378.782 94.9017 378.766 95.7502V96.3099C379.135 96.3099 379.5 96.3825 379.84 96.5236C380.181 96.6646 380.49 96.8713 380.751 97.1319C381.011 97.3925 381.218 97.7019 381.359 98.0424C381.5 98.3829 381.573 98.7478 381.573 99.1164C381.573 99.4849 381.5 99.8498 381.359 100.19C381.218 100.531 381.011 100.84 380.751 101.101C380.49 101.361 380.181 101.568 379.84 101.709C379.5 101.85 379.135 101.923 378.766 101.923H373.153L372.594 102.49V105.856L373.153 106.416H378.766C380.334 106.428 381.863 105.936 383.129 105.011C384.395 104.087 385.329 102.779 385.794 101.282C386.259 99.7856 386.23 98.1788 385.711 96.6998C385.192 95.2208 384.211 93.9481 382.913 93.07Z" fill="#4285F4"/>
<path d="M367.532 106.384H373.144V101.891H367.532C367.132 101.891 366.737 101.805 366.373 101.639L365.585 101.883L363.322 104.13L363.125 104.918C364.394 105.876 365.942 106.391 367.532 106.384Z" fill="#34A853"/>
<path d="M367.53 91.8082C366.009 91.8172 364.529 92.3011 363.296 93.1921C362.064 94.0832 361.141 95.3369 360.655 96.7782C360.17 98.2195 360.147 99.7764 360.589 101.231C361.032 102.686 361.917 103.967 363.123 104.894L366.379 101.638C365.965 101.452 365.603 101.167 365.323 100.809C365.044 100.452 364.855 100.031 364.773 99.5848C364.692 99.1382 364.72 98.6785 364.855 98.2451C364.99 97.8117 365.229 97.4176 365.55 97.0965C365.871 96.7755 366.265 96.5371 366.698 96.4019C367.132 96.2667 367.591 96.2386 368.038 96.3202C368.485 96.4017 368.905 96.5903 369.263 96.8699C369.62 97.1495 369.905 97.5117 370.092 97.9255L373.347 94.6697C372.664 93.7764 371.783 93.0532 370.774 92.5568C369.765 92.0604 368.654 91.8041 367.53 91.8082Z" fill="#FBBC05"/>
<rect x="349.261" y="72.2609" width="47.4783" height="47.4783" rx="8.08696" stroke="#DFDAE2" stroke-width="0.521739"/>
</g>
<g filter="url(#filter6_d_9827_139208)">
<rect x="177" y="64" width="48" height="48" rx="8.34783" fill="white"/>
<path d="M196.994 76.6468H204.131L196.722 98.5996C196.646 98.8251 196.501 99.0212 196.308 99.16C196.114 99.2989 195.882 99.3736 195.644 99.3737H190.089C189.909 99.3737 189.731 99.3307 189.571 99.2484C189.41 99.1661 189.272 99.0467 189.166 98.9002C189.061 98.7537 188.992 98.5842 188.966 98.4058C188.939 98.2274 188.955 98.0452 189.013 97.8743L195.916 77.4209C195.992 77.1952 196.137 76.9991 196.33 76.8601C196.524 76.7212 196.756 76.6468 196.994 76.6468Z" fill="url(#paint8_linear_9827_139208)"/>
<path d="M207.358 91.3716H196.04C195.935 91.3715 195.832 91.403 195.745 91.4622C195.658 91.5214 195.591 91.6053 195.552 91.7032C195.514 91.8011 195.505 91.9084 195.529 92.011C195.552 92.1136 195.605 92.2069 195.682 92.2786L202.955 99.0667C203.167 99.2642 203.446 99.3741 203.735 99.374H210.144L207.358 91.3716Z" fill="#0078D4"/>
<path d="M196.993 76.647C196.752 76.6461 196.517 76.7221 196.323 76.8641C196.128 77.0061 195.984 77.2065 195.912 77.4361L189.02 97.8558C188.958 98.0274 188.939 98.2112 188.963 98.3918C188.988 98.5724 189.056 98.7444 189.161 98.8934C189.266 99.0423 189.405 99.1637 189.567 99.2473C189.729 99.331 189.909 99.3744 190.091 99.3739H195.789C196.001 99.336 196.2 99.2424 196.364 99.1027C196.528 98.9631 196.652 98.7823 196.724 98.579L198.098 94.5284L203.007 99.1074C203.213 99.2776 203.471 99.3717 203.738 99.3739H210.123L207.323 91.3715L199.159 91.3734L204.156 76.647H196.993Z" fill="url(#paint9_linear_9827_139208)"/>
<path d="M206.109 77.42C206.033 77.1947 205.888 76.9989 205.695 76.8602C205.502 76.7215 205.27 76.6469 205.033 76.647H197.078C197.316 76.647 197.548 76.7216 197.741 76.8602C197.934 76.9989 198.079 77.1947 198.155 77.42L205.058 97.8742C205.116 98.0452 205.132 98.2274 205.105 98.4058C205.079 98.5843 205.01 98.7538 204.905 98.9004C204.799 99.047 204.661 99.1664 204.5 99.2488C204.34 99.3312 204.162 99.3741 203.981 99.3741H211.936C212.116 99.3741 212.294 99.3311 212.455 99.2487C212.615 99.1663 212.754 99.0469 212.859 98.9003C212.964 98.7537 213.033 98.5842 213.06 98.4058C213.086 98.2274 213.07 98.0451 213.013 97.8742L206.109 77.42Z" fill="url(#paint10_linear_9827_139208)"/>
<rect x="177.261" y="64.2609" width="47.4783" height="47.4783" rx="8.08696" stroke="#DFDAE2" stroke-width="0.521739"/>
</g>
<rect x="209" y="370" width="156" height="144" rx="12" fill="white"/>
<g filter="url(#filter7_bd_9827_139208)">
<rect x="263.508" y="399.844" width="32.2298" height="37.87" rx="4.02872" fill="url(#paint11_radial_9827_139208)" fill-opacity="0.6"/>
</g>
<g filter="url(#filter8_bd_9827_139208)">
<rect x="277.609" y="411.124" width="32.2298" height="37.87" rx="4.02872" fill="url(#paint12_radial_9827_139208)" fill-opacity="0.6"/>
<rect x="277.609" y="411.124" width="32.2298" height="37.87" rx="4.02872" fill="url(#paint13_radial_9827_139208)" fill-opacity="0.3"/>
</g>
<path d="M250.553 477.348H252.713L255.657 482.484L258.681 477.348H260.745L256.569 484.42V488.564H254.729V484.42L250.553 477.348ZM265.15 488.66C264.328 488.66 263.598 488.49 262.958 488.148C262.328 487.796 261.838 487.306 261.486 486.676C261.144 486.036 260.974 485.3 260.974 484.468C260.974 483.647 261.144 482.922 261.486 482.292C261.838 481.652 262.328 481.156 262.958 480.804C263.598 480.452 264.328 480.276 265.15 480.276C265.971 480.276 266.696 480.452 267.326 480.804C267.966 481.156 268.456 481.652 268.798 482.292C269.15 482.922 269.326 483.647 269.326 484.468C269.326 485.3 269.15 486.036 268.798 486.676C268.456 487.306 267.966 487.796 267.326 488.148C266.696 488.49 265.971 488.66 265.15 488.66ZM265.15 487.188C265.875 487.188 266.456 486.938 266.894 486.436C267.342 485.924 267.566 485.268 267.566 484.468C267.566 483.668 267.342 483.018 266.894 482.516C266.456 482.004 265.875 481.748 265.15 481.748C264.424 481.748 263.843 482.004 263.406 482.516C262.968 483.018 262.75 483.668 262.75 484.468C262.75 485.268 262.968 485.924 263.406 486.436C263.843 486.938 264.424 487.188 265.15 487.188ZM271.387 484.884V480.372H273.115V484.708C273.115 485.508 273.27 486.116 273.579 486.532C273.899 486.948 274.379 487.156 275.019 487.156C275.691 487.156 276.209 486.916 276.571 486.436C276.945 485.946 277.131 485.279 277.131 484.436V480.372H278.859V488.564H277.339L277.147 487.524C276.518 488.282 275.675 488.66 274.619 488.66C274.139 488.66 273.702 488.591 273.307 488.452C272.913 488.303 272.571 488.074 272.283 487.764C271.995 487.455 271.771 487.066 271.611 486.596C271.462 486.116 271.387 485.546 271.387 484.884ZM281.362 480.372H282.898L283.09 481.604C283.325 481.22 283.623 480.922 283.986 480.708C284.359 480.484 284.866 480.372 285.506 480.372H285.89V481.988H285.122C284.77 481.988 284.466 482.052 284.21 482.18C283.954 482.298 283.741 482.468 283.57 482.692C283.41 482.906 283.287 483.167 283.202 483.476C283.127 483.775 283.09 484.1 283.09 484.452V488.564H281.362V480.372ZM291.961 488.564L296.153 477.364H298.345L302.521 488.564H300.553L299.497 485.796H294.905L293.865 488.564H291.961ZM298.985 484.228L297.193 479.348L295.417 484.228H298.985ZM308.677 480.276C309.424 480.276 310.091 480.447 310.677 480.788C311.264 481.119 311.723 481.604 312.053 482.244C312.384 482.874 312.549 483.615 312.549 484.468C312.549 485.3 312.384 486.036 312.053 486.676C311.723 487.306 311.264 487.796 310.677 488.148C310.091 488.49 309.424 488.66 308.677 488.66C308.069 488.66 307.541 488.548 307.093 488.324C306.645 488.1 306.288 487.796 306.021 487.412V491.764H304.293V480.372H305.797L306.005 481.588C306.667 480.714 307.557 480.276 308.677 480.276ZM308.389 487.204C309.104 487.204 309.68 486.948 310.117 486.436C310.565 485.924 310.789 485.268 310.789 484.468C310.789 483.658 310.565 483.002 310.117 482.5C309.68 481.999 309.104 481.748 308.389 481.748C307.675 481.748 307.099 481.999 306.661 482.5C306.224 482.991 306.005 483.636 306.005 484.436C306.005 485.258 306.224 485.924 306.661 486.436C307.099 486.948 307.675 487.204 308.389 487.204ZM319.118 480.276C319.865 480.276 320.531 480.447 321.118 480.788C321.705 481.119 322.163 481.604 322.494 482.244C322.825 482.874 322.99 483.615 322.99 484.468C322.99 485.3 322.825 486.036 322.494 486.676C322.163 487.306 321.705 487.796 321.118 488.148C320.531 488.49 319.865 488.66 319.118 488.66C318.51 488.66 317.982 488.548 317.534 488.324C317.086 488.1 316.729 487.796 316.462 487.412V491.764H314.734V480.372H316.238L316.446 481.588C317.107 480.714 317.998 480.276 319.118 480.276ZM318.83 487.204C319.545 487.204 320.121 486.948 320.558 486.436C321.006 485.924 321.23 485.268 321.23 484.468C321.23 483.658 321.006 483.002 320.558 482.5C320.121 481.999 319.545 481.748 318.83 481.748C318.115 481.748 317.539 481.999 317.102 482.5C316.665 482.991 316.446 483.636 316.446 484.436C316.446 485.258 316.665 485.924 317.102 486.436C317.539 486.948 318.115 487.204 318.83 487.204Z" fill="#29063E"/>
<g opacity="0.25">
<path d="M286.293 195.293C286.683 194.902 287.317 194.902 287.707 195.293L294.071 201.657C294.462 202.047 294.462 202.681 294.071 203.071C293.681 203.462 293.047 203.462 292.657 203.071L287 197.414L281.343 203.071C280.953 203.462 280.319 203.462 279.929 203.071C279.538 202.681 279.538 202.047 279.929 201.657L286.293 195.293ZM286 258L286 196L288 196L288 258L286 258Z" fill="#29063E"/>
<path d="M406.707 227.707C407.098 227.317 407.098 226.683 406.707 226.293L400.343 219.929C399.953 219.538 399.319 219.538 398.929 219.929C398.538 220.319 398.538 220.953 398.929 221.343L404.586 227L398.929 232.657C398.538 233.047 398.538 233.681 398.929 234.071C399.319 234.462 399.953 234.462 400.343 234.071L406.707 227.707ZM287 247L288 247L287 247ZM307 227L307 228L307 227ZM288 262L288 247L286 247L286 262L288 262ZM307 228L406 228L406 226L307 226L307 228ZM288 247C288 236.507 296.507 228 307 228L307 226C295.402 226 286 235.402 286 247L288 247Z" fill="#29063E"/>
<path d="M168.293 227.707C167.902 227.317 167.902 226.683 168.293 226.293L174.657 219.929C175.047 219.538 175.681 219.538 176.071 219.929C176.462 220.319 176.462 220.953 176.071 221.343L170.414 227L176.071 232.657C176.462 233.047 176.462 233.681 176.071 234.071C175.681 234.462 175.047 234.462 174.657 234.071L168.293 227.707ZM287 247L286 247L287 247ZM286 262L286 247L288 247L288 262L286 262ZM267 228L169 228L169 226L267 226L267 228ZM286 247C286 236.507 277.493 228 267 228L267 226C278.598 226 288 235.402 288 247L286 247Z" fill="#29063E"/>
<path d="M292 259C292 261.761 289.761 264 287 264C284.239 264 282 261.761 282 259C282 256.239 284.239 254 287 254C289.761 254 292 256.239 292 259Z" fill="white" stroke="#29063E" stroke-width="4"/>
</g>
<g filter="url(#filter9_d_9827_139208)">
<circle cx="287" cy="328" r="50" fill="#29063E"/>
</g>
<path d="M290.337 346.989L305.837 319.415C307.318 316.779 305.466 313.484 302.503 313.484H271.504C268.54 313.484 266.688 316.779 268.17 319.415L270.897 324.267L271.93 326.105C273.493 328.885 276.949 329.838 279.654 328.234L284.302 325.478C284.652 325.27 284.772 324.81 284.57 324.45L283.158 321.938C282.596 320.939 283.297 319.689 284.418 319.689H296.178C297.301 319.689 298.003 320.941 297.441 321.941L291.565 332.396C291.002 333.396 289.598 333.396 289.036 332.396L287.623 329.881C287.421 329.522 286.975 329.399 286.625 329.606L281.975 332.364C279.273 333.966 278.348 337.521 279.909 340.299L280.942 342.137L283.669 346.989C285.153 349.627 288.854 349.627 290.337 346.989Z" fill="white"/>
<defs>
<filter id="filter0_d_9827_139208" x="37.5929" y="150.83" width="80.1346" height="66.0828" filterUnits="userSpaceOnUse" color-interpolation-filters="sRGB">
<feFlood flood-opacity="0" result="BackgroundImageFix"/>
<feColorMatrix in="SourceAlpha" type="matrix" values="0 0 0 0 0 0 0 0 0 0 0 0 0 0 0 0 0 0 127 0" result="hardAlpha"/>
<feOffset dy="12.0041"/>
<feGaussianBlur stdDeviation="7.38716"/>
<feColorMatrix type="matrix" values="0 0 0 0 0.18539 0 0 0 0 0.0342188 0 0 0 0 0.304167 0 0 0 0.09 0"/>
<feBlend mode="normal" in2="BackgroundImageFix" result="effect1_dropShadow_9827_139208"/>
<feBlend mode="normal" in="SourceGraphic" in2="effect1_dropShadow_9827_139208" result="shape"/>
</filter>
<filter id="filter1_d_9827_139208" x="462.09" y="140.161" width="68.0396" height="87.3267" filterUnits="userSpaceOnUse" color-interpolation-filters="sRGB">
<feFlood flood-opacity="0" result="BackgroundImageFix"/>
<feColorMatrix in="SourceAlpha" type="matrix" values="0 0 0 0 0 0 0 0 0 0 0 0 0 0 0 0 0 0 127 0" result="hardAlpha"/>
<feOffset dy="12.0512"/>
<feGaussianBlur stdDeviation="7.41615"/>
<feColorMatrix type="matrix" values="0 0 0 0 0.18539 0 0 0 0 0.0342188 0 0 0 0 0.304167 0 0 0 0.05 0"/>
<feBlend mode="normal" in2="BackgroundImageFix" result="effect1_dropShadow_9827_139208"/>
<feBlend mode="normal" in="SourceGraphic" in2="effect1_dropShadow_9827_139208" result="shape"/>
</filter>
<filter id="filter2_f_9827_139208" x="465.869" y="178.066" width="60.4798" height="33.5911" filterUnits="userSpaceOnUse" color-interpolation-filters="sRGB">
<feFlood flood-opacity="0" result="BackgroundImageFix"/>
<feBlend mode="normal" in="SourceGraphic" in2="BackgroundImageFix" result="shape"/>
<feGaussianBlur stdDeviation="5.52619" result="effect1_foregroundBlur_9827_139208"/>
</filter>
<filter id="filter3_d_9827_139208" x="246.593" y="76.8299" width="80.1346" height="66.0828" filterUnits="userSpaceOnUse" color-interpolation-filters="sRGB">
<feFlood flood-opacity="0" result="BackgroundImageFix"/>
<feColorMatrix in="SourceAlpha" type="matrix" values="0 0 0 0 0 0 0 0 0 0 0 0 0 0 0 0 0 0 127 0" result="hardAlpha"/>
<feOffset dy="12.0041"/>
<feGaussianBlur stdDeviation="7.38716"/>
<feColorMatrix type="matrix" values="0 0 0 0 0.18539 0 0 0 0 0.0342188 0 0 0 0 0.304167 0 0 0 0.09 0"/>
<feBlend mode="normal" in2="BackgroundImageFix" result="effect1_dropShadow_9827_139208"/>
<feBlend mode="normal" in="SourceGraphic" in2="effect1_dropShadow_9827_139208" result="shape"/>
</filter>
<filter id="filter4_d_9827_139208" x="248.135" y="0.567475" width="77.7301" height="77.7301" filterUnits="userSpaceOnUse" color-interpolation-filters="sRGB">
<feFlood flood-opacity="0" result="BackgroundImageFix"/>
<feColorMatrix in="SourceAlpha" type="matrix" values="0 0 0 0 0 0 0 0 0 0 0 0 0 0 0 0 0 0 127 0" result="hardAlpha"/>
<feOffset dy="7.43253"/>
<feGaussianBlur stdDeviation="7.43253"/>
<feColorMatrix type="matrix" values="0 0 0 0 0.0588235 0 0 0 0 0.0588235 0 0 0 0 0.188235 0 0 0 0.1 0"/>
<feBlend mode="normal" in2="BackgroundImageFix" result="effect1_dropShadow_9827_139208"/>
<feBlend mode="normal" in="SourceGraphic" in2="effect1_dropShadow_9827_139208" result="shape"/>
</filter>
<filter id="filter5_d_9827_139208" x="334.135" y="64.5675" width="77.7301" height="77.7301" filterUnits="userSpaceOnUse" color-interpolation-filters="sRGB">
<feFlood flood-opacity="0" result="BackgroundImageFix"/>
<feColorMatrix in="SourceAlpha" type="matrix" values="0 0 0 0 0 0 0 0 0 0 0 0 0 0 0 0 0 0 127 0" result="hardAlpha"/>
<feOffset dy="7.43253"/>
<feGaussianBlur stdDeviation="7.43253"/>
<feColorMatrix type="matrix" values="0 0 0 0 0.0588235 0 0 0 0 0.0588235 0 0 0 0 0.188235 0 0 0 0.1 0"/>
<feBlend mode="normal" in2="BackgroundImageFix" result="effect1_dropShadow_9827_139208"/>
<feBlend mode="normal" in="SourceGraphic" in2="effect1_dropShadow_9827_139208" result="shape"/>
</filter>
<filter id="filter6_d_9827_139208" x="162.135" y="56.5675" width="77.7301" height="77.7301" filterUnits="userSpaceOnUse" color-interpolation-filters="sRGB">
<feFlood flood-opacity="0" result="BackgroundImageFix"/>
<feColorMatrix in="SourceAlpha" type="matrix" values="0 0 0 0 0 0 0 0 0 0 0 0 0 0 0 0 0 0 127 0" result="hardAlpha"/>
<feOffset dy="7.43253"/>
<feGaussianBlur stdDeviation="7.43253"/>
<feColorMatrix type="matrix" values="0 0 0 0 0.0588235 0 0 0 0 0.0588235 0 0 0 0 0.188235 0 0 0 0.1 0"/>
<feBlend mode="normal" in2="BackgroundImageFix" result="effect1_dropShadow_9827_139208"/>
<feBlend mode="normal" in="SourceGraphic" in2="effect1_dropShadow_9827_139208" result="shape"/>
</filter>
<filter id="filter7_bd_9827_139208" x="250.616" y="391.786" width="58.0104" height="69.2941" filterUnits="userSpaceOnUse" color-interpolation-filters="sRGB">
<feFlood flood-opacity="0" result="BackgroundImageFix"/>
<feGaussianBlur in="BackgroundImageFix" stdDeviation="4.02872"/>
<feComposite in2="SourceAlpha" operator="in" result="effect1_backgroundBlur_9827_139208"/>
<feColorMatrix in="SourceAlpha" type="matrix" values="0 0 0 0 0 0 0 0 0 0 0 0 0 0 0 0 0 0 127 0" result="hardAlpha"/>
<feOffset dy="10.4747"/>
<feGaussianBlur stdDeviation="6.44595"/>
<feColorMatrix type="matrix" values="0 0 0 0 0.18539 0 0 0 0 0.0342188 0 0 0 0 0.304167 0 0 0 0.09 0"/>
<feBlend mode="normal" in2="effect1_backgroundBlur_9827_139208" result="effect2_dropShadow_9827_139208"/>
<feBlend mode="normal" in="SourceGraphic" in2="effect2_dropShadow_9827_139208" result="shape"/>
</filter>
<filter id="filter8_bd_9827_139208" x="264.717" y="403.067" width="58.0104" height="69.2941" filterUnits="userSpaceOnUse" color-interpolation-filters="sRGB">
<feFlood flood-opacity="0" result="BackgroundImageFix"/>
<feGaussianBlur in="BackgroundImageFix" stdDeviation="4.02872"/>
<feComposite in2="SourceAlpha" operator="in" result="effect1_backgroundBlur_9827_139208"/>
<feColorMatrix in="SourceAlpha" type="matrix" values="0 0 0 0 0 0 0 0 0 0 0 0 0 0 0 0 0 0 127 0" result="hardAlpha"/>
<feOffset dy="10.4747"/>
<feGaussianBlur stdDeviation="6.44595"/>
<feColorMatrix type="matrix" values="0 0 0 0 0.18539 0 0 0 0 0.0342188 0 0 0 0 0.304167 0 0 0 0.09 0"/>
<feBlend mode="normal" in2="effect1_backgroundBlur_9827_139208" result="effect2_dropShadow_9827_139208"/>
<feBlend mode="normal" in="SourceGraphic" in2="effect2_dropShadow_9827_139208" result="shape"/>
</filter>
<filter id="filter9_d_9827_139208" x="175.71" y="247.355" width="222.581" height="222.581" filterUnits="userSpaceOnUse" color-interpolation-filters="sRGB">
<feFlood flood-opacity="0" result="BackgroundImageFix"/>
<feColorMatrix in="SourceAlpha" type="matrix" values="0 0 0 0 0 0 0 0 0 0 0 0 0 0 0 0 0 0 127 0" result="hardAlpha"/>
<feOffset dy="30.6452"/>
<feGaussianBlur stdDeviation="30.6452"/>
<feColorMatrix type="matrix" values="0 0 0 0 0.0588235 0 0 0 0 0.0588235 0 0 0 0 0.188235 0 0 0 0.1 0"/>
<feBlend mode="normal" in2="BackgroundImageFix" result="effect1_dropShadow_9827_139208"/>
<feBlend mode="normal" in="SourceGraphic" in2="effect1_dropShadow_9827_139208" result="shape"/>
</filter>
<radialGradient id="paint0_radial_9827_139208" cx="0" cy="0" r="1" gradientUnits="userSpaceOnUse" gradientTransform="translate(54.5088 153.566) rotate(42.7323) scale(100.386 123.219)">
<stop stop-color="#F8EFF5"/>
<stop offset="1" stop-color="#C2A3B9"/>
</radialGradient>
<radialGradient id="paint1_radial_9827_139208" cx="0" cy="0" r="1" gradientUnits="userSpaceOnUse" gradientTransform="translate(479.827 174.932) rotate(58.9841) scale(95.4864 103.841)">
<stop stop-color="#F1E5EE"/>
<stop offset="1" stop-color="#C4A1BA"/>
</radialGradient>
<radialGradient id="paint2_radial_9827_139208" cx="0" cy="0" r="1" gradientUnits="userSpaceOnUse" gradientTransform="translate(482.144 177.496) rotate(22.486) scale(45.2627 39.3892)">
<stop stop-color="white"/>
<stop offset="1" stop-color="#DFB9D4"/>
</radialGradient>
<radialGradient id="paint3_radial_9827_139208" cx="0" cy="0" r="1" gradientUnits="userSpaceOnUse" gradientTransform="translate(479.827 158.916) rotate(58.9841) scale(95.4864 103.841)">
<stop stop-color="#F1E5EE"/>
<stop offset="1" stop-color="#C4A1BA"/>
</radialGradient>
<radialGradient id="paint4_radial_9827_139208" cx="0" cy="0" r="1" gradientUnits="userSpaceOnUse" gradientTransform="translate(482.144 161.48) rotate(22.486) scale(45.2627 39.3892)">
<stop stop-color="white"/>
<stop offset="1" stop-color="#DFB9D4"/>
</radialGradient>
<radialGradient id="paint5_radial_9827_139208" cx="0" cy="0" r="1" gradientUnits="userSpaceOnUse" gradientTransform="translate(479.827 142.902) rotate(58.9843) scale(95.4869 103.841)">
<stop stop-color="#F1E5EE"/>
<stop offset="1" stop-color="#C4A1BA"/>
</radialGradient>
<radialGradient id="paint6_radial_9827_139208" cx="0" cy="0" r="1" gradientUnits="userSpaceOnUse" gradientTransform="translate(482.144 145.466) rotate(22.486) scale(45.2627 39.3892)">
<stop stop-color="white"/>
<stop offset="1" stop-color="#DFB9D4"/>
</radialGradient>
<radialGradient id="paint7_radial_9827_139208" cx="0" cy="0" r="1" gradientUnits="userSpaceOnUse" gradientTransform="translate(263.509 79.5664) rotate(42.7323) scale(100.386 123.219)">
<stop stop-color="#F8EFF5"/>
<stop offset="1" stop-color="#C2A3B9"/>
</radialGradient>
<linearGradient id="paint8_linear_9827_139208" x1="199.595" y1="78.3309" x2="192.183" y2="100.229" gradientUnits="userSpaceOnUse">
<stop stop-color="#114A8B"/>
<stop offset="1" stop-color="#0669BC"/>
</linearGradient>
<linearGradient id="paint9_linear_9827_139208" x1="201.909" y1="88.536" x2="200.195" y2="89.1158" gradientUnits="userSpaceOnUse">
<stop stop-opacity="0.3"/>
<stop offset="0.071" stop-opacity="0.2"/>
<stop offset="0.321" stop-opacity="0.1"/>
<stop offset="0.623" stop-opacity="0.05"/>
<stop offset="1" stop-opacity="0"/>
</linearGradient>
<linearGradient id="paint10_linear_9827_139208" x1="200.967" y1="77.6924" x2="209.103" y2="99.3695" gradientUnits="userSpaceOnUse">
<stop stop-color="#3CCBF4"/>
<stop offset="1" stop-color="#2892DF"/>
</linearGradient>
<radialGradient id="paint11_radial_9827_139208" cx="0" cy="0" r="1" gradientUnits="userSpaceOnUse" gradientTransform="translate(250.297 383.697) rotate(54.6329) scale(106.348 120.781)">
<stop stop-color="white"/>
<stop offset="1" stop-color="#A77A9A"/>
</radialGradient>
<radialGradient id="paint12_radial_9827_139208" cx="0" cy="0" r="1" gradientUnits="userSpaceOnUse" gradientTransform="translate(278.974 411.089) rotate(56.3626) scale(84.8117 96.3215)">
<stop stop-color="white"/>
<stop offset="1" stop-color="#A77A9A"/>
</radialGradient>
<radialGradient id="paint13_radial_9827_139208" cx="0" cy="0" r="1" gradientUnits="userSpaceOnUse" gradientTransform="translate(278.974 411.089) rotate(56.3626) scale(84.8117 96.3215)">
<stop stop-color="white"/>
<stop offset="1" stop-color="#DFB9D4"/>
</radialGradient>
<clipPath id="clip0_9827_139208">
<rect width="31.3043" height="31.3043" fill="white" transform="translate(271.352 16.3477)"/>
</clipPath>
</defs>
</svg>
