<svg width="372" height="195" viewBox="0 0 372 195" fill="none" xmlns="http://www.w3.org/2000/svg">
<rect width="372" height="195" fill="#F5F3F6"/>
<rect x="159.844" y="24.2603" width="51.666" height="47.6917" rx="3.97431" fill="white"/>
<g filter="url(#filter0_d_9957_151789)">
<path fill-rule="evenodd" clip-rule="evenodd" d="M190.684 42.6485C190.684 42.6459 190.684 42.6433 190.684 42.6406C190.684 39.8134 188.392 37.5215 185.565 37.5215C182.738 37.5215 180.446 39.8134 180.446 42.6406C180.446 42.6432 180.446 42.6458 180.446 42.6484C178.626 42.7678 177.188 44.2815 177.188 46.1312C177.188 48.0588 178.75 49.6215 180.678 49.6215H190.451C192.378 49.6215 193.941 48.0588 193.941 46.1312C193.941 44.2819 192.503 42.7686 190.684 42.6485Z" fill="url(#paint0_radial_9957_151789)"/>
</g>
<path d="M169.836 63.0374V59.328H170.626L171.813 62.2478L172.979 59.328H173.752V63.0374H173.164V60.3083L172.051 63.0374H171.537L170.425 60.3083V63.0374H169.836ZM174.596 61.8186V60.3242H175.168V61.7603C175.168 62.0252 175.22 62.2266 175.322 62.3644C175.428 62.5021 175.587 62.571 175.799 62.571C176.021 62.571 176.193 62.4915 176.313 62.3326C176.437 62.1701 176.498 61.9493 176.498 61.6702V60.3242H177.071V63.0374H176.567L176.504 62.6929C176.295 62.9437 176.016 63.0691 175.666 63.0691C175.507 63.0691 175.363 63.0462 175.232 63.0003C175.101 62.9508 174.988 62.8748 174.893 62.7724C174.797 62.67 174.723 62.541 174.67 62.3856C174.621 62.2266 174.596 62.0376 174.596 61.8186ZM177.9 59.328H178.472V63.0374H177.9V59.328ZM179.001 60.8276V60.3242H179.473V59.5665H180.05V60.3242H180.702V60.8276H180.05V62.2425C180.05 62.3485 180.072 62.4244 180.114 62.4704C180.156 62.5127 180.229 62.5339 180.331 62.5339H180.766V63.0374H180.215C179.957 63.0374 179.768 62.9791 179.648 62.8625C179.531 62.7424 179.473 62.5551 179.473 62.3008V60.8276H179.001ZM181.624 59.2379C181.723 59.2379 181.806 59.2715 181.873 59.3386C181.94 59.4022 181.974 59.4834 181.974 59.5824C181.974 59.6813 181.94 59.7643 181.873 59.8314C181.806 59.895 181.723 59.9268 181.624 59.9268C181.525 59.9268 181.442 59.895 181.375 59.8314C181.308 59.7643 181.274 59.6813 181.274 59.5824C181.274 59.4834 181.308 59.4022 181.375 59.3386C181.442 59.2715 181.525 59.2379 181.624 59.2379ZM181.338 60.3242H181.91V63.0374H181.338V60.3242ZM184.203 59.328H187.102V59.8685H185.957V63.0374H185.348V59.8685H184.203V59.328ZM187.191 61.6861C187.191 61.407 187.246 61.1632 187.356 60.9548C187.469 60.7429 187.624 60.5803 187.822 60.4673C188.023 60.3507 188.253 60.2924 188.511 60.2924C188.772 60.2924 189.002 60.3454 189.2 60.4514C189.401 60.5574 189.558 60.7075 189.671 60.9018C189.788 61.0961 189.848 61.324 189.851 61.5854C189.851 61.6561 189.846 61.7285 189.836 61.8027H187.79V61.8345C187.804 62.0712 187.878 62.2584 188.013 62.3962C188.147 62.5339 188.325 62.6028 188.548 62.6028C188.725 62.6028 188.873 62.5622 188.993 62.481C189.113 62.3962 189.193 62.2778 189.231 62.1259H189.804C189.754 62.4015 189.62 62.6276 189.401 62.8042C189.186 62.9808 188.915 63.0691 188.59 63.0691C188.308 63.0691 188.06 63.0126 187.848 62.8996C187.64 62.783 187.478 62.6205 187.361 62.4121C187.248 62.2036 187.191 61.9616 187.191 61.6861ZM189.269 61.384C189.244 61.1862 189.164 61.0325 189.03 60.923C188.899 60.81 188.733 60.7535 188.532 60.7535C188.345 60.7535 188.182 60.8117 188.045 60.9283C187.91 61.0414 187.833 61.1933 187.811 61.384H189.269ZM190.579 60.3242H191.077L191.141 60.6793C191.346 60.4214 191.635 60.2924 192.01 60.2924C192.169 60.2924 192.315 60.3172 192.45 60.3666C192.584 60.4125 192.699 60.4867 192.794 60.5892C192.893 60.6916 192.969 60.8223 193.022 60.9813C193.075 61.1368 193.101 61.324 193.101 61.543V63.0374H192.524V61.5748C192.524 61.3169 192.469 61.1209 192.36 60.9866C192.25 60.8524 192.089 60.7852 191.877 60.7852C191.651 60.7852 191.473 60.8647 191.342 61.0237C191.215 61.1791 191.151 61.3946 191.151 61.6702V63.0374H190.579V60.3242ZM193.781 62.2743C193.781 61.9952 193.878 61.7815 194.072 61.6331C194.27 61.4812 194.56 61.4052 194.941 61.4052H195.625V61.241C195.625 61.0891 195.572 60.9707 195.466 60.8859C195.364 60.7976 195.217 60.7535 195.026 60.7535C194.857 60.7535 194.719 60.7905 194.613 60.8647C194.507 60.9354 194.443 61.0308 194.422 61.1509H193.86C193.889 60.8753 194.009 60.6634 194.221 60.515C194.433 60.3666 194.71 60.2924 195.053 60.2924C195.417 60.2924 195.697 60.3772 195.895 60.5468C196.093 60.7128 196.192 60.9566 196.192 61.2781V62.3485C196.192 62.4757 196.252 62.5392 196.372 62.5392H196.483V63.0374H196.181C196.001 63.0374 195.872 63.0003 195.795 62.9261C195.72 62.8519 195.683 62.7441 195.683 62.6028C195.478 62.9137 195.18 63.0691 194.788 63.0691C194.48 63.0691 194.235 62.9985 194.051 62.8572C193.871 62.7159 193.781 62.5216 193.781 62.2743ZM194.867 62.624C195.104 62.624 195.288 62.5604 195.418 62.4333C195.553 62.3061 195.621 62.1365 195.625 61.9245V61.8292H194.915C194.735 61.8292 194.597 61.8645 194.502 61.9351C194.41 62.0023 194.364 62.103 194.364 62.2372C194.364 62.3538 194.408 62.4474 194.496 62.518C194.585 62.5887 194.708 62.624 194.867 62.624ZM197.06 60.3242H197.558L197.622 60.6793C197.827 60.4214 198.116 60.2924 198.491 60.2924C198.65 60.2924 198.796 60.3172 198.931 60.3666C199.065 60.4125 199.18 60.4867 199.275 60.5892C199.374 60.6916 199.45 60.8223 199.503 60.9813C199.556 61.1368 199.582 61.324 199.582 61.543V63.0374H199.005V61.5748C199.005 61.3169 198.95 61.1209 198.841 60.9866C198.731 60.8524 198.57 60.7852 198.358 60.7852C198.132 60.7852 197.954 60.8647 197.823 61.0237C197.696 61.1791 197.632 61.3946 197.632 61.6702V63.0374H197.06V60.3242ZM200.071 60.8276V60.3242H200.543V59.5665H201.12V60.3242H201.772V60.8276H201.12V62.2425C201.12 62.3485 201.142 62.4244 201.184 62.4704C201.226 62.5127 201.299 62.5339 201.401 62.5339H201.836V63.0374H201.285C201.027 63.0374 200.838 62.9791 200.718 62.8625C200.601 62.7424 200.543 62.5551 200.543 62.3008V60.8276H200.071Z" fill="#29063E"/>
<g filter="url(#filter1_d_9957_151789)">
<rect x="177.727" y="13.6624" width="15.8972" height="15.8972" rx="2.76473" fill="white"/>
<g clip-path="url(#clip0_9957_151789)">
<path d="M190.303 20.7898C190.285 20.4152 190.06 20.1971 189.728 20.0724C189.583 20.018 189.432 19.9796 189.286 19.9262C189.132 19.8695 188.977 19.8116 188.829 19.7397C188.72 19.6863 188.663 19.5856 188.66 19.4596C188.656 19.2598 188.76 19.1162 188.979 19.0823C189.16 19.054 189.35 19.0494 189.532 19.0697C189.686 19.0869 189.836 19.1538 189.986 19.2011C190.049 19.221 190.106 19.2382 190.132 19.1523C190.192 18.948 190.122 18.7997 189.927 18.7197C189.889 18.7045 189.851 18.6911 189.812 18.6801C189.413 18.5694 189.013 18.5308 188.625 18.7126C188.302 18.8639 188.094 19.1091 188.099 19.4834C188.104 19.8476 188.296 20.0976 188.62 20.2471C188.73 20.2976 188.848 20.3301 188.963 20.3697C189.147 20.4339 189.336 20.4876 189.515 20.5635C189.7 20.6417 189.771 20.7845 189.737 20.9713C189.699 21.1724 189.549 21.2591 189.369 21.3016C189.132 21.3577 188.892 21.3451 188.656 21.2898C188.506 21.2547 188.362 21.1937 188.215 21.1472C188.157 21.1288 188.094 21.107 188.067 21.1954C188.005 21.4038 188.078 21.5618 188.281 21.6412C188.538 21.7413 188.805 21.7931 189.091 21.7917C189.325 21.7978 189.561 21.7574 189.779 21.6487C190.132 21.473 190.322 21.1909 190.303 20.7898ZM183.496 21.3487C183.42 21.2 183.362 21.0475 183.362 20.8771C183.36 20.5335 183.357 20.1896 183.351 19.8457C183.348 19.7044 183.347 19.562 183.328 19.4223C183.273 19.0053 183.043 18.7484 182.636 18.6496C182.206 18.5455 181.785 18.5924 181.374 18.7465C181.098 18.8499 181.089 18.8664 181.1 19.158C181.1 19.1647 181.1 19.1714 181.1 19.1781C181.102 19.2567 181.136 19.2923 181.217 19.264C181.271 19.2452 181.325 19.2252 181.378 19.2055C181.676 19.0957 181.979 19.0256 182.3 19.0747C182.515 19.1074 182.698 19.1919 182.748 19.4217C182.788 19.6101 182.795 19.8055 182.816 19.9903C182.782 20.0033 182.775 20.0084 182.77 20.0076C182.746 20.0044 182.723 19.9997 182.7 19.995C182.411 19.9367 182.122 19.8983 181.826 19.9264C181.236 19.9824 180.868 20.3966 180.9 20.9783C180.921 21.3601 181.174 21.668 181.548 21.7474C182.007 21.8447 182.411 21.7334 182.747 21.4003C182.774 21.3733 182.788 21.3335 182.81 21.2983C182.901 21.4356 182.964 21.5431 183.039 21.6416C183.111 21.7352 183.17 21.7403 183.267 21.679C183.327 21.6412 183.386 21.602 183.444 21.561C183.539 21.4933 183.549 21.4541 183.496 21.3487ZM182.777 20.7993C182.725 21.0723 182.471 21.276 182.14 21.3239C182.12 21.3268 182.1 21.3284 182.08 21.3308C181.655 21.3843 181.41 21.1149 181.506 20.6994C181.551 20.5018 181.714 20.3655 181.953 20.3322C182.238 20.2924 182.517 20.3308 182.815 20.3984C182.802 20.5393 182.801 20.6716 182.777 20.7993ZM187.707 18.6771C187.63 18.6783 187.552 18.6771 187.474 18.6773C187.287 18.6777 187.251 18.7039 187.205 18.8812C187.13 19.1712 187.056 19.4617 186.981 19.7519C186.865 20.2016 186.749 20.6513 186.628 21.1196C186.613 21.0776 186.602 21.054 186.596 21.0292C186.54 20.7967 186.486 20.5637 186.431 20.331C186.316 19.839 186.2 19.3473 186.084 18.8556C186.05 18.71 186.009 18.6793 185.859 18.6773C185.785 18.6765 185.711 18.6765 185.636 18.6773C185.48 18.6793 185.441 18.7085 185.405 18.8605C185.348 19.0963 185.294 19.3327 185.238 19.5687C185.121 20.0667 185.004 20.5645 184.887 21.0625C184.88 21.0619 184.873 21.0613 184.866 21.0607C184.86 21.0424 184.853 21.0244 184.848 21.0059C184.68 20.3433 184.511 19.6808 184.343 19.0179C184.248 18.6419 184.261 18.6783 183.909 18.6773C183.665 18.6767 183.654 18.6931 183.726 18.9307C183.866 19.3948 184.007 19.8587 184.148 20.3228C184.27 20.7223 184.391 21.1223 184.513 21.5214C184.561 21.6773 184.598 21.7031 184.759 21.7042C184.83 21.7046 184.901 21.7046 184.972 21.7042C185.141 21.7029 185.176 21.6765 185.215 21.511C185.311 21.1147 185.405 20.7183 185.5 20.3218C185.575 20.0056 185.651 19.6895 185.734 19.3461C185.751 19.3971 185.76 19.4212 185.766 19.4462C185.834 19.7243 185.901 20.0027 185.968 20.281C186.069 20.7002 186.169 21.1194 186.271 21.5384C186.304 21.6751 186.343 21.7046 186.481 21.706C186.549 21.7066 186.617 21.706 186.684 21.706C186.894 21.706 186.915 21.6903 186.977 21.4915C187.246 20.6297 187.515 19.7681 187.783 18.9064C187.794 18.871 187.803 18.8351 187.81 18.7987C187.824 18.7187 187.792 18.6758 187.707 18.6771Z" fill="#1C2330"/>
<path d="M184.887 21.0626C185.004 20.5645 185.121 20.0667 185.238 19.5687C185.294 19.3327 185.348 19.0963 185.405 18.8605C185.442 18.7086 185.48 18.6793 185.637 18.6773C185.711 18.6763 185.785 18.6763 185.86 18.6773C186.01 18.6791 186.05 18.7098 186.084 18.8556C186.201 19.3473 186.316 19.839 186.432 20.331C186.486 20.5637 186.541 20.7967 186.596 21.0292C186.602 21.054 186.613 21.0776 186.628 21.1196C186.749 20.6513 186.865 20.2016 186.981 19.7519C187.056 19.4617 187.13 19.1712 187.206 18.8812C187.252 18.7039 187.287 18.6777 187.474 18.6773C187.552 18.6771 187.63 18.6783 187.708 18.6773C187.793 18.6761 187.824 18.7189 187.81 18.7989C187.804 18.8353 187.795 18.8714 187.784 18.9066C187.515 19.7684 187.247 20.6299 186.978 21.4917C186.916 21.6908 186.894 21.7062 186.685 21.7064C186.617 21.7064 186.55 21.707 186.482 21.7062C186.343 21.7048 186.305 21.6755 186.271 21.5386C186.17 21.1196 186.069 20.7004 185.968 20.2812C185.901 20.0029 185.834 19.7245 185.767 19.4462C185.761 19.4213 185.751 19.3973 185.734 19.3461C185.652 19.6896 185.576 20.0058 185.5 20.322C185.405 20.7183 185.311 21.115 185.216 21.5112C185.176 21.6767 185.142 21.7034 184.973 21.7044C184.902 21.7048 184.831 21.7048 184.76 21.7044C184.599 21.7034 184.562 21.6776 184.514 21.5216C184.391 21.1223 184.27 20.7226 184.149 20.323C184.008 19.8589 183.867 19.3951 183.726 18.931C183.654 18.6933 183.666 18.6769 183.909 18.6775C184.262 18.6785 184.249 18.6421 184.344 19.0181C184.512 19.6808 184.68 20.3434 184.849 21.0061C184.854 21.0246 184.861 21.0426 184.867 21.0609C184.873 21.0613 184.88 21.0619 184.887 21.0626Z" fill="#1C2330"/>
<path d="M183.496 21.3484C183.42 21.1997 183.362 21.0472 183.362 20.8768C183.36 20.5331 183.357 20.1893 183.351 19.8454C183.348 19.7041 183.347 19.5617 183.328 19.422C183.273 19.005 183.043 18.748 182.636 18.6493C182.206 18.5451 181.785 18.5921 181.374 18.7462C181.098 18.8496 181.089 18.8661 181.1 19.1577C181.1 19.1644 181.1 19.1711 181.1 19.1778C181.102 19.2564 181.136 19.292 181.217 19.2637C181.271 19.2448 181.325 19.2249 181.378 19.2052C181.676 19.0954 181.979 19.0253 182.3 19.0744C182.515 19.1071 182.698 19.1916 182.748 19.4213C182.788 19.6098 182.795 19.8052 182.816 19.99C182.782 20.003 182.775 20.0081 182.77 20.0073C182.746 20.0041 182.723 19.9994 182.7 19.9947C182.411 19.9364 182.122 19.898 181.826 19.9261C181.236 19.9821 180.868 20.3963 180.9 20.9779C180.921 21.3598 181.174 21.6677 181.548 21.7471C182.007 21.8444 182.411 21.7331 182.747 21.4C182.774 21.373 182.788 21.3332 182.81 21.298C182.901 21.4353 182.964 21.5428 183.039 21.6413C183.111 21.7349 183.17 21.74 183.267 21.6787C183.327 21.6409 183.386 21.6017 183.444 21.5607C183.539 21.493 183.549 21.4538 183.496 21.3484ZM182.777 20.799C182.725 21.072 182.471 21.2757 182.14 21.3236C182.12 21.3265 182.1 21.3281 182.08 21.3305C181.655 21.384 181.41 21.1146 181.506 20.6991C181.551 20.5015 181.714 20.3652 181.953 20.3319C182.238 20.2921 182.517 20.3304 182.815 20.3981C182.802 20.539 182.801 20.6713 182.777 20.799Z" fill="#1C2330"/>
<path d="M189.092 21.7917C188.806 21.7931 188.539 21.7413 188.282 21.6412C188.079 21.5618 188.006 21.4038 188.068 21.1954C188.095 21.107 188.158 21.1288 188.216 21.147C188.363 21.1935 188.507 21.2545 188.657 21.2898C188.892 21.3451 189.133 21.3577 189.37 21.3016C189.55 21.2591 189.7 21.1724 189.738 20.9713C189.772 20.7845 189.701 20.6417 189.516 20.5635C189.337 20.4876 189.148 20.4339 188.964 20.3697C188.849 20.3299 188.731 20.2974 188.621 20.2471C188.297 20.0976 188.105 19.8476 188.1 19.4834C188.094 19.1091 188.303 18.8639 188.626 18.7126C189.014 18.5308 189.414 18.5694 189.813 18.6801C189.852 18.6909 189.89 18.7045 189.928 18.7197C190.123 18.7997 190.193 18.948 190.132 19.1523C190.107 19.2382 190.05 19.2208 189.987 19.2011C189.836 19.1536 189.687 19.0869 189.533 19.0697C189.351 19.0494 189.161 19.054 188.98 19.0821C188.76 19.1162 188.656 19.2598 188.661 19.4594C188.663 19.5856 188.72 19.6863 188.83 19.7395C188.977 19.8116 189.132 19.8695 189.287 19.926C189.432 19.9792 189.583 20.0178 189.728 20.0722C190.061 20.1969 190.285 20.415 190.304 20.7894C190.323 21.1905 190.133 21.4726 189.78 21.6483C189.562 21.7576 189.326 21.7978 189.092 21.7917Z" fill="#1C2330"/>
<path d="M190.457 22.4696C190.153 22.4096 189.848 22.4151 189.544 22.4748C189.316 22.5195 189.1 22.5908 188.909 22.7243C188.877 22.7466 188.86 22.7905 188.836 22.8246C188.874 22.8354 188.913 22.8577 188.95 22.8551C189.206 22.8372 189.461 22.814 189.703 22.7935C189.81 22.802 189.905 22.8045 189.998 22.8181C190.235 22.8522 190.302 22.9505 190.259 23.1883C190.252 23.2282 190.25 23.2694 190.238 23.3072C190.142 23.5976 190.044 23.887 189.949 24.1777C189.939 24.2088 189.946 24.2459 189.946 24.2802C189.982 24.2723 190.027 24.2748 190.054 24.2545C190.11 24.212 190.161 24.161 190.206 24.1072C190.519 23.7329 190.676 23.2944 190.721 22.8144C190.743 22.5776 190.69 22.5155 190.457 22.4696Z" fill="#F98500"/>
<path d="M189.796 23.2659C189.781 23.2312 189.718 23.2009 189.675 23.1982C189.625 23.195 189.571 23.2196 189.522 23.2399C188.415 23.6963 187.261 23.9445 186.067 23.9989C185.506 24.0245 184.947 23.9916 184.391 23.9181C183.601 23.8135 182.831 23.6225 182.084 23.3414C181.588 23.1544 181.11 22.9283 180.649 22.6665C180.599 22.6387 180.536 22.5983 180.503 22.6708C180.489 22.7012 180.533 22.7589 180.552 22.8036C180.556 22.8119 180.567 22.817 180.575 22.8237C182.009 24.0824 183.689 24.6905 185.562 24.7185C186.197 24.7075 186.799 24.6387 187.39 24.493C188.211 24.2906 188.988 23.9822 189.682 23.4897C189.715 23.4663 189.758 23.4446 189.773 23.4117C189.794 23.3676 189.812 23.3055 189.796 23.2659Z" fill="#F98500"/>
</g>
<rect x="177.813" y="13.7488" width="15.7244" height="15.7244" rx="2.67834" stroke="#DFDAE2" stroke-width="0.172796"/>
</g>
<g filter="url(#filter2_d_9957_151789)">
<rect x="206.203" y="34.8586" width="15.8972" height="15.8972" rx="2.76473" fill="white"/>
<g clip-path="url(#clip1_9957_151789)">
<path d="M215.368 41.2647H215.629L216.373 40.5206L216.41 40.2047C215.983 39.8285 215.468 39.5671 214.913 39.4453C214.358 39.3235 213.78 39.3453 213.236 39.5086C212.691 39.672 212.197 39.9714 211.801 40.3787C211.404 40.786 211.118 41.2877 210.969 41.8365C211.052 41.8025 211.143 41.797 211.23 41.8208L212.718 41.5754C212.718 41.5754 212.794 41.4501 212.833 41.4579C213.152 41.1077 213.592 40.8926 214.065 40.8567C214.537 40.8208 215.005 40.9667 215.373 41.2647H215.368Z" fill="#EA4335"/>
<path d="M217.433 41.8362C217.262 41.2064 216.911 40.6402 216.423 40.207L215.378 41.2514C215.596 41.4292 215.771 41.6542 215.889 41.9092C216.007 42.1643 216.065 42.4429 216.06 42.7239V42.9093C216.182 42.9093 216.303 42.9333 216.416 42.98C216.528 43.0267 216.631 43.0952 216.717 43.1815C216.803 43.2678 216.872 43.3703 216.919 43.483C216.965 43.5958 216.989 43.7167 216.989 43.8387C216.989 43.9608 216.965 44.0816 216.919 44.1944C216.872 44.3072 216.803 44.4096 216.717 44.4959C216.631 44.5822 216.528 44.6507 216.416 44.6974C216.303 44.7441 216.182 44.7682 216.06 44.7682H214.201L214.016 44.9561V46.071L214.201 46.2563H216.06C216.579 46.2604 217.086 46.0972 217.505 45.791C217.924 45.4848 218.233 45.0518 218.388 44.5561C218.542 44.0604 218.532 43.5282 218.36 43.0384C218.188 42.5485 217.863 42.127 217.433 41.8362Z" fill="#4285F4"/>
<path d="M212.342 46.246H214.201V44.7579H212.342C212.21 44.7578 212.079 44.7293 211.958 44.6743L211.697 44.7553L210.948 45.4993L210.883 45.7604C211.303 46.0777 211.816 46.2483 212.342 46.246Z" fill="#34A853"/>
<path d="M212.341 41.4182C211.837 41.4212 211.347 41.5815 210.939 41.8766C210.53 42.1717 210.225 42.5869 210.064 43.0643C209.903 43.5416 209.896 44.0572 210.042 44.5391C210.189 45.021 210.482 45.4452 210.881 45.7522L211.96 44.6739C211.822 44.612 211.703 44.5178 211.61 44.3993C211.517 44.2809 211.455 44.1417 211.428 43.9938C211.401 43.8459 211.41 43.6936 211.455 43.5501C211.5 43.4065 211.579 43.276 211.685 43.1697C211.791 43.0634 211.922 42.9844 212.065 42.9396C212.209 42.8949 212.361 42.8856 212.509 42.9126C212.657 42.9396 212.796 43.002 212.915 43.0946C213.033 43.1873 213.127 43.3072 213.189 43.4442L214.267 42.366C214.041 42.0701 213.749 41.8306 213.415 41.6662C213.081 41.5018 212.713 41.4169 212.341 41.4182Z" fill="#FBBC05"/>
</g>
<rect x="206.29" y="34.945" width="15.7244" height="15.7244" rx="2.67834" stroke="#DFDAE2" stroke-width="0.172796"/>
</g>
<g filter="url(#filter3_d_9957_151789)">
<rect x="149.242" y="32.2092" width="15.8972" height="15.8972" rx="2.76473" fill="white"/>
<g clip-path="url(#clip2_9957_151789)">
<g clip-path="url(#clip3_9957_151789)">
<path d="M155.858 36.3978H158.222L155.768 43.6684C155.743 43.7431 155.695 43.808 155.631 43.854C155.567 43.9 155.49 43.9247 155.411 43.9248H153.572C153.512 43.9248 153.453 43.9106 153.4 43.8833C153.347 43.856 153.301 43.8165 153.266 43.768C153.231 43.7194 153.208 43.6633 153.199 43.6042C153.191 43.5451 153.196 43.4848 153.215 43.4282L155.501 36.6542C155.526 36.5794 155.574 36.5145 155.639 36.4685C155.703 36.4225 155.78 36.3978 155.858 36.3978Z" fill="url(#paint1_linear_9957_151789)"/>
<path d="M159.297 41.2742H155.549C155.514 41.2741 155.48 41.2846 155.451 41.3042C155.422 41.3238 155.4 41.3516 155.387 41.384C155.374 41.4164 155.372 41.4519 155.379 41.4859C155.387 41.5199 155.405 41.5508 155.43 41.5746L157.839 43.8227C157.909 43.8882 158.001 43.9245 158.097 43.9245H160.22L159.297 41.2742Z" fill="#0078D4"/>
<path d="M155.858 36.3977C155.778 36.3974 155.7 36.4226 155.636 36.4696C155.572 36.5166 155.524 36.583 155.5 36.6591L153.217 43.4219C153.197 43.4787 153.191 43.5396 153.199 43.5994C153.207 43.6592 153.229 43.7162 153.264 43.7655C153.299 43.8149 153.345 43.8551 153.399 43.8828C153.452 43.9105 153.512 43.9248 153.572 43.9247H155.459C155.53 43.9121 155.595 43.8811 155.65 43.8349C155.704 43.7886 155.745 43.7288 155.769 43.6614L156.224 42.3199L157.85 43.8364C157.918 43.8928 158.004 43.924 158.092 43.9247H160.207L159.279 41.2743L156.576 41.275L158.23 36.3977H155.858Z" fill="url(#paint2_linear_9957_151789)"/>
<path d="M158.882 36.6537C158.857 36.5791 158.809 36.5143 158.745 36.4683C158.681 36.4224 158.604 36.3977 158.525 36.3977H155.891C155.969 36.3977 156.046 36.4224 156.11 36.4683C156.174 36.5143 156.222 36.5791 156.247 36.6537L158.534 43.428C158.553 43.4846 158.558 43.545 158.549 43.6041C158.54 43.6632 158.518 43.7193 158.483 43.7679C158.448 43.8164 158.402 43.856 158.349 43.8832C158.296 43.9105 158.237 43.9248 158.177 43.9248H160.811C160.871 43.9247 160.93 43.9105 160.983 43.8832C161.036 43.8559 161.082 43.8164 161.117 43.7678C161.152 43.7193 161.175 43.6631 161.184 43.6041C161.192 43.545 161.187 43.4846 161.168 43.428L158.882 36.6537Z" fill="url(#paint3_linear_9957_151789)"/>
</g>
</g>
<rect x="149.329" y="32.2956" width="15.7244" height="15.7244" rx="2.67834" stroke="#DFDAE2" stroke-width="0.172796"/>
</g>
<rect x="159.844" y="133.554" width="51.666" height="47.6917" rx="3.97431" fill="white"/>
<g filter="url(#filter4_bd_9957_151789)">
<rect x="177.898" y="143.584" width="10.6742" height="12.5422" rx="1.33428" fill="url(#paint4_radial_9957_151789)" fill-opacity="0.6"/>
</g>
<g filter="url(#filter5_bd_9957_151789)">
<rect x="182.57" y="147.321" width="10.6742" height="12.5422" rx="1.33428" fill="url(#paint5_radial_9957_151789)" fill-opacity="0.6"/>
<rect x="182.57" y="147.321" width="10.6742" height="12.5422" rx="1.33428" fill="url(#paint6_radial_9957_151789)" fill-opacity="0.3"/>
</g>
<path d="M173.609 168.616H174.324L175.299 170.317L176.301 168.616H176.984L175.601 170.959V172.331H174.992V170.959L173.609 168.616ZM178.443 172.363C178.171 172.363 177.929 172.306 177.717 172.193C177.509 172.077 177.346 171.914 177.23 171.706C177.117 171.494 177.06 171.25 177.06 170.974C177.06 170.702 177.117 170.462 177.23 170.254C177.346 170.042 177.509 169.878 177.717 169.761C177.929 169.644 178.171 169.586 178.443 169.586C178.715 169.586 178.955 169.644 179.164 169.761C179.376 169.878 179.538 170.042 179.651 170.254C179.768 170.462 179.826 170.702 179.826 170.974C179.826 171.25 179.768 171.494 179.651 171.706C179.538 171.914 179.376 172.077 179.164 172.193C178.955 172.306 178.715 172.363 178.443 172.363ZM178.443 171.875C178.683 171.875 178.876 171.792 179.021 171.626C179.169 171.457 179.243 171.239 179.243 170.974C179.243 170.71 179.169 170.494 179.021 170.328C178.876 170.158 178.683 170.074 178.443 170.074C178.203 170.074 178.01 170.158 177.865 170.328C177.721 170.494 177.648 170.71 177.648 170.974C177.648 171.239 177.721 171.457 177.865 171.626C178.01 171.792 178.203 171.875 178.443 171.875ZM180.509 171.112V169.618H181.081V171.054C181.081 171.319 181.132 171.52 181.235 171.658C181.341 171.796 181.5 171.865 181.712 171.865C181.934 171.865 182.106 171.785 182.226 171.626C182.349 171.464 182.411 171.243 182.411 170.964V169.618H182.984V172.331H182.48L182.417 171.987C182.208 172.237 181.929 172.363 181.579 172.363C181.42 172.363 181.275 172.34 181.145 172.294C181.014 172.245 180.901 172.169 180.806 172.066C180.71 171.964 180.636 171.835 180.583 171.679C180.534 171.52 180.509 171.331 180.509 171.112ZM183.812 169.618H184.321L184.385 170.026C184.462 169.899 184.561 169.8 184.681 169.729C184.805 169.655 184.973 169.618 185.185 169.618H185.312V170.153H185.058C184.941 170.153 184.84 170.174 184.756 170.217C184.671 170.256 184.6 170.312 184.544 170.386C184.491 170.457 184.45 170.544 184.422 170.646C184.397 170.745 184.385 170.853 184.385 170.969V172.331H183.812V169.618ZM187.323 172.331L188.711 168.622H189.437L190.82 172.331H190.168L189.819 171.414H188.298L187.953 172.331H187.323ZM189.649 170.895L189.055 169.279L188.467 170.895H189.649ZM192.859 169.586C193.106 169.586 193.327 169.643 193.521 169.756C193.716 169.865 193.868 170.026 193.977 170.238C194.087 170.446 194.141 170.692 194.141 170.974C194.141 171.25 194.087 171.494 193.977 171.706C193.868 171.914 193.716 172.077 193.521 172.193C193.327 172.306 193.106 172.363 192.859 172.363C192.658 172.363 192.483 172.326 192.334 172.252C192.186 172.177 192.068 172.077 191.979 171.95V173.391H191.407V169.618H191.905L191.974 170.021C192.193 169.731 192.488 169.586 192.859 169.586ZM192.764 171.881C193 171.881 193.191 171.796 193.336 171.626C193.484 171.457 193.559 171.239 193.559 170.974C193.559 170.706 193.484 170.489 193.336 170.323C193.191 170.157 193 170.074 192.764 170.074C192.527 170.074 192.336 170.157 192.191 170.323C192.047 170.485 191.974 170.699 191.974 170.964C191.974 171.236 192.047 171.457 192.191 171.626C192.336 171.796 192.527 171.881 192.764 171.881ZM196.317 169.586C196.564 169.586 196.785 169.643 196.979 169.756C197.174 169.865 197.325 170.026 197.435 170.238C197.545 170.446 197.599 170.692 197.599 170.974C197.599 171.25 197.545 171.494 197.435 171.706C197.325 171.914 197.174 172.077 196.979 172.193C196.785 172.306 196.564 172.363 196.317 172.363C196.116 172.363 195.941 172.326 195.792 172.252C195.644 172.177 195.526 172.077 195.437 171.95V173.391H194.865V169.618H195.363L195.432 170.021C195.651 169.731 195.946 169.586 196.317 169.586ZM196.222 171.881C196.458 171.881 196.649 171.796 196.794 171.626C196.942 171.457 197.016 171.239 197.016 170.974C197.016 170.706 196.942 170.489 196.794 170.323C196.649 170.157 196.458 170.074 196.222 170.074C195.985 170.074 195.794 170.157 195.649 170.323C195.504 170.485 195.432 170.699 195.432 170.964C195.432 171.236 195.504 171.457 195.649 171.626C195.794 171.796 195.985 171.881 196.222 171.881Z" fill="#29063E"/>
<g opacity="0.25">
<path d="M185.258 75.7131C185.387 75.5838 185.597 75.5838 185.726 75.7131L187.834 77.8208C187.963 77.9501 187.963 78.1598 187.834 78.2892C187.705 78.4185 187.495 78.4185 187.366 78.2892L185.492 76.4157L183.619 78.2892C183.489 78.4185 183.28 78.4185 183.15 78.2892C183.021 78.1598 183.021 77.9501 183.15 77.8208L185.258 75.7131ZM185.161 96.4812L185.161 75.9473L185.823 75.9473L185.823 96.4812L185.161 96.4812Z" fill="#29063E"/>
<path d="M268.236 86.4719C268.365 86.3426 268.365 86.1329 268.236 86.0036L266.128 83.8959C265.999 83.7665 265.789 83.7665 265.66 83.8959C265.53 84.0252 265.53 84.2349 265.66 84.3643L267.533 86.2378L265.66 88.1113C265.53 88.2406 265.53 88.4503 265.66 88.5796C265.789 88.709 265.999 88.709 266.128 88.5796L268.236 86.4719ZM185.737 97.8823L185.737 92.8616L185.075 92.8616L185.075 97.8823L185.737 97.8823ZM192.03 86.5689L268.001 86.569L268.001 85.9066L192.03 85.9066L192.03 86.5689ZM185.737 92.8616C185.737 89.3863 188.555 86.5689 192.03 86.5689L192.03 85.9066C188.189 85.9066 185.075 89.0204 185.075 92.8616L185.737 92.8616Z" fill="#29063E"/>
<path d="M102.577 86.4719C102.448 86.3426 102.448 86.1329 102.577 86.0036L104.685 83.8959C104.814 83.7665 105.024 83.7665 105.153 83.8959C105.282 84.0252 105.282 84.2349 105.153 84.3643L103.279 86.2378L105.153 88.1113C105.282 88.2406 105.282 88.4503 105.153 88.5796C105.024 88.709 104.814 88.709 104.685 88.5796L102.577 86.4719ZM185.075 97.8823L185.075 92.8616L185.737 92.8616L185.737 97.8823L185.075 97.8823ZM178.782 86.5689L102.811 86.569L102.811 85.9066L178.782 85.9066L178.782 86.5689ZM185.075 92.8616C185.075 89.3863 182.258 86.5689 178.782 86.5689L178.782 85.9066C182.624 85.9066 185.737 89.0204 185.737 92.8616L185.075 92.8616Z" fill="#29063E"/>
<path d="M187.146 96.8125C187.146 97.727 186.405 98.4684 185.49 98.4684C184.576 98.4684 183.834 97.727 183.834 96.8125C183.834 95.8979 184.576 95.1565 185.49 95.1565C186.405 95.1565 187.146 95.8979 187.146 96.8125Z" fill="white" stroke="#29063E" stroke-width="1.32477"/>
</g>
<g filter="url(#filter6_d_9957_151789)">
<circle cx="185.677" cy="119.644" r="16.5596" fill="#29063E"/>
</g>
<path d="M186.78 125.933L191.913 116.8C192.404 115.927 191.791 114.836 190.809 114.836H180.543C179.561 114.836 178.948 115.927 179.438 116.8L180.342 118.407L180.684 119.016C181.201 119.937 182.346 120.252 183.242 119.721L184.781 118.808C184.897 118.74 184.937 118.587 184.87 118.468L184.402 117.636C184.216 117.305 184.448 116.891 184.82 116.891H188.715C189.086 116.891 189.319 117.306 189.133 117.637L187.186 121.099C187 121.431 186.535 121.431 186.349 121.099L185.881 120.267C185.814 120.148 185.666 120.107 185.551 120.175L184.011 121.089C183.116 121.62 182.809 122.797 183.326 123.717L183.668 124.326L184.572 125.933C185.063 126.806 186.289 126.806 186.78 125.933Z" fill="white"/>
<rect x="275.578" y="60.5117" width="51.666" height="47.6917" rx="3.97431" fill="white"/>
<g filter="url(#filter7_d_9957_151789)">
<g opacity="0.2" filter="url(#filter8_f_9957_151789)">
<ellipse cx="301.441" cy="87.4387" rx="6.35478" ry="1.90211" fill="#29063E"/>
</g>
<path fill-rule="evenodd" clip-rule="evenodd" d="M306.757 86.5467V83.2274V83.2272C306.757 81.915 304.255 80.8513 301.168 80.8513C298.081 80.8513 295.578 81.915 295.578 83.2272V83.2274V86.5467C295.578 86.5467 295.578 86.5468 295.578 86.5468C295.578 87.8591 298.081 88.9229 301.168 88.9229C304.255 88.9229 306.757 87.8591 306.757 86.5468C306.757 86.5468 306.757 86.5467 306.757 86.5467Z" fill="url(#paint7_radial_9957_151789)"/>
<path fill-rule="evenodd" clip-rule="evenodd" d="M305.721 83.5602C305.9 83.3806 305.916 83.2689 305.916 83.2269C305.916 83.1849 305.9 83.0731 305.721 82.8936C305.539 82.7106 305.234 82.5073 304.79 82.3186C303.905 81.9424 302.624 81.6895 301.165 81.6895C299.707 81.6895 298.426 81.9424 297.541 82.3186C297.097 82.5073 296.791 82.7106 296.609 82.8936C296.431 83.0731 296.414 83.1849 296.414 83.2269C296.414 83.2689 296.431 83.3806 296.609 83.5602C296.791 83.7432 297.097 83.9465 297.541 84.1352C298.426 84.5114 299.707 84.7643 301.165 84.7643C302.624 84.7643 303.905 84.5114 304.79 84.1352C305.234 83.9465 305.539 83.7432 305.721 83.5602Z" fill="url(#paint8_radial_9957_151789)"/>
<path fill-rule="evenodd" clip-rule="evenodd" d="M306.757 81.242V77.9227V77.9225C306.757 76.6103 304.255 75.5466 301.168 75.5466C298.081 75.5466 295.578 76.6103 295.578 77.9225V77.9227V81.242C295.578 81.2422 295.578 81.2424 295.578 81.2427C295.578 82.5549 298.081 83.6187 301.168 83.6187C304.255 83.6187 306.757 82.5549 306.757 81.2427C306.757 81.2424 306.757 81.2422 306.757 81.242Z" fill="url(#paint9_radial_9957_151789)"/>
<path fill-rule="evenodd" clip-rule="evenodd" d="M305.721 78.2558C305.9 78.0762 305.916 77.9644 305.916 77.9224C305.916 77.8805 305.9 77.7687 305.721 77.5891C305.539 77.4062 305.234 77.2029 304.79 77.0141C303.905 76.6379 302.624 76.385 301.165 76.385C299.707 76.385 298.426 76.6379 297.541 77.0141C297.097 77.2029 296.791 77.4062 296.609 77.5891C296.431 77.7687 296.414 77.8805 296.414 77.9224C296.414 77.9644 296.431 78.0762 296.609 78.2558C296.791 78.4387 297.097 78.642 297.541 78.8308C298.426 79.2069 299.707 79.4599 301.165 79.4599C302.624 79.4599 303.905 79.2069 304.79 78.8308C305.234 78.642 305.539 78.4387 305.721 78.2558Z" fill="url(#paint10_radial_9957_151789)"/>
<path fill-rule="evenodd" clip-rule="evenodd" d="M306.757 72.619V72.6193V75.9384C306.757 75.9385 306.757 75.9387 306.757 75.9388C306.757 77.2509 304.254 78.3145 301.168 78.3145C298.081 78.3145 295.579 77.2509 295.578 75.9388C295.578 75.9387 295.578 75.9385 295.578 75.9384V72.6193V72.619C295.578 71.3067 298.081 70.2429 301.168 70.2429C304.255 70.2429 306.757 71.3067 306.757 72.619Z" fill="url(#paint11_radial_9957_151789)"/>
<path fill-rule="evenodd" clip-rule="evenodd" d="M305.721 72.9525C305.9 72.773 305.916 72.6612 305.916 72.6192C305.916 72.5773 305.9 72.4655 305.721 72.2859C305.539 72.103 305.234 71.8997 304.79 71.7109C303.905 71.3347 302.624 71.0818 301.165 71.0818C299.707 71.0818 298.426 71.3347 297.541 71.7109C297.097 71.8997 296.791 72.103 296.609 72.2859C296.431 72.4655 296.414 72.5773 296.414 72.6192C296.414 72.6612 296.431 72.773 296.609 72.9525C296.791 73.1355 297.097 73.3388 297.541 73.5275C298.426 73.9037 299.707 74.1567 301.165 74.1567C302.624 74.1567 303.905 73.9037 304.79 73.5275C305.234 73.3388 305.539 73.1355 305.721 72.9525Z" fill="url(#paint12_radial_9957_151789)"/>
</g>
<path d="M293.438 97.4361C293.438 97.7964 293.362 98.1197 293.21 98.4058C293.058 98.692 292.844 98.9163 292.569 99.0788C292.296 99.2413 291.986 99.3226 291.636 99.3226C291.286 99.3226 290.973 99.2413 290.698 99.0788C290.426 98.9163 290.214 98.692 290.062 98.4058C289.91 98.1197 289.834 97.7964 289.834 97.4361C289.834 97.0758 289.91 96.7525 290.062 96.4664C290.214 96.1802 290.426 95.9559 290.698 95.7934C290.973 95.6309 291.286 95.5496 291.636 95.5496C291.986 95.5496 292.296 95.6309 292.569 95.7934C292.844 95.9559 293.058 96.1802 293.21 96.4664C293.362 96.7525 293.438 97.0758 293.438 97.4361ZM290.459 97.4361C290.459 97.694 290.509 97.9271 290.608 98.1356C290.707 98.3405 290.845 98.5012 291.021 98.6178C291.201 98.7308 291.406 98.7874 291.636 98.7874C291.865 98.7874 292.069 98.7308 292.245 98.6178C292.425 98.5012 292.565 98.3405 292.664 98.1356C292.763 97.9271 292.812 97.694 292.812 97.4361C292.812 97.1782 292.763 96.9468 292.664 96.7419C292.565 96.5335 292.425 96.3727 292.245 96.2597C292.069 96.1431 291.865 96.0848 291.636 96.0848C291.406 96.0848 291.201 96.1431 291.021 96.2597C290.845 96.3727 290.707 96.5335 290.608 96.7419C290.509 96.9468 290.459 97.1782 290.459 97.4361ZM294.179 96.5776H294.677L294.741 96.9327C294.946 96.6748 295.235 96.5459 295.61 96.5459C295.769 96.5459 295.915 96.5706 296.049 96.62C296.184 96.666 296.299 96.7402 296.394 96.8426C296.493 96.945 296.569 97.0758 296.622 97.2347C296.675 97.3902 296.701 97.5774 296.701 97.7964V99.2908H296.124V97.8282C296.124 97.5703 296.069 97.3743 295.959 97.24C295.85 97.1058 295.689 97.0387 295.477 97.0387C295.251 97.0387 295.073 97.1182 294.942 97.2771C294.815 97.4326 294.751 97.6481 294.751 97.9236V99.2908H294.179V96.5776ZM297.455 98.019V97.5527H299.257V98.019H297.455ZM300.108 95.5814H301.57C301.761 95.5814 301.936 95.6097 302.095 95.6662C302.254 95.7227 302.388 95.8022 302.497 95.9047C302.611 96.0071 302.697 96.1308 302.757 96.2756C302.821 96.4204 302.853 96.5829 302.853 96.7631C302.853 96.9433 302.821 97.1058 302.757 97.2506C302.697 97.3955 302.611 97.5191 302.497 97.6216C302.388 97.724 302.254 97.8035 302.095 97.86C301.936 97.9165 301.761 97.9448 301.57 97.9448H300.717V99.2908H300.108V95.5814ZM301.517 97.4149C301.74 97.4149 301.915 97.3566 302.042 97.24C302.169 97.1235 302.233 96.9645 302.233 96.7631C302.233 96.5617 302.169 96.4028 302.042 96.2862C301.918 96.1696 301.745 96.1113 301.522 96.1113H300.717V97.4149H301.517ZM303.528 96.5776H304.037L304.1 96.9857C304.178 96.8585 304.277 96.7596 304.397 96.6889C304.521 96.6147 304.688 96.5776 304.9 96.5776H305.027V97.1129H304.773C304.657 97.1129 304.556 97.134 304.471 97.1764C304.386 97.2153 304.316 97.2718 304.259 97.346C304.206 97.4167 304.166 97.5032 304.137 97.6057C304.113 97.7046 304.1 97.8123 304.1 97.9289V99.2908H303.528V96.5776ZM305.426 97.9395C305.426 97.6604 305.48 97.4167 305.59 97.2082C305.703 96.9963 305.858 96.8338 306.056 96.7207C306.258 96.6041 306.487 96.5459 306.745 96.5459C307.007 96.5459 307.236 96.5988 307.434 96.7048C307.635 96.8108 307.793 96.9609 307.906 97.1552C308.022 97.3495 308.082 97.5774 308.086 97.8388C308.086 97.9095 308.081 97.9819 308.07 98.0561H306.025V98.0879C306.039 98.3246 306.113 98.5118 306.247 98.6496C306.381 98.7874 306.56 98.8562 306.782 98.8562C306.959 98.8562 307.107 98.8156 307.227 98.7344C307.348 98.6496 307.427 98.5312 307.466 98.3793H308.038C307.989 98.6549 307.854 98.881 307.635 99.0576C307.42 99.2342 307.15 99.3226 306.825 99.3226C306.542 99.3226 306.295 99.266 306.083 99.153C305.874 99.0364 305.712 98.8739 305.595 98.6655C305.482 98.4571 305.426 98.2151 305.426 97.9395ZM307.503 97.6375C307.478 97.4396 307.399 97.286 307.264 97.1764C307.134 97.0634 306.968 97.0069 306.766 97.0069C306.579 97.0069 306.417 97.0652 306.279 97.1817C306.145 97.2948 306.067 97.4467 306.046 97.6375H307.503ZM308.813 99.2908V96.5776H309.312L309.375 96.9327C309.569 96.6819 309.834 96.5529 310.17 96.5459C310.361 96.5459 310.529 96.5865 310.673 96.6677C310.818 96.7454 310.93 96.8691 311.007 97.0387C311.103 96.8797 311.226 96.7578 311.378 96.673C311.534 96.5882 311.723 96.5459 311.945 96.5459C312.094 96.5459 312.23 96.5706 312.353 96.62C312.477 96.666 312.583 96.7384 312.671 96.8373C312.76 96.9327 312.828 97.0581 312.878 97.2135C312.927 97.3654 312.952 97.5474 312.952 97.7593V99.2908H312.38V97.7646C312.38 97.5279 312.332 97.3478 312.237 97.2241C312.145 97.1005 312.004 97.0387 311.813 97.0387C311.611 97.0387 311.454 97.1093 311.341 97.2506C311.228 97.3884 311.172 97.5792 311.172 97.8229V99.2908H310.594V97.7646C310.594 97.2807 310.403 97.0387 310.022 97.0387C309.827 97.0387 309.672 97.1111 309.555 97.2559C309.442 97.4008 309.386 97.5951 309.386 97.8388V99.2908H308.813Z" fill="#29063E"/>
<rect x="44.5859" y="60.5117" width="51.4527" height="47.6917" rx="3.97431" fill="white"/>
<g filter="url(#filter9_d_9957_151789)">
<path fill-rule="evenodd" clip-rule="evenodd" d="M75.3169 78.8997C75.3169 78.8971 75.3169 78.8945 75.3169 78.8919C75.3169 76.0646 73.025 73.7727 70.1978 73.7727C67.3705 73.7727 65.0786 76.0646 65.0786 78.8919C65.0786 78.8945 65.0786 78.8971 65.0786 78.8996C63.2591 79.0191 61.8203 80.5327 61.8203 82.3824C61.8203 84.31 63.383 85.8727 65.3106 85.8727H75.0836C77.0112 85.8727 78.5739 84.31 78.5739 82.3824C78.5739 80.5331 77.1358 79.0198 75.3169 78.8997Z" fill="url(#paint13_radial_9957_151789)"/>
</g>
<path d="M53.2221 98.0806C53.2397 98.2997 53.3281 98.4763 53.487 98.6105C53.6495 98.7412 53.8597 98.8066 54.1176 98.8066C54.3437 98.8066 54.5256 98.7589 54.6634 98.6635C54.8047 98.5646 54.8754 98.4286 54.8754 98.2555C54.8754 98.1319 54.8365 98.0347 54.7588 97.964C54.6846 97.8899 54.5822 97.8333 54.4515 97.7945C54.3208 97.7556 54.137 97.715 53.9004 97.6726C53.6601 97.6302 53.4535 97.5755 53.2804 97.5083C53.1108 97.4377 52.9713 97.3317 52.8617 97.1904C52.7558 97.0491 52.7028 96.8636 52.7028 96.634C52.7028 96.422 52.7575 96.233 52.867 96.067C52.9801 95.9009 53.1355 95.772 53.3334 95.6801C53.5347 95.5883 53.7643 95.5424 54.0222 95.5424C54.2872 95.5424 54.5239 95.5918 54.7323 95.6907C54.9407 95.7897 55.105 95.9257 55.2251 96.0988C55.3452 96.2719 55.4106 96.4697 55.4212 96.6923H54.8224C54.8012 96.5015 54.7182 96.3478 54.5733 96.2313C54.4285 96.1147 54.2448 96.0564 54.0222 96.0564C53.8067 96.0564 53.6336 96.1041 53.5029 96.1995C53.3757 96.2913 53.3122 96.422 53.3122 96.5916C53.3122 96.7117 53.3493 96.8071 53.4234 96.8777C53.5012 96.9484 53.6036 97.0014 53.7308 97.0367C53.858 97.072 54.0399 97.1109 54.2766 97.1533C54.5168 97.1957 54.7235 97.2522 54.8966 97.3229C55.0697 97.3935 55.211 97.4977 55.3205 97.6355C55.43 97.7733 55.4848 97.9552 55.4848 98.1813C55.4848 98.4003 55.4265 98.5964 55.3099 98.7695C55.1933 98.9426 55.0308 99.0786 54.8224 99.1775C54.614 99.2729 54.3773 99.3206 54.1123 99.3206C53.8191 99.3206 53.5612 99.2676 53.3387 99.1616C53.1161 99.0557 52.9412 98.9091 52.814 98.7218C52.6904 98.5311 52.6268 98.3138 52.6233 98.07L53.2221 98.0806ZM56.514 95.4894C56.613 95.4894 56.696 95.5229 56.7631 95.5901C56.8302 95.6537 56.8638 95.7349 56.8638 95.8338C56.8638 95.9327 56.8302 96.0158 56.7631 96.0829C56.696 96.1465 56.613 96.1783 56.514 96.1783C56.4151 96.1783 56.3321 96.1465 56.265 96.0829C56.1979 96.0158 56.1643 95.9327 56.1643 95.8338C56.1643 95.7349 56.1979 95.6537 56.265 95.5901C56.3321 95.5229 56.4151 95.4894 56.514 95.4894ZM56.2279 96.5757H56.8002V99.2888H56.2279V96.5757ZM57.6261 96.5757H58.1243L58.1878 96.9307C58.3927 96.6728 58.6824 96.5439 59.0569 96.5439C59.2159 96.5439 59.3625 96.5686 59.4967 96.6181C59.631 96.664 59.7458 96.7382 59.8412 96.8406C59.9401 96.9431 60.016 97.0738 60.069 97.2328C60.122 97.3882 60.1485 97.5755 60.1485 97.7945V99.2888H59.5709V97.8263C59.5709 97.5684 59.5161 97.3723 59.4066 97.2381C59.2971 97.1038 59.1364 97.0367 58.9244 97.0367C58.6983 97.0367 58.5199 97.1162 58.3892 97.2752C58.262 97.4306 58.1984 97.6461 58.1984 97.9217V99.2888H57.6261V96.5757ZM63.5676 96.5757V99.1775C63.5676 99.5591 63.4545 99.8541 63.2284 100.062C63.0023 100.274 62.6526 100.38 62.1792 100.38C61.8118 100.38 61.5133 100.297 61.2837 100.131C61.054 99.9689 60.9269 99.7375 60.9021 99.4372H61.485C61.5204 99.5891 61.6016 99.7057 61.7288 99.7869C61.856 99.8717 62.0202 99.9141 62.2216 99.9141C62.7409 99.9141 63.0006 99.6615 63.0006 99.1563V98.8543C62.8027 99.151 62.5078 99.2994 62.1156 99.2994C61.8683 99.2994 61.6475 99.2447 61.4532 99.1351C61.2589 99.0221 61.107 98.8631 60.9975 98.6582C60.888 98.4498 60.8332 98.2043 60.8332 97.9217C60.8332 97.6496 60.888 97.4094 60.9975 97.201C61.1106 96.9926 61.2642 96.8318 61.4585 96.7188C61.6528 96.6022 61.8719 96.5439 62.1156 96.5439C62.3205 96.5439 62.4972 96.5845 62.6455 96.6658C62.7939 96.747 62.914 96.8583 63.0059 96.9996L63.0695 96.5757H63.5676ZM62.211 98.8172C62.4477 98.8172 62.6385 98.7359 62.7833 98.5734C62.9281 98.4074 63.0006 98.1937 63.0006 97.9323C63.0006 97.6638 62.9281 97.4465 62.7833 97.2805C62.6385 97.1109 62.4477 97.0261 62.211 97.0261C61.9743 97.0261 61.7835 97.1091 61.6387 97.2752C61.4939 97.4412 61.4214 97.6567 61.4214 97.9217C61.4214 98.1866 61.4939 98.4021 61.6387 98.5681C61.7835 98.7342 61.9743 98.8172 62.211 98.8172ZM64.3918 95.5795H64.9641V99.2888H64.3918V95.5795ZM65.6893 97.9376C65.6893 97.6585 65.7441 97.4147 65.8536 97.2063C65.9667 96.9943 66.1221 96.8318 66.3199 96.7188C66.5213 96.6022 66.7509 96.5439 67.0088 96.5439C67.2702 96.5439 67.4999 96.5969 67.6977 96.7029C67.8991 96.8089 68.0563 96.959 68.1693 97.1533C68.2859 97.3476 68.346 97.5755 68.3495 97.8369C68.3495 97.9075 68.3442 97.9799 68.3336 98.0541H66.2881V98.0859C66.3023 98.3226 66.3765 98.5099 66.5107 98.6476C66.6449 98.7854 66.8233 98.8543 67.0459 98.8543C67.2225 98.8543 67.3709 98.8137 67.491 98.7324C67.6111 98.6476 67.6906 98.5293 67.7295 98.3774H68.3018C68.2523 98.6529 68.1181 98.879 67.8991 99.0557C67.6836 99.2323 67.4133 99.3206 67.0883 99.3206C66.8057 99.3206 66.5584 99.2641 66.3464 99.151C66.138 99.0345 65.9755 98.872 65.8589 98.6635C65.7459 98.4551 65.6893 98.2131 65.6893 97.9376ZM67.7666 97.6355C67.7419 97.4377 67.6624 97.284 67.5281 97.1745C67.3974 97.0614 67.2314 97.0049 67.03 97.0049C66.8428 97.0049 66.6803 97.0632 66.5425 97.1798C66.4083 97.2928 66.3305 97.4447 66.3093 97.6355H67.7666ZM70.5442 95.5795H73.4428V96.12H72.2982V99.2888H71.6888V96.12H70.5442V95.5795ZM73.5324 97.9376C73.5324 97.6585 73.5871 97.4147 73.6967 97.2063C73.8097 96.9943 73.9651 96.8318 74.163 96.7188C74.3643 96.6022 74.594 96.5439 74.8519 96.5439C75.1133 96.5439 75.3429 96.5969 75.5407 96.7029C75.7421 96.8089 75.8993 96.959 76.0124 97.1533C76.1289 97.3476 76.189 97.5755 76.1925 97.8369C76.1925 97.9075 76.1872 97.9799 76.1766 98.0541H74.1312V98.0859C74.1453 98.3226 74.2195 98.5099 74.3537 98.6476C74.488 98.7854 74.6664 98.8543 74.889 98.8543C75.0656 98.8543 75.214 98.8137 75.3341 98.7324C75.4542 98.6476 75.5337 98.5293 75.5725 98.3774H76.1448C76.0954 98.6529 75.9611 98.879 75.7421 99.0557C75.5266 99.2323 75.2564 99.3206 74.9313 99.3206C74.6487 99.3206 74.4014 99.2641 74.1895 99.151C73.981 99.0345 73.8185 98.872 73.702 98.6635C73.5889 98.4551 73.5324 98.2131 73.5324 97.9376ZM75.6096 97.6355C75.5849 97.4377 75.5054 97.284 75.3712 97.1745C75.2405 97.0614 75.0744 97.0049 74.8731 97.0049C74.6858 97.0049 74.5233 97.0632 74.3855 97.1798C74.2513 97.2928 74.1736 97.4447 74.1524 97.6355H75.6096ZM76.9202 96.5757H77.4183L77.4819 96.9307C77.6868 96.6728 77.9764 96.5439 78.3509 96.5439C78.5099 96.5439 78.6565 96.5686 78.7907 96.6181C78.925 96.664 79.0398 96.7382 79.1352 96.8406C79.2341 96.9431 79.31 97.0738 79.363 97.2328C79.416 97.3882 79.4425 97.5755 79.4425 97.7945V99.2888H78.8649V97.8263C78.8649 97.5684 78.8102 97.3723 78.7006 97.2381C78.5911 97.1038 78.4304 97.0367 78.2184 97.0367C77.9923 97.0367 77.8139 97.1162 77.6832 97.2752C77.556 97.4306 77.4925 97.6461 77.4925 97.9217V99.2888H76.9202V96.5757ZM80.122 98.5258C80.122 98.2467 80.2191 98.0329 80.4134 97.8846C80.6112 97.7327 80.9009 97.6567 81.2825 97.6567H81.966V97.4924C81.966 97.3405 81.913 97.2222 81.8071 97.1374C81.7046 97.0491 81.558 97.0049 81.3672 97.0049C81.1977 97.0049 81.0599 97.042 80.9539 97.1162C80.8479 97.1869 80.7843 97.2822 80.7631 97.4023H80.2014C80.2297 97.1268 80.3498 96.9148 80.5618 96.7665C80.7737 96.6181 81.0511 96.5439 81.3937 96.5439C81.7576 96.5439 82.0385 96.6287 82.2363 96.7983C82.4341 96.9643 82.533 97.208 82.533 97.5295V98.5999C82.533 98.7271 82.5931 98.7907 82.7132 98.7907H82.8245V99.2888H82.5224C82.3423 99.2888 82.2133 99.2517 82.1356 99.1775C82.0614 99.1034 82.0243 98.9956 82.0243 98.8543C81.8194 99.1652 81.5209 99.3206 81.1288 99.3206C80.8214 99.3206 80.5759 99.25 80.3922 99.1086C80.212 98.9673 80.122 98.773 80.122 98.5258ZM81.2083 98.8755C81.445 98.8755 81.6287 98.8119 81.7594 98.6847C81.8936 98.5575 81.9625 98.388 81.966 98.176V98.0806H81.256C81.0758 98.0806 80.938 98.116 80.8426 98.1866C80.7508 98.2537 80.7049 98.3544 80.7049 98.4887C80.7049 98.6052 80.749 98.6989 80.8373 98.7695C80.9256 98.8402 81.0493 98.8755 81.2083 98.8755ZM83.4012 96.5757H83.8993L83.9629 96.9307C84.1678 96.6728 84.4575 96.5439 84.8319 96.5439C84.9909 96.5439 85.1375 96.5686 85.2717 96.6181C85.406 96.664 85.5208 96.7382 85.6162 96.8406C85.7151 96.9431 85.7911 97.0738 85.844 97.2328C85.897 97.3882 85.9235 97.5755 85.9235 97.7945V99.2888H85.3459V97.8263C85.3459 97.5684 85.2912 97.3723 85.1817 97.2381C85.0721 97.1038 84.9114 97.0367 84.6994 97.0367C84.4734 97.0367 84.2949 97.1162 84.1642 97.2752C84.0371 97.4306 83.9735 97.6461 83.9735 97.9217V99.2888H83.4012V96.5757ZM86.4122 97.0791V96.5757H86.8838V95.8179H87.4614V96.5757H88.1132V97.0791H87.4614V98.494C87.4614 98.5999 87.4826 98.6759 87.525 98.7218C87.5674 98.7642 87.6398 98.7854 87.7423 98.7854H88.1768V99.2888H87.6257C87.3678 99.2888 87.1788 99.2305 87.0587 99.1139C86.9421 98.9938 86.8838 98.8066 86.8838 98.5522V97.0791H86.4122Z" fill="#29063E"/>
<defs>
<filter id="filter0_d_9957_151789" x="172.294" y="36.604" width="26.5363" height="21.8864" filterUnits="userSpaceOnUse" color-interpolation-filters="sRGB">
<feFlood flood-opacity="0" result="BackgroundImageFix"/>
<feColorMatrix in="SourceAlpha" type="matrix" values="0 0 0 0 0 0 0 0 0 0 0 0 0 0 0 0 0 0 127 0" result="hardAlpha"/>
<feOffset dy="3.97567"/>
<feGaussianBlur stdDeviation="2.44657"/>
<feColorMatrix type="matrix" values="0 0 0 0 0.18539 0 0 0 0 0.0342188 0 0 0 0 0.304167 0 0 0 0.09 0"/>
<feBlend mode="normal" in2="BackgroundImageFix" result="effect1_dropShadow_9957_151789"/>
<feBlend mode="normal" in="SourceGraphic" in2="effect1_dropShadow_9957_151789" result="shape"/>
</filter>
<filter id="filter1_d_9957_151789" x="172.803" y="11.2008" width="25.7448" height="25.7436" filterUnits="userSpaceOnUse" color-interpolation-filters="sRGB">
<feFlood flood-opacity="0" result="BackgroundImageFix"/>
<feColorMatrix in="SourceAlpha" type="matrix" values="0 0 0 0 0 0 0 0 0 0 0 0 0 0 0 0 0 0 127 0" result="hardAlpha"/>
<feOffset dy="2.46159"/>
<feGaussianBlur stdDeviation="2.46159"/>
<feColorMatrix type="matrix" values="0 0 0 0 0.0588235 0 0 0 0 0.0588235 0 0 0 0 0.188235 0 0 0 0.1 0"/>
<feBlend mode="normal" in2="BackgroundImageFix" result="effect1_dropShadow_9957_151789"/>
<feBlend mode="normal" in="SourceGraphic" in2="effect1_dropShadow_9957_151789" result="shape"/>
</filter>
<filter id="filter2_d_9957_151789" x="201.28" y="32.397" width="25.7448" height="25.7436" filterUnits="userSpaceOnUse" color-interpolation-filters="sRGB">
<feFlood flood-opacity="0" result="BackgroundImageFix"/>
<feColorMatrix in="SourceAlpha" type="matrix" values="0 0 0 0 0 0 0 0 0 0 0 0 0 0 0 0 0 0 127 0" result="hardAlpha"/>
<feOffset dy="2.46159"/>
<feGaussianBlur stdDeviation="2.46159"/>
<feColorMatrix type="matrix" values="0 0 0 0 0.0588235 0 0 0 0 0.0588235 0 0 0 0 0.188235 0 0 0 0.1 0"/>
<feBlend mode="normal" in2="BackgroundImageFix" result="effect1_dropShadow_9957_151789"/>
<feBlend mode="normal" in="SourceGraphic" in2="effect1_dropShadow_9957_151789" result="shape"/>
</filter>
<filter id="filter3_d_9957_151789" x="144.319" y="29.7476" width="25.7448" height="25.7436" filterUnits="userSpaceOnUse" color-interpolation-filters="sRGB">
<feFlood flood-opacity="0" result="BackgroundImageFix"/>
<feColorMatrix in="SourceAlpha" type="matrix" values="0 0 0 0 0 0 0 0 0 0 0 0 0 0 0 0 0 0 127 0" result="hardAlpha"/>
<feOffset dy="2.46159"/>
<feGaussianBlur stdDeviation="2.46159"/>
<feColorMatrix type="matrix" values="0 0 0 0 0.0588235 0 0 0 0 0.0588235 0 0 0 0 0.188235 0 0 0 0.1 0"/>
<feBlend mode="normal" in2="BackgroundImageFix" result="effect1_dropShadow_9957_151789"/>
<feBlend mode="normal" in="SourceGraphic" in2="effect1_dropShadow_9957_151789" result="shape"/>
</filter>
<filter id="filter4_bd_9957_151789" x="173.629" y="140.916" width="19.2113" height="22.9496" filterUnits="userSpaceOnUse" color-interpolation-filters="sRGB">
<feFlood flood-opacity="0" result="BackgroundImageFix"/>
<feGaussianBlur in="BackgroundImageFix" stdDeviation="1.33428"/>
<feComposite in2="SourceAlpha" operator="in" result="effect1_backgroundBlur_9957_151789"/>
<feColorMatrix in="SourceAlpha" type="matrix" values="0 0 0 0 0 0 0 0 0 0 0 0 0 0 0 0 0 0 127 0" result="hardAlpha"/>
<feOffset dy="3.46913"/>
<feGaussianBlur stdDeviation="2.13485"/>
<feColorMatrix type="matrix" values="0 0 0 0 0.18539 0 0 0 0 0.0342188 0 0 0 0 0.304167 0 0 0 0.09 0"/>
<feBlend mode="normal" in2="effect1_backgroundBlur_9957_151789" result="effect2_dropShadow_9957_151789"/>
<feBlend mode="normal" in="SourceGraphic" in2="effect2_dropShadow_9957_151789" result="shape"/>
</filter>
<filter id="filter5_bd_9957_151789" x="178.301" y="144.652" width="19.2113" height="22.9496" filterUnits="userSpaceOnUse" color-interpolation-filters="sRGB">
<feFlood flood-opacity="0" result="BackgroundImageFix"/>
<feGaussianBlur in="BackgroundImageFix" stdDeviation="1.33428"/>
<feComposite in2="SourceAlpha" operator="in" result="effect1_backgroundBlur_9957_151789"/>
<feColorMatrix in="SourceAlpha" type="matrix" values="0 0 0 0 0 0 0 0 0 0 0 0 0 0 0 0 0 0 127 0" result="hardAlpha"/>
<feOffset dy="3.46913"/>
<feGaussianBlur stdDeviation="2.13485"/>
<feColorMatrix type="matrix" values="0 0 0 0 0.18539 0 0 0 0 0.0342188 0 0 0 0 0.304167 0 0 0 0.09 0"/>
<feBlend mode="normal" in2="effect1_backgroundBlur_9957_151789" result="effect2_dropShadow_9957_151789"/>
<feBlend mode="normal" in="SourceGraphic" in2="effect2_dropShadow_9957_151789" result="shape"/>
</filter>
<filter id="filter6_d_9957_151789" x="148.818" y="92.9348" width="73.7149" height="73.7169" filterUnits="userSpaceOnUse" color-interpolation-filters="sRGB">
<feFlood flood-opacity="0" result="BackgroundImageFix"/>
<feColorMatrix in="SourceAlpha" type="matrix" values="0 0 0 0 0 0 0 0 0 0 0 0 0 0 0 0 0 0 127 0" result="hardAlpha"/>
<feOffset dy="10.1494"/>
<feGaussianBlur stdDeviation="10.1494"/>
<feColorMatrix type="matrix" values="0 0 0 0 0.0588235 0 0 0 0 0.0588235 0 0 0 0 0.188235 0 0 0 0.1 0"/>
<feBlend mode="normal" in2="BackgroundImageFix" result="effect1_dropShadow_9957_151789"/>
<feBlend mode="normal" in="SourceGraphic" in2="effect1_dropShadow_9957_151789" result="shape"/>
</filter>
<filter id="filter7_d_9957_151789" x="290.174" y="69.3219" width="22.5356" height="28.9226" filterUnits="userSpaceOnUse" color-interpolation-filters="sRGB">
<feFlood flood-opacity="0" result="BackgroundImageFix"/>
<feColorMatrix in="SourceAlpha" type="matrix" values="0 0 0 0 0 0 0 0 0 0 0 0 0 0 0 0 0 0 127 0" result="hardAlpha"/>
<feOffset dy="3.99128"/>
<feGaussianBlur stdDeviation="2.45617"/>
<feColorMatrix type="matrix" values="0 0 0 0 0.18539 0 0 0 0 0.0342188 0 0 0 0 0.304167 0 0 0 0.05 0"/>
<feBlend mode="normal" in2="BackgroundImageFix" result="effect1_dropShadow_9957_151789"/>
<feBlend mode="normal" in="SourceGraphic" in2="effect1_dropShadow_9957_151789" result="shape"/>
</filter>
<filter id="filter8_f_9957_151789" x="291.425" y="81.8762" width="20.0319" height="11.1251" filterUnits="userSpaceOnUse" color-interpolation-filters="sRGB">
<feFlood flood-opacity="0" result="BackgroundImageFix"/>
<feBlend mode="normal" in="SourceGraphic" in2="BackgroundImageFix" result="shape"/>
<feGaussianBlur stdDeviation="1.83023" result="effect1_foregroundBlur_9957_151789"/>
</filter>
<filter id="filter9_d_9957_151789" x="56.9272" y="72.8552" width="26.5363" height="21.8864" filterUnits="userSpaceOnUse" color-interpolation-filters="sRGB">
<feFlood flood-opacity="0" result="BackgroundImageFix"/>
<feColorMatrix in="SourceAlpha" type="matrix" values="0 0 0 0 0 0 0 0 0 0 0 0 0 0 0 0 0 0 127 0" result="hardAlpha"/>
<feOffset dy="3.97567"/>
<feGaussianBlur stdDeviation="2.44657"/>
<feColorMatrix type="matrix" values="0 0 0 0 0.18539 0 0 0 0 0.0342188 0 0 0 0 0.304167 0 0 0 0.09 0"/>
<feBlend mode="normal" in2="BackgroundImageFix" result="effect1_dropShadow_9957_151789"/>
<feBlend mode="normal" in="SourceGraphic" in2="effect1_dropShadow_9957_151789" result="shape"/>
</filter>
<radialGradient id="paint0_radial_9957_151789" cx="0" cy="0" r="1" gradientUnits="userSpaceOnUse" gradientTransform="translate(177.897 37.5103) rotate(42.733) scale(33.2475 40.8095)">
<stop stop-color="#F8EFF5"/>
<stop offset="1" stop-color="#C2A3B9"/>
</radialGradient>
<linearGradient id="paint1_linear_9957_151789" x1="156.72" y1="36.9556" x2="154.265" y2="44.2079" gradientUnits="userSpaceOnUse">
<stop stop-color="#114A8B"/>
<stop offset="1" stop-color="#0669BC"/>
</linearGradient>
<linearGradient id="paint2_linear_9957_151789" x1="157.486" y1="40.3353" x2="156.918" y2="40.5273" gradientUnits="userSpaceOnUse">
<stop stop-opacity="0.3"/>
<stop offset="0.071" stop-opacity="0.2"/>
<stop offset="0.321" stop-opacity="0.1"/>
<stop offset="0.623" stop-opacity="0.05"/>
<stop offset="1" stop-opacity="0"/>
</linearGradient>
<linearGradient id="paint3_linear_9957_151789" x1="157.179" y1="36.744" x2="159.873" y2="43.9232" gradientUnits="userSpaceOnUse">
<stop stop-color="#3CCBF4"/>
<stop offset="1" stop-color="#2892DF"/>
</linearGradient>
<radialGradient id="paint4_radial_9957_151789" cx="0" cy="0" r="1" gradientUnits="userSpaceOnUse" gradientTransform="translate(173.523 138.237) rotate(54.6329) scale(35.2216 40.0016)">
<stop stop-color="white"/>
<stop offset="1" stop-color="#A77A9A"/>
</radialGradient>
<radialGradient id="paint5_radial_9957_151789" cx="0" cy="0" r="1" gradientUnits="userSpaceOnUse" gradientTransform="translate(183.022 147.309) rotate(56.3626) scale(28.089 31.9009)">
<stop stop-color="white"/>
<stop offset="1" stop-color="#A77A9A"/>
</radialGradient>
<radialGradient id="paint6_radial_9957_151789" cx="0" cy="0" r="1" gradientUnits="userSpaceOnUse" gradientTransform="translate(183.022 147.309) rotate(56.3626) scale(28.089 31.9009)">
<stop stop-color="white"/>
<stop offset="1" stop-color="#DFB9D4"/>
</radialGradient>
<radialGradient id="paint7_radial_9957_151789" cx="0" cy="0" r="1" gradientUnits="userSpaceOnUse" gradientTransform="translate(296.051 80.8379) rotate(58.984) scale(31.6243 34.3912)">
<stop stop-color="#F1E5EE"/>
<stop offset="1" stop-color="#C4A1BA"/>
</radialGradient>
<radialGradient id="paint8_radial_9957_151789" cx="0" cy="0" r="1" gradientUnits="userSpaceOnUse" gradientTransform="translate(296.816 81.6866) rotate(22.486) scale(14.9907 13.0454)">
<stop stop-color="white"/>
<stop offset="1" stop-color="#DFB9D4"/>
</radialGradient>
<radialGradient id="paint9_radial_9957_151789" cx="0" cy="0" r="1" gradientUnits="userSpaceOnUse" gradientTransform="translate(296.051 75.5332) rotate(58.9857) scale(31.6258 34.3918)">
<stop stop-color="#F1E5EE"/>
<stop offset="1" stop-color="#C4A1BA"/>
</radialGradient>
<radialGradient id="paint10_radial_9957_151789" cx="0" cy="0" r="1" gradientUnits="userSpaceOnUse" gradientTransform="translate(296.816 76.3822) rotate(22.486) scale(14.9907 13.0454)">
<stop stop-color="white"/>
<stop offset="1" stop-color="#DFB9D4"/>
</radialGradient>
<radialGradient id="paint11_radial_9957_151789" cx="0" cy="0" r="1" gradientUnits="userSpaceOnUse" gradientTransform="translate(296.051 70.2295) rotate(58.9839) scale(31.6242 34.3912)">
<stop stop-color="#F1E5EE"/>
<stop offset="1" stop-color="#C4A1BA"/>
</radialGradient>
<radialGradient id="paint12_radial_9957_151789" cx="0" cy="0" r="1" gradientUnits="userSpaceOnUse" gradientTransform="translate(296.816 71.0789) rotate(22.486) scale(14.9907 13.0454)">
<stop stop-color="white"/>
<stop offset="1" stop-color="#DFB9D4"/>
</radialGradient>
<radialGradient id="paint13_radial_9957_151789" cx="0" cy="0" r="1" gradientUnits="userSpaceOnUse" gradientTransform="translate(62.5296 73.7615) rotate(42.733) scale(33.2475 40.8095)">
<stop stop-color="#F8EFF5"/>
<stop offset="1" stop-color="#C2A3B9"/>
</radialGradient>
<clipPath id="clip0_9957_151789">
<rect width="10.3678" height="10.3678" fill="white" transform="translate(180.492 16.427)"/>
</clipPath>
<clipPath id="clip1_9957_151789">
<rect width="10.3678" height="10.3678" fill="white" transform="translate(208.969 37.6233)"/>
</clipPath>
<clipPath id="clip2_9957_151789">
<rect width="10.3678" height="10.3678" fill="white" transform="translate(152.008 34.9739)"/>
</clipPath>
<clipPath id="clip3_9957_151789">
<rect width="8.71524" height="8.71524" fill="white" transform="translate(152.836 35.8037)"/>
</clipPath>
</defs>
</svg>
