<svg width="473" height="452" viewBox="0 0 473 452" fill="none" xmlns="http://www.w3.org/2000/svg">
<g clip-path="url(#clip0_14597_60926)">
<rect width="473" height="452" fill="#F5F3F6"/>
<g opacity="0.5">
<circle cx="236.5" cy="225.5" r="191.5" fill="url(#paint0_radial_14597_60926)"/>
<circle cx="236.5" cy="225.5" r="191.5" fill="url(#paint1_radial_14597_60926)"/>
<circle cx="236.5" cy="225.5" r="191.5" fill="url(#paint2_radial_14597_60926)"/>
</g>
<rect x="44" y="72" width="385" height="276" rx="20" fill="url(#paint3_radial_14597_60926)"/>
<path d="M272.49 134.01C277.504 134.004 282.139 136.68 284.641 141.025L319.972 202.394C322.465 206.723 322.462 212.053 319.964 216.38L284.44 277.9C281.942 282.226 277.329 284.893 272.334 284.899L201.51 284.99C196.496 284.996 191.861 282.32 189.359 277.975L154.028 216.606C151.535 212.277 151.538 206.947 154.036 202.62L189.56 141.1C192.058 136.774 196.671 134.107 201.666 134.101L272.49 134.01Z" fill="#DFDAE2"/>
<path d="M272.49 134.01C277.504 134.004 282.139 136.68 284.641 141.025L319.972 202.394C322.465 206.723 322.462 212.053 319.964 216.38L284.44 277.9C281.942 282.226 277.329 284.893 272.334 284.899L201.51 284.99C196.496 284.996 191.861 282.32 189.359 277.975L154.028 216.606C151.535 212.277 151.538 206.947 154.036 202.62L189.56 141.1C192.058 136.774 196.671 134.107 201.666 134.101L272.49 134.01Z" fill="url(#paint4_linear_14597_60926)"/>
<path d="M276.568 159.446C281.875 160.86 286.018 165.007 287.43 170.314L300.172 218.224C301.576 223.502 300.064 229.128 296.205 232.992L261.038 268.201C257.171 272.072 251.535 273.588 246.248 272.178L198.429 259.431C193.122 258.016 188.978 253.87 187.567 248.562L174.824 200.652C173.421 195.374 174.932 189.748 178.792 185.884L213.959 150.675C217.825 146.805 223.462 145.289 228.748 146.698L276.568 159.446Z" fill="#DFDAE2"/>
<path d="M276.568 159.446C281.875 160.86 286.018 165.007 287.43 170.314L300.172 218.224C301.576 223.502 300.064 229.128 296.205 232.992L261.038 268.201C257.171 272.072 251.535 273.588 246.248 272.178L198.429 259.431C193.122 258.016 188.978 253.87 187.567 248.562L174.824 200.652C173.421 195.374 174.932 189.748 178.792 185.884L213.959 150.675C217.825 146.805 223.462 145.289 228.748 146.698L276.568 159.446Z" fill="url(#paint5_linear_14597_60926)"/>
<path d="M273.743 179.927C278.091 182.43 280.768 187.069 280.758 192.087L280.694 226.561C280.685 231.55 278.021 236.158 273.701 238.655L243.728 255.983C239.401 258.485 234.068 258.49 229.737 255.996L199.918 238.831C195.569 236.328 192.893 231.689 192.902 226.672L192.966 192.198C192.976 187.208 195.64 182.601 199.959 180.103L229.932 162.775C234.26 160.273 239.592 160.268 243.924 162.762L273.743 179.927Z" fill="#DFDAE2"/>
<path d="M273.743 179.927C278.091 182.43 280.768 187.069 280.758 192.087L280.694 226.561C280.685 231.55 278.021 236.158 273.701 238.655L243.728 255.983C239.401 258.485 234.068 258.49 229.737 255.996L199.918 238.831C195.569 236.328 192.893 231.689 192.902 226.672L192.966 192.198C192.976 187.208 195.64 182.601 199.959 180.103L229.932 162.775C234.26 160.273 239.592 160.268 243.924 162.762L273.743 179.927Z" fill="url(#paint6_linear_14597_60926)"/>
<path fill-rule="evenodd" clip-rule="evenodd" d="M236.999 77.7688C242.799 77.7688 247.501 73.0666 247.501 67.2662C247.501 61.4658 242.799 56.7637 236.999 56.7637C231.199 56.7637 226.496 61.4658 226.496 67.2662C226.496 73.0666 231.199 77.7688 236.999 77.7688ZM209.994 80.1328C215.795 80.1328 220.497 75.4306 220.497 69.6302C220.497 63.8298 215.795 59.1276 209.994 59.1276C204.194 59.1276 199.492 63.8298 199.492 69.6302C199.492 75.4306 204.194 80.1328 209.994 80.1328ZM194.32 76.6404C194.32 82.4408 189.618 87.143 183.817 87.143C178.017 87.143 173.315 82.4408 173.315 76.6404C173.315 70.84 178.017 66.1379 183.817 66.1379C189.618 66.1379 194.32 70.84 194.32 76.6404ZM159.253 98.5978C165.054 98.5978 169.756 93.8956 169.756 88.0952C169.756 82.2948 165.054 77.5927 159.253 77.5927C153.453 77.5927 148.751 82.2948 148.751 88.0952C148.751 93.8956 153.453 98.5978 159.253 98.5978ZM147.551 103.645C147.551 109.445 142.849 114.147 137.048 114.147C131.248 114.147 126.546 109.445 126.546 103.645C126.546 97.8445 131.248 93.1423 137.048 93.1423C142.849 93.1423 147.551 97.8445 147.551 103.645ZM117.881 133.317C123.682 133.317 128.384 128.615 128.384 122.814C128.384 117.014 123.682 112.312 117.881 112.312C112.081 112.312 107.379 117.014 107.379 122.814C107.379 128.615 112.081 133.317 117.881 133.317ZM112.837 145.014C112.837 150.815 108.135 155.517 102.334 155.517C96.5337 155.517 91.8316 150.815 91.8316 145.014C91.8316 139.214 96.5337 134.512 102.334 134.512C108.135 134.512 112.837 139.214 112.837 145.014ZM90.8768 180.081C96.6772 180.081 101.379 175.379 101.379 169.578C101.379 163.778 96.6772 159.076 90.8768 159.076C85.0764 159.076 80.3742 163.778 80.3742 169.578C80.3742 175.379 85.0764 180.081 90.8768 180.081ZM94.3691 195.758C94.3691 201.559 89.6669 206.261 83.8665 206.261C78.0661 206.261 73.364 201.559 73.364 195.758C73.364 189.958 78.0661 185.256 83.8665 185.256C89.6669 185.256 94.3691 189.958 94.3691 195.758ZM81.5026 233.265C87.303 233.265 92.0051 228.563 92.0051 222.763C92.0051 216.962 87.303 212.26 81.5026 212.26C75.7022 212.26 71 216.962 71 222.763C71 228.563 75.7022 233.265 81.5026 233.265ZM94.3691 249.764C94.3691 255.565 89.6669 260.267 83.8665 260.267C78.0661 260.267 73.364 255.565 73.364 249.764C73.364 243.964 78.0661 239.262 83.8665 239.262C89.6669 239.262 94.3691 243.964 94.3691 249.764ZM314.745 98.5978C320.545 98.5978 325.247 93.8956 325.247 88.0952C325.247 82.2948 320.545 77.5927 314.745 77.5927C308.944 77.5927 304.242 82.2948 304.242 88.0952C304.242 93.8956 308.944 98.5978 314.745 98.5978ZM300.688 76.6404C300.688 82.4408 295.986 87.143 290.186 87.143C284.385 87.143 279.683 82.4408 279.683 76.6404C279.683 70.84 284.385 66.1379 290.186 66.1379C295.986 66.1379 300.688 70.84 300.688 76.6404ZM264.003 80.1328C269.804 80.1328 274.506 75.4306 274.506 69.6302C274.506 63.8298 269.804 59.1276 264.003 59.1276C258.203 59.1276 253.501 63.8298 253.501 69.6302C253.501 75.4306 258.203 80.1328 264.003 80.1328ZM347.451 103.645C347.451 109.445 342.749 114.147 336.949 114.147C331.148 114.147 326.446 109.445 326.446 103.645C326.446 97.8445 331.148 93.1423 336.949 93.1423C342.749 93.1423 347.451 97.8445 347.451 103.645ZM366.618 122.815C366.618 128.615 361.916 133.317 356.116 133.317C350.315 133.317 345.613 128.615 345.613 122.815C345.613 117.014 350.315 112.312 356.116 112.312C361.916 112.312 366.618 117.014 366.618 122.815ZM382.168 145.014C382.168 150.815 377.466 155.517 371.665 155.517C365.865 155.517 361.163 150.815 361.163 145.014C361.163 139.214 365.865 134.512 371.665 134.512C377.466 134.512 382.168 139.214 382.168 145.014ZM393.621 169.578C393.621 175.379 388.919 180.081 383.119 180.081C377.318 180.081 372.616 175.379 372.616 169.578C372.616 163.778 377.318 159.076 383.119 159.076C388.919 159.076 393.621 163.778 393.621 169.578ZM400.635 195.758C400.635 201.559 395.933 206.261 390.133 206.261C384.332 206.261 379.63 201.559 379.63 195.758C379.63 189.958 384.332 185.256 390.133 185.256C395.933 185.256 400.635 189.958 400.635 195.758ZM392.496 233.265C398.296 233.265 402.998 228.563 402.998 222.763C402.998 216.962 398.296 212.26 392.496 212.26C386.695 212.26 381.993 216.962 381.993 222.763C381.993 228.563 386.695 233.265 392.496 233.265ZM390.133 260.267C395.933 260.267 400.635 255.565 400.635 249.764C400.635 243.964 395.933 239.262 390.133 239.262C384.332 239.262 379.63 243.964 379.63 249.764C379.63 255.565 384.332 260.267 390.133 260.267Z" fill="url(#paint7_radial_14597_60926)"/>
<path fill-rule="evenodd" clip-rule="evenodd" d="M235.689 109.859C241.489 109.859 246.191 105.156 246.191 99.3561C246.191 93.5557 241.489 88.8535 235.689 88.8535C229.888 88.8535 225.186 93.5557 225.186 99.3561C225.186 105.156 229.888 109.859 235.689 109.859ZM207.142 113.525C212.943 113.525 217.645 108.822 217.645 103.022C217.645 97.2216 212.943 92.5195 207.142 92.5195C201.342 92.5195 196.64 97.2216 196.64 103.022C196.64 108.822 201.342 113.525 207.142 113.525ZM189.568 113.805C189.568 119.606 184.866 124.308 179.066 124.308C173.265 124.308 168.563 119.606 168.563 113.805C168.563 108.005 173.265 103.303 179.066 103.303C184.866 103.303 189.568 108.005 189.568 113.805ZM154.425 141.553C160.226 141.553 164.928 136.851 164.928 131.05C164.928 125.25 160.226 120.548 154.425 120.548C148.625 120.548 143.923 125.25 143.923 131.05C143.923 136.851 148.625 141.553 154.425 141.553ZM145.194 153.753C145.194 159.553 140.492 164.256 134.691 164.256C128.891 164.256 124.189 159.553 124.189 153.753C124.189 147.953 128.891 143.25 134.691 143.25C140.492 143.25 145.194 147.953 145.194 153.753ZM121.038 191.058C126.839 191.058 131.541 186.356 131.541 180.556C131.541 174.755 126.839 170.053 121.038 170.053C115.238 170.053 110.536 174.755 110.536 180.556C110.536 186.356 115.238 191.058 121.038 191.058ZM124.771 209.863C124.771 215.663 120.069 220.365 114.268 220.365C108.468 220.365 103.766 215.663 103.766 209.863C103.766 204.062 108.468 199.36 114.268 199.36C120.069 199.36 124.771 204.062 124.771 209.863ZM114.794 250.441C120.594 250.441 125.297 245.739 125.297 239.938C125.297 234.138 120.594 229.436 114.794 229.436C108.994 229.436 104.292 234.138 104.292 239.938C104.292 245.739 108.994 250.441 114.794 250.441ZM301.599 111.85C301.599 117.65 296.897 122.352 291.096 122.352C285.296 122.352 280.594 117.65 280.594 111.85C280.594 106.05 285.296 101.347 291.096 101.347C296.897 101.347 301.599 106.05 301.599 111.85ZM262.652 112.557C268.453 112.557 273.155 107.855 273.155 102.054C273.155 96.2541 268.453 91.5519 262.652 91.5519C256.852 91.5519 252.15 96.2541 252.15 102.054C252.15 107.855 256.852 112.557 262.652 112.557ZM316.773 138.951C322.573 138.951 327.276 134.249 327.276 128.449C327.276 122.648 322.573 117.946 316.773 117.946C310.973 117.946 306.271 122.648 306.271 128.449C306.271 134.249 310.973 138.951 316.773 138.951ZM337.289 160.947C343.09 160.947 347.792 156.245 347.792 150.444C347.792 144.644 343.09 139.942 337.289 139.942C331.489 139.942 326.787 144.644 326.787 150.444C326.787 156.245 331.489 160.947 337.289 160.947ZM351.87 187.257C357.671 187.257 362.373 182.555 362.373 176.755C362.373 170.954 357.671 166.252 351.87 166.252C346.07 166.252 341.368 170.954 341.368 176.755C341.368 182.555 346.07 187.257 351.87 187.257ZM359.654 216.306C365.454 216.306 370.156 211.604 370.156 205.804C370.156 200.003 365.454 195.301 359.654 195.301C353.854 195.301 349.151 200.003 349.151 205.804C349.151 211.604 353.854 216.306 359.654 216.306ZM360.177 246.387C365.978 246.387 370.68 241.685 370.68 235.884C370.68 230.084 365.978 225.382 360.177 225.382C354.377 225.382 349.675 230.084 349.675 235.884C349.675 241.685 354.377 246.387 360.177 246.387Z" fill="url(#paint8_radial_14597_60926)"/>
<g filter="url(#filter0_d_14597_60926)">
<path d="M267.619 141.817C268.46 140.387 270.249 139.828 271.754 140.525C273.294 141.239 274.017 143.024 273.408 144.608L243.465 222.441C241.24 228.224 234.374 230.653 229.007 227.554C224.156 224.753 222.516 218.536 225.355 213.707L267.619 141.817Z" fill="url(#paint9_linear_14597_60926)"/>
<circle cx="233.666" cy="217.615" r="5.53923" fill="white"/>
<path d="M272.273 134.083C273.825 132.996 275.972 133.997 276.138 135.885L277.432 150.682C277.597 152.57 275.657 153.928 273.939 153.127L260.477 146.85C258.76 146.049 258.553 143.689 260.106 142.602L272.273 134.083Z" fill="white"/>
</g>
<g filter="url(#filter1_d_14597_60926)">
<path opacity="0.92" d="M315.404 506.298V449.557C315.404 447.387 314.519 445.31 312.952 443.808L269.268 401.914C267.701 400.412 266.816 398.335 266.816 396.165V387.614" stroke="url(#paint10_radial_14597_60926)" stroke-width="1.59307" stroke-linecap="round"/>
<rect x="143.082" y="254.766" width="185.557" height="129.011" rx="8.8362" fill="url(#paint11_radial_14597_60926)"/>
<rect x="143.082" y="254.766" width="185.557" height="129.011" rx="8.8362" fill="url(#paint12_radial_14597_60926)"/>
<rect x="143.082" y="254.766" width="185.557" height="129.011" rx="8.8362" stroke="url(#paint13_radial_14597_60926)" stroke-width="3.53448"/>
<rect x="143.082" y="254.766" width="185.557" height="129.011" rx="8.8362" stroke="url(#paint14_radial_14597_60926)" stroke-width="3.53448"/>
<g filter="url(#filter2_d_14597_60926)">
<rect x="164.062" y="284.064" width="63.7229" height="63.7229" rx="12.7446" fill="url(#paint15_linear_14597_60926)" shape-rendering="crispEdges"/>
<path d="M191.196 296.697V304.965H193.554V296.697H191.196ZM172.637 296.685V304.965H175.017V298.678H176.86C177.472 298.678 177.904 298.827 178.199 299.139C178.572 299.531 178.726 300.166 178.726 301.328V304.962H181.031V300.387C181.031 297.124 178.93 296.682 176.873 296.682H172.637M194.993 296.697V304.965H198.819C200.857 304.965 201.522 304.628 202.243 303.878C202.751 303.349 203.08 302.19 203.08 300.923C203.08 299.761 202.801 298.724 202.318 298.08C201.443 296.924 200.186 296.7 198.305 296.7H194.993V296.697ZM197.332 298.497H198.345C199.816 298.497 200.769 299.151 200.769 300.848C200.769 302.545 199.816 303.199 198.345 303.199H197.332V298.497ZM187.794 296.697L185.825 303.249L183.937 296.697H181.391L184.085 304.965H187.484L190.199 296.697H187.794ZM204.177 304.965H206.535V296.697H204.174L204.177 304.965ZM210.79 296.7L207.495 304.962H209.821L210.342 303.501H214.24L214.732 304.962H217.256L213.935 296.7H210.79ZM218.472 305.217C218.065 305.217 217.736 304.89 217.736 304.488C217.736 304.087 218.065 303.76 218.472 303.76C218.88 303.76 219.209 304.087 219.209 304.488C219.209 304.89 218.88 305.217 218.472 305.217ZM218.472 303.9C218.143 303.9 217.889 304.152 217.889 304.488C217.889 304.825 218.143 305.077 218.472 305.077C218.802 305.077 219.056 304.825 219.056 304.488C219.056 304.149 218.802 303.9 218.472 303.9ZM218.604 304.874L218.463 304.575H218.378V304.874H218.203V304.099H218.523C218.683 304.099 218.783 304.214 218.783 304.342C218.783 304.448 218.714 304.516 218.639 304.547L218.805 304.874H218.604ZM218.501 304.242H218.378V304.445H218.501C218.567 304.445 218.607 304.398 218.607 304.345C218.607 304.289 218.567 304.242 218.501 304.242ZM212.324 298.207L213.753 302.078H210.85L212.324 298.207Z" fill="#DFDAE2"/>
<path d="M191.196 296.697V304.965H193.554V296.697H191.196ZM172.637 296.685V304.965H175.017V298.678H176.86C177.472 298.678 177.904 298.827 178.199 299.139C178.572 299.531 178.726 300.166 178.726 301.328V304.962H181.031V300.387C181.031 297.124 178.93 296.682 176.873 296.682H172.637M194.993 296.697V304.965H198.819C200.857 304.965 201.522 304.628 202.243 303.878C202.751 303.349 203.08 302.19 203.08 300.923C203.08 299.761 202.801 298.724 202.318 298.08C201.443 296.924 200.186 296.7 198.305 296.7H194.993V296.697ZM197.332 298.497H198.345C199.816 298.497 200.769 299.151 200.769 300.848C200.769 302.545 199.816 303.199 198.345 303.199H197.332V298.497ZM187.794 296.697L185.825 303.249L183.937 296.697H181.391L184.085 304.965H187.484L190.199 296.697H187.794ZM204.177 304.965H206.535V296.697H204.174L204.177 304.965ZM210.79 296.7L207.495 304.962H209.821L210.342 303.501H214.24L214.732 304.962H217.256L213.935 296.7H210.79ZM218.472 305.217C218.065 305.217 217.736 304.89 217.736 304.488C217.736 304.087 218.065 303.76 218.472 303.76C218.88 303.76 219.209 304.087 219.209 304.488C219.209 304.89 218.88 305.217 218.472 305.217ZM218.472 303.9C218.143 303.9 217.889 304.152 217.889 304.488C217.889 304.825 218.143 305.077 218.472 305.077C218.802 305.077 219.056 304.825 219.056 304.488C219.056 304.149 218.802 303.9 218.472 303.9ZM218.604 304.874L218.463 304.575H218.378V304.874H218.203V304.099H218.523C218.683 304.099 218.783 304.214 218.783 304.342C218.783 304.448 218.714 304.516 218.639 304.547L218.805 304.874H218.604ZM218.501 304.242H218.378V304.445H218.501C218.567 304.445 218.607 304.398 218.607 304.345C218.607 304.289 218.567 304.242 218.501 304.242ZM212.324 298.207L213.753 302.078H210.85L212.324 298.207Z" fill="url(#paint16_linear_14597_60926)"/>
<path d="M191.663 319.744V317.757C191.858 317.745 192.055 317.732 192.256 317.726C197.743 317.555 201.346 322.394 201.346 322.394C201.346 322.394 197.458 327.74 193.288 327.74C192.686 327.74 192.149 327.644 191.666 327.482V321.463C193.802 321.718 194.231 322.652 195.517 324.773L198.373 322.387C198.373 322.387 196.288 319.681 192.773 319.681C192.388 319.678 192.024 319.706 191.663 319.744ZM191.663 313.183V316.15C191.861 316.135 192.058 316.122 192.256 316.116C199.888 315.861 204.861 322.313 204.861 322.313C204.861 322.313 199.148 329.185 193.2 329.185C192.654 329.185 192.143 329.135 191.663 329.051V330.885C192.074 330.938 192.497 330.966 192.943 330.966C198.48 330.966 202.484 328.167 206.363 324.854C207.006 325.364 209.636 326.604 210.179 327.146C206.491 330.2 197.9 332.663 193.027 332.663C192.557 332.663 192.105 332.635 191.663 332.592V335.17H212.709V313.183H191.663ZM191.663 327.485V329.051C186.543 328.148 185.119 322.879 185.119 322.879C185.119 322.879 187.578 320.183 191.663 319.747V321.466C191.66 321.466 191.657 321.466 191.654 321.466C189.512 321.21 187.838 323.194 187.838 323.194C187.838 323.194 188.775 326.526 191.663 327.485ZM182.567 322.649C182.567 322.649 185.602 318.215 191.663 317.757V316.15C184.95 316.683 179.137 322.31 179.137 322.31C179.137 322.31 182.429 331.729 191.663 332.592V330.882C184.887 330.042 182.567 322.649 182.567 322.649Z" fill="#DFDAE2"/>
<path d="M191.663 319.744V317.757C191.858 317.745 192.055 317.732 192.256 317.726C197.743 317.555 201.346 322.394 201.346 322.394C201.346 322.394 197.458 327.74 193.288 327.74C192.686 327.74 192.149 327.644 191.666 327.482V321.463C193.802 321.718 194.231 322.652 195.517 324.773L198.373 322.387C198.373 322.387 196.288 319.681 192.773 319.681C192.388 319.678 192.024 319.706 191.663 319.744ZM191.663 313.183V316.15C191.861 316.135 192.058 316.122 192.256 316.116C199.888 315.861 204.861 322.313 204.861 322.313C204.861 322.313 199.148 329.185 193.2 329.185C192.654 329.185 192.143 329.135 191.663 329.051V330.885C192.074 330.938 192.497 330.966 192.943 330.966C198.48 330.966 202.484 328.167 206.363 324.854C207.006 325.364 209.636 326.604 210.179 327.146C206.491 330.2 197.9 332.663 193.027 332.663C192.557 332.663 192.105 332.635 191.663 332.592V335.17H212.709V313.183H191.663ZM191.663 327.485V329.051C186.543 328.148 185.119 322.879 185.119 322.879C185.119 322.879 187.578 320.183 191.663 319.747V321.466C191.66 321.466 191.657 321.466 191.654 321.466C189.512 321.21 187.838 323.194 187.838 323.194C187.838 323.194 188.775 326.526 191.663 327.485ZM182.567 322.649C182.567 322.649 185.602 318.215 191.663 317.757V316.15C184.95 316.683 179.137 322.31 179.137 322.31C179.137 322.31 182.429 331.729 191.663 332.592V330.882C184.887 330.042 182.567 322.649 182.567 322.649Z" fill="url(#paint17_linear_14597_60926)"/>
</g>
<g opacity="0.5">
<path d="M187.162 269.976C187.162 269.097 187.875 268.383 188.755 268.383H284.02C284.9 268.383 285.613 269.097 285.613 269.976V273.8C285.613 274.68 284.9 275.393 284.02 275.393H188.755C187.875 275.393 187.162 274.68 187.162 273.8V269.976Z" fill="url(#paint18_radial_14597_60926)"/>
<path d="M187.162 269.976C187.162 269.097 187.875 268.383 188.755 268.383H284.02C284.9 268.383 285.613 269.097 285.613 269.976V273.8C285.613 274.68 284.9 275.393 284.02 275.393H188.755C187.875 275.393 187.162 274.68 187.162 273.8V269.976Z" fill="url(#paint19_radial_14597_60926)"/>
<path d="M187.162 269.976C187.162 269.097 187.875 268.383 188.755 268.383H284.02C284.9 268.383 285.613 269.097 285.613 269.976V273.8C285.613 274.68 284.9 275.393 284.02 275.393H188.755C187.875 275.393 187.162 274.68 187.162 273.8V269.976Z" fill="#C7ABBF"/>
</g>
<g opacity="0.5">
<path d="M188.756 359.736C188.756 358.856 189.469 358.143 190.349 358.143H221.891C222.771 358.143 223.484 358.856 223.484 359.736V363.559C223.484 364.439 222.771 365.152 221.891 365.152H190.349C189.469 365.152 188.756 364.439 188.756 363.559V359.736Z" fill="url(#paint20_radial_14597_60926)"/>
<path d="M188.756 359.736C188.756 358.856 189.469 358.143 190.349 358.143H221.891C222.771 358.143 223.484 358.856 223.484 359.736V363.559C223.484 364.439 222.771 365.152 221.891 365.152H190.349C189.469 365.152 188.756 364.439 188.756 363.559V359.736Z" fill="url(#paint21_radial_14597_60926)"/>
<path d="M188.756 359.736C188.756 358.856 189.469 358.143 190.349 358.143H221.891C222.771 358.143 223.484 358.856 223.484 359.736V363.559C223.484 364.439 222.771 365.152 221.891 365.152H190.349C189.469 365.152 188.756 364.439 188.756 363.559V359.736Z" fill="#C7ABBF"/>
</g>
<g opacity="0.5">
<path d="M233.363 359.736C233.363 358.856 234.077 358.143 234.956 358.143H282.429C283.309 358.143 284.022 358.856 284.022 359.736V363.559C284.022 364.439 283.309 365.152 282.429 365.152H234.956C234.077 365.152 233.363 364.439 233.363 363.559V359.736Z" fill="url(#paint22_radial_14597_60926)"/>
<path d="M233.363 359.736C233.363 358.856 234.077 358.143 234.956 358.143H282.429C283.309 358.143 284.022 358.856 284.022 359.736V363.559C284.022 364.439 283.309 365.152 282.429 365.152H234.956C234.077 365.152 233.363 364.439 233.363 363.559V359.736Z" fill="url(#paint23_radial_14597_60926)"/>
<path d="M233.363 359.736C233.363 358.856 234.077 358.143 234.956 358.143H282.429C283.309 358.143 284.022 358.856 284.022 359.736V363.559C284.022 364.439 283.309 365.152 282.429 365.152H234.956C234.077 365.152 233.363 364.439 233.363 363.559V359.736Z" fill="#C7ABBF"/>
</g>
<g filter="url(#filter3_d_14597_60926)">
<rect x="244.314" y="284.065" width="63.7229" height="63.7229" rx="12.7446" fill="url(#paint24_linear_14597_60926)" shape-rendering="crispEdges"/>
<path d="M279.195 330.08L293.228 305.321C294.569 302.954 292.893 299.996 290.209 299.996H262.143C259.46 299.996 257.783 302.954 259.125 305.321L261.594 309.678L262.529 311.328C263.944 313.825 267.073 314.68 269.522 313.24L273.731 310.765C274.047 310.579 274.156 310.165 273.973 309.842L272.695 307.587C272.186 306.689 272.82 305.567 273.836 305.567H284.483C285.5 305.567 286.136 306.691 285.626 307.59L280.306 316.977C279.797 317.875 278.526 317.875 278.016 316.977L276.737 314.719C276.554 314.397 276.15 314.286 275.834 314.472L271.624 316.948C269.177 318.387 268.339 321.579 269.753 324.074L270.688 325.724L273.157 330.08C274.501 332.449 277.852 332.449 279.195 330.08Z" fill="#29063E"/>
</g>
<path d="M132.961 376.311C132.961 375.362 133.73 374.593 134.679 374.593H338.006C338.955 374.593 339.724 375.362 339.724 376.311C339.724 381.411 335.59 385.545 330.491 385.545H142.195C137.095 385.545 132.961 381.411 132.961 376.311Z" fill="url(#paint25_radial_14597_60926)"/>
<path d="M132.961 376.311C132.961 375.362 133.73 374.593 134.679 374.593H338.006C338.955 374.593 339.724 375.362 339.724 376.311C339.724 381.411 335.59 385.545 330.491 385.545H142.195C137.095 385.545 132.961 381.411 132.961 376.311Z" fill="url(#paint26_radial_14597_60926)"/>
<path d="M132.961 376.311C132.961 375.362 133.73 374.593 134.679 374.593H338.006C338.955 374.593 339.724 375.362 339.724 376.311C339.724 381.411 335.59 385.545 330.491 385.545H142.195C137.095 385.545 132.961 381.411 132.961 376.311Z" fill="url(#paint27_radial_14597_60926)"/>
<path opacity="0.92" d="M156.895 506.298V449.557C156.895 447.387 157.78 445.31 159.347 443.808L203.031 401.914C204.598 400.412 205.483 398.335 205.483 396.165V387.614" stroke="url(#paint28_radial_14597_60926)" stroke-width="1.59307" stroke-linecap="round"/>
<ellipse cx="205.086" cy="384.469" rx="4.38098" ry="4.38095" fill="#9A2F8F"/>
<ellipse cx="267.215" cy="384.469" rx="4.38098" ry="4.38095" fill="#00BB93"/>
</g>
</g>
<defs>
<filter id="filter0_d_14597_60926" x="176.972" y="109.015" width="151.956" height="193.75" filterUnits="userSpaceOnUse" color-interpolation-filters="sRGB">
<feFlood flood-opacity="0" result="BackgroundImageFix"/>
<feColorMatrix in="SourceAlpha" type="matrix" values="0 0 0 0 0 0 0 0 0 0 0 0 0 0 0 0 0 0 127 0" result="hardAlpha"/>
<feOffset dx="2.24848" dy="24.6188"/>
<feGaussianBlur stdDeviation="24.6188"/>
<feComposite in2="hardAlpha" operator="out"/>
<feColorMatrix type="matrix" values="0 0 0 0 0.564706 0 0 0 0 0.447059 0 0 0 0 0.6 0 0 0 0.8 0"/>
<feBlend mode="normal" in2="BackgroundImageFix" result="effect1_dropShadow_14597_60926"/>
<feBlend mode="normal" in="SourceGraphic" in2="effect1_dropShadow_14597_60926" result="shape"/>
</filter>
<filter id="filter1_d_14597_60926" x="94.7876" y="232.999" width="286.803" height="334.096" filterUnits="userSpaceOnUse" color-interpolation-filters="sRGB">
<feFlood flood-opacity="0" result="BackgroundImageFix"/>
<feColorMatrix in="SourceAlpha" type="matrix" values="0 0 0 0 0 0 0 0 0 0 0 0 0 0 0 0 0 0 127 0" result="hardAlpha"/>
<feOffset dx="1.82664" dy="20"/>
<feGaussianBlur stdDeviation="20"/>
<feComposite in2="hardAlpha" operator="out"/>
<feColorMatrix type="matrix" values="0 0 0 0 0.564706 0 0 0 0 0.447059 0 0 0 0 0.6 0 0 0 0.3 0"/>
<feBlend mode="normal" in2="BackgroundImageFix" result="effect1_dropShadow_14597_60926"/>
<feBlend mode="normal" in="SourceGraphic" in2="effect1_dropShadow_14597_60926" result="shape"/>
</filter>
<filter id="filter2_d_14597_60926" x="153.708" y="278.489" width="89.2118" height="89.2123" filterUnits="userSpaceOnUse" color-interpolation-filters="sRGB">
<feFlood flood-opacity="0" result="BackgroundImageFix"/>
<feColorMatrix in="SourceAlpha" type="matrix" values="0 0 0 0 0 0 0 0 0 0 0 0 0 0 0 0 0 0 127 0" result="hardAlpha"/>
<feOffset dx="2.38961" dy="7.16883"/>
<feGaussianBlur stdDeviation="6.37229"/>
<feComposite in2="hardAlpha" operator="out"/>
<feColorMatrix type="matrix" values="0 0 0 0 0.564706 0 0 0 0 0.447059 0 0 0 0 0.6 0 0 0 0.15 0"/>
<feBlend mode="normal" in2="BackgroundImageFix" result="effect1_dropShadow_14597_60926"/>
<feBlend mode="normal" in="SourceGraphic" in2="effect1_dropShadow_14597_60926" result="shape"/>
</filter>
<filter id="filter3_d_14597_60926" x="233.959" y="278.489" width="89.2118" height="89.2123" filterUnits="userSpaceOnUse" color-interpolation-filters="sRGB">
<feFlood flood-opacity="0" result="BackgroundImageFix"/>
<feColorMatrix in="SourceAlpha" type="matrix" values="0 0 0 0 0 0 0 0 0 0 0 0 0 0 0 0 0 0 127 0" result="hardAlpha"/>
<feOffset dx="2.38961" dy="7.16883"/>
<feGaussianBlur stdDeviation="6.37229"/>
<feComposite in2="hardAlpha" operator="out"/>
<feColorMatrix type="matrix" values="0 0 0 0 0.564706 0 0 0 0 0.447059 0 0 0 0 0.6 0 0 0 0.15 0"/>
<feBlend mode="normal" in2="BackgroundImageFix" result="effect1_dropShadow_14597_60926"/>
<feBlend mode="normal" in="SourceGraphic" in2="effect1_dropShadow_14597_60926" result="shape"/>
</filter>
<radialGradient id="paint0_radial_14597_60926" cx="0" cy="0" r="1" gradientUnits="userSpaceOnUse" gradientTransform="translate(428.655 691.042) rotate(-120.864) scale(749.397 667.464)">
<stop offset="0.36924" stop-color="#7D7D7D"/>
<stop offset="1" stop-color="#F5F5F5"/>
</radialGradient>
<radialGradient id="paint1_radial_14597_60926" cx="0" cy="0" r="1" gradientUnits="userSpaceOnUse" gradientTransform="translate(98.8594 204.785) rotate(55.6681) scale(718.001 1025.17)">
<stop stop-color="white"/>
<stop offset="1" stop-color="#F2E0ED"/>
</radialGradient>
<radialGradient id="paint2_radial_14597_60926" cx="0" cy="0" r="1" gradientUnits="userSpaceOnUse" gradientTransform="translate(104.844 196.729) rotate(50.6661) scale(462.632 623.703)">
<stop stop-color="white"/>
<stop offset="1" stop-color="#DFBED5"/>
</radialGradient>
<radialGradient id="paint3_radial_14597_60926" cx="0" cy="0" r="1" gradientUnits="userSpaceOnUse" gradientTransform="translate(58.1544 72) rotate(36.9073) scale(446.082 930.799)">
<stop stop-color="#F1E4ED" stop-opacity="0.7"/>
<stop offset="1" stop-color="#DFC8D8"/>
</radialGradient>
<linearGradient id="paint4_linear_14597_60926" x1="209.918" y1="134.239" x2="281.893" y2="274.324" gradientUnits="userSpaceOnUse">
<stop stop-color="#DFB9D4"/>
<stop offset="0.6865" stop-color="#715782"/>
</linearGradient>
<linearGradient id="paint5_linear_14597_60926" x1="232.36" y1="147.78" x2="258.161" y2="266.827" gradientUnits="userSpaceOnUse">
<stop stop-color="#DFB9D4"/>
<stop offset="0.6865" stop-color="#715782"/>
</linearGradient>
<linearGradient id="paint6_linear_14597_60926" x1="245.108" y1="163.544" x2="240.674" y2="255.135" gradientUnits="userSpaceOnUse">
<stop stop-color="#DFB9D4"/>
<stop offset="0.6865" stop-color="#715782"/>
</linearGradient>
<radialGradient id="paint7_radial_14597_60926" cx="0" cy="0" r="1" gradientUnits="userSpaceOnUse" gradientTransform="translate(388.62 237.14) rotate(174.29) scale(310.159 408.05)">
<stop offset="0.468088" stop-color="#715782"/>
<stop offset="0.718324" stop-color="#DFB9D4"/>
<stop offset="1" stop-color="#DFB9D4"/>
</radialGradient>
<radialGradient id="paint8_radial_14597_60926" cx="0" cy="0" r="1" gradientUnits="userSpaceOnUse" gradientTransform="translate(359.121 232.078) rotate(174.36) scale(249.326 324.043)">
<stop offset="0.468088" stop-color="#715782"/>
<stop offset="0.718324" stop-color="#DFB9D4"/>
<stop offset="1" stop-color="#DFB9D4"/>
</radialGradient>
<linearGradient id="paint9_linear_14597_60926" x1="260.531" y1="154.738" x2="284.464" y2="178.199" gradientUnits="userSpaceOnUse">
<stop stop-color="white"/>
<stop offset="1" stop-color="white" stop-opacity="0"/>
</linearGradient>
<radialGradient id="paint10_radial_14597_60926" cx="0" cy="0" r="1" gradientUnits="userSpaceOnUse" gradientTransform="translate(264.824 391.199) rotate(57.0115) scale(108.259 79.6686)">
<stop stop-color="#B594AC" stop-opacity="0.11"/>
<stop offset="1" stop-color="#B594AC" stop-opacity="0.5"/>
</radialGradient>
<radialGradient id="paint11_radial_14597_60926" cx="0" cy="0" r="1" gradientUnits="userSpaceOnUse" gradientTransform="translate(330.729 480.383) rotate(-130.451) scale(292.549 292.133)">
<stop offset="0.36924" stop-color="#7D7D7D"/>
<stop offset="1" stop-color="#D6D6D6"/>
</radialGradient>
<radialGradient id="paint12_radial_14597_60926" cx="0" cy="0" r="1" gradientUnits="userSpaceOnUse" gradientTransform="translate(149.32 252.877) rotate(41.8803) scale(370.203 453.131)">
<stop stop-color="white"/>
<stop offset="1" stop-color="#DFB9D4"/>
</radialGradient>
<radialGradient id="paint13_radial_14597_60926" cx="0" cy="0" r="1" gradientUnits="userSpaceOnUse" gradientTransform="translate(149.32 252.877) rotate(41.8803) scale(370.203 453.131)">
<stop stop-color="white"/>
<stop offset="1" stop-color="#DFB9D4"/>
</radialGradient>
<radialGradient id="paint14_radial_14597_60926" cx="0" cy="0" r="1" gradientUnits="userSpaceOnUse" gradientTransform="translate(149.32 252.877) rotate(41.8803) scale(370.203 536.221)">
<stop stop-color="#F1E4ED"/>
<stop offset="1" stop-color="#AA849F"/>
</radialGradient>
<linearGradient id="paint15_linear_14597_60926" x1="167.135" y1="296.013" x2="210.945" y2="345.796" gradientUnits="userSpaceOnUse">
<stop stop-color="white"/>
<stop offset="1" stop-color="white" stop-opacity="0"/>
</linearGradient>
<linearGradient id="paint16_linear_14597_60926" x1="157.778" y1="295.503" x2="160.533" y2="312.225" gradientUnits="userSpaceOnUse">
<stop stop-color="#DFB9D4"/>
<stop offset="1" stop-color="#715782"/>
</linearGradient>
<linearGradient id="paint17_linear_14597_60926" x1="168.425" y1="310.146" x2="187.772" y2="343" gradientUnits="userSpaceOnUse">
<stop stop-color="#DFB9D4"/>
<stop offset="1" stop-color="#715782"/>
</linearGradient>
<radialGradient id="paint18_radial_14597_60926" cx="0" cy="0" r="1" gradientUnits="userSpaceOnUse" gradientTransform="translate(191.33 268.377) rotate(5.2037) scale(144.103 32.0527)">
<stop stop-color="#F8EFF5"/>
<stop offset="1" stop-color="#C2A3B9"/>
</radialGradient>
<radialGradient id="paint19_radial_14597_60926" cx="0" cy="0" r="1" gradientUnits="userSpaceOnUse" gradientTransform="translate(285.782 280.408) rotate(-173.206) scale(99.5214 23.6447)">
<stop offset="0.36924" stop-color="#3F3F3F"/>
<stop offset="1" stop-color="#808080"/>
</radialGradient>
<radialGradient id="paint20_radial_14597_60926" cx="0" cy="0" r="1" gradientUnits="userSpaceOnUse" gradientTransform="translate(190.226 358.136) rotate(14.4766) scale(52.282 31.1634)">
<stop stop-color="#F8EFF5"/>
<stop offset="1" stop-color="#C2A3B9"/>
</radialGradient>
<radialGradient id="paint21_radial_14597_60926" cx="0" cy="0" r="1" gradientUnits="userSpaceOnUse" gradientTransform="translate(223.543 370.167) rotate(-161.339) scale(36.7936 22.5601)">
<stop offset="0.36924" stop-color="#3F3F3F"/>
<stop offset="1" stop-color="#808080"/>
</radialGradient>
<radialGradient id="paint22_radial_14597_60926" cx="0" cy="0" r="1" gradientUnits="userSpaceOnUse" gradientTransform="translate(235.508 358.136) rotate(10.0369) scale(74.9914 31.6927)">
<stop stop-color="#F8EFF5"/>
<stop offset="1" stop-color="#C2A3B9"/>
</radialGradient>
<radialGradient id="paint23_radial_14597_60926" cx="0" cy="0" r="1" gradientUnits="userSpaceOnUse" gradientTransform="translate(284.109 370.167) rotate(-166.964) scale(52.1952 23.1983)">
<stop offset="0.36924" stop-color="#3F3F3F"/>
<stop offset="1" stop-color="#808080"/>
</radialGradient>
<linearGradient id="paint24_linear_14597_60926" x1="247.387" y1="296.013" x2="291.197" y2="345.797" gradientUnits="userSpaceOnUse">
<stop stop-color="white"/>
<stop offset="1" stop-color="white" stop-opacity="0"/>
</linearGradient>
<radialGradient id="paint25_radial_14597_60926" cx="0" cy="0" r="1" gradientUnits="userSpaceOnUse" gradientTransform="translate(141.715 374.583) rotate(3.87614) scale(302.082 50.173)">
<stop stop-color="#F8EFF5"/>
<stop offset="1" stop-color="#C2A3B9"/>
</radialGradient>
<radialGradient id="paint26_radial_14597_60926" cx="0" cy="0" r="1" gradientUnits="userSpaceOnUse" gradientTransform="translate(340.078 393.381) rotate(-174.935) scale(208.357 37.0597)">
<stop offset="0.36924" stop-color="#3F3F3F"/>
<stop offset="1" stop-color="#808080"/>
</radialGradient>
<radialGradient id="paint27_radial_14597_60926" cx="0" cy="0" r="1" gradientUnits="userSpaceOnUse" gradientTransform="translate(141.715 374.583) rotate(3.87614) scale(302.082 59.3732)">
<stop stop-color="#E1CCDB"/>
<stop offset="1" stop-color="#8E6282"/>
</radialGradient>
<radialGradient id="paint28_radial_14597_60926" cx="0" cy="0" r="1" gradientUnits="userSpaceOnUse" gradientTransform="translate(207.475 391.199) rotate(122.989) scale(108.259 79.6686)">
<stop stop-color="#B594AC" stop-opacity="0.11"/>
<stop offset="1" stop-color="#B594AC" stop-opacity="0.5"/>
</radialGradient>
<clipPath id="clip0_14597_60926">
<rect width="473" height="452" fill="white"/>
</clipPath>
</defs>
</svg>
