<svg width="372" height="195" viewBox="0 0 372 195" fill="none" xmlns="http://www.w3.org/2000/svg">
<rect width="372" height="195" fill="#1D63ED"/>
<path d="M151.47 90.4714C151.109 87.8593 149.668 85.5913 147.068 83.5423L145.564 82.5256L144.561 84.0428C143.277 85.998 142.634 88.7195 142.838 91.3316C142.932 92.2388 143.23 93.8968 144.154 95.3202C143.23 95.8364 141.397 96.5246 138.953 96.4777H92.2687L92.1747 97.0251C91.736 99.6372 91.736 107.818 96.9841 114.09C100.979 118.86 106.948 121.285 114.749 121.285C131.668 121.285 144.17 113.417 150.044 99.0898C152.347 99.1367 157.313 99.1054 159.867 94.1784C159.929 94.0689 160.086 93.7717 160.525 92.8332L160.775 92.3171L159.35 91.3473C157.783 90.3306 154.227 89.9396 151.47 90.4714ZM129.6 73H122.504V79.5224H129.6V73ZM129.6 80.8363H122.504V87.3587H129.6V80.8363ZM121.203 80.8363H114.107V87.3587H121.203V80.8363ZM112.822 80.8363H105.726V87.3587H112.822V80.8363ZM104.425 88.6726H97.3287V95.1951H104.425V88.6726ZM112.822 88.6726H105.726V95.1951H112.822V88.6726ZM121.203 88.6726H114.107V95.1951H121.203V88.6726ZM129.6 88.6726H122.504V95.1951H129.6V88.6726ZM137.997 88.6726H130.901V95.1951H137.997V88.6726ZM181.141 87.2023C180.624 87.2023 180.185 87.3744 179.856 87.7185C179.512 88.0626 179.339 88.5162 179.339 89.0324V97.8697C177.585 96.4151 175.564 95.6956 173.245 95.6956C170.566 95.6956 168.279 96.6653 166.384 98.6049C164.488 100.544 163.548 102.875 163.548 105.612C163.548 108.349 164.504 110.68 166.384 112.62C168.279 114.559 170.566 115.529 173.245 115.529C175.924 115.529 178.196 114.559 180.107 112.62C182.002 110.711 182.942 108.365 182.942 105.612V89.048C182.942 88.5162 182.77 88.0783 182.41 87.7341C182.081 87.3744 181.658 87.2023 181.141 87.2023ZM178.869 108.021C178.556 108.772 178.117 109.429 177.569 109.992C177.021 110.555 176.378 111.008 175.642 111.337C174.906 111.665 174.107 111.837 173.261 111.837C172.415 111.837 171.616 111.681 170.864 111.337C170.128 111.008 169.485 110.555 168.937 109.992C168.389 109.429 167.966 108.772 167.653 108.021C167.339 107.27 167.183 106.457 167.183 105.612C167.183 104.768 167.339 103.954 167.653 103.203C167.966 102.453 168.405 101.796 168.937 101.233C169.485 100.67 170.128 100.232 170.864 99.8875C171.6 99.559 172.399 99.3869 173.261 99.3869C174.123 99.3869 174.89 99.5434 175.642 99.8875C176.378 100.216 177.021 100.67 177.569 101.233C178.117 101.796 178.556 102.453 178.869 103.203C179.183 103.954 179.339 104.752 179.339 105.597C179.339 106.457 179.183 107.255 178.869 108.021ZM260.504 98.6049C258.593 96.6653 256.29 95.6956 253.642 95.6956C250.979 95.6956 248.676 96.6653 246.781 98.6049C244.885 100.544 243.945 102.875 243.945 105.612C243.945 108.349 244.901 110.68 246.781 112.62C248.676 114.559 250.963 115.529 253.642 115.529C256.086 115.529 258.185 114.731 259.987 113.12C260.331 112.76 260.504 112.307 260.504 111.791C260.504 111.274 260.331 110.821 259.987 110.477C259.642 110.133 259.219 109.96 258.702 109.96C258.248 109.976 257.856 110.117 257.512 110.43C256.963 110.899 256.384 111.259 255.741 111.493C255.099 111.728 254.41 111.853 253.642 111.853C252.969 111.853 252.326 111.744 251.715 111.54C251.104 111.321 250.525 111.024 250.023 110.649C249.506 110.258 249.068 109.804 248.676 109.272C248.3 108.74 248.002 108.146 247.814 107.489H261.538C262.039 107.489 262.478 107.317 262.822 106.973C263.183 106.629 263.355 106.175 263.355 105.659C263.355 104.283 263.12 103.016 262.65 101.843C262.164 100.638 261.459 99.5746 260.504 98.6049ZM247.783 103.782C247.971 103.141 248.253 102.546 248.629 101.999C249.005 101.467 249.459 100.998 249.976 100.623C250.493 100.232 251.073 99.95 251.7 99.731C252.326 99.5121 252.969 99.4182 253.627 99.4182C254.284 99.4182 254.927 99.5277 255.538 99.731C256.164 99.95 256.728 100.247 257.23 100.623C257.747 101.014 258.201 101.467 258.577 101.999C258.969 102.531 259.251 103.125 259.454 103.782H247.783ZM279.506 96.9469C279.177 96.6341 278.77 96.3838 278.285 96.1961C277.799 96.0084 277.251 95.8833 276.671 95.8207C276.091 95.7425 275.543 95.7112 275.026 95.7112C273.867 95.7112 272.786 95.8989 271.768 96.2743C270.749 96.6497 269.809 97.1972 268.948 97.901V97.5569C268.948 97.0407 268.775 96.6184 268.415 96.2587C268.055 95.8989 267.647 95.7112 267.146 95.7112C266.645 95.7112 266.206 95.8989 265.862 96.2587C265.501 96.6184 265.329 97.0564 265.329 97.5569V113.699C265.329 114.215 265.501 114.637 265.862 114.997C266.222 115.357 266.645 115.544 267.146 115.544C267.647 115.544 268.07 115.357 268.415 114.997C268.775 114.637 268.948 114.199 268.948 113.699V105.628C268.948 104.768 269.104 103.954 269.418 103.203C269.731 102.453 270.17 101.796 270.718 101.233C271.266 100.67 271.909 100.232 272.645 99.9031C273.381 99.5746 274.18 99.4182 275.026 99.4182C275.872 99.4182 276.671 99.5746 277.407 99.8562C277.689 99.9813 277.956 100.06 278.175 100.06C278.425 100.06 278.66 100.013 278.88 99.9187C279.099 99.8249 279.287 99.6841 279.459 99.5277C279.616 99.3557 279.757 99.168 279.851 98.9333C279.945 98.7144 279.992 98.4641 279.992 98.2138C279.992 97.682 279.835 97.2597 279.506 96.9469ZM201.6 98.6049C199.689 96.6653 197.386 95.6956 194.739 95.6956C192.091 95.6956 189.773 96.6653 187.877 98.6049C185.982 100.544 185.042 102.875 185.042 105.612C185.042 108.349 185.997 110.68 187.877 112.62C189.773 114.559 192.06 115.529 194.739 115.529C197.418 115.529 199.689 114.559 201.6 112.62C203.496 110.711 204.436 108.365 204.436 105.612C204.42 104.236 204.185 102.969 203.715 101.811C203.245 100.654 202.54 99.5746 201.6 98.6049ZM200.347 108.021C200.034 108.772 199.595 109.429 199.047 109.992C198.499 110.555 197.856 111.008 197.12 111.337C196.384 111.665 195.585 111.837 194.739 111.837C193.893 111.837 193.094 111.681 192.342 111.337C191.606 111.008 190.963 110.555 190.415 109.992C189.867 109.429 189.444 108.772 189.13 108.021C188.817 107.27 188.66 106.457 188.66 105.612C188.66 104.768 188.817 103.954 189.13 103.203C189.444 102.453 189.882 101.796 190.415 101.233C190.963 100.67 191.606 100.232 192.342 99.8875C193.078 99.559 193.877 99.3869 194.739 99.3869C195.6 99.3869 196.368 99.5434 197.12 99.8875C197.856 100.216 198.499 100.67 199.047 101.233C199.595 101.796 200.034 102.453 200.347 103.203C200.66 103.954 200.817 104.752 200.817 105.597C200.817 106.457 200.66 107.255 200.347 108.021ZM241.955 97.5413C241.955 97.291 241.908 97.0564 241.814 96.8374C241.721 96.6184 241.595 96.4151 241.423 96.243C241.266 96.071 241.063 95.9302 240.843 95.852C240.624 95.7582 240.389 95.7112 240.138 95.7112C239.778 95.7112 239.449 95.8051 239.167 95.9928L228.796 102.875V89.0637C228.796 88.5475 228.624 88.1095 228.264 87.7498C227.903 87.39 227.496 87.2023 226.995 87.2023C226.493 87.2023 226.055 87.39 225.71 87.7498C225.35 88.1095 225.177 88.5475 225.177 89.0637V113.667C225.177 114.184 225.35 114.622 225.71 114.981C226.07 115.341 226.493 115.529 226.995 115.529C227.496 115.529 227.919 115.341 228.264 114.981C228.624 114.622 228.796 114.184 228.796 113.667V107.27L230.911 105.847L238.916 115.028C239.245 115.341 239.653 115.498 240.123 115.498C240.373 115.498 240.608 115.451 240.828 115.357C241.047 115.263 241.235 115.122 241.407 114.966C241.564 114.794 241.705 114.606 241.799 114.371C241.893 114.152 241.94 113.902 241.94 113.667C241.94 113.183 241.768 112.76 241.439 112.369L234.013 103.813L241.282 98.9959C241.736 98.6831 241.955 98.1982 241.955 97.5413ZM211.861 101.217C212.41 100.654 213.068 100.216 213.804 99.8875C214.54 99.559 215.339 99.4026 216.185 99.4026C216.953 99.4026 217.658 99.5277 218.3 99.7936C218.942 100.06 219.569 100.435 220.149 100.935C220.493 101.217 220.885 101.358 221.324 101.358C221.841 101.358 222.279 101.186 222.608 100.826C222.953 100.466 223.125 100.028 223.125 99.4964C223.125 98.9646 222.922 98.4797 222.499 98.1043C220.713 96.4933 218.613 95.6956 216.17 95.6956C213.491 95.6956 211.204 96.6653 209.308 98.6049C207.412 100.544 206.472 102.875 206.472 105.612C206.472 108.349 207.428 110.68 209.308 112.62C211.204 114.559 213.491 115.529 216.17 115.529C218.598 115.529 220.713 114.731 222.499 113.12C222.875 112.729 223.078 112.275 223.078 111.759C223.078 111.243 222.906 110.789 222.561 110.445C222.217 110.101 221.794 109.929 221.277 109.929C220.838 109.945 220.462 110.07 220.133 110.32C219.553 110.836 218.942 111.212 218.3 111.462C217.658 111.712 216.953 111.837 216.185 111.837C215.339 111.837 214.556 111.681 213.804 111.353C213.068 111.024 212.41 110.586 211.861 110.023C211.313 109.476 210.875 108.803 210.546 108.052C210.232 107.301 210.076 106.488 210.076 105.628C210.076 104.768 210.232 103.954 210.546 103.203C210.875 102.437 211.313 101.796 211.861 101.217Z" fill="white"/>
</svg>
