<svg width="372" height="195" viewBox="0 0 372 195" fill="none" xmlns="http://www.w3.org/2000/svg">
<rect width="372" height="195" fill="#EFEFEF"/>
<path d="M118.175 86.6326L119.995 86.6663L124.942 81.7198L125.182 79.6254C121.252 76.131 116.08 74 110.42 74C100.168 74 91.5209 80.972 88.957 90.4222C89.4982 90.0483 90.6494 90.328 90.6494 90.328L100.534 88.7045C100.534 88.7045 101.046 87.8639 101.299 87.9159C103.56 85.442 106.812 83.8845 110.418 83.8845C113.353 83.8845 116.052 84.9149 118.175 86.6326Z" fill="#EA4335"/>
<path d="M131.885 90.4362C130.738 86.1995 128.368 82.4605 125.176 79.6211L118.169 86.6283C120.974 88.8956 122.772 92.3605 122.772 96.2387V97.4742C126.178 97.4742 128.95 100.246 128.95 103.652C128.95 107.058 126.178 109.83 122.771 109.83H110.417L109.18 111.072V118.487L110.417 119.717H122.771C131.626 119.717 138.833 112.512 138.833 103.655C138.833 98.1785 136.077 93.3374 131.882 90.4376L131.885 90.4362Z" fill="#4285F4"/>
<path d="M98.0631 119.716H110.409V109.832H98.0659C97.1579 109.832 96.299 109.631 95.5217 109.278L93.7421 109.823L88.7943 114.771L88.3613 116.441C91.0602 118.495 94.4239 119.716 98.0673 119.719L98.0631 119.716Z" fill="#34A853"/>
<path d="M98.0624 87.5913C89.2068 87.5913 82 94.7967 82 103.654C82 108.869 84.4992 113.509 88.362 116.445L95.5266 109.28C93.3815 108.309 91.8845 106.156 91.8845 103.654C91.8845 100.248 94.6565 97.4758 98.0624 97.4758C100.564 97.4758 102.721 98.9728 103.689 101.118L110.854 93.9533C107.919 90.092 103.277 87.5913 98.0624 87.5913Z" fill="#FBBC05"/>
<path d="M159.633 119.634V101.349H165.966C166.783 101.349 167.555 101.488 168.278 101.756C169 102.029 169.635 102.413 170.178 102.907C170.722 103.401 171.154 103.995 171.468 104.682C171.782 105.368 171.94 106.133 171.94 106.968C171.94 107.802 171.782 108.538 171.468 109.227C171.154 109.917 170.722 110.51 170.178 111.002C169.635 111.496 169 111.88 168.278 112.153C167.557 112.426 166.785 112.56 165.966 112.56H162.519V119.634H159.635H159.633ZM166.042 109.802C166.519 109.802 166.946 109.722 167.318 109.559C167.693 109.399 168.007 109.18 168.265 108.909C168.521 108.636 168.716 108.33 168.852 107.988C168.987 107.648 169.056 107.308 169.056 106.968C169.056 106.61 168.987 106.261 168.852 105.921C168.714 105.581 168.519 105.28 168.265 105.015C168.01 104.751 167.695 104.534 167.318 104.365C166.943 104.196 166.519 104.11 166.042 104.11H162.517V109.804L166.042 109.802Z" fill="#5F6368"/>
<path d="M181.458 118.103H181.307C180.932 118.597 180.446 119.043 179.851 119.444C179.255 119.843 178.496 120.044 177.578 120.044C176.912 120.044 176.293 119.938 175.714 119.726C175.136 119.513 174.633 119.214 174.208 118.831C173.784 118.447 173.446 117.997 173.199 117.477C172.952 116.957 172.828 116.384 172.828 115.754C172.828 115.089 172.96 114.495 173.225 113.969C173.489 113.442 173.855 113 174.323 112.64C174.791 112.283 175.35 112.008 175.994 111.813C176.642 111.618 177.339 111.52 178.087 111.52C178.921 111.52 179.619 111.6 180.18 111.763C180.741 111.923 181.166 112.073 181.456 112.209V111.724C181.456 111.349 181.376 111.002 181.214 110.677C181.053 110.352 180.83 110.077 180.548 109.85C180.267 109.62 179.948 109.442 179.591 109.314C179.233 109.184 178.86 109.121 178.466 109.121C177.836 109.121 177.27 109.245 176.769 109.492C176.269 109.739 175.82 110.133 175.428 110.679L173.181 109.197C173.777 108.38 174.518 107.763 175.404 107.345C176.291 106.929 177.294 106.721 178.418 106.721C180.273 106.721 181.708 107.18 182.722 108.099C183.733 109.02 184.24 110.331 184.24 112.034V119.643H181.456V118.111L181.458 118.103ZM181.458 114.428C181.084 114.207 180.667 114.029 180.208 113.893C179.749 113.758 179.222 113.689 178.626 113.689C177.74 113.689 177.036 113.893 176.507 114.302C175.981 114.712 175.716 115.206 175.716 115.784C175.716 116.092 175.786 116.358 175.92 116.59C176.054 116.82 176.23 117.019 176.444 117.191C176.657 117.36 176.904 117.49 177.183 117.574C177.465 117.661 177.749 117.704 178.037 117.704C178.496 117.704 178.934 117.615 179.352 117.435C179.768 117.258 180.132 117.019 180.44 116.722C180.748 116.423 180.992 116.081 181.179 115.687C181.365 115.295 181.461 114.879 181.461 114.437L181.458 114.428Z" fill="#5F6368"/>
<path d="M189.45 109.217H189.602C189.942 108.504 190.455 107.949 191.147 107.557C191.836 107.165 192.598 106.97 193.433 106.97C193.706 106.97 193.905 106.978 194.033 106.996C194.158 107.013 194.291 107.039 194.429 107.074V109.936C194.243 109.867 194.059 109.821 193.881 109.795C193.703 109.769 193.467 109.758 193.179 109.758C192.106 109.758 191.244 110.085 190.588 110.742C189.931 111.399 189.604 112.261 189.604 113.333V119.845H186.768V107.332H189.448V109.221L189.45 109.217ZM198.26 109.624H196.063V107.121H198.26V103.291H201.096V107.121H204.188V109.624H201.096V115.342C201.096 115.658 201.131 115.947 201.2 116.209C201.27 116.473 201.369 116.69 201.508 116.865C201.798 117.197 202.165 117.364 202.607 117.364C202.88 117.364 203.092 117.344 203.246 117.301C203.398 117.257 203.562 117.195 203.731 117.108L204.6 119.611C204.243 119.745 203.87 119.853 203.476 119.929C203.083 120.007 202.641 120.044 202.147 120.044C201.551 120.044 201.023 119.949 200.566 119.758C200.106 119.565 199.705 119.307 199.365 118.978C198.635 118.23 198.267 117.214 198.267 115.929V109.626L198.26 109.624Z" fill="#5F6368"/>
<path d="M208.872 108.807H209.024C209.398 108.211 209.929 107.715 210.62 107.314C211.31 106.915 212.09 106.714 212.956 106.714C214.538 106.714 215.723 107.186 216.505 108.131C217.288 109.078 217.682 110.33 217.682 111.899V119.639H214.846V112.285C214.846 111.195 214.594 110.432 214.092 109.999C213.589 109.565 212.93 109.349 212.113 109.349C211.619 109.349 211.184 109.453 210.811 109.656C210.436 109.86 210.111 110.137 209.843 110.484C209.57 110.833 209.366 111.232 209.229 111.684C209.091 112.135 209.026 112.607 209.026 113.101V119.639H206.189V107.126H208.87V108.809L208.872 108.807Z" fill="#5F6368"/>
<path d="M231.729 116.647C231.203 117.615 230.453 118.428 229.482 119.073C228.514 119.721 227.32 120.042 225.907 120.042C224.969 120.042 224.107 119.875 223.316 119.543C222.525 119.212 221.84 118.746 221.26 118.152C220.681 117.557 220.23 116.855 219.905 116.044C219.58 115.236 219.42 114.348 219.42 113.375C219.42 112.471 219.572 111.617 219.879 110.809C220.187 110.001 220.616 109.295 221.169 108.69C221.721 108.086 222.391 107.602 223.173 107.247C223.955 106.892 224.824 106.712 225.777 106.712C226.728 106.712 227.612 106.872 228.369 107.197C229.125 107.522 229.768 107.971 230.295 108.551C230.821 109.13 231.227 109.828 231.508 110.645C231.79 111.461 231.931 112.356 231.931 113.325V113.555C231.913 113.641 231.905 113.715 231.905 113.784C231.887 113.854 231.879 113.923 231.879 113.988H222.25C222.302 114.584 222.445 115.104 222.683 115.546C222.921 115.988 223.214 116.354 223.563 116.644C223.912 116.935 224.299 117.147 224.724 117.284C225.149 117.422 225.567 117.487 225.974 117.487C226.791 117.487 227.463 117.292 227.994 116.9C228.52 116.508 228.954 116.023 229.296 115.444L231.723 116.644L231.729 116.647ZM229.101 111.821C229.066 111.565 228.986 111.282 228.858 110.967C228.733 110.651 228.533 110.363 228.271 110.099C228.007 109.834 227.667 109.609 227.251 109.423C226.832 109.236 226.328 109.141 225.732 109.141C224.915 109.141 224.213 109.384 223.623 109.869C223.036 110.354 222.64 111.004 222.436 111.821H229.101Z" fill="#5F6368"/>
<path d="M233.815 107.121H236.495V109.011H236.647C236.798 108.686 237.008 108.387 237.271 108.105C237.535 107.823 237.832 107.585 238.166 107.388C238.497 107.191 238.846 107.03 239.212 106.902C239.578 106.777 239.931 106.714 240.274 106.714C240.681 106.714 241.03 106.755 241.32 106.829C241.611 106.907 241.873 107.013 242.111 107.147L241.294 109.728C241.108 109.641 240.898 109.578 240.67 109.535C240.441 109.492 240.163 109.472 239.843 109.472C239.383 109.472 238.963 109.567 238.577 109.756C238.194 109.945 237.858 110.2 237.567 110.525C237.277 110.85 237.052 111.236 236.891 111.68C236.731 112.124 236.649 112.594 236.649 113.091V119.636H233.812V107.123L233.815 107.121Z" fill="#5F6368"/>
<path d="M175.691 82.9377C175.691 85.1565 175.032 86.9224 173.715 88.2398C172.235 89.8085 170.291 90.5907 167.882 90.5907C165.472 90.5907 163.624 89.7933 162.027 88.1964C160.43 86.5995 159.633 84.6321 159.633 82.2963C159.633 79.9606 160.43 77.9931 162.027 76.3962C163.624 74.7993 165.576 74.002 167.882 74.002C169.05 74.002 170.15 74.2078 171.184 74.6238C172.22 75.0377 173.071 75.6227 173.736 76.3767L172.274 77.8415C171.786 77.2499 171.154 76.7884 170.378 76.4569C169.6 76.1232 168.77 75.9585 167.884 75.9585C166.155 75.9585 164.69 76.5587 163.492 77.757C162.307 78.9703 161.717 80.4827 161.717 82.305C161.717 84.1272 162.309 85.6396 163.492 86.853C164.69 88.0513 166.153 88.6514 167.884 88.6514C169.466 88.6514 170.783 88.2073 171.832 87.3211C172.88 86.4349 173.489 85.2128 173.65 83.6614H167.884V81.7546H175.58C175.654 82.1685 175.693 82.5693 175.693 82.9529L175.691 82.9377Z" fill="#5F6368"/>
<path d="M177.086 84.8014C177.086 83.1308 177.61 81.7484 178.659 80.6564C179.723 79.5621 181.062 79.0161 182.674 79.0161C184.286 79.0161 185.616 79.5643 186.665 80.6564C187.729 81.7506 188.262 83.133 188.262 84.8014C188.262 86.4698 187.729 87.8695 186.665 88.9464C185.616 90.0406 184.286 90.5866 182.674 90.5866C181.062 90.5866 179.723 90.0385 178.659 88.9464C177.61 87.8522 177.086 86.472 177.086 84.8014ZM179.127 84.8014C179.127 85.9693 179.467 86.914 180.148 87.6398C180.828 88.3657 181.671 88.7276 182.676 88.7276C183.682 88.7276 184.527 88.3657 185.205 87.6398C185.883 86.914 186.225 85.9693 186.225 84.8014C186.225 83.6335 185.885 82.7083 185.205 81.9868C184.511 81.2479 183.669 80.8774 182.676 80.8774C181.684 80.8774 180.843 81.2479 180.148 81.9868C179.469 82.7126 179.127 83.6487 179.127 84.8014Z" fill="#5F6368"/>
<path d="M189.508 84.8014C189.508 83.1308 190.032 81.7484 191.081 80.6564C192.145 79.5621 193.484 79.0161 195.096 79.0161C196.708 79.0161 198.038 79.5643 199.087 80.6564C200.151 81.7506 200.684 83.133 200.684 84.8014C200.684 86.4698 200.151 87.8695 199.087 88.9464C198.038 90.0406 196.708 90.5866 195.096 90.5866C193.484 90.5866 192.145 90.0385 191.081 88.9464C190.032 87.8522 189.508 86.472 189.508 84.8014ZM191.549 84.8014C191.549 85.9693 191.889 86.914 192.569 87.6398C193.25 88.3657 194.093 88.7276 195.098 88.7276C196.103 88.7276 196.948 88.3657 197.627 87.6398C198.305 86.914 198.647 85.9693 198.647 84.8014C198.647 83.6335 198.307 82.7083 197.627 81.9868C196.933 81.2479 196.09 80.8774 195.098 80.8774C194.106 80.8774 193.265 81.2479 192.569 81.9868C191.889 82.7126 191.549 83.6487 191.549 84.8014Z" fill="#5F6368"/>
<path d="M207.356 95.3814C206.747 95.3814 206.18 95.3034 205.647 95.1496C205.114 94.9957 204.628 94.7769 204.193 94.4952C203.757 94.2135 203.384 93.882 203.072 93.4963C202.763 93.1128 202.524 92.6816 202.362 92.2093L204.292 91.4119C204.513 92.0489 204.897 92.5581 205.445 92.9438C205.993 93.3273 206.626 93.5202 207.352 93.5202C208.461 93.5202 209.324 93.1887 209.948 92.5235C210.572 91.8583 210.879 90.9417 210.879 89.7738V88.7295H210.79C210.407 89.3058 209.885 89.7608 209.228 90.0945C208.57 90.426 207.857 90.5929 207.09 90.5929C205.67 90.5929 204.448 90.0403 203.43 88.9288C202.425 87.7912 201.922 86.4132 201.922 84.8033C201.922 83.1934 202.425 81.824 203.43 80.6994C204.45 79.5749 205.668 79.0137 207.09 79.0137C207.859 79.0137 208.572 79.1805 209.228 79.512C209.885 79.8457 210.407 80.3007 210.79 80.8771H210.879V79.369H212.832V89.7717C212.832 91.5159 212.335 92.8831 211.347 93.8755C210.342 94.8809 209.012 95.3836 207.356 95.3836V95.3814ZM207.423 88.7273C208.429 88.7273 209.25 88.3654 209.887 87.6396C210.552 86.9137 210.886 85.969 210.886 84.8011C210.886 83.6332 210.552 82.7253 209.887 81.9865C209.237 81.2476 208.416 80.8771 207.423 80.8771C206.431 80.8771 205.629 81.2476 204.96 81.9865C204.294 82.7253 203.961 83.6636 203.961 84.8011C203.961 85.9387 204.294 86.8942 204.96 87.6157C205.625 88.3568 206.446 88.7273 207.423 88.7273Z" fill="#5F6368"/>
<path d="M217.363 74.3574V90.2355H215.322V74.3574H217.363Z" fill="#5F6368"/>
<path d="M224.613 90.5908C223.016 90.5908 221.7 90.0426 220.665 88.9505C219.629 87.8563 219.113 86.4739 219.113 84.8055C219.113 83.1371 219.616 81.772 220.621 80.6691C221.627 79.5684 222.912 79.0181 224.48 79.0181C226.049 79.0181 227.373 79.5402 228.329 80.5803C229.284 81.6247 229.759 83.0829 229.759 84.9615L229.735 85.1825H221.196C221.224 86.2464 221.579 87.1044 222.259 87.7545C222.94 88.4045 223.752 88.7295 224.699 88.7295C226.001 88.7295 227.02 88.0795 227.759 86.7773L229.577 87.6635C229.089 88.58 228.413 89.2972 227.546 89.8129C226.68 90.3286 225.702 90.5908 224.608 90.5908H224.613ZM221.352 83.4946H227.585C227.525 82.7406 227.219 82.1165 226.664 81.6204C226.112 81.1242 225.367 80.8772 224.437 80.8772C223.668 80.8772 223.007 81.1155 222.452 81.5878C221.898 82.0602 221.531 82.6972 221.354 83.4946H221.352Z" fill="#5F6368"/>
<path d="M243.888 90.5909C241.537 90.5909 239.569 89.8001 237.988 88.2162C236.419 86.6344 235.637 84.6605 235.637 82.2944C235.637 79.9283 236.419 77.963 237.988 76.3943C239.556 74.7974 241.519 74 243.888 74C246.256 74 248.226 74.8667 249.721 76.5958L248.258 78.015C247.121 76.6391 245.662 75.9544 243.888 75.9544C242.113 75.9544 240.657 76.546 239.474 77.729C238.306 78.8969 237.721 80.4223 237.721 82.2966C237.721 84.1708 238.306 85.6962 239.474 86.8641C240.655 88.0493 242.128 88.6387 243.888 88.6387C245.738 88.6387 247.339 87.8608 248.702 86.3094L250.187 87.7525C249.433 88.656 248.509 89.3515 247.413 89.8477C246.319 90.3439 245.144 90.5909 243.888 90.5909Z" fill="#5F6368"/>
<path d="M254.045 74.3574V90.2355H252.004V74.3574H254.045Z" fill="#5F6368"/>
<path d="M255.801 84.8014C255.801 83.1308 256.325 81.7484 257.374 80.6564C258.438 79.5621 259.777 79.0161 261.389 79.0161C263.001 79.0161 264.331 79.5643 265.38 80.6564C266.444 81.7506 266.977 83.133 266.977 84.8014C266.977 86.4698 266.444 87.8695 265.38 88.9464C264.331 90.0406 263.001 90.5866 261.389 90.5866C259.777 90.5866 258.438 90.0385 257.374 88.9464C256.325 87.8522 255.801 86.472 255.801 84.8014ZM257.842 84.8014C257.842 85.9693 258.182 86.914 258.862 87.6398C259.543 88.3657 260.386 88.7276 261.391 88.7276C262.396 88.7276 263.241 88.3657 263.92 87.6398C264.598 86.914 264.94 85.9693 264.94 84.8014C264.94 83.6335 264.6 82.7083 263.92 81.9868C263.226 81.2479 262.383 80.8774 261.391 80.8774C260.399 80.8774 259.558 81.2479 258.862 81.9868C258.184 82.7126 257.842 83.6487 257.842 84.8014Z" fill="#5F6368"/>
<path d="M278.265 90.2357H276.313V88.7277H276.224C275.914 89.2607 275.435 89.7027 274.794 90.0581C274.153 90.4134 273.481 90.5911 272.788 90.5911C271.457 90.5911 270.434 90.2097 269.717 89.4492C269 88.6865 268.643 87.6053 268.643 86.2012V79.3716H270.684V86.069C270.727 87.8436 271.622 88.7298 273.368 88.7298C274.183 88.7298 274.861 88.4005 275.409 87.744C275.958 87.0874 276.228 86.2987 276.228 85.3822V79.3716H278.27V90.2379L278.265 90.2357Z" fill="#5F6368"/>
<path d="M285.185 90.5908C283.766 90.5908 282.544 90.0296 281.526 88.9051C280.52 87.7675 280.018 86.3981 280.018 84.8012C280.018 83.2043 280.52 81.8371 281.526 80.6974C282.546 79.5728 283.764 79.0116 285.185 79.0116C285.983 79.0116 286.711 79.1806 287.369 79.523C288.026 79.8632 288.533 80.3139 288.888 80.8772H288.977L288.888 79.3692V74.3574H290.929V90.2355H288.977V88.7274H288.888C288.533 89.2886 288.028 89.7393 287.369 90.0816C286.711 90.4218 285.985 90.5908 285.185 90.5908ZM285.519 88.7274C286.524 88.7274 287.346 88.3656 287.983 87.6397C288.648 86.9138 288.979 85.9691 288.979 84.8012C288.979 83.6333 288.648 82.7255 287.983 81.9866C287.333 81.2477 286.511 80.8772 285.519 80.8772C284.527 80.8772 283.725 81.2477 283.055 81.9866C282.39 82.7255 282.059 83.6637 282.059 84.8012C282.059 85.9388 282.39 86.8943 283.055 87.6159C283.721 88.3569 284.542 88.7274 285.519 88.7274Z" fill="#5F6368"/>
</svg>
