<svg width="574" height="302" viewBox="0 0 574 302" fill="none" xmlns="http://www.w3.org/2000/svg">
<rect width="574" height="301" transform="translate(0 0.5)" fill="white"/>
<g clip-path="url(#clip0_14597_61289)">
<path d="M294.021 139.986H296.278V161.004H294.021V139.986ZM315.435 161.004L304.2 144.15V161.004H301.944V139.986H304.08L315.316 156.789V139.986H317.572V161.004H315.435ZM330.081 161.182C328.003 161.182 326.097 160.413 324.667 159C322.68 157.026 322.68 154.955 322.68 150.495C322.68 146.036 322.68 143.972 324.667 141.99C326.097 140.57 327.996 139.801 330.081 139.801C333.885 139.801 336.707 142.101 337.422 146.058H335.106C334.54 143.492 332.731 141.805 330.081 141.805C328.681 141.805 327.348 142.338 326.425 143.285C325.085 144.645 324.943 146.087 324.943 150.488C324.943 154.888 325.092 156.33 326.425 157.691C327.348 158.638 328.681 159.163 330.081 159.163C332.724 159.163 334.6 157.484 335.166 154.91H337.422C336.737 158.882 333.855 161.182 330.081 161.182ZM342.142 161.004V139.986H355.283V141.998H344.406V149.408H353.682V151.42H344.406V159.008H355.283V161.019H342.142V161.004ZM367.719 152.359H362.096V161.012H359.84V139.986H367.719C371.582 139.986 374.254 142.375 374.254 146.154C374.254 149.933 371.582 152.359 367.719 152.359ZM367.508 141.99H362.096V150.347H367.508C370.153 150.347 371.999 148.927 371.999 146.154C371.999 143.381 370.153 141.99 367.508 141.99ZM385.408 141.99V161.004H383.152V141.99H377.033V139.986H391.536V141.998H385.408V141.99ZM395.72 139.986H397.976V161.004H395.72V139.986ZM415.861 159C414.431 160.42 412.562 161.182 410.449 161.182C408.34 161.182 406.464 160.413 405.035 159C403.048 157.026 403.048 154.955 403.048 150.495C403.048 146.036 403.048 143.972 405.035 141.99C406.464 140.57 408.334 139.801 410.449 139.801C412.562 139.801 414.431 140.57 415.861 141.99C417.85 143.965 417.85 146.036 417.85 150.495C417.856 154.955 417.856 157.018 415.861 159ZM414.11 143.322C413.188 142.375 411.854 141.813 410.455 141.813C409.056 141.813 407.722 142.375 406.8 143.322C405.46 144.682 405.31 146.095 405.31 150.495C405.31 154.896 405.46 156.308 406.8 157.669C407.722 158.616 409.056 159.178 410.455 159.178C411.854 159.178 413.188 158.616 414.11 157.669C415.451 156.316 415.592 154.896 415.592 150.495C415.592 146.095 415.444 144.682 414.11 143.322ZM436.455 161.004L425.221 144.15V161.004H422.965V139.986H425.101L436.335 156.789V139.986H438.591V161.004H436.455ZM301.899 181.889H296.278V190.542H294.021V169.524H301.899C305.763 169.524 308.436 171.913 308.436 175.692C308.436 179.471 305.756 181.889 301.899 181.889ZM301.691 171.528H296.278V179.885H301.691C304.334 179.885 306.18 178.465 306.18 175.692C306.173 172.919 304.334 171.528 301.691 171.528ZM324.973 190.542L320.155 181.216H315.07V190.542H312.814V169.524H320.93C324.615 169.524 327.199 171.735 327.199 175.367C327.199 178.436 325.323 180.447 322.59 181.002L327.616 190.535H324.973V190.542ZM320.729 171.528H315.085V179.234H320.729C323.193 179.234 324.951 177.962 324.951 175.396C324.943 172.83 323.193 171.528 320.729 171.528ZM344.361 188.531C342.931 189.951 341.063 190.712 338.948 190.712C336.841 190.712 334.965 189.943 333.535 188.531C331.547 186.556 331.547 184.485 331.547 180.026C331.547 175.566 331.547 173.503 333.535 171.521C334.965 170.101 336.834 169.339 338.948 169.339C341.055 169.339 342.931 170.108 344.361 171.521C346.349 173.496 346.349 175.566 346.349 180.026C346.349 184.485 346.349 186.556 344.361 188.531ZM342.604 172.86C341.681 171.913 340.348 171.351 338.948 171.351C337.548 171.351 336.216 171.913 335.292 172.86C333.952 174.22 333.803 175.633 333.803 180.033C333.803 184.433 333.952 185.846 335.292 187.207C336.216 188.154 337.548 188.715 338.948 188.715C340.348 188.715 341.681 188.154 342.604 187.207C343.944 185.846 344.086 184.433 344.086 180.033C344.086 175.633 343.944 174.213 342.604 172.86ZM363.884 188.301C362.394 189.899 360.407 190.72 358.233 190.72C356.155 190.72 354.248 189.951 352.819 188.538C350.831 186.563 350.831 184.493 350.831 180.033C350.831 175.574 350.831 173.51 352.819 171.528C354.248 170.108 356.118 169.347 358.233 169.347C362.274 169.347 365.007 171.942 365.632 175.633H363.376C362.782 172.978 360.884 171.351 358.233 171.351C356.832 171.351 355.5 171.913 354.576 172.86C353.235 174.22 353.094 175.633 353.094 180.033C353.094 184.433 353.244 185.876 354.576 187.236C355.5 188.183 356.832 188.708 358.233 188.708C359.782 188.708 361.263 188.087 362.246 186.911C363.109 185.876 363.437 184.729 363.437 183.102V181.512H358.233V179.538H365.693V182.873C365.699 185.284 365.194 186.911 363.884 188.301ZM382.855 190.542L378.037 181.216H372.953V190.542H370.697V169.524H378.812C382.497 169.524 385.081 171.735 385.081 175.367C385.081 178.436 383.204 180.447 380.471 181.002L385.497 190.535H382.855V190.542ZM378.604 171.528H372.953V179.234H378.604C381.068 179.234 382.825 177.962 382.825 175.396C382.825 172.83 381.068 171.528 378.604 171.528ZM403.77 190.542L402.072 185.787H392.824L391.135 190.542H388.729L396.516 169.524H398.417L406.173 190.542H403.77ZM397.493 172.741L393.51 183.842H401.417L397.493 172.741ZM425.986 190.542V174.568L420.195 187.236H418.258L412.377 174.568V190.542H410.121V169.524H412.377L419.271 184.433L425.986 169.524H428.242V190.542H425.986Z" fill="#000119"/>
<path d="M268.509 113.584H266.961V217.004H268.509V113.584Z" fill="#000119"/>
<path d="M179.553 186.171V205.806H185.152V186.171H179.553ZM135.482 186.142V205.806H141.134V190.875H145.512C146.964 190.875 147.991 191.23 148.691 191.969C149.577 192.901 149.942 194.41 149.942 197.168V205.799H155.414V194.935C155.414 187.184 150.426 186.134 145.541 186.134H135.482M188.569 186.171V205.806H197.653C202.493 205.806 204.071 205.008 205.784 203.225C206.99 201.968 207.772 199.217 207.772 196.207C207.772 193.448 207.109 190.986 205.962 189.455C203.885 186.711 200.899 186.178 196.432 186.178H188.569V186.171ZM194.124 190.446H196.529C200.021 190.446 202.284 191.999 202.284 196.029C202.284 200.06 200.021 201.613 196.529 201.613H194.124V190.446ZM171.474 186.171L166.799 201.731L162.316 186.171H156.27L162.666 205.806H170.737L177.185 186.171H171.474ZM210.377 205.806H215.977V186.171H210.37L210.377 205.806ZM226.08 186.178L218.255 205.799H223.78L225.016 202.33H234.27L235.439 205.799H241.433L233.548 186.178H226.08ZM244.322 206.405C243.354 206.405 242.572 205.629 242.572 204.675C242.572 203.721 243.354 202.944 244.322 202.944C245.29 202.944 246.072 203.721 246.072 204.675C246.072 205.629 245.29 206.405 244.322 206.405ZM244.322 203.277C243.54 203.277 242.937 203.876 242.937 204.675C242.937 205.474 243.54 206.073 244.322 206.073C245.104 206.073 245.707 205.474 245.707 204.675C245.707 203.869 245.104 203.277 244.322 203.277ZM244.635 205.592L244.299 204.882H244.099V205.592H243.682V203.751H244.441C244.821 203.751 245.059 204.024 245.059 204.327C245.059 204.579 244.895 204.741 244.717 204.815L245.111 205.592H244.635ZM244.389 204.09H244.099V204.571H244.389C244.545 204.571 244.642 204.46 244.642 204.335C244.642 204.201 244.545 204.09 244.389 204.09ZM229.721 189.758L233.116 198.951H226.222L229.721 189.758Z" fill="#000119"/>
<path d="M172.142 140.179V135.46C172.603 135.431 173.072 135.401 173.549 135.386C186.579 134.98 195.133 146.472 195.133 146.472C195.133 146.472 185.901 159.17 175.998 159.17C174.569 159.17 173.296 158.941 172.149 158.557V144.261C177.22 144.868 178.24 147.086 181.292 152.122L188.075 146.457C188.075 146.457 183.124 140.031 174.777 140.031C173.862 140.023 172.998 140.09 172.142 140.179ZM172.142 124.596V131.644C172.611 131.607 173.08 131.578 173.549 131.563C191.671 130.956 203.48 146.28 203.48 146.28C203.48 146.28 189.914 162.602 175.79 162.602C174.494 162.602 173.281 162.484 172.142 162.284V166.64C173.117 166.766 174.122 166.832 175.179 166.832C188.328 166.832 197.836 160.184 207.046 152.315C208.573 153.528 214.82 156.471 216.108 157.758C207.352 165.013 186.951 170.863 175.38 170.863C174.264 170.863 173.191 170.796 172.142 170.693V176.816H222.116V124.596H172.142ZM172.142 158.564V162.284C159.983 160.139 156.603 147.626 156.603 147.626C156.603 147.626 162.44 141.221 172.142 140.186V144.268C172.134 144.268 172.127 144.268 172.119 144.268C167.034 143.662 163.058 148.373 163.058 148.373C163.058 148.373 165.284 156.286 172.142 158.564ZM150.542 147.079C150.542 147.079 157.749 136.547 172.142 135.46V131.644C156.201 132.909 142.396 146.273 142.396 146.273C142.396 146.273 150.214 168.644 172.142 170.693V166.633C156.052 164.636 150.542 147.079 150.542 147.079Z" fill="#76B900"/>
</g>
<defs>
<clipPath id="clip0_14597_61289">
<rect width="303.247" height="103.42" fill="white" transform="translate(135.389 113.584)"/>
</clipPath>
</defs>
</svg>
