<svg width="372" height="195" viewBox="0 0 372 195" fill="none" xmlns="http://www.w3.org/2000/svg">
<rect width="372" height="195" fill="#FF4844"/>
<path d="M181.833 116.53H113.016L130.009 57H181.846V116.53H181.833ZM115.479 114.672H179.975V58.8574H131.405L115.479 114.672Z" fill="white"/>
<path d="M258.105 116.53H189.275V57H242.969L258.105 116.53ZM191.133 114.672H255.708L241.52 58.8706H191.133V114.672Z" fill="white"/>
<path d="M246.936 73.7432H217.178V75.6006H246.936V73.7432Z" fill="white"/>
<path d="M219.653 96.0718H189.895V97.9292H219.653V96.0718Z" fill="white"/>
<path d="M181.833 84.9009H152.074V86.7583H181.833V84.9009Z" fill="white"/>
<path d="M120.484 133.273V135.144H114.859V133.273H113.002V125.791H114.859V123.933H120.484V125.791H122.342V127.687H120.445V125.843H114.912V133.26H120.445V131.376H122.342V133.273H120.484ZM133.526 133.273V135.144H127.901V133.273H126.043V125.791H127.901V123.933H133.526V125.791H135.383V133.273H133.526ZM133.473 125.843H127.94V133.26H133.473V125.843ZM140.929 135.157V133.286H139.072V125.804H140.929V123.946H146.515V120.218H148.412V135.157H140.929ZM146.515 125.843H140.982V133.26H146.515V125.843ZM153.971 122.115V120.218H155.868V122.115H153.971ZM153.971 135.157V125.843H152.113V123.946H155.868V135.157H153.971ZM166.999 135.157V125.843H161.466V135.157H159.569V123.946H167.052V125.804H168.896V135.157H166.999ZM180.08 137.001V138.872H174.455V136.975H180.04V135.144H174.455V133.273H172.598V125.791H174.455V123.933H181.937V136.988H180.08V137.001ZM180.04 125.843H174.508V133.26H180.04V125.843ZM191.238 133.273V135.144H187.483V133.273H185.626V131.376H187.523V133.247H191.211V131.415H189.341V129.558H187.483V127.687H185.626V125.791H187.483V123.933H191.238V125.791H193.108V127.687H191.211V125.843H187.523V127.674H189.38V129.532H191.238V131.376H193.108V133.273H191.238ZM204.279 133.273V135.144H198.654V133.273H196.797V125.791H198.654V123.933H204.279V125.791H206.137V127.687H204.24V125.843H198.707V133.26H204.24V131.376H206.137V133.273H204.279ZM211.683 135.157V133.286H209.825V129.532H211.683V127.674H217.268V125.843H211.683V123.946H217.308V125.804H219.165V135.157H211.683ZM217.268 129.571H211.735V133.26H217.268V129.571ZM230.349 133.273V135.144H224.764V138.872H222.867V123.946H230.349V125.804H232.206V133.286H230.349V133.273ZM230.296 125.843H224.764V133.26H230.296V125.843ZM243.377 133.273V135.144H237.752V133.273H235.895V125.791H237.752V123.933H243.377V125.791H245.235V129.558H237.805V133.247H243.338V131.376H245.235V133.273H243.377ZM243.338 125.843H237.805V127.674H243.338V125.843ZM247.066 137.001V135.104H256.419V137.001H247.066Z" fill="white"/>
</svg>
