<svg width="574" height="302" viewBox="0 0 574 302" fill="none" xmlns="http://www.w3.org/2000/svg">
<rect width="574" height="301" transform="translate(0 0.5)" fill="white"/>
<path d="M188.563 150.747L191.191 150.795L198.333 143.655L198.68 140.632C193.005 135.587 185.539 132.511 177.367 132.511C162.566 132.511 150.081 142.575 146.379 156.217C147.16 155.677 148.822 156.081 148.822 156.081L163.093 153.737C163.093 153.737 163.832 152.524 164.197 152.599C167.463 149.028 172.157 146.78 177.365 146.78C181.602 146.78 185.499 148.267 188.563 150.747Z" fill="#EA4335"/>
<path d="M208.356 156.237C206.7 150.122 203.278 144.724 198.669 140.625L188.553 150.74C192.603 154.013 195.199 159.015 195.199 164.613V166.397C200.116 166.397 204.118 170.398 204.118 175.315C204.118 180.231 200.116 184.233 195.197 184.233H177.36L175.574 186.026V196.73L177.36 198.505H195.197C207.982 198.505 218.387 188.104 218.387 175.319C218.387 167.413 214.408 160.425 208.352 156.239L208.356 156.237Z" fill="#4285F4"/>
<path d="M159.521 198.504H177.346V184.235H159.525C158.214 184.235 156.974 183.945 155.852 183.436L153.282 184.223L146.139 191.365L145.514 193.776C149.41 196.74 154.267 198.504 159.527 198.508L159.521 198.504Z" fill="#34A853"/>
<path d="M159.524 152.13C146.739 152.13 136.334 162.531 136.334 175.317C136.334 182.845 139.942 189.543 145.519 193.781L155.863 183.439C152.766 182.037 150.605 178.928 150.605 175.317C150.605 170.4 154.607 166.399 159.524 166.399C163.137 166.399 166.25 168.56 167.648 171.656L177.992 161.314C173.755 155.74 167.054 152.13 159.524 152.13Z" fill="#FBBC05"/>
<path d="M248.416 198.385V171.99H257.56C258.74 171.99 259.853 172.19 260.898 172.578C261.94 172.972 262.856 173.526 263.642 174.239C264.427 174.952 265.049 175.809 265.503 176.801C265.957 177.792 266.185 178.896 266.185 180.101C266.185 181.305 265.957 182.368 265.503 183.363C265.049 184.357 264.427 185.214 263.642 185.924C262.856 186.638 261.94 187.191 260.898 187.585C259.856 187.979 258.743 188.173 257.56 188.173H252.583V198.385H248.419H248.416ZM257.67 184.192C258.358 184.192 258.974 184.076 259.512 183.841C260.053 183.61 260.507 183.294 260.879 182.903C261.248 182.509 261.53 182.068 261.727 181.574C261.921 181.083 262.021 180.592 262.021 180.101C262.021 179.584 261.921 179.081 261.727 178.59C261.527 178.099 261.245 177.664 260.879 177.282C260.51 176.901 260.057 176.588 259.512 176.344C258.971 176.1 258.358 175.975 257.67 175.975H252.58V184.195L257.67 184.192Z" fill="#5F6368"/>
<path d="M279.927 196.174H279.708C279.167 196.887 278.466 197.532 277.606 198.11C276.745 198.686 275.651 198.977 274.324 198.977C273.364 198.977 272.469 198.824 271.634 198.517C270.798 198.21 270.073 197.779 269.46 197.225C268.846 196.672 268.358 196.021 268.002 195.27C267.645 194.52 267.467 193.694 267.467 192.784C267.467 191.824 267.658 190.967 268.039 190.207C268.421 189.446 268.95 188.808 269.625 188.289C270.301 187.773 271.108 187.376 272.037 187.094C272.973 186.813 273.98 186.672 275.059 186.672C276.264 186.672 277.271 186.788 278.081 187.022C278.891 187.254 279.505 187.47 279.924 187.667V186.966C279.924 186.425 279.808 185.925 279.573 185.455C279.342 184.986 279.02 184.589 278.613 184.261C278.206 183.929 277.747 183.673 277.23 183.488C276.714 183.3 276.176 183.21 275.607 183.21C274.696 183.21 273.88 183.388 273.157 183.745C272.435 184.101 271.787 184.67 271.221 185.459L267.977 183.319C268.837 182.14 269.907 181.249 271.186 180.645C272.466 180.044 273.914 179.744 275.538 179.744C278.216 179.744 280.287 180.407 281.751 181.733C283.212 183.063 283.944 184.955 283.944 187.413V198.398H279.924V196.187L279.927 196.174ZM279.927 190.87C279.386 190.551 278.785 190.294 278.122 190.097C277.459 189.903 276.699 189.803 275.838 189.803C274.559 189.803 273.542 190.097 272.779 190.688C272.019 191.279 271.637 191.992 271.637 192.828C271.637 193.272 271.737 193.656 271.931 193.991C272.125 194.323 272.378 194.61 272.688 194.858C272.995 195.101 273.351 195.289 273.755 195.411C274.161 195.536 274.571 195.599 274.987 195.599C275.651 195.599 276.282 195.471 276.886 195.211C277.487 194.954 278.012 194.61 278.457 194.182C278.901 193.75 279.254 193.256 279.523 192.687C279.792 192.121 279.93 191.52 279.93 190.882L279.927 190.87Z" fill="#5F6368"/>
<path d="M291.463 183.347H291.682C292.173 182.318 292.914 181.518 293.912 180.952C294.907 180.385 296.008 180.104 297.213 180.104C297.607 180.104 297.895 180.116 298.079 180.141C298.261 180.166 298.451 180.204 298.652 180.254V184.386C298.383 184.286 298.117 184.22 297.86 184.183C297.604 184.145 297.263 184.129 296.847 184.129C295.298 184.129 294.053 184.602 293.105 185.549C292.157 186.497 291.685 187.742 291.685 189.29V198.689H287.59V180.626H291.46V183.354L291.463 183.347ZM304.183 183.935H301.01V180.323H304.183V174.793H308.278V180.323H312.742V183.935H308.278V192.19C308.278 192.646 308.328 193.062 308.428 193.441C308.528 193.822 308.672 194.135 308.872 194.388C309.291 194.867 309.82 195.108 310.458 195.108C310.852 195.108 311.159 195.08 311.381 195.017C311.6 194.955 311.838 194.864 312.082 194.739L313.336 198.351C312.82 198.545 312.282 198.702 311.712 198.811C311.146 198.924 310.508 198.977 309.795 198.977C308.934 198.977 308.171 198.839 307.511 198.564C306.848 198.286 306.269 197.913 305.778 197.438C304.724 196.359 304.192 194.892 304.192 193.037V183.939L304.183 183.935Z" fill="#5F6368"/>
<path d="M319.504 182.756H319.723C320.264 181.896 321.03 181.179 322.028 180.601C323.023 180.025 324.149 179.734 325.401 179.734C327.684 179.734 329.396 180.416 330.525 181.78C331.654 183.147 332.224 184.955 332.224 187.219V198.392H328.129V187.776C328.129 186.203 327.766 185.102 327.04 184.476C326.314 183.851 325.363 183.538 324.184 183.538C323.47 183.538 322.842 183.688 322.304 183.982C321.762 184.276 321.293 184.676 320.905 185.177C320.511 185.68 320.217 186.256 320.02 186.909C319.82 187.56 319.726 188.242 319.726 188.955V198.392H315.631V180.329H319.501V182.759L319.504 182.756Z" fill="#5F6368"/>
<path d="M352.512 194.072C351.752 195.47 350.67 196.643 349.268 197.575C347.87 198.511 346.146 198.973 344.106 198.973C342.752 198.973 341.507 198.733 340.365 198.254C339.223 197.776 338.235 197.103 337.396 196.246C336.561 195.386 335.91 194.373 335.441 193.203C334.972 192.036 334.74 190.754 334.74 189.349C334.74 188.045 334.959 186.813 335.403 185.646C335.848 184.479 336.467 183.46 337.265 182.587C338.063 181.714 339.029 181.017 340.159 180.504C341.288 179.991 342.542 179.731 343.919 179.731C345.292 179.731 346.568 179.963 347.66 180.432C348.752 180.901 349.681 181.549 350.441 182.387C351.202 183.222 351.787 184.229 352.193 185.408C352.6 186.588 352.803 187.879 352.803 189.277V189.609C352.778 189.734 352.766 189.84 352.766 189.94C352.741 190.041 352.728 190.141 352.728 190.234H338.826C338.901 191.095 339.107 191.845 339.452 192.483C339.796 193.121 340.218 193.65 340.722 194.069C341.225 194.488 341.785 194.795 342.398 194.992C343.012 195.192 343.615 195.286 344.203 195.286C345.383 195.286 346.353 195.004 347.119 194.438C347.879 193.872 348.505 193.171 348.999 192.336L352.503 194.069L352.512 194.072ZM348.718 187.107C348.668 186.738 348.552 186.328 348.367 185.874C348.186 185.418 347.898 185.002 347.519 184.62C347.138 184.239 346.647 183.913 346.046 183.644C345.442 183.375 344.713 183.238 343.853 183.238C342.674 183.238 341.66 183.588 340.809 184.289C339.961 184.989 339.389 185.928 339.095 187.107H348.718Z" fill="#5F6368"/>
<path d="M355.519 180.322H359.388V183.05H359.607C359.826 182.581 360.13 182.149 360.508 181.742C360.89 181.336 361.319 180.992 361.8 180.707C362.279 180.422 362.783 180.191 363.311 180.006C363.84 179.825 364.35 179.734 364.844 179.734C365.432 179.734 365.936 179.794 366.355 179.9C366.774 180.013 367.153 180.166 367.497 180.36L366.318 184.085C366.049 183.96 365.745 183.869 365.417 183.807C365.085 183.744 364.685 183.716 364.222 183.716C363.559 183.716 362.952 183.854 362.395 184.126C361.841 184.398 361.356 184.767 360.937 185.236C360.518 185.705 360.192 186.262 359.961 186.903C359.729 187.544 359.611 188.223 359.611 188.939V198.388H355.516V180.326L355.519 180.322Z" fill="#5F6368"/>
<path d="M271.6 145.413C271.6 148.616 270.649 151.165 268.747 153.067C266.61 155.331 263.804 156.46 260.326 156.46C256.847 156.46 254.178 155.309 251.873 153.004C249.567 150.699 248.416 147.859 248.416 144.487C248.416 141.116 249.567 138.276 251.873 135.97C254.178 133.665 256.997 132.514 260.326 132.514C262.012 132.514 263.601 132.811 265.093 133.412C266.588 134.009 267.818 134.854 268.778 135.942L266.667 138.057C265.963 137.203 265.049 136.536 263.929 136.058C262.806 135.576 261.608 135.339 260.329 135.339C257.832 135.339 255.718 136.205 253.988 137.935C252.276 139.686 251.425 141.869 251.425 144.5C251.425 147.13 252.28 149.313 253.988 151.065C255.718 152.795 257.829 153.661 260.329 153.661C262.612 153.661 264.514 153.02 266.029 151.741C267.543 150.461 268.422 148.697 268.653 146.458H260.329V143.705H271.441C271.547 144.303 271.603 144.881 271.603 145.435L271.6 145.413Z" fill="#5F6368"/>
<path d="M273.615 148.103C273.615 145.692 274.372 143.696 275.886 142.12C277.422 140.54 279.356 139.752 281.683 139.752C284.011 139.752 285.931 140.543 287.446 142.12C288.982 143.699 289.751 145.695 289.751 148.103C289.751 150.511 288.982 152.532 287.446 154.087C285.931 155.666 284.011 156.454 281.683 156.454C279.356 156.454 277.422 155.663 275.886 154.087C274.372 152.507 273.615 150.515 273.615 148.103ZM276.562 148.103C276.562 149.789 277.053 151.153 278.036 152.2C279.018 153.248 280.235 153.771 281.686 153.771C283.138 153.771 284.358 153.248 285.337 152.2C286.316 151.153 286.811 149.789 286.811 148.103C286.811 146.417 286.319 145.082 285.337 144.04C284.336 142.974 283.119 142.439 281.686 142.439C280.254 142.439 279.04 142.974 278.036 144.04C277.056 145.088 276.562 146.439 276.562 148.103Z" fill="#5F6368"/>
<path d="M291.547 148.103C291.547 145.692 292.304 143.696 293.818 142.12C295.354 140.54 297.287 139.752 299.615 139.752C301.942 139.752 303.863 140.543 305.377 142.12C306.913 143.699 307.683 145.695 307.683 148.103C307.683 150.511 306.913 152.532 305.377 154.087C303.863 155.666 301.942 156.454 299.615 156.454C297.287 156.454 295.354 155.663 293.818 154.087C292.304 152.507 291.547 150.515 291.547 148.103ZM294.494 148.103C294.494 149.789 294.985 151.153 295.967 152.2C296.95 153.248 298.166 153.771 299.618 153.771C301.07 153.771 302.29 153.248 303.269 152.2C304.248 151.153 304.742 149.789 304.742 148.103C304.742 146.417 304.251 145.082 303.269 144.04C302.268 142.974 301.051 142.439 299.618 142.439C298.185 142.439 296.971 142.974 295.967 144.04C294.985 145.088 294.494 146.439 294.494 148.103Z" fill="#5F6368"/>
<path d="M317.317 163.376C316.438 163.376 315.618 163.263 314.848 163.041C314.079 162.819 313.378 162.503 312.749 162.096C312.12 161.69 311.582 161.211 311.132 160.655C310.684 160.101 310.34 159.479 310.106 158.797L312.893 157.646C313.212 158.565 313.766 159.3 314.557 159.857C315.349 160.411 316.262 160.689 317.31 160.689C318.912 160.689 320.157 160.21 321.058 159.25C321.959 158.29 322.403 156.967 322.403 155.281V153.773H322.275C321.721 154.605 320.967 155.262 320.019 155.744C319.068 156.223 318.039 156.463 316.932 156.463C314.883 156.463 313.118 155.666 311.648 154.061C310.196 152.419 309.471 150.43 309.471 148.106C309.471 145.782 310.196 143.805 311.648 142.182C313.121 140.559 314.88 139.749 316.932 139.749C318.042 139.749 319.072 139.989 320.019 140.468C320.967 140.95 321.721 141.606 322.275 142.438H322.403V140.261H325.222V155.278C325.222 157.796 324.505 159.769 323.079 161.202C321.627 162.653 319.707 163.379 317.317 163.379V163.376ZM317.414 153.77C318.865 153.77 320.051 153.248 320.97 152.2C321.931 151.152 322.413 149.789 322.413 148.103C322.413 146.417 321.931 145.106 320.97 144.04C320.032 142.973 318.846 142.438 317.414 142.438C315.981 142.438 314.823 142.973 313.857 144.04C312.896 145.106 312.414 146.461 312.414 148.103C312.414 149.745 312.896 151.124 313.857 152.166C314.817 153.235 316.003 153.77 317.414 153.77Z" fill="#5F6368"/>
<path d="M331.761 133.027V155.947H328.814V133.027H331.761Z" fill="#5F6368"/>
<path d="M342.233 156.46C339.927 156.46 338.028 155.669 336.533 154.093C335.038 152.513 334.293 150.518 334.293 148.109C334.293 145.701 335.019 143.73 336.47 142.138C337.922 140.549 339.777 139.755 342.042 139.755C344.307 139.755 346.218 140.509 347.598 142.01C348.977 143.518 349.662 145.623 349.662 148.334L349.628 148.653H337.299C337.34 150.189 337.853 151.428 338.835 152.366C339.818 153.304 340.991 153.774 342.358 153.774C344.238 153.774 345.708 152.835 346.775 150.955L349.4 152.235C348.696 153.558 347.72 154.593 346.468 155.337C345.217 156.082 343.806 156.46 342.226 156.46H342.233ZM337.525 146.217H346.525C346.437 145.128 345.996 144.228 345.195 143.511C344.397 142.795 343.321 142.439 341.979 142.439C340.869 142.439 339.915 142.783 339.114 143.464C338.313 144.146 337.784 145.066 337.528 146.217H337.525Z" fill="#5F6368"/>
<path d="M370.059 156.461C366.665 156.461 363.824 155.319 361.541 153.033C359.276 150.749 358.146 147.9 358.146 144.484C358.146 141.069 359.276 138.232 361.541 135.967C363.806 133.662 366.64 132.511 370.059 132.511C373.478 132.511 376.322 133.762 378.481 136.258L376.369 138.307C374.727 136.321 372.621 135.332 370.059 135.332C367.497 135.332 365.395 136.186 363.687 137.894C362.001 139.58 361.156 141.782 361.156 144.487C361.156 147.193 362.001 149.395 363.687 151.081C365.392 152.792 367.519 153.642 370.059 153.642C372.731 153.642 375.043 152.52 377.01 150.28L379.153 152.363C378.065 153.667 376.732 154.671 375.149 155.388C373.569 156.104 371.874 156.461 370.059 156.461Z" fill="#5F6368"/>
<path d="M384.726 133.027V155.947H381.779V133.027H384.726Z" fill="#5F6368"/>
<path d="M387.262 148.103C387.262 145.692 388.019 143.696 389.533 142.12C391.069 140.54 393.002 139.752 395.33 139.752C397.657 139.752 399.578 140.543 401.092 142.12C402.628 143.699 403.398 145.695 403.398 148.103C403.398 150.511 402.628 152.532 401.092 154.087C399.578 155.666 397.657 156.454 395.33 156.454C393.002 156.454 391.069 155.663 389.533 154.087C388.019 152.507 387.262 150.515 387.262 148.103ZM390.209 148.103C390.209 149.789 390.7 151.153 391.682 152.2C392.664 153.248 393.881 153.771 395.333 153.771C396.784 153.771 398.004 153.248 398.984 152.2C399.963 151.153 400.457 149.789 400.457 148.103C400.457 146.417 399.966 145.082 398.984 144.04C397.983 142.974 396.766 142.439 395.333 142.439C393.9 142.439 392.686 142.974 391.682 144.04C390.703 145.088 390.209 146.439 390.209 148.103Z" fill="#5F6368"/>
<path d="M419.69 155.948H416.871V153.771H416.743C416.296 154.54 415.604 155.178 414.678 155.691C413.752 156.204 412.782 156.461 411.781 156.461C409.861 156.461 408.384 155.91 407.349 154.812C406.313 153.711 405.797 152.151 405.797 150.124V140.265H408.744V149.933C408.806 152.495 410.098 153.774 412.62 153.774C413.796 153.774 414.775 153.299 415.567 152.351C416.358 151.403 416.749 150.265 416.749 148.942V140.265H419.696V155.951L419.69 155.948Z" fill="#5F6368"/>
<path d="M429.682 156.46C427.633 156.46 425.868 155.65 424.398 154.027C422.947 152.385 422.221 150.408 422.221 148.103C422.221 145.798 422.947 143.824 424.398 142.179C425.871 140.555 427.63 139.745 429.682 139.745C430.833 139.745 431.884 139.989 432.835 140.483C433.783 140.975 434.515 141.625 435.028 142.438H435.156L435.028 140.261V133.027H437.975V155.947H435.156V153.77H435.028C434.515 154.58 433.786 155.231 432.835 155.725C431.884 156.216 430.836 156.46 429.682 156.46ZM430.164 153.77C431.615 153.77 432.801 153.248 433.72 152.2C434.681 151.152 435.159 149.789 435.159 148.103C435.159 146.417 434.681 145.106 433.72 144.04C432.782 142.973 431.596 142.438 430.164 142.438C428.731 142.438 427.573 142.973 426.607 144.04C425.646 145.106 425.168 146.461 425.168 148.103C425.168 149.745 425.646 151.124 426.607 152.166C427.567 153.235 428.753 153.77 430.164 153.77Z" fill="#5F6368"/>
</svg>
