<svg width="372" height="195" viewBox="0 0 372 195" fill="none" xmlns="http://www.w3.org/2000/svg">
<rect width="372" height="195" fill="#161616"/>
<g clip-path="url(#clip0_14556_61870)">
<path d="M222.583 83.1953H214.678V110.808H222.583V83.1953Z" fill="white"/>
<path d="M204.634 83.1938L190.53 97.3087V83.1938H182.627V110.808H188.214L202.32 96.6942V110.808H210.223V83.1938H204.634Z" fill="white"/>
<path d="M246.48 102.214C245.45 103.245 244.138 103.947 242.71 104.233C241.281 104.518 239.8 104.373 238.454 103.817C237.108 103.261 235.956 102.318 235.145 101.108C234.333 99.8971 233.899 98.4733 233.896 97.0159C233.893 95.5584 234.321 94.1328 235.127 92.9188C235.933 91.7049 237.081 90.7571 238.425 90.1952C239.769 89.6333 241.249 89.4824 242.679 89.7617C244.108 90.0409 245.424 90.7376 246.458 91.764L251.826 86.3513C246.003 80.5725 236.467 80.5908 230.668 86.3932C224.869 92.1955 224.853 101.788 230.668 107.606C236.482 113.424 246.053 113.424 251.869 107.606L246.48 102.214Z" fill="white"/>
<path d="M164.07 82C161.105 81.9995 158.206 82.8788 155.741 84.5268C153.275 86.1747 151.353 88.5173 150.218 91.2582C149.083 93.9992 148.786 97.0153 149.364 99.9253C149.942 102.835 151.37 105.508 153.467 107.606C155.563 109.704 158.235 111.133 161.143 111.712C164.051 112.291 167.066 111.994 169.805 110.858C172.545 109.723 174.886 107.8 176.533 105.333C178.181 102.866 179.06 99.9655 179.059 96.9987C179.059 93.0211 177.48 89.2065 174.669 86.3939C171.858 83.5812 168.046 82.0007 164.07 82ZM164.07 104.378C162.612 104.378 161.187 103.946 159.975 103.135C158.763 102.325 157.818 101.173 157.26 99.8258C156.701 98.4782 156.555 96.9953 156.84 95.5646C157.124 94.1339 157.826 92.8196 158.856 91.7881C159.887 90.7565 161.201 90.054 162.631 89.7693C164.06 89.4846 165.543 89.6306 166.89 90.1887C168.237 90.7469 169.388 91.6922 170.198 92.9051C171.008 94.1179 171.44 95.5439 171.44 97.0026C171.44 98.9583 170.663 100.834 169.281 102.217C167.899 103.6 166.025 104.377 164.07 104.378Z" fill="white"/>
<path d="M120.002 91.094H129.848V110.806H137.753V91.094H147.599V83.1841H120.002V91.094Z" fill="white"/>
</g>
<defs>
<clipPath id="clip0_14556_61870">
<rect width="132" height="30" fill="white" transform="translate(120.002 82)"/>
</clipPath>
</defs>
</svg>
