<svg width="372" height="195" viewBox="0 0 372 195" fill="none" xmlns="http://www.w3.org/2000/svg">
<rect width="372" height="195" fill="#232F3E"/>
<mask id="mask0_14556_61818" style="mask-type:luminance" maskUnits="userSpaceOnUse" x="134" y="45" width="105" height="105">
<path d="M238.8 45H134V149.8H238.8V45Z" fill="white"/>
</mask>
<g mask="url(#mask0_14556_61818)">
<path d="M205.266 45H134V116.616L167.183 149.8H238.8V78.5334L205.266 45Z" fill="white"/>
<path d="M204.407 47.1953L236.636 79.4243V147.636H168.074L136.195 115.726V47.1953H204.407ZM205.266 45H134V116.616L167.183 149.8H238.8V78.5334L205.266 45Z" fill="#F49819"/>
<path d="M151.019 104.018V107.867H148.855V97.4001H152.864C153.819 97.3365 154.741 97.6546 155.473 98.2591C155.982 98.7363 156.332 99.3727 156.459 100.041C156.587 100.709 156.523 101.441 156.237 102.077C155.95 102.713 155.473 103.254 154.869 103.604C154.264 103.954 153.564 104.113 152.864 104.018H151.019ZM151.019 102.363H152.641C152.864 102.395 153.087 102.363 153.278 102.3C153.469 102.236 153.66 102.109 153.819 101.95C154.073 101.6 154.2 101.154 154.2 100.741C154.2 100.295 154.073 99.8817 153.819 99.5317C153.501 99.2454 153.087 99.0863 152.641 99.0863H151.051L151.019 102.363ZM165.622 107.867L164.922 105.545H161.359L160.659 107.867H158.336L161.995 97.4001H164.54L168.104 107.867H165.622ZM161.773 103.859H164.381L163.077 99.4999L161.773 103.859ZM171.222 107.867V97.4001H175.23C176.185 97.3365 177.108 97.6546 177.839 98.2591C178.444 98.8636 178.794 99.7226 178.794 100.582C178.794 101.186 178.603 101.759 178.253 102.236C177.903 102.745 177.426 103.127 176.853 103.413L179.462 107.931H177.139L174.817 103.827H173.322V107.836H171.222V107.867ZM173.385 102.172H174.976C175.167 102.204 175.326 102.204 175.517 102.141C175.708 102.109 175.867 102.013 175.994 101.918C176.153 101.822 176.249 101.663 176.344 101.504C176.439 101.345 176.503 101.186 176.535 100.995V100.55C176.598 100.2 176.503 99.8181 176.28 99.5317C176.058 99.2454 175.739 99.0545 175.358 98.9909H173.449V102.204L173.385 102.172ZM184.839 107.867V99.2136H181.594V97.4001H190.247V99.2136H187.002V107.867H184.839ZM195.751 100.613V107.867H193.747V97.4001H196.197L200.46 104.749V97.4001H202.464V107.867H200.015L195.751 100.613ZM206.505 107.867V97.4001H213.409V99.1499H208.764V101.6H212.518V103.35H208.764V106.149H213.409V107.899H206.505V107.867ZM217.386 107.867V97.4001H221.395C222.349 97.3365 223.272 97.6546 224.003 98.2591C224.608 98.8636 224.958 99.7226 224.958 100.582C224.958 101.186 224.767 101.759 224.449 102.236C224.099 102.745 223.622 103.127 223.049 103.413L225.658 107.931H223.335L221.013 103.827H219.549V107.836H217.386V107.867ZM219.581 102.172H221.14C221.49 102.236 221.872 102.141 222.158 101.918C222.444 101.695 222.635 101.377 222.699 100.995V100.55C222.763 100.2 222.667 99.8181 222.444 99.5317C222.222 99.2454 221.904 99.0545 221.554 98.9909H219.549L219.581 102.172Z" fill="#242E3D"/>
<path d="M157.289 68.9886C157.257 69.3386 157.321 69.7204 157.48 70.0385C157.575 70.293 157.734 70.643 157.83 70.8975C157.862 70.9293 157.893 70.993 157.893 71.0248C157.893 71.0566 157.925 71.1202 157.893 71.1521C157.893 71.3111 157.798 71.4066 157.639 71.502L156.844 72.0111H156.589C156.525 72.0111 156.462 72.0111 156.398 71.9793C156.334 71.9474 156.271 71.9156 156.239 71.852C156.08 71.6929 155.921 71.5338 155.794 71.3429C155.666 71.1202 155.539 70.8975 155.444 70.643C155.03 71.1521 154.489 71.5975 153.885 71.8838C153.28 72.1701 152.612 72.3292 151.944 72.3292C151.53 72.361 151.085 72.2974 150.671 72.1383C150.258 71.9793 149.908 71.7565 149.59 71.4384C149.303 71.1202 149.049 70.7703 148.922 70.3567C148.762 69.9431 148.699 69.5295 148.731 69.1159C148.731 68.6705 148.794 68.1932 148.985 67.7796C149.176 67.366 149.431 66.9842 149.781 66.6661C150.608 66.0298 151.626 65.7116 152.676 65.7116C153.058 65.7116 153.471 65.7434 153.853 65.8071L155.157 66.0616V65.2026C155.189 64.8526 155.189 64.5026 155.094 64.1845C154.998 63.8663 154.839 63.5482 154.616 63.2937C154.362 63.0709 154.044 62.9119 153.694 62.8482C153.376 62.7528 153.026 62.721 152.676 62.7846C152.23 62.8164 151.785 62.8482 151.371 62.9437C150.926 63.0391 150.48 63.1982 150.067 63.3891C149.908 63.4845 149.812 63.4845 149.621 63.58H149.462C149.303 63.58 149.208 63.4845 149.208 63.23V62.5937C149.208 62.4346 149.24 62.2756 149.303 62.1483C149.399 62.0529 149.526 61.9574 149.653 61.8938C150.099 61.6393 150.608 61.4484 151.117 61.3847C151.721 61.2256 152.326 61.1302 152.962 61.1302C154.076 61.0348 155.157 61.3847 156.016 62.0847C156.366 62.4665 156.621 62.9437 156.78 63.4209C156.939 63.93 157.003 64.439 156.971 64.9481L157.289 68.9886ZM152.517 70.7385C152.898 70.7066 153.312 70.6748 153.694 70.5794C154.139 70.3885 154.521 70.134 154.871 69.784C155.094 69.5613 155.221 69.2749 155.316 68.9886C155.38 68.6386 155.412 68.2887 155.412 67.9387V67.3978C154.68 67.2388 153.948 67.1433 153.217 67.1433C152.612 67.0797 151.976 67.2388 151.467 67.5887C151.117 67.9387 150.926 68.3841 150.894 68.8613C150.862 69.3386 151.021 69.8158 151.308 70.1976C151.435 70.3885 151.626 70.5476 151.849 70.643C152.071 70.7385 152.294 70.7703 152.548 70.7066H152.517V70.7385ZM162.029 72.0747C161.87 72.0747 161.679 72.0747 161.584 71.9793C161.489 71.852 161.393 71.6929 161.33 71.5338L158.53 62.371C158.466 62.2437 158.434 62.0847 158.434 61.9256C158.434 61.7665 158.53 61.6711 158.593 61.6711H159.771C159.93 61.6711 160.121 61.6711 160.216 61.7665C160.343 61.8938 160.407 62.0529 160.47 62.2119L162.475 69.9749L164.32 62.2119C164.32 62.1165 164.352 62.0529 164.384 61.9574C164.416 61.8938 164.479 61.8301 164.575 61.7665C164.702 61.7029 164.861 61.6711 165.02 61.6711H165.975C166.134 61.6393 166.293 61.6711 166.42 61.7665C166.515 61.8938 166.611 62.0529 166.674 62.2119L168.52 70.1658L170.524 62.2119C170.524 62.1165 170.556 62.021 170.588 61.9574C170.62 61.8938 170.683 61.8301 170.779 61.7665C170.906 61.7029 171.065 61.6711 171.224 61.6711H172.401C172.56 61.6711 172.656 61.7665 172.656 61.862V62.1165C172.656 62.2119 172.56 62.2756 172.56 62.371L169.761 71.4384C169.761 71.5338 169.729 71.6293 169.697 71.6929C169.665 71.7565 169.57 71.8202 169.506 71.8838C169.411 72.0429 169.252 72.0429 169.061 72.0429H168.011C167.852 72.0429 167.661 72.0429 167.565 71.9474C167.47 71.852 167.406 71.6929 167.311 71.502L165.466 63.8981L163.652 71.502C163.652 71.5975 163.62 71.6929 163.588 71.7565C163.557 71.8202 163.461 71.8838 163.398 71.9474C163.302 72.0111 163.175 72.0429 163.048 72.0429H162.029V72.0747ZM177.142 72.4247C176.537 72.4247 175.933 72.361 175.328 72.2656C174.851 72.1701 174.374 72.0111 173.928 71.8202C173.801 71.7565 173.674 71.6611 173.61 71.5657C173.547 71.4384 173.483 71.2793 173.515 71.1521V70.5476C173.515 70.293 173.61 70.1976 173.769 70.1976H173.928C174.024 70.1976 174.087 70.293 174.183 70.293C174.597 70.4839 175.042 70.6112 175.487 70.7385C175.933 70.8339 176.41 70.8975 176.887 70.8975C177.492 70.9293 178.096 70.7703 178.637 70.4521C178.828 70.3249 178.987 70.134 179.082 69.9431C179.178 69.7522 179.242 69.5295 179.242 69.2749C179.273 69.1159 179.242 68.9568 179.178 68.8295C179.114 68.7023 179.019 68.575 178.892 68.4796C178.542 68.1932 178.16 67.9705 177.714 67.8751L175.965 67.366C175.233 67.1751 174.565 66.7615 174.056 66.1889C173.674 65.6798 173.451 65.0753 173.451 64.439C173.451 63.9618 173.578 63.5164 173.801 63.1346C174.278 62.371 175.042 61.8301 175.901 61.5756C176.378 61.4165 176.887 61.3529 177.364 61.3847C177.619 61.3847 177.905 61.4165 178.16 61.4802C178.414 61.512 178.701 61.5438 178.955 61.6393C179.21 61.7347 179.401 61.7347 179.655 61.7983C179.91 61.8938 180.005 61.8938 180.164 61.9574C180.291 62.021 180.419 62.1165 180.514 62.2119C180.578 62.3392 180.61 62.4983 180.61 62.6573V63.1664C180.61 63.4209 180.514 63.5164 180.355 63.5164C180.196 63.5164 180.037 63.4527 179.91 63.3573C179.178 63.0391 178.383 62.8801 177.587 62.9119C177.046 62.9119 176.505 63.0073 176.028 63.2618C175.837 63.3573 175.678 63.5164 175.583 63.7073C175.487 63.8981 175.456 64.1209 175.487 64.3117C175.487 64.4708 175.487 64.6299 175.551 64.789C175.615 64.9481 175.71 65.0753 175.837 65.1708C176.187 65.5207 176.665 65.7116 177.142 65.7753L178.796 66.2843C179.496 66.507 180.132 66.8888 180.61 67.4615C180.96 67.9387 181.15 68.5432 181.119 69.1159C181.119 69.5931 181.023 70.1021 180.769 70.5157C180.578 70.9293 180.26 71.3111 179.91 71.5657C179.496 71.852 179.051 72.0747 178.605 72.2656C178.128 72.3929 177.619 72.4247 177.11 72.4247H177.142Z" fill="#242E3D"/>
<path d="M179.432 78.0883C175.168 80.9516 170.141 82.4788 165.019 82.447C158.529 82.447 152.293 80.0608 147.457 75.7021C147.107 75.3521 147.457 74.9067 147.903 75.1931C153.216 78.311 159.292 79.9336 165.465 79.9017C170.078 79.8699 174.659 78.9791 178.923 77.1974C179.495 76.9429 180.068 77.6428 179.432 78.0883ZM180.036 80.7289C179.877 81.0789 180.227 81.238 180.577 80.9835C182.677 79.2336 183.186 75.5748 182.74 75.034C182.295 74.5249 178.636 74.0795 176.441 75.6385C176.091 75.893 176.186 76.243 176.536 76.1475C177.714 75.9884 180.577 75.6385 181.086 76.3384C181.595 77.0702 180.481 79.5836 180.036 80.7289Z" fill="#F49819"/>
</g>
</svg>
