<svg width="574" height="302" viewBox="0 0 574 302" fill="none" xmlns="http://www.w3.org/2000/svg">
<rect width="574" height="301" transform="translate(0 0.5)" fill="white"/>
<mask id="mask0_14597_61313" style="mask-type:luminance" maskUnits="userSpaceOnUse" x="200" y="88" width="173" height="173">
<path d="M372.808 88.5825H200.904V260.456H372.808V88.5825Z" fill="white"/>
</mask>
<g mask="url(#mask0_14597_61313)">
<path d="M317.803 88.5825H200.904V206.034L255.335 260.456H372.808V143.578L317.803 88.5825Z" fill="white"/>
<path d="M316.394 92.1828L369.26 145.039V256.908H256.797L204.505 204.573V92.1828H316.394ZM317.803 88.5825H200.904V206.034L255.335 260.456H372.808V143.578L317.803 88.5825Z" fill="#F49819"/>
<path d="M228.82 185.372V191.686H225.271V174.519H231.847C233.413 174.415 234.926 174.937 236.126 175.928C236.961 176.711 237.535 177.754 237.744 178.85C237.953 179.946 237.849 181.146 237.379 182.19C236.909 183.233 236.126 184.12 235.135 184.694C234.143 185.268 232.995 185.529 231.847 185.372H228.82ZM228.82 182.659H231.482C231.847 182.711 232.212 182.659 232.525 182.555C232.839 182.45 233.152 182.242 233.413 181.981C233.83 181.407 234.039 180.676 234.039 179.998C234.039 179.268 233.83 178.589 233.413 178.015C232.891 177.546 232.212 177.285 231.482 177.285H228.872L228.82 182.659ZM252.774 191.686L251.626 187.877H245.781L244.633 191.686H240.823L246.825 174.519H251L256.845 191.686H252.774ZM246.459 185.112H250.739L248.599 177.963L246.459 185.112ZM261.959 191.686V174.519H268.535C270.1 174.415 271.614 174.937 272.814 175.928C273.805 176.92 274.379 178.328 274.379 179.737C274.379 180.729 274.066 181.668 273.492 182.45C272.918 183.285 272.135 183.911 271.196 184.381L275.475 191.79H271.666L267.856 185.059H265.403V191.634H261.959V191.686ZM265.508 182.346H268.117C268.43 182.398 268.691 182.398 269.004 182.294C269.317 182.242 269.578 182.085 269.787 181.929C270.048 181.772 270.205 181.511 270.361 181.25C270.518 180.99 270.622 180.729 270.674 180.416V179.685C270.779 179.111 270.622 178.485 270.257 178.015C269.891 177.546 269.37 177.233 268.743 177.128H265.612V182.398L265.508 182.346ZM284.295 191.686V177.494H278.972V174.519H293.167V177.494H287.844V191.686H284.295ZM302.195 179.789V191.686H298.907V174.519H302.926L309.919 186.573V174.519H313.207V191.686H309.188L302.195 179.789ZM319.834 191.686V174.519H331.159V177.389H323.54V181.407H329.698V184.277H323.54V188.868H331.159V191.738H319.834V191.686ZM337.682 191.686V174.519H344.258C345.824 174.415 347.337 174.937 348.537 175.928C349.529 176.92 350.103 178.328 350.103 179.737C350.103 180.729 349.79 181.668 349.268 182.45C348.694 183.285 347.911 183.911 346.972 184.381L351.251 191.79H347.441L343.632 185.059H341.231V191.634H337.682V191.686ZM341.283 182.346H343.84C344.414 182.45 345.041 182.294 345.51 181.929C345.98 181.563 346.293 181.042 346.398 180.416V179.685C346.502 179.111 346.345 178.485 345.98 178.015C345.615 177.546 345.093 177.233 344.519 177.128H341.231L341.283 182.346Z" fill="#242E3D"/>
<path d="M239.106 127.924C239.054 128.498 239.158 129.124 239.419 129.646C239.576 130.063 239.837 130.637 239.993 131.055C240.045 131.107 240.098 131.211 240.098 131.263C240.098 131.316 240.15 131.42 240.098 131.472C240.098 131.733 239.941 131.889 239.68 132.046L238.375 132.881H237.958C237.854 132.881 237.749 132.881 237.645 132.829C237.54 132.777 237.436 132.724 237.384 132.62C237.123 132.359 236.862 132.098 236.653 131.785C236.445 131.42 236.236 131.055 236.079 130.637C235.401 131.472 234.514 132.203 233.522 132.672C232.53 133.142 231.435 133.403 230.339 133.403C229.66 133.455 228.93 133.35 228.251 133.09C227.573 132.829 226.999 132.463 226.477 131.942C226.007 131.42 225.59 130.846 225.381 130.168C225.12 129.489 225.016 128.811 225.068 128.133C225.068 127.402 225.172 126.62 225.485 125.941C225.798 125.263 226.216 124.637 226.79 124.115C228.147 123.071 229.817 122.55 231.539 122.55C232.165 122.55 232.844 122.602 233.47 122.706L235.61 123.124V121.715C235.662 121.141 235.662 120.567 235.505 120.045C235.349 119.523 235.088 119.002 234.722 118.584C234.305 118.219 233.783 117.958 233.209 117.854C232.687 117.697 232.113 117.645 231.539 117.749C230.808 117.802 230.078 117.854 229.399 118.01C228.669 118.167 227.938 118.428 227.26 118.741C226.999 118.897 226.842 118.897 226.529 119.054H226.268C226.007 119.054 225.851 118.897 225.851 118.48V117.436C225.851 117.175 225.903 116.914 226.007 116.706C226.164 116.549 226.372 116.393 226.581 116.288C227.312 115.871 228.147 115.558 228.982 115.454C229.973 115.193 230.965 115.036 232.009 115.036C233.835 114.88 235.61 115.454 237.019 116.601C237.593 117.228 238.01 118.01 238.271 118.793C238.532 119.628 238.636 120.463 238.584 121.297L239.106 127.924ZM231.278 130.794C231.904 130.742 232.583 130.689 233.209 130.533C233.94 130.22 234.566 129.802 235.14 129.228C235.505 128.863 235.714 128.394 235.87 127.924C235.975 127.35 236.027 126.776 236.027 126.202V125.315C234.827 125.054 233.626 124.898 232.426 124.898C231.435 124.793 230.391 125.054 229.556 125.628C228.982 126.202 228.669 126.933 228.616 127.715C228.564 128.498 228.825 129.281 229.295 129.907C229.504 130.22 229.817 130.481 230.182 130.637C230.547 130.794 230.913 130.846 231.33 130.742H231.278V130.794ZM246.882 132.985C246.621 132.985 246.308 132.985 246.151 132.829C245.995 132.62 245.838 132.359 245.734 132.098L241.141 117.071C241.037 116.862 240.985 116.601 240.985 116.341C240.985 116.08 241.141 115.923 241.246 115.923H243.177C243.438 115.923 243.751 115.923 243.907 116.08C244.116 116.288 244.22 116.549 244.325 116.81L247.613 129.541L250.639 116.81C250.639 116.654 250.692 116.549 250.744 116.393C250.796 116.288 250.9 116.184 251.057 116.08C251.266 115.975 251.527 115.923 251.787 115.923H253.353C253.614 115.871 253.875 115.923 254.084 116.08C254.24 116.288 254.397 116.549 254.501 116.81L257.528 129.855L260.816 116.81C260.816 116.654 260.868 116.497 260.92 116.393C260.972 116.288 261.077 116.184 261.233 116.08C261.442 115.975 261.703 115.923 261.964 115.923H263.895C264.156 115.923 264.312 116.08 264.312 116.236V116.654C264.312 116.81 264.156 116.914 264.156 117.071L259.563 131.942C259.563 132.098 259.511 132.255 259.459 132.359C259.407 132.463 259.25 132.568 259.146 132.672C258.989 132.933 258.728 132.933 258.415 132.933H256.693C256.432 132.933 256.119 132.933 255.962 132.776C255.806 132.62 255.702 132.359 255.545 132.046L252.518 119.576L249.543 132.046C249.543 132.203 249.491 132.359 249.439 132.463C249.387 132.568 249.23 132.672 249.126 132.776C248.969 132.881 248.761 132.933 248.552 132.933H246.882V132.985ZM271.671 133.559C270.679 133.559 269.688 133.455 268.696 133.298C267.913 133.142 267.13 132.881 266.4 132.568C266.191 132.463 265.982 132.307 265.878 132.15C265.774 131.942 265.669 131.681 265.721 131.472V130.481C265.721 130.063 265.878 129.907 266.139 129.907H266.4C266.556 129.907 266.661 130.063 266.817 130.063C267.496 130.376 268.226 130.585 268.957 130.794C269.688 130.95 270.47 131.055 271.253 131.055C272.245 131.107 273.236 130.846 274.124 130.324C274.437 130.115 274.698 129.802 274.854 129.489C275.011 129.176 275.115 128.811 275.115 128.394C275.167 128.133 275.115 127.872 275.011 127.663C274.906 127.454 274.75 127.246 274.541 127.089C273.967 126.62 273.341 126.254 272.61 126.098L269.74 125.263C268.54 124.95 267.444 124.272 266.609 123.332C265.982 122.498 265.617 121.506 265.617 120.463C265.617 119.68 265.826 118.949 266.191 118.323C266.974 117.071 268.226 116.184 269.635 115.767C270.418 115.506 271.253 115.401 272.036 115.454C272.454 115.454 272.923 115.506 273.341 115.61C273.758 115.662 274.228 115.714 274.645 115.871C275.063 116.027 275.376 116.027 275.794 116.132C276.211 116.288 276.368 116.288 276.629 116.393C276.837 116.497 277.046 116.654 277.203 116.81C277.307 117.019 277.359 117.28 277.359 117.541V118.375C277.359 118.793 277.203 118.949 276.942 118.949C276.681 118.949 276.42 118.845 276.211 118.689C275.011 118.167 273.706 117.906 272.401 117.958C271.514 117.958 270.627 118.115 269.844 118.532C269.531 118.689 269.27 118.949 269.114 119.262C268.957 119.576 268.905 119.941 268.957 120.254C268.957 120.515 268.957 120.776 269.061 121.037C269.166 121.297 269.322 121.506 269.531 121.663C270.105 122.237 270.888 122.55 271.671 122.654L274.384 123.489C275.533 123.854 276.576 124.48 277.359 125.419C277.933 126.202 278.246 127.193 278.194 128.133C278.194 128.915 278.038 129.75 277.62 130.429C277.307 131.107 276.785 131.733 276.211 132.15C275.533 132.62 274.802 132.985 274.071 133.298C273.289 133.507 272.454 133.559 271.619 133.559H271.671Z" fill="#242E3D"/>
<path d="M275.428 142.848C268.435 147.544 260.189 150.048 251.787 149.996C241.141 149.996 230.913 146.083 222.98 138.934C222.406 138.36 222.98 137.63 223.711 138.099C232.426 143.213 242.394 145.874 252.518 145.822C260.085 145.77 267.6 144.309 274.593 141.387C275.532 140.969 276.472 142.117 275.428 142.848ZM276.42 147.178C276.159 147.752 276.733 148.013 277.307 147.596C280.751 144.726 281.586 138.726 280.856 137.839C280.125 137.004 274.123 136.273 270.522 138.83C269.948 139.247 270.105 139.821 270.679 139.665C272.61 139.404 277.307 138.83 278.142 139.978C278.977 141.178 277.15 145.3 276.42 147.178Z" fill="#F49819"/>
</g>
</svg>
