<svg width="372" height="195" viewBox="0 0 372 195" fill="none" xmlns="http://www.w3.org/2000/svg">
<rect width="372" height="195" fill="#76B900"/>
<g clip-path="url(#clip0_14556_61901)">
<path d="M190.896 79.3075H192.474V94.0011H190.896V79.3075ZM205.866 94.0011L198.012 82.2183V94.0011H196.435V79.3075H197.929L205.783 91.0542V79.3075H207.36V94.0011H205.866ZM216.105 94.1252C214.653 94.1252 213.32 93.5875 212.321 92.6C210.931 91.2196 210.931 89.7719 210.931 86.6543C210.931 83.5367 210.931 82.0942 212.321 80.7086C213.32 79.7159 214.648 79.1782 216.105 79.1782C218.765 79.1782 220.738 80.7861 221.237 83.5522H219.618C219.223 81.7581 217.958 80.5793 216.105 80.5793C215.126 80.5793 214.195 80.9517 213.549 81.6134C212.612 82.5647 212.513 83.5728 212.513 86.6492C212.513 89.7254 212.618 90.7335 213.549 91.6848C214.195 92.3467 215.126 92.7137 216.105 92.7137C217.953 92.7137 219.264 91.5401 219.66 89.7409H221.237C220.758 92.5172 218.744 94.1252 216.105 94.1252ZM224.537 94.0011V79.3075H233.724V80.7138H226.12V85.8942H232.605V87.3006H226.12V92.6051H233.724V94.0114H224.537V94.0011ZM242.417 87.9572H238.487V94.0062H236.91V79.3075H242.417C245.118 79.3075 246.986 80.9774 246.986 83.6194C246.986 86.2613 245.118 87.9572 242.417 87.9572ZM242.27 80.7086H238.487V86.5508H242.27C244.119 86.5508 245.409 85.5582 245.409 83.6194C245.409 81.6805 244.119 80.7086 242.27 80.7086ZM254.784 80.7086V94.0011H253.207V80.7086H248.929V79.3075H259.068V80.7138H254.784V80.7086ZM261.993 79.3075H263.57V94.0011H261.993V79.3075ZM276.073 92.6C275.074 93.5926 273.767 94.1252 272.29 94.1252C270.816 94.1252 269.504 93.5875 268.505 92.6C267.116 91.2196 267.116 89.7719 267.116 86.6543C267.116 83.5367 267.116 82.0942 268.505 80.7086C269.504 79.7159 270.811 79.1782 272.29 79.1782C273.767 79.1782 275.074 79.7159 276.073 80.7086C277.464 82.089 277.464 83.5367 277.464 86.6543C277.468 89.7719 277.468 91.2144 276.073 92.6ZM274.849 81.6393C274.205 80.9774 273.272 80.5846 272.294 80.5846C271.316 80.5846 270.383 80.9774 269.739 81.6393C268.802 82.5906 268.697 83.5781 268.697 86.6543C268.697 89.7305 268.802 90.718 269.739 91.6693C270.383 92.3312 271.316 92.724 272.294 92.724C273.272 92.724 274.205 92.3312 274.849 91.6693C275.786 90.7232 275.885 89.7305 275.885 86.6543C275.885 83.5781 275.782 82.5906 274.849 81.6393ZM290.47 94.0011L282.617 82.2183V94.0011H281.039V79.3075H282.533L290.387 91.0542V79.3075H291.964V94.0011H290.47ZM196.404 108.602H192.474V114.651H190.896V99.9571H196.404C199.105 99.9571 200.974 101.627 200.974 104.269C200.974 106.911 199.1 108.602 196.404 108.602ZM196.258 101.358H192.474V107.2H196.258C198.106 107.2 199.397 106.208 199.397 104.269C199.391 102.33 198.106 101.358 196.258 101.358ZM212.534 114.651L209.166 108.131H205.611V114.651H204.034V99.9571H209.708C212.284 99.9571 214.091 101.503 214.091 104.042C214.091 106.187 212.779 107.593 210.869 107.981L214.382 114.645H212.534V114.651ZM209.567 101.358H205.622V106.746H209.567C211.29 106.746 212.519 105.856 212.519 104.062C212.513 102.268 211.29 101.358 209.567 101.358ZM226.088 113.244C225.089 114.237 223.783 114.77 222.304 114.77C220.831 114.77 219.52 114.232 218.52 113.244C217.13 111.864 217.13 110.416 217.13 107.299C217.13 104.181 217.13 102.739 218.52 101.353C219.52 100.36 220.826 99.8279 222.304 99.8279C223.777 99.8279 225.089 100.366 226.088 101.353C227.478 102.734 227.478 104.181 227.478 107.299C227.478 110.416 227.478 111.864 226.088 113.244ZM224.86 102.289C224.215 101.627 223.283 101.234 222.304 101.234C221.326 101.234 220.394 101.627 219.749 102.289C218.812 103.24 218.707 104.228 218.707 107.304C218.707 110.38 218.812 111.368 219.749 112.319C220.394 112.981 221.326 113.374 222.304 113.374C223.283 113.374 224.215 112.981 224.86 112.319C225.797 111.368 225.896 110.38 225.896 107.304C225.896 104.228 225.797 103.235 224.86 102.289ZM239.736 113.084C238.695 114.201 237.306 114.775 235.786 114.775C234.333 114.775 233 114.237 232.001 113.25C230.612 111.869 230.612 110.422 230.612 107.304C230.612 104.186 230.612 102.744 232.001 101.358C233 100.366 234.308 99.833 235.786 99.833C238.611 99.833 240.522 101.648 240.959 104.228H239.382C238.966 102.372 237.639 101.234 235.786 101.234C234.807 101.234 233.875 101.627 233.229 102.289C232.292 103.24 232.194 104.228 232.194 107.304C232.194 110.38 232.298 111.388 233.229 112.34C233.875 113.001 234.807 113.369 235.786 113.369C236.869 113.369 237.905 112.934 238.592 112.112C239.195 111.388 239.424 110.587 239.424 109.45V108.338H235.786V106.957H241.001V109.289C241.006 110.975 240.652 112.112 239.736 113.084ZM252.999 114.651L249.631 108.131H246.077V114.651H244.5V99.9571H250.172C252.749 99.9571 254.555 101.503 254.555 104.042C254.555 106.187 253.243 107.593 251.333 107.981L254.846 114.645H252.999V114.651ZM250.027 101.358H246.077V106.746H250.027C251.75 106.746 252.978 105.856 252.978 104.062C252.978 102.268 251.75 101.358 250.027 101.358ZM267.621 114.651L266.433 111.326H259.969L258.787 114.651H257.106L262.55 99.9571H263.878L269.301 114.651H267.621ZM263.232 102.206L260.448 109.967H265.975L263.232 102.206ZM283.152 114.651V103.483L279.103 112.34H277.749L273.638 103.483V114.651H272.061V99.9571H273.638L278.457 110.38L283.152 99.9571H284.729V114.651H283.152Z" fill="#000119"/>
<path d="M173.061 60.8501H171.979V133.15H173.061V60.8501Z" fill="#000119"/>
<path d="M110.874 111.595V125.322H114.788V111.595H110.874ZM80.0645 111.574V125.322H84.0151V114.883H87.0758C88.0908 114.883 88.8091 115.131 89.2984 115.649C89.9178 116.3 90.1728 117.355 90.1728 119.283V125.317H93.9986V117.722C93.9986 112.303 90.5111 111.569 87.0966 111.569H80.0645M117.177 111.595V125.322H123.527C126.911 125.322 128.014 124.764 129.211 123.517C130.054 122.639 130.601 120.715 130.601 118.611C130.601 116.683 130.138 114.961 129.336 113.891C127.884 111.973 125.797 111.6 122.674 111.6H117.177V111.595ZM121.06 114.583H122.741C125.182 114.583 126.765 115.669 126.765 118.487C126.765 121.305 125.182 122.39 122.741 122.39H121.06V114.583ZM105.226 111.595L101.957 122.473L98.8237 111.595H94.5972L99.0683 125.322H104.711L109.218 111.595H105.226ZM132.423 125.322H136.337V111.595H132.418L132.423 125.322ZM143.4 111.6L137.93 125.317H141.792L142.656 122.892H149.126L149.943 125.317H154.133L148.621 111.6H143.4ZM156.153 125.741C155.476 125.741 154.93 125.198 154.93 124.531C154.93 123.864 155.476 123.321 156.153 123.321C156.83 123.321 157.376 123.864 157.376 124.531C157.376 125.198 156.83 125.741 156.153 125.741ZM156.153 123.554C155.606 123.554 155.185 123.972 155.185 124.531C155.185 125.089 155.606 125.508 156.153 125.508C156.699 125.508 157.121 125.089 157.121 124.531C157.121 123.967 156.699 123.554 156.153 123.554ZM156.372 125.172L156.137 124.676H155.997V125.172H155.705V123.885H156.236C156.502 123.885 156.668 124.076 156.668 124.288C156.668 124.464 156.554 124.577 156.429 124.629L156.705 125.172H156.372ZM156.2 124.122H155.997V124.459H156.2C156.309 124.459 156.377 124.381 156.377 124.293C156.377 124.2 156.309 124.122 156.2 124.122ZM145.946 114.103L148.319 120.529H143.499L145.946 114.103Z" fill="#000119"/>
<path d="M105.695 79.4419V76.1433C106.018 76.1226 106.346 76.102 106.679 76.0916C115.788 75.8072 121.768 83.8417 121.768 83.8417C121.768 83.8417 115.314 92.7188 108.391 92.7188C107.392 92.7188 106.502 92.5586 105.7 92.2897V82.2958C109.245 82.7198 109.958 84.2708 112.092 87.7916L116.834 83.8313C116.834 83.8313 113.372 79.3385 107.537 79.3385C106.897 79.3333 106.293 79.3799 105.695 79.4419ZM105.695 68.5483V73.4755C106.023 73.4496 106.351 73.429 106.679 73.4186C119.348 72.9947 127.603 83.7073 127.603 83.7073C127.603 83.7073 118.119 95.1178 108.245 95.1178C107.34 95.1178 106.491 95.0351 105.695 94.8955V97.9407C106.377 98.0286 107.079 98.0752 107.819 98.0752C117.011 98.0752 123.658 93.4271 130.097 87.9261C131.164 88.774 135.531 90.8317 136.431 91.7313C130.31 96.8033 116.048 100.893 107.959 100.893C107.178 100.893 106.429 100.846 105.695 100.774V105.055H140.632V68.5483H105.695ZM105.695 92.2948V94.8955C97.1948 93.3962 94.8318 84.6482 94.8318 84.6482C94.8318 84.6482 98.9127 80.1708 105.695 79.4471V82.3009C105.69 82.3009 105.684 82.3009 105.679 82.3009C102.124 81.8771 99.3447 85.1705 99.3447 85.1705C99.3447 85.1705 100.901 90.7024 105.695 92.2948ZM90.5948 84.2657C90.5948 84.2657 95.6334 76.9033 105.695 76.1433V73.4755C94.5507 74.3596 84.9004 83.702 84.9004 83.702C84.9004 83.702 90.3658 99.3418 105.695 100.774V97.9355C94.4466 96.5396 90.5948 84.2657 90.5948 84.2657Z" fill="#000119"/>
</g>
<defs>
<clipPath id="clip0_14556_61901">
<rect width="211.997" height="72.2995" fill="white" transform="translate(80 60.8501)"/>
</clipPath>
</defs>
</svg>
